<?xml version="1.0" encoding="UTF-8"?>
<svg width="196px" height="13px" viewBox="0 0 196 13" version="1.1" xmlns="http://www.w3.org/2000/svg" xmlns:xlink="http://www.w3.org/1999/xlink" xmlns:sketch="http://www.bohemiancoding.com/sketch/ns">
    <!-- Generator: Sketch 3.5.1 (25234) - http://www.bohemiancoding.com/sketch -->
    <title>Group</title>
    <desc>Created with Sketch.</desc>
    <defs></defs>
    <g id="Page-1" stroke="none" stroke-width="1" fill="none" fill-rule="evenodd" sketch:type="MSPage">
        <g id="Group" sketch:type="MSLayerGroup" transform="translate(3.000000, 0.000000)" fill="#7B1173">
            <circle id="Oval" sketch:type="MSShapeGroup" cx="19.3000002" cy="6.30000019" r="4.30000019"></circle>
            <path d="M4.30000019,10.6000004 C6.67482472,10.6000004 8.60000038,8.67482472 8.60000038,6.30000019 C8.60000038,3.92517566 6.67482472,2 4.30000019,2 C1.92517566,2 0,3.92517566 0,6.30000019 C0,8.67482472 1.92517566,10.6000004 4.30000019,10.6000004 Z" id="Oval-Copy-2" sketch:type="MSShapeGroup"></path>
            <circle id="Oval" sketch:type="MSShapeGroup" cx="36.25" cy="6.25" r="6.25"></circle>
            <path d="M85.25,12.5 C88.7017797,12.5 91.5,9.70177969 91.5,6.25 C91.5,2.79822031 88.7017797,0 85.25,0 C81.7982203,0 79,2.79822031 79,6.25 C79,9.70177969 81.7982203,12.5 85.25,12.5 Z" id="Oval-Copy-4" sketch:type="MSShapeGroup"></path>
            <circle id="Oval" sketch:type="MSShapeGroup" cx="53.3000002" cy="6.30000019" r="4.30000019"></circle>
            <circle id="Oval" sketch:type="MSShapeGroup" cx="68.3000002" cy="6.30000019" r="4.30000019"></circle>
            <circle id="Oval" sketch:type="MSShapeGroup" cx="117.3" cy="6.30000019" r="4.30000019"></circle>
            <circle id="Oval-Copy" sketch:type="MSShapeGroup" cx="102.3" cy="6.30000019" r="4.30000019"></circle>
            <circle id="Oval" sketch:type="MSShapeGroup" cx="134.25" cy="6.25" r="6.25"></circle>
            <circle id="Oval" sketch:type="MSShapeGroup" cx="151.3" cy="6.30000019" r="4.30000019"></circle>
            <circle id="Oval-Copy-3" sketch:type="MSShapeGroup" cx="166.3" cy="6.30000019" r="4.30000019"></circle>
            <circle id="Oval" sketch:type="MSShapeGroup" cx="183.25" cy="6.25" r="6.25"></circle>
        </g>
    </g>
</svg>