<svg height="13" viewBox="0 0 196 13" width="196" xmlns="http://www.w3.org/2000/svg"><g fill="#f7398b" fill-rule="evenodd" transform="translate(3)"><circle cx="19.3" cy="6.3" r="4.3"/><path d="m4.30000019 10.6000004c2.37482453 0 4.30000019-1.92517568 4.30000019-4.30000021s-1.92517566-4.30000019-4.30000019-4.30000019-4.30000019 1.92517566-4.30000019 4.30000019 1.92517566 4.30000021 4.30000019 4.30000021z"/><circle cx="36.25" cy="6.25" r="6.25"/><path d="m85.25 12.5c3.4517797 0 6.25-2.79822031 6.25-6.25s-2.7982203-6.25-6.25-6.25-6.25 2.79822031-6.25 6.25 2.7982203 6.25 6.25 6.25z"/><circle cx="53.3" cy="6.3" r="4.3"/><circle cx="68.3" cy="6.3" r="4.3"/><circle cx="117.3" cy="6.3" r="4.3"/><circle cx="102.3" cy="6.3" r="4.3"/><circle cx="134.25" cy="6.25" r="6.25"/><circle cx="151.3" cy="6.3" r="4.3"/><circle cx="166.3" cy="6.3" r="4.3"/><circle cx="183.25" cy="6.25" r="6.25"/></g></svg>