<svg xmlns="http://www.w3.org/2000/svg" width="274" height="351" viewBox="0 0 274 351">
  <g fill="none" fill-rule="evenodd" transform="translate(1 -10)">
    <circle cx="136" cy="224" r="136" fill="#FFF" fill-opacity=".104" stroke="#E2E2E2" stroke-width="2"/>
    <circle cx="110" cy="285" r="3" fill="#1A46FC"/>
    <text fill="#FFF" font-family=".AppleSystemUIFont" font-size="13">
      <tspan x="77" y="13">UN-ANALYZED DATA</tspan>
    </text>
    <circle cx="136" cy="224" r="136" fill="#FFF" fill-opacity=".104" stroke="#131212" stroke-width="2"/>
    <circle cx="110" cy="285" r="3" fill="#C92A82"/>
    <path stroke="#131212" stroke-linecap="square" d="M133.597321,116.42663 L133.597321,32.1289062"/>
    <path fill="#131212" d="M79.3359375,10.840332 L78.1933594,10.840332 L78.1933594,16.8515625 C78.1933594,17.8291065 78.5160287,18.6341928 79.161377,19.2668457 C79.8067252,19.8994986 80.6964462,20.2158203 81.8305664,20.2158203 C82.9689185,20.2158203 83.8596973,19.8994986 84.5029297,19.2668457 C85.1461621,18.6341928 85.4677734,17.8291065 85.4677734,16.8515625 L85.4677734,10.840332 L84.3251953,10.840332 L84.3251953,16.7753906 C84.3251953,17.4651727 84.1083192,18.0353981 83.6745605,18.486084 C83.2408019,18.9367698 82.6261433,19.1621094 81.8305664,19.1621094 C81.0392213,19.1621094 80.4256207,18.9367698 79.9897461,18.486084 C79.5538715,18.0353981 79.3359375,17.4651727 79.3359375,16.7753906 L79.3359375,10.840332 Z M88.8891602,20 L88.8891602,12.8969727 L88.9907227,12.8969727 L93.9609375,20 L95.0717773,20 L95.0717773,10.840332 L93.9418945,10.840332 L93.9418945,17.96875 L93.840332,17.96875 L88.8701172,10.840332 L87.7592773,10.840332 L87.7592773,20 L88.8891602,20 Z M101.311523,16.8325195 L101.311523,15.7978516 L97.1474609,15.7978516 L97.1474609,16.8325195 L101.311523,16.8325195 Z M109.150879,20 L109.01123,19.6032715 C108.918131,19.3387845 108.81128,19.0341 108.690674,18.689209 C108.570068,18.3443179 108.463217,18.0396335 108.370117,17.7751465 L108.230469,17.378418 L104.586914,17.378418 L103.666504,20 L102.466797,20 L105.84375,10.840332 L106.973633,10.840332 L110.350586,20 L109.150879,20 Z M106.35791,12.3193359 L106.211914,12.7319336 C106.114583,13.0070001 105.995037,13.3476542 105.853271,13.7539062 L105.427979,14.9726562 C105.286213,15.3789083 105.166667,15.7195624 105.069336,15.9946289 L104.92334,16.4072266 L107.894043,16.4072266 L106.459473,12.3193359 L106.35791,12.3193359 Z M113.010254,20 L113.010254,12.8969727 L113.111816,12.8969727 L118.082031,20 L119.192871,20 L119.192871,10.840332 L118.062988,10.840332 L118.062988,17.96875 L117.961426,17.96875 L112.991211,10.840332 L111.880371,10.840332 L111.880371,20 L113.010254,20 Z M127.406738,20 L127.26709,19.6032715 C127.17399,19.3387845 127.067139,19.0341 126.946533,18.689209 C126.825927,18.3443179 126.719076,18.0396335 126.625977,17.7751465 L126.486328,17.378418 L122.842773,17.378418 L121.922363,20 L120.722656,20 L124.099609,10.840332 L125.229492,10.840332 L128.606445,20 L127.406738,20 Z M124.61377,12.3193359 L124.467773,12.7319336 C124.370442,13.0070001 124.250896,13.3476542 124.109131,13.7539062 L123.683838,14.9726562 C123.542073,15.3789083 123.422527,15.7195624 123.325195,15.9946289 L123.179199,16.4072266 L126.149902,16.4072266 L124.715332,12.3193359 L124.61377,12.3193359 Z M135.696777,18.9716797 L135.696777,20 L130.13623,20 L130.13623,10.840332 L131.278809,10.840332 L131.278809,18.9716797 L135.696777,18.9716797 Z M139.905273,20 L138.762695,20 L138.762695,16.0581055 L135.512695,10.840332 L136.813965,10.840332 L139.283203,14.9091797 L139.384766,14.9091797 L141.854004,10.840332 L143.155273,10.840332 L139.905273,16.0581055 L139.905273,20 Z M144.4375,20 L151.210449,20 L151.210449,18.9716797 L145.941895,18.9716797 L145.941895,18.8701172 L151.102539,11.652832 L151.102539,10.840332 L144.615234,10.840332 L144.615234,11.8686523 L149.623535,11.8686523 L149.623535,11.9702148 L144.4375,19.1875 L144.4375,20 Z M158.891113,18.9716797 L154.358887,18.9716797 L154.358887,15.8232422 L158.65625,15.8232422 L158.65625,14.8076172 L154.358887,14.8076172 L154.358887,11.8686523 L158.891113,11.8686523 L158.891113,10.840332 L153.216309,10.840332 L153.216309,20 L158.891113,20 L158.891113,18.9716797 Z M160.884277,10.840332 L164.026367,10.840332 C165.384772,10.840332 166.44482,11.2423462 167.206543,12.0463867 C167.968266,12.8504272 168.349121,13.9739511 168.349121,15.4169922 C168.349121,16.8600333 167.969323,17.9846151 167.209717,18.7907715 C166.45011,19.5969279 165.389004,20 164.026367,20 L160.884277,20 L160.884277,10.840332 Z M162.026855,11.8686523 L162.026855,18.9716797 L163.950195,18.9716797 C164.974289,18.9716797 165.768796,18.6606476 166.33374,18.0385742 C166.898684,17.4165008 167.181152,16.5468806 167.181152,15.4296875 C167.181152,14.3082626 166.896569,13.4344107 166.327393,12.8081055 C165.758217,12.1818003 164.965825,11.8686523 163.950195,11.8686523 L162.026855,11.8686523 Z M173.839844,10.840332 L176.981934,10.840332 C178.340339,10.840332 179.400387,11.2423462 180.162109,12.0463867 C180.923832,12.8504272 181.304688,13.9739511 181.304688,15.4169922 C181.304688,16.8600333 180.92489,17.9846151 180.165283,18.7907715 C179.405677,19.5969279 178.344571,20 176.981934,20 L173.839844,20 L173.839844,10.840332 Z M174.982422,11.8686523 L174.982422,18.9716797 L176.905762,18.9716797 C177.929855,18.9716797 178.724362,18.6606476 179.289307,18.0385742 C179.854251,17.4165008 180.136719,16.5468806 180.136719,15.4296875 C180.136719,14.3082626 179.852135,13.4344107 179.282959,12.8081055 C178.713783,12.1818003 177.921392,11.8686523 176.905762,11.8686523 L174.982422,11.8686523 Z M188.712402,20 L188.572754,19.6032715 C188.479654,19.3387845 188.372803,19.0341 188.252197,18.689209 C188.131591,18.3443179 188.02474,18.0396335 187.931641,17.7751465 L187.791992,17.378418 L184.148438,17.378418 L183.228027,20 L182.02832,20 L185.405273,10.840332 L186.535156,10.840332 L189.912109,20 L188.712402,20 Z M185.919434,12.3193359 L185.773438,12.7319336 C185.676106,13.0070001 185.55656,13.3476542 185.414795,13.7539062 L184.989502,14.9726562 C184.847737,15.3789083 184.728191,15.7195624 184.630859,15.9946289 L184.484863,16.4072266 L187.455566,16.4072266 L186.020996,12.3193359 L185.919434,12.3193359 Z M193.885742,20 L192.743164,20 L192.743164,11.8686523 L189.791504,11.8686523 L189.791504,10.840332 L196.837402,10.840332 L196.837402,11.8686523 L193.885742,11.8686523 L193.885742,20 Z M203.400879,20 L203.26123,19.6032715 C203.168131,19.3387845 203.06128,19.0341 202.940674,18.689209 C202.820068,18.3443179 202.713217,18.0396335 202.620117,17.7751465 L202.480469,17.378418 L198.836914,17.378418 L197.916504,20 L196.716797,20 L200.09375,10.840332 L201.223633,10.840332 L204.600586,20 L203.400879,20 Z M200.60791,12.3193359 L200.461914,12.7319336 C200.364583,13.0070001 200.245037,13.3476542 200.103271,13.7539062 L199.677979,14.9726562 C199.536213,15.3789083 199.416667,15.7195624 199.319336,15.9946289 L199.17334,16.4072266 L202.144043,16.4072266 L200.709473,12.3193359 L200.60791,12.3193359 Z"/>
  </g>
</svg>
