<svg xmlns="http://www.w3.org/2000/svg" width="414" height="320" viewBox="0 0 414 320">
  <g fill="none" fill-rule="evenodd">
    <g transform="translate(9 17)">
      <g transform="translate(360)">
        <circle cx="18" cy="18" r="18" fill="#FFF" fill-opacity=".104" fill-rule="nonzero" stroke="#131212" stroke-width="2"/>
        <circle cx="18" cy="18" r="12" fill="#E2E2E2" fill-rule="nonzero"/>
      </g>
      <g transform="translate(300)">
        <circle cx="18" cy="18" r="18" fill="#FFF" fill-opacity=".104" fill-rule="nonzero" stroke="#131212" stroke-width="2"/>
        <circle cx="18" cy="18" r="12" fill="#E2E2E2" fill-rule="nonzero"/>
      </g>
      <g transform="translate(240)">
        <circle cx="18" cy="18" r="18" fill="#FFF" fill-opacity=".104" fill-rule="nonzero" stroke="#131212" stroke-width="2"/>
        <circle cx="18" cy="18" r="12" fill="#E2E2E2" fill-rule="nonzero"/>
      </g>
      <g transform="translate(360 60)">
        <circle cx="18" cy="18" r="18" fill="#FFF" fill-opacity=".104" fill-rule="nonzero" stroke="#131212" stroke-width="2"/>
        <circle cx="18" cy="18" r="12" fill="#E2E2E2" fill-rule="nonzero"/>
      </g>
      <g transform="translate(300 60)">
        <circle cx="18" cy="18" r="18" fill="#FFF" fill-opacity=".104" fill-rule="nonzero" stroke="#131212" stroke-width="2"/>
        <circle cx="18" cy="18" r="12" fill="#E2E2E2" fill-rule="nonzero"/>
      </g>
      <g transform="translate(240 60)">
        <circle cx="18" cy="18" r="18" fill="#FFF" fill-opacity=".104" fill-rule="nonzero" stroke="#131212" stroke-width="2"/>
        <circle cx="18" cy="18" r="12" fill="#E2E2E2" fill-rule="nonzero"/>
      </g>
      <g transform="translate(360 120)">
        <circle cx="18" cy="18" r="18" fill="#FFF" fill-opacity=".104" fill-rule="nonzero" stroke="#131212" stroke-width="2"/>
        <circle cx="18" cy="18" r="12" fill="#E2E2E2" fill-rule="nonzero"/>
      </g>
      <g transform="translate(300 120)">
        <circle cx="18" cy="18" r="18" fill="#FFF" fill-opacity=".104" fill-rule="nonzero" stroke="#131212" stroke-width="2"/>
        <circle cx="18" cy="18" r="12" fill="#E2E2E2" fill-rule="nonzero"/>
      </g>
      <g transform="translate(240 120)">
        <circle cx="18" cy="18" r="18" fill="#FFF" fill-opacity=".104" fill-rule="nonzero" stroke="#131212" stroke-width="2"/>
        <circle cx="18" cy="18" r="12" fill="#E2E2E2" fill-rule="nonzero"/>
      </g>
      <g transform="translate(360 180)">
        <circle cx="18" cy="18" r="18" fill="#FFF" fill-opacity=".104" fill-rule="nonzero" stroke="#131212" stroke-width="2"/>
        <circle cx="18" cy="18" r="12" fill="#E2E2E2" fill-rule="nonzero"/>
      </g>
      <g transform="translate(360 239)">
        <circle cx="18" cy="18" r="18" fill="#FFF" fill-opacity=".104" fill-rule="nonzero" stroke="#131212" stroke-width="2"/>
        <circle cx="18" cy="18" r="12" fill="#E2E2E2" fill-rule="nonzero"/>
      </g>
      <g transform="translate(300 180)">
        <circle cx="18" cy="18" r="18" fill="#FFF" fill-opacity=".104" fill-rule="nonzero" stroke="#131212" stroke-width="2"/>
        <circle cx="18" cy="18" r="12" fill="#E2E2E2" fill-rule="nonzero"/>
      </g>
      <g transform="translate(300 239)">
        <circle cx="18" cy="18" r="18" fill="#FFF" fill-opacity=".104" fill-rule="nonzero" stroke="#131212" stroke-width="2"/>
        <circle cx="18" cy="18" r="12" fill="#E2E2E2" fill-rule="nonzero"/>
      </g>
      <g transform="translate(240 180)">
        <circle cx="18" cy="18" r="18" fill="#FFF" fill-opacity=".104" fill-rule="nonzero" stroke="#131212" stroke-width="2"/>
        <circle cx="18" cy="18" r="12" fill="#E2E2E2" fill-rule="nonzero"/>
      </g>
      <g transform="translate(240 239)">
        <circle cx="18" cy="18" r="18" fill="#FFF" fill-opacity=".104" fill-rule="nonzero" stroke="#131212" stroke-width="2"/>
        <circle cx="18" cy="18" r="12" fill="#E2E2E2" fill-rule="nonzero"/>
      </g>
      <g transform="translate(180)">
        <circle cx="18" cy="18" r="18" fill="#FFF" fill-opacity=".104" fill-rule="nonzero" stroke="#131212" stroke-width="2"/>
        <circle cx="18" cy="18" r="12" fill="#E2E2E2" fill-rule="nonzero"/>
      </g>
      <g transform="translate(120)">
        <circle cx="18" cy="18" r="18" fill="#FFF" fill-opacity=".104" fill-rule="nonzero" stroke="#131212" stroke-width="2"/>
        <circle cx="18" cy="18" r="12" fill="#E2E2E2" fill-rule="nonzero"/>
      </g>
      <g transform="translate(60)">
        <circle cx="18" cy="18" r="18" fill="#FFF" fill-opacity=".104" fill-rule="nonzero" stroke="#131212" stroke-width="2"/>
        <circle cx="18" cy="18" r="12" fill="#E2E2E2" fill-rule="nonzero"/>
      </g>
      <circle cx="18" cy="18" r="18" fill="#FFF" fill-opacity=".104" fill-rule="nonzero" stroke="#131212" stroke-width="2"/>
      <circle cx="18" cy="18" r="12" fill="#E2E2E2" fill-rule="nonzero"/>
      <g transform="translate(180 60)">
        <circle cx="18" cy="18" r="18" fill="#FFF" fill-opacity=".104" fill-rule="nonzero" stroke="#131212" stroke-width="2"/>
        <circle cx="18" cy="18" r="12" fill="#E2E2E2" fill-rule="nonzero"/>
      </g>
      <circle cx="18" cy="18" r="12" fill="#7B1173" fill-rule="nonzero" transform="translate(120 60)"/>
      <g transform="translate(60 60)">
        <circle cx="18" cy="18" r="18" fill="#FFF" fill-opacity=".104" fill-rule="nonzero" stroke="#131212" stroke-width="2"/>
        <circle cx="18" cy="18" r="12" fill="#E2E2E2" fill-rule="nonzero"/>
      </g>
      <g transform="translate(0 60)">
        <circle cx="18" cy="18" r="18" fill="#FFF" fill-opacity=".104" fill-rule="nonzero" stroke="#131212" stroke-width="2"/>
        <circle cx="18" cy="18" r="12" fill="#E2E2E2" fill-rule="nonzero"/>
      </g>
      <g transform="translate(180 120)">
        <circle cx="18" cy="18" r="18" fill="#FFF" fill-opacity=".104" fill-rule="nonzero" stroke="#131212" stroke-width="2"/>
        <circle cx="18" cy="18" r="12" fill="#E2E2E2" fill-rule="nonzero"/>
      </g>
      <circle cx="18" cy="18" r="12" fill="#FF4092" fill-rule="nonzero" transform="translate(120 120)"/>
      <g transform="translate(60 120)">
        <circle cx="18" cy="18" r="18" fill="#FFF" fill-opacity=".104" fill-rule="nonzero" stroke="#131212" stroke-width="2"/>
        <circle cx="18" cy="18" r="12" fill="#E2E2E2" fill-rule="nonzero"/>
      </g>
      <g transform="translate(0 120)">
        <circle cx="18" cy="18" r="18" fill="#FFF" fill-opacity=".104" fill-rule="nonzero" stroke="#131212" stroke-width="2"/>
        <circle cx="18" cy="18" r="12" fill="#E2E2E2" fill-rule="nonzero"/>
      </g>
      <g transform="translate(180 180)">
        <circle cx="18" cy="18" r="18" fill="#FFF" fill-opacity=".104" fill-rule="nonzero" stroke="#131212" stroke-width="2"/>
        <circle cx="18" cy="18" r="12" fill="#E2E2E2" fill-rule="nonzero"/>
      </g>
      <g transform="translate(180 239)">
        <circle cx="18" cy="18" r="18" fill="#FFF" fill-opacity=".104" fill-rule="nonzero" stroke="#131212" stroke-width="2"/>
        <circle cx="18" cy="18" r="12" fill="#E2E2E2" fill-rule="nonzero"/>
      </g>
      <g transform="translate(120 180)">
        <circle cx="18" cy="18" r="18" fill="#FFF" fill-opacity=".104" fill-rule="nonzero" stroke="#131212" stroke-width="2"/>
        <circle cx="18" cy="18" r="12" fill="#E2E2E2" fill-rule="nonzero"/>
      </g>
      <g transform="translate(120 239)">
        <circle cx="18" cy="18" r="18" fill="#FFF" fill-opacity=".104" fill-rule="nonzero" stroke="#131212" stroke-width="2"/>
        <circle cx="18" cy="18" r="12" fill="#E2E2E2" fill-rule="nonzero"/>
      </g>
      <g transform="translate(60 180)">
        <circle cx="18" cy="18" r="18" fill="#FFF" fill-opacity=".104" fill-rule="nonzero" stroke="#131212" stroke-width="2"/>
        <circle cx="18" cy="18" r="12" fill="#E2E2E2" fill-rule="nonzero"/>
      </g>
      <g transform="translate(60 239)">
        <circle cx="18" cy="18" r="18" fill="#FFF" fill-opacity=".104" fill-rule="nonzero" stroke="#131212" stroke-width="2"/>
        <circle cx="18" cy="18" r="12" fill="#E2E2E2" fill-rule="nonzero"/>
      </g>
      <g transform="translate(0 180)">
        <circle cx="18" cy="18" r="18" fill="#FFF" fill-opacity=".104" fill-rule="nonzero" stroke="#131212" stroke-width="2"/>
        <circle cx="18" cy="18" r="12" fill="#E2E2E2" fill-rule="nonzero"/>
      </g>
      <g transform="translate(0 239)">
        <circle cx="18" cy="18" r="18" fill="#FFF" fill-opacity=".104" fill-rule="nonzero" stroke="#131212" stroke-width="2"/>
        <circle cx="18" cy="18" r="12" fill="#E2E2E2" fill-rule="nonzero"/>
      </g>
    </g>
    <path stroke="#141414" stroke-linecap="square" d="M147,107.496377 L147,142.503571"/>
  </g>
</svg>
