<svg xmlns="http://www.w3.org/2000/svg" xmlns:xlink="http://www.w3.org/1999/xlink" width="555" height="484" viewBox="0 0 555 484">
  <defs>
    <circle id="data-unanalyzed-a" cx="459.5" cy="209.5" r="5.5"/>
    <circle id="data-unanalyzed-b" cx="44.5" cy="125.5" r="5.5"/>
    <circle id="data-unanalyzed-c" cx="44.5" cy="209.5" r="5.5"/>
    <circle id="data-unanalyzed-d" cx="44.5" cy="292.5" r="5.5"/>
    <circle id="data-unanalyzed-e" cx="5.5" cy="209.5" r="5.5"/>
    <circle id="data-unanalyzed-f" cx="5.5" cy="252.5" r="5.5"/>
    <circle id="data-unanalyzed-g" cx="44.5" cy="167.5" r="5.5"/>
    <circle id="data-unanalyzed-h" cx="44.5" cy="252.5" r="5.5"/>
    <circle id="data-unanalyzed-i" cx="44.5" cy="334.5" r="5.5"/>
    <circle id="data-unanalyzed-j" cx="459.5" cy="252.5" r="5.5"/>
    <circle id="data-unanalyzed-k" cx="209.5" cy="5.5" r="5.5"/>
    <circle id="data-unanalyzed-l" cx="86.5" cy="125.5" r="5.5"/>
    <circle id="data-unanalyzed-m" cx="86.5" cy="209.5" r="5.5"/>
    <circle id="data-unanalyzed-n" cx="86.5" cy="292.5" r="5.5"/>
    <circle id="data-unanalyzed-o" cx="86.5" cy="376.5" r="5.5"/>
    <circle id="data-unanalyzed-p" cx="86.5" cy="86.5" r="5.5"/>
    <circle id="data-unanalyzed-q" cx="86.5" cy="167.5" r="5.5"/>
    <circle id="data-unanalyzed-r" cx="86.5" cy="252.5" r="5.5"/>
    <circle id="data-unanalyzed-s" cx="86.5" cy="334.5" r="5.5"/>
    <circle id="data-unanalyzed-t" cx="125.5" cy="44.5" r="5.5"/>
    <circle id="data-unanalyzed-u" cx="125.5" cy="125.5" r="5.5"/>
    <circle id="data-unanalyzed-v" cx="125.5" cy="209.5" r="5.5"/>
    <circle id="data-unanalyzed-w" cx="125.5" cy="292.5" r="5.5"/>
    <circle id="data-unanalyzed-x" cx="125.5" cy="376.5" r="5.5"/>
    <circle id="data-unanalyzed-y" cx="125.5" cy="86.5" r="5.5"/>
    <circle id="data-unanalyzed-z" cx="125.5" cy="252.5" r="5.5"/>
    <circle id="data-unanalyzed-A" cx="125.5" cy="334.5" r="5.5"/>
    <circle id="data-unanalyzed-B" cx="125.5" cy="417.5" r="5.5"/>
    <circle id="data-unanalyzed-C" cx="167.5" cy="44.5" r="5.5"/>
    <circle id="data-unanalyzed-D" cx="167.5" cy="125.5" r="5.5"/>
    <circle id="data-unanalyzed-E" cx="167.5" cy="209.5" r="5.5"/>
    <circle id="data-unanalyzed-F" cx="167.5" cy="292.5" r="5.5"/>
    <circle id="data-unanalyzed-G" cx="167.5" cy="376.5" r="5.5"/>
    <circle id="data-unanalyzed-H" cx="167.5" cy="86.5" r="5.5"/>
    <circle id="data-unanalyzed-I" cx="167.5" cy="167.5" r="5.5"/>
    <circle id="data-unanalyzed-J" cx="167.5" cy="252.5" r="5.5"/>
    <circle id="data-unanalyzed-K" cx="167.5" cy="334.5" r="5.5"/>
    <circle id="data-unanalyzed-L" cx="167.5" cy="417.5" r="5.5"/>
    <circle id="data-unanalyzed-M" cx="209.5" cy="44.5" r="5.5"/>
    <circle id="data-unanalyzed-N" cx="209.5" cy="125.5" r="5.5"/>
    <circle id="data-unanalyzed-O" cx="209.5" cy="209.5" r="5.5"/>
    <circle id="data-unanalyzed-P" cx="209.5" cy="292.5" r="5.5"/>
    <circle id="data-unanalyzed-Q" cx="209.5" cy="376.5" r="5.5"/>
    <circle id="data-unanalyzed-R" cx="209.5" cy="86.5" r="5.5"/>
    <circle id="data-unanalyzed-S" cx="209.5" cy="167.5" r="5.5"/>
    <circle id="data-unanalyzed-T" cx="209.5" cy="252.5" r="5.5"/>
    <circle id="data-unanalyzed-U" cx="209.5" cy="334.5" r="5.5"/>
    <circle id="data-unanalyzed-V" cx="209.5" cy="417.5" r="5.5"/>
    <circle id="data-unanalyzed-W" cx="252.5" cy="44.5" r="5.5"/>
    <circle id="data-unanalyzed-X" cx="252.5" cy="125.5" r="5.5"/>
    <circle id="data-unanalyzed-Y" cx="252.5" cy="209.5" r="5.5"/>
    <circle id="data-unanalyzed-Z" cx="252.5" cy="292.5" r="5.5"/>
    <circle id="data-unanalyzed-aa" cx="252.5" cy="376.5" r="5.5"/>
    <circle id="data-unanalyzed-ab" cx="252.5" cy="86.5" r="5.5"/>
    <circle id="data-unanalyzed-ac" cx="252.5" cy="167.5" r="5.5"/>
    <circle id="data-unanalyzed-ad" cx="252.5" cy="252.5" r="5.5"/>
    <circle id="data-unanalyzed-ae" cx="252.5" cy="334.5" r="5.5"/>
    <circle id="data-unanalyzed-af" cx="252.5" cy="417.5" r="5.5"/>
    <circle id="data-unanalyzed-ag" cx="292.5" cy="44.5" r="5.5"/>
    <circle id="data-unanalyzed-ah" cx="292.5" cy="125.5" r="5.5"/>
    <circle id="data-unanalyzed-ai" cx="292.5" cy="209.5" r="5.5"/>
    <circle id="data-unanalyzed-aj" cx="292.5" cy="292.5" r="5.5"/>
    <circle id="data-unanalyzed-ak" cx="292.5" cy="376.5" r="5.5"/>
    <circle id="data-unanalyzed-al" cx="292.5" cy="86.5" r="5.5"/>
    <circle id="data-unanalyzed-am" cx="292.5" cy="167.5" r="5.5"/>
    <circle id="data-unanalyzed-an" cx="292.5" cy="252.5" r="5.5"/>
    <circle id="data-unanalyzed-ao" cx="292.5" cy="334.5" r="5.5"/>
    <circle id="data-unanalyzed-ap" cx="292.5" cy="417.5" r="5.5"/>
    <circle id="data-unanalyzed-aq" cx="334.5" cy="44.5" r="5.5"/>
    <circle id="data-unanalyzed-ar" cx="334.5" cy="125.5" r="5.5"/>
    <circle id="data-unanalyzed-as" cx="334.5" cy="209.5" r="5.5"/>
    <circle id="data-unanalyzed-at" cx="334.5" cy="292.5" r="5.5"/>
    <circle id="data-unanalyzed-au" cx="334.5" cy="376.5" r="5.5"/>
    <circle id="data-unanalyzed-av" cx="334.5" cy="86.5" r="5.5"/>
    <circle id="data-unanalyzed-aw" cx="334.5" cy="167.5" r="5.5"/>
    <circle id="data-unanalyzed-ax" cx="334.5" cy="252.5" r="5.5"/>
    <circle id="data-unanalyzed-ay" cx="334.5" cy="334.5" r="5.5"/>
    <circle id="data-unanalyzed-az" cx="334.5" cy="417.5" r="5.5"/>
    <circle id="data-unanalyzed-aA" cx="252.5" cy="5.5" r="5.5"/>
    <circle id="data-unanalyzed-aB" cx="376.5" cy="125.5" r="5.5"/>
    <circle id="data-unanalyzed-aC" cx="376.5" cy="209.5" r="5.5"/>
    <circle id="data-unanalyzed-aD" cx="376.5" cy="292.5" r="5.5"/>
    <circle id="data-unanalyzed-aE" cx="376.5" cy="376.5" r="5.5"/>
    <circle id="data-unanalyzed-aF" cx="376.5" cy="86.5" r="5.5"/>
    <circle id="data-unanalyzed-aG" cx="376.5" cy="167.5" r="5.5"/>
    <circle id="data-unanalyzed-aH" cx="376.5" cy="252.5" r="5.5"/>
    <circle id="data-unanalyzed-aI" cx="376.5" cy="334.5" r="5.5"/>
    <circle id="data-unanalyzed-aJ" cx="252.5" cy="459.5" r="5.5"/>
    <circle id="data-unanalyzed-aK" cx="459.5" cy="167.5" r="5.5"/>
    <circle id="data-unanalyzed-aL" cx="417.5" cy="125.5" r="5.5"/>
    <circle id="data-unanalyzed-aM" cx="417.5" cy="209.5" r="5.5"/>
    <circle id="data-unanalyzed-aN" cx="417.5" cy="292.5" r="5.5"/>
    <circle id="data-unanalyzed-aO" cx="5.5" cy="167.5" r="5.5"/>
    <circle id="data-unanalyzed-aP" cx="417.5" cy="167.5" r="5.5"/>
    <circle id="data-unanalyzed-aQ" cx="417.5" cy="252.5" r="5.5"/>
    <circle id="data-unanalyzed-aR" cx="417.5" cy="334.5" r="5.5"/>
    <circle id="data-unanalyzed-aS" cx="209.5" cy="459.5" r="5.5"/>
  </defs>
  <g fill="none">
    <g transform="translate(40 13)">
      <use fill="#E2E2E2" fill-rule="evenodd" xlink:href="#data-unanalyzed-a"/>
      <circle cx="459.5" cy="209.5" r="7" stroke="#E2E2E2" stroke-width="3"/>
      <use fill="#E2E2E2" fill-rule="evenodd" xlink:href="#data-unanalyzed-b"/>
      <circle cx="44.5" cy="125.5" r="7" stroke="#E2E2E2" stroke-width="3"/>
      <use fill="#E2E2E2" fill-rule="evenodd" xlink:href="#data-unanalyzed-c"/>
      <circle cx="44.5" cy="209.5" r="7" stroke="#E2E2E2" stroke-width="3"/>
      <use fill="#E2E2E2" fill-rule="evenodd" xlink:href="#data-unanalyzed-d"/>
      <circle cx="44.5" cy="292.5" r="7" stroke="#E2E2E2" stroke-width="3"/>
      <use fill="#E2E2E2" fill-rule="evenodd" xlink:href="#data-unanalyzed-e"/>
      <circle cx="5.5" cy="209.5" r="7" stroke="#E2E2E2" stroke-width="3"/>
      <use fill="#E2E2E2" fill-rule="evenodd" xlink:href="#data-unanalyzed-f"/>
      <circle cx="5.5" cy="252.5" r="7" stroke="#E2E2E2" stroke-width="3"/>
      <use fill="#E2E2E2" fill-rule="evenodd" xlink:href="#data-unanalyzed-g"/>
      <circle cx="44.5" cy="167.5" r="7" stroke="#E2E2E2" stroke-width="3"/>
      <use fill="#E2E2E2" fill-rule="evenodd" xlink:href="#data-unanalyzed-h"/>
      <circle cx="44.5" cy="252.5" r="7" stroke="#E2E2E2" stroke-width="3"/>
      <use fill="#E2E2E2" fill-rule="evenodd" xlink:href="#data-unanalyzed-i"/>
      <circle cx="44.5" cy="334.5" r="7" stroke="#E2E2E2" stroke-width="3"/>
      <use fill="#E2E2E2" fill-rule="evenodd" xlink:href="#data-unanalyzed-j"/>
      <circle cx="459.5" cy="252.5" r="7" stroke="#E2E2E2" stroke-width="3"/>
      <use fill="#E2E2E2" fill-rule="evenodd" xlink:href="#data-unanalyzed-k"/>
      <circle cx="209.5" cy="5.5" r="7" stroke="#E2E2E2" stroke-width="3"/>
      <use fill="#E2E2E2" fill-rule="evenodd" xlink:href="#data-unanalyzed-l"/>
      <circle cx="86.5" cy="125.5" r="7" stroke="#E2E2E2" stroke-width="3"/>
      <use fill="#E2E2E2" fill-rule="evenodd" xlink:href="#data-unanalyzed-m"/>
      <circle cx="86.5" cy="209.5" r="7" stroke="#E2E2E2" stroke-width="3"/>
      <use fill="#E2E2E2" fill-rule="evenodd" xlink:href="#data-unanalyzed-n"/>
      <circle cx="86.5" cy="292.5" r="7" stroke="#E2E2E2" stroke-width="3"/>
      <use fill="#E2E2E2" fill-rule="evenodd" xlink:href="#data-unanalyzed-o"/>
      <circle cx="86.5" cy="376.5" r="7" stroke="#E2E2E2" stroke-width="3"/>
      <use fill="#E2E2E2" fill-rule="evenodd" xlink:href="#data-unanalyzed-p"/>
      <circle cx="86.5" cy="86.5" r="7" stroke="#E2E2E2" stroke-width="3"/>
      <use fill="#E2E2E2" fill-rule="evenodd" xlink:href="#data-unanalyzed-q"/>
      <circle cx="86.5" cy="167.5" r="7" stroke="#E2E2E2" stroke-width="3"/>
      <use fill="#E2E2E2" fill-rule="evenodd" xlink:href="#data-unanalyzed-r"/>
      <circle cx="86.5" cy="252.5" r="7" stroke="#E2E2E2" stroke-width="3"/>
      <use fill="#E2E2E2" fill-rule="evenodd" xlink:href="#data-unanalyzed-s"/>
      <circle cx="86.5" cy="334.5" r="7" stroke="#E2E2E2" stroke-width="3"/>
      <use fill="#E2E2E2" fill-rule="evenodd" xlink:href="#data-unanalyzed-t"/>
      <circle cx="125.5" cy="44.5" r="7" stroke="#E2E2E2" stroke-width="3"/>
      <use fill="#E2E2E2" fill-rule="evenodd" xlink:href="#data-unanalyzed-u"/>
      <circle cx="125.5" cy="125.5" r="7" stroke="#E2E2E2" stroke-width="3"/>
      <use fill="#E2E2E2" fill-rule="evenodd" xlink:href="#data-unanalyzed-v"/>
      <circle cx="125.5" cy="209.5" r="7" stroke="#E2E2E2" stroke-width="3"/>
      <use fill="#E2E2E2" fill-rule="evenodd" xlink:href="#data-unanalyzed-w"/>
      <circle cx="125.5" cy="292.5" r="7" stroke="#E2E2E2" stroke-width="3"/>
      <use fill="#E2E2E2" fill-rule="evenodd" xlink:href="#data-unanalyzed-x"/>
      <circle cx="125.5" cy="376.5" r="7" stroke="#E2E2E2" stroke-width="3"/>
      <use fill="#E2E2E2" fill-rule="evenodd" xlink:href="#data-unanalyzed-y"/>
      <circle cx="125.5" cy="86.5" r="7" stroke="#E2E2E2" stroke-width="3"/>
      <circle cx="126" cy="168" r="11" fill="#F6388A"/>
      <use fill="#E2E2E2" fill-rule="evenodd" xlink:href="#data-unanalyzed-z"/>
      <circle cx="125.5" cy="252.5" r="7" stroke="#E2E2E2" stroke-width="3"/>
      <use fill="#E2E2E2" fill-rule="evenodd" xlink:href="#data-unanalyzed-A"/>
      <circle cx="125.5" cy="334.5" r="7" stroke="#E2E2E2" stroke-width="3"/>
      <use fill="#E2E2E2" fill-rule="evenodd" xlink:href="#data-unanalyzed-B"/>
      <circle cx="125.5" cy="417.5" r="7" stroke="#E2E2E2" stroke-width="3"/>
      <use fill="#E2E2E2" fill-rule="evenodd" xlink:href="#data-unanalyzed-C"/>
      <circle cx="167.5" cy="44.5" r="7" stroke="#E2E2E2" stroke-width="3"/>
      <use fill="#E2E2E2" fill-rule="evenodd" xlink:href="#data-unanalyzed-D"/>
      <circle cx="167.5" cy="125.5" r="7" stroke="#E2E2E2" stroke-width="3"/>
      <use fill="#E2E2E2" fill-rule="evenodd" xlink:href="#data-unanalyzed-E"/>
      <circle cx="167.5" cy="209.5" r="7" stroke="#E2E2E2" stroke-width="3"/>
      <use fill="#E2E2E2" fill-rule="evenodd" xlink:href="#data-unanalyzed-F"/>
      <circle cx="167.5" cy="292.5" r="7" stroke="#E2E2E2" stroke-width="3"/>
      <use fill="#E2E2E2" fill-rule="evenodd" xlink:href="#data-unanalyzed-G"/>
      <circle cx="167.5" cy="376.5" r="7" stroke="#E2E2E2" stroke-width="3"/>
      <use fill="#E2E2E2" fill-rule="evenodd" xlink:href="#data-unanalyzed-H"/>
      <circle cx="167.5" cy="86.5" r="7" stroke="#E2E2E2" stroke-width="3"/>
      <use fill="#E2E2E2" fill-rule="evenodd" xlink:href="#data-unanalyzed-I"/>
      <circle cx="167.5" cy="167.5" r="7" stroke="#E2E2E2" stroke-width="3"/>
      <use fill="#E2E2E2" fill-rule="evenodd" xlink:href="#data-unanalyzed-J"/>
      <circle cx="167.5" cy="252.5" r="7" stroke="#E2E2E2" stroke-width="3"/>
      <use fill="#E2E2E2" fill-rule="evenodd" xlink:href="#data-unanalyzed-K"/>
      <circle cx="167.5" cy="334.5" r="7" stroke="#E2E2E2" stroke-width="3"/>
      <use fill="#E2E2E2" fill-rule="evenodd" xlink:href="#data-unanalyzed-L"/>
      <circle cx="167.5" cy="417.5" r="7" stroke="#E2E2E2" stroke-width="3"/>
      <use fill="#E2E2E2" fill-rule="evenodd" xlink:href="#data-unanalyzed-M"/>
      <circle cx="209.5" cy="44.5" r="7" stroke="#E2E2E2" stroke-width="3"/>
      <use fill="#E2E2E2" fill-rule="evenodd" xlink:href="#data-unanalyzed-N"/>
      <circle cx="209.5" cy="125.5" r="7" stroke="#E2E2E2" stroke-width="3"/>
      <use fill="#E2E2E2" fill-rule="evenodd" xlink:href="#data-unanalyzed-O"/>
      <circle cx="209.5" cy="209.5" r="7" stroke="#E2E2E2" stroke-width="3"/>
      <use fill="#E2E2E2" fill-rule="evenodd" xlink:href="#data-unanalyzed-P"/>
      <circle cx="209.5" cy="292.5" r="7" stroke="#E2E2E2" stroke-width="3"/>
      <use fill="#E2E2E2" fill-rule="evenodd" xlink:href="#data-unanalyzed-Q"/>
      <circle cx="209.5" cy="376.5" r="7" stroke="#E2E2E2" stroke-width="3"/>
      <use fill="#E2E2E2" fill-rule="evenodd" xlink:href="#data-unanalyzed-R"/>
      <circle cx="209.5" cy="86.5" r="7" stroke="#E2E2E2" stroke-width="3"/>
      <use fill="#E2E2E2" fill-rule="evenodd" xlink:href="#data-unanalyzed-S"/>
      <circle cx="209.5" cy="167.5" r="7" stroke="#E2E2E2" stroke-width="3"/>
      <use fill="#E2E2E2" fill-rule="evenodd" xlink:href="#data-unanalyzed-T"/>
      <circle cx="209.5" cy="252.5" r="7" stroke="#E2E2E2" stroke-width="3"/>
      <use fill="#E2E2E2" fill-rule="evenodd" xlink:href="#data-unanalyzed-U"/>
      <circle cx="209.5" cy="334.5" r="7" stroke="#E2E2E2" stroke-width="3"/>
      <use fill="#E2E2E2" fill-rule="evenodd" xlink:href="#data-unanalyzed-V"/>
      <circle cx="209.5" cy="417.5" r="7" stroke="#E2E2E2" stroke-width="3"/>
      <use fill="#E2E2E2" fill-rule="evenodd" xlink:href="#data-unanalyzed-W"/>
      <circle cx="252.5" cy="44.5" r="7" stroke="#E2E2E2" stroke-width="3"/>
      <g>
        <use fill="#E2E2E2" fill-rule="evenodd" xlink:href="#data-unanalyzed-X"/>
        <circle cx="252.5" cy="125.5" r="7" stroke="#E2E2E2" stroke-width="3"/>
      </g>
      <g>
        <use fill="#E2E2E2" fill-rule="evenodd" xlink:href="#data-unanalyzed-Y"/>
        <circle cx="252.5" cy="209.5" r="7" stroke="#E2E2E2" stroke-width="3"/>
      </g>
      <g>
        <use fill="#E2E2E2" fill-rule="evenodd" xlink:href="#data-unanalyzed-Z"/>
        <circle cx="252.5" cy="292.5" r="7" stroke="#E2E2E2" stroke-width="3"/>
      </g>
      <g>
        <use fill="#E2E2E2" fill-rule="evenodd" xlink:href="#data-unanalyzed-aa"/>
        <circle cx="252.5" cy="376.5" r="7" stroke="#E2E2E2" stroke-width="3"/>
      </g>
      <g>
        <use fill="#E2E2E2" fill-rule="evenodd" xlink:href="#data-unanalyzed-ab"/>
        <circle cx="252.5" cy="86.5" r="7" stroke="#E2E2E2" stroke-width="3"/>
      </g>
      <g>
        <use fill="#E2E2E2" fill-rule="evenodd" xlink:href="#data-unanalyzed-ac"/>
        <circle cx="252.5" cy="167.5" r="7" stroke="#E2E2E2" stroke-width="3"/>
      </g>
      <g>
        <use fill="#E2E2E2" fill-rule="evenodd" xlink:href="#data-unanalyzed-ad"/>
        <circle cx="252.5" cy="252.5" r="7" stroke="#E2E2E2" stroke-width="3"/>
      </g>
      <g>
        <use fill="#E2E2E2" fill-rule="evenodd" xlink:href="#data-unanalyzed-ae"/>
        <circle cx="252.5" cy="334.5" r="7" stroke="#E2E2E2" stroke-width="3"/>
      </g>
      <g>
        <use fill="#E2E2E2" fill-rule="evenodd" xlink:href="#data-unanalyzed-af"/>
        <circle cx="252.5" cy="417.5" r="7" stroke="#E2E2E2" stroke-width="3"/>
      </g>
      <g>
        <use fill="#E2E2E2" fill-rule="evenodd" xlink:href="#data-unanalyzed-ag"/>
        <circle cx="292.5" cy="44.5" r="7" stroke="#E2E2E2" stroke-width="3"/>
      </g>
      <g>
        <use fill="#E2E2E2" fill-rule="evenodd" xlink:href="#data-unanalyzed-ah"/>
        <circle cx="292.5" cy="125.5" r="7" stroke="#E2E2E2" stroke-width="3"/>
      </g>
      <g>
        <use fill="#E2E2E2" fill-rule="evenodd" xlink:href="#data-unanalyzed-ai"/>
        <circle cx="292.5" cy="209.5" r="7" stroke="#E2E2E2" stroke-width="3"/>
      </g>
      <g>
        <use fill="#E2E2E2" fill-rule="evenodd" xlink:href="#data-unanalyzed-aj"/>
        <circle cx="292.5" cy="292.5" r="7" stroke="#E2E2E2" stroke-width="3"/>
      </g>
      <g>
        <use fill="#E2E2E2" fill-rule="evenodd" xlink:href="#data-unanalyzed-ak"/>
        <circle cx="292.5" cy="376.5" r="7" stroke="#E2E2E2" stroke-width="3"/>
      </g>
      <g>
        <use fill="#E2E2E2" fill-rule="evenodd" xlink:href="#data-unanalyzed-al"/>
        <circle cx="292.5" cy="86.5" r="7" stroke="#E2E2E2" stroke-width="3"/>
      </g>
      <g>
        <use fill="#E2E2E2" fill-rule="evenodd" xlink:href="#data-unanalyzed-am"/>
        <circle cx="292.5" cy="167.5" r="7" stroke="#E2E2E2" stroke-width="3"/>
      </g>
      <g>
        <use fill="#E2E2E2" fill-rule="evenodd" xlink:href="#data-unanalyzed-an"/>
        <circle cx="292.5" cy="252.5" r="7" stroke="#E2E2E2" stroke-width="3"/>
      </g>
      <g>
        <use fill="#E2E2E2" fill-rule="evenodd" xlink:href="#data-unanalyzed-ao"/>
        <circle cx="292.5" cy="334.5" r="7" stroke="#E2E2E2" stroke-width="3"/>
      </g>
      <g>
        <use fill="#E2E2E2" fill-rule="evenodd" xlink:href="#data-unanalyzed-ap"/>
        <circle cx="292.5" cy="417.5" r="7" stroke="#E2E2E2" stroke-width="3"/>
      </g>
      <g>
        <use fill="#E2E2E2" fill-rule="evenodd" xlink:href="#data-unanalyzed-aq"/>
        <circle cx="334.5" cy="44.5" r="7" stroke="#E2E2E2" stroke-width="3"/>
      </g>
      <g>
        <use fill="#E2E2E2" fill-rule="evenodd" xlink:href="#data-unanalyzed-ar"/>
        <circle cx="334.5" cy="125.5" r="7" stroke="#E2E2E2" stroke-width="3"/>
      </g>
      <g>
        <use fill="#E2E2E2" fill-rule="evenodd" xlink:href="#data-unanalyzed-as"/>
        <circle cx="334.5" cy="209.5" r="7" stroke="#E2E2E2" stroke-width="3"/>
      </g>
      <g>
        <use fill="#E2E2E2" fill-rule="evenodd" xlink:href="#data-unanalyzed-at"/>
        <circle cx="334.5" cy="292.5" r="7" stroke="#E2E2E2" stroke-width="3"/>
      </g>
      <g>
        <use fill="#E2E2E2" fill-rule="evenodd" xlink:href="#data-unanalyzed-au"/>
        <circle cx="334.5" cy="376.5" r="7" stroke="#E2E2E2" stroke-width="3"/>
      </g>
      <g>
        <use fill="#E2E2E2" fill-rule="evenodd" xlink:href="#data-unanalyzed-av"/>
        <circle cx="334.5" cy="86.5" r="7" stroke="#E2E2E2" stroke-width="3"/>
      </g>
      <g>
        <use fill="#E2E2E2" fill-rule="evenodd" xlink:href="#data-unanalyzed-aw"/>
        <circle cx="334.5" cy="167.5" r="7" stroke="#E2E2E2" stroke-width="3"/>
      </g>
      <g>
        <use fill="#E2E2E2" fill-rule="evenodd" xlink:href="#data-unanalyzed-ax"/>
        <circle cx="334.5" cy="252.5" r="7" stroke="#E2E2E2" stroke-width="3"/>
      </g>
      <g>
        <use fill="#E2E2E2" fill-rule="evenodd" xlink:href="#data-unanalyzed-ay"/>
        <circle cx="334.5" cy="334.5" r="7" stroke="#E2E2E2" stroke-width="3"/>
      </g>
      <g>
        <use fill="#E2E2E2" fill-rule="evenodd" xlink:href="#data-unanalyzed-az"/>
        <circle cx="334.5" cy="417.5" r="7" stroke="#E2E2E2" stroke-width="3"/>
      </g>
      <g>
        <use fill="#E2E2E2" fill-rule="evenodd" xlink:href="#data-unanalyzed-aA"/>
        <circle cx="252.5" cy="5.5" r="7" stroke="#E2E2E2" stroke-width="3"/>
      </g>
      <g>
        <use fill="#E2E2E2" fill-rule="evenodd" xlink:href="#data-unanalyzed-aB"/>
        <circle cx="376.5" cy="125.5" r="7" stroke="#E2E2E2" stroke-width="3"/>
      </g>
      <g>
        <use fill="#E2E2E2" fill-rule="evenodd" xlink:href="#data-unanalyzed-aC"/>
        <circle cx="376.5" cy="209.5" r="7" stroke="#E2E2E2" stroke-width="3"/>
      </g>
      <g>
        <use fill="#E2E2E2" fill-rule="evenodd" xlink:href="#data-unanalyzed-aD"/>
        <circle cx="376.5" cy="292.5" r="7" stroke="#E2E2E2" stroke-width="3"/>
      </g>
      <g>
        <use fill="#E2E2E2" fill-rule="evenodd" xlink:href="#data-unanalyzed-aE"/>
        <circle cx="376.5" cy="376.5" r="7" stroke="#E2E2E2" stroke-width="3"/>
      </g>
      <g>
        <use fill="#E2E2E2" fill-rule="evenodd" xlink:href="#data-unanalyzed-aF"/>
        <circle cx="376.5" cy="86.5" r="7" stroke="#E2E2E2" stroke-width="3"/>
      </g>
      <g>
        <use fill="#E2E2E2" fill-rule="evenodd" xlink:href="#data-unanalyzed-aG"/>
        <circle cx="376.5" cy="167.5" r="7" stroke="#E2E2E2" stroke-width="3"/>
      </g>
      <g>
        <use fill="#E2E2E2" fill-rule="evenodd" xlink:href="#data-unanalyzed-aH"/>
        <circle cx="376.5" cy="252.5" r="7" stroke="#E2E2E2" stroke-width="3"/>
      </g>
      <g>
        <use fill="#E2E2E2" fill-rule="evenodd" xlink:href="#data-unanalyzed-aI"/>
        <circle cx="376.5" cy="334.5" r="7" stroke="#E2E2E2" stroke-width="3"/>
      </g>
      <g>
        <use fill="#E2E2E2" fill-rule="evenodd" xlink:href="#data-unanalyzed-aJ"/>
        <circle cx="252.5" cy="459.5" r="7" stroke="#E2E2E2" stroke-width="3"/>
      </g>
      <g>
        <use fill="#E2E2E2" fill-rule="evenodd" xlink:href="#data-unanalyzed-aK"/>
        <circle cx="459.5" cy="167.5" r="7" stroke="#E2E2E2" stroke-width="3"/>
      </g>
      <g>
        <use fill="#E2E2E2" fill-rule="evenodd" xlink:href="#data-unanalyzed-aL"/>
        <circle cx="417.5" cy="125.5" r="7" stroke="#E2E2E2" stroke-width="3"/>
      </g>
      <g>
        <use fill="#E2E2E2" fill-rule="evenodd" xlink:href="#data-unanalyzed-aM"/>
        <circle cx="417.5" cy="209.5" r="7" stroke="#E2E2E2" stroke-width="3"/>
      </g>
      <g>
        <use fill="#E2E2E2" fill-rule="evenodd" xlink:href="#data-unanalyzed-aN"/>
        <circle cx="417.5" cy="292.5" r="7" stroke="#E2E2E2" stroke-width="3"/>
      </g>
      <g>
        <use fill="#E2E2E2" fill-rule="evenodd" xlink:href="#data-unanalyzed-aO"/>
        <circle cx="5.5" cy="167.5" r="7" stroke="#E2E2E2" stroke-width="3"/>
      </g>
      <g>
        <use fill="#E2E2E2" fill-rule="evenodd" xlink:href="#data-unanalyzed-aP"/>
        <circle cx="417.5" cy="167.5" r="7" stroke="#E2E2E2" stroke-width="3"/>
      </g>
      <g>
        <use fill="#E2E2E2" fill-rule="evenodd" xlink:href="#data-unanalyzed-aQ"/>
        <circle cx="417.5" cy="252.5" r="7" stroke="#E2E2E2" stroke-width="3"/>
      </g>
      <g>
        <use fill="#E2E2E2" fill-rule="evenodd" xlink:href="#data-unanalyzed-aR"/>
        <circle cx="417.5" cy="334.5" r="7" stroke="#E2E2E2" stroke-width="3"/>
      </g>
      <g>
        <use fill="#E2E2E2" fill-rule="evenodd" xlink:href="#data-unanalyzed-aS"/>
        <circle cx="209.5" cy="459.5" r="7" stroke="#E2E2E2" stroke-width="3"/>
      </g>
    </g>
    <g transform="translate(148 163)">
      <circle cx="18" cy="18" r="18" fill="#FFF" fill-opacity=".104" stroke="#131212" stroke-width="2"/>
      <circle cx="18" cy="18" r="12" fill="#E2E2E2"/>
    </g>
    <circle cx="166" cy="181" r="12" fill="#FF4092"/>
  </g>
</svg>
