<svg height="634" viewBox="0 0 791 634" width="791" xmlns="http://www.w3.org/2000/svg"><g fill="none" fill-rule="evenodd" transform="translate(.288 .119)"><g fill-rule="nonzero"><path d="m3.037 211.032v-4.882h785.041v4.882z" fill="#41474e"/><path d="m3.037 464.914v-4.882h785.041v4.882z" fill="#41474e"/><path d="m623.070686 275.081973c0 13.353968-27.879858 22.908235-62.163454 22.908235-34.285175 0-62.163455-9.553996-62.163455-22.908235 0-13.354603 27.879748-22.910676 62.163455-22.910676 34.282128 0 62.163454 9.556344 62.163454 22.910676zm-4.881883 0c0-9.23922-25.644215-18.028793-57.281571-18.028793-31.638973 0-57.281572 8.789266-57.281572 18.028793 0 9.23896 25.641352 18.026352 57.281572 18.026352 31.638602 0 57.281571-8.787698 57.281571-18.026352zm-119.43038 119.576837h4.881883c0 .1156-.003629.211778-.01042.34138-.004194.088252-.004226.089101-.004226.095548 0 9.246132 25.619088 18.025376 57.281572 18.025376s57.281571-8.779244 57.281571-18.025376c0-.011492-.000174-.014806-.008657-.142787-.013485-.18507-.020634-.321093-.020634-.484535h4.881883c0 .011493.000174.014807.008657.142787.013486.18507.020634.321094.020634.484535 0 13.361483-27.855935 22.907259-62.163454 22.907259s-62.163455-9.545776-62.163455-22.907259c0-.1156.00363-.211778.01042-.341381.004194-.088251.004226-.089101.004226-.095547z" fill="#fff"/><path d="m499.978894 313.590264h2.440941c0 .088312-.00273.160658-.008871.279923-.004843.098589-.005774.123271-.005774.157006 0 10.275176 26.17882 19.246823 58.502042 19.246823s58.502042-8.971647 58.502042-19.246823c0-.04948-.001918-.085971-.011651-.228224-.012235-.170798-.01764-.273644-.01764-.399098h2.440941c0 .04948.001918.085971.011652.228224.012234.170798.01764.273643.01764.399098 0 12.332811-27.297289 21.687764-60.942984 21.687764s-60.942984-9.354953-60.942984-21.687764c0-.088312.00273-.160658.008871-.279923.004843-.098589.005775-.123271.005775-.157006z" fill="#8b98a9"/><path d="m499.978894 323.893478h2.440941c-.001243.109385-.001243.109385-.005014.200406-.001959.04206-.001959.04206-.003844.079565-.004837.098926-.005787.124358-.005787.159398 0 10.27466 26.177517 19.244382 58.502042 19.244382s58.502042-8.969722 58.502042-19.244382c0-.049479-.001918-.085971-.011651-.228224-.012235-.170797-.01764-.273643-.01764-.399098h2.440941c0 .04948.001918.085971.011652.228224.012234.170798.01764.273644.01764.399098 0 12.332397-27.295875 21.685324-60.942984 21.685324s-60.942984-9.352927-60.942984-21.685324c0-.089143.002711-.161653.008858-.281802.001776-.035384.001776-.035384.003208-.066145.002196-.054622.002196-.054622.00258-.091422zm0 41.862145h2.440941c0 .088312-.00273.160658-.008871.279922-.004843.09859-.005774.123271-.005774.157006 0 10.275176 26.17882 19.246823 58.502042 19.246823s58.502042-8.971647 58.502042-19.246823c0-.04948-.001918-.085971-.011651-.228224-.012235-.170797-.01764-.273643-.01764-.399098h2.440941c0 .04948.001918.085971.011652.228224.012234.170798.01764.273644.01764.399098 0 12.332812-27.297289 21.687764-60.942984 21.687764s-60.942984-9.354952-60.942984-21.687764c0-.088312.00273-.160658.008871-.279922.004843-.09859.005775-.123271.005775-.157006zm-.014646-78.683746h2.440942c0 10.275692 26.180123 19.249264 58.502042 19.249264 32.320311 0 58.502042-8.973869 58.502042-19.249264h2.440942c0 12.332946-27.300292 21.690205-60.942984 21.690205-33.644281 0-60.942984-9.356979-60.942984-21.690205z" fill="#8b98a9"/><path d="m499.978894 354.602962h2.440941c-.001243.109384-.001243.109384-.005014.200405-.001959.042061-.001959.042061-.003844.079566-.004837.098926-.005787.124358-.005787.159398 0 10.27466 26.177517 19.244382 58.502042 19.244382s58.502042-8.969722 58.502042-19.244382c0-.04948-.001918-.085971-.011651-.228224-.012235-.170798-.01764-.273644-.01764-.399098h2.440941c0 .04948.001918.085971.011652.228224.012234.170798.01764.273644.01764.399098 0 12.332396-27.295875 21.685323-60.942984 21.685323s-60.942984-9.352927-60.942984-21.685323c0-.089143.002711-.161654.008858-.281802.001776-.035384.001776-.035384.003208-.066145.002196-.054622.002196-.054622.00258-.091422z" fill="#8b98a9"/><path d="m498.744 275.082h4.882v119.574h-4.882z" fill="#fff"/><path d="m618.189 275.082h4.882v119.384h-4.882z" fill="#fff"/><path d="m151.007 413.125h119.021v4.882h-123.903v-165.833h165.838v165.833h-18.886v-4.882h14.004v-156.069h-156.074z" fill="#fff"/><path d="m167.01789 633.442925v-89.875462h89.875462v89.875462zm84.993579-4.881883v-80.111696h-80.111696v80.111696z" fill="#fff"/><path d="m170.217 547.245-3.35-3.551 27.556-25.99h92.109l-31.321 29.541-3.349-3.551 22.379-21.108h-77.879z" fill="#fff"/><path d="m281.659 517.817h4.882v86.006l-29.675 29.597-3.447-3.457 28.24-28.166z" fill="#fff"/><path d="m333.377321 633.442925v-89.875462h89.875462v89.875462zm84.993579-4.881883v-80.111696h-80.111696v80.111696z" fill="#fff"/><path d="m362.723 522.586-26.145 24.659-3.35-3.551 27.556-25.99h92.108l-31.321 29.541-3.349-3.551 22.379-21.108z" fill="#fff"/><path d="m448.019 517.817h4.881v86.006l-29.674 29.597-3.447-3.457 28.24-28.166z" fill="#fff"/><path d="m667.788732 633.442925v-89.875462h89.875462v89.875462zm84.99358-4.881883v-80.111696h-80.111697v80.111696z" fill="#fff"/><path d="m670.989 547.245-3.35-3.551 27.556-25.99h92.109l-31.321 29.541-3.35-3.551 22.38-21.108h-77.879z" fill="#fff"/><path d="m782.43 517.817h4.882v86.006l-29.674 29.597-3.448-3.457 28.24-28.166z" fill="#fff"/><path d="m.59694689 633.442925v-89.875462h89.87546201v89.875462zm4.88188278-4.881883h80.11169643v-80.111696h-80.11169643z" fill="#fff"/><path d="m3.797 547.245-3.35-3.551 27.556-25.99h92.108l-31.321 29.541-3.349-3.551 22.379-21.108h-77.878z" fill="#fff"/><path d="m115.239 517.817h4.882v86.006l-29.674 29.597-3.448-3.457 28.24-28.166z" fill="#fff"/><path d="m500.181492 633.442925v-89.875462h89.875462v89.875462zm84.993579-4.881883v-80.111696h-80.111696v80.111696z" fill="#fff"/><path d="m503.382 547.245-3.35-3.551 27.556-25.99h92.109l-31.322 29.541-3.349-3.551 22.38-21.108h-77.879z" fill="#fff"/><path d="m614.823 517.817h4.882v86.006l-29.674 29.597-3.448-3.457 28.24-28.166z" fill="#fff"/><path d="m785.637383 125.974627v-109.0173241c0-6.2944928-5.102263-11.39675538-11.396756-11.39675538h-757.365042c-6.2944928 0-11.39675533 5.10226258-11.39675533 11.39675538v109.0173241c0 6.294493 5.10226253 11.396756 11.39675533 11.396756h757.365042c6.294493 0 11.396756-5.102263 11.396756-11.396756zm4.881883 0c0 8.990682-7.287956 16.278638-16.278639 16.278638h-757.365042c-8.99068218 0-16.27863811-7.287956-16.27863811-16.278638v-109.0173241c0-8.99068223 7.28795593-16.27863816 16.27863811-16.27863816h757.365042c8.990683 0 16.278639 7.28795593 16.278639 16.27863816z" fill="#fff"/><path d="m230.263165 186.261245c12.011261.633008 21.567186 10.583793 21.567186 22.751767 0 12.165636-9.555728 22.115752-21.566147 22.749271l.00043 18.852422h-2.440941l-.000431-18.852735c-12.006204-.636484-21.558696-10.585662-21.558696-22.748958 0-12.164932 9.551588-22.114333 21.557658-22.751344l-.000972-42.584408h2.440941zm.000056 2.444811.000927 40.611417c10.661708-.630549 19.125262-9.48726 19.125262-20.304461 0-10.819535-8.463733-19.676857-19.126189-20.306956zm-2.440014 40.611058-.000927-40.61059c-10.657294.634019-19.116773 9.489942-19.116773 20.306488 0 10.81484 8.460281 19.670551 19.1177 20.304102zm334.303027-43.055869c12.011261.633008 21.567186 10.583793 21.567186 22.751767 0 12.165636-9.555728 22.115752-21.566148 22.749271l.000431 18.852422h-2.440942l-.00043-18.852737c-12.005759-.636508-21.557964-10.585711-21.557964-22.748956 0-12.164881 9.551301-22.114307 21.556925-22.751342l-.000972-42.58441h2.440942zm.000055 2.444811.000927 40.611417c10.661708-.630549 19.125262-9.48726 19.125262-20.304461 0-10.819535-8.463733-19.676857-19.126189-20.306956zm-2.440014 40.611055-.000927-40.610584c-10.656834.634045-19.11604 9.489976-19.11604 20.306485 0 10.814803 8.460008 19.670521 19.116967 20.304099zm-329.421207 210.404024c12.010045.633981 21.565283 10.584425 21.565283 22.750444 0 12.165847-9.554645 22.115935-21.564302 22.750393l.001026 47.584626h-2.440941l-.001026-47.584743c-12.007175-.63558-21.560542-10.585523-21.560542-22.750276 0-12.164263 9.55292-22.11414 21.559561-22.750223l-.000434-20.155665h2.440941zm.000053 2.444823.000876 40.611191c10.660917-.631482 19.123413-9.488139 19.123413-20.30557 0-10.817572-8.463035-19.674557-19.124289-20.305621zm-2.440066 40.611052-.000875-40.610809c-10.657882.633104-19.118673 9.489509-19.118673 20.305378 0 10.81632 8.461179 19.672775 19.119548 20.305431zm334.303082-43.055875c12.010045.633981 21.565283 10.584425 21.565283 22.750444 0 12.165847-9.554645 22.115935-21.564302 22.750393l.001025 47.584626h-2.440941l-.001026-47.584746c-12.006729-.635604-21.559809-10.585571-21.559809-22.750273 0-12.164212 9.552633-22.114113 21.558829-22.750221l-.000435-20.155667h2.440942zm.000053 2.444823.000875 40.611191c10.660918-.631482 19.123413-9.488139 19.123413-20.30557 0-10.817572-8.463034-19.674557-19.124288-20.305621zm-2.440066 40.611049-.000876-40.610803c-10.657421.63313-19.11794 9.489543-19.11794 20.305375 0 10.816283 8.460906 19.672745 19.118816 20.305428zm-456.485229 87.862204v-2.440941h62.339119v2.440941zm166.419478 0v-2.440941h62.339119v2.440941zm166.359919 0v-2.440941h62.33912v2.440941zm166.804171 0v-2.440941h63.339119v2.440941zm-509.7539357-483.0185863-1.0414239-2.2076302 56.0537786-26.442718 1.041423 2.2076302zm275.3861927-.266286-1.775493-1.6750581 53.49323-56.7006276 1.775493 1.6750582zm275.460235 0-1.775493-1.6750581 53.493231-56.7006276 1.775493 1.6750582zm-357.911247-1.9413442-1.041424 2.2076302-56.053778-26.442718 1.041424-2.2076302zm275.46754-.0000087-1.041387 2.2076477-56.056219-26.4427181 1.041387-2.2076477zm-233.120439-9.065138h-2.440942v-61.0235347h2.440942zm411.039884 28.3002742h-2.440941v-20.9017808h2.440941z" fill="#f6388a" stroke="#f6388a" stroke-width="3"/><path d="m223.166376 378.562802c6.761878.758523 12.024078 6.500925 12.024078 13.464673 0 7.479658-6.07054 13.552106-13.548934 13.552106-7.478511 0-13.549665-6.072565-13.549665-13.552106 0-7.171284 5.581265-13.047514 12.63358-13.519133v-8.542095h-21.333339v-24.65839h21.333339v-9.908884l-23.171969-15.452497h-11.471824v12.331636h-27.099331v-27.101773h27.099331v12.329195h12.49762v.150665l21.840079-15.789786v-8.431002h-21.027245v-24.660831h44.498361v24.660831h-21.030175v8.821732l22.212219 14.816345h8.849737v-11.897149h45.6871v27.101773h-21.621859v26.57941h-2.440941-31.656081v11.108725h-20.724081zm20.724081-22.146221h31.656081v-24.138469h-21.6243v-12.763683h-8.824472l-21.93139 15.85515v9.938278h20.724081zm-22.524809-52.222267-20.648271 14.928142 21.20043 14.137754 20.646057-14.925927zm-37.724947 25.642856v-22.219889h-22.217449v22.219889zm113.527696 0v-22.219889h-40.805218v22.219889z" fill="#8b98a9"/></g><path d="m281.873458 425.992198c5.753299.017087 10.471638-4.671962 10.478961-10.408174.007323-5.696181-4.645111-10.407198-10.317859-10.448694-5.763063-.041496-10.508253 4.623143-10.537544 10.348615-.031732 5.75574 4.642671 10.491166 10.376442 10.508253m19.881467-16.0653c1.737951.185512 3.554011.378346 5.438418.578503v10.10208c-1.81362.197716-3.658971.397874-5.440858.593149-.62 1.491415-1.200944 2.885193-1.825825 4.396135 1.093542 1.344959 2.245666 2.770469 3.322122 4.0959-2.389682 2.375036-4.732986 4.703694-7.2081 7.169045-1.227794-1.000786-2.667949-2.172438-4.066609-3.307476-1.462124.615118-2.855901 1.200944-4.396135 1.845352-.183071 1.706218-.375905 3.522278-.588267 5.457945-3.346531.097638-6.69062.024409-10.120143.05126-.200157-1.881966-.392992-3.695585-.585826-5.501882-1.476769-.617558-2.902279-1.21803-4.405899-1.842911-1.371809 1.110628-2.792437 2.262753-4.125191 3.346531-2.401886-2.404327-4.742749-4.740308-7.183691-7.176368 1.047164-1.281494 2.20173-2.702122 3.363618-4.132514-.600472-1.437714-1.196062-2.860783-1.84047-4.405899-1.740391-.18063-3.55157-.375905-5.433536-.573621v-10.104521c1.811179-.200157 3.65409-.400314 5.440859-.590708.617558-1.486533 1.198502-2.885193 1.823383-4.391253-1.100865-1.37181-2.277398-2.821729-3.412436-4.222829 2.401886-2.394564 4.72078-4.711017 7.142194-7.127549 1.445038.991022 2.777792 2.30669 4.242356 3.380704 1.442597-.607795 2.836374-1.191179 4.38149-1.838029.18063-1.703777.373464-3.517397.580944-5.462827 3.348972-.090315 6.68818-.024409 10.125025-.036614.200157 1.872202.392992 3.688263.585826 5.497 1.474329.617558 2.899838 1.215589 4.401017 1.842911 1.371809-1.11551 2.792437-2.267635 4.130073-3.351413 2.401887 2.399446 4.742749 4.735427 7.18125 7.166604-1.047164 1.291258-2.199288 2.711886-3.361176 4.14716.600471 1.435273 1.191179 2.855901 1.835587 4.396135" fill="#fff"/><path d="m580.728896 462.472701c0 10.943818-8.873063 19.816881-19.819125 19.816881-10.946061 0-19.816881-8.873063-19.816881-19.816881 0-10.946062 8.87082-19.819125 19.816881-19.819125 10.946062 0 19.819125 8.873063 19.819125 19.819125m-331.863434 0c0 10.943632-8.872913 19.816544-19.818789 19.816544-10.946549 0-19.817218-8.872912-19.817218-19.816544 0-10.945876 8.870669-19.818789 19.817218-19.818789 10.945876 0 19.818789 8.872913 19.818789 19.818789m331.863434-253.462031c0 10.946062-8.873063 19.819125-19.819125 19.819125-10.946061 0-19.816881-8.873063-19.816881-19.819125 0-10.943818 8.87082-19.816881 19.816881-19.816881 10.946062 0 19.819125 8.873063 19.819125 19.816881m-332.788925.000053c0 10.434709-8.458552 18.893261-18.893261 18.893261-10.435351 0-18.891764-8.458552-18.891764-18.893261 0-10.432571 8.456413-18.891123 18.891764-18.891123 10.434709 0 18.893261 8.458552 18.893261 18.891123" fill="#231f20"/><path d="m19.8069115 126.387146v-2.440941h68.3902959v2.440941zm0-6.102353v-2.440942h51.8553589v2.440942zm0-6.712589v-2.440941h51.8553589v2.440941zm0-13.7302953v-2.4409414h51.8553589v2.4409414zm0 7.3228243v-2.440942h57.0423594v2.440942zm136.3148605-61.6337702v-2.4409414h68.389563v2.4409414zm0 5.9998339v-2.4409414h64.133294v2.4409414zm0 6.1023535v-2.4409414h64.133294v2.4409414zm0-18.2045409v-2.4409414h51.855358v2.4409414zm0-6.7125888v-2.4409414h65.517307v2.4409414zm0-13.7302953v-2.4409414h68.389563v2.4409414zm0 7.3228241v-2.4409414h57.042359v2.4409414zm136.777418 100.0785967v-2.440941h68.390296v2.440941zm0-6.102353v-2.440942h51.855359v2.440942zm0-6.712589v-2.440941h65.268332v2.440941zm0-13.7302953v-2.4409414h39.638447v2.4409414zm0 7.3228243v-2.440942h49.402213v2.440942zm0-21.8146933v-2.4409414h68.390296v2.4409414zm0 7.3228241v-2.4409414h62.014557v2.4409414zm272.323626 7.1690449v-2.4409414h68.390296v2.4409414zm0-6.1023535v-2.4409414h51.855359v2.4409414zm0-6.7125888v-2.4409414h65.268332v2.4409414zm0-13.7302953v-2.4409414h39.638447v2.4409414zm0 7.3228241v-2.4409413h49.402213v2.4409413zm0-21.8146932v-2.4409413h68.390296v2.4409413zm0 7.3228242v-2.4409414h62.014557v2.4409414zm-136.304608-8.5432948v-2.4409414h68.390296v2.4409414zm0-6.1023535v-2.4409414h51.855359v2.4409414zm0-6.7125888v-2.4409414h65.265891v2.4409414zm0-13.7302954v-2.4409413h39.636006v2.4409413zm0 7.3228242v-2.4409414h49.399772v2.4409414zm0-21.8171341v-2.4409414h68.390296v2.4409414zm0 7.3228241v-2.4409414h62.012116v2.4409414zm0 82.0009851v-2.440941h68.390296v2.440941zm0-6.1023535v-2.4409414h51.855359v2.4409414zm0-6.7125888v-2.4409414h65.265891v2.4409414zm0-13.7302953v-2.4409414h39.636006v2.4409414zm0 33.7167236v-2.440942h39.636006v2.440942zm0-26.3938995v-2.4409414h49.399772v2.4409414zm0-21.8146932v-2.4409414h68.390296v2.4409414zm0 7.3228242v-2.4409414h62.012116v2.4409414zm273.0852-14.5699791v-2.4409414h68.390296v2.4409414zm0-6.1023535v-2.4409414h51.855359v2.4409414zm0-6.7125888v-2.4409414h65.265891v2.4409414zm0-13.7302954v-2.4409413h39.636006v2.4409413zm0 7.3228242v-2.4409414h49.399772v2.4409414zm0-21.8171341v-2.4409414h68.390296v2.4409414zm0 7.3228241v-2.4409414h62.012116v2.4409414zm0 94.8159271v-2.440941h68.390296v2.440941zm0-6.102353v-2.440942h51.855359v2.440942zm0-33.2578266v-2.4409414h39.636006v2.4409414zm0 46.5316656v-2.440941h39.636006v2.440941zm0-61.0235347v-2.4409414h68.390296v2.4409414zm0 7.3228242v-2.4409414h62.012116v2.4409414z" fill="#8b98a9" fill-rule="nonzero"/></g></svg>