<svg height="645" viewBox="0 0 998 645" width="998" xmlns="http://www.w3.org/2000/svg"><g fill="none" fill-rule="evenodd" transform="translate(0 5.049)"><path d="m93.4287805 366.209756h26.4195125v-127.563415h-114.47317105v155.946342h88.05365855zm4.8780488 33.260976h-97.80975613v-165.702439h124.22926783v137.319512h-26.4195117z" fill="#fff" fill-rule="nonzero"/><path d="m98.347 399.5-3.562-3.332 26.378-28.202 3.562 3.332z" fill="#fff" fill-rule="nonzero"/><path d="m11.782439 359.070732v-114.085366h101.697561v114.085366zm99.258537-2.439025v-109.207317h-96.8195126v109.207317z" fill="#fff" fill-rule="nonzero"/><path d="m12.983 284.988v-2.439h99.258v2.439z" fill="#fff" fill-rule="nonzero"/><path d="m12.983 266.695v-2.439h99.258v2.439z" fill="#fff" fill-rule="nonzero"/><path d="m47.016 357.854h-2.439v-111.647h2.439z" fill="#fff" fill-rule="nonzero"/><path d="m81.772 357.854h-2.439v-111.647h2.439z" fill="#fff" fill-rule="nonzero"/><path d="m12.983 340.476v-2.439h99.258v2.439z" fill="#fff" fill-rule="nonzero"/><path d="m12.983 322.183v-2.439h99.258v2.439z" fill="#fff" fill-rule="nonzero"/><path d="m13.002 303.251v-2.439h99.258v2.439z" fill="#fff" fill-rule="nonzero"/><path d="m125.055122 35.0121951c0 13.3456812-27.8558129 22.8926829-62.1146342 22.8926829s-62.11463414-9.5470017-62.11463414-22.8926829c0-13.3440337 27.85832544-22.8926829 62.11463414-22.8926829s62.1146342 9.5486492 62.1146342 22.8926829zm-4.878049 0c0-9.2321785-25.6229444-18.0146341-57.2365852-18.0146341s-57.23658536 8.7824556-57.23658536 18.0146341c0 9.2337248 25.62054286 18.0146342 57.23658536 18.0146342s57.2365852-8.7809094 57.2365852-18.0146342zm-119.33585349 119.4829269h4.87804878c0 .116327-.00360726.21232-.01041141.342332-.00417146.087671-.00422273.089036-.00422273.096692 0 9.238531 25.59821925 18.009756 57.23658535 18.009756s57.2365855-8.771225 57.2365855-18.009756c0-.011827-.000202-.015677-.00872-.144882-.013433-.185429-.020548-.321417-.020548-.484386h4.878048c0 .011828.000202.015677.00872.144882.013433.185429.020549.321417.020549.484386 0 13.350772-27.8331773 22.887805-62.1146345 22.887805-34.2814571 0-62.11463413-9.537033-62.11463413-22.887805 0-.116327.00360726-.21232.01041141-.342332.00417146-.087671.00422273-.089035.00422273-.096692zm1.2195122-81.0024391h2.43902439c-.00273764.15957-.00273764.15957-.00886424.2784832-.00484901.0987697-.00484901.0987697-.00576991.1556632 0 10.2676222 26.15956275 19.2341463 58.45609755 19.2341463s58.4560975-8.9665241 58.4560975-19.2341463c0-.0492672-.001902-.0853075-.011607-.2263256-.012247-.1699575-.017661-.2725351-.017661-.3980647h2.439024c0 .0492672.001903.0853075.011607.2263256.012247.1699575.017661.2725351.017661.3980647 0 12.3235403-27.2772632 21.6731707-60.8951215 21.6731707s-60.89512194-9.3496304-60.89512194-21.6731707c.00273764-.15957.00273764-.15957.00886424-.2784832.00484901-.0987697.00484901-.0987697.00576991-.1556632z" fill="#fff" fill-rule="nonzero"/><path d="m2.06073171 83.7878049h2.43902439c0 .0891595-.00271827.1614955-.00886424.2809222-.00482964.0982562-.00576991.123278-.00576991.1581022 0 10.2665905 26.15695865 19.2292687 58.45609755 19.2292687s58.4560975-8.9626782 58.4560975-19.2292687c0-.0492672-.001902-.0853075-.011607-.2263256-.012247-.1699575-.017661-.2725351-.017661-.3980647h2.439024c0 .0492672.001903.0853075.011607.2263256.012247.1699575.017661.2725351.017661.3980647 0 12.322711-27.2744371 21.6682927-60.8951215 21.6682927s-60.89512194-9.3455817-60.89512194-21.6682927c0-.0891596.00271826-.1614956.00886424-.2809222.00482963-.0982563.00576991-.123278.00576991-.1581022zm0 41.8292681h2.43902439c-.00273764.15957-.00273764.15957-.00886424.278483-.00484901.09877-.00484901.09877-.00576991.155664 0 10.267622 26.15956275 19.234146 58.45609755 19.234146s58.4560975-8.966524 58.4560975-19.234146c0-.049268-.001902-.085308-.011607-.226326-.012247-.169958-.017661-.272535-.017661-.398065h2.439024c0 .049267.001903.085308.011607.226326.012247.169957.017661.272535.017661.398065 0 12.32354-27.2772632 21.67317-60.8951215 21.67317s-60.89512194-9.34963-60.89512194-21.67317c.00273764-.15957.00273764-.15957.00886424-.278484.00484901-.098769.00484901-.098769.00576991-.155663zm-.01414634-78.6243901h2.43902439c0 10.268138 26.16086424 19.2365854 58.45609754 19.2365854 32.2936271 0 58.4560977-8.9687448 58.4560977-19.2365854h2.439024c0 12.3236749-27.2802629 21.6756098-60.8951217 21.6756098-33.616446 0-60.89512193-9.3516548-60.89512193-21.6756098z" fill="#fff" fill-rule="nonzero"/><path d="m2.06073171 114.470732h2.43902439c0 .089159-.00271827.161495-.00886424.280922-.00482964.098256-.00576991.123278-.00576991.158102 0 10.266591 26.15695865 19.229268 58.45609755 19.229268s58.4560975-8.962677 58.4560975-19.229268c0-.049267-.001902-.085307-.011607-.226325-.012247-.169958-.017661-.272536-.017661-.398065h2.439024c0 .049267.001903.085307.011607.226325.012247.169958.017661.272536.017661.398065 0 12.322711-27.2744371 21.668293-60.8951215 21.668293s-60.89512194-9.345582-60.89512194-21.668293c0-.089159.00271826-.161495.00886424-.280922.00482963-.098256.00576991-.123278.00576991-.158102z" fill="#fff" fill-rule="nonzero"/><path d="m.827 35.015h4.878v119.478h-4.878z" fill="#fff" fill-rule="nonzero"/><path d="m120.177 35.015h4.878v119.287h-4.878z" fill="#fff" fill-rule="nonzero"/><path d="m32.4531707 490.203415h-26.41951216v127.563414h114.47317046v-155.946341h-88.0536583zm-4.8780487-33.260976h97.809756v165.702439h-124.22926824v-137.319512h26.41951224z" fill="#fff" fill-rule="nonzero"/><path d="m27.535 456.911 3.563 3.332-26.378 28.203-3.563-3.333z" fill="#fff" fill-rule="nonzero"/><path d="m63.832439 475.383415h42.048781v50h-33.5365859v61.834146h-54.2682926v-78.092683h45.7560975zm2.4390244 2.439024v33.741463h-45.7560975v73.214635h49.3902439v-61.834147h33.5365852v-45.121951z" fill="#fff" fill-rule="nonzero"/><path d="m77.6287805 571.320488v-41.892683h29.3463415v41.892683zm26.9073175-2.439025v-37.014634h-24.4682931v37.014634zm-26.9073175 36.380488v-31.526829h29.3463415v31.526829zm26.9073175-2.439024v-26.648781h-24.4682931v26.648781z" fill="#fff" fill-rule="nonzero"/><path d="m55.628 511.569v-2.439h16.717v18.292h-2.439v-15.853z" fill="#fff" fill-rule="nonzero"/><path d="m656.421037 317.382927c0 75.61246-61.384242 136.997317-136.995122 136.997317-75.612935 0-136.997561-61.384473-136.997561-136.997317 0-75.61289 61.384671-136.997561 136.997561-136.997561 75.610834 0 136.995122 61.385055 136.995122 136.997561zm-4.878049 0c0-72.918447-59.200324-132.119512-132.117073-132.119512-72.918818 0-132.119513 59.200694-132.119513 132.119512 0 72.91877 59.200647 132.119268 132.119513 132.119268 72.916797 0 132.117073-59.200869 132.117073-132.119268z" fill="#fff" fill-rule="nonzero"/><path d="m651.807408 317.385366c0 73.110519-59.268318 132.381493-132.381493 132.381493-73.113176 0-132.381493-59.270974-132.381493-132.381493 0-73.115832 59.268317-132.381493 132.381493-132.381493 73.113175 0 132.381493 59.265661 132.381493 132.381493" fill="#141127"/><path d="m661.030793 317.382927c0-78.154847-63.450031-141.604878-141.604878-141.604878s-141.604878 63.450031-141.604878 141.604878c0 78.153449 63.451072 141.604634 141.604878 141.604634 78.153805 0 141.604878-63.451185 141.604878-141.604634zm3 0c0 79.810303-64.794218 144.604634-144.604878 144.604634-79.810661 0-144.604878-64.794331-144.604878-144.604634 0-79.811701 64.793176-144.604878 144.604878-144.604878 79.811701 0 144.604878 64.793177 144.604878 144.604878zm-2.439025 0c0 78.463268-63.70223 142.16561-142.165853 142.16561-78.463624 0-142.165854-63.702342-142.165854-142.16561 0-78.464665 63.701188-142.165854 142.165854-142.165854 78.464665 0 142.165853 63.701189 142.165853 142.165854zm-3 0c0-76.807811-62.358042-139.165854-139.165853-139.165854s-139.165854 62.358043-139.165854 139.165854c0 76.806415 62.359086 139.16561 139.165854 139.16561 76.806767 0 139.165853-62.359195 139.165853-139.16561zm-518.905914-222.1585368-.280488.2804878.280488.2804879h.939024v-.5609757zm96.949783.5609757c-.068333-.0850162-.145743-.1624263-.230759-.2307591v.2307591zm.330217 197.0966131v-.230759h-.230759c.068332.085016.145742.162426.230759.230759zm126.233231.330216.280488-.280488-.280488-.280487h-.939024v.560975zm-129.233231-194.9878048h-94.840976c-.828427 0-1.5-.6715728-1.5-1.5v-2.4390243c0-.8284272.671573-1.5 1.5-1.5h98.78c.828427 0 1.5.6715728 1.5 1.5v195.9268291h124.355183c.828427 0 1.5.671573 1.5 1.5v2.439025c0 .828427-.671573 1.5-1.5 1.5h-128.294207c-.828427 0-1.5-.671573-1.5-1.5zm2.439024 441.6412198v.230759c.085016-.068333.162426-.145743.230759-.230759zm-96.719024 0-.280488.280488.280488.280487h.939024v-.560975zm97.28-197.091491c-.085017.068333-.162427.145743-.230759.230759h.230759zm126.233231.230759.280488-.280488-.280488-.280488h-.939024v.560976zm-123.794207 2.439024v195.921708c0 .828427-.671573 1.5-1.5 1.5h-98.78c-.828427 0-1.5-.671573-1.5-1.5v-2.439025c0-.828427.671573-1.5 1.5-1.5h94.840976v-195.921707c0-.828427.671573-1.5 1.5-1.5h128.294207c.828427 0 1.5.671573 1.5 1.5v2.439024c0 .828428-.671573 1.5-1.5 1.5zm-98.78-28.353658h-.939024l-.280488.280488.280488.280488h.939024zm222.574207.560976.280488-.280488-.280488-.280488h-.939024v.560976zm-225.574207.939024v-2.439024c0-.828428.671573-1.5 1.5-1.5h224.635183c.828427 0 1.5.671572 1.5 1.5v2.439024c0 .828427-.671573 1.5-1.5 1.5h-224.635183c-.828427 0-1.5-.671573-1.5-1.5zm540.405915 0v-2.439024c0-.828428.671573-1.5 1.5-1.5h240.230189c.828427 0 1.5.671572 1.5 1.5v2.439024c0 .828427-.671573 1.5-1.5 1.5h-240.230189c-.828427 0-1.5-.671573-1.5-1.5zm197.020801-216.366336c-.979029-.925207-1.022661-2.4688951-.097454-3.4479241.925208-.979029 2.468896-1.0226603 3.447925-.0974532l40.595122 38.3634143c.979029.925207 1.02266 2.468896.097453 3.447925s-2.468895 1.02266-3.447924.097453zm3.350471 109.073171c-.979029.925207-2.522717.881576-3.447925-.097453-.925207-.979029-.881575-2.522717.097454-3.447925l40.595122-38.363414c.979029-.925207 2.522717-.881576 3.447924.097453s.881576 2.522717-.097453 3.447924zm-3.350471 54.136585c-.979029-.925207-1.022661-2.468895-.097454-3.447924.925208-.979029 2.468896-1.02266 3.447925-.097453l40.595122 38.363414c.979029.925208 1.02266 2.468896.097453 3.447925s-2.468895 1.02266-3.447924.097453zm3.350471 109.073171c-.979029.925207-2.522717.881576-3.447925-.097453-.925207-.979029-.881575-2.522717.097454-3.447924l40.595122-38.363415c.979029-.925207 2.522717-.881576 3.447924.097453s.881576 2.522717-.097453 3.447924zm-3.350471 55.774146c-.979029-.925207-1.022661-2.468895-.097454-3.447924.925208-.979029 2.468896-1.02266 3.447925-.097453l40.595122 38.363415c.979029.925207 1.02266 2.468895.097453 3.447924s-2.468895 1.02266-3.447924.097453zm3.350527 109.074825c-.978999.925239-2.522689.881656-3.447927-.097343-.925239-.979-.881656-2.52269.097343-3.447928l40.595122-38.365854c.979-.925238 2.52269-.881655 3.447928.097344.925238.979.881656 2.52269-.097344 3.447928z" fill="#7b1173" fill-rule="nonzero"/><g fill="#fff"><path d="m832.058537.07560976c-12.480488 0-22.6 10.11463414-22.6 22.59512194s10.119512 22.597561 22.6 22.597561c12.480487 0 22.595122-10.1170732 22.595122-22.597561s-10.114635-22.59512194-22.595122-22.59512194m0 4.87804878c9.768292 0 17.717073 7.94878046 17.717073 17.71707316 0 9.7707317-7.948781 17.7195122-17.717073 17.7195122-9.770732 0-17.721952-7.9487805-17.721952-17.7195122 0-9.7682927 7.95122-17.71707316 17.721952-17.71707316"/><path d="m853.992683 39.6609756c-5.07561 6.5439024-13.012195 10.7609756-21.934146 10.7609756-8.92683 0-16.858537-4.2170732-21.936586-10.7609756-7.670731 6.3268293-12.563414 15.9048781-12.563414 26.6243903v48.3512191h68.997561v-48.3512191c0-10.7195122-4.890244-20.297561-12.563415-26.6243903m-44.090244 6.9634146c5.987805 5.5658537 13.819512 8.6756098 22.156098 8.6756098 8.339024 0 16.168292-3.1073171 22.156097-8.6756098 4.787805 5.3853659 7.463415 12.3390244 7.463415 19.6609757v43.4731711h-59.241464v-43.4731711c0-7.3219513 2.678049-14.2756098 7.465854-19.6609757"/><path d="m815.141463 67.8390244c0-.673518.545995-1.2195122 1.219513-1.2195122s1.219512.5459942 1.219512 1.2195122v41.6121956c0 .673517-.545994 1.219512-1.219512 1.219512s-1.219513-.545995-1.219513-1.219512zm32.165854 0c0-.673518.545994-1.2195122 1.219512-1.2195122s1.219512.5459942 1.219512 1.2195122v41.6121956c0 .673517-.545994 1.219512-1.219512 1.219512s-1.219512-.545995-1.219512-1.219512z" fill-rule="nonzero"/><path d="m832.058537 163.695122c-12.480488 0-22.6 10.114634-22.6 22.595122s10.119512 22.597561 22.6 22.597561c12.480487 0 22.595122-10.117073 22.595122-22.597561s-10.114635-22.595122-22.595122-22.595122m0 4.878049c9.768292 0 17.717073 7.94878 17.717073 17.717073 0 9.770732-7.948781 17.719512-17.717073 17.719512-9.770732 0-17.721952-7.94878-17.721952-17.719512 0-9.768293 7.95122-17.717073 17.721952-17.717073"/><path d="m853.992683 203.280488c-5.07561 6.543902-13.012195 10.760975-21.934146 10.760975-8.92683 0-16.858537-4.217073-21.936586-10.760975-7.670731 6.326829-12.563414 15.904878-12.563414 26.62439v48.35122h68.997561v-48.35122c0-10.719512-4.890244-20.297561-12.563415-26.62439m-44.090244 6.963414c5.987805 5.565854 13.819512 8.67561 22.156098 8.67561 8.339024 0 16.168292-3.107317 22.156097-8.67561 4.787805 5.385366 7.463415 12.339025 7.463415 19.660976v43.473171h-59.241464v-43.473171c0-7.321951 2.678049-14.27561 7.465854-19.660976"/><path d="m815.141463 231.458537c0-.673518.545995-1.219513 1.219513-1.219513s1.219512.545995 1.219512 1.219513v41.612195c0 .673518-.545994 1.219512-1.219512 1.219512s-1.219513-.545994-1.219513-1.219512zm32.165854 0c0-.673518.545994-1.219513 1.219512-1.219513s1.219512.545995 1.219512 1.219513v41.612195c0 .673518-.545994 1.219512-1.219512 1.219512s-1.219512-.545994-1.219512-1.219512z" fill-rule="nonzero"/><path d="m832.058537 328.429268c-12.480488 0-22.6 10.114634-22.6 22.595122s10.119512 22.597561 22.6 22.597561c12.480487 0 22.595122-10.117073 22.595122-22.597561s-10.114635-22.595122-22.595122-22.595122m0 4.878049c9.768292 0 17.717073 7.948781 17.717073 17.717073 0 9.770732-7.948781 17.719512-17.717073 17.719512-9.770732 0-17.721952-7.94878-17.721952-17.719512 0-9.768292 7.95122-17.717073 17.721952-17.717073"/><path d="m853.992683 368.014634c-5.07561 6.543903-13.012195 10.760976-21.934146 10.760976-8.92683 0-16.858537-4.217073-21.936586-10.760976-7.670731 6.326829-12.563414 15.904878-12.563414 26.62439v48.351952h68.997561v-48.351952c0-10.719512-4.890244-20.297561-12.563415-26.62439m-44.090244 6.963415c5.987805 5.565853 13.819512 8.67561 22.156098 8.67561 8.339024 0 16.168292-3.107318 22.156097-8.67561 4.787805 5.385366 7.463415 12.339024 7.463415 19.660975v43.473903h-59.241464v-43.473903c0-7.321951 2.678049-14.275609 7.465854-19.660975"/><path d="m815.141463 396.192683c0-.673518.545995-1.219512 1.219513-1.219512s1.219512.545994 1.219512 1.219512v41.612195c0 .673518-.545994 1.219512-1.219512 1.219512s-1.219513-.545994-1.219513-1.219512zm32.165854 0c0-.673518.545994-1.219512 1.219512-1.219512s1.219512.545994 1.219512 1.219512v41.612195c0 .673518-.545994 1.219512-1.219512 1.219512s-1.219512-.545994-1.219512-1.219512z" fill-rule="nonzero"/><path d="m832.058537 491.476585c-12.480488 0-22.6 10.117074-22.6 22.6 0 12.480488 10.119512 22.592683 22.6 22.592683 12.480487 0 22.595122-10.112195 22.595122-22.592683 0-12.482926-10.114635-22.6-22.595122-22.6m0 4.878049c9.768292 0 17.717073 7.95122 17.717073 17.721951 0 9.768293-7.948781 17.714635-17.717073 17.714635-9.770732 0-17.721952-7.946342-17.721952-17.714635 0-9.770731 7.95122-17.721951 17.721952-17.721951"/><path d="m853.992683 531.063171c-5.07561 6.546341-13.012195 10.760975-21.934146 10.760975-8.92683 0-16.858537-4.214634-21.936586-10.760975-7.670731 6.326829-12.563414 15.904878-12.563414 26.629268v48.35122h68.997561v-48.35122c0-10.72439-4.890244-20.302439-12.563415-26.629268m-44.090244 6.963414c5.985366 5.565854 13.817073 8.67561 22.156098 8.67561 8.339024 0 16.170731-3.107317 22.156097-8.67561 4.787805 5.385366 7.463415 12.341464 7.463415 19.665854v43.473171h-59.241464v-43.473171c0-7.32439 2.678049-14.280488 7.465854-19.665854"/><path d="m815.141463 559.245122c0-.673518.545995-1.219512 1.219513-1.219512s1.219512.545994 1.219512 1.219512v41.612195c0 .673518-.545994 1.219512-1.219512 1.219512s-1.219513-.545994-1.219513-1.219512zm32.165854 0c0-.673518.545994-1.219512 1.219512-1.219512s1.219512.545994 1.219512 1.219512v41.612195c0 .673518-.545994 1.219512-1.219512 1.219512s-1.219512-.545994-1.219512-1.219512z" fill-rule="nonzero"/><path d="m963.236585 82.6487805c-12.480487 0-22.6 10.1170732-22.6 22.5975605 0 12.480488 10.119513 22.595122 22.6 22.595122 12.480488 0 22.595122-10.114634 22.595122-22.595122 0-12.4804873-10.114634-22.5975605-22.595122-22.5975605m0 4.8780488c9.768293 0 17.717074 7.9487805 17.717074 17.7195117 0 9.770732-7.948781 17.717074-17.717074 17.717074-9.770731 0-17.721951-7.946342-17.721951-17.717074 0-9.7707312 7.95122-17.7195117 17.721951-17.7195117"/><path d="m985.170732 122.236585c-5.07561 6.546342-13.012195 10.760976-21.934147 10.760976-8.926829 0-16.858536-4.214634-21.936585-10.760976-7.670732 6.32683-12.563415 15.904878-12.563415 26.62683v48.351219h68.997561v-48.351219c0-10.721952-4.890244-20.3-12.563414-26.62683m-44.090244 6.963415c5.985366 5.565854 13.817073 8.67561 22.156097 8.67561 8.339025 0 16.170732-3.107317 22.156098-8.67561 4.787805 5.385366 7.463415 12.339024 7.463415 19.663415v43.47317h-59.241464v-43.47317c0-7.321952 2.678049-14.278049 7.465854-19.663415"/><path d="m946.319512 150.414634c0-.673518.545994-1.219512 1.219512-1.219512s1.219513.545994 1.219513 1.219512v41.612195c0 .673518-.545995 1.219512-1.219513 1.219512s-1.219512-.545994-1.219512-1.219512zm32.165854 0c0-.673518.545994-1.219512 1.219512-1.219512s1.219512.545994 1.219512 1.219512v41.612195c0 .673518-.545994 1.219512-1.219512 1.219512s-1.219512-.545994-1.219512-1.219512z" fill-rule="nonzero"/><path d="m963.236585 247.382927c-12.480487 0-22.6 10.117073-22.6 22.597561s10.119513 22.595122 22.6 22.595122c12.480488 0 22.595122-10.114634 22.595122-22.595122s-10.114634-22.597561-22.595122-22.597561m0 4.878049c9.768293 0 17.717074 7.94878 17.717074 17.719512s-7.948781 17.717073-17.717074 17.717073c-9.770731 0-17.721951-7.946341-17.721951-17.717073s7.95122-17.719512 17.721951-17.719512"/><path d="m985.170732 286.970732c-5.07561 6.546341-13.012195 10.760975-21.934147 10.760975-8.926829 0-16.858536-4.214634-21.936585-10.760975-7.670732 6.326829-12.563415 15.904878-12.563415 26.626829v48.351219h68.997561v-48.351219c0-10.721951-4.890244-20.3-12.563414-26.626829m-44.090244 6.963414c5.985366 5.565854 13.817073 8.67561 22.156097 8.67561 8.339025 0 16.170732-3.107317 22.156098-8.67561 4.787805 5.385366 7.463415 12.339025 7.463415 19.663415v43.473171h-59.241464v-43.473171c0-7.321951 2.678049-14.278049 7.465854-19.663415"/><path d="m946.319512 315.14878c0-.673517.545994-1.219512 1.219512-1.219512s1.219513.545995 1.219513 1.219512v41.612196c0 .673518-.545995 1.219512-1.219513 1.219512s-1.219512-.545994-1.219512-1.219512zm32.165854 0c0-.673517.545994-1.219512 1.219512-1.219512s1.219512.545995 1.219512 1.219512v41.612196c0 .673518-.545994 1.219512-1.219512 1.219512s-1.219512-.545994-1.219512-1.219512z" fill-rule="nonzero"/><path d="m963.236585 410.434146c-12.480487 0-22.6 10.114634-22.6 22.597317 0 12.480488 10.119513 22.595122 22.6 22.595122 12.480488 0 22.595122-10.114634 22.595122-22.595122 0-12.482683-10.114634-22.597317-22.595122-22.597317m0 4.878049c9.768293 0 17.717074 7.948781 17.717074 17.719268 0 9.770732-7.948781 17.717074-17.717074 17.717074-9.770731 0-17.721951-7.946342-17.721951-17.717074 0-9.770487 7.95122-17.719268 17.721951-17.719268"/><path d="m985.170732 450.020244c-5.07561 6.546341-13.012195 10.760976-21.934147 10.760976-8.926829 0-16.858536-4.214635-21.936585-10.760976-7.670732 6.326829-12.563415 15.904878-12.563415 26.626829v48.35122h68.997561v-48.35122c0-10.721951-4.890244-20.3-12.563414-26.626829m-44.090244 6.963415c5.985366 5.565853 13.817073 8.675609 22.156097 8.675609 8.339025 0 16.170732-3.107317 22.156098-8.675609 4.787805 5.385365 7.463415 12.339024 7.463415 19.663414v43.473171h-59.241464v-43.473171c0-7.321951 2.678049-14.278049 7.465854-19.663414"/><path d="m946.319512 478.2c0-.673518.545994-1.219512 1.219512-1.219512s1.219513.545994 1.219513 1.219512v41.612195c0 .673518-.545995 1.219512-1.219513 1.219512s-1.219512-.545994-1.219512-1.219512zm32.165854 0c0-.673518.545994-1.219512 1.219512-1.219512s1.219512.545994 1.219512 1.219512v41.612195c0 .673518-.545994 1.219512-1.219512 1.219512s-1.219512-.545994-1.219512-1.219512z" fill-rule="nonzero"/><path d="m487.289096 277.298459c0-17.859217 14.478083-32.335314 32.335314-32.335314 17.859217 0 32.335314 14.476097 32.335314 32.335314v18.073766h-64.670628zm77.968692 18.073766v-17.716184c0-25.20156-20.431818-45.633379-45.633378-45.633379s-45.631392 20.431819-45.631392 45.633379v17.716184h-9.523592v84.758771h111.603221v-84.758771z"/></g><path d="m512.507095 343.186153c-12.711451-1.765875-22.583571-7.772864-24.985571-15.307769 2.872572-9.013044 16.42889-15.842854 32.748519-15.842854 16.31963 0 29.875947 6.82981 32.746533 15.842854-2.400459 7.535284-12.273178 13.542498-24.985507 15.308035l5.451616 22.99492h-26.42727zm-1.956616-4.3253c-1.988195-2.271319-3.193106-5.244949-3.193106-8.499263 0-7.131768 5.780903-12.912671 12.91267-12.912671 7.129781 0 12.912671 5.780903 12.912671 12.912671 0 3.254492-1.20611 6.228269-3.195069 8.499636 9.817816-1.863168 16.510075-6.408945 18.755831-10.982842-2.924224-5.957708-13.38746-11.869724-28.473433-11.869724-15.085972 0-25.549209 5.912016-28.473432 11.869724 2.245606 4.573592 8.937123 9.119068 18.753868 10.982469z" fill="#141127"/></g></svg>