<svg height="645" viewBox="0 0 998 645" width="998" xmlns="http://www.w3.org/2000/svg"><g fill="none" fill-rule="evenodd"><circle cx="514" cy="326.326" fill="#141127" r="114"/><path d="m514.124197 208.40033c-65.253352 0-118.151635 52.896142-118.151635 118.153777 0 65.253352 52.898283 118.149494 118.151635 118.149494s118.149494-52.896142 118.149494-118.149494c0-65.257635-52.896142-118.153777-118.149494-118.153777m0 4.283262c62.786194 0 113.866232 51.082181 113.866232 113.870515 0 62.786193-51.080038 113.866232-113.866232 113.866232-62.786193 0-113.868373-51.080039-113.868373-113.866232 0-62.788334 51.08218-113.870515 113.868373-113.870515" fill="#fff"/><path d="m266.869891 233.215439c2.734204-15.641238 8.3309-30.303565 16.229494-43.426388l-188.3928546-112.7267146 2.6400243-4.4121015 188.4934813 112.7869251c16.887636-25.652464 42.809521-44.839957 73.222292-53.019116l-12.851279-55.5338545 5.009252-1.1592081 12.833973 55.4590706c9.031611-2.038254 18.426116-3.114176 28.069923-3.114176 33.59423 0 64.162789 13.05544 86.904595 34.365172l166.720542-161.66788736 3.579319 3.69118457-166.617886 161.56834279c17.834275 18.109567 30.286223 41.534414 34.750907 67.669562l120.004599-14.578588.620065 5.104105-119.861592 14.561215c.696274 5.383116 1.055361 10.87135 1.055361 16.442803 0 13.260886-2.034163 26.050273-5.807221 38.072892l237.019845 88.302059-1.794999 4.818126-236.864985-88.244365c-4.016288 11.17992-9.555312 21.636367-16.366455 31.118722l193.380733 151.069619-3.165296 4.051823-193.299112-151.005857c-23.279671 29.80094-59.547069 48.97332-100.25842 48.97332-10.603261 0-20.905114-1.300607-30.754594-3.750855l-10.692187 41.747729-4.980867-1.275671 10.709386-41.81488c-25.252848-7.387373-47.261047-22.405985-63.354202-42.385467l-167.626235 135.583872-3.233469-3.99763 167.714794-135.655502c-7.914153-10.677585-14.196021-22.63629-18.47537-35.505884l-269.12510958 91.072778-1.64813193-4.870321 269.25023451-91.115121c-3.216677-11.176853-4.940158-22.98341-4.940158-35.189387 0-5.738591.380973-11.388906 1.118986-16.927012l-58.691028-7.544758.655564-5.099667zm2.193275 5.465886-.851472-.109457c-.726655 5.448675-1.101776 11.007843-1.101776 16.653917 0 11.965883 1.684783 23.541368 4.829868 34.501976l.814185-.275523c-3.116403-10.87393-4.785683-22.356799-4.785683-34.226453 0-5.608994.372774-11.131629 1.094878-16.54446zm.785855-5.082918c2.678657-15.222304 8.134585-29.492778 15.825098-42.268738l-.73669-.440806c-7.750051 12.875206-13.24626 27.257796-15.940822 42.599966zm-1.637327 4.973461c.113517-.851182.235613-1.699668.366197-2.545368zm6.062268 55.794054-.813307.275226c4.197465 12.627086 10.355689 24.362483 18.112911 34.844432l.668049-.540349c-7.694332-10.40353-13.803005-22.049421-17.967653-34.579309zm21.110364 38.650349-.667409.539831c15.807641 19.626835 37.420837 34.385059 62.220818 41.655925l.21315-.832245c-24.618473-7.224162-46.073353-21.878018-61.766559-41.363511zm66.729789 42.708044-.213022.831747c9.679524 2.406878 19.803301 3.684431 30.223104 3.684431 40.02585 0 75.682971-18.850313 98.570649-48.150181l-.676461-.528453c-22.730567 29.099037-58.143089 47.820265-97.894188 47.820265-10.346272 0-20.398677-1.268313-30.010082-3.657809zm-3.115436.07265c.275824.075715.552028.150509.828608.224377l.051859-.202483-.309282-.522248-.522248.309281zm151.658233-83.547383.805735.300177c3.687991-11.788826 5.675829-24.326049 5.675829-37.323974 0-5.484034-.35388-10.886068-1.040031-16.184493l-.852225.103532c.682094 5.264479 1.033887 10.631964 1.033887 16.080961 0 12.892524-1.96928 25.328671-5.623195 37.023797zm-1.636373 4.877223c-3.90838 10.889364-9.296163 21.076266-15.920519 30.317875l.677055.528917c6.677796-9.310496 12.108849-19.574523 16.048103-30.547023zm-28.463542-129.011619c17.38904 17.650958 29.540383 40.47592 33.922526 65.943346l.853281-.103659c-4.405771-25.658477-16.643129-48.655078-34.159564-66.437255zm-3.684448-3.589243.616964-.598265c-22.351018-20.909224-52.374324-33.716172-85.365316-33.716172-9.477733 0-18.710576 1.057028-27.586968 3.059522l.193568.836464c8.814181-1.988163 17.982229-3.037616 27.3934-3.037616 32.749213 0 62.553979 12.70736 84.748352 33.456067zm-117.133254-29.182541-.193698-.837022c-29.838867 8.044689-55.275095 26.869487-71.865867 52.03158l.737369.441212c16.471766-24.96556 41.713346-43.644997 71.322196-51.63577zm2.293425-1.480001.003316.00207.002134-.003419c-.001817.000449-.003633.000899-.00545.001349zm152.105756 121.362384c0-67.34035-54.673728-122.014279-122.014279-122.014279-67.339379 0-122.014279 54.6749-122.014279 122.014279 0 67.34066 54.674038 122.014708 122.014279 122.014708 67.341413 0 122.014279-54.673078 122.014279-122.014708zm-415.3172244-179.1974068-.550592-.3294521-.5886582.1479196.1479196.5886583.550592.3294521zm585.8147834 404.8517238.505632.395002.602431-.074001-.074001-.602431-.505632-.395001zm-334.970518-402.3746292-.514897-.3213726-.321372.5148965.144659.6251112.836269-.1935239zm285.82139 143.8747052.374294-.47781-.47781-.374294-.636948.077379.103516.852104zm10.657785-217.81754672.009337-.60688678-.606886-.00933769-.460628.44666795.597549.61622446zm101.090723 379.02601572.552014-.252347-.252348-.552014-.601261-.224001-.299666.804362zm-398.879072 33.761402.309282.522249.522249-.309282.159192-.621569-.83153-.212967zm-222.983847 49.321165-.063787.603598.603598.063786.498869-.403509-.539811-.667384zm-121.79386767-83.868265-.26896405.544111.54411129.268964.60777381-.205673-.27514723-.813075zm207.17563667-154.641945-.636395-.081809-.480403.37096.37096.480403.636394.081809z" fill="#f6388a" fill-rule="nonzero" transform="translate(122 71.326)"/><path d="m15.9738391 59.482284c0 3.5939405-2.9089777 6.5046095-6.4944619 6.5046095s-6.49446195-2.910669-6.49446195-6.5046095c0-3.5854842 2.90897775-6.494462 6.49446195-6.494462s6.4944619 2.9089778 6.4944619 6.494462m103.1959859 0c0 3.5939405-2.902213 6.5046095-6.486006 6.5046095-3.585484 0-6.494462-2.910669-6.494462-6.5046095 0-3.5854842 2.908978-6.494462 6.494462-6.494462 3.583793 0 6.486006 2.9089778 6.486006 6.494462m-51.5920737 25.661581c0 3.5939405-2.910669 6.5029182-6.4961532 6.5029182s-6.4944619-2.9089777-6.4944619-6.5029182c0-3.5871755 2.9089777-6.5046096 6.4944619-6.5046096s6.4961532 2.9174341 6.4961532 6.5046096m-25.9778478-12.6557445c0 3.5939405-2.910669 6.5029183-6.4961532 6.5029183-3.5837929 0-6.4927706-2.9089778-6.4927706-6.5029183 0-3.5837929 2.9089777-6.5029183 6.4927706-6.5029183 3.5854842 0 6.4961532 2.9191254 6.4961532 6.5029183m51.6005297 0c0 3.5939405-2.9089778 6.5029183-6.494462 6.5029183-3.5837929 0-6.4944619-2.9089778-6.4944619-6.5029183 0-3.5837929 2.910669-6.5029183 6.4944619-6.5029183 3.5854842 0 6.494462 2.9191254 6.494462 6.5029183m-79.3339117 6.67881c0 2.4252756-1.9601774 4.3956006-4.38545304 4.3956006-2.4168193 0-4.38714434-1.970325-4.38714434-4.3956006 0-2.4269669 1.97032504-4.3956007 4.38714434-4.3956007 2.42527564 0 4.38545304 1.9686338 4.38545304 4.3956007m103.2010595 0c0 2.4252756-1.958486 4.3956006-4.385453 4.3956006-2.423585 0-4.39391-1.970325-4.39391-4.3956006 0-2.4269669 1.970325-4.3956007 4.39391-4.3956007 2.426967 0 4.385453 1.9686338 4.385453 4.3956007m-51.5988386 26.0116735c0 2.423584-1.970325 4.393909-4.3871443 4.393909-2.4235844 0-4.3905269-1.970325-4.3905269-4.393909 0-2.426967 1.9669425-4.395601 4.3905269-4.395601 2.4168193 0 4.3871443 1.968634 4.3871443 4.395601m-25.9693914-13.005837c0 2.4252756-1.970325 4.3939094-4.3956007 4.3939094-2.415128 0-4.3837618-1.9686338-4.3837618-4.3939094 0-2.4269669 1.9686338-4.3939094 4.3837618-4.3939094 2.4252757 0 4.3956007 1.9669425 4.3956007 4.3939094m51.5920733 0c0 2.4252756-1.9601774 4.3939094-4.3854531 4.3939094-2.4235843 0-4.3837618-1.9686338-4.3837618-4.3939094 0-2.4269669 1.9601775-4.3939094 4.3837618-4.3939094 2.4252757 0 4.3854531 1.9669425 4.3854531 4.3939094m-79.3271466 2.459101c0 1.2667583-1.0198334 2.2849005-2.2849005 2.2849005-1.25491947 0-2.27475295-1.0181422-2.27475295-2.2849005 0-1.2633758 1.01983348-2.2849006 2.27475295-2.2849006 1.2650671 0 2.2849005 1.0215248 2.2849005 2.2849006m103.1942943 0c0 1.2667583-1.019834 2.2849005-2.276444 2.2849005-1.266759 0-2.274753-1.0181422-2.274753-2.2849005 0-1.2633758 1.007994-2.2849006 2.274753-2.2849006 1.25661 0 2.276444 1.0215248 2.276444 2.2849006m-51.5937646 26.013364c0 1.256611-1.0249073 2.284901-2.2849006 2.284901-1.2566107 0-2.2832092-1.02829-2.2832092-2.284901 0-1.265067 1.0265985-2.2849 2.2832092-2.2849 1.2599933 0 2.2849006 1.019833 2.2849006 2.2849m-25.9744653-13.005836c0 1.263376-1.0198334 2.2849-2.2865918 2.2849-1.2549194 0-2.2832092-1.021524-2.2832092-2.2849 0-1.266759 1.0282898-2.284901 2.2832092-2.284901 1.2667584 0 2.2865918 1.018142 2.2865918 2.284901m51.602221 0c0 1.263376-1.0282899 2.2849-2.2865919 2.2849-1.265067 0-2.2832092-1.021524-2.2832092-2.2849 0-1.266759 1.0181422-2.284901 2.2832092-2.284901 1.258302 0 2.2865919 1.018142 2.2865919 2.284901m-19.3074942-98.22873708c0 4.85055128-3.9271199 8.78612758-8.7776712 8.78612758-4.8420949 0-8.7709062-3.9355763-8.7709062-8.78612758 0-4.85055126 3.9288113-8.78951008 8.7709062-8.78951008 4.8505513 0 8.7776712 3.93895882 8.7776712 8.78951008m0 26.00321678c0 4.8573163-3.9271199 8.7844363-8.7776712 8.7844363-4.8420949 0-8.7709062-3.92712-8.7709062-8.7844363 0-4.8505513 3.9288113-8.7776712 8.7709062-8.7776712 4.8505513 0 8.7776712 3.9271199 8.7776712 8.7776712m-25.6243731-12.9973802c0 4.8505512-3.9372676 8.7776712-8.7810538 8.7776712-4.8505512 0-8.7793625-3.92712-8.7793625-8.7776712 0-4.8590076 3.9288113-8.7878189 8.7793625-8.7878189 4.8437862 0 8.7810538 3.9288113 8.7810538 8.7878189m51.5920733 0c0 4.8505512-3.9203549 8.7776712-8.7725974 8.7776712-4.8505513 0-8.7776713-3.92712-8.7776713-8.7776712 0-4.8590076 3.92712-8.7878189 8.7776713-8.7878189 4.8522425 0 8.7725974 3.9288113 8.7725974 8.7878189m-25.9677002 38.6555786c0 4.8505513-3.9271199 8.7793625-8.7776712 8.7793625-4.8420949 0-8.7709062-3.9288112-8.7709062-8.7793625 0-4.8590076 3.9288113-8.7861275 8.7709062-8.7861275 4.8505513 0 8.7776712 3.9271199 8.7776712 8.7861275m51.5937641-25.6581984c0 4.8573163-3.928811 8.7844363-8.770906 8.7844363-4.850551 0-8.777671-3.92712-8.777671-8.7844363 0-4.8505513 3.92712-8.7776712 8.777671-8.7776712 4.842095 0 8.770906 3.9271199 8.770906 8.7776712m-103.195985 0c0 4.8573163-3.92712 8.7844363-8.77767122 8.7844363-4.84209493 0-8.76921488-3.92712-8.76921488-8.7844363 0-4.8505513 3.92711995-8.7776712 8.76921488-8.7776712 4.85055122 0 8.77767122 3.9271199 8.77767122 8.7776712m25.9778478 12.6523619c0 4.8505513-3.9372676 8.7895101-8.7810538 8.7895101-4.8505512 0-8.7793625-3.9389588-8.7793625-8.7895101 0-4.8573163 3.9288113-8.7844363 8.7793625-8.7844363 4.8437862 0 8.7810538 3.92712 8.7810538 8.7844363m51.5920733 0c0 4.8505513-3.9203549 8.7895101-8.7725974 8.7895101-4.8505513 0-8.7776713-3.9389588-8.7776713-8.7895101 0-4.8573163 3.92712-8.7844363 8.7776713-8.7844363 4.8522425 0 8.7725974 3.92712 8.7725974 8.7844363" fill="#fff" transform="translate(453.215 264.764)"/><path d="m869.363 52.237h4.283v47.754h-97.074v-47.874h4.284v43.591h88.507z" fill="#8b98a9" fill-rule="nonzero"/><path d="m860.779 54.181h2.142v25.529h-75.231v-25.621h2.141v23.479h70.948z" fill="#8b98a9" fill-rule="nonzero"/><path d="m777.866043 2.32618026-13.706438 48.12244634c0 3.7371459 3.030408 6.7696953 6.767554 6.7696953 3.739287 0 6.771837-3.0325494 6.771837-6.7696953h.006425c.034266 3.7071631 3.04754 6.707588 6.76327 6.707588s6.729004-3.0004249 6.76327-6.707588h.014992c.034266 3.7071631 3.045399 6.707588 6.76327 6.707588 3.720013 0 6.729004-3.0004249 6.765412-6.707588h.006425c0 3.7371459 3.030408 6.7696953 6.769695 6.7696953 3.739288 0 6.771837-3.0325494 6.771837-6.7696953h.006425c.034266 3.7071631 3.045399 6.707588 6.765412 6.707588 3.713588 0 6.726863-3.0004249 6.761129-6.707588h.01285c.036407 3.7071631 3.04754 6.707588 6.765412 6.707588 3.715729 0 6.731146-3.0004249 6.76327-6.707588h.006425c0 3.7371459 3.032549 6.7696953 6.769695 6.7696953 3.739288 0 6.771837-3.0325494 6.771837-6.7696953h.006425c.036408 3.7071631 3.047541 6.707588 6.765412 6.707588 3.71573 0 6.726863-3.0004249 6.763271-6.707588h.012849c.034266 3.7071631 3.045399 6.707588 6.765412 6.707588 3.717872 0 7.317953-3.9084764 6.765412-6.707588l-13.796386-48.12244634z" stroke="#fff" stroke-width="4"/><path d="m869.363 290.442h4.283v47.754h-97.074v-47.874h4.284v43.591h88.507z" fill="#8b98a9" fill-rule="nonzero"/><path d="m860.779 292.384h2.142v25.529h-75.231v-25.621h2.141v23.479h70.948z" fill="#8b98a9" fill-rule="nonzero"/><path d="m777.866043 240.529077-13.706438 48.122447c0 3.737146 3.030408 6.769695 6.767554 6.769695 3.739287 0 6.771837-3.032549 6.771837-6.769695h.006425c.034266 3.707163 3.04754 6.707588 6.76327 6.707588s6.729004-3.000425 6.76327-6.707588h.014992c.034266 3.707163 3.045399 6.707588 6.76327 6.707588 3.720013 0 6.729004-3.000425 6.765412-6.707588h.006425c0 3.737146 3.030408 6.769695 6.769695 6.769695 3.739288 0 6.771837-3.032549 6.771837-6.769695h.006425c.034266 3.707163 3.045399 6.707588 6.765412 6.707588 3.713588 0 6.726863-3.000425 6.761129-6.707588h.01285c.036407 3.707163 3.04754 6.707588 6.765412 6.707588 3.715729 0 6.731146-3.000425 6.76327-6.707588h.006425c0 3.737146 3.032549 6.769695 6.769695 6.769695 3.739288 0 6.771837-3.032549 6.771837-6.769695h.006425c.036408 3.707163 3.047541 6.707588 6.765412 6.707588 3.71573 0 6.726863-3.000425 6.763271-6.707588h.012849c.034266 3.707163 3.045399 6.707588 6.765412 6.707588 3.717872 0 7.317953-3.908477 6.765412-6.707588l-13.796386-48.122447z" stroke="#fff" stroke-width="4"/><path d="m504.845 95.241h4.283v47.754h-97.076v-47.874h4.283v43.591h88.51z" fill="#8b98a9" fill-rule="nonzero"/><path d="m496.261 97.185h2.141v25.529h-75.231v-25.621h2.142v23.479h70.948z" fill="#8b98a9" fill-rule="nonzero"/><path d="m413.345472 45.3301288-13.706438 48.1224463c0 3.7371459 3.030408 6.7696949 6.767554 6.7696949 3.739288 0 6.771837-3.032549 6.771837-6.7696949h.006425c.034266 3.7071631 3.047541 6.7075879 6.76327 6.7075879 3.71573 0 6.729004-3.0004248 6.763271-6.7075879h.014991c.034266 3.7071631 3.045399 6.7075879 6.76327 6.7075879 3.720013 0 6.729005-3.0004248 6.765412-6.7075879h.006425c0 3.7371459 3.030408 6.7696949 6.769696 6.7696949 3.739287 0 6.771836-3.032549 6.771836-6.7696949h.006425c.034266 3.7071631 3.045399 6.7075879 6.765412 6.7075879 3.713588 0 6.726863-3.0004248 6.761129-6.7075879h.01285c.036408 3.7071631 3.047541 6.7075879 6.765412 6.7075879 3.71573 0 6.731146-3.0004248 6.76327-6.7075879h.006425c0 3.7371459 3.03255 6.7696949 6.769695 6.7696949 3.74143 0 6.773979-3.032549 6.773979-6.7696949h.006425c.034266 3.7071631 3.047541 6.7075879 6.765412 6.7075879 3.713588 0 6.726863-3.0004248 6.761129-6.7075879h.012849c.036408 3.7071631 3.047541 6.7075879 6.765412 6.7075879 3.720013 0 7.317953-3.9084763 6.765413-6.7075879l-13.796387-48.1224463z" stroke="#fff" stroke-width="4"/><path d="m208.94 95.241h4.283v47.754h-97.073v-47.874h4.283v43.591h88.507z" fill="#8b98a9" fill-rule="nonzero"/><path d="m200.355 97.185h2.142v25.529h-75.231v-25.621h2.141v23.479h70.948z" fill="#8b98a9" fill-rule="nonzero"/><path d="m117.442327 45.3301288-13.706438 48.1224463c0 3.7371459 3.030408 6.7696949 6.767554 6.7696949 3.739287 0 6.771837-3.032549 6.771837-6.7696949h.006425c.034266 3.7071631 3.04754 6.7075879 6.76327 6.7075879s6.729004-3.0004248 6.76327-6.7075879h.014992c.034266 3.7071631 3.045399 6.7075879 6.76327 6.7075879 3.720013 0 6.729005-3.0004248 6.765412-6.7075879h.006425c0 3.7371459 3.030408 6.7696949 6.769695 6.7696949 3.739288 0 6.771837-3.032549 6.771837-6.7696949h.006425c.034266 3.7071631 3.045399 6.7075879 6.765412 6.7075879 3.713588 0 6.726863-3.0004248 6.761129-6.7075879h.01285c.036408 3.7071631 3.047541 6.7075879 6.765412 6.7075879 3.715729 0 6.731146-3.0004248 6.76327-6.7075879h.006425c0 3.7371459 3.032549 6.7696949 6.769695 6.7696949 3.739288 0 6.771837-3.032549 6.771837-6.7696949h.006425c.036408 3.7071631 3.047541 6.7075879 6.765412 6.7075879 3.716158 0 6.727291-3.0004248 6.763699-6.7075879h.01285c.034266 3.7071631 3.045399 6.7075879 6.765412 6.7075879 3.717871 0 7.317953-3.9084763 6.765412-6.7075879l-13.796386-48.1224463z" stroke="#fff" stroke-width="4"/><path d="m310.721 290.44h4.283v47.754h-97.074v-47.874h4.283v43.591h88.508z" fill="#8b98a9" fill-rule="nonzero"/><path d="m302.135 292.382h2.141v25.528h-75.231v-25.62h2.142v23.479h70.948z" fill="#8b98a9" fill-rule="nonzero"/><path d="m219.223764 240.526936-13.70708 48.122446c0 3.737146 3.03105 6.769695 6.768196 6.769695 3.739287 0 6.771837-3.032549 6.771837-6.769695h.006425c.034266 3.707163 3.04754 6.707588 6.76327 6.707588s6.729004-3.000425 6.76327-6.707588h.014992c.034266 3.707163 3.045399 6.707588 6.76327 6.707588 3.720013 0 6.729004-3.000425 6.765412-6.707588h.006425c0 3.737146 3.030408 6.769695 6.769695 6.769695 3.739288 0 6.771837-3.032549 6.771837-6.769695h.006425c.034266 3.707163 3.045399 6.707588 6.765412 6.707588 3.713588 0 6.726863-3.000425 6.761129-6.707588h.01285c.036407 3.707163 3.047541 6.707588 6.765412 6.707588 3.715729 0 6.731146-3.000425 6.76327-6.707588h.006425c0 3.737146 3.032549 6.769695 6.769695 6.769695 3.739288 0 6.771837-3.032549 6.771837-6.769695h.006425c.036408 3.707163 3.047541 6.707588 6.765412 6.707588 3.71573 0 6.726863-3.000425 6.763271-6.707588h.012849c.034266 3.707163 3.045399 6.707588 6.765412 6.707588 3.717872 0 7.317953-3.908476 6.765412-6.707588l-13.796386-48.122446z" stroke="#fff" stroke-width="4"/><path d="m105.747 465.386h4.283v47.754h-97.073v-47.874h4.283v43.591h88.507z" fill="#8b98a9" fill-rule="nonzero"/><path d="m97.162 467.329h2.141v25.528h-75.231v-25.62h2.142v23.479h70.948z" fill="#8b98a9" fill-rule="nonzero"/><path d="m14.2486987 415.474622-13.70643776 48.121804c0 3.737146 3.03040773 6.769695 6.76755365 6.769695 3.73928751 0 6.77183691-3.032549 6.77183691-6.769695h.0064249c.0342661 3.707163 3.0475408 6.707588 6.7632704 6.707588s6.7290043-3.000425 6.7632704-6.707588h.0149914c.0342661 3.707163 3.0453991 6.707588 6.7632704 6.707588 3.7200128 0 6.7290043-3.000425 6.765412-6.707588h.0064249c0 3.737146 3.0304077 6.769695 6.7696953 6.769695 3.7392875 0 6.7718369-3.032549 6.7718369-6.769695h.0064249c.0342661 3.707163 3.0453991 6.707588 6.765412 6.707588 3.713588 0 6.7268626-3.000425 6.7611287-6.707588h.0128498c.0364077 3.707163 3.0475408 6.707588 6.765412 6.707588 3.7157297 0 6.731146-3.000425 6.7632704-6.707588h.0064249c0 3.737146 3.0325494 6.769695 6.7696953 6.769695 3.7392875 0 6.7718369-3.032549 6.7718369-6.769695h.0064249c.0364077 3.707163 3.0475408 6.707588 6.7654121 6.707588 3.71573 0 6.726863-3.000425 6.76327-6.707588h.01285c.034266 3.707163 3.045399 6.707588 6.765412 6.707588 3.717871 0 7.317953-3.908476 6.765412-6.707588l-13.796386-48.121804z" stroke="#fff" stroke-width="4"/><path d="m504.84 544.415h4.283v47.754h-97.073v-47.874h4.283v43.591h88.507z" fill="#8b98a9" fill-rule="nonzero"/><path d="m496.259 546.358h2.141v25.528h-75.233v-25.62h2.142v23.479h70.95z" fill="#8b98a9" fill-rule="nonzero"/><path d="m413.34333 494.503158-13.706437 48.122447c0 3.737146 3.030407 6.769695 6.767553 6.769695 3.739288 0 6.771837-3.032549 6.771837-6.769695h.006425c.034266 3.707163 3.047541 6.707588 6.763271 6.707588 3.715729 0 6.729004-3.000425 6.76327-6.707588h.014991c.034266 3.707163 3.045399 6.707588 6.763271 6.707588 3.720013 0 6.729004-3.000425 6.765412-6.707588h.006425c0 3.737146 3.030407 6.769695 6.769695 6.769695 3.739287 0 6.771837-3.032549 6.771837-6.769695h.006425c.034266 3.707163 3.045399 6.707588 6.765412 6.707588 3.713588 0 6.726862-3.000425 6.761128-6.707588h.01285c.036408 3.707163 3.047541 6.707588 6.765412 6.707588 3.71573 0 6.731146-3.000425 6.763271-6.707588h.006425c0 3.737146 3.032549 6.769695 6.769695 6.769695 3.739287 0 6.771837-3.032549 6.771837-6.769695h.006425c.036407 3.707163 3.049682 6.707588 6.767553 6.707588 3.713588 0 6.724721-3.000425 6.761129-6.707588h.01285c.034266 3.707163 3.045399 6.707588 6.765412 6.707588 3.717871 0 7.317953-3.908477 6.765412-6.707588l-13.796386-48.122447z" stroke="#fff" stroke-width="4"/><path d="m240.098 593.279h4.284v47.755h-97.074v-47.874h4.284v43.59h88.506z" fill="#8b98a9" fill-rule="nonzero"/><path d="m231.512 595.223h2.142v25.528h-75.23v-25.621h2.142v23.479h70.946z" fill="#8b98a9" fill-rule="nonzero"/><path d="m148.600487 543.367466-13.706438 48.122446c0 3.737146 3.030408 6.769695 6.767554 6.769695 3.739287 0 6.771836-3.032549 6.771836-6.769695h.006425c.034266 3.707163 3.047541 6.707588 6.763271 6.707588 3.715729 0 6.729004-3.000425 6.76327-6.707588h.014992c.034266 3.707163 3.045399 6.707588 6.76327 6.707588 3.720013 0 6.729004-3.000425 6.765412-6.707588h.006425c0 3.737146 3.030408 6.769695 6.769695 6.769695 3.739288 0 6.771837-3.032549 6.771837-6.769695h.006425c.034266 3.707163 3.045399 6.707588 6.765412 6.707588 3.713588 0 6.726863-3.000425 6.761129-6.707588h.01285c.036407 3.707163 3.04754 6.707588 6.766268 6.707588 3.71573 0 6.731146-3.000425 6.763271-6.707588h.006424c0 3.737146 3.03255 6.769695 6.769696 6.769695 3.739287 0 6.771837-3.032549 6.771837-6.769695h.006425c.036407 3.707163 3.04754 6.707588 6.765412 6.707588 3.715729 0 6.726862-3.000425 6.76327-6.707588h.01285c.034266 3.707163 3.045399 6.707588 6.765412 6.707588 3.717871 0 7.317953-3.908476 6.765412-6.707588l-13.796387-48.122446z" stroke="#fff" stroke-width="4"/><path d="m979.248 446.969h4.283v47.754h-97.074v-47.874h4.284v43.591h88.507z" fill="#8b98a9" fill-rule="nonzero"/><path d="m970.662 448.912h2.142v25.528h-75.231v-25.62h2.141v23.479h70.948z" fill="#8b98a9" fill-rule="nonzero"/><path d="m887.748841 397.056597-13.706438 48.122446c0 3.73736 3.030408 6.769909 6.767554 6.769909 3.739288 0 6.771837-3.032549 6.771837-6.769909h.006425c.034266 3.707377 3.047541 6.707802 6.76327 6.707802 3.71573 0 6.729005-3.000425 6.763271-6.707802h.014991c.034266 3.707377 3.045399 6.707802 6.76327 6.707802 3.720013 0 6.729005-3.000425 6.765412-6.707802h.006425c0 3.73736 3.030408 6.769909 6.769696 6.769909 3.739287 0 6.771837-3.032549 6.771837-6.769909h.006424c.034267 3.707377 3.0454 6.707802 6.765412 6.707802 3.713588 0 6.726863-3.000425 6.761129-6.707802h.01285c.036408 3.707377 3.047541 6.707802 6.765412 6.707802 3.71573 0 6.731146-3.000425 6.76327-6.707802h.006425c0 3.73736 3.03255 6.769909 6.769696 6.769909 3.739287 0 6.771836-3.032549 6.771836-6.769909h.006425c.036408 3.707377 3.047541 6.707802 6.765412 6.707802 3.71573 0 6.726863-3.000425 6.763271-6.707802h.01285c.034266 3.707377 3.045399 6.707802 6.765412 6.707802 3.717871 0 7.317952-3.908476 6.765412-6.707802l-13.796387-48.122446z" stroke="#fff" stroke-width="4"/><path d="m909.131 593.282h4.283v47.752h-97.074v-47.874h4.284v43.59h88.507z" fill="#8b98a9" fill-rule="nonzero"/><path d="m900.545 595.223h2.142v25.528h-75.231v-25.621h2.141v23.479h70.948z" fill="#8b98a9" fill-rule="nonzero"/><path d="m817.631845 543.367466-13.706437 48.124588c0 3.735004 3.030407 6.767553 6.767553 6.767553 3.739288 0 6.771837-3.032549 6.771837-6.767553h.006425c.034266 3.705021 3.047541 6.705446 6.763271 6.705446 3.715729 0 6.729004-3.000425 6.76327-6.705446h.014991c.034266 3.705021 3.0454 6.705446 6.763271 6.705446 3.720013 0 6.729004-3.000425 6.765412-6.705446h.006425c0 3.735004 3.030407 6.767553 6.769695 6.767553 3.739287 0 6.771837-3.032549 6.771837-6.767553h.006425c.034266 3.705021 3.045399 6.705446 6.765412 6.705446 3.713588 0 6.726862-3.000425 6.761129-6.705446h.012849c.036408 3.705021 3.047541 6.705446 6.765412 6.705446 3.71573 0 6.731146-3.000425 6.763271-6.705446h.006425c0 3.735004 3.032549 6.767553 6.769695 6.767553 3.739287 0 6.771837-3.032549 6.771837-6.767553h.006425c.036407 3.705021 3.04754 6.705446 6.765412 6.705446 3.715729 0 6.726862-3.000425 6.76327-6.705446h.01285c.034266 3.705021 3.045399 6.705446 6.765412 6.705446 3.717871 0 7.317953-3.908476 6.765412-6.705446l-13.796386-48.124588z" stroke="#fff" stroke-width="4"/><path d="m531.295455 563.63915c.419147.083376.557657-.013182.645984-.454153.113731-.633174.037158-.752604-.349094-.829133-.42175-.08381-.56.01175-.668753.559376-.095109.480827.010435.650842.317691.713504zm-1.382708 6.862362-.024602-.004778c-4.17926-.827104-6.663196-4.735131-5.830991-8.942388.853068-4.295668 4.637136-6.911251 8.8976-6.064619 4.218872.835888 6.649774 4.627334 5.864312 8.996813-.842821 4.237407-4.616398 6.86806-8.861345 6.023538zm27.80615-1.61708c.419147.083377.557657-.013182.645984-.454153.113823-.633684.036357-.754544-.346069-.830675-.423315-.083732-.562931.012815-.671778.560918-.094957.48006.010241.650172.319734.713896zm-1.382708 6.862362-.027745-.005401c-4.177246-.83068-6.659871-4.735427-5.827848-8.941764.852829-4.294468 4.634971-6.909919 8.900687-6.066149 4.217048.839469 6.646508 4.629855 5.861225 8.998342-.842821 4.237407-4.616398 6.868061-8.861345 6.023539zm27.805559-1.616983c.420762.083623.558061-.012122.647094-.456916.114094-.632157.037685-.751368-.350214-.828514-.420126-.083563-.559584.012802-.668152.559496-.094855.479545.012007.652479.320112.716109zm-1.382117 6.86248-.02837-.005526c-4.175284-.83108-6.659094-4.738212-5.827222-8.943781.85301-4.295384 4.639216-6.911614 8.900072-6.064129 4.220095.83929 6.650601 4.631308 5.861839 8.998464-.84288 4.237703-4.614322 6.867709-8.861345 6.023538zm27.805559-1.617197c.419589.083389.557829-.013101.647094-.459059.114002-.631647.038487-.749428-.350214-.826371-.420126-.083563-.559584.012801-.668152.559495-.094855.479546.012007.652479.320112.71611zm-1.382117 6.862479-.02837-.005525c-4.175284-.831081-6.659094-4.738212-5.827222-8.943782.85301-4.295384 4.639216-6.911613 8.896988-6.064741 4.221916.835711 6.653864 4.628787 5.864923 8.996935-.84286 4.237606-4.614116 6.869891-8.861344 6.025679zm27.808528-1.618747c.418082.083466.554955-.012026.644125-.457508.114002-.631648.038487-.749429-.350214-.826372-.420126-.083563-.559584.012802-.668152.559496-.094906.4798.011546.651042.318484.713661zm-1.385086 6.861888-.025225-.004901c-4.177157-.827475-6.662436-4.735698-5.830367-8.942265.85301-4.295383 4.639216-6.911613 8.896988-6.06474 4.221916.83571 6.653864 4.628787 5.864923 8.996934-.843096 4.238792-4.61622 6.871175-8.861344 6.023538zm27.805559-1.617197c.420762.083622.558061-.012123.647094-.456917.114094-.632157.037686-.751368-.350214-.828513-.418938-.083327-.559355.013789-.668152.561637-.094859.479565.011442.650875.318033.713569zm-1.382117 6.862479-.025224-.004901c-4.177158-.827475-6.662437-4.735698-5.830368-8.942264.852987-4.295265 4.639039-6.913791 8.900072-6.066271 4.220095.839291 6.650601 4.631308 5.861839 8.998465-.84288 4.237703-4.614322 6.867708-8.861344 6.023538zm27.805559-1.616983c.420762.083623.558061-.012122.646483-.453518.114011-.635281.037324-.754888-.349001-.831792-.421751-.083809-.560001.011751-.668754.559376-.095095.48076.010982.652417.319677.716026zm-1.382117 6.86248-.027745-.005401c-4.177386-.830708-6.659856-4.737645-5.827847-8.943906.853067-4.295668 4.637136-6.911251 8.900686-6.064007 4.217299.839519 6.646202 4.627846 5.861225 8.998342-.84288 4.237704-4.614322 6.867709-8.861344 6.023538zm28.452135-2.073374c.113685-.632922.037157-.752244-.349094-.829133-.421751-.08381-.560001.01175-.668754.559376-.09571.483866.011778.652979.323542.714679l.079372.017296c.394986.072187.528457-.030472.614934-.462218zm-7.884285-1.630651c.853067-4.295668 4.637136-6.911251 8.900686-6.064006 4.216926.839444 6.646518 4.627659 5.861225 8.9962-.84286 4.237606-4.614115 6.869891-8.888702 6.020356l-.098572-.021522c-4.145209-.850945-6.603096-4.742716-5.774637-8.931028zm33.615563 7.320855.048558.009705c.418082.083466.554954-.012026.643606-.454627.113935-.634313.038218-.752465-.349696-.829253-.419304-.083399-.557284.012004-.66601.559496-.09571.483867.011777.652979.323542.714679zm-7.18998-2.075572c.852995-4.295302 4.636953-6.911638 8.894847-6.064741 4.220948.835519 6.650514 4.626736 5.864923 8.996934-.843096 4.238792-4.616219 6.871175-8.892858 6.017386l-.039861-.007972c-4.176881-.82878-6.658995-4.735673-5.827051-8.941607zm33.659011 7.329968c.420761.083622.55806-.012123.646575-.454036.113813-.633633.036525-.754156-.34881-.830793-.420871-.083326-.560217.013067-.669038.561036-.094948.480017.010223.650142.319652.71388zm-1.382117 6.862479-.027745-.005401c-4.177247-.83068-6.659872-4.735426-5.827848-8.941764.852756-4.294101 4.634785-6.910304 8.897931-6.06627 4.218933.839059 6.649408 4.629174 5.86398 8.998464-.84288 4.237703-4.614322 6.867708-8.861344 6.023538zm27.805559-1.616983c.420761.083623.55806-.012122.647094-.456916.114308-.633346.038577-.751617-.347472-.828394-.422571-.083972-.5623.012549-.670895.559376-.094855.479546.012008.652479.320112.71611zm-1.382117 6.86248-.028371-.005526c-4.175283-.83108-6.659094-4.738211-5.827222-8.943781.853084-4.29575 4.6394-6.911227 8.902214-6.064129 4.220286.839329 6.648444 4.631392 5.859697 8.998464-.842879 4.237704-4.614322 6.867709-8.861344 6.023538zm-711.6412292-227.794155c.3613847-.227986.394461-.389605.1504152-.775843-.3526154-.536565-.4860887-.569361-.8207401-.357621-.3615895.228493-.3964804.39517-.0979099.867463.258257.408436.4525546.461937.7141128.30144zm3.7703668 5.898039-.0700139.04548c-3.5982573 2.276773-8.0943723 1.154268-10.3852459-2.468778-2.3394753-3.700693-1.396457-8.205558 2.273496-10.524655 3.6369246-2.301153 8.0086087-1.226967 10.4435617 2.479132 2.3146057 3.654436 1.3917276 8.163872-2.2232485 10.443122zm18.9978454-20.295344c.360737-.227814.394108-.390833.149548-.778025-.350757-.535108-.484085-.567896-.817653-.356842-.363912.230105-.398679.396143-.102298.865742.260062.410601.454527.464572.718104.303386zm3.77176 5.89716-.071491.046413c-3.599332 2.274938-8.091066 1.153526-10.3872792-2.471878-2.3359641-3.701138-1.3936326-8.201521 2.2770062-10.522489 3.638304-2.302025 8.014035-1.225948 10.444083 2.482097 2.311637 3.651997 1.388806 8.159994-2.223769 10.440157zm18.956504-20.265874.046362-.028831-.006048.004157c.363317-.229583.3965-.391725.150361-.78068-.350217-.534286-.4845-.567272-.813987-.359162-.366018.232071-.400893.398623-.101505.871725.261523.414042.456386.462639.724817.292791zm-6.641506 3.447903c-2.340182-3.698018-1.397757-8.198846 2.27492-10.527473 3.638197-2.298016 8.012396-1.223506 10.440371 2.4813 2.315684 3.652253 1.392889 8.161283-2.338724 10.518853l-.018523.01132c-3.594556 2.255156-8.07511 1.130328-10.358044-2.484zm29.605078-18.647221c-.352055-.536257-.487671-.569562-.819737-.359819-.363684.230204-.398836.397868-.102821.865918.264398.41789.460028.466784.729855.296242l.067107-.040613c.336067-.220622.361795-.387695.125596-.761728zm-6.838332 4.24824c-2.338155-3.697018-1.393966-8.200536 2.277565-10.524535 3.637693-2.297698 8.010634-1.223788 10.443935 2.483545 2.31078 3.650644 1.387375 8.156761-2.292759 10.487129l-.090969.055105c-3.592155 2.235597-8.054995 1.106768-10.337772-2.501244zm29.415235-17.844084.044884-.027897-.003841.002764c.361385-.227985.394461-.389605.150415-.775842-.352841-.536909-.487747-.570094-.818492-.361185-.363567.23013-.398568.39733-.100158.868885.262416.415013.4575.463732.727192.293275zm-6.642984 3.448837c-2.340501-3.698523-1.397596-8.20285 2.27492-10.527473 3.637007-2.297264 8.007028-1.222298 10.441272 2.482722 2.314605 3.654436 1.391727 8.163871-2.339625 10.517432l-.019161.011709c-3.595562 2.253919-8.072874 1.128627-10.357406-2.48439zm29.452024-17.869133c.360968-.227959.394513-.391873.150444-.778802-.350225-.533753-.485549-.566986-.820795-.354644-.362334.22872-.397075.394472-.100051.864321.260062.410602.454527.464572.718104.303386zm3.771761 5.89716-.071491.046414c-3.599333 2.274937-8.091067 1.153525-10.38591-2.469712-2.340071-3.701635-1.395717-8.207139 2.274188-10.523738 3.63576-2.30291 8.013881-1.227729 10.446431 2.480459 2.310229 3.653656 1.387827 8.160765-2.224669 10.440878zm44.400316-235.2654098c.427286-.0018377.540981-.1213713.538694-.578244-.014699-.6418904-.110512-.7404333-.506517-.7382061-.427729.0021605-.545643.1250205-.542718.6837661.002576.4832293.138999.6315628.445863.6340578zm.071968 6.9998118-.083476.001467c-4.258001.024027-7.476086-3.3104894-7.498935-7.5969843-.022919-4.3780991 3.164021-7.6987173 7.505252-7.7206446 4.303712-.0242117 7.441879 3.2033886 7.542902 7.6366677.026341 4.3256918-3.145941 7.6608592-7.419433 7.6781272zm26.86598-7.1441047c.426646-.0020358.541333-.1225994.539115-.5805539-.013895-.6396699-.109589-.7381292-.504312-.7359087-.430552.0022951-.548023.1246805-.545527.6799804.00296.4860216.139276.6348424.448217.6378229zm.073616 6.9998037-.085224.001477c-4.25794.0219-7.472889-3.3093672-7.499016-7.6006919-.019705-4.3766153 3.164277-7.6937969 7.507081-7.7169463 4.305344-.024221 7.44594 3.2071281 7.541773 7.6394583.025116 4.3220496-3.146364 7.6560219-7.418304 7.6753369zm26.815304-7.1410191.054595.0001178c.422439-.0018479.536502-.121768.533879-.582054-.013873-.6386873-.110271-.73782-.499973-.7359345-.43338.0028474-.551214.1256109-.548026.6854758.002376.4897137.141876.6341874.459525.6323949zm-7.459427-.5954744c-.024935-4.3762047 3.159361-7.6937138 7.507952-7.7222795 4.30313-.0208775 7.443257 3.2083316 7.539048 7.6368155.028412 4.324412-3.143584 7.6592785-7.557493 7.6811595l-.021707-.000217c-4.243407.007656-7.447064-3.3205839-7.4678-7.5954785zm34.988052-.1254384c-.014387-.641333-.111747-.741443-.504501-.7395391-.430412.0025011-.549071.1260604-.546064.6798537.002774.4945.142767.639633.461968.6379912l.078431.0011203c.401912-.00901.512266-.1370628.510166-.5794261zm-8.050459-.0210526c-.023747-4.3742825 3.163472-7.6931382 7.508639-7.7183862 4.302532-.0208746 7.441911 3.2071581 7.540881 7.6406074.025106 4.3204486-3.145865 7.6525233-7.501702 7.6786123l-.106348-.001474c-4.231006-.007658-7.417521-3.3299044-7.44147-7.5993595zm34.401458.455058.052847.0001272c.422563-.001529.536259-.1210626.533971-.5779353-.014708-.6423019-.111529-.7419331-.502722-.7400367-.430273.0025003-.548557.1257461-.545378.6837805.002618.4910107.142242.6357053.461282.6340643zm-7.461175-.595465c-.024939-4.3768027 3.16162-7.6970248 7.507952-7.7222795 4.301721-.0208707 7.438064 3.2065105 7.539059 7.638498.02634 4.3256918-3.145941 7.660859-7.557504 7.679477l-.022455-.000224c-4.243605.006074-7.444266-3.3208424-7.467052-7.5954715zm34.445931.4533107c.426917-.0020371.542227-.1232671.540285-.5807386-.014161-.6382397-.111311-.7381336-.508141-.7357108-.428479.0019585-.545777.124114-.542868.6799673.002959.4860215.139275.6348423.448217.6378228zm.073615 6.9998038-.085223.001476c-4.25794.021901-7.472889-3.3093663-7.499004-7.5981277-.022924-4.3792131 3.165487-7.6996662 7.505354-7.7194995 4.303655-.02632 7.446753 3.2055369 7.544632 7.6393134.023043 4.3227105-3.147603 7.6561578-7.419448 7.6754718zm-114.902644 509.537795.054045-.019415c.395242-.144804.462229-.297666.305464-.724762-.233042-.599561-.354789-.6587-.732828-.51894-.398137.145679-.466339.299331-.27362.824712.168647.458508.350468.547662.646939.438405zm-7.217688 1.97515c-1.508459-4.112256.35884-8.319085 4.427871-9.807924 4.038706-1.493336 8.088426.473807 9.695766 4.610641 1.495137 4.058229-.352082 8.273556-4.496618 9.794735l-.019536.006837c-3.986301 1.450782-8.130932-.589911-9.607483-4.604289zm32.551501-11.292561c.399086-.146419.466733-.3006.310927-.725744-.231796-.597761-.356834-.658554-.727294-.522297-.403599.148308-.472108.302609-.280935.824623.166493.451907.34254.547639.62578.450836zm2.374783 6.586386c-3.997964 1.475866-8.158181-.566467-9.64281-4.596191-1.505122-4.109706.359998-8.310428 4.436274-9.808313 4.03845-1.485361 8.087752.48338 9.690769 4.618754 1.485172 4.037812-.341419 8.233436-4.394405 9.75118zm22.909166-15.881368c.40028-.146581.466928-.29857.307928-.729743-.230441-.595669-.354106-.655811-.718615-.521746-.408178.150771-.476305.304267-.282935.830447.168546.459113.349225.547653.649072.43745zm2.372809 6.585758c-3.999159 1.469812-8.159868-.569106-9.637208-4.593319-1.509352-4.107104.354005-8.305356 4.432791-9.811966 4.039213-1.485642 8.089665.484236 9.686586 4.613216 1.500369 4.057993-.350546 8.278997-4.441478 9.777078zm22.865652-15.864203.050106-.017966-.009191.00368c.402596-.148086.471307-.304532.316016-.728307-.232412-.599033-.35633-.659172-.727519-.522876-.403389.148231-.471753.302061-.279916.823108.169846.462211.352226.551878.650504.442361zm-7.220184 1.974104c-1.511688-4.105868.357375-8.31156 4.435996-9.810307 4.037056-1.482356 8.084265.481801 9.688983 4.619411 1.491448 4.054874-.359129 8.268404-4.499404 9.790843l-.021235.007433c-3.989035 1.447713-8.13037-.596184-9.60434-4.60738zm32.861989-12.013223c-.233551-.600873-.359672-.662247-.72451-.52842-.404473.14916-.473689.305284-.278777.834824.167402.456314.347255.544501.647718.434182l.070955-.024215c.376791-.144873.436941-.30136.284614-.716371zm-7.573714 2.720836c-1.512371-4.108798.351964-8.314055 4.432853-9.818975 4.03732-1.481007 8.081357.48694 9.687301 4.620183 1.495176 4.058335-.354444 8.273637-4.448735 9.776799l-.086835.029633c-3.983047 1.435086-8.11581-.60398-9.584584-4.60764zm32.543736-11.29407c.399421-.146542.467514-.301828.311706-.728017-.230914-.594401-.358205-.656196-.730845-.519007-.401873.147289-.469073.298641-.275003.826374.154971.421733.320132.532292.576435.463889zm2.485663 6.547822-.116637.042825c-3.997571 1.467765-8.155321-.573954-9.633312-4.596092-1.512438-4.112769.354746-8.318137 4.431493-9.81229 4.035232-1.485628 8.08691.48131 9.692556 4.616124 1.473784 4.014526-.318371 8.181301-4.316766 9.723633zm437.794314-363.075254v-.044974c0-.429384-.120768-.545541-.578065-.546048-.639217.01088-.740029.107813-.740029.501073 0 .428454.122893.547683.680463.547683.491475 0 .637631-.139567.637631-.457734zm7 0c0 4.25825-3.350564 7.457734-7.637631 7.457734-4.376937 0-7.680463-3.205022-7.680463-7.547683 0-4.303112 3.247453-7.425618 7.680463-7.500566 4.323199 0 7.637631 3.187881 7.637631 7.545541zm-7-26.937434v-.044974c0-.431515-.120733-.547682-.578065-.548189-.639217.01088-.740029.107813-.740029.501073 0 .430588.122855.549824.680463.549824.491475 0 .637631-.139566.637631-.457734zm7 0c0 4.25825-3.350564 7.457734-7.637631 7.457734-4.377542 0-7.680463-3.205635-7.680463-7.549824 0-4.303112 3.247453-7.425618 7.680463-7.500566 4.3238 0 7.637631 3.188508 7.637631 7.547682zm-7-26.941716v-.044975c0-.429383-.120768-.54554-.575087-.546099-.64105.011457-.743007.109528-.743007.503267 0 .427397.121866.545541.680463.545541.492546 0 .637631-.13849.637631-.457734zm7 0c0 4.259952-3.350057 7.457734-7.637631 7.457734-4.37683 0-7.680463-3.202723-7.680463-7.545541 0-4.302025 3.245672-7.424007 7.680463-7.502708 4.323199 0 7.637631 3.187881 7.637631 7.54554zm-7-26.937434v-.044974c0-.429384-.120768-.545541-.578065-.546048-.639217.010881-.740029.107813-.740029.501074 0 .428453.122893.547682.680463.547682.491475 0 .637631-.139566.637631-.457734zm7 0c0 4.25825-3.350564 7.457734-7.637631 7.457734-4.376937 0-7.680463-3.205021-7.680463-7.547682 0-4.303113 3.247453-7.425618 7.680463-7.500567 4.323199 0 7.637631 3.187881 7.637631 7.545541z" fill="#f6388a" fill-rule="nonzero"/></g></svg>