<svg xmlns="http://www.w3.org/2000/svg" width="791" height="634" viewBox="0 0 791 634">
  <g fill="none" fill-rule="evenodd" transform="translate(.288 .119)">
    <polygon fill="#41474E" fill-rule="nonzero" points="3.037 211.032 3.037 206.15 788.078 206.15 788.078 211.032"/>
    <polygon fill="#41474E" fill-rule="nonzero" points="3.037 464.914 3.037 460.032 788.078 460.032 788.078 464.914"/>
    <path fill="#FFF" fill-rule="nonzero" d="M623.070686 275.081973C623.070686 288.435941 595.190828 297.990208 560.907232 297.990208 526.622057 297.990208 498.743777 288.436212 498.743777 275.081973 498.743777 261.72737 526.623525 252.171297 560.907232 252.171297 595.18936 252.171297 623.070686 261.727641 623.070686 275.081973zM618.188803 275.081973C618.188803 265.842753 592.544588 257.05318 560.907232 257.05318 529.268259 257.05318 503.62566 265.842446 503.62566 275.081973 503.62566 284.320933 529.267012 293.108325 560.907232 293.108325 592.545834 293.108325 618.188803 284.320627 618.188803 275.081973zM498.758423 394.65881L503.640306 394.65881C503.640306 394.77441 503.636677 394.870588 503.629886 395.00019 503.625692 395.088442 503.62566 395.089291 503.62566 395.095738 503.62566 404.34187 529.244748 413.121114 560.907232 413.121114 592.569716 413.121114 618.188803 404.34187 618.188803 395.095738 618.188803 395.084246 618.188629 395.080932 618.180146 394.952951 618.166661 394.767881 618.159512 394.631858 618.159512 394.468416L623.041395 394.468416C623.041395 394.479909 623.041569 394.483223 623.050052 394.611203 623.063538 394.796273 623.070686 394.932297 623.070686 395.095738 623.070686 408.457221 595.214751 418.002997 560.907232 418.002997 526.599713 418.002997 498.743777 408.457221 498.743777 395.095738 498.743777 394.980138 498.747407 394.88396 498.754197 394.754357 498.758391 394.666106 498.758423 394.665256 498.758423 394.65881z"/>
    <path fill="#8B98A9" fill-rule="nonzero" d="M499.978894,313.590264 L502.419835,313.590264 C502.419835,313.678576 502.417105,313.750922 502.410964,313.870187 C502.406121,313.968776 502.40519,313.993458 502.40519,314.027193 C502.40519,324.302369 528.58401,333.274016 560.907232,333.274016 C593.230454,333.274016 619.409274,324.302369 619.409274,314.027193 C619.409274,313.977713 619.407356,313.941222 619.397623,313.798969 C619.385388,313.628171 619.379983,313.525325 619.379983,313.399871 L621.820924,313.399871 C621.820924,313.449351 621.822842,313.485842 621.832576,313.628095 C621.84481,313.798893 621.850216,313.901738 621.850216,314.027193 C621.850216,326.360004 594.552927,335.714957 560.907232,335.714957 C527.261537,335.714957 499.964248,326.360004 499.964248,314.027193 C499.964248,313.938881 499.966978,313.866535 499.973119,313.74727 C499.977962,313.648681 499.978894,313.623999 499.978894,313.590264 Z"/>
    <path fill="#8B98A9" fill-rule="nonzero" d="M499.978894 323.893478L502.419835 323.893478C502.418592 324.002863 502.418592 324.002863 502.414821 324.093884 502.412862 324.135944 502.412862 324.135944 502.410977 324.173449 502.40614 324.272375 502.40519 324.297807 502.40519 324.332847 502.40519 334.607507 528.582707 343.577229 560.907232 343.577229 593.231757 343.577229 619.409274 334.607507 619.409274 324.332847 619.409274 324.283368 619.407356 324.246876 619.397623 324.104623 619.385388 323.933826 619.379983 323.83098 619.379983 323.705525L621.820924 323.705525C621.820924 323.755005 621.822842 323.791496 621.832576 323.933749 621.84481 324.104547 621.850216 324.207393 621.850216 324.332847 621.850216 336.665244 594.554341 346.018171 560.907232 346.018171 527.260123 346.018171 499.964248 336.665244 499.964248 324.332847 499.964248 324.243704 499.966959 324.171194 499.973106 324.051045 499.974882 324.015661 499.974882 324.015661 499.976314 323.9849 499.97851 323.930278 499.97851 323.930278 499.978894 323.893478zM499.978894 365.755623L502.419835 365.755623C502.419835 365.843935 502.417105 365.916281 502.410964 366.035545 502.406121 366.134135 502.40519 366.158816 502.40519 366.192551 502.40519 376.467727 528.58401 385.439374 560.907232 385.439374 593.230454 385.439374 619.409274 376.467727 619.409274 366.192551 619.409274 366.143071 619.407356 366.10658 619.397623 365.964327 619.385388 365.79353 619.379983 365.690684 619.379983 365.565229L621.820924 365.565229C621.820924 365.614709 621.822842 365.6512 621.832576 365.793453 621.84481 365.964251 621.850216 366.067097 621.850216 366.192551 621.850216 378.525363 594.552927 387.880315 560.907232 387.880315 527.261537 387.880315 499.964248 378.525363 499.964248 366.192551 499.964248 366.104239 499.966978 366.031893 499.973119 365.912629 499.977962 365.814039 499.978894 365.789358 499.978894 365.755623zM499.964248 287.071877L502.40519 287.071877C502.40519 297.347569 528.585313 306.321141 560.907232 306.321141 593.227543 306.321141 619.409274 297.347272 619.409274 287.071877L621.850216 287.071877C621.850216 299.404823 594.549924 308.762082 560.907232 308.762082 527.262951 308.762082 499.964248 299.405103 499.964248 287.071877z"/>
    <path fill="#8B98A9" fill-rule="nonzero" d="M499.978894,354.602962 L502.419835,354.602962 C502.418592,354.712346 502.418592,354.712346 502.414821,354.803367 C502.412862,354.845428 502.412862,354.845428 502.410977,354.882933 C502.40614,354.981859 502.40519,355.007291 502.40519,355.042331 C502.40519,365.316991 528.582707,374.286713 560.907232,374.286713 C593.231757,374.286713 619.409274,365.316991 619.409274,355.042331 C619.409274,354.992851 619.407356,354.95636 619.397623,354.814107 C619.385388,354.643309 619.379983,354.540463 619.379983,354.415009 L621.820924,354.415009 C621.820924,354.464489 621.822842,354.50098 621.832576,354.643233 C621.84481,354.814031 621.850216,354.916877 621.850216,355.042331 C621.850216,367.374727 594.554341,376.727654 560.907232,376.727654 C527.260123,376.727654 499.964248,367.374727 499.964248,355.042331 C499.964248,354.953188 499.966959,354.880677 499.973106,354.760529 C499.974882,354.725145 499.974882,354.725145 499.976314,354.694384 C499.97851,354.639762 499.97851,354.639762 499.978894,354.602962 Z"/>
    <polygon fill="#FFF" fill-rule="nonzero" points="498.744 275.082 503.626 275.082 503.626 394.656 498.744 394.656"/>
    <polygon fill="#FFF" fill-rule="nonzero" points="618.189 275.082 623.071 275.082 623.071 394.466 618.189 394.466"/>
    <polygon fill="#FFF" fill-rule="nonzero" points="151.007 413.125 270.028 413.125 270.028 418.007 146.125 418.007 146.125 252.174 311.963 252.174 311.963 418.007 293.077 418.007 293.077 413.125 307.081 413.125 307.081 257.056 151.007 257.056"/>
    <path fill="#FFF" fill-rule="nonzero" d="M167.01789,633.442925 L167.01789,543.567463 L256.893352,543.567463 L256.893352,633.442925 L167.01789,633.442925 Z M252.011469,628.561042 L252.011469,548.449346 L171.899773,548.449346 L171.899773,628.561042 L252.011469,628.561042 Z"/>
    <polygon fill="#FFF" fill-rule="nonzero" points="170.217 547.245 166.867 543.694 194.423 517.704 286.532 517.704 255.211 547.245 251.862 543.694 274.241 522.586 196.362 522.586"/>
    <polygon fill="#FFF" fill-rule="nonzero" points="281.659 517.817 286.541 517.817 286.541 603.823 256.866 633.42 253.419 629.963 281.659 601.797"/>
    <path fill="#FFF" fill-rule="nonzero" d="M333.377321,633.442925 L333.377321,543.567463 L423.252783,543.567463 L423.252783,633.442925 L333.377321,633.442925 Z M418.3709,628.561042 L418.3709,548.449346 L338.259204,548.449346 L338.259204,628.561042 L418.3709,628.561042 Z"/>
    <polygon fill="#FFF" fill-rule="nonzero" points="362.723 522.586 336.578 547.245 333.228 543.694 360.784 517.704 452.892 517.704 421.571 547.245 418.222 543.694 440.601 522.586"/>
    <polygon fill="#FFF" fill-rule="nonzero" points="448.019 517.817 452.9 517.817 452.9 603.823 423.226 633.42 419.779 629.963 448.019 601.797"/>
    <path fill="#FFF" fill-rule="nonzero" d="M667.788732,633.442925 L667.788732,543.567463 L757.664194,543.567463 L757.664194,633.442925 L667.788732,633.442925 Z M752.782312,628.561042 L752.782312,548.449346 L672.670615,548.449346 L672.670615,628.561042 L752.782312,628.561042 Z"/>
    <polygon fill="#FFF" fill-rule="nonzero" points="670.989 547.245 667.639 543.694 695.195 517.704 787.304 517.704 755.983 547.245 752.633 543.694 775.013 522.586 697.134 522.586"/>
    <polygon fill="#FFF" fill-rule="nonzero" points="782.43 517.817 787.312 517.817 787.312 603.823 757.638 633.42 754.19 629.963 782.43 601.797"/>
    <path fill="#FFF" fill-rule="nonzero" d="M0.596946889,633.442925 L0.596946889,543.567463 L90.4724089,543.567463 L90.4724089,633.442925 L0.596946889,633.442925 Z M5.47882967,628.561042 L85.5905261,628.561042 L85.5905261,548.449346 L5.47882967,548.449346 L5.47882967,628.561042 Z"/>
    <polygon fill="#FFF" fill-rule="nonzero" points="3.797 547.245 .447 543.694 28.003 517.704 120.111 517.704 88.79 547.245 85.441 543.694 107.82 522.586 29.942 522.586"/>
    <polygon fill="#FFF" fill-rule="nonzero" points="115.239 517.817 120.121 517.817 120.121 603.823 90.447 633.42 86.999 629.963 115.239 601.797"/>
    <path fill="#FFF" fill-rule="nonzero" d="M500.181492,633.442925 L500.181492,543.567463 L590.056954,543.567463 L590.056954,633.442925 L500.181492,633.442925 Z M585.175071,628.561042 L585.175071,548.449346 L505.063375,548.449346 L505.063375,628.561042 L585.175071,628.561042 Z"/>
    <polygon fill="#FFF" fill-rule="nonzero" points="503.382 547.245 500.032 543.694 527.588 517.704 619.697 517.704 588.375 547.245 585.026 543.694 607.406 522.586 529.527 522.586"/>
    <polygon fill="#FFF" fill-rule="nonzero" points="614.823 517.817 619.705 517.817 619.705 603.823 590.031 633.42 586.583 629.963 614.823 601.797"/>
    <path fill="#FFF" fill-rule="nonzero" d="M785.637383,125.974627 L785.637383,16.9573029 C785.637383,10.6628101 780.53512,5.56054752 774.240627,5.56054752 L16.875585,5.56054752 C10.5810922,5.56054752 5.47882967,10.6628101 5.47882967,16.9573029 L5.47882967,125.974627 C5.47882967,132.26912 10.5810922,137.371383 16.875585,137.371383 L774.240627,137.371383 C780.53512,137.371383 785.637383,132.26912 785.637383,125.974627 Z M790.519266,125.974627 C790.519266,134.965309 783.23131,142.253265 774.240627,142.253265 L16.875585,142.253265 C7.88490282,142.253265 0.596946889,134.965309 0.596946889,125.974627 L0.596946889,16.9573029 C0.596946889,7.96662067 7.88490282,0.678664739 16.875585,0.678664739 L774.240627,0.678664739 C783.23131,0.678664739 790.519266,7.96662067 790.519266,16.9573029 L790.519266,125.974627 Z"/>
    <path fill="#F6388A" fill-rule="nonzero" stroke="#F6388A" stroke-width="3" d="M230.26313,186.261243 C242.274408,186.894234 251.830351,196.845027 251.830351,209.013012 C251.830351,221.178672 242.274585,231.128804 230.264131,231.762287 L230.264634,254.614705 L227.823693,254.614705 L227.82319,231.761967 C215.81702,231.125446 206.264566,221.176283 206.264566,209.013012 C206.264566,196.848092 215.816135,186.898698 227.822189,186.26167 L227.821252,143.67726 L230.262193,143.67726 L230.26313,186.261243 Z M230.263184,188.706053 L230.264077,229.317477 C240.925818,228.686963 249.38941,219.830237 249.38941,209.013012 C249.38941,198.193465 240.925657,189.336134 230.263184,188.706053 Z M227.823136,229.31711 L227.822242,188.706526 C217.164966,189.340563 208.705507,198.196479 208.705507,209.013012 C208.705507,219.827828 217.16575,228.683524 227.823136,229.31711 Z M562.126234,186.261245 C574.137495,186.894253 583.69342,196.845038 583.69342,209.013012 C583.69342,221.178648 574.137692,231.128764 562.127272,231.762283 L562.127703,250.614705 L559.686761,250.614705 L559.686331,231.761968 C547.680572,231.12546 538.128367,221.176257 538.128367,209.013012 C538.128367,196.848131 547.679668,186.898705 559.685292,186.26167 L559.68432,143.67726 L562.125262,143.67726 L562.126234,186.261245 Z M562.126289,188.706056 L562.127216,229.317473 C572.788924,228.686924 581.252478,219.830213 581.252478,209.013012 C581.252478,198.193477 572.788745,189.336155 562.126289,188.706056 Z M559.686275,229.317111 L559.685348,188.706527 C549.028514,189.340572 540.569308,198.196503 540.569308,209.013012 C540.569308,219.827815 549.029316,228.683533 559.686275,229.317111 Z M230.265068,439.721135 C242.275113,440.355116 251.830351,450.30556 251.830351,462.471579 C251.830351,474.637426 242.275706,484.587514 230.266049,485.221972 L230.267075,532.806598 L227.826134,532.806598 L227.825108,485.221855 C215.817933,484.586275 206.264566,474.636332 206.264566,462.471579 C206.264566,450.307316 215.817486,440.357439 227.824127,439.721356 L227.823693,419.565691 L230.264634,419.565691 L230.265068,439.721135 Z M230.265121,442.165958 L230.265997,482.777149 C240.926914,482.145667 249.38941,473.28901 249.38941,462.471579 C249.38941,451.654007 240.926375,442.797022 230.265121,442.165958 Z M227.825055,482.77701 L227.82418,442.166201 C217.166298,442.799305 208.705507,451.65571 208.705507,462.471579 C208.705507,473.287899 217.166686,482.144354 227.825055,482.77701 Z M562.128137,439.721135 C574.138182,440.355116 583.69342,450.30556 583.69342,462.471579 C583.69342,474.637426 574.138775,484.587514 562.129118,485.221972 L562.130143,532.806598 L559.689202,532.806598 L559.688176,485.221852 C547.681447,484.586248 538.128367,474.636281 538.128367,462.471579 C538.128367,450.307367 547.681,440.357466 559.687196,439.721358 L559.686761,419.565691 L562.127703,419.565691 L562.128137,439.721135 Z M562.12819,442.165958 L562.129065,482.777149 C572.789983,482.145667 581.252478,473.28901 581.252478,462.471579 C581.252478,451.654007 572.789444,442.797022 562.12819,442.165958 Z M559.688124,482.777007 L559.687248,442.166204 C549.029827,442.799334 540.569308,451.655747 540.569308,462.471579 C540.569308,473.287862 549.030214,482.144324 559.688124,482.777007 Z M103.202895,570.639211 L103.202895,568.19827 L165.542014,568.19827 L165.542014,570.639211 L103.202895,570.639211 Z M269.622373,570.639211 L269.622373,568.19827 L331.961492,568.19827 L331.961492,570.639211 L269.622373,570.639211 Z M435.982292,570.639211 L435.982292,568.19827 L498.321412,568.19827 L498.321412,570.639211 L435.982292,570.639211 Z M602.786463,570.639211 L602.786463,568.19827 L666.125582,568.19827 L666.125582,570.639211 L602.786463,570.639211 Z M93.0325273,87.6206247 L91.9911034,85.4129945 L148.044882,58.9702765 L149.086305,61.1779067 L93.0325273,87.6206247 Z M368.41872,87.3543387 L366.643227,85.6792806 L420.136457,28.978653 L421.91195,30.6537112 L368.41872,87.3543387 Z M643.878955,87.3543387 L642.103462,85.6792806 L695.596693,28.978653 L697.372186,30.6537112 L643.878955,87.3543387 Z M285.967708,85.4129945 L284.926284,87.6206247 L228.872506,61.1779067 L229.91393,58.9702765 L285.967708,85.4129945 Z M561.435248,85.4129858 L560.393861,87.6206335 L504.337642,61.1779154 L505.379029,58.9702677 L561.435248,85.4129858 Z M328.314809,76.3478478 L325.873867,76.3478478 L325.873867,15.3243131 L328.314809,15.3243131 L328.314809,76.3478478 Z M739.354693,104.648122 L736.913752,104.648122 L736.913752,83.7463412 L739.354693,83.7463412 L739.354693,104.648122 Z"/>
    <path fill="#8B98A9" fill-rule="nonzero" d="M223.166376,378.562802 C229.928254,379.321325 235.190454,385.063727 235.190454,392.027475 C235.190454,399.507133 229.119914,405.579581 221.64152,405.579581 C214.163009,405.579581 208.091855,399.507016 208.091855,392.027475 C208.091855,384.856191 213.67312,378.979961 220.725435,378.508342 L220.725435,369.966247 L199.392096,369.966247 L199.392096,345.307857 L220.725435,345.307857 L220.725435,335.398973 L197.553466,319.946476 L186.081642,319.946476 L186.081642,332.278112 L158.982311,332.278112 L158.982311,305.176339 L186.081642,305.176339 L186.081642,317.505534 L198.579262,317.505534 L198.579262,317.656199 L220.419341,301.866413 L220.419341,293.435411 L199.392096,293.435411 L199.392096,268.77458 L243.890457,268.77458 L243.890457,293.435411 L222.860282,293.435411 L222.860282,302.257143 L245.072501,317.073488 L253.922238,317.073488 L253.922238,305.176339 L299.609338,305.176339 L299.609338,332.278112 L277.987479,332.278112 L277.987479,358.857522 L275.546538,358.857522 L243.890457,358.857522 L243.890457,369.966247 L223.166376,369.966247 L223.166376,378.562802 Z M243.890457,356.416581 L275.546538,356.416581 L275.546538,332.278112 L253.922238,332.278112 L253.922238,319.514429 L245.097766,319.514429 L223.166376,335.369579 L223.166376,345.307857 L243.890457,345.307857 L243.890457,356.416581 Z M221.365648,304.194314 L200.717377,319.122456 L221.917807,333.26021 L242.563864,318.334283 L221.365648,304.194314 Z M183.640701,329.83717 L183.640701,307.617281 L161.423252,307.617281 L161.423252,329.83717 L183.640701,329.83717 Z M297.168397,329.83717 L297.168397,307.617281 L256.363179,307.617281 L256.363179,329.83717 L297.168397,329.83717 Z"/>
    <path fill="#8B98A9" d="M281.873458,425.992198 C287.626757,426.009285 292.345096,421.320236 292.352419,415.584024 C292.359742,409.887843 287.707308,405.176826 282.03456,405.13533 C276.271497,405.093834 271.526307,409.758473 271.497016,415.483945 C271.465284,421.239685 276.139687,425.975111 281.873458,425.992198 M301.754925,409.926898 C303.492876,410.11241 305.308936,410.305244 307.193343,410.505401 L307.193343,420.607481 C305.379723,420.805197 303.534372,421.005355 301.752485,421.20063 C301.132485,422.692045 300.551541,424.085823 299.92666,425.596765 C301.020202,426.941724 302.172326,428.367234 303.248782,429.692665 C300.8591,432.067701 298.515796,434.396359 296.040682,436.86171 C294.812888,435.860924 293.372733,434.689272 291.974073,433.554234 C290.511949,434.169352 289.118172,434.755178 287.577938,435.399586 C287.394867,437.105804 287.202033,438.921864 286.989671,440.857531 C283.64314,440.955169 280.299051,440.88194 276.869528,440.908791 C276.669371,439.026825 276.476536,437.213206 276.283702,435.406909 C274.806933,434.789351 273.381423,434.188879 271.877803,433.563998 C270.505994,434.674626 269.085366,435.826751 267.752612,436.910529 C265.350726,434.506202 263.009863,432.170221 260.568921,429.734161 C261.616085,428.452667 262.770651,427.032039 263.932539,425.601647 C263.332067,424.163933 262.736477,422.740864 262.092069,421.195748 C260.351678,421.015118 258.540499,420.819843 256.658533,420.622127 L256.658533,410.517606 C258.469712,410.317449 260.312623,410.117292 262.099392,409.926898 C262.71695,408.440365 263.297894,407.041705 263.922775,405.535645 C262.82191,404.163835 261.645377,402.713916 260.510339,401.312816 C262.912225,398.918252 265.231119,396.601799 267.652533,394.185267 C269.097571,395.176289 270.430325,396.491957 271.894889,397.565971 C273.337486,396.958176 274.731263,396.374792 276.276379,395.727942 C276.457009,394.024165 276.649843,392.210545 276.857323,390.265115 C280.206295,390.1748 283.545503,390.240706 286.982348,390.228501 C287.182505,392.100703 287.37534,393.916764 287.568174,395.725501 C289.042503,396.343059 290.468012,396.94109 291.969191,397.568412 C293.341,396.452902 294.761628,395.300777 296.099264,394.216999 C298.501151,396.616445 300.842013,398.952426 303.280514,401.383603 C302.23335,402.674861 301.081226,404.095489 299.919338,405.530763 C300.519809,406.966036 301.110517,408.386664 301.754925,409.926898"/>
    <path fill="#231F20" d="M580.728896 462.472701C580.728896 473.416519 571.855833 482.289582 560.909771 482.289582 549.96371 482.289582 541.09289 473.416519 541.09289 462.472701 541.09289 451.526639 549.96371 442.653576 560.909771 442.653576 571.855833 442.653576 580.728896 451.526639 580.728896 462.472701M248.865462 462.472701C248.865462 473.416333 239.992549 482.289245 229.046673 482.289245 218.100124 482.289245 209.229455 473.416333 209.229455 462.472701 209.229455 451.526825 218.100124 442.653912 229.046673 442.653912 239.992549 442.653912 248.865462 451.526825 248.865462 462.472701M580.728896 209.01067C580.728896 219.956732 571.855833 228.829795 560.909771 228.829795 549.96371 228.829795 541.09289 219.956732 541.09289 209.01067 541.09289 198.066852 549.96371 189.193789 560.909771 189.193789 571.855833 189.193789 580.728896 198.066852 580.728896 209.01067M247.334992 209.010757C247.334992 219.111324 239.147301 227.299014 229.046734 227.299014 218.945546 227.299014 210.759926 219.111324 210.759926 209.010757 210.759926 198.91226 218.945546 190.72457 229.046734 190.72457 239.147301 190.72457 247.334992 198.91226 247.334992 209.010757"/>
    <path fill="#8B98A9" fill-rule="nonzero" d="M19.8069115,126.387146 L19.8069115,123.946205 L88.1972074,123.946205 L88.1972074,126.387146 L19.8069115,126.387146 Z M19.8069115,120.284793 L19.8069115,117.843851 L71.6622704,117.843851 L71.6622704,120.284793 L19.8069115,120.284793 Z M19.8069115,113.572204 L19.8069115,111.131263 L71.6622704,111.131263 L71.6622704,113.572204 L19.8069115,113.572204 Z M19.8069115,99.8419087 L19.8069115,97.4009673 L71.6622704,97.4009673 L71.6622704,99.8419087 L19.8069115,99.8419087 Z M19.8069115,107.164733 L19.8069115,104.723791 L76.8492709,104.723791 L76.8492709,107.164733 L19.8069115,107.164733 Z M156.121772,45.5309628 L156.121772,43.0900214 L224.511335,43.0900214 L224.511335,45.5309628 L156.121772,45.5309628 Z M156.121772,51.5307967 L156.121772,49.0898553 L220.255066,49.0898553 L220.255066,51.5307967 L156.121772,51.5307967 Z M156.121772,57.6331502 L156.121772,55.1922088 L220.255066,55.1922088 L220.255066,57.6331502 L156.121772,57.6331502 Z M156.121772,39.4286093 L156.121772,36.9876679 L207.97713,36.9876679 L207.97713,39.4286093 L156.121772,39.4286093 Z M156.121772,32.7160205 L156.121772,30.2750791 L221.639079,30.2750791 L221.639079,32.7160205 L156.121772,32.7160205 Z M156.121772,18.9857252 L156.121772,16.5447838 L224.511335,16.5447838 L224.511335,18.9857252 L156.121772,18.9857252 Z M156.121772,26.3085493 L156.121772,23.8676079 L213.164131,23.8676079 L213.164131,26.3085493 L156.121772,26.3085493 Z M292.89919,126.387146 L292.89919,123.946205 L361.289486,123.946205 L361.289486,126.387146 L292.89919,126.387146 Z M292.89919,120.284793 L292.89919,117.843851 L344.754549,117.843851 L344.754549,120.284793 L292.89919,120.284793 Z M292.89919,113.572204 L292.89919,111.131263 L358.167522,111.131263 L358.167522,113.572204 L292.89919,113.572204 Z M292.89919,99.8419087 L292.89919,97.4009673 L332.537637,97.4009673 L332.537637,99.8419087 L292.89919,99.8419087 Z M292.89919,107.164733 L292.89919,104.723791 L342.301403,104.723791 L342.301403,107.164733 L292.89919,107.164733 Z M292.89919,85.3500397 L292.89919,82.9090983 L361.289486,82.9090983 L361.289486,85.3500397 L292.89919,85.3500397 Z M292.89919,92.6728638 L292.89919,90.2319224 L354.913747,90.2319224 L354.913747,92.6728638 L292.89919,92.6728638 Z M565.222816,99.8419087 L565.222816,97.4009673 L633.613112,97.4009673 L633.613112,99.8419087 L565.222816,99.8419087 Z M565.222816,93.7395552 L565.222816,91.2986138 L617.078175,91.2986138 L617.078175,93.7395552 L565.222816,93.7395552 Z M565.222816,87.0269664 L565.222816,84.586025 L630.491148,84.586025 L630.491148,87.0269664 L565.222816,87.0269664 Z M565.222816,73.2966711 L565.222816,70.8557297 L604.861263,70.8557297 L604.861263,73.2966711 L565.222816,73.2966711 Z M565.222816,80.6194952 L565.222816,78.1785539 L614.625029,78.1785539 L614.625029,80.6194952 L565.222816,80.6194952 Z M565.222816,58.804802 L565.222816,56.3638607 L633.613112,56.3638607 L633.613112,58.804802 L565.222816,58.804802 Z M565.222816,66.1276262 L565.222816,63.6866848 L627.237373,63.6866848 L627.237373,66.1276262 L565.222816,66.1276262 Z M428.918208,57.5843314 L428.918208,55.14339 L497.308504,55.14339 L497.308504,57.5843314 L428.918208,57.5843314 Z M428.918208,51.4819779 L428.918208,49.0410365 L480.773567,49.0410365 L480.773567,51.4819779 L428.918208,51.4819779 Z M428.918208,44.7693891 L428.918208,42.3284477 L494.184099,42.3284477 L494.184099,44.7693891 L428.918208,44.7693891 Z M428.918208,31.0390937 L428.918208,28.5981524 L468.554214,28.5981524 L468.554214,31.0390937 L428.918208,31.0390937 Z M428.918208,38.3619179 L428.918208,35.9209765 L478.31798,35.9209765 L478.31798,38.3619179 L428.918208,38.3619179 Z M428.918208,16.5447838 L428.918208,14.1038424 L497.308504,14.1038424 L497.308504,16.5447838 L428.918208,16.5447838 Z M428.918208,23.8676079 L428.918208,21.4266665 L490.930324,21.4266665 L490.930324,23.8676079 L428.918208,23.8676079 Z M428.918208,105.868593 L428.918208,103.427652 L497.308504,103.427652 L497.308504,105.868593 L428.918208,105.868593 Z M428.918208,99.7662395 L428.918208,97.3252981 L480.773567,97.3252981 L480.773567,99.7662395 L428.918208,99.7662395 Z M428.918208,93.0536507 L428.918208,90.6127093 L494.184099,90.6127093 L494.184099,93.0536507 L428.918208,93.0536507 Z M428.918208,79.3233554 L428.918208,76.882414 L468.554214,76.882414 L468.554214,79.3233554 L428.918208,79.3233554 Z M428.918208,113.040079 L428.918208,110.599137 L468.554214,110.599137 L468.554214,113.040079 L428.918208,113.040079 Z M428.918208,86.6461795 L428.918208,84.2052381 L478.31798,84.2052381 L478.31798,86.6461795 L428.918208,86.6461795 Z M428.918208,64.8314863 L428.918208,62.3905449 L497.308504,62.3905449 L497.308504,64.8314863 L428.918208,64.8314863 Z M428.918208,72.1543105 L428.918208,69.7133691 L490.930324,69.7133691 L490.930324,72.1543105 L428.918208,72.1543105 Z M702.003408,57.5843314 L702.003408,55.14339 L770.393704,55.14339 L770.393704,57.5843314 L702.003408,57.5843314 Z M702.003408,51.4819779 L702.003408,49.0410365 L753.858767,49.0410365 L753.858767,51.4819779 L702.003408,51.4819779 Z M702.003408,44.7693891 L702.003408,42.3284477 L767.269299,42.3284477 L767.269299,44.7693891 L702.003408,44.7693891 Z M702.003408,31.0390937 L702.003408,28.5981524 L741.639414,28.5981524 L741.639414,31.0390937 L702.003408,31.0390937 Z M702.003408,38.3619179 L702.003408,35.9209765 L751.40318,35.9209765 L751.40318,38.3619179 L702.003408,38.3619179 Z M702.003408,16.5447838 L702.003408,14.1038424 L770.393704,14.1038424 L770.393704,16.5447838 L702.003408,16.5447838 Z M702.003408,23.8676079 L702.003408,21.4266665 L764.015524,21.4266665 L764.015524,23.8676079 L702.003408,23.8676079 Z M702.003408,118.683535 L702.003408,116.242594 L770.393704,116.242594 L770.393704,118.683535 L702.003408,118.683535 Z M702.003408,112.581182 L702.003408,110.14024 L753.858767,110.14024 L753.858767,112.581182 L702.003408,112.581182 Z M702.003408,79.3233554 L702.003408,76.882414 L741.639414,76.882414 L741.639414,79.3233554 L702.003408,79.3233554 Z M702.003408,125.855021 L702.003408,123.41408 L741.639414,123.41408 L741.639414,125.855021 L702.003408,125.855021 Z M702.003408,64.8314863 L702.003408,62.3905449 L770.393704,62.3905449 L770.393704,64.8314863 L702.003408,64.8314863 Z M702.003408,72.1543105 L702.003408,69.7133691 L764.015524,69.7133691 L764.015524,72.1543105 L702.003408,72.1543105 Z"/>
  </g>
</svg>
