<svg height="634" viewBox="0 0 791 634" width="791" xmlns="http://www.w3.org/2000/svg"><g fill="none" fill-rule="evenodd" transform="translate(.288 .119)"><path d="m3.037 211.032v-4.882h785.041v4.882z" fill="#7b1173" fill-rule="nonzero"/><path d="m3.037 464.914v-4.882h785.041v4.882z" fill="#7b1173" fill-rule="nonzero"/><path d="m623.070686 275.081973c0 13.353968-27.879858 22.908235-62.163454 22.908235-34.285175 0-62.163455-9.553996-62.163455-22.908235 0-13.354603 27.879748-22.910676 62.163455-22.910676 34.282128 0 62.163454 9.556344 62.163454 22.910676zm-4.881883 0c0-9.23922-25.644215-18.028793-57.281571-18.028793-31.638973 0-57.281572 8.789266-57.281572 18.028793 0 9.23896 25.641352 18.026352 57.281572 18.026352 31.638602 0 57.281571-8.787698 57.281571-18.026352zm-119.43038 119.576837h4.881883c0 .1156-.003629.211778-.01042.34138-.004194.088252-.004226.089101-.004226.095548 0 9.246132 25.619088 18.025376 57.281572 18.025376s57.281571-8.779244 57.281571-18.025376c0-.011492-.000174-.014806-.008657-.142787-.013485-.18507-.020634-.321093-.020634-.484535h4.881883c0 .011493.000174.014807.008657.142787.013486.18507.020634.321094.020634.484535 0 13.361483-27.855935 22.907259-62.163454 22.907259s-62.163455-9.545776-62.163455-22.907259c0-.1156.00363-.211778.01042-.341381.004194-.088251.004226-.089101.004226-.095547zm1.220471-81.068546h2.440941c0 .088312-.00273.160658-.008871.279923-.004843.098589-.005774.123271-.005774.157006 0 10.275176 26.17882 19.246823 58.502042 19.246823s58.502042-8.971647 58.502042-19.246823c0-.04948-.001918-.085971-.011651-.228224-.012235-.170798-.01764-.273644-.01764-.399098h2.440941c0 .04948.001918.085971.011652.228224.012234.170798.01764.273643.01764.399098 0 12.332811-27.297289 21.687764-60.942984 21.687764s-60.942984-9.354953-60.942984-21.687764c0-.088312.00273-.160658.008871-.279923.004843-.098589.005775-.123271.005775-.157006z" fill="#fff" fill-rule="nonzero"/><path d="m499.978894 323.893478h2.440941c-.001243.109385-.001243.109385-.005014.200406-.001959.04206-.001959.04206-.003844.079565-.004837.098926-.005787.124358-.005787.159398 0 10.27466 26.177517 19.244382 58.502042 19.244382s58.502042-8.969722 58.502042-19.244382c0-.049479-.001918-.085971-.011651-.228224-.012235-.170797-.01764-.273643-.01764-.399098h2.440941c0 .04948.001918.085971.011652.228224.012234.170798.01764.273644.01764.399098 0 12.332397-27.295875 21.685324-60.942984 21.685324s-60.942984-9.352927-60.942984-21.685324c0-.089143.002711-.161653.008858-.281802.001776-.035384.001776-.035384.003208-.066145.002196-.054622.002196-.054622.00258-.091422zm0 41.862145h2.440941c0 .088312-.00273.160658-.008871.279922-.004843.09859-.005774.123271-.005774.157006 0 10.275176 26.17882 19.246823 58.502042 19.246823s58.502042-8.971647 58.502042-19.246823c0-.04948-.001918-.085971-.011651-.228224-.012235-.170797-.01764-.273643-.01764-.399098h2.440941c0 .04948.001918.085971.011652.228224.012234.170798.01764.273644.01764.399098 0 12.332812-27.297289 21.687764-60.942984 21.687764s-60.942984-9.354952-60.942984-21.687764c0-.088312.00273-.160658.008871-.279922.004843-.09859.005775-.123271.005775-.157006zm-.014646-78.683746h2.440942c0 10.275692 26.180123 19.249264 58.502042 19.249264 32.320311 0 58.502042-8.973869 58.502042-19.249264h2.440942c0 12.332946-27.300292 21.690205-60.942984 21.690205-33.644281 0-60.942984-9.356979-60.942984-21.690205z" fill="#fff" fill-rule="nonzero"/><path d="m499.978894 354.602962h2.440941c-.001243.109384-.001243.109384-.005014.200405-.001959.042061-.001959.042061-.003844.079566-.004837.098926-.005787.124358-.005787.159398 0 10.27466 26.177517 19.244382 58.502042 19.244382s58.502042-8.969722 58.502042-19.244382c0-.04948-.001918-.085971-.011651-.228224-.012235-.170798-.01764-.273644-.01764-.399098h2.440941c0 .04948.001918.085971.011652.228224.012234.170798.01764.273644.01764.399098 0 12.332396-27.295875 21.685323-60.942984 21.685323s-60.942984-9.352927-60.942984-21.685323c0-.089143.002711-.161654.008858-.281802.001776-.035384.001776-.035384.003208-.066145.002196-.054622.002196-.054622.00258-.091422z" fill="#fff" fill-rule="nonzero"/><path d="m498.744 275.082h4.882v119.574h-4.882z" fill="#fff" fill-rule="nonzero"/><path d="m618.189 275.082h4.882v119.384h-4.882z" fill="#fff" fill-rule="nonzero"/><path d="m559.684 138.677h2.441l.003 115.938h-2.441z" fill="#f6388a" fill-rule="nonzero"/><path d="m227.821 138.677h2.441l.003 115.938h-2.441z" fill="#f6388a" fill-rule="nonzero"/><path d="m151.007 413.125h119.021v4.882h-123.903v-165.833h165.838v165.833h-18.886v-4.882h14.004v-156.069h-156.074z" fill="#fff" fill-rule="nonzero"/><path d="m167.01789 633.442925v-89.875462h89.875462v89.875462zm84.993579-4.881883v-80.111696h-80.111696v80.111696z" fill="#fff" fill-rule="nonzero"/><path d="m170.217 547.245-3.35-3.551 27.556-25.99h92.109l-31.321 29.541-3.349-3.551 22.379-21.108h-77.879z" fill="#fff" fill-rule="nonzero"/><path d="m281.659 517.817h4.882v86.006l-29.675 29.597-3.447-3.457 28.24-28.166z" fill="#fff" fill-rule="nonzero"/><path d="m333.377321 633.442925v-89.875462h89.875462v89.875462zm84.993579-4.881883v-80.111696h-80.111696v80.111696z" fill="#fff" fill-rule="nonzero"/><path d="m362.723 522.586-26.145 24.659-3.35-3.551 27.556-25.99h92.108l-31.321 29.541-3.349-3.551 22.379-21.108z" fill="#fff" fill-rule="nonzero"/><path d="m448.019 517.817h4.881v86.006l-29.674 29.597-3.447-3.457 28.24-28.166z" fill="#fff" fill-rule="nonzero"/><path d="m667.788732 633.442925v-89.875462h89.875462v89.875462zm84.99358-4.881883v-80.111696h-80.111697v80.111696z" fill="#fff" fill-rule="nonzero"/><path d="m670.989 547.245-3.35-3.551 27.556-25.99h92.109l-31.321 29.541-3.35-3.551 22.38-21.108h-77.879z" fill="#fff" fill-rule="nonzero"/><path d="m782.43 517.817h4.882v86.006l-29.674 29.597-3.448-3.457 28.24-28.166z" fill="#fff" fill-rule="nonzero"/><path d="m.59694689 633.442925v-89.875462h89.87546201v89.875462zm4.88188278-4.881883h80.11169643v-80.111696h-80.11169643z" fill="#fff" fill-rule="nonzero"/><path d="m3.797 547.245-3.35-3.551 27.556-25.99h92.108l-31.321 29.541-3.349-3.551 22.379-21.108h-77.878z" fill="#fff" fill-rule="nonzero"/><path d="m115.239 517.817h4.882v86.006l-29.674 29.597-3.448-3.457 28.24-28.166z" fill="#fff" fill-rule="nonzero"/><path d="m500.181492 633.442925v-89.875462h89.875462v89.875462zm84.993579-4.881883v-80.111696h-80.111696v80.111696z" fill="#fff" fill-rule="nonzero"/><path d="m503.382 547.245-3.35-3.551 27.556-25.99h92.109l-31.322 29.541-3.349-3.551 22.38-21.108h-77.879z" fill="#fff" fill-rule="nonzero"/><path d="m614.823 517.817h4.882v86.006l-29.674 29.597-3.448-3.457 28.24-28.166z" fill="#fff" fill-rule="nonzero"/><path d="m103.203 570.639v-2.441h65.339v2.441z" fill="#f6388a" fill-rule="nonzero"/><path d="m269.622 570.639v-2.441h65.339v2.441z" fill="#f6388a" fill-rule="nonzero"/><path d="m435.982 570.639v-2.441h65.339v2.441z" fill="#f6388a" fill-rule="nonzero"/><path d="m602.786 570.639v-2.441h65.34v2.441z" fill="#f6388a" fill-rule="nonzero"/><path d="m785.637383 125.974627v-109.0173241c0-6.2944928-5.102263-11.39675538-11.396756-11.39675538h-757.365042c-6.2944928 0-11.39675533 5.10226258-11.39675533 11.39675538v109.0173241c0 6.294493 5.10226253 11.396756 11.39675533 11.396756h757.365042c6.294493 0 11.396756-5.102263 11.396756-11.396756zm4.881883 0c0 8.990682-7.287956 16.278638-16.278639 16.278638h-757.365042c-8.99068218 0-16.27863811-7.287956-16.27863811-16.278638v-109.0173241c0-8.99068223 7.28795593-16.27863816 16.27863811-16.27863816h757.365042c8.990683 0 16.278639 7.28795593 16.278639 16.27863816zm-569.153618 178.219687-20.648271 14.928142 21.20043 14.137754 20.646057-14.925927zm.608356 32.037282-25.53481-17.028185 24.870404-17.98063 25.532143 17.030853zm-62.991693-3.953484v-27.101773h27.099331v27.101773zm24.65839-2.440942v-22.219889h-22.217449v22.219889z" fill="#fff" fill-rule="nonzero"/><path d="m559.687 417.566h2.441l.002 115.241h-2.441z" fill="#f6388a" fill-rule="nonzero"/><path d="m199.392 369.966h44.498v-24.658h-44.498z" fill="#fff"/><path d="m199.392 293.435h44.498v-24.66h-44.498z" fill="#fff"/><path d="m253.922238 332.278112v-27.101773h45.6871v27.101773zm43.246159-2.440942v-22.219889h-40.805218v22.219889z" fill="#fff" fill-rule="nonzero"/><path d="m233.969983 392.027475c0 6.810226-5.518968 12.331636-12.328463 12.331636-6.810226 0-12.329195-5.52141-12.329195-12.331636 0-6.810227 5.518969-12.329195 12.329195-12.329195 6.809495 0 12.328463 5.518968 12.328463 12.329195" fill="#fff"/><path d="m235.190454 392.027475c0 7.479658-6.07054 13.552106-13.548934 13.552106-7.478511 0-13.549665-6.072565-13.549665-13.552106 0-7.47915 6.070764-13.549666 13.549665-13.549666 7.478785 0 13.548934 6.070398 13.548934 13.549666zm-2.440942 0c0-6.131195-4.977325-11.108724-11.107992-11.108724-6.130829 0-11.108724 4.977691-11.108724 11.108724 0 6.131573 4.978435 11.111165 11.108724 11.111165 6.130128 0 11.107992-4.97943 11.107992-11.111165z" fill="#fff" fill-rule="nonzero"/><path d="m184.861 319.946v-2.44h13.718v2.44z" fill="#fff" fill-rule="nonzero"/><path d="m244.703 319.514v-2.441h10.44v2.441z" fill="#fff" fill-rule="nonzero"/><path d="m220.419 293.435h2.441v9.274h-2.441z" fill="#fff" fill-rule="nonzero"/><path d="m220.725 334.746h2.441v10.562h-2.441z" fill="#fff" fill-rule="nonzero"/><path d="m220.725 369.964h2.441v9.732h-2.441z" fill="#fff" fill-rule="nonzero"/><path d="m275.547 331.058h2.44v26.579h-2.44z" fill="#fff" fill-rule="nonzero"/><path d="m276.767 356.417v2.441h-36.575v-2.441z" fill="#fff" fill-rule="nonzero"/><path d="m281.873458 425.992198c5.753299.017087 10.471638-4.671962 10.478961-10.408174.007323-5.696181-4.645111-10.407198-10.317859-10.448694-5.763063-.041496-10.508253 4.623143-10.537544 10.348615-.031732 5.75574 4.642671 10.491166 10.376442 10.508253m19.881467-16.0653c1.737951.185512 3.554011.378346 5.438418.578503v10.10208c-1.81362.197716-3.658971.397874-5.440858.593149-.62 1.491415-1.200944 2.885193-1.825825 4.396135 1.093542 1.344959 2.245666 2.770469 3.322122 4.0959-2.389682 2.375036-4.732986 4.703694-7.2081 7.169045-1.227794-1.000786-2.667949-2.172438-4.066609-3.307476-1.462124.615118-2.855901 1.200944-4.396135 1.845352-.183071 1.706218-.375905 3.522278-.588267 5.457945-3.346531.097638-6.69062.024409-10.120143.05126-.200157-1.881966-.392992-3.695585-.585826-5.501882-1.476769-.617558-2.902279-1.21803-4.405899-1.842911-1.371809 1.110628-2.792437 2.262753-4.125191 3.346531-2.401886-2.404327-4.742749-4.740308-7.183691-7.176368 1.047164-1.281494 2.20173-2.702122 3.363618-4.132514-.600472-1.437714-1.196062-2.860783-1.84047-4.405899-1.740391-.18063-3.55157-.375905-5.433536-.573621v-10.104521c1.811179-.200157 3.65409-.400314 5.440859-.590708.617558-1.486533 1.198502-2.885193 1.823383-4.391253-1.100865-1.37181-2.277398-2.821729-3.412436-4.222829 2.401886-2.394564 4.72078-4.711017 7.142194-7.127549 1.445038.991022 2.777792 2.30669 4.242356 3.380704 1.442597-.607795 2.836374-1.191179 4.38149-1.838029.18063-1.703777.373464-3.517397.580944-5.462827 3.348972-.090315 6.68818-.024409 10.125025-.036614.200157 1.872202.392992 3.688263.585826 5.497 1.474329.617558 2.899838 1.215589 4.401017 1.842911 1.371809-1.11551 2.792437-2.267635 4.130073-3.351413 2.401887 2.399446 4.742749 4.735427 7.18125 7.166604-1.047164 1.291258-2.199288 2.711886-3.361176 4.14716.600471 1.435273 1.191179 2.855901 1.835587 4.396135" fill="#fff"/><path d="m582.472949 462.472799c0 11.906912-9.653923 21.560836-21.563276 21.560836s-21.560836-9.653924-21.560836-21.560836c0-11.909353 9.651483-21.563276 21.560836-21.563276s21.563276 9.653923 21.563276 21.563276" fill="#231f20"/><path d="m583.69342 462.471579c0 12.574894-10.207951 22.782526-22.783747 22.782526-12.573754 0-22.781306-10.208031-22.781306-22.782526 0-12.574334 10.207634-22.782527 22.781306-22.782527 12.575714 0 22.783747 10.207794 22.783747 22.782527zm-2.440942 0c0-11.226625-9.115173-20.341585-20.342805-20.341585-11.225547 0-20.340365 9.115316-20.340365 20.341585 0 11.226426 9.114731 20.341585 20.340365 20.341585 11.227718 0 20.342805-9.114802 20.342805-20.341585z" fill="#f6388a" fill-rule="nonzero"/><path d="m227.824 417.566h2.441l.002 115.241h-2.441z" fill="#f6388a" fill-rule="nonzero"/><path d="m250.609881 462.472799c0 11.906912-9.653924 21.560836-21.563277 21.560836-11.910085 0-21.561567-9.653924-21.561567-21.560836 0-11.909353 9.651482-21.563276 21.561567-21.563276 11.909353 0 21.563277 9.653923 21.563277 21.563276" fill="#231f20"/><path d="m251.830351 462.471579c0 12.574894-10.207951 22.782526-22.783747 22.782526-12.574204 0-22.782038-10.207993-22.782038-22.782526 0-12.574371 10.207916-22.782527 22.782038-22.782527 12.575714 0 22.783747 10.207794 22.783747 22.782527zm-2.440941 0c0-11.226625-9.115174-20.341585-20.342806-20.341585-11.226015 0-20.341097 9.115295-20.341097 20.341585 0 11.226447 9.114996 20.341585 20.341097 20.341585 11.227719 0 20.342806-9.114802 20.342806-20.341585z" fill="#f6388a" fill-rule="nonzero"/><path d="m582.472949 209.010571c0 11.909353-9.653923 21.563277-21.563276 21.563277s-21.560836-9.653924-21.560836-21.563277c0-11.906912 9.651483-21.560835 21.560836-21.560835s21.563276 9.653923 21.563276 21.560835" fill="#231f20"/><path d="m583.69342 209.013012c0 12.574036-10.208069 22.781306-22.783747 22.781306-12.573637 0-22.781306-10.207669-22.781306-22.781306 0-12.575678 10.20727-22.783747 22.781306-22.783747 12.576077 0 22.783747 10.20767 22.783747 22.783747zm-2.440942 0c0-11.227983-9.114822-20.342805-20.342805-20.342805-11.225898 0-20.340365 9.115179-20.340365 20.342805 0 11.225542 9.114823 20.340365 20.340365 20.340365 11.227626 0 20.342805-9.114466 20.342805-20.340365z" fill="#f6388a" fill-rule="nonzero"/><path d="m250.609881 209.010571c0 11.909353-9.653924 21.563277-21.563277 21.563277-11.910085 0-21.561567-9.653924-21.561567-21.563277 0-11.906912 9.651482-21.560835 21.561567-21.560835 11.909353 0 21.563277 9.653923 21.563277 21.560835" fill="#231f20"/><g fill-rule="nonzero"><path d="m251.830351 209.013012c0 12.574036-10.208068 22.781306-22.783747 22.781306-12.574087 0-22.782038-10.207631-22.782038-22.781306 0-12.575716 10.207552-22.783747 22.782038-22.783747 12.576078 0 22.783747 10.20767 22.783747 22.783747zm-2.440941 0c0-11.227983-9.114823-20.342805-20.342806-20.342805-11.226366 0-20.341097 9.115158-20.341097 20.342805 0 11.225563 9.115088 20.340365 20.341097 20.340365 11.227627 0 20.342806-9.114466 20.342806-20.340365z" fill="#f6388a"/><path d="m19.807 126.387v-2.441h68.39v2.441z" fill="#fff"/><path d="m19.807 120.285v-2.441h51.855v2.441z" fill="#fff"/><path d="m19.807 113.572v-2.441h51.855v2.441z" fill="#fff"/><path d="m19.807 99.842v-2.441h51.855v2.441z" fill="#fff"/><path d="m19.807 107.165v-2.441h57.042v2.441z" fill="#fff"/><path d="m292.899 126.387v-2.441h68.39v2.441z" fill="#fff"/><path d="m292.899 120.285v-2.441h51.856v2.441z" fill="#fff"/><path d="m292.899 113.572v-2.441h65.269v2.441z" fill="#fff"/><path d="m292.899 99.842v-2.441h39.639v2.441z" fill="#fff"/><path d="m292.899 107.165v-2.441h49.402v2.441z" fill="#fff"/><path d="m292.899 85.35v-2.441h68.39v2.441z" fill="#fff"/><path d="m292.899 92.673v-2.441h62.015v2.441z" fill="#fff"/><path d="m565.223 99.842v-2.441h68.39v2.441z" fill="#fff"/><path d="m565.223 93.74v-2.441h51.855v2.441z" fill="#fff"/><path d="m565.223 87.027v-2.441h65.268v2.441z" fill="#fff"/><path d="m565.223 73.297v-2.441h39.638v2.441z" fill="#fff"/><path d="m565.223 80.619v-2.44h49.402v2.44z" fill="#fff"/><path d="m565.223 58.805v-2.441h68.39v2.441z" fill="#fff"/><path d="m565.223 66.128v-2.441h62.014v2.441z" fill="#fff"/><path d="m428.918 57.584v-2.441h68.391v2.441z" fill="#fff"/><path d="m428.918 51.482v-2.441h51.856v2.441z" fill="#fff"/><path d="m428.918 44.769v-2.441h65.266v2.441z" fill="#fff"/><path d="m428.918 31.039v-2.441h39.636v2.441z" fill="#fff"/><path d="m428.918 38.362v-2.441h49.4v2.441z" fill="#fff"/><path d="m428.918 16.545v-2.441h68.391v2.441z" fill="#fff"/><path d="m428.918 23.868v-2.441h62.012v2.441z" fill="#fff"/><path d="m428.918 105.869v-2.441h68.391v2.441z" fill="#fff"/><path d="m428.918 99.766v-2.441h51.856v2.441z" fill="#fff"/><path d="m428.918 93.054v-2.441h65.266v2.441z" fill="#fff"/><path d="m428.918 79.323v-2.441h39.636v2.441z" fill="#fff"/><path d="m428.918 113.04v-2.441h39.636v2.441z" fill="#fff"/><path d="m428.918 86.646v-2.441h49.4v2.441z" fill="#fff"/><path d="m428.918 64.831v-2.44h68.391v2.44z" fill="#fff"/><path d="m428.918 72.154v-2.441h62.012v2.441z" fill="#fff"/><path d="m702.003 57.584v-2.441h68.391v2.441z" fill="#fff"/><path d="m702.003 51.482v-2.441h51.856v2.441z" fill="#fff"/><path d="m702.003 44.769v-2.441h65.266v2.441z" fill="#fff"/><path d="m702.003 31.039v-2.441h39.636v2.441z" fill="#fff"/><path d="m702.003 38.362v-2.441h49.4v2.441z" fill="#fff"/><path d="m702.003 16.545v-2.441h68.391v2.441z" fill="#fff"/><path d="m702.003 23.868v-2.441h62.013v2.441z" fill="#fff"/><path d="m702.003 118.684v-2.441h68.391v2.441z" fill="#fff"/><path d="m702.003 112.581v-2.441h51.856v2.441z" fill="#fff"/><path d="m702.003 79.323v-2.441h39.636v2.441z" fill="#fff"/><path d="m702.003 125.855v-2.441h39.636v2.441z" fill="#fff"/><path d="m702.003 64.831v-2.44h68.391v2.44z" fill="#fff"/><path d="m702.003 72.154v-2.441h62.013v2.441z" fill="#fff"/><path d="m156.122 45.531v-2.441h68.389v2.441z" fill="#fff"/><path d="m156.122 51.531v-2.441h64.133v2.441z" fill="#fff"/><path d="m156.122 57.633v-2.441h64.133v2.441z" fill="#fff"/><path d="m156.122 39.429v-2.441h51.855v2.441z" fill="#fff"/><path d="m156.122 32.716v-2.441h65.517v2.441z" fill="#fff"/><path d="m156.122 18.986v-2.441h68.389v2.441z" fill="#fff"/><path d="m156.122 26.309v-2.441h57.042v2.441z" fill="#fff"/><path d="m93.033 87.621-1.042-2.208 56.054-26.443 1.041 2.208z" fill="#f6388a"/><path d="m368.419 87.354-1.776-1.675 53.493-56.7 1.776 1.675z" fill="#f6388a"/><path d="m643.879 87.354-1.776-1.675 53.494-56.7 1.775 1.675z" fill="#f6388a"/><path d="m285.968 85.413-1.042 2.208-56.053-26.443 1.041-2.208z" fill="#f6388a"/><path d="m561.435 85.413-1.041 2.208-56.056-26.443 1.041-2.208z" fill="#f6388a"/><path d="m328.315 76.348h-2.441v-61.024h2.441z" fill="#f6388a"/><path d="m739.355 104.648h-2.441v-20.902h2.441z" fill="#f6388a"/></g></g></svg>