<svg xmlns="http://www.w3.org/2000/svg" width="998" height="645" viewBox="0 0 998 645">
  <g fill="none" fill-rule="evenodd">
    <circle cx="514" cy="326.326" r="114" fill="#141127"/>
    <path fill="#FFF" d="M514.124197,208.40033 C448.870845,208.40033 395.972562,261.296472 395.972562,326.554107 C395.972562,391.807459 448.870845,444.703601 514.124197,444.703601 C579.377549,444.703601 632.273691,391.807459 632.273691,326.554107 C632.273691,261.296472 579.377549,208.40033 514.124197,208.40033 M514.124197,212.683592 C576.910391,212.683592 627.990429,263.765773 627.990429,326.554107 C627.990429,389.3403 576.910391,440.420339 514.124197,440.420339 C451.338004,440.420339 400.255824,389.3403 400.255824,326.554107 C400.255824,263.765773 451.338004,212.683592 514.124197,212.683592"/>
    <path fill="#F6388A" fill-rule="nonzero" d="M266.869891,233.215439 C269.604095,217.574201 275.200791,202.911874 283.099385,189.789051 L94.7065304,77.0623364 L97.3465547,72.6502349 L285.840036,185.43716 C302.727672,159.784696 328.649557,140.597203 359.062328,132.418044 L346.211049,76.8841895 L351.220301,75.7249814 L364.054274,131.184052 C373.085885,129.145798 382.48039,128.069876 392.124197,128.069876 C425.718427,128.069876 456.286986,141.125316 479.028792,162.435048 L645.749334,0.76716064 L649.328653,4.45834521 L482.710767,166.026688 C500.545042,184.136255 512.99699,207.561102 517.461674,233.69625 L637.466273,219.117662 L638.086338,224.221767 L518.224746,238.782982 C518.92102,244.166098 519.280107,249.654332 519.280107,255.225785 C519.280107,268.486671 517.245944,281.276058 513.472886,293.298677 L750.492731,381.600736 L748.697732,386.418862 L511.832747,298.174497 C507.816459,309.354417 502.277435,319.810864 495.466292,329.293219 L688.847025,480.362838 L685.681729,484.414661 L492.382617,333.408804 C469.102946,363.209744 432.835548,382.382124 392.124197,382.382124 C381.520936,382.382124 371.219083,381.081517 361.369603,378.631269 L350.677416,420.378998 L345.696549,419.103327 L356.405935,377.288447 C331.153087,369.901074 309.144888,354.882462 293.051733,334.90298 L125.425498,470.486852 L122.192029,466.489222 L289.906823,330.83372 C281.99267,320.156135 275.710802,308.19743 271.431453,295.327836 L2.30634342,386.400614 L0.658211485,381.530293 L269.908446,290.415172 C266.691769,279.238319 264.968288,267.431762 264.968288,255.225785 C264.968288,249.487194 265.349261,243.836879 266.087274,238.298773 L207.396246,230.754015 L208.05181,225.654348 L266.869891,233.215439 Z M269.063166,238.681325 L268.211694,238.571868 C267.485039,244.020543 267.109918,249.579711 267.109918,255.225785 C267.109918,267.191668 268.794701,278.767153 271.939786,289.727761 L272.753971,289.452238 C269.637568,278.578308 267.968288,267.095439 267.968288,255.225785 C267.968288,249.616791 268.341062,244.094156 269.063166,238.681325 Z M269.849021,233.598407 C272.527678,218.376103 277.983606,204.105629 285.674119,191.329669 L284.937429,190.888863 C277.187378,203.764069 271.691169,218.146659 268.996607,233.488829 L269.849021,233.598407 Z M268.211694,238.571868 C268.325211,237.720686 268.447307,236.8722 268.577891,236.0265 Z M274.273962,294.365922 L273.460655,294.641148 C277.65812,307.268234 283.816344,319.003631 291.573566,329.48558 L292.241615,328.945231 C284.547283,318.541701 278.43861,306.89581 274.273962,294.365922 Z M295.384326,333.016271 L294.716917,333.556102 C310.524558,353.182937 332.137754,367.941161 356.937735,375.212027 L357.150885,374.379782 C332.532412,367.15562 311.077532,352.501764 295.384326,333.016271 Z M362.114115,375.724315 L361.901093,376.556062 C371.580617,378.96294 381.704394,380.240493 392.124197,380.240493 C432.150047,380.240493 467.807168,361.39018 490.694846,332.090312 L490.018385,331.561859 C467.287818,360.660896 431.875296,379.382124 392.124197,379.382124 C381.777925,379.382124 371.72552,378.113811 362.114115,375.724315 Z M358.998679,375.796965 C359.274503,375.87268 359.550707,375.947474 359.827287,376.021342 L359.879146,375.818859 L359.569864,375.296611 L359.047616,375.605892 L358.998679,375.796965 Z M510.656912,292.249582 L511.462647,292.549759 C515.150638,280.760933 517.138476,268.22371 517.138476,255.225785 C517.138476,249.741751 516.784596,244.339717 516.098445,239.041292 L515.24622,239.144824 C515.928314,244.409303 516.280107,249.776788 516.280107,255.225785 C516.280107,268.118309 514.310827,280.554456 510.656912,292.249582 Z M509.020539,297.126805 C505.112159,308.016169 499.724376,318.203071 493.10002,327.44468 L493.777075,327.973597 C500.454871,318.663101 505.885924,308.399074 509.825178,297.426574 L509.020539,297.126805 Z M480.556997,168.115186 C497.946037,185.766144 510.09738,208.591106 514.479523,234.058532 L515.332804,233.954873 C510.927033,208.296396 498.689675,185.299795 481.17324,167.517618 L480.556997,168.115186 Z M476.872549,164.525943 L477.489513,163.927678 C455.138495,143.018454 425.115189,130.211506 392.124197,130.211506 C382.646464,130.211506 373.413621,131.268534 364.537229,133.271028 L364.730797,134.107492 C373.544978,132.119329 382.713026,131.069876 392.124197,131.069876 C424.87341,131.069876 454.678176,143.777236 476.872549,164.525943 Z M359.739295,135.343402 L359.545597,134.50638 C329.70673,142.551069 304.270502,161.375867 287.67973,186.53796 L288.417099,186.979172 C304.888865,162.013612 330.130445,143.334175 359.739295,135.343402 Z M362.03272,133.863401 L362.036036,133.865471 L362.03817,133.862052 C362.036353,133.862502 362.034536,133.862951 362.03272,133.863401 Z M514.138476,255.225785 C514.138476,187.885435 459.464748,133.211506 392.124197,133.211506 C324.784818,133.211506 270.109918,187.886406 270.109918,255.225785 C270.109918,322.566445 324.783956,377.240493 392.124197,377.240493 C459.46561,377.240493 514.138476,322.567415 514.138476,255.225785 Z M98.8212516,76.0283782 L98.2706596,75.6989261 L97.6820014,75.8468457 L97.829921,76.435504 L98.380513,76.7649561 L98.8212516,76.0283782 Z M684.636035,480.880102 L685.141667,481.275104 L685.744098,481.201103 L685.670097,480.598672 L685.164465,480.203671 L684.636035,480.880102 Z M349.665517,78.5054728 L349.15062,78.1841002 L348.829248,78.6989967 L348.973907,79.3241079 L349.810176,79.130584 L349.665517,78.5054728 Z M635.486907,222.380178 L635.861201,221.902368 L635.383391,221.528074 L634.746443,221.605453 L634.849959,222.457557 L635.486907,222.380178 Z M646.144692,4.56263128 L646.154029,3.9557445 L645.547143,3.94640681 L645.086515,4.39307476 L645.684064,5.00929922 L646.144692,4.56263128 Z M747.235415,383.588647 L747.787429,383.3363 L747.535081,382.784286 L746.93382,382.560285 L746.634154,383.364647 L747.235415,383.588647 Z M348.356343,417.350049 L348.665625,417.872298 L349.187874,417.563016 L349.347066,416.941447 L348.515536,416.72848 L348.356343,417.350049 Z M125.372496,466.671214 L125.308709,467.274812 L125.912307,467.338598 L126.411176,466.935089 L125.871365,466.267705 L125.372496,466.671214 Z M3.57862833,382.802949 L3.30966428,383.34706 L3.85377557,383.616024 L4.46154938,383.410351 L4.18640215,382.597276 L3.57862833,382.802949 Z M210.754265,228.161004 L210.11787,228.079195 L209.637467,228.450155 L210.008427,228.930558 L210.644821,229.012367 L210.754265,228.161004 Z" transform="translate(122 71.326)"/>
    <path fill="#FFF" d="M15.9738391 59.482284C15.9738391 63.0762245 13.0648614 65.9868935 9.4793772 65.9868935 5.893893 65.9868935 2.98491525 63.0762245 2.98491525 59.482284 2.98491525 55.8967998 5.893893 52.987822 9.4793772 52.987822 13.0648614 52.987822 15.9738391 55.8967998 15.9738391 59.482284M119.169825 59.482284C119.169825 63.0762245 116.267612 65.9868935 112.683819 65.9868935 109.098335 65.9868935 106.189357 63.0762245 106.189357 59.482284 106.189357 55.8967998 109.098335 52.987822 112.683819 52.987822 116.267612 52.987822 119.169825 55.8967998 119.169825 59.482284M67.5777513 85.143865C67.5777513 88.7378055 64.6670823 91.6467832 61.0815981 91.6467832 57.4961139 91.6467832 54.5871362 88.7378055 54.5871362 85.143865 54.5871362 81.5566895 57.4961139 78.6392554 61.0815981 78.6392554 64.6670823 78.6392554 67.5777513 81.5566895 67.5777513 85.143865M41.5999035 72.4881205C41.5999035 76.082061 38.6892345 78.9910388 35.1037503 78.9910388 31.5199574 78.9910388 28.6109797 76.082061 28.6109797 72.4881205 28.6109797 68.9043276 31.5199574 65.9852022 35.1037503 65.9852022 38.6892345 65.9852022 41.5999035 68.9043276 41.5999035 72.4881205M93.2004332 72.4881205C93.2004332 76.082061 90.2914554 78.9910388 86.7059712 78.9910388 83.1221783 78.9910388 80.2115093 76.082061 80.2115093 72.4881205 80.2115093 68.9043276 83.1221783 65.9852022 86.7059712 65.9852022 90.2914554 65.9852022 93.2004332 68.9043276 93.2004332 72.4881205M13.8665215 79.1669305C13.8665215 81.5922061 11.9063441 83.5625311 9.48106846 83.5625311 7.06424916 83.5625311 5.09392412 81.5922061 5.09392412 79.1669305 5.09392412 76.7399636 7.06424916 74.7713298 9.48106846 74.7713298 11.9063441 74.7713298 13.8665215 76.7399636 13.8665215 79.1669305M117.067581 79.1669305C117.067581 81.5922061 115.109095 83.5625311 112.682128 83.5625311 110.258543 83.5625311 108.288218 81.5922061 108.288218 79.1669305 108.288218 76.7399636 110.258543 74.7713298 112.682128 74.7713298 115.109095 74.7713298 117.067581 76.7399636 117.067581 79.1669305M65.4687424 105.178604C65.4687424 107.602188 63.4984174 109.572513 61.0815981 109.572513 58.6580137 109.572513 56.6910712 107.602188 56.6910712 105.178604 56.6910712 102.751637 58.6580137 100.783003 61.0815981 100.783003 63.4984174 100.783003 65.4687424 102.751637 65.4687424 105.178604M39.499351 92.172767C39.499351 94.5980426 37.529026 96.5666764 35.1037503 96.5666764 32.6886223 96.5666764 30.7199885 94.5980426 30.7199885 92.172767 30.7199885 89.7458001 32.6886223 87.7788576 35.1037503 87.7788576 37.529026 87.7788576 39.499351 89.7458001 39.499351 92.172767M91.0914243 92.172767C91.0914243 94.5980426 89.1312469 96.5666764 86.7059712 96.5666764 84.2823869 96.5666764 82.3222094 94.5980426 82.3222094 92.172767 82.3222094 89.7458001 84.2823869 87.7788576 86.7059712 87.7788576 89.1312469 87.7788576 91.0914243 89.7458001 91.0914243 92.172767M11.7642777 94.631868C11.7642777 95.8986263 10.7444443 96.9167685 9.4793772 96.9167685 8.22445773 96.9167685 7.20462425 95.8986263 7.20462425 94.631868 7.20462425 93.3684922 8.22445773 92.3469674 9.4793772 92.3469674 10.7444443 92.3469674 11.7642777 93.3684922 11.7642777 94.631868M114.958572 94.631868C114.958572 95.8986263 113.938738 96.9167685 112.682128 96.9167685 111.415369 96.9167685 110.407375 95.8986263 110.407375 94.631868 110.407375 93.3684922 111.415369 92.3469674 112.682128 92.3469674 113.938738 92.3469674 114.958572 93.3684922 114.958572 94.631868M63.3648074 120.645232C63.3648074 121.901843 62.3399001 122.930133 61.0799068 122.930133 59.8232961 122.930133 58.7966976 121.901843 58.7966976 120.645232 58.7966976 119.380165 59.8232961 118.360332 61.0799068 118.360332 62.3399001 118.360332 63.3648074 119.380165 63.3648074 120.645232M37.3903421 107.639396C37.3903421 108.902772 36.3705087 109.924296 35.1037503 109.924296 33.8488309 109.924296 32.8205411 108.902772 32.8205411 107.639396 32.8205411 106.372637 33.8488309 105.354495 35.1037503 105.354495 36.3705087 105.354495 37.3903421 106.372637 37.3903421 107.639396M88.9925631 107.639396C88.9925631 108.902772 87.9642732 109.924296 86.7059712 109.924296 85.4409042 109.924296 84.422762 108.902772 84.422762 107.639396 84.422762 106.372637 85.4409042 105.354495 86.7059712 105.354495 87.9642732 105.354495 88.9925631 106.372637 88.9925631 107.639396M69.6850689 9.41065892C69.6850689 14.2612102 65.757949 18.1967865 60.9073977 18.1967865 56.0653028 18.1967865 52.1364915 14.2612102 52.1364915 9.41065892 52.1364915 4.56010766 56.0653028.621148838 60.9073977.621148838 65.757949.621148838 69.6850689 4.56010766 69.6850689 9.41065892M69.6850689 35.4138757C69.6850689 40.271192 65.757949 44.198312 60.9073977 44.198312 56.0653028 44.198312 52.1364915 40.271192 52.1364915 35.4138757 52.1364915 30.5633244 56.0653028 26.6362045 60.9073977 26.6362045 65.757949 26.6362045 69.6850689 30.5633244 69.6850689 35.4138757M44.0606958 22.4164955C44.0606958 27.2670467 40.1234282 31.1941667 35.279642 31.1941667 30.4290908 31.1941667 26.5002795 27.2670467 26.5002795 22.4164955 26.5002795 17.5574879 30.4290908 13.6286766 35.279642 13.6286766 40.1234282 13.6286766 44.0606958 17.5574879 44.0606958 22.4164955M95.6527691 22.4164955C95.6527691 27.2670467 91.7324142 31.1941667 86.8801717 31.1941667 82.0296204 31.1941667 78.1025004 27.2670467 78.1025004 22.4164955 78.1025004 17.5574879 82.0296204 13.6286766 86.8801717 13.6286766 91.7324142 13.6286766 95.6527691 17.5574879 95.6527691 22.4164955M69.6850689 61.0720741C69.6850689 65.9226254 65.757949 69.8514366 60.9073977 69.8514366 56.0653028 69.8514366 52.1364915 65.9226254 52.1364915 61.0720741 52.1364915 56.2130665 56.0653028 52.2859466 60.9073977 52.2859466 65.757949 52.2859466 69.6850689 56.2130665 69.6850689 61.0720741M121.278833 35.4138757C121.278833 40.271192 117.350022 44.198312 112.507927 44.198312 107.657376 44.198312 103.730256 40.271192 103.730256 35.4138757 103.730256 30.5633244 107.657376 26.6362045 112.507927 26.6362045 117.350022 26.6362045 121.278833 30.5633244 121.278833 35.4138757M18.082848 35.4138757C18.082848 40.271192 14.155728 44.198312 9.30517678 44.198312 4.46308185 44.198312.535961898 40.271192.535961898 35.4138757.535961898 30.5633244 4.46308185 26.6362045 9.30517678 26.6362045 14.155728 26.6362045 18.082848 30.5633244 18.082848 35.4138757M44.0606958 48.0662376C44.0606958 52.9167889 40.1234282 56.8557477 35.279642 56.8557477 30.4290908 56.8557477 26.5002795 52.9167889 26.5002795 48.0662376 26.5002795 43.2089213 30.4290908 39.2818013 35.279642 39.2818013 40.1234282 39.2818013 44.0606958 43.2089213 44.0606958 48.0662376M95.6527691 48.0662376C95.6527691 52.9167889 91.7324142 56.8557477 86.8801717 56.8557477 82.0296204 56.8557477 78.1025004 52.9167889 78.1025004 48.0662376 78.1025004 43.2089213 82.0296204 39.2818013 86.8801717 39.2818013 91.7324142 39.2818013 95.6527691 43.2089213 95.6527691 48.0662376" transform="translate(453.215 264.764)"/>
    <polygon fill="#8B98A9" fill-rule="nonzero" points="869.363 52.237 873.646 52.237 873.646 99.991 776.572 99.991 776.572 52.117 780.856 52.117 780.856 95.708 869.363 95.708"/>
    <polygon fill="#8B98A9" fill-rule="nonzero" points="860.779 54.181 862.921 54.181 862.921 79.71 787.69 79.71 787.69 54.089 789.831 54.089 789.831 77.568 860.779 77.568"/>
    <path stroke="#FFF" stroke-width="4" d="M777.866043,2.32618026 L764.159605,50.4486266 C764.159605,54.1857725 767.190013,57.2183219 770.927159,57.2183219 C774.666446,57.2183219 777.698996,54.1857725 777.698996,50.4486266 L777.705421,50.4486266 C777.739687,54.1557897 780.752961,57.1562146 784.468691,57.1562146 C788.184421,57.1562146 791.197695,54.1557897 791.231961,50.4486266 L791.246953,50.4486266 C791.281219,54.1557897 794.292352,57.1562146 798.010223,57.1562146 C801.730236,57.1562146 804.739227,54.1557897 804.775635,50.4486266 L804.78206,50.4486266 C804.78206,54.1857725 807.812468,57.2183219 811.551755,57.2183219 C815.291043,57.2183219 818.323592,54.1857725 818.323592,50.4486266 L818.330017,50.4486266 C818.364283,54.1557897 821.375416,57.1562146 825.095429,57.1562146 C828.809017,57.1562146 831.822292,54.1557897 831.856558,50.4486266 L831.869408,50.4486266 C831.905815,54.1557897 834.916948,57.1562146 838.63482,57.1562146 C842.350549,57.1562146 845.365966,54.1557897 845.39809,50.4486266 L845.404515,50.4486266 C845.404515,54.1857725 848.437064,57.2183219 852.17421,57.2183219 C855.913498,57.2183219 858.946047,54.1857725 858.946047,50.4486266 L858.952472,50.4486266 C858.98888,54.1557897 862.000013,57.1562146 865.717884,57.1562146 C869.433614,57.1562146 872.444747,54.1557897 872.481155,50.4486266 L872.494004,50.4486266 C872.52827,54.1557897 875.539403,57.1562146 879.259416,57.1562146 C882.977288,57.1562146 886.577369,53.2477382 886.024828,50.4486266 L872.228442,2.32618026 L777.866043,2.32618026 Z"/>
    <polygon fill="#8B98A9" fill-rule="nonzero" points="869.363 290.442 873.646 290.442 873.646 338.196 776.572 338.196 776.572 290.322 780.856 290.322 780.856 333.913 869.363 333.913"/>
    <polygon fill="#8B98A9" fill-rule="nonzero" points="860.779 292.384 862.921 292.384 862.921 317.913 787.69 317.913 787.69 292.292 789.831 292.292 789.831 315.771 860.779 315.771"/>
    <path stroke="#FFF" stroke-width="4" d="M777.866043,240.529077 L764.159605,288.651524 C764.159605,292.38867 767.190013,295.421219 770.927159,295.421219 C774.666446,295.421219 777.698996,292.38867 777.698996,288.651524 L777.705421,288.651524 C777.739687,292.358687 780.752961,295.359112 784.468691,295.359112 C788.184421,295.359112 791.197695,292.358687 791.231961,288.651524 L791.246953,288.651524 C791.281219,292.358687 794.292352,295.359112 798.010223,295.359112 C801.730236,295.359112 804.739227,292.358687 804.775635,288.651524 L804.78206,288.651524 C804.78206,292.38867 807.812468,295.421219 811.551755,295.421219 C815.291043,295.421219 818.323592,292.38867 818.323592,288.651524 L818.330017,288.651524 C818.364283,292.358687 821.375416,295.359112 825.095429,295.359112 C828.809017,295.359112 831.822292,292.358687 831.856558,288.651524 L831.869408,288.651524 C831.905815,292.358687 834.916948,295.359112 838.63482,295.359112 C842.350549,295.359112 845.365966,292.358687 845.39809,288.651524 L845.404515,288.651524 C845.404515,292.38867 848.437064,295.421219 852.17421,295.421219 C855.913498,295.421219 858.946047,292.38867 858.946047,288.651524 L858.952472,288.651524 C858.98888,292.358687 862.000013,295.359112 865.717884,295.359112 C869.433614,295.359112 872.444747,292.358687 872.481155,288.651524 L872.494004,288.651524 C872.52827,292.358687 875.539403,295.359112 879.259416,295.359112 C882.977288,295.359112 886.577369,291.450635 886.024828,288.651524 L872.228442,240.529077 L777.866043,240.529077 Z"/>
    <polygon fill="#8B98A9" fill-rule="nonzero" points="504.845 95.241 509.128 95.241 509.128 142.995 412.052 142.995 412.052 95.121 416.335 95.121 416.335 138.712 504.845 138.712"/>
    <polygon fill="#8B98A9" fill-rule="nonzero" points="496.261 97.185 498.402 97.185 498.402 122.714 423.171 122.714 423.171 97.093 425.313 97.093 425.313 120.572 496.261 120.572"/>
    <path stroke="#FFF" stroke-width="4" d="M413.345472,45.3301288 L399.639034,93.4525751 C399.639034,97.189721 402.669442,100.22227 406.406588,100.22227 C410.145876,100.22227 413.178425,97.189721 413.178425,93.4525751 L413.18485,93.4525751 C413.219116,97.1597382 416.232391,100.160163 419.94812,100.160163 C423.66385,100.160163 426.677124,97.1597382 426.711391,93.4525751 L426.726382,93.4525751 C426.760648,97.1597382 429.771781,100.160163 433.489652,100.160163 C437.209665,100.160163 440.218657,97.1597382 440.255064,93.4525751 L440.261489,93.4525751 C440.261489,97.189721 443.291897,100.22227 447.031185,100.22227 C450.770472,100.22227 453.803021,97.189721 453.803021,93.4525751 L453.809446,93.4525751 C453.843712,97.1597382 456.854845,100.160163 460.574858,100.160163 C464.288446,100.160163 467.301721,97.1597382 467.335987,93.4525751 L467.348837,93.4525751 C467.385245,97.1597382 470.396378,100.160163 474.114249,100.160163 C477.829979,100.160163 480.845395,97.1597382 480.877519,93.4525751 L480.883944,93.4525751 C480.883944,97.189721 483.916494,100.22227 487.653639,100.22227 C491.395069,100.22227 494.427618,97.189721 494.427618,93.4525751 L494.434043,93.4525751 C494.468309,97.1597382 497.481584,100.160163 501.199455,100.160163 C504.913043,100.160163 507.926318,97.1597382 507.960584,93.4525751 L507.973433,93.4525751 C508.009841,97.1597382 511.020974,100.160163 514.738845,100.160163 C518.458858,100.160163 522.056798,96.2516867 521.504258,93.4525751 L507.707871,45.3301288 L413.345472,45.3301288 Z"/>
    <polygon fill="#8B98A9" fill-rule="nonzero" points="208.94 95.241 213.223 95.241 213.223 142.995 116.15 142.995 116.15 95.121 120.433 95.121 120.433 138.712 208.94 138.712"/>
    <polygon fill="#8B98A9" fill-rule="nonzero" points="200.355 97.185 202.497 97.185 202.497 122.714 127.266 122.714 127.266 97.093 129.407 97.093 129.407 120.572 200.355 120.572"/>
    <path stroke="#FFF" stroke-width="4" d="M117.442327,45.3301288 L103.735889,93.4525751 C103.735889,97.189721 106.766297,100.22227 110.503443,100.22227 C114.24273,100.22227 117.27528,97.189721 117.27528,93.4525751 L117.281705,93.4525751 C117.315971,97.1597382 120.329245,100.160163 124.044975,100.160163 C127.760705,100.160163 130.773979,97.1597382 130.808245,93.4525751 L130.823237,93.4525751 C130.857503,97.1597382 133.868636,100.160163 137.586507,100.160163 C141.30652,100.160163 144.315512,97.1597382 144.351919,93.4525751 L144.358344,93.4525751 C144.358344,97.189721 147.388752,100.22227 151.128039,100.22227 C154.867327,100.22227 157.899876,97.189721 157.899876,93.4525751 L157.906301,93.4525751 C157.940567,97.1597382 160.9517,100.160163 164.671713,100.160163 C168.385301,100.160163 171.398576,97.1597382 171.432842,93.4525751 L171.445692,93.4525751 C171.4821,97.1597382 174.493233,100.160163 178.211104,100.160163 C181.926833,100.160163 184.94225,97.1597382 184.974374,93.4525751 L184.980799,93.4525751 C184.980799,97.189721 188.013348,100.22227 191.750494,100.22227 C195.489782,100.22227 198.522331,97.189721 198.522331,93.4525751 L198.528756,93.4525751 C198.565164,97.1597382 201.576297,100.160163 205.294168,100.160163 C209.010326,100.160163 212.021459,97.1597382 212.057867,93.4525751 L212.070717,93.4525751 C212.104983,97.1597382 215.116116,100.160163 218.836129,100.160163 C222.554,100.160163 226.154082,96.2516867 225.601541,93.4525751 L211.805155,45.3301288 L117.442327,45.3301288 Z"/>
    <polygon fill="#8B98A9" fill-rule="nonzero" points="310.721 290.44 315.004 290.44 315.004 338.194 217.93 338.194 217.93 290.32 222.213 290.32 222.213 333.911 310.721 333.911"/>
    <polygon fill="#8B98A9" fill-rule="nonzero" points="302.135 292.382 304.276 292.382 304.276 317.91 229.045 317.91 229.045 292.29 231.187 292.29 231.187 315.769 302.135 315.769"/>
    <path stroke="#FFF" stroke-width="4" d="M219.223764,240.526936 L205.516684,288.649382 C205.516684,292.386528 208.547734,295.419077 212.28488,295.419077 C216.024167,295.419077 219.056717,292.386528 219.056717,288.649382 L219.063142,288.649382 C219.097408,292.356545 222.110682,295.35697 225.826412,295.35697 C229.542142,295.35697 232.555416,292.356545 232.589682,288.649382 L232.604674,288.649382 C232.63894,292.356545 235.650073,295.35697 239.367944,295.35697 C243.087957,295.35697 246.096948,292.356545 246.133356,288.649382 L246.139781,288.649382 C246.139781,292.386528 249.170189,295.419077 252.909476,295.419077 C256.648764,295.419077 259.681313,292.386528 259.681313,288.649382 L259.687738,288.649382 C259.722004,292.356545 262.733137,295.35697 266.45315,295.35697 C270.166738,295.35697 273.180013,292.356545 273.214279,288.649382 L273.227129,288.649382 C273.263536,292.356545 276.27467,295.35697 279.992541,295.35697 C283.70827,295.35697 286.723687,292.356545 286.755811,288.649382 L286.762236,288.649382 C286.762236,292.386528 289.794785,295.419077 293.531931,295.419077 C297.271219,295.419077 300.303768,292.386528 300.303768,288.649382 L300.310193,288.649382 C300.346601,292.356545 303.357734,295.35697 307.075605,295.35697 C310.791335,295.35697 313.802468,292.356545 313.838876,288.649382 L313.851725,288.649382 C313.885991,292.356545 316.897124,295.35697 320.617137,295.35697 C324.335009,295.35697 327.93509,291.448494 327.382549,288.649382 L313.586163,240.526936 L219.223764,240.526936 Z"/>
    <polygon fill="#8B98A9" fill-rule="nonzero" points="105.747 465.386 110.03 465.386 110.03 513.14 12.957 513.14 12.957 465.266 17.24 465.266 17.24 508.857 105.747 508.857"/>
    <polygon fill="#8B98A9" fill-rule="nonzero" points="97.162 467.329 99.303 467.329 99.303 492.857 24.072 492.857 24.072 467.237 26.214 467.237 26.214 490.716 97.162 490.716"/>
    <path stroke="#FFF" stroke-width="4" d="M14.2486987,415.474622 L0.542260944,463.596426 C0.542260944,467.333572 3.57266867,470.366121 7.30981459,470.366121 C11.0491021,470.366121 14.0816515,467.333572 14.0816515,463.596426 L14.0880764,463.596426 C14.1223425,467.303589 17.1356172,470.304014 20.8513468,470.304014 C24.5670764,470.304014 27.5803511,467.303589 27.6146172,463.596426 L27.6296086,463.596426 C27.6638747,467.303589 30.6750077,470.304014 34.392879,470.304014 C38.1128918,470.304014 41.1218833,467.303589 41.158291,463.596426 L41.1647159,463.596426 C41.1647159,467.333572 44.1951236,470.366121 47.9344112,470.366121 C51.6736987,470.366121 54.7062481,467.333572 54.7062481,463.596426 L54.712673,463.596426 C54.7469391,467.303589 57.7580721,470.304014 61.478085,470.304014 C65.191673,470.304014 68.2049476,467.303589 68.2392137,463.596426 L68.2520635,463.596426 C68.2884712,467.303589 71.2996043,470.304014 75.0174755,470.304014 C78.7332052,470.304014 81.7486215,467.303589 81.7807459,463.596426 L81.7871708,463.596426 C81.7871708,467.333572 84.8197202,470.366121 88.5568661,470.366121 C92.2961536,470.366121 95.328703,467.333572 95.328703,463.596426 L95.3351279,463.596426 C95.3715356,467.303589 98.3826687,470.304014 102.10054,470.304014 C105.81627,470.304014 108.827403,467.303589 108.86381,463.596426 L108.87666,463.596426 C108.910926,467.303589 111.922059,470.304014 115.642072,470.304014 C119.359943,470.304014 122.960025,466.395538 122.407484,463.596426 L108.611098,415.474622 L14.2486987,415.474622 Z"/>
    <polygon fill="#8B98A9" fill-rule="nonzero" points="504.84 544.415 509.123 544.415 509.123 592.169 412.05 592.169 412.05 544.295 416.333 544.295 416.333 587.886 504.84 587.886"/>
    <polygon fill="#8B98A9" fill-rule="nonzero" points="496.259 546.358 498.4 546.358 498.4 571.886 423.167 571.886 423.167 546.266 425.309 546.266 425.309 569.745 496.259 569.745"/>
    <path stroke="#FFF" stroke-width="4" d="M413.34333,494.503158 L399.636893,542.625605 C399.636893,546.362751 402.6673,549.3953 406.404446,549.3953 C410.143734,549.3953 413.176283,546.362751 413.176283,542.625605 L413.182708,542.625605 C413.216974,546.332768 416.230249,549.333193 419.945979,549.333193 C423.661708,549.333193 426.674983,546.332768 426.709249,542.625605 L426.72424,542.625605 C426.758506,546.332768 429.769639,549.333193 433.487511,549.333193 C437.207524,549.333193 440.216515,546.332768 440.252923,542.625605 L440.259348,542.625605 C440.259348,546.362751 443.289755,549.3953 447.029043,549.3953 C450.76833,549.3953 453.80088,546.362751 453.80088,542.625605 L453.807305,542.625605 C453.841571,546.332768 456.852704,549.333193 460.572717,549.333193 C464.286305,549.333193 467.299579,546.332768 467.333845,542.625605 L467.346695,542.625605 C467.383103,546.332768 470.394236,549.333193 474.112107,549.333193 C477.827837,549.333193 480.843253,546.332768 480.875378,542.625605 L480.881803,542.625605 C480.881803,546.362751 483.914352,549.3953 487.651498,549.3953 C491.390785,549.3953 494.423335,546.362751 494.423335,542.625605 L494.42976,542.625605 C494.466167,546.332768 497.479442,549.333193 501.197313,549.333193 C504.910901,549.333193 507.922034,546.332768 507.958442,542.625605 L507.971292,542.625605 C508.005558,546.332768 511.016691,549.333193 514.736704,549.333193 C518.454575,549.333193 522.054657,545.424716 521.502116,542.625605 L507.70573,494.503158 L413.34333,494.503158 Z"/>
    <polygon fill="#8B98A9" fill-rule="nonzero" points="240.098 593.279 244.382 593.279 244.382 641.034 147.308 641.034 147.308 593.16 151.592 593.16 151.592 636.75 240.098 636.75"/>
    <polygon fill="#8B98A9" fill-rule="nonzero" points="231.512 595.223 233.654 595.223 233.654 620.751 158.424 620.751 158.424 595.13 160.566 595.13 160.566 618.609 231.512 618.609"/>
    <path stroke="#FFF" stroke-width="4" d="M148.600487,543.367466 L134.894049,591.489912 C134.894049,595.227058 137.924457,598.259607 141.661603,598.259607 C145.40089,598.259607 148.433439,595.227058 148.433439,591.489912 L148.439864,591.489912 C148.47413,595.197075 151.487405,598.1975 155.203135,598.1975 C158.918864,598.1975 161.932139,595.197075 161.966405,591.489912 L161.981397,591.489912 C162.015663,595.197075 165.026796,598.1975 168.744667,598.1975 C172.46468,598.1975 175.473671,595.197075 175.510079,591.489912 L175.516504,591.489912 C175.516504,595.227058 178.546912,598.259607 182.286199,598.259607 C186.025487,598.259607 189.058036,595.227058 189.058036,591.489912 L189.064461,591.489912 C189.098727,595.197075 192.10986,598.1975 195.829873,598.1975 C199.543461,598.1975 202.556736,595.197075 202.591002,591.489912 L202.603852,591.489912 C202.640259,595.197075 205.651392,598.1975 209.37012,598.1975 C213.08585,598.1975 216.101266,595.197075 216.133391,591.489912 L216.139815,591.489912 C216.139815,595.227058 219.172365,598.259607 222.909511,598.259607 C226.648798,598.259607 229.681348,595.227058 229.681348,591.489912 L229.687773,591.489912 C229.72418,595.197075 232.735313,598.1975 236.453185,598.1975 C240.168914,598.1975 243.180047,595.197075 243.216455,591.489912 L243.229305,591.489912 C243.263571,595.197075 246.274704,598.1975 249.994717,598.1975 C253.712588,598.1975 257.31267,594.289024 256.760129,591.489912 L242.963742,543.367466 L148.600487,543.367466 Z"/>
    <polygon fill="#8B98A9" fill-rule="nonzero" points="979.248 446.969 983.531 446.969 983.531 494.723 886.457 494.723 886.457 446.849 890.741 446.849 890.741 490.44 979.248 490.44"/>
    <polygon fill="#8B98A9" fill-rule="nonzero" points="970.662 448.912 972.804 448.912 972.804 474.44 897.573 474.44 897.573 448.82 899.714 448.82 899.714 472.299 970.662 472.299"/>
    <path stroke="#FFF" stroke-width="4" d="M887.748841,397.056597 L874.042403,445.179043 C874.042403,448.916403 877.072811,451.948952 880.809957,451.948952 C884.549245,451.948952 887.581794,448.916403 887.581794,445.179043 L887.588219,445.179043 C887.622485,448.88642 890.63576,451.886845 894.351489,451.886845 C898.067219,451.886845 901.080494,448.88642 901.11476,445.179043 L901.129751,445.179043 C901.164017,448.88642 904.17515,451.886845 907.893021,451.886845 C911.613034,451.886845 914.622026,448.88642 914.658433,445.179043 L914.664858,445.179043 C914.664858,448.916403 917.695266,451.948952 921.434554,451.948952 C925.173841,451.948952 928.206391,448.916403 928.206391,445.179043 L928.212815,445.179043 C928.247082,448.88642 931.258215,451.886845 934.978227,451.886845 C938.691815,451.886845 941.70509,448.88642 941.739356,445.179043 L941.752206,445.179043 C941.788614,448.88642 944.799747,451.886845 948.517618,451.886845 C952.233348,451.886845 955.248764,448.88642 955.280888,445.179043 L955.287313,445.179043 C955.287313,448.916403 958.319863,451.948952 962.057009,451.948952 C965.796296,451.948952 968.828845,448.916403 968.828845,445.179043 L968.83527,445.179043 C968.871678,448.88642 971.882811,451.886845 975.600682,451.886845 C979.316412,451.886845 982.327545,448.88642 982.363953,445.179043 L982.376803,445.179043 C982.411069,448.88642 985.422202,451.886845 989.142215,451.886845 C992.860086,451.886845 996.460167,447.978369 995.907627,445.179043 L982.11124,397.056597 L887.748841,397.056597 Z"/>
    <polygon fill="#8B98A9" fill-rule="nonzero" points="909.131 593.282 913.414 593.282 913.414 641.034 816.34 641.034 816.34 593.16 820.624 593.16 820.624 636.75 909.131 636.75"/>
    <polygon fill="#8B98A9" fill-rule="nonzero" points="900.545 595.223 902.687 595.223 902.687 620.751 827.456 620.751 827.456 595.13 829.597 595.13 829.597 618.609 900.545 618.609"/>
    <path stroke="#FFF" stroke-width="4" d="M817.631845,543.367466 L803.925408,591.492054 C803.925408,595.227058 806.955815,598.259607 810.692961,598.259607 C814.432249,598.259607 817.464798,595.227058 817.464798,591.492054 L817.471223,591.492054 C817.505489,595.197075 820.518764,598.1975 824.234494,598.1975 C827.950223,598.1975 830.963498,595.197075 830.997764,591.492054 L831.012755,591.492054 C831.047021,595.197075 834.058155,598.1975 837.776026,598.1975 C841.496039,598.1975 844.50503,595.197075 844.541438,591.492054 L844.547863,591.492054 C844.547863,595.227058 847.57827,598.259607 851.317558,598.259607 C855.056845,598.259607 858.089395,595.227058 858.089395,591.492054 L858.09582,591.492054 C858.130086,595.197075 861.141219,598.1975 864.861232,598.1975 C868.57482,598.1975 871.588094,595.197075 871.622361,591.492054 L871.63521,591.492054 C871.671618,595.197075 874.682751,598.1975 878.400622,598.1975 C882.116352,598.1975 885.131768,595.197075 885.163893,591.492054 L885.170318,591.492054 C885.170318,595.227058 888.202867,598.259607 891.940013,598.259607 C895.6793,598.259607 898.71185,595.227058 898.71185,591.492054 L898.718275,591.492054 C898.754682,595.197075 901.765815,598.1975 905.483687,598.1975 C909.199416,598.1975 912.210549,595.197075 912.246957,591.492054 L912.259807,591.492054 C912.294073,595.197075 915.305206,598.1975 919.025219,598.1975 C922.74309,598.1975 926.343172,594.289024 925.790631,591.492054 L911.994245,543.367466 L817.631845,543.367466 Z"/>
    <path fill="#F6388A" fill-rule="nonzero" d="M531.295455,563.63915 C531.714602,563.722526 531.853112,563.625968 531.941439,563.184997 C532.05517,562.551823 531.978597,562.432393 531.592345,562.355864 C531.170595,562.272054 531.032345,562.367614 530.923592,562.91524 C530.828483,563.396067 530.934027,563.566082 531.241283,563.628744 L531.295455,563.63915 Z M529.912747,570.501512 L529.888145,570.496734 C525.708885,569.66963 523.224949,565.761603 524.057154,561.554346 C524.910222,557.258678 528.69429,554.643095 532.954754,555.489727 C537.173626,556.325615 539.604528,560.117061 538.819066,564.48654 C537.976245,568.723947 534.202668,571.3546 529.957721,570.510078 L529.912747,570.501512 Z M557.718897,568.884432 C558.138044,568.967809 558.276554,568.87125 558.364881,568.430279 C558.478704,567.796595 558.401238,567.675735 558.018812,567.599604 C557.595497,567.515872 557.455881,567.612419 557.347034,568.160522 C557.252077,568.640582 557.357275,568.810694 557.666768,568.874418 L557.718897,568.884432 Z M556.336189,575.746794 L556.308444,575.741393 C552.131198,574.910713 549.648573,571.005966 550.480596,566.799629 C551.333425,562.505161 555.115567,559.88971 559.381283,560.73348 C563.598331,561.572949 566.027791,565.363335 565.242508,569.731822 C564.399687,573.969229 560.62611,576.599883 556.381163,575.755361 L556.336189,575.746794 Z M584.141748,574.129811 C584.56251,574.213434 584.699809,574.117689 584.788842,573.672895 C584.902936,573.040738 584.826527,572.921527 584.438628,572.844381 C584.018502,572.760818 583.879044,572.857183 583.770476,573.403877 C583.675621,573.883422 583.782483,574.056356 584.090588,574.119986 L584.141748,574.129811 Z M582.759631,580.992291 L582.731261,580.986765 C578.555977,580.155685 576.072167,576.248553 576.904039,572.042984 C577.757049,567.7476 581.543255,565.13137 585.804111,565.978855 C590.024206,566.818145 592.454712,570.610163 591.66595,574.977319 C590.82307,579.215022 587.051628,581.845028 582.804605,581.000857 L582.759631,580.992291 Z M610.56519,579.375094 C610.984779,579.458483 611.123019,579.361993 611.212284,578.916035 C611.326286,578.284388 611.250771,578.166607 610.86207,578.089664 C610.441944,578.006101 610.302486,578.102465 610.193918,578.649159 C610.099063,579.128705 610.205925,579.301638 610.51403,579.365269 L610.56519,579.375094 Z M609.183073,586.237573 L609.154703,586.232048 C604.979419,585.400967 602.495609,581.493836 603.327481,577.288266 C604.180491,572.992882 607.966697,570.376653 612.224469,571.223525 C616.446385,572.059236 618.878333,575.852312 618.089392,580.22046 C617.246532,584.458066 613.475276,587.090351 609.228048,586.246139 L609.183073,586.237573 Z M636.991601,584.618826 C637.409683,584.702292 637.546556,584.6068 637.635726,584.161318 C637.749728,583.52967 637.674213,583.411889 637.285512,583.334946 C636.865386,583.251383 636.725928,583.347748 636.61736,583.894442 C636.522454,584.374242 636.628906,584.545484 636.935844,584.608103 L636.991601,584.618826 Z M635.606515,591.480714 L635.58129,591.475813 C631.404133,590.648338 628.918854,586.740115 629.750923,582.533548 C630.603933,578.238165 634.390139,575.621935 638.647911,576.468808 C642.869827,577.304518 645.301775,581.097595 644.512834,585.465742 C643.669738,589.704534 639.896614,592.336917 635.65149,591.48928 L635.606515,591.480714 Z M663.412074,589.863517 C663.832836,589.947139 663.970135,589.851394 664.059168,589.4066 C664.173262,588.774443 664.096854,588.655232 663.708954,588.578087 C663.290016,588.49476 663.149599,588.591876 663.040802,589.139724 C662.945943,589.619289 663.052244,589.790599 663.358835,589.853293 L663.412074,589.863517 Z M662.029957,596.725996 L662.004733,596.721095 C657.827575,595.89362 655.342296,591.985397 656.174365,587.778831 C657.027352,583.483566 660.813404,580.86504 665.074437,581.71256 C669.294532,582.551851 671.725038,586.343868 670.936276,590.711025 C670.093396,594.948728 666.321954,597.578733 662.074932,596.734563 L662.029957,596.725996 Z M689.835516,595.109013 C690.256278,595.192636 690.393577,595.096891 690.481999,594.655495 C690.59601,594.020214 690.519323,593.900607 690.132998,593.823703 C689.711247,593.739894 689.572997,593.835454 689.464244,594.383079 C689.369149,594.863839 689.475226,595.035496 689.783921,595.099105 L689.835516,595.109013 Z M688.453399,601.971493 L688.425654,601.966092 C684.248268,601.135384 681.765798,597.228447 682.597807,593.022186 C683.450874,588.726518 687.234943,586.110935 691.498493,586.958179 C695.715792,587.797698 698.144695,591.586025 697.359718,595.956521 C696.516838,600.194225 692.745396,602.82423 688.498374,601.980059 L688.453399,601.971493 Z M716.905534,599.898119 C717.019219,599.265197 716.942691,599.145875 716.55644,599.068986 C716.134689,598.985176 715.996439,599.080736 715.887686,599.628362 C715.791976,600.112228 715.899464,600.281341 716.211228,600.343041 L716.2906,600.360337 C716.685586,600.432524 716.819057,600.329865 716.905534,599.898119 Z M709.021249,598.267468 C709.874316,593.9718 713.658385,591.356217 717.921935,592.203462 C722.138861,593.042906 724.568453,596.831121 723.78316,601.199662 C722.9403,605.437268 719.169045,608.069553 714.894458,607.220018 L714.795886,607.198496 C710.650677,606.347551 708.19279,602.45578 709.021249,598.267468 Z M742.636812,605.588323 L742.68537,605.598028 C743.103452,605.681494 743.240324,605.586002 743.328976,605.143401 C743.442911,604.509088 743.367194,604.390936 742.97928,604.314148 C742.559976,604.230749 742.421996,604.326152 742.31327,604.873644 C742.21756,605.357511 742.325047,605.526623 742.636812,605.588323 Z M735.446832,603.512751 C736.299827,599.217449 740.083785,596.601113 744.341679,597.44801 C748.562627,598.283529 750.992193,602.074746 750.206602,606.444944 C749.363506,610.683736 745.590383,613.316119 741.313744,612.46233 L741.273883,612.454358 C737.097002,611.625578 734.614888,607.718685 735.446832,603.512751 Z M769.105843,610.842719 C769.526604,610.926341 769.663903,610.830596 769.752418,610.388683 C769.866231,609.75505 769.788943,609.634527 769.403608,609.55789 C768.982737,609.474564 768.843391,609.570957 768.73457,610.118926 C768.639622,610.598943 768.744793,610.769068 769.054222,610.832806 L769.105843,610.842719 Z M767.723726,617.705198 L767.695981,617.699797 C763.518734,616.869117 761.036109,612.964371 761.868133,608.758033 C762.720889,604.463932 766.502918,601.847729 770.766064,602.691763 C774.984997,603.530822 777.415472,607.320937 776.630044,611.690227 C775.787164,615.92793 772.015722,618.557935 767.7687,617.713765 L767.723726,617.705198 Z M795.529285,616.088215 C795.950046,616.171838 796.087345,616.076093 796.176379,615.631299 C796.290687,614.997953 796.214956,614.879682 795.828907,614.802905 C795.406336,614.718933 795.266607,614.815454 795.158012,615.362281 C795.063157,615.841827 795.17002,616.01476 795.478124,616.078391 L795.529285,616.088215 Z M794.147168,622.950695 L794.118797,622.945169 C789.943514,622.114089 787.459703,618.206958 788.291575,614.001388 C789.144659,609.705638 792.930975,607.090161 797.193789,607.937259 C801.414075,608.776588 803.842233,612.568651 803.053486,616.935723 C802.210607,621.173427 798.439164,623.803432 794.192142,622.959261 L794.147168,622.950695 Z M82.5059388,395.15654 C82.8673235,394.928554 82.9003998,394.766935 82.656354,394.380697 C82.3037386,393.844132 82.1702653,393.811336 81.8356139,394.023076 C81.4740244,394.251569 81.4391335,394.418246 81.737704,394.890539 C81.995961,395.298975 82.1902586,395.352476 82.4518168,395.191979 L82.5059388,395.15654 Z M86.2763056,401.054579 L86.2062917,401.100059 C82.6080344,403.376832 78.1119194,402.254327 75.8210458,398.631281 C73.4815705,394.930588 74.4245888,390.425723 78.0945418,388.106626 C81.7314664,385.805473 86.1031505,386.879659 88.5381035,390.585758 C90.8527092,394.240194 89.9298311,398.74963 86.314855,401.02888 L86.2763056,401.054579 Z M105.274151,380.759235 C105.634888,380.531421 105.668259,380.368402 105.423699,379.98121 C105.072942,379.446102 104.939614,379.413314 104.606046,379.624368 C104.242134,379.854473 104.207367,380.020511 104.503748,380.49011 C104.76381,380.900711 104.958275,380.954682 105.221852,380.793496 L105.274151,380.759235 Z M109.045911,386.656395 L108.97442,386.702808 C105.375088,388.977746 100.883354,387.856334 98.5871408,384.23093 C96.2511767,380.529792 97.1935082,376.029409 100.864147,373.708441 C104.502451,371.406416 108.878182,372.482493 111.30823,376.190538 C113.619867,379.842535 112.697036,384.350532 109.084461,386.630695 L109.045911,386.656395 Z M128.002415,366.390521 L128.048777,366.36169 L128.042729,366.365847 C128.406046,366.136264 128.439229,365.974122 128.19309,365.585167 C127.842873,365.050881 127.70859,365.017895 127.379103,365.226005 C127.013085,365.458076 126.97821,365.624628 127.277598,366.09773 C127.539121,366.511772 127.733984,366.560369 128.002415,366.390521 Z M121.360909,369.838424 C119.020727,366.140406 119.963152,361.639578 123.635829,359.310951 C127.274026,357.012935 131.648225,358.087445 134.0762,361.792251 C136.391884,365.444504 135.469089,369.953534 131.737476,372.311104 L131.718953,372.322424 C128.124397,374.57758 123.643843,373.452752 121.360909,369.838424 Z M150.965987,351.191203 C150.613932,350.654946 150.478316,350.621641 150.14625,350.831384 C149.782566,351.061588 149.747414,351.229252 150.043429,351.697302 C150.307827,352.115192 150.503457,352.164086 150.773284,351.993544 L150.840391,351.952931 C151.176458,351.732309 151.202186,351.565236 150.965987,351.191203 Z M144.127655,355.439443 C141.7895,351.742425 142.733689,347.238907 146.40522,344.914908 C150.042913,342.61721 154.415854,343.69112 156.849155,347.398453 C159.159935,351.049097 158.23653,355.555214 154.556396,357.885582 L154.465427,357.940687 C150.873272,360.176284 146.410432,359.047455 144.127655,355.439443 Z M173.54289,337.595359 L173.587774,337.567462 L173.583933,337.570226 C173.945318,337.342241 173.978394,337.180621 173.734348,336.794384 C173.381507,336.257475 173.246601,336.22429 172.915856,336.433199 C172.552289,336.663329 172.517288,336.830529 172.815698,337.302084 C173.078114,337.717097 173.273198,337.765816 173.54289,337.595359 Z M166.899906,341.044196 C164.559405,337.345673 165.50231,332.841346 169.174826,330.516723 C172.811833,328.219459 177.181854,329.294425 179.616098,332.999445 C181.930703,336.653881 181.007825,341.163316 177.276473,343.516877 L177.257312,343.528586 C173.66175,345.782505 169.184438,344.657213 166.899906,341.044196 Z M196.35193,323.175063 C196.712898,322.947104 196.746443,322.78319 196.502374,322.396261 C196.152149,321.862508 196.016825,321.829275 195.681579,322.041617 C195.319245,322.270337 195.284504,322.436089 195.581528,322.905938 C195.84159,323.31654 196.036055,323.37051 196.299632,323.209324 L196.35193,323.175063 Z M200.123691,329.072223 L200.0522,329.118637 C196.452867,331.393574 191.961133,330.272162 189.66629,326.648925 C187.326219,322.94729 188.270573,318.441786 191.940478,316.125187 C195.576238,313.822277 199.954359,314.897458 202.386909,318.605646 C204.697138,322.259302 203.774736,326.766411 200.16224,329.046524 L200.123691,329.072223 Z M244.524007,93.8068132 C244.951293,93.8049755 245.064988,93.6854419 245.062701,93.2285692 C245.048002,92.5866788 244.952189,92.4881359 244.556184,92.4903631 C244.128455,92.4925236 244.010541,92.6153836 244.013466,93.1741292 C244.016042,93.6573585 244.152465,93.805692 244.459329,93.808187 L244.524007,93.8068132 Z M244.595975,100.806625 L244.512499,100.808092 C240.254498,100.832119 237.036413,97.4976026 237.013564,93.2111077 C236.990645,88.8330086 240.177585,85.5123904 244.518816,85.4904631 C248.822528,85.4662514 251.960695,88.6938517 252.061718,93.1271308 C252.088059,97.4528226 248.915777,100.78799 244.642285,100.805258 L244.595975,100.806625 Z M271.461955,93.6625203 C271.888601,93.6604845 272.003288,93.5399209 272.00107,93.0819664 C271.987175,92.4422965 271.891481,92.3438372 271.496758,92.3460577 C271.066206,92.3483528 270.948735,92.4707382 270.951231,93.0260381 C270.954191,93.5120597 271.090507,93.6608805 271.399448,93.663861 L271.461955,93.6625203 Z M271.535571,100.662324 L271.450347,100.663801 C267.192407,100.685701 263.977458,97.3544338 263.951331,93.0631091 C263.931626,88.6864938 267.115608,85.3693122 271.458412,85.3461628 C275.763756,85.3219418 278.904352,88.5532909 279.000185,92.9856211 C279.025301,97.3076707 275.853821,100.641643 271.581881,100.660958 L271.535571,100.662324 Z M298.350875,93.5213049 L298.40547,93.5214227 C298.827909,93.5195748 298.941972,93.3996547 298.939349,92.9393687 C298.925476,92.3006814 298.829078,92.2015487 298.439376,92.2034342 C298.005996,92.2062816 297.888162,92.3290451 297.89135,92.88891 C297.893726,93.3786237 298.033226,93.5230974 298.350875,93.5213049 Z M290.891448,92.9258305 C290.866513,88.5496258 294.050809,85.2321167 298.3994,85.203551 C302.70253,85.1826735 305.842657,88.4118826 305.938448,92.8403665 C305.96686,97.1647785 302.794864,100.499645 298.380955,100.521526 L298.359248,100.521309 C294.115841,100.528965 290.912184,97.2007251 290.891448,92.9258305 Z M325.8795,92.8003921 C325.865113,92.1590591 325.767753,92.0589491 325.374999,92.060853 C324.944587,92.0633541 324.825928,92.1869134 324.828935,92.7407067 C324.831709,93.2352067 324.971702,93.3803397 325.290903,93.3786979 L325.369334,93.3798182 C325.771246,93.3708082 325.8816,93.2427554 325.8795,92.8003921 Z M317.829041,92.7793395 C317.805294,88.405057 320.992513,85.0862013 325.33768,85.0609533 C329.640212,85.0400787 332.779591,88.2681114 332.878561,92.7015607 C332.903667,97.0220093 329.732696,100.354084 325.376859,100.380173 L325.270511,100.378699 C321.039505,100.371041 317.85299,97.0487946 317.829041,92.7793395 Z M352.230499,93.2343975 L352.283346,93.2345247 C352.705909,93.2329957 352.819605,93.1134621 352.817317,92.6565894 C352.802609,92.0142875 352.705788,91.9146563 352.314595,91.9165527 C351.884322,91.919053 351.766038,92.0422988 351.769217,92.6003332 C351.771835,93.0913439 351.911459,93.2360385 352.230499,93.2343975 Z M344.769324,92.6389325 C344.744385,88.2621298 347.930944,84.9419077 352.277276,84.916653 C356.578997,84.8957823 359.71534,88.1231635 359.816335,92.555151 C359.842675,96.8808428 356.670394,100.21601 352.258831,100.234628 L352.236376,100.234404 C347.992771,100.240478 344.79211,96.9135616 344.769324,92.6389325 Z M379.215255,93.0922432 C379.642172,93.0902061 379.757482,92.9689761 379.75554,92.5115046 C379.741379,91.8732649 379.644229,91.773371 379.247399,91.7757938 C378.81892,91.7777523 378.701622,91.8999078 378.704531,92.4557611 C378.70749,92.9417826 378.843806,93.0906034 379.152748,93.0935839 L379.215255,93.0922432 Z M379.28887,100.092047 L379.203647,100.093523 C374.945707,100.115424 371.730758,96.7841567 371.704643,92.4953953 C371.681719,88.1161822 374.87013,84.7957291 379.209997,84.7758958 C383.513652,84.7495758 386.65675,87.9814327 386.754629,92.4152092 C386.777672,96.7379197 383.607026,100.071367 379.335181,100.090681 L379.28887,100.092047 Z M264.386226,609.629842 L264.440271,609.610427 C264.835513,609.465623 264.9025,609.312761 264.745735,608.885665 C264.512693,608.286104 264.390946,608.226965 264.012907,608.366725 C263.61477,608.512404 263.546568,608.666056 263.739287,609.191437 C263.907934,609.649945 264.089755,609.739099 264.386226,609.629842 Z M257.168538,611.604992 C255.660079,607.492736 257.527378,603.285907 261.596409,601.797068 C265.635115,600.303732 269.684835,602.270875 271.292175,606.407709 C272.787312,610.465938 270.940093,614.681265 266.795557,616.202444 L266.776021,616.209281 C262.78972,617.660063 258.645089,615.61937 257.168538,611.604992 Z M289.720039,600.312431 C290.119125,600.166012 290.186772,600.011831 290.030966,599.586687 C289.79917,598.988926 289.674132,598.928133 289.303672,599.06439 C288.900073,599.212698 288.831564,599.366999 289.022737,599.889013 C289.18923,600.34092 289.365277,600.436652 289.648517,600.339849 L289.720039,600.312431 Z M292.094822,606.898817 C288.096858,608.374683 283.936641,606.33235 282.452012,602.302626 C280.94689,598.19292 282.81201,593.992198 286.888286,592.494313 C290.926736,591.008952 294.976038,592.977693 296.579055,597.113067 C298.064227,601.150879 296.237636,605.346503 292.18465,606.864247 L292.094822,606.898817 Z M315.003988,591.017449 C315.404268,590.870868 315.470916,590.718879 315.311916,590.287706 C315.081475,589.692037 314.95781,589.631895 314.593301,589.76596 C314.185123,589.916731 314.116996,590.070227 314.310366,590.596407 C314.478912,591.05552 314.659591,591.14406 314.959438,591.033857 L315.003988,591.017449 Z M317.376797,597.603207 C313.377638,599.073019 309.216929,597.034101 307.739589,593.009888 C306.230237,588.902784 308.093594,584.704532 312.17238,583.197922 C316.211593,581.71228 320.262045,583.682158 321.858966,587.811138 C323.359335,591.869131 321.50842,596.090135 317.417488,597.588216 L317.376797,597.603207 Z M340.242449,581.739004 L340.292555,581.721038 L340.283364,581.724718 C340.68596,581.576632 340.754671,581.420186 340.59938,580.996411 C340.366968,580.397378 340.24305,580.337239 339.871861,580.473535 C339.468472,580.621766 339.400108,580.775596 339.591945,581.296643 C339.761791,581.758854 339.944171,581.848521 340.242449,581.739004 Z M333.022265,583.713108 C331.510577,579.60724 333.37964,575.401548 337.458261,573.902801 C341.495317,572.420445 345.542526,574.384602 347.147244,578.522212 C348.638692,582.577086 346.788115,586.790616 342.64784,588.313055 L342.626605,588.320488 C338.63757,589.768201 334.496235,587.724304 333.022265,583.713108 Z M365.884254,571.699885 C365.650703,571.099012 365.524582,571.037638 365.159744,571.171465 C364.755271,571.320625 364.686055,571.476749 364.880967,572.006289 C365.048369,572.462603 365.228222,572.55079 365.528685,572.440471 L365.59964,572.416256 C365.976431,572.271383 366.036581,572.114896 365.884254,571.699885 Z M358.31054,574.420721 C356.798169,570.311923 358.662504,566.106666 362.743393,564.601746 C366.780713,563.120739 370.82475,565.088686 372.430694,569.221929 C373.92587,573.280264 372.07625,577.495566 367.981959,578.998728 L367.895124,579.028361 C363.912077,580.463447 359.779314,578.424381 358.31054,574.420721 Z M390.854276,563.126651 C391.253697,562.980109 391.32179,562.824823 391.165982,562.398634 C390.935068,561.804233 390.807777,561.742438 390.435137,561.879627 C390.033264,562.026916 389.966064,562.178268 390.160134,562.706001 C390.315105,563.127734 390.480266,563.238293 390.736569,563.16989 L390.854276,563.126651 Z M393.339939,569.674473 L393.223302,569.717298 C389.225731,571.185063 385.067981,569.143344 383.58999,565.121206 C382.077552,561.008437 383.944736,556.803069 388.021483,555.308916 C392.056715,553.823288 396.108393,555.790226 397.714039,559.92504 C399.187823,563.939566 397.395668,568.106341 393.397273,569.648673 L393.339939,569.674473 Z M831.134253,206.599219 L831.134253,206.554245 C831.134253,206.124861 831.013485,206.008704 830.556188,206.008197 C829.916971,206.019077 829.816159,206.11601 829.816159,206.50927 C829.816159,206.937724 829.939052,207.056953 830.496622,207.056953 C830.988097,207.056953 831.134253,206.917386 831.134253,206.599219 Z M838.134253,206.599219 C838.134253,210.857469 834.783689,214.056953 830.496622,214.056953 C826.119685,214.056953 822.816159,210.851931 822.816159,206.50927 C822.816159,202.206158 826.063612,199.083652 830.496622,199.008704 C834.819821,199.008704 838.134253,202.196585 838.134253,206.554245 L838.134253,206.599219 Z M831.134253,179.661785 L831.134253,179.616811 C831.134253,179.185296 831.01352,179.069129 830.556188,179.068622 C829.916971,179.079502 829.816159,179.176435 829.816159,179.569695 C829.816159,180.000283 829.939014,180.119519 830.496622,180.119519 C830.988097,180.119519 831.134253,179.979953 831.134253,179.661785 Z M838.134253,179.661785 C838.134253,183.920035 834.783689,187.119519 830.496622,187.119519 C826.11908,187.119519 822.816159,183.913884 822.816159,179.569695 C822.816159,175.266583 826.063612,172.144077 830.496622,172.069129 C834.820422,172.069129 838.134253,175.257637 838.134253,179.616811 L838.134253,179.661785 Z M831.134253,152.720069 L831.134253,152.675094 C831.134253,152.245711 831.013485,152.129554 830.559166,152.128995 C829.918116,152.140452 829.816159,152.238523 829.816159,152.632262 C829.816159,153.059659 829.938025,153.177803 830.496622,153.177803 C830.989168,153.177803 831.134253,153.039313 831.134253,152.720069 Z M838.134253,152.720069 C838.134253,156.980021 834.784196,160.177803 830.496622,160.177803 C826.119792,160.177803 822.816159,156.97508 822.816159,152.632262 C822.816159,148.330237 826.061831,145.208255 830.496622,145.129554 C834.819821,145.129554 838.134253,148.317435 838.134253,152.675094 L838.134253,152.720069 Z M831.134253,125.782635 L831.134253,125.737661 C831.134253,125.308277 831.013485,125.19212 830.556188,125.191613 C829.916971,125.202494 829.816159,125.299426 829.816159,125.692687 C829.816159,126.12114 829.939052,126.240369 830.496622,126.240369 C830.988097,126.240369 831.134253,126.100803 831.134253,125.782635 Z M838.134253,125.782635 C838.134253,130.040885 834.783689,133.240369 830.496622,133.240369 C826.119685,133.240369 822.816159,130.035348 822.816159,125.692687 C822.816159,121.389574 826.063612,118.267069 830.496622,118.19212 C834.819821,118.19212 838.134253,121.380001 838.134253,125.737661 L838.134253,125.782635 Z"/>
  </g>
</svg>
