<svg xmlns="http://www.w3.org/2000/svg" width="998" height="645" viewBox="0 0 998 645">
  <g fill="none" fill-rule="evenodd" transform="translate(0 1.049)">
    <path fill="#FFF" fill-rule="nonzero" d="M93.4287805,370.209756 L119.848293,370.209756 L119.848293,242.646341 L5.37512195,242.646341 L5.37512195,398.592683 L93.4287805,398.592683 L93.4287805,370.209756 Z M98.3068293,403.470732 L0.497073171,403.470732 L0.497073171,237.768293 L124.726341,237.768293 L124.726341,375.087805 L98.3068293,375.087805 L98.3068293,403.470732 Z"/>
    <polygon fill="#FFF" fill-rule="nonzero" points="98.347 403.5 94.785 400.168 121.163 371.966 124.725 375.298"/>
    <path fill="#8B98A9" fill-rule="nonzero" d="M15.3516942,363.945122 L15.3516942,252.110976 L109.910745,252.110976 L109.910745,363.945122 L15.3516942,363.945122 Z M107.642924,361.554226 L107.642924,254.501871 L17.6195149,254.501871 L17.6195149,361.554226 L107.642924,361.554226 Z"/>
    <polygon fill="#8B98A9" fill-rule="nonzero" points="16.468 291.324 16.468 288.933 108.759 288.933 108.759 291.324"/>
    <polygon fill="#8B98A9" fill-rule="nonzero" points="16.468 273.392 16.468 271.001 108.759 271.001 108.759 273.392"/>
    <polygon fill="#8B98A9" fill-rule="nonzero" points="48.112 362.752 45.844 362.752 45.844 253.309 48.112 253.309"/>
    <polygon fill="#8B98A9" fill-rule="nonzero" points="80.428 362.752 78.161 362.752 78.161 253.309 80.428 253.309"/>
    <polygon fill="#8B98A9" fill-rule="nonzero" points="16.468 345.717 16.468 343.326 108.759 343.326 108.759 345.717"/>
    <polygon fill="#8B98A9" fill-rule="nonzero" points="16.468 327.785 16.468 325.394 108.759 325.394 108.759 327.785"/>
    <polygon fill="#8B98A9" fill-rule="nonzero" points="16.485 309.227 16.485 306.836 108.777 306.836 108.777 309.227"/>
    <path fill="#FFF" fill-rule="nonzero" d="M125.055122 39.0121951C125.055122 52.3578763 97.1993091 61.904878 62.9404878 61.904878 28.6816665 61.904878.825853659 52.3578763.825853659 39.0121951.825853659 25.6681614 28.6841791 16.1195122 62.9404878 16.1195122 97.1967965 16.1195122 125.055122 25.6681614 125.055122 39.0121951zM120.177073 39.0121951C120.177073 29.7800166 94.5541286 20.997561 62.9404878 20.997561 31.326847 20.997561 5.70390244 29.7800166 5.70390244 39.0121951 5.70390244 48.2459199 31.3244453 57.0268293 62.9404878 57.0268293 94.5565303 57.0268293 120.177073 48.2459199 120.177073 39.0121951zM.841219512 158.495122L5.71926829 158.495122C5.71926829 158.611449 5.71566103 158.707442 5.70885688 158.837454 5.70468542 158.925125 5.70463415 158.92649 5.70463415 158.934146 5.70463415 168.172677 31.3028534 176.943902 62.9412195 176.943902 94.5795856 176.943902 120.177805 168.172677 120.177805 158.934146 120.177805 158.922319 120.177603 158.918469 120.169085 158.789264 120.155652 158.603835 120.148537 158.467847 120.148537 158.304878L125.026585 158.304878C125.026585 158.316706 125.026787 158.320555 125.035305 158.44976 125.048738 158.635189 125.055854 158.771177 125.055854 158.934146 125.055854 172.284918 97.2226767 181.821951 62.9412195 181.821951 28.6597624 181.821951.826585366 172.284918.826585366 158.934146.826585366 158.817819.830192625 158.721826.836996776 158.591814.841168235 158.504143.841219512 158.502779.841219512 158.495122z"/>
    <path fill="#8B98A9" fill-rule="nonzero" d="M2.06073171,77.4926829 L4.4997561,77.4926829 C4.49701846,77.6522529 4.49701846,77.6522529 4.49089186,77.7711661 C4.48604285,77.8699358 4.48604285,77.8699358 4.48512195,77.9268293 C4.48512195,88.1944515 30.6446847,97.1609756 62.9412195,97.1609756 C95.2377543,97.1609756 121.397317,88.1944515 121.397317,77.9268293 C121.397317,77.8775621 121.395415,77.8415218 121.38571,77.7005037 C121.373463,77.5305462 121.368049,77.4279686 121.368049,77.302439 L123.807073,77.302439 C123.807073,77.3517062 123.808976,77.3877465 123.81868,77.5287646 C123.830927,77.6987221 123.836341,77.8012997 123.836341,77.9268293 C123.836341,90.2503696 96.5590778,99.6 62.9412195,99.6 C29.3233612,99.6 2.04609756,90.2503696 2.04609756,77.9268293 C2.0488352,77.7672593 2.0488352,77.7672593 2.0549618,77.6483461 C2.05981081,77.5495764 2.05981081,77.5495764 2.06073171,77.4926829 Z"/>
    <path fill="#8B98A9" fill-rule="nonzero" d="M2.06073171 87.7878049L4.4997561 87.7878049C4.4997561 87.8769644 4.49703783 87.9493004 4.49089186 88.0687271 4.48606222 88.1669833 4.48512195 88.1920051 4.48512195 88.2268293 4.48512195 98.4934198 30.6420806 107.456098 62.9412195 107.456098 95.2403584 107.456098 121.397317 98.4934198 121.397317 88.2268293 121.397317 88.1775621 121.395415 88.1415218 121.38571 88.0005037 121.373463 87.8305462 121.368049 87.7279686 121.368049 87.602439L123.807073 87.602439C123.807073 87.6517062 123.808976 87.6877465 123.81868 87.8287646 123.830927 87.9987221 123.836341 88.1012997 123.836341 88.2268293 123.836341 100.54954 96.5619039 109.895122 62.9412195 109.895122 29.3205351 109.895122 2.04609756 100.54954 2.04609756 88.2268293 2.04609756 88.1376697 2.04881582 88.0653337 2.0549618 87.9459071 2.05979143 87.8476508 2.06073171 87.8226291 2.06073171 87.7878049zM2.06073171 129.617073L4.4997561 129.617073C4.49701846 129.776643 4.49701846 129.776643 4.49089186 129.895556 4.48604285 129.994326 4.48604285 129.994326 4.48512195 130.05122 4.48512195 140.318842 30.6446847 149.285366 62.9412195 149.285366 95.2377543 149.285366 121.397317 140.318842 121.397317 130.05122 121.397317 130.001952 121.395415 129.965912 121.38571 129.824894 121.373463 129.654936 121.368049 129.552359 121.368049 129.426829L123.807073 129.426829C123.807073 129.476096 123.808976 129.512137 123.81868 129.653155 123.830927 129.823112 123.836341 129.92569 123.836341 130.05122 123.836341 142.37476 96.5590778 151.72439 62.9412195 151.72439 29.3233612 151.72439 2.04609756 142.37476 2.04609756 130.05122 2.0488352 129.89165 2.0488352 129.89165 2.0549618 129.772736 2.05981081 129.673967 2.05981081 129.673967 2.06073171 129.617073zM2.04658537 50.9926829L4.48560976 50.9926829C4.48560976 61.2608209 30.646474 70.2292683 62.9417073 70.2292683 95.2353344 70.2292683 121.397805 61.2605235 121.397805 50.9926829L123.836829 50.9926829C123.836829 63.3163578 96.5565661 72.6682927 62.9417073 72.6682927 29.3252613 72.6682927 2.04658537 63.3166379 2.04658537 50.9926829z"/>
    <path fill="#8B98A9" fill-rule="nonzero" d="M2.06073171,118.470732 L4.4997561,118.470732 C4.4997561,118.559891 4.49703783,118.632227 4.49089186,118.751654 C4.48606222,118.84991 4.48512195,118.874932 4.48512195,118.909756 C4.48512195,129.176347 30.6420806,138.139024 62.9412195,138.139024 C95.2403584,138.139024 121.397317,129.176347 121.397317,118.909756 C121.397317,118.860489 121.395415,118.824449 121.38571,118.683431 C121.373463,118.513473 121.368049,118.410895 121.368049,118.285366 L123.807073,118.285366 C123.807073,118.334633 123.808976,118.370673 123.81868,118.511691 C123.830927,118.681649 123.836341,118.784227 123.836341,118.909756 C123.836341,131.232467 96.5619039,140.578049 62.9412195,140.578049 C29.3205351,140.578049 2.04609756,131.232467 2.04609756,118.909756 C2.04609756,118.820597 2.04881582,118.748261 2.0549618,118.628834 C2.05979143,118.530578 2.06073171,118.505556 2.06073171,118.470732 Z"/>
    <polygon fill="#FFF" fill-rule="nonzero" points=".827 39.015 5.705 39.015 5.705 158.493 .827 158.493"/>
    <polygon fill="#FFF" fill-rule="nonzero" points="120.177 39.015 125.055 39.015 125.055 158.302 120.177 158.302"/>
    <path fill="#FFF" fill-rule="nonzero" d="M32.4531707,494.203415 L6.03365854,494.203415 L6.03365854,621.766829 L120.506829,621.766829 L120.506829,465.820488 L32.4531707,465.820488 L32.4531707,494.203415 Z M27.575122,460.942439 L125.384878,460.942439 L125.384878,626.644878 L1.15560976,626.644878 L1.15560976,489.325366 L27.575122,489.325366 L27.575122,460.942439 Z"/>
    <polygon fill="#FFF" fill-rule="nonzero" points="27.535 460.911 31.098 464.243 4.72 492.446 1.157 489.113"/>
    <path fill="#8B98A9" fill-rule="nonzero" d="M63.832439,479.383415 L105.88122,479.383415 L105.88122,529.383415 L72.3446341,529.383415 L72.3446341,591.217561 L18.0763415,591.217561 L18.0763415,513.124878 L63.832439,513.124878 L63.832439,479.383415 Z M66.2714634,481.822439 L66.2714634,515.563902 L20.5153659,515.563902 L20.5153659,588.778537 L69.9056098,588.778537 L69.9056098,526.94439 L103.442195,526.94439 L103.442195,481.822439 L66.2714634,481.822439 Z"/>
    <path fill="#8B98A9" fill-rule="nonzero" d="M77.6287805 575.320488L77.6287805 533.427805 106.975122 533.427805 106.975122 575.320488 77.6287805 575.320488zM104.536098 572.881463L104.536098 535.866829 80.0678049 535.866829 80.0678049 572.881463 104.536098 572.881463zM77.6287805 609.261951L77.6287805 577.735122 106.975122 577.735122 106.975122 609.261951 77.6287805 609.261951zM104.536098 606.822927L104.536098 580.174146 80.0678049 580.174146 80.0678049 606.822927 104.536098 606.822927z"/>
    <polygon fill="#8B98A9" fill-rule="nonzero" points="55.628 515.569 55.628 513.13 72.345 513.13 72.345 531.422 69.906 531.422 69.906 515.569"/>
    <path fill="#FFF" fill-rule="nonzero" d="M656.421037,321.382927 C656.421037,396.995387 595.036795,458.380244 519.425915,458.380244 C443.81298,458.380244 382.428354,396.995771 382.428354,321.382927 C382.428354,245.770037 443.813025,184.385366 519.425915,184.385366 C595.036749,184.385366 656.421037,245.770421 656.421037,321.382927 Z M651.542988,321.382927 C651.542988,248.46448 592.342664,189.263415 519.425915,189.263415 C446.507097,189.263415 387.306402,248.464109 387.306402,321.382927 C387.306402,394.301697 446.507049,453.502195 519.425915,453.502195 C592.342712,453.502195 651.542988,394.301326 651.542988,321.382927 Z"/>
    <path fill="#141127" d="M651.807408,321.385366 C651.807408,394.495885 592.53909,453.766859 519.425915,453.766859 C446.312739,453.766859 387.044422,394.495885 387.044422,321.385366 C387.044422,248.269534 446.312739,189.003873 519.425915,189.003873 C592.53909,189.003873 651.807408,248.269534 651.807408,321.385366"/>
    <path fill="#F6388A" fill-rule="nonzero" d="M661.030793,321.382927 C661.030793,399.536376 597.57972,462.987561 519.425915,462.987561 C441.272109,462.987561 377.821037,399.536376 377.821037,321.382927 C377.821037,243.22808 441.271068,179.778049 519.425915,179.778049 C597.580762,179.778049 661.030793,243.22808 661.030793,321.382927 Z M664.030793,321.382927 C664.030793,401.19323 599.236575,465.987561 519.425915,465.987561 C439.615254,465.987561 374.821037,401.19323 374.821037,321.382927 C374.821037,241.571226 439.614213,176.778049 519.425915,176.778049 C599.237616,176.778049 664.030793,241.571226 664.030793,321.382927 Z M661.591768,321.382927 C661.591768,242.918262 597.89058,179.217073 519.425915,179.217073 C440.961249,179.217073 377.260061,242.918262 377.260061,321.382927 C377.260061,399.846195 440.962291,463.548537 519.425915,463.548537 C597.889538,463.548537 661.591768,399.846195 661.591768,321.382927 Z M658.591768,321.382927 C658.591768,244.575116 596.233726,182.217073 519.425915,182.217073 C442.618104,182.217073 380.260061,244.575116 380.260061,321.382927 C380.260061,398.189342 442.619147,460.548537 519.425915,460.548537 C596.232682,460.548537 658.591768,398.189342 658.591768,321.382927 Z M139.685854,99.2243902 L139.405366,99.504878 L139.685854,99.7853659 L140.624878,99.7853659 L140.624878,99.2243902 L139.685854,99.2243902 Z M236.635637,99.7853659 C236.567304,99.7003497 236.489894,99.6229396 236.404878,99.5546068 L236.404878,99.7853659 L236.635637,99.7853659 Z M236.965854,296.881979 L236.965854,296.65122 L236.735095,296.65122 C236.803427,296.736236 236.880837,296.813646 236.965854,296.881979 Z M363.199085,297.212195 L363.479573,296.931707 L363.199085,296.65122 L362.260061,296.65122 L362.260061,297.212195 L363.199085,297.212195 Z M233.965854,102.22439 L139.124878,102.22439 C138.296451,102.22439 137.624878,101.552817 137.624878,100.72439 L137.624878,98.2853659 C137.624878,97.4569387 138.296451,96.7853659 139.124878,96.7853659 L237.904878,96.7853659 C238.733305,96.7853659 239.404878,97.4569387 239.404878,98.2853659 L239.404878,294.212195 L363.760061,294.212195 C364.588488,294.212195 365.260061,294.883768 365.260061,295.712195 L365.260061,298.15122 C365.260061,298.979647 364.588488,299.65122 363.760061,299.65122 L235.465854,299.65122 C234.637427,299.65122 233.965854,298.979647 233.965854,298.15122 L233.965854,102.22439 Z M236.404878,543.86561 L236.404878,544.096369 C236.489894,544.028036 236.567304,543.950626 236.635637,543.86561 L236.404878,543.86561 Z M139.685854,543.86561 L139.405366,544.146098 L139.685854,544.426585 L140.624878,544.426585 L140.624878,543.86561 L139.685854,543.86561 Z M236.965854,346.774119 C236.880837,346.842452 236.803427,346.919862 236.735095,347.004878 L236.965854,347.004878 L236.965854,346.774119 Z M363.199085,347.004878 L363.479573,346.72439 L363.199085,346.443902 L362.260061,346.443902 L362.260061,347.004878 L363.199085,347.004878 Z M239.404878,349.443902 L239.404878,545.36561 C239.404878,546.194037 238.733305,546.86561 237.904878,546.86561 L139.124878,546.86561 C138.296451,546.86561 137.624878,546.194037 137.624878,545.36561 L137.624878,542.926585 C137.624878,542.098158 138.296451,541.426585 139.124878,541.426585 L233.965854,541.426585 L233.965854,345.504878 C233.965854,344.676451 234.637427,344.004878 235.465854,344.004878 L363.760061,344.004878 C364.588488,344.004878 365.260061,344.676451 365.260061,345.504878 L365.260061,347.943902 C365.260061,348.77233 364.588488,349.443902 363.760061,349.443902 L239.404878,349.443902 Z M140.624878,321.090244 L139.685854,321.090244 L139.405366,321.370732 L139.685854,321.65122 L140.624878,321.65122 L140.624878,321.090244 Z M363.199085,321.65122 L363.479573,321.370732 L363.199085,321.090244 L362.260061,321.090244 L362.260061,321.65122 L363.199085,321.65122 Z M137.624878,322.590244 L137.624878,320.15122 C137.624878,319.322792 138.296451,318.65122 139.124878,318.65122 L363.760061,318.65122 C364.588488,318.65122 365.260061,319.322792 365.260061,320.15122 L365.260061,322.590244 C365.260061,323.418671 364.588488,324.090244 363.760061,324.090244 L139.124878,324.090244 C138.296451,324.090244 137.624878,323.418671 137.624878,322.590244 Z M678.030793,322.590244 L678.030793,320.15122 C678.030793,319.322792 678.702366,318.65122 679.530793,318.65122 L876.760982,318.65122 C877.589409,318.65122 878.260982,319.322792 878.260982,320.15122 L878.260982,322.590244 C878.260982,323.418671 877.589409,324.090244 876.760982,324.090244 L679.530793,324.090244 C678.702366,324.090244 678.030793,323.418671 678.030793,322.590244 Z M875.051594,106.223908 C874.072565,105.298701 874.028933,103.755013 874.95414,102.775984 C875.879348,101.796955 877.423036,101.753324 878.402065,102.678531 L918.997187,141.041945 C919.976216,141.967152 920.019847,143.510841 919.09464,144.48987 C918.169433,145.468899 916.625745,145.51253 915.646716,144.587323 L875.051594,106.223908 Z M878.402065,215.297079 C877.423036,216.222286 875.879348,216.178655 874.95414,215.199626 C874.028933,214.220597 874.072565,212.676909 875.051594,211.751701 L915.646716,173.388287 C916.625745,172.46308 918.169433,172.506711 919.09464,173.48574 C920.019847,174.464769 919.976216,176.008457 918.997187,176.933664 L878.402065,215.297079 Z M875.051594,269.433664 C874.072565,268.508457 874.028933,266.964769 874.95414,265.98574 C875.879348,265.006711 877.423036,264.96308 878.402065,265.888287 L918.997187,304.251701 C919.976216,305.176909 920.019847,306.720597 919.09464,307.699626 C918.169433,308.678655 916.625745,308.722286 915.646716,307.797079 L875.051594,269.433664 Z M878.402065,378.506835 C877.423036,379.432042 875.879348,379.388411 874.95414,378.409382 C874.028933,377.430353 874.072565,375.886665 875.051594,374.961458 L915.646716,336.598043 C916.625745,335.672836 918.169433,335.716467 919.09464,336.695496 C920.019847,337.674525 919.976216,339.218213 918.997187,340.14342 L878.402065,378.506835 Z M875.051594,434.280981 C874.072565,433.355774 874.028933,431.812086 874.95414,430.833057 C875.879348,429.854028 877.423036,429.810397 878.402065,430.735604 L918.997187,469.099019 C919.976216,470.024226 920.019847,471.567914 919.09464,472.546943 C918.169433,473.525972 916.625745,473.569603 915.646716,472.644396 L875.051594,434.280981 Z M878.402121,543.355806 C877.423122,544.281045 875.879432,544.237462 874.954194,543.258463 C874.028955,542.279463 874.072538,540.735773 875.051537,539.810535 L915.646659,501.444681 C916.625659,500.519443 918.169349,500.563026 919.094587,501.542025 C920.019825,502.521025 919.976243,504.064715 918.997243,504.989953 L878.402121,543.355806 Z"/>
    <path fill="#FFF" d="M832.058537,0.0756097561 C819.578049,0.0756097561 809.458537,10.1902439 809.458537,22.6707317 C809.458537,35.1512195 819.578049,45.2682927 832.058537,45.2682927 C844.539024,45.2682927 854.653659,35.1512195 854.653659,22.6707317 C854.653659,10.1902439 844.539024,0.0756097561 832.058537,0.0756097561 M832.058537,4.95365854 C841.826829,4.95365854 849.77561,12.902439 849.77561,22.6707317 C849.77561,32.4414634 841.826829,40.3902439 832.058537,40.3902439 C822.287805,40.3902439 814.336585,32.4414634 814.336585,22.6707317 C814.336585,12.902439 822.287805,4.95365854 832.058537,4.95365854"/>
    <path fill="#FFF" d="M853.992683,39.6609756 C848.917073,46.204878 840.980488,50.4219512 832.058537,50.4219512 C823.131707,50.4219512 815.2,46.204878 810.121951,39.6609756 C802.45122,45.9878049 797.558537,55.5658537 797.558537,66.2853659 L797.558537,114.636585 L866.556098,114.636585 L866.556098,66.2853659 C866.556098,55.5658537 861.665854,45.9878049 853.992683,39.6609756 M809.902439,46.6243902 C815.890244,52.1902439 823.721951,55.3 832.058537,55.3 C840.397561,55.3 848.226829,52.1926829 854.214634,46.6243902 C859.002439,52.0097561 861.678049,58.9634146 861.678049,66.2853659 L861.678049,109.758537 L802.436585,109.758537 L802.436585,66.2853659 C802.436585,58.9634146 805.114634,52.0097561 809.902439,46.6243902"/>
    <path fill="#8B98A9" fill-rule="nonzero" d="M815.141463 67.8390244C815.141463 67.1655064 815.687458 66.6195122 816.360976 66.6195122 817.034494 66.6195122 817.580488 67.1655064 817.580488 67.8390244L817.580488 109.45122C817.580488 110.124737 817.034494 110.670732 816.360976 110.670732 815.687458 110.670732 815.141463 110.124737 815.141463 109.45122L815.141463 67.8390244zM847.307317 67.8390244C847.307317 67.1655064 847.853311 66.6195122 848.526829 66.6195122 849.200347 66.6195122 849.746341 67.1655064 849.746341 67.8390244L849.746341 109.45122C849.746341 110.124737 849.200347 110.670732 848.526829 110.670732 847.853311 110.670732 847.307317 110.124737 847.307317 109.45122L847.307317 67.8390244z"/>
    <path fill="#FFF" d="M832.058537,167.695122 C819.578049,167.695122 809.458537,177.809756 809.458537,190.290244 C809.458537,202.770732 819.578049,212.887805 832.058537,212.887805 C844.539024,212.887805 854.653659,202.770732 854.653659,190.290244 C854.653659,177.809756 844.539024,167.695122 832.058537,167.695122 M832.058537,172.573171 C841.826829,172.573171 849.77561,180.521951 849.77561,190.290244 C849.77561,200.060976 841.826829,208.009756 832.058537,208.009756 C822.287805,208.009756 814.336585,200.060976 814.336585,190.290244 C814.336585,180.521951 822.287805,172.573171 832.058537,172.573171"/>
    <path fill="#FFF" d="M853.992683,207.280488 C848.917073,213.82439 840.980488,218.041463 832.058537,218.041463 C823.131707,218.041463 815.2,213.82439 810.121951,207.280488 C802.45122,213.607317 797.558537,223.185366 797.558537,233.904878 L797.558537,282.256098 L866.556098,282.256098 L866.556098,233.904878 C866.556098,223.185366 861.665854,213.607317 853.992683,207.280488 M809.902439,214.243902 C815.890244,219.809756 823.721951,222.919512 832.058537,222.919512 C840.397561,222.919512 848.226829,219.812195 854.214634,214.243902 C859.002439,219.629268 861.678049,226.582927 861.678049,233.904878 L861.678049,277.378049 L802.436585,277.378049 L802.436585,233.904878 C802.436585,226.582927 805.114634,219.629268 809.902439,214.243902"/>
    <path fill="#8B98A9" fill-rule="nonzero" d="M815.141463 235.458537C815.141463 234.785019 815.687458 234.239024 816.360976 234.239024 817.034494 234.239024 817.580488 234.785019 817.580488 235.458537L817.580488 277.070732C817.580488 277.74425 817.034494 278.290244 816.360976 278.290244 815.687458 278.290244 815.141463 277.74425 815.141463 277.070732L815.141463 235.458537zM847.307317 235.458537C847.307317 234.785019 847.853311 234.239024 848.526829 234.239024 849.200347 234.239024 849.746341 234.785019 849.746341 235.458537L849.746341 277.070732C849.746341 277.74425 849.200347 278.290244 848.526829 278.290244 847.853311 278.290244 847.307317 277.74425 847.307317 277.070732L847.307317 235.458537z"/>
    <path fill="#FFF" d="M832.058537,351.429268 C819.578049,351.429268 809.458537,361.543902 809.458537,374.02439 C809.458537,386.504878 819.578049,396.621951 832.058537,396.621951 C844.539024,396.621951 854.653659,386.504878 854.653659,374.02439 C854.653659,361.543902 844.539024,351.429268 832.058537,351.429268 M832.058537,356.307317 C841.826829,356.307317 849.77561,364.256098 849.77561,374.02439 C849.77561,383.795122 841.826829,391.743902 832.058537,391.743902 C822.287805,391.743902 814.336585,383.795122 814.336585,374.02439 C814.336585,364.256098 822.287805,356.307317 832.058537,356.307317"/>
    <path fill="#FFF" d="M853.992683,391.014634 C848.917073,397.558537 840.980488,401.77561 832.058537,401.77561 C823.131707,401.77561 815.2,397.558537 810.121951,391.014634 C802.45122,397.341463 797.558537,406.919512 797.558537,417.639024 L797.558537,465.990976 L866.556098,465.990976 L866.556098,417.639024 C866.556098,406.919512 861.665854,397.341463 853.992683,391.014634 M809.902439,397.978049 C815.890244,403.543902 823.721951,406.653659 832.058537,406.653659 C840.397561,406.653659 848.226829,403.546341 854.214634,397.978049 C859.002439,403.363415 861.678049,410.317073 861.678049,417.639024 L861.678049,461.112927 L802.436585,461.112927 L802.436585,417.639024 C802.436585,410.317073 805.114634,403.363415 809.902439,397.978049"/>
    <path fill="#8B98A9" fill-rule="nonzero" d="M815.141463 419.192683C815.141463 418.519165 815.687458 417.973171 816.360976 417.973171 817.034494 417.973171 817.580488 418.519165 817.580488 419.192683L817.580488 460.804878C817.580488 461.478396 817.034494 462.02439 816.360976 462.02439 815.687458 462.02439 815.141463 461.478396 815.141463 460.804878L815.141463 419.192683zM847.307317 419.192683C847.307317 418.519165 847.853311 417.973171 848.526829 417.973171 849.200347 417.973171 849.746341 418.519165 849.746341 419.192683L849.746341 460.804878C849.746341 461.478396 849.200347 462.02439 848.526829 462.02439 847.853311 462.02439 847.307317 461.478396 847.307317 460.804878L847.307317 419.192683z"/>
    <path fill="#FFF" d="M832.058537,514.476585 C819.578049,514.476585 809.458537,524.593659 809.458537,537.076585 C809.458537,549.557073 819.578049,559.669268 832.058537,559.669268 C844.539024,559.669268 854.653659,549.557073 854.653659,537.076585 C854.653659,524.593659 844.539024,514.476585 832.058537,514.476585 M832.058537,519.354634 C841.826829,519.354634 849.77561,527.305854 849.77561,537.076585 C849.77561,546.844878 841.826829,554.79122 832.058537,554.79122 C822.287805,554.79122 814.336585,546.844878 814.336585,537.076585 C814.336585,527.305854 822.287805,519.354634 832.058537,519.354634"/>
    <path fill="#FFF" d="M853.992683,554.063171 C848.917073,560.609512 840.980488,564.824146 832.058537,564.824146 C823.131707,564.824146 815.2,560.609512 810.121951,554.063171 C802.45122,560.39 797.558537,569.968049 797.558537,580.692439 L797.558537,629.043659 L866.556098,629.043659 L866.556098,580.692439 C866.556098,569.968049 861.665854,560.39 853.992683,554.063171 M809.902439,561.026585 C815.887805,566.592439 823.719512,569.702195 832.058537,569.702195 C840.397561,569.702195 848.229268,566.594878 854.214634,561.026585 C859.002439,566.411951 861.678049,573.368049 861.678049,580.692439 L861.678049,624.16561 L802.436585,624.16561 L802.436585,580.692439 C802.436585,573.368049 805.114634,566.411951 809.902439,561.026585"/>
    <path fill="#8B98A9" fill-rule="nonzero" d="M815.141463 582.245122C815.141463 581.571604 815.687458 581.02561 816.360976 581.02561 817.034494 581.02561 817.580488 581.571604 817.580488 582.245122L817.580488 623.857317C817.580488 624.530835 817.034494 625.076829 816.360976 625.076829 815.687458 625.076829 815.141463 624.530835 815.141463 623.857317L815.141463 582.245122zM847.307317 582.245122C847.307317 581.571604 847.853311 581.02561 848.526829 581.02561 849.200347 581.02561 849.746341 581.571604 849.746341 582.245122L849.746341 623.857317C849.746341 624.530835 849.200347 625.076829 848.526829 625.076829 847.853311 625.076829 847.307317 624.530835 847.307317 623.857317L847.307317 582.245122z"/>
    <path fill="#FFF" d="M963.236585,86.6487805 C950.756098,86.6487805 940.636585,96.7658537 940.636585,109.246341 C940.636585,121.726829 950.756098,131.841463 963.236585,131.841463 C975.717073,131.841463 985.831707,121.726829 985.831707,109.246341 C985.831707,96.7658537 975.717073,86.6487805 963.236585,86.6487805 M963.236585,91.5268293 C973.004878,91.5268293 980.953659,99.4756098 980.953659,109.246341 C980.953659,119.017073 973.004878,126.963415 963.236585,126.963415 C953.465854,126.963415 945.514634,119.017073 945.514634,109.246341 C945.514634,99.4756098 953.465854,91.5268293 963.236585,91.5268293"/>
    <path fill="#FFF" d="M985.170732,126.236585 C980.095122,132.782927 972.158537,136.997561 963.236585,136.997561 C954.309756,136.997561 946.378049,132.782927 941.3,126.236585 C933.629268,132.563415 928.736585,142.141463 928.736585,152.863415 L928.736585,201.214634 L997.734146,201.214634 L997.734146,152.863415 C997.734146,142.141463 992.843902,132.563415 985.170732,126.236585 M941.080488,133.2 C947.065854,138.765854 954.897561,141.87561 963.236585,141.87561 C971.57561,141.87561 979.407317,138.768293 985.392683,133.2 C990.180488,138.585366 992.856098,145.539024 992.856098,152.863415 L992.856098,196.336585 L933.614634,196.336585 L933.614634,152.863415 C933.614634,145.541463 936.292683,138.585366 941.080488,133.2"/>
    <path fill="#8B98A9" fill-rule="nonzero" d="M946.319512 154.414634C946.319512 153.741116 946.865506 153.195122 947.539024 153.195122 948.212542 153.195122 948.758537 153.741116 948.758537 154.414634L948.758537 196.026829C948.758537 196.700347 948.212542 197.246341 947.539024 197.246341 946.865506 197.246341 946.319512 196.700347 946.319512 196.026829L946.319512 154.414634zM978.485366 154.414634C978.485366 153.741116 979.03136 153.195122 979.704878 153.195122 980.378396 153.195122 980.92439 153.741116 980.92439 154.414634L980.92439 196.026829C980.92439 196.700347 980.378396 197.246341 979.704878 197.246341 979.03136 197.246341 978.485366 196.700347 978.485366 196.026829L978.485366 154.414634z"/>
    <path fill="#FFF" d="M963.236585,251.382927 C950.756098,251.382927 940.636585,261.5 940.636585,273.980488 C940.636585,286.460976 950.756098,296.57561 963.236585,296.57561 C975.717073,296.57561 985.831707,286.460976 985.831707,273.980488 C985.831707,261.5 975.717073,251.382927 963.236585,251.382927 M963.236585,256.260976 C973.004878,256.260976 980.953659,264.209756 980.953659,273.980488 C980.953659,283.75122 973.004878,291.697561 963.236585,291.697561 C953.465854,291.697561 945.514634,283.75122 945.514634,273.980488 C945.514634,264.209756 953.465854,256.260976 963.236585,256.260976"/>
    <path fill="#FFF" d="M985.170732,290.970732 C980.095122,297.517073 972.158537,301.731707 963.236585,301.731707 C954.309756,301.731707 946.378049,297.517073 941.3,290.970732 C933.629268,297.297561 928.736585,306.87561 928.736585,317.597561 L928.736585,365.94878 L997.734146,365.94878 L997.734146,317.597561 C997.734146,306.87561 992.843902,297.297561 985.170732,290.970732 M941.080488,297.934146 C947.065854,303.5 954.897561,306.609756 963.236585,306.609756 C971.57561,306.609756 979.407317,303.502439 985.392683,297.934146 C990.180488,303.319512 992.856098,310.273171 992.856098,317.597561 L992.856098,361.070732 L933.614634,361.070732 L933.614634,317.597561 C933.614634,310.27561 936.292683,303.319512 941.080488,297.934146"/>
    <path fill="#8B98A9" fill-rule="nonzero" d="M946.319512 319.14878C946.319512 318.475263 946.865506 317.929268 947.539024 317.929268 948.212542 317.929268 948.758537 318.475263 948.758537 319.14878L948.758537 360.760976C948.758537 361.434494 948.212542 361.980488 947.539024 361.980488 946.865506 361.980488 946.319512 361.434494 946.319512 360.760976L946.319512 319.14878zM978.485366 319.14878C978.485366 318.475263 979.03136 317.929268 979.704878 317.929268 980.378396 317.929268 980.92439 318.475263 980.92439 319.14878L980.92439 360.760976C980.92439 361.434494 980.378396 361.980488 979.704878 361.980488 979.03136 361.980488 978.485366 361.434494 978.485366 360.760976L978.485366 319.14878z"/>
    <g transform="translate(928 433)">
      <path fill="#FFF" d="M35.2365854,0.434146341 C22.7560976,0.434146341 12.6365854,10.5487805 12.6365854,23.0314634 C12.6365854,35.5119512 22.7560976,45.6265854 35.2365854,45.6265854 C47.7170732,45.6265854 57.8317073,35.5119512 57.8317073,23.0314634 C57.8317073,10.5487805 47.7170732,0.434146341 35.2365854,0.434146341 M35.2365854,5.31219512 C45.004878,5.31219512 52.9536585,13.2609756 52.9536585,23.0314634 C52.9536585,32.8021951 45.004878,40.7485366 35.2365854,40.7485366 C25.4658537,40.7485366 17.5146341,32.8021951 17.5146341,23.0314634 C17.5146341,13.2609756 25.4658537,5.31219512 35.2365854,5.31219512"/>
      <path fill="#FFF" d="M57.1707317,40.0202439 C52.095122,46.5665854 44.1585366,50.7812195 35.2365854,50.7812195 C26.3097561,50.7812195 18.3780488,46.5665854 13.3,40.0202439 C5.62926829,46.3470732 0.736585366,55.925122 0.736585366,66.6470732 L0.736585366,114.998293 L69.7341463,114.998293 L69.7341463,66.6470732 C69.7341463,55.925122 64.8439024,46.3470732 57.1707317,40.0202439 M13.0804878,46.9836585 C19.0658537,52.5495122 26.897561,55.6592683 35.2365854,55.6592683 C43.5756098,55.6592683 51.4073171,52.5519512 57.3926829,46.9836585 C62.1804878,52.3690244 64.8560976,59.3226829 64.8560976,66.6470732 L64.8560976,110.120244 L5.61463415,110.120244 L5.61463415,66.6470732 C5.61463415,59.325122 8.29268293,52.3690244 13.0804878,46.9836585"/>
      <path fill="#8B98A9" fill-rule="nonzero" d="M18.3195122 68.2C18.3195122 67.526482 18.8655064 66.9804878 19.5390244 66.9804878 20.2125424 66.9804878 20.7585366 67.526482 20.7585366 68.2L20.7585366 109.812195C20.7585366 110.485713 20.2125424 111.031707 19.5390244 111.031707 18.8655064 111.031707 18.3195122 110.485713 18.3195122 109.812195L18.3195122 68.2zM50.4853659 68.2C50.4853659 67.526482 51.0313601 66.9804878 51.704878 66.9804878 52.378396 66.9804878 52.9243902 67.526482 52.9243902 68.2L52.9243902 109.812195C52.9243902 110.485713 52.378396 111.031707 51.704878 111.031707 51.0313601 111.031707 50.4853659 110.485713 50.4853659 109.812195L50.4853659 68.2z"/>
    </g>
    <path fill="#FFF" d="M487.289096,281.298459 C487.289096,263.439242 501.767179,248.963145 519.62441,248.963145 C537.483627,248.963145 551.959724,263.439242 551.959724,281.298459 L551.959724,299.372225 L487.289096,299.372225 L487.289096,281.298459 Z M565.257788,299.372225 L565.257788,281.656041 C565.257788,256.454481 544.82597,236.022662 519.62441,236.022662 C494.42285,236.022662 473.993018,256.454481 473.993018,281.656041 L473.993018,299.372225 L464.469426,299.372225 L464.469426,384.130996 L576.072647,384.130996 L576.072647,299.372225 L565.257788,299.372225 Z"/>
    <path fill="#141127" d="M512.507095,347.186153 C499.795644,345.420278 489.923524,339.413289 487.521524,331.878384 C490.394096,322.86534 503.950414,316.03553 520.270043,316.03553 C536.589673,316.03553 550.14599,322.86534 553.016576,331.878384 C550.616117,339.413668 540.743398,345.420882 528.031069,347.186419 L533.482685,370.181339 L507.055415,370.181339 L512.507095,347.186153 Z M510.550479,342.860853 C508.562284,340.589534 507.357373,337.615904 507.357373,334.36159 C507.357373,327.229822 513.138276,321.448919 520.270043,321.448919 C527.399824,321.448919 533.182714,327.229822 533.182714,334.36159 C533.182714,337.616082 531.976604,340.589859 529.987645,342.861226 C539.805461,340.998058 546.49772,336.452281 548.743476,331.878384 C545.819252,325.920676 535.356016,320.00866 520.270043,320.00866 C505.184071,320.00866 494.720834,325.920676 491.796611,331.878384 C494.042217,336.451976 500.733734,340.997452 510.550479,342.860853 Z"/>
  </g>
</svg>
