<svg height="645" viewBox="0 0 998 645" width="998" xmlns="http://www.w3.org/2000/svg"><g fill="none" fill-rule="evenodd"><circle cx="514" cy="326.326" fill="#141127" r="114"/><path d="m514.124197 208.40033c-65.253352 0-118.151635 52.896142-118.151635 118.153777 0 65.253352 52.898283 118.149494 118.151635 118.149494s118.149494-52.896142 118.149494-118.149494c0-65.257635-52.896142-118.153777-118.149494-118.153777m0 4.283262c62.786194 0 113.866232 51.082181 113.866232 113.870515 0 62.786193-51.080038 113.866232-113.866232 113.866232-62.786193 0-113.868373-51.080039-113.868373-113.866232 0-62.788334 51.08218-113.870515 113.868373-113.870515" fill="#fff"/><g fill="#7b1173" fill-rule="nonzero" transform="translate(124 73.326)"><path d="m514.280107 253.225785c0-68.523138-55.632567-124.155909-124.15591-124.155909-68.522169 0-124.155909 55.63374-124.155909 124.155909 0 68.523451 55.632879 124.156339 124.155909 124.156339 68.524204 0 124.15591-55.63192 124.15591-124.156339zm3 0c0 70.181271-56.974849 127.156339-127.15591 127.156339-70.179884 0-127.155909-56.976034-127.155909-127.156339 0-70.179023 56.976886-127.155909 127.155909-127.155909 70.1802 0 127.15591 56.975919 127.15591 127.155909zm-2.141631 0c0 68.998482-56.016009 125.014708-125.014279 125.014708-68.997095 0-125.014279-56.017194-125.014279-125.014708 0-68.996233 56.018046-125.014279 125.014279-125.014279 68.997408 0 125.014279 56.017078 125.014279 125.014279zm-3 0c0-67.34035-54.673728-122.014279-122.014279-122.014279-67.339379 0-122.014279 54.6749-122.014279 122.014279 0 67.34066 54.674038 122.014708 122.014279 122.014708 67.341413 0 122.014279-54.673078 122.014279-122.014708z"/><path d="m96.8212516 74.0283782-.550592-.3294521-.5886582.1479196.1479196.5886583.550592.3294521zm186.8663934 112.8136398.588658-.147919-.147919-.588659-.550592-.329452-.440739.736578zm-188.3410903-116.1917831 191.9052193 114.8283731-2.640024 4.412101-191.9052196-114.8283726zm587.2894803 408.2298671.505632.395002.602431-.074001-.074001-.602431-.505632-.395001zm1.045694 3.534559-196.54366-153.540507 3.165297-4.051823 196.543659 153.540507zm-324.305248-351.495674.144659.625111.514896.321373.321373-.514897-.144659-.625111zm-11.710964-54.4135142-.514897-.3213726-.321372.5148965.144659.6251112.836269-.1935239zm10.300838 57.8191162-13.755306-59.4403995 5.009252-1.1592081 13.755306 59.4403996zm275.520552 86.055589.374294-.47781-.47781-.374294-.636948.077379.103516.852104zm-121.96876 11.795146 123.948126-15.057662.620065 5.104105-123.948126 15.057662zm-33.687074-69.535061-.460627.446668-.009338.606887.606887.009337.460628-.446668zm166.313619-160.07763172.009337-.60688678-.606886-.00933769-.460628.44666795.597549.61622446zm-169.958208 160.62858572 169.56285-164.42405636 3.579319 3.69118457-169.56285 164.42405679zm271.048931 218.39743.552014-.252347-.252348-.552014-.601261-.224001-.299666.804362zm-237.469846-91.671136 240.727162 89.683225-1.794999 4.818126-240.727163-89.683225zm-150.045616 84.522917.159193-.621569-.309282-.522248-.522248.309281-.159193.621569zm-11.36361 40.909621.309282.522249.522249-.309282.159192-.621569-.83153-.212967zm14.182597-43.284467-11.861524 46.313416-4.980867-1.275671 11.861525-46.313416zm-69.988876-41.51133.49887-.403508.063786-.603598-.603598-.063787-.498869.403509zm-167.177568 134.116962-.063787.603598.603598.063786.498869-.403509-.539811-.667384zm170.856904-134.338478-170.803902 138.154116-3.233469-3.99763 170.803902-138.154117zm-24.437457-39.387825.607774-.205672.268964-.544112-.544111-.268964-.607774.205673zm-268.21331467 89.858038-.26896405.544111.54411129.268964.60777381-.205673-.27514723-.813075zm271.74150567-88.791055-273.01379058 92.38872-1.64813194-4.870321 273.01379052-92.38872zm-64.565869-65.85089-.636395-.081809-.480403.37096.37096.480403.636394.081809zm57.343629 8.236981.480403-.37096-.37096-.480403-.636394-.081809-.109444.851364zm-60.046084-10.743637 62.767708 8.068817-.655564 5.099667-62.767708-8.068817z"/></g><g fill="#fff"><path d="m18.3422915 68.3017641c0 4.1268166-3.3402939 7.4690525-7.4574004 7.4690525-4.11710644 0-7.45740036-3.3422359-7.45740036-7.4690525 0-4.1171065 3.34029392-7.4574004 7.45740036-7.4574004 4.1171065 0 7.4574004 3.3402939 7.4574004 7.4574004m118.4969265 0c0 4.1268166-3.332525 7.4690525-7.44769 7.4690525-4.117106 0-7.4574-3.3422359-7.4574-7.4690525 0-4.1171065 3.340294-7.4574004 7.4574-7.4574004 4.115165 0 7.44769 3.3402939 7.44769 7.4574004m-59.241666 29.4664416c0 4.1268163-3.3422359 7.4671103-7.4593424 7.4671103-4.1171064 0-7.4574004-3.340294-7.4574004-7.4671103 0-4.1190485 3.340294-7.4690526 7.4574004-7.4690526 4.1171065 0 7.4593424 3.3500041 7.4593424 7.4690526m-29.8296015-14.5322206c0 4.1268166-3.342236 7.4671106-7.4593424 7.4671106-4.1151644 0-7.4554584-3.340294-7.4554584-7.4671106 0-4.1151644 3.340294-7.4671105 7.4554584-7.4671105 4.1171064 0 7.4593424 3.3519461 7.4593424 7.4671105m59.2513765 0c0 4.1268166-3.340294 7.4671106-7.4574004 7.4671106-4.1151644 0-7.4574004-3.340294-7.4574004-7.4671106 0-4.1151644 3.342236-7.4671105 7.4574004-7.4671105 4.1171064 0 7.4574004 3.3519461 7.4574004 7.4671105m-91.0968066 7.6690818c0 2.784873-2.2508143 5.0473395-5.0356872 5.0473395-2.77516285 0-5.03762937-2.2624665-5.03762937-5.0473395 0-2.786815 2.26246652-5.0473394 5.03762937-5.0473394 2.7848729 0 5.0356872 2.2605244 5.0356872 5.0473394m118.5027526 0c0 2.784873-2.248872 5.0473395-5.035687 5.0473395-2.782931 0-5.045397-2.2624665-5.045397-5.0473395 0-2.786815 2.262466-5.0473394 5.045397-5.0473394 2.786815 0 5.035687 2.2605244 5.035687 5.0473394m-59.2494341 29.8684421c0 2.782931-2.2624665 5.045398-5.0376293 5.045398-2.7829309 0-5.0415134-2.262467-5.0415134-5.045398 0-2.786815 2.2585825-5.047339 5.0415134-5.047339 2.7751628 0 5.0376293 2.260524 5.0376293 5.047339m-29.8198913-14.934221c0 2.784873-2.2624666 5.045397-5.0473395 5.045397-2.7732208 0-5.0337453-2.260524-5.0337453-5.045397 0-2.786815 2.2605245-5.045397 5.0337453-5.045397 2.7848729 0 5.0473395 2.258582 5.0473395 5.045397m59.2416664 0c0 2.784873-2.250814 5.045397-5.0356874 5.045397-2.7829309 0-5.0337453-2.260524-5.0337453-5.045397 0-2.786815 2.2508144-5.045397 5.0337453-5.045397 2.7848734 0 5.0356874 2.258582 5.0356874 5.045397m-91.0890385 2.823714c0 1.454581-1.1710449 2.623684-2.6236844 2.623684-1.44098724 0-2.61203215-1.169103-2.61203215-2.623684 0-1.450698 1.17104491-2.623685 2.61203215-2.623685 1.4526395 0 2.6236844 1.172987 2.6236844 2.623685m118.4949845 0c0 1.454581-1.171045 2.623684-2.613974 2.623684-1.454581 0-2.612032-1.169103-2.612032-2.623684 0-1.450698 1.157451-2.623685 2.612032-2.623685 1.442929 0 2.613974 1.172987 2.613974 2.623685m-59.2436081 29.870384c0 1.442929-1.176871 2.623684-2.6236843 2.623684-1.4429293 0-2.6217423-1.180755-2.6217423-2.623684 0-1.45264 1.178813-2.623685 2.6217423-2.623685 1.4468133 0 2.6236843 1.171045 2.6236843 2.623685m-29.8257174-14.934221c0 1.450697-1.1710449 2.623684-2.6256264 2.623684-1.4409873 0-2.6217423-1.172987-2.6217423-2.623684 0-1.454582 1.180755-2.623685 2.6217423-2.623685 1.4545815 0 2.6256264 1.169103 2.6256264 2.623685m59.2533185 0c0 1.450697-1.180755 2.623684-2.6256264 2.623684-1.4526395 0-2.6217423-1.172987-2.6217423-2.623684 0-1.454582 1.1691028-2.623685 2.6217423-2.623685 1.4448714 0 2.6256264 1.169103 2.6256264 2.623685m-22.1702299-112.7931811c0 5.5697459-4.5093968 10.0888529-10.0791427 10.0888529-5.5600358 0-10.0713746-4.519107-10.0713746-10.0888529 0-5.56974588 4.5113388-10.09273689 10.0713746-10.09273689 5.5697459 0 10.0791427 4.52299101 10.0791427 10.09273689m0 29.858732c0 5.5775141-4.5093968 10.0869109-10.0791427 10.0869109-5.5600358 0-10.0713746-4.5093968-10.0713746-10.0869109 0-5.5697459 4.5113388-10.0791427 10.0713746-10.0791427 5.5697459 0 10.0791427 4.5093968 10.0791427 10.0791427m-29.423717-14.9245109c0 5.5697459-4.521049 10.0791427-10.0830268 10.0791427-5.5697459 0-10.0810847-4.5093968-10.0810847-10.0791427 0-5.5794561 4.5113388-10.0907949 10.0810847-10.0907949 5.5619778 0 10.0830268 4.5113388 10.0830268 10.0907949m59.2416659 0c0 5.5697459-4.501628 10.0791427-10.0733162 10.0791427-5.5697459 0-10.0791427-4.5093968-10.0791427-10.0791427 0-5.5794561 4.5093968-10.0907949 10.0791427-10.0907949 5.5716882 0 10.0733162 4.5113388 10.0733162 10.0907949m-29.8179489 44.3870685c0 5.5697459-4.5093968 10.0810848-10.0791427 10.0810848-5.5600358 0-10.0713746-4.5113389-10.0713746-10.0810848 0-5.579456 4.5113388-10.0888528 10.0713746-10.0888528 5.5697459 0 10.0791427 4.5093968 10.0791427 10.0888528m59.2436079-29.4625576c0 5.5775141-4.511338 10.0869109-10.071374 10.0869109-5.569746 0-10.079143-4.5093968-10.079143-10.0869109 0-5.5697459 4.509397-10.0791427 10.079143-10.0791427 5.560036 0 10.071374 4.5093968 10.071374 10.0791427m-118.4969264 0c0 5.5775141-4.5093968 10.0869109-10.0791427 10.0869109-5.56003576 0-10.06943255-4.5093968-10.06943255-10.0869109 0-5.5697459 4.50939679-10.0791427 10.06943255-10.0791427 5.5697459 0 10.0791427 4.5093968 10.0791427 10.0791427m29.8296015 14.5283365c0 5.569746-4.521049 10.092737-10.0830268 10.092737-5.5697459 0-10.0810847-4.522991-10.0810847-10.092737 0-5.577514 4.5113388-10.0869108 10.0810847-10.0869108 5.5619778 0 10.0830268 4.5093968 10.0830268 10.0869108m59.2416659 0c0 5.569746-4.501628 10.092737-10.0733162 10.092737-5.5697459 0-10.0791427-4.522991-10.0791427-10.092737 0-5.577514 4.5093968-10.0869108 10.0791427-10.0869108 5.5716882 0 10.0733162 4.5093968 10.0733162 10.0869108" transform="translate(444.176 255.596)"/><path d="m869.363 52.237h4.283v47.754h-97.074v-47.874h4.284v43.591h88.507z" fill-rule="nonzero"/><path d="m860.779 54.181h2.142v25.529h-75.231v-25.621h2.141v23.479h70.948z" fill-rule="nonzero"/><path d="m777.866043 2.32618026-13.706438 48.12244634c0 3.7371459 3.030408 6.7696953 6.767554 6.7696953 3.739287 0 6.771837-3.0325494 6.771837-6.7696953h.006425c.034266 3.7071631 3.04754 6.707588 6.76327 6.707588s6.729004-3.0004249 6.76327-6.707588h.014992c.034266 3.7071631 3.045399 6.707588 6.76327 6.707588 3.720013 0 6.729004-3.0004249 6.765412-6.707588h.006425c0 3.7371459 3.030408 6.7696953 6.769695 6.7696953 3.739288 0 6.771837-3.0325494 6.771837-6.7696953h.006425c.034266 3.7071631 3.045399 6.707588 6.765412 6.707588 3.713588 0 6.726863-3.0004249 6.761129-6.707588h.01285c.036407 3.7071631 3.04754 6.707588 6.765412 6.707588 3.715729 0 6.731146-3.0004249 6.76327-6.707588h.006425c0 3.7371459 3.032549 6.7696953 6.769695 6.7696953 3.739288 0 6.771837-3.0325494 6.771837-6.7696953h.006425c.036408 3.7071631 3.047541 6.707588 6.765412 6.707588 3.71573 0 6.726863-3.0004249 6.763271-6.707588h.012849c.034266 3.7071631 3.045399 6.707588 6.765412 6.707588 3.717872 0 7.317953-3.9084764 6.765412-6.707588l-13.796386-48.12244634z"/><path d="m869.363 290.442h4.283v47.754h-97.074v-47.874h4.284v43.591h88.507z" fill-rule="nonzero"/><path d="m860.779 292.384h2.142v25.529h-75.231v-25.621h2.141v23.479h70.948z" fill-rule="nonzero"/><path d="m777.866043 240.529077-13.706438 48.122447c0 3.737146 3.030408 6.769695 6.767554 6.769695 3.739287 0 6.771837-3.032549 6.771837-6.769695h.006425c.034266 3.707163 3.04754 6.707588 6.76327 6.707588s6.729004-3.000425 6.76327-6.707588h.014992c.034266 3.707163 3.045399 6.707588 6.76327 6.707588 3.720013 0 6.729004-3.000425 6.765412-6.707588h.006425c0 3.737146 3.030408 6.769695 6.769695 6.769695 3.739288 0 6.771837-3.032549 6.771837-6.769695h.006425c.034266 3.707163 3.045399 6.707588 6.765412 6.707588 3.713588 0 6.726863-3.000425 6.761129-6.707588h.01285c.036407 3.707163 3.04754 6.707588 6.765412 6.707588 3.715729 0 6.731146-3.000425 6.76327-6.707588h.006425c0 3.737146 3.032549 6.769695 6.769695 6.769695 3.739288 0 6.771837-3.032549 6.771837-6.769695h.006425c.036408 3.707163 3.047541 6.707588 6.765412 6.707588 3.71573 0 6.726863-3.000425 6.763271-6.707588h.012849c.034266 3.707163 3.045399 6.707588 6.765412 6.707588 3.717872 0 7.317953-3.908477 6.765412-6.707588l-13.796386-48.122447z"/><path d="m504.845 95.241h4.283v47.754h-97.076v-47.874h4.283v43.591h88.51z" fill-rule="nonzero"/><path d="m496.261 97.185h2.141v25.529h-75.231v-25.621h2.142v23.479h70.948z" fill-rule="nonzero"/><path d="m413.345472 45.3301288-13.706438 48.1224463c0 3.7371459 3.030408 6.7696949 6.767554 6.7696949 3.739288 0 6.771837-3.032549 6.771837-6.7696949h.006425c.034266 3.7071631 3.047541 6.7075879 6.76327 6.7075879 3.71573 0 6.729004-3.0004248 6.763271-6.7075879h.014991c.034266 3.7071631 3.045399 6.7075879 6.76327 6.7075879 3.720013 0 6.729005-3.0004248 6.765412-6.7075879h.006425c0 3.7371459 3.030408 6.7696949 6.769696 6.7696949 3.739287 0 6.771836-3.032549 6.771836-6.7696949h.006425c.034266 3.7071631 3.045399 6.7075879 6.765412 6.7075879 3.713588 0 6.726863-3.0004248 6.761129-6.7075879h.01285c.036408 3.7071631 3.047541 6.7075879 6.765412 6.7075879 3.71573 0 6.731146-3.0004248 6.76327-6.7075879h.006425c0 3.7371459 3.03255 6.7696949 6.769695 6.7696949 3.74143 0 6.773979-3.032549 6.773979-6.7696949h.006425c.034266 3.7071631 3.047541 6.7075879 6.765412 6.7075879 3.713588 0 6.726863-3.0004248 6.761129-6.7075879h.012849c.036408 3.7071631 3.047541 6.7075879 6.765412 6.7075879 3.720013 0 7.317953-3.9084763 6.765413-6.7075879l-13.796387-48.1224463z"/><path d="m208.94 95.241h4.283v47.754h-97.073v-47.874h4.283v43.591h88.507z" fill-rule="nonzero"/><path d="m200.355 97.185h2.142v25.529h-75.231v-25.621h2.141v23.479h70.948z" fill-rule="nonzero"/><path d="m117.442327 45.3301288-13.706438 48.1224463c0 3.7371459 3.030408 6.7696949 6.767554 6.7696949 3.739287 0 6.771837-3.032549 6.771837-6.7696949h.006425c.034266 3.7071631 3.04754 6.7075879 6.76327 6.7075879s6.729004-3.0004248 6.76327-6.7075879h.014992c.034266 3.7071631 3.045399 6.7075879 6.76327 6.7075879 3.720013 0 6.729005-3.0004248 6.765412-6.7075879h.006425c0 3.7371459 3.030408 6.7696949 6.769695 6.7696949 3.739288 0 6.771837-3.032549 6.771837-6.7696949h.006425c.034266 3.7071631 3.045399 6.7075879 6.765412 6.7075879 3.713588 0 6.726863-3.0004248 6.761129-6.7075879h.01285c.036408 3.7071631 3.047541 6.7075879 6.765412 6.7075879 3.715729 0 6.731146-3.0004248 6.76327-6.7075879h.006425c0 3.7371459 3.032549 6.7696949 6.769695 6.7696949 3.739288 0 6.771837-3.032549 6.771837-6.7696949h.006425c.036408 3.7071631 3.047541 6.7075879 6.765412 6.7075879 3.716158 0 6.727291-3.0004248 6.763699-6.7075879h.01285c.034266 3.7071631 3.045399 6.7075879 6.765412 6.7075879 3.717871 0 7.317953-3.9084763 6.765412-6.7075879l-13.796386-48.1224463z"/><path d="m310.721 290.44h4.283v47.754h-97.074v-47.874h4.283v43.591h88.508z" fill-rule="nonzero"/><path d="m302.135 292.382h2.141v25.528h-75.231v-25.62h2.142v23.479h70.948z" fill-rule="nonzero"/><path d="m219.223764 240.526936-13.70708 48.122446c0 3.737146 3.03105 6.769695 6.768196 6.769695 3.739287 0 6.771837-3.032549 6.771837-6.769695h.006425c.034266 3.707163 3.04754 6.707588 6.76327 6.707588s6.729004-3.000425 6.76327-6.707588h.014992c.034266 3.707163 3.045399 6.707588 6.76327 6.707588 3.720013 0 6.729004-3.000425 6.765412-6.707588h.006425c0 3.737146 3.030408 6.769695 6.769695 6.769695 3.739288 0 6.771837-3.032549 6.771837-6.769695h.006425c.034266 3.707163 3.045399 6.707588 6.765412 6.707588 3.713588 0 6.726863-3.000425 6.761129-6.707588h.01285c.036407 3.707163 3.047541 6.707588 6.765412 6.707588 3.715729 0 6.731146-3.000425 6.76327-6.707588h.006425c0 3.737146 3.032549 6.769695 6.769695 6.769695 3.739288 0 6.771837-3.032549 6.771837-6.769695h.006425c.036408 3.707163 3.047541 6.707588 6.765412 6.707588 3.71573 0 6.726863-3.000425 6.763271-6.707588h.012849c.034266 3.707163 3.045399 6.707588 6.765412 6.707588 3.717872 0 7.317953-3.908476 6.765412-6.707588l-13.796386-48.122446z"/><path d="m105.747 465.386h4.283v47.754h-97.073v-47.874h4.283v43.591h88.507z" fill-rule="nonzero"/><path d="m97.162 467.329h2.141v25.528h-75.231v-25.62h2.142v23.479h70.948z" fill-rule="nonzero"/><path d="m14.2486987 415.474622-13.70643776 48.121804c0 3.737146 3.03040773 6.769695 6.76755365 6.769695 3.73928751 0 6.77183691-3.032549 6.77183691-6.769695h.0064249c.0342661 3.707163 3.0475408 6.707588 6.7632704 6.707588s6.7290043-3.000425 6.7632704-6.707588h.0149914c.0342661 3.707163 3.0453991 6.707588 6.7632704 6.707588 3.7200128 0 6.7290043-3.000425 6.765412-6.707588h.0064249c0 3.737146 3.0304077 6.769695 6.7696953 6.769695 3.7392875 0 6.7718369-3.032549 6.7718369-6.769695h.0064249c.0342661 3.707163 3.0453991 6.707588 6.765412 6.707588 3.713588 0 6.7268626-3.000425 6.7611287-6.707588h.0128498c.0364077 3.707163 3.0475408 6.707588 6.765412 6.707588 3.7157297 0 6.731146-3.000425 6.7632704-6.707588h.0064249c0 3.737146 3.0325494 6.769695 6.7696953 6.769695 3.7392875 0 6.7718369-3.032549 6.7718369-6.769695h.0064249c.0364077 3.707163 3.0475408 6.707588 6.7654121 6.707588 3.71573 0 6.726863-3.000425 6.76327-6.707588h.01285c.034266 3.707163 3.045399 6.707588 6.765412 6.707588 3.717871 0 7.317953-3.908476 6.765412-6.707588l-13.796386-48.121804z"/><path d="m504.84 544.415h4.283v47.754h-97.073v-47.874h4.283v43.591h88.507z" fill-rule="nonzero"/><path d="m496.259 546.358h2.141v25.528h-75.233v-25.62h2.142v23.479h70.95z" fill-rule="nonzero"/><path d="m413.34333 494.503158-13.706437 48.122447c0 3.737146 3.030407 6.769695 6.767553 6.769695 3.739288 0 6.771837-3.032549 6.771837-6.769695h.006425c.034266 3.707163 3.047541 6.707588 6.763271 6.707588 3.715729 0 6.729004-3.000425 6.76327-6.707588h.014991c.034266 3.707163 3.045399 6.707588 6.763271 6.707588 3.720013 0 6.729004-3.000425 6.765412-6.707588h.006425c0 3.737146 3.030407 6.769695 6.769695 6.769695 3.739287 0 6.771837-3.032549 6.771837-6.769695h.006425c.034266 3.707163 3.045399 6.707588 6.765412 6.707588 3.713588 0 6.726862-3.000425 6.761128-6.707588h.01285c.036408 3.707163 3.047541 6.707588 6.765412 6.707588 3.71573 0 6.731146-3.000425 6.763271-6.707588h.006425c0 3.737146 3.032549 6.769695 6.769695 6.769695 3.739287 0 6.771837-3.032549 6.771837-6.769695h.006425c.036407 3.707163 3.049682 6.707588 6.767553 6.707588 3.713588 0 6.724721-3.000425 6.761129-6.707588h.01285c.034266 3.707163 3.045399 6.707588 6.765412 6.707588 3.717871 0 7.317953-3.908477 6.765412-6.707588l-13.796386-48.122447z"/><path d="m240.098 593.279h4.284v47.755h-97.074v-47.874h4.284v43.59h88.506z" fill-rule="nonzero"/><path d="m231.512 595.223h2.142v25.528h-75.23v-25.621h2.142v23.479h70.946z" fill-rule="nonzero"/><path d="m148.600487 543.367466-13.706438 48.122446c0 3.737146 3.030408 6.769695 6.767554 6.769695 3.739287 0 6.771836-3.032549 6.771836-6.769695h.006425c.034266 3.707163 3.047541 6.707588 6.763271 6.707588 3.715729 0 6.729004-3.000425 6.76327-6.707588h.014992c.034266 3.707163 3.045399 6.707588 6.76327 6.707588 3.720013 0 6.729004-3.000425 6.765412-6.707588h.006425c0 3.737146 3.030408 6.769695 6.769695 6.769695 3.739288 0 6.771837-3.032549 6.771837-6.769695h.006425c.034266 3.707163 3.045399 6.707588 6.765412 6.707588 3.713588 0 6.726863-3.000425 6.761129-6.707588h.01285c.036407 3.707163 3.04754 6.707588 6.766268 6.707588 3.71573 0 6.731146-3.000425 6.763271-6.707588h.006424c0 3.737146 3.03255 6.769695 6.769696 6.769695 3.739287 0 6.771837-3.032549 6.771837-6.769695h.006425c.036407 3.707163 3.04754 6.707588 6.765412 6.707588 3.715729 0 6.726862-3.000425 6.76327-6.707588h.01285c.034266 3.707163 3.045399 6.707588 6.765412 6.707588 3.717871 0 7.317953-3.908476 6.765412-6.707588l-13.796387-48.122446z"/><path d="m979.248 446.969h4.283v47.754h-97.074v-47.874h4.284v43.591h88.507z" fill-rule="nonzero"/><path d="m970.662 448.912h2.142v25.528h-75.231v-25.62h2.141v23.479h70.948z" fill-rule="nonzero"/><path d="m887.748841 397.056597-13.706438 48.122446c0 3.73736 3.030408 6.769909 6.767554 6.769909 3.739288 0 6.771837-3.032549 6.771837-6.769909h.006425c.034266 3.707377 3.047541 6.707802 6.76327 6.707802 3.71573 0 6.729005-3.000425 6.763271-6.707802h.014991c.034266 3.707377 3.045399 6.707802 6.76327 6.707802 3.720013 0 6.729005-3.000425 6.765412-6.707802h.006425c0 3.73736 3.030408 6.769909 6.769696 6.769909 3.739287 0 6.771837-3.032549 6.771837-6.769909h.006424c.034267 3.707377 3.0454 6.707802 6.765412 6.707802 3.713588 0 6.726863-3.000425 6.761129-6.707802h.01285c.036408 3.707377 3.047541 6.707802 6.765412 6.707802 3.71573 0 6.731146-3.000425 6.76327-6.707802h.006425c0 3.73736 3.03255 6.769909 6.769696 6.769909 3.739287 0 6.771836-3.032549 6.771836-6.769909h.006425c.036408 3.707377 3.047541 6.707802 6.765412 6.707802 3.71573 0 6.726863-3.000425 6.763271-6.707802h.01285c.034266 3.707377 3.045399 6.707802 6.765412 6.707802 3.717871 0 7.317952-3.908476 6.765412-6.707802l-13.796387-48.122446z"/><path d="m909.131 593.282h4.283v47.752h-97.074v-47.874h4.284v43.59h88.507z" fill-rule="nonzero"/><path d="m900.545 595.223h2.142v25.528h-75.231v-25.621h2.141v23.479h70.948z" fill-rule="nonzero"/><path d="m817.631845 543.367466-13.706437 48.124588c0 3.735004 3.030407 6.767553 6.767553 6.767553 3.739288 0 6.771837-3.032549 6.771837-6.767553h.006425c.034266 3.705021 3.047541 6.705446 6.763271 6.705446 3.715729 0 6.729004-3.000425 6.76327-6.705446h.014991c.034266 3.705021 3.0454 6.705446 6.763271 6.705446 3.720013 0 6.729004-3.000425 6.765412-6.705446h.006425c0 3.735004 3.030407 6.767553 6.769695 6.767553 3.739287 0 6.771837-3.032549 6.771837-6.767553h.006425c.034266 3.705021 3.045399 6.705446 6.765412 6.705446 3.713588 0 6.726862-3.000425 6.761129-6.705446h.012849c.036408 3.705021 3.047541 6.705446 6.765412 6.705446 3.71573 0 6.731146-3.000425 6.763271-6.705446h.006425c0 3.735004 3.032549 6.767553 6.769695 6.767553 3.739287 0 6.771837-3.032549 6.771837-6.767553h.006425c.036407 3.705021 3.04754 6.705446 6.765412 6.705446 3.715729 0 6.726862-3.000425 6.76327-6.705446h.01285c.034266 3.705021 3.045399 6.705446 6.765412 6.705446 3.717871 0 7.317953-3.908476 6.765412-6.705446l-13.796386-48.124588z"/></g><path d="m530.567639 567.063327c-2.250854-.44546-3.540115-2.488575-3.077523-4.827236.481867-2.426468 2.445742-3.777837 4.784403-3.313103 2.291545.454025 3.557249 2.400768 3.11179 4.880776-.464734 2.33652-2.394343 3.74143-4.773695 3.268129zm26.423443 5.245282c-2.250855-.447601-3.540116-2.488575-3.077524-4.827236.481867-2.426468 2.445742-3.777837 4.784403-3.315245 2.291545.456168 3.557249 2.40291 3.11179 4.882919-.464734 2.336519-2.394343 3.741429-4.773695 3.268129zm26.423442 5.245497c-2.248713-.447601-3.540116-2.490717-3.077524-4.829378.481867-2.426468 2.447884-3.777837 4.784403-3.313103 2.293687.456167 3.559391 2.40291 3.11179 4.882918-.464734 2.33652-2.392202 3.74143-4.773695 3.268129zm26.423442 5.245282c-2.248713-.447601-3.540116-2.490717-3.077524-4.829378.481867-2.426468 2.447884-3.777837 4.784403-3.313103 2.293687.454026 3.559391 2.400769 3.11179 4.880777-.464734 2.336519-2.392202 3.743571-4.773695 3.270271zm26.423442 5.243141c-2.248713-.445459-3.540116-2.488575-3.077524-4.827236.481867-2.426468 2.447884-3.777837 4.784404-3.313103 2.293686.454025 3.55939 2.400768 3.111789 4.880777-.464734 2.336519-2.392201 3.74357-4.773695 3.268128zm26.423442 5.245282c-2.248713-.445459-3.540116-2.488575-3.077524-4.827236.481867-2.426468 2.447884-3.779978 4.784404-3.315245 2.293686.456168 3.55939 2.40291 3.111789 4.882919-.464734 2.336519-2.392201 3.741429-4.773695 3.268129zm26.423442 5.245497c-2.250854-.447601-3.540116-2.490717-3.077524-4.829378.481867-2.426468 2.445743-3.777837 4.784404-3.313103 2.291545.456167 3.557249 2.400768 3.111789 4.882918-.464734 2.33652-2.392201 3.74143-4.773695 3.268129zm26.423442 5.24314c-2.250854-.445459-3.540116-2.488575-3.077524-4.827236.481867-2.426467 2.445743-3.777836 4.784404-3.313103 2.291545.456168 3.557249 2.400769 3.111789 4.880777-.464733 2.33652-2.392201 3.743571-4.773695 3.270271zm26.425584 5.245283c-2.250854-.445459-3.540116-2.488575-3.077524-4.827236.481867-2.426468 2.445742-3.777837 4.782262-3.313103 2.293686.454026 3.557249 2.400768 3.111789 4.880777-.464733 2.336519-2.392201 3.74357-4.773695 3.268128zm26.4213 5.245282c-2.250854-.447601-3.540116-2.488575-3.077524-4.827236.481867-2.426468 2.445743-3.777837 4.782262-3.315244 2.293687.456167 3.559391 2.402909 3.113932 4.882918-.464734 2.336519-2.392202 3.741429-4.773696 3.268129zm26.423442 5.245497c-2.248712-.447601-3.540116-2.490717-3.077524-4.829378.481867-2.426468 2.447885-3.777837 4.786546-3.313103 2.293686.456168 3.557248 2.40291 3.109648 4.882919-.464734 2.336519-2.392202 3.741429-4.773696 3.268128zm-710.4672051-221.370107c-1.9360343 1.225013-4.2811201.633923-5.5553905-1.381351-1.3213863-2.090232-.8266696-4.42461 1.1864635-5.696739 1.9767253-1.250712 4.2318627-.711021 5.6153562 1.394202 1.276412 2.015275.8459442 4.362502-1.2078798 5.658189zm22.7696061-14.398184c-1.938176 1.225013-4.281121.633923-5.557533-1.381352-1.319244-2.090232-.826669-4.422468 1.188605-5.696738 1.976726-1.250713 4.234005-.711022 5.615357 1.396343 1.27427 2.013133.843802 4.360361-1.20788 5.656047zm22.769391-14.396043c-1.936034 1.225013-4.28112.636064-5.555391-1.381352-1.321386-2.08809-.826669-4.420326 1.186464-5.696738 1.976725-1.248571 4.234004-.711022 5.615356 1.396343 1.276412 2.013133.845944 4.360361-1.20788 5.658189zm22.769391-14.396043c-1.938176 1.225013-4.28112.633923-5.557532-1.383494-1.319244-2.085948-.824528-4.420326 1.188605-5.694596 1.976726-1.248571 4.234005-.711022 5.617498 1.396343 1.274271 2.013133.841661 4.360361-1.20788 5.658189zm22.769606-14.398185c-1.938176 1.225013-4.28112.633923-5.555391-1.381351-1.321386-2.088091-.826669-4.422468 1.186464-5.696739 1.976725-1.24857 4.231863-.708879 5.615356 1.396344 1.276412 2.015274.845944 4.362502-1.20788 5.658189zm22.769391-14.393901c-1.938176 1.225013-4.28112.633923-5.557532-1.381352-1.321386-2.090231-.826669-4.424609 1.188605-5.696738 1.974584-1.250712 4.234005-.711021 5.615357 1.394202 1.27427 2.015274.843802 4.362502-1.20788 5.658189z" fill="#f6388a" stroke="#f6388a" stroke-width="3"/><path d="m257.127431 132.335763c-1.936035 1.225013-4.281121.633923-5.555391-1.381352-1.321386-2.090232-.826669-4.42461 1.186464-5.696738 1.976725-1.250713 4.231862-.711022 5.615356 1.394201 1.276412 2.015275.845944 4.362503-1.20788 5.658189zm22.769605-14.398185c-1.938176 1.225013-4.28112.633923-5.557532-1.381352-1.319245-2.090231-.826669-4.422467 1.188605-5.696738 1.976726-1.250712 4.234004-.711021 5.615356 1.396343 1.274271 2.013134.843803 4.360361-1.207879 5.656048zm22.769392-14.396043c-1.936035 1.225013-4.281121.636065-5.555391-1.381352-1.321386-2.08809-.826669-4.4203258 1.186464-5.6967378 1.976725-1.2485708 4.234004-.7110214 5.615356 1.3963434 1.276412 2.013133.845944 4.3603604-1.20788 5.6581884zm22.769391-14.3960426c-1.938176 1.2250129-4.28112.6339228-5.557532-1.3834935-1.319245-2.0859485-.824528-4.4203262 1.188605-5.6945966 1.976725-1.2485708 4.234004-.7110215 5.617498 1.3963433 1.27427 2.0131331.841661 4.3603606-1.20788 5.6581889zm22.769606-14.3981845c-1.938176 1.2250128-4.281121.6339227-5.555391-1.381352-1.321386-2.0880901-.826669-4.4224678 1.186464-5.6967382 1.976725-1.2485708 4.231862-.7088798 5.615356 1.3963434 1.276412 2.0152747.845944 4.3625021-1.20788 5.6581888zm22.769391-14.3939013c-1.938176 1.2250129-4.28112.6339227-5.557532-1.3813519-1.321386-2.0902318-.82667-4.4246095 1.188605-5.6967382 1.974584-1.2507125 4.234004-.7110215 5.615356 1.3942017 1.274271 2.0152747.843803 4.3625021-1.20788 5.6581888z" fill="#f6388a" stroke="#f6388a" stroke-width="3" transform="matrix(.8480481 .52991926 -.52991926 .8480481 96.563184 -151.175842)"/><path d="m265.596498 612.913931c-2.150198.792403-4.31967-.278412-5.142056-2.514275-.852369-2.323669.119931-4.501708 2.355794-5.319811 2.195172-.811678 4.285403.190605 5.197738 2.537833.824528 2.238004-.087807 4.443884-2.368644 5.281261zm25.286236-9.298533c-2.152339.794545-4.31967-.278412-5.144198-2.516416-.850227-2.321528.119932-4.497425 2.357936-5.319812 2.195172-.807394 4.287545.194889 5.197738 2.542116.822387 2.235863-.09209 4.441743-2.368643 5.276979zm25.284094-9.296392c-2.150197.790262-4.319669-.27627-5.142055-2.516416-.85237-2.319386.117789-4.493142 2.355794-5.319811 2.195171-.807395 4.287545.194888 5.195596 2.542116.82667 2.235863-.087807 4.443884-2.368644 5.27912zm25.281953-9.294464c-2.152339.790262-4.319669-.282695-5.142056-2.520699-.852369-2.315103.119932-4.493142 2.357936-5.315528 2.19303-.805253 4.285403.190605 5.197738 2.542116.822386 2.235863-.094232 4.441742-2.370785 5.27912zm25.286236-9.298533c-2.152339.790262-4.319669-.278412-5.139914-2.514274-.854511-2.321528.11779-4.499567 2.353652-5.324095 2.195172-.805253 4.285404.19703 5.197739 2.544258.824527 2.238004-.089949 4.443884-2.370786 5.281262zm25.281953-9.294249c-2.152339.790261-4.31967-.280554-5.142056-2.518558-.854511-2.32367.11779-4.499567 2.355794-5.319811 2.19303-.807395 4.287545.194888 5.197738 2.537832.822387 2.240146-.09209 4.446026-2.368643 5.281262zm442.617283-359.832541c0 2.291545-1.751854 3.957734-4.137631 3.957734-2.471442 0-4.180463-1.666189-4.180463-4.047683 0-2.338661 1.664047-3.957734 4.180463-4.000566 2.385777 0 4.137631 1.619073 4.137631 4.045541zm0-26.937434c0 2.291545-1.751854 3.957734-4.137631 3.957734-2.471442 0-4.180463-1.666189-4.180463-4.049824 0-2.338661 1.664047-3.957734 4.180463-4.000566 2.385777 0 4.137631 1.619073 4.137631 4.047682zm0-26.941716c0 2.293686-1.751854 3.957734-4.137631 3.957734-2.471442 0-4.180463-1.664048-4.180463-4.045541 0-2.338661 1.664047-3.957734 4.180463-4.002708 2.385777 0 4.137631 1.619073 4.137631 4.04554zm0-26.937434c0 2.291545-1.751854 3.957734-4.137631 3.957734-2.471442 0-4.180463-1.666189-4.180463-4.047682 0-2.338661 1.664047-3.957734 4.180463-4.000567 2.385777 0 4.137631 1.619073 4.137631 4.045541z" fill="#f6388a" stroke="#f6388a" stroke-width="3"/></g></svg>