<svg xmlns="http://www.w3.org/2000/svg" xmlns:xlink="http://www.w3.org/1999/xlink" width="470" height="274" viewBox="0 0 470 274">
  <defs>
    <polygon id="lockedup-a" points="0 32.832 0 .331 20.781 .331 20.781 32.832"/>
    <polygon id="lockedup-c" points="0 32.832 0 .331 20.781 .331 20.781 32.832"/>
    <polygon id="lockedup-e" points="0 32.832 0 .331 20.781 .331 20.781 32.832"/>
  </defs>
  <g fill="none" fill-rule="evenodd" transform="translate(1 1)">
    <circle cx="136" cy="136" r="136" fill="#FFF" fill-opacity=".104" stroke="#E2E2E2" stroke-width="2"/>
    <circle cx="332" cy="136" r="136" fill="#FFF" fill-opacity=".104" stroke="#E2E2E2" stroke-width="2"/>
    <g transform="translate(223 120.084)">
      <mask id="lockedup-b" fill="#fff">
        <use xlink:href="#lockedup-a"/>
      </mask>
      <path fill="#393A3A" d="M17.912117,-9.78628983 L2.95071998,-9.78628983 C2.78448223,-9.78628983 2.61824449,-9.91096814 2.61824449,-10.1187653 L2.61824449,-22.4619179 C2.61824449,-22.6281556 2.74292279,-22.7943934 2.95071998,-22.7943934 L17.912117,-22.7943934 C18.0783548,-22.7943934 18.2445925,-22.6697151 18.2445925,-22.4619179 L18.2445925,-10.1187653 C18.2445925,-9.95252757 18.0783548,-9.78628983 17.912117,-9.78628983 M18.8679841,-25.3710784 L5.90143995,-25.3710784 C5.52740502,-25.3710784 5.23648897,-25.6619945 5.23648897,-26.0360294 L5.23648897,-31.7296722 C5.23648897,-34.5141544 7.39757966,-36.9246017 10.1820619,-37.04928 C13.1743413,-37.2155178 15.626348,-34.8050705 15.626348,-31.8543505 L15.626348,-27.3192249 C15.626348,-26.6542739 16.1250613,-26.0308824 16.7900123,-25.9893229 C17.5796415,-25.906204 18.2030331,-26.5295956 18.2030331,-27.2776654 L18.2030331,-31.6881127 C18.2030331,-36.0518536 14.6289216,-39.7506434 10.2651808,-39.6675245 C6.0676777,-39.5844056 2.61824449,-36.1349724 2.61824449,-31.8959099 L2.61824449,-26.0360294 C2.61824449,-25.6619945 2.32732843,-25.3710784 1.9532935,-25.3710784 C0.872748162,-25.3710784 0,-24.4983303 0,-23.4177849 L0,-9.12133885 C0,-8.0407935 0.872748162,-7.16804534 1.9532935,-7.16804534 L18.8264246,-7.16804534 C19.90697,-7.16804534 20.7797181,-8.0407935 20.7797181,-9.12133885 L20.7797181,-23.4177849 C20.8212776,-24.4983303 19.9485294,-25.3710784 18.8679841,-25.3710784" mask="url(#lockedup-b)"/>
      <polyline fill="#393A3A" points="15.628 -29.944 15.628 -24.748 18.201 -24.748 18.201 -29.944" mask="url(#lockedup-b)"/>
    </g>
    <circle cx="136" cy="136" r="136" fill="#FFF" fill-opacity=".104" stroke="#131212" stroke-width="2"/>
    <circle cx="332" cy="136" r="136" fill="#FFF" fill-opacity=".104" stroke="#131212" stroke-width="2"/>
    <circle cx="379.213" cy="232.213" r="6.213" fill="#7B1173"/>
    <circle cx="318.213" cy="125.213" r="6.213" fill="#7B1173"/>
    <circle cx="368.213" cy="95.213" r="6.213" fill="#7B1173"/>
    <circle cx="376.301" cy="154.301" r="4.301" fill="#7B1173"/>
    <circle cx="296.301" cy="234.301" r="4.301" fill="#7B1173"/>
    <circle cx="305.301" cy="46.515" r="4.301" fill="#7B1173"/>
    <circle cx="331.735" cy="204.735" r="5.735" fill="#7B1173"/>
    <circle cx="405.301" cy="170.301" r="4.301" fill="#7B1173"/>
    <circle cx="384.213" cy="52.213" r="6.213" fill="#7B1173"/>
    <circle cx="434.301" cy="129.875" r="4.301" fill="#7B1173"/>
    <circle cx="55.213" cy="160.213" r="6.213" fill="#F6388A"/>
    <circle cx="75.213" cy="220.213" r="6.213" fill="#F6388A"/>
    <circle cx="155.213" cy="230.213" r="6.213" fill="#F6388A"/>
    <circle cx="83.301" cy="141.301" r="4.301" fill="#F6388A"/>
    <circle cx="63.301" cy="101.301" r="4.301" fill="#F6388A"/>
    <circle cx="106.213" cy="81.213" r="6.213" fill="#F6388A"/>
    <circle cx="66.213" cy="51.213" r="6.213" fill="#F6388A"/>
    <circle cx="123.301" cy="199.301" r="4.301" fill="#F6388A"/>
    <circle cx="140.301" cy="141.301" r="4.301" fill="#F6388A"/>
    <circle cx="175.735" cy="65.735" r="5.735" fill="#F6388A"/>
    <g transform="translate(224 118)">
      <mask id="lockedup-d" fill="#fff">
        <use xlink:href="#lockedup-c"/>
      </mask>
      <path fill="#131212" d="M17.912117,30.2137102 L2.95071998,30.2137102 C2.78448223,30.2137102 2.61824449,30.0890319 2.61824449,29.8812347 L2.61824449,17.5380821 C2.61824449,17.3718444 2.74292279,17.2056066 2.95071998,17.2056066 L17.912117,17.2056066 C18.0783548,17.2056066 18.2445925,17.3302849 18.2445925,17.5380821 L18.2445925,29.8812347 C18.2445925,30.0474724 18.0783548,30.2137102 17.912117,30.2137102 M18.8679841,14.6289216 L5.90143995,14.6289216 C5.52740502,14.6289216 5.23648897,14.3380055 5.23648897,13.9639706 L5.23648897,8.27032782 C5.23648897,5.48584559 7.39757966,3.07539828 10.1820619,2.95071998 C13.1743413,2.78448223 15.626348,5.19492953 15.626348,8.14564951 L15.626348,10.6807751 C15.626348,11.3457261 16.1250613,11.9691176 16.7900123,12.0106771 C17.5796415,12.093796 18.2030331,11.4704044 18.2030331,10.7223346 L18.2030331,8.31188725 C18.2030331,3.94814645 14.6289216,0.249356618 10.2651808,0.33247549 C6.0676777,0.415594363 2.61824449,3.86502757 2.61824449,8.10409007 L2.61824449,13.9639706 C2.61824449,14.3380055 2.32732843,14.6289216 1.9532935,14.6289216 C0.872748162,14.6289216 0,15.5016697 0,16.5822151 L0,30.8786612 C0,31.9592065 0.872748162,32.8319547 1.9532935,32.8319547 L18.8264246,32.8319547 C19.90697,32.8319547 20.7797181,31.9592065 20.7797181,30.8786612 L20.7797181,16.5822151 C20.8212776,15.5016697 19.9485294,14.6289216 18.8679841,14.6289216" mask="url(#lockedup-d)" opacity=".657"/>
    </g>
    <g transform="translate(223 120.084)">
      <mask id="lockedup-f" fill="#fff">
        <use xlink:href="#lockedup-e"/>
      </mask>
      <polyline fill="#393A3A" points="15.628 -29.944 15.628 -24.748 18.201 -24.748 18.201 -29.944" mask="url(#lockedup-f)"/>
    </g>
  </g>
</svg>
