<svg xmlns="http://www.w3.org/2000/svg" xmlns:xlink="http://www.w3.org/1999/xlink" width="104" height="104" viewBox="0 0 104 104">
  <defs>
    <circle id="lock-b" cx="34" cy="34" r="34"/>
    <filter id="lock-a" width="185.3%" height="185.3%" x="-42.6%" y="-36.8%" filterUnits="objectBoundingBox">
      <feOffset dy="4" in="SourceAlpha" result="shadowOffsetOuter1"/>
      <feGaussianBlur in="shadowOffsetOuter1" result="shadowBlurOuter1" stdDeviation="9"/>
      <feColorMatrix in="shadowBlurOuter1" values="0 0 0 0 0   0 0 0 0 0   0 0 0 0 0  0 0 0 0.05 0"/>
    </filter>
    <polygon id="lock-c" points="0 32.832 0 .331 20.781 .331 20.781 32.832"/>
  </defs>
  <g fill="none" fill-rule="evenodd" transform="translate(18 14)">
    <use fill="#000" filter="url(#lock-a)" xlink:href="#lock-b"/>
    <use fill="#FFF" xlink:href="#lock-b"/>
    <g transform="translate(23 15.084)">
      <mask id="lock-d" fill="#fff">
        <use xlink:href="#lock-c"/>
      </mask>
      <path fill="#000" d="M17.912117,30.2137102 L2.95071998,30.2137102 C2.78448223,30.2137102 2.61824449,30.0890319 2.61824449,29.8812347 L2.61824449,17.5380821 C2.61824449,17.3718444 2.74292279,17.2056066 2.95071998,17.2056066 L17.912117,17.2056066 C18.0783548,17.2056066 18.2445925,17.3302849 18.2445925,17.5380821 L18.2445925,29.8812347 C18.2445925,30.0474724 18.0783548,30.2137102 17.912117,30.2137102 M18.8679841,14.6289216 L5.90143995,14.6289216 C5.52740502,14.6289216 5.23648897,14.3380055 5.23648897,13.9639706 L5.23648897,8.27032782 C5.23648897,5.48584559 7.39757966,3.07539828 10.1820619,2.95071998 C13.1743413,2.78448223 15.626348,5.19492953 15.626348,8.14564951 L15.626348,10.6807751 C15.626348,11.3457261 16.1250613,11.9691176 16.7900123,12.0106771 C17.5796415,12.093796 18.2030331,11.4704044 18.2030331,10.7223346 L18.2030331,8.31188725 C18.2030331,3.94814645 14.6289216,0.249356618 10.2651808,0.33247549 C6.0676777,0.415594363 2.61824449,3.86502757 2.61824449,8.10409007 L2.61824449,13.9639706 C2.61824449,14.3380055 2.32732843,14.6289216 1.9532935,14.6289216 C0.872748162,14.6289216 0,15.5016697 0,16.5822151 L0,30.8786612 C0,31.9592065 0.872748162,32.8319547 1.9532935,32.8319547 L18.8264246,32.8319547 C19.90697,32.8319547 20.7797181,31.9592065 20.7797181,30.8786612 L20.7797181,16.5822151 C20.8212776,15.5016697 19.9485294,14.6289216 18.8679841,14.6289216" mask="url(#lock-d)" opacity=".113"/>
    </g>
    <path fill="#000" d="M33.4314185,36.1967255 L33.4314185,36.1967255 C32.7249081,36.1967255 32.143076,36.7785576 32.143076,37.485068 L32.143076,41.3916551 L34.719761,41.3916551 L34.719761,37.485068 C34.719761,36.7785576 34.1379289,36.1967255 33.4314185,36.1967255" opacity=".113"/>
  </g>
</svg>
