<svg height="16" viewBox="0 0 16 16" width="16" xmlns="http://www.w3.org/2000/svg"><path d="m342.69909 43.707242c-.18748.1874457-.441802.292758-.706993.292758-.26519 0-.519513-.1053123-.706992-.292758l-6.293925-6.290226-6.28813 6.2847844c-.391061.3866911-1.021229.3850087-1.410218-.0037649-.388988-.3887736-.390649-1.0185716-.003717-1.4093893l6.28833-6.2845847-6.287181-6.2834864c-.38082-.3917439-.376336-1.0165012.010067-1.4027454s1.011527-.3908357 1.403568-.010309l6.287431 6.2834365 6.292676-6.2889279c.251432-.2579779.622317-.3607731.970783-.2690639s.620591.3637318.71228.7120123-.011245.7189263-.269428.9701558l-6.292326 6.288928 6.293925 6.290226c.187499.1873682.292825.4415147.292796.7065082-.000028.2649936-.105407.5191178-.292946.7064463z" fill="#8b98a9" transform="translate(-327 -28)"/></svg>