<svg height="13" viewBox="0 0 18 13" width="18" xmlns="http://www.w3.org/2000/svg"><path d="m8.31934 7.80664c.41211.26904.94921.26904 1.36132 0l7.77244-5.60596c.3418-.22265.5469-.59765.5469-.99951 0-.663572-.5498-1.20117-1.2275-1.20117h-15.54496c-.677735 0-1.22754.537598-1.22754 1.20117 0 .40186.205078.77686.546875.99951zm8.45316 4.77786c.6777 0 1.2275-.5591 1.2275-1.2486v-7.40231c0-.18505-.1006-.35498-.2607-.44238-.1602-.08691-.3545-.07715-.5059.02539l-7.0986 5.38819c-.68753.46582-1.58207.46582-2.26957 0l-7.098628-5.3877c-.151368-.10303-.345704-.11279-.50586-.02588-.160156.0874-.260742.25733-.260742.44238v7.40231c0 .6895.549805 1.2486 1.22754 1.2486z" fill="#898989" fill-rule="evenodd"/></svg>