<svg xmlns="http://www.w3.org/2000/svg" width="394" height="400" viewBox="0 0 394 400">
  <path fill="#FFF" fill-rule="evenodd" d="M109.32742,248.326194 C109.32742,260.027046 99.8609285,269.518647 88.1670274,269.518647 C76.4833438,269.518647 67.006635,260.027046 67.006635,248.326194 C67.006635,236.625342 76.4833438,227.14397 88.1670274,227.14397 C99.8609285,227.14397 109.32742,236.625342 109.32742,248.326194 Z M445.606089,248.326194 C445.606089,260.027046 436.12938,269.518647 424.450805,269.518647 C412.762013,269.518647 403.285304,260.027046 403.285304,248.326194 C403.285304,236.625342 412.762013,227.14397 424.450805,227.14397 C436.12938,227.14397 445.606089,236.625342 445.606089,248.326194 Z M277.466754,331.932844 C277.466754,343.632284 267.991189,353.122739 256.308916,353.122739 C244.621534,353.122739 235.145969,343.632284 235.145969,331.932844 C235.145969,320.233404 244.621534,310.748062 256.308916,310.748062 C267.991189,310.748062 277.466754,320.233404 277.466754,331.932844 Z M192.825184,290.705985 C192.825184,302.401723 183.354728,311.893324 171.662238,311.893324 C159.974857,311.893324 150.5044,302.401723 150.5044,290.705985 C150.5044,279.000019 159.974857,269.518647 171.662238,269.518647 C183.354728,269.518647 192.825184,279.000019 192.825184,290.705985 Z M360.964519,290.705985 C360.964519,302.401723 351.488954,311.893324 339.80668,311.893324 C328.114191,311.893324 318.643734,302.401723 318.643734,290.705985 C318.643734,279.000019 328.114191,269.518647 339.80668,269.518647 C351.488954,269.518647 360.964519,279.000019 360.964519,290.705985 Z M102.46459,312.47111 C102.46459,320.363599 96.0689217,326.781724 88.1747516,326.781724 C80.2702826,326.781724 73.8694649,320.363599 73.8694649,312.47111 C73.8694649,304.558 80.2702826,298.150185 88.1747516,298.150185 C96.0689217,298.150185 102.46459,304.558 102.46459,312.47111 Z M438.743259,312.47111 C438.743259,320.363599 432.338445,326.781724 424.445696,326.781724 C416.547799,326.781724 410.148134,320.363599 410.148134,312.47111 C410.148134,304.558 416.547799,298.150185 424.445696,298.150185 C432.338445,298.150185 438.743259,304.558 438.743259,312.47111 Z M270.603924,397.204998 C270.603924,405.112953 264.196269,411.531078 256.311508,411.531078 C248.421601,411.531078 242.008799,405.112953 242.008799,397.204998 C242.008799,389.302199 248.421601,382.899539 256.311508,382.899539 C264.196269,382.899539 270.603924,389.302199 270.603924,397.204998 Z M185.962355,354.845789 C185.962355,362.751435 179.562689,369.156401 171.669941,369.156401 C163.772043,369.156401 157.36723,362.751435 157.36723,354.845789 C157.36723,346.934985 163.772043,340.524862 171.669941,340.524862 C179.562689,340.524862 185.962355,346.934985 185.962355,354.845789 Z M354.101689,354.845789 C354.101689,362.751435 347.692881,369.156401 339.811848,369.156401 C331.910225,369.156401 325.506564,362.751435 325.506564,354.845789 C325.506564,346.934985 331.910225,340.524862 339.811848,340.524862 C347.692881,340.524862 354.101689,346.934985 354.101689,354.845789 Z M95.6017599,362.849552 C95.6017599,366.968517 92.2752105,370.301662 88.1696592,370.301662 C84.0588442,370.301662 80.7322949,366.968517 80.7322949,362.849552 C80.7322949,358.741134 84.0588442,355.413262 88.1696592,355.413262 C92.2752105,355.413262 95.6017599,358.741134 95.6017599,362.849552 Z M431.880429,362.849552 C431.880429,366.968517 428.546255,370.301662 424.44833,370.301662 C420.334602,370.301662 417.010964,366.968517 417.010964,362.849552 C417.010964,358.741134 420.334602,355.413262 424.44833,355.413262 C428.546255,355.413262 431.880429,358.741134 431.880429,362.849552 Z M263.741094,447.601544 C263.741094,451.71378 260.406921,455.051017 256.308995,455.051017 C252.200535,455.051017 248.871629,451.71378 248.871629,447.601544 C248.871629,443.489309 252.200535,440.162617 256.308995,440.162617 C260.406921,440.162617 263.741094,443.489309 263.741094,447.601544 Z M179.099525,405.23214 C179.099525,409.339103 175.767712,412.67634 171.66216,412.67634 C167.561872,412.67634 164.23006,409.339103 164.23006,405.23214 C164.23006,401.114632 167.561872,397.78794 171.66216,397.78794 C175.767712,397.78794 179.099525,401.114632 179.099525,405.23214 Z M347.238859,405.23214 C347.238859,409.339103 343.904686,412.67634 339.80676,412.67634 C335.687766,412.67634 332.369394,409.339103 332.369394,405.23214 C332.369394,401.114632 335.687766,397.78794 339.80676,397.78794 C343.904686,397.78794 347.238859,401.114632 347.238859,405.23214 Z M284.329584,85.1320518 C284.329584,100.948194 271.524955,113.763077 255.742148,113.763077 C239.943963,113.763077 227.139334,100.948194 227.139334,85.1320518 C227.139334,69.3200153 239.943963,56.5 255.742148,56.5 C271.524955,56.5 284.329584,69.3200153 284.329584,85.1320518 Z M284.329584,169.880893 C284.329584,185.694943 271.524955,198.512431 255.742148,198.512431 C239.943963,198.512431 227.139334,185.694943 227.139334,169.880893 C227.139334,154.071973 239.943963,141.249354 255.742148,141.249354 C271.524955,141.249354 284.329584,154.071973 284.329584,169.880893 Z M284.329584,253.490117 C284.329584,269.296738 271.524955,282.116524 255.742148,282.116524 C239.943963,282.116524 227.139334,269.296738 227.139334,253.490117 C227.139334,237.673232 239.943963,224.853447 255.742148,224.853447 C271.524955,224.853447 284.329584,237.673232 284.329584,253.490117 Z M452.468919,169.880893 C452.468919,185.694943 439.666585,198.512431 423.876356,198.512431 C408.081003,198.512431 395.278669,185.694943 395.278669,169.880893 C395.278669,154.071973 408.081003,141.249354 423.876356,141.249354 C439.666585,141.249354 452.468919,154.071973 452.468919,169.880893 Z M116.19025,169.880893 C116.19025,185.694943 103.390747,198.512431 87.5976879,198.512431 C71.8046288,198.512431 59,185.694943 59,169.880893 C59,154.071973 71.8046288,141.249354 87.5976879,141.249354 C103.390747,141.249354 116.19025,154.071973 116.19025,169.880893 Z M200.831819,127.506216 C200.831819,143.317969 188.031169,156.137754 172.236695,156.137754 C156.44222,156.137754 143.64157,143.317969 143.64157,127.506216 C143.64157,111.684199 156.44222,98.8746771 172.236695,98.8746771 C188.031169,98.8746771 200.831819,111.684199 200.831819,127.506216 Z M200.831819,211.107742 C200.831819,226.920912 188.031169,239.741847 172.236695,239.741847 C156.44222,239.741847 143.64157,226.920912 143.64157,211.107742 C143.64157,195.299704 156.44222,182.47877 172.236695,182.47877 C188.031169,182.47877 200.831819,195.299704 200.831819,211.107742 Z M368.971154,127.506216 C368.971154,143.317969 356.166525,156.137754 340.373466,156.137754 C324.580407,156.137754 311.780904,143.317969 311.780904,127.506216 C311.780904,111.684199 324.580407,98.8746771 340.373466,98.8746771 C356.166525,98.8746771 368.971154,111.684199 368.971154,127.506216 Z M368.971154,211.107742 C368.971154,226.920912 356.166525,239.741847 340.373466,239.741847 C324.580407,239.741847 311.780904,226.920912 311.780904,211.107742 C311.780904,195.299704 324.580407,182.47877 340.373466,182.47877 C356.166525,182.47877 368.971154,195.299704 368.971154,211.107742 Z" transform="translate(-59 -56)"/>
</svg>
