<svg height="400" viewBox="0 0 394 400" width="394" xmlns="http://www.w3.org/2000/svg"><path d="m109.32742 248.326194c0 11.700852-9.4664915 21.192453-21.1603926 21.192453-11.6836836 0-21.1603924-9.491601-21.1603924-21.192453s9.4767088-21.182224 21.1603924-21.182224c11.6939011 0 21.1603926 9.481372 21.1603926 21.182224zm336.278669 0c0 11.700852-9.476709 21.192453-21.155284 21.192453-11.688792 0-21.165501-9.491601-21.165501-21.192453s9.476709-21.182224 21.165501-21.182224c11.678575 0 21.155284 9.481372 21.155284 21.182224zm-168.139335 83.60665c0 11.69944-9.475565 21.189895-21.157838 21.189895-11.687382 0-21.162947-9.490455-21.162947-21.189895s9.475565-21.184782 21.162947-21.184782c11.682273 0 21.157838 9.485342 21.157838 21.184782zm-84.64157-41.226859c0 11.695738-9.470456 21.187339-21.162946 21.187339-11.687381 0-21.157838-9.491601-21.157838-21.187339 0-11.705966 9.470457-21.187338 21.157838-21.187338 11.69249 0 21.162946 9.481372 21.162946 21.187338zm168.139335 0c0 11.695738-9.475565 21.187339-21.157839 21.187339-11.692489 0-21.162946-9.491601-21.162946-21.187339 0-11.705966 9.470457-21.187338 21.162946-21.187338 11.682274 0 21.157839 9.481372 21.157839 21.187338zm-258.499929 21.765125c0 7.892489-6.3956683 14.310614-14.2898384 14.310614-7.904469 0-14.3052867-6.418125-14.3052867-14.310614 0-7.91311 6.4008177-14.320925 14.3052867-14.320925 7.8941701 0 14.2898384 6.407815 14.2898384 14.320925zm336.278669 0c0 7.892489-6.404814 14.310614-14.297563 14.310614-7.897897 0-14.297562-6.418125-14.297562-14.310614 0-7.91311 6.399665-14.320925 14.297562-14.320925 7.892749 0 14.297563 6.407815 14.297563 14.320925zm-168.139335 84.733888c0 7.907955-6.407655 14.32608-14.292416 14.32608-7.889907 0-14.302709-6.418125-14.302709-14.32608 0-7.902799 6.412802-14.305459 14.302709-14.305459 7.884761 0 14.292416 6.40266 14.292416 14.305459zm-84.641569-42.359209c0 7.905646-6.399666 14.310612-14.292414 14.310612-7.897898 0-14.302711-6.404966-14.302711-14.310612 0-7.910804 6.404813-14.320927 14.302711-14.320927 7.892748 0 14.292414 6.410123 14.292414 14.320927zm168.139334 0c0 7.905646-6.408808 14.310612-14.289841 14.310612-7.901623 0-14.305284-6.404966-14.305284-14.310612 0-7.910804 6.403661-14.320927 14.305284-14.320927 7.881033 0 14.289841 6.410123 14.289841 14.320927zm-258.4999291 8.003763c0 4.118965-3.3265494 7.45211-7.4321007 7.45211-4.110815 0-7.4373643-3.333145-7.4373643-7.45211 0-4.108418 3.3265493-7.43629 7.4373643-7.43629 4.1055513 0 7.4321007 3.327872 7.4321007 7.43629zm336.2786691 0c0 4.118965-3.334174 7.45211-7.432099 7.45211-4.113728 0-7.437366-3.333145-7.437366-7.45211 0-4.108418 3.323638-7.43629 7.437366-7.43629 4.097925 0 7.432099 3.327872 7.432099 7.43629zm-168.139335 84.751992c0 4.112236-3.334173 7.449473-7.432099 7.449473-4.10846 0-7.437366-3.337237-7.437366-7.449473 0-4.112235 3.328906-7.438927 7.437366-7.438927 4.097926 0 7.432099 3.326692 7.432099 7.438927zm-84.641569-42.369404c0 4.106963-3.331813 7.4442-7.437365 7.4442-4.100288 0-7.4321-3.337237-7.4321-7.4442 0-4.117508 3.331812-7.4442 7.4321-7.4442 4.105552 0 7.437365 3.326692 7.437365 7.4442zm168.139334 0c0 4.106963-3.334173 7.4442-7.432099 7.4442-4.118994 0-7.437366-3.337237-7.437366-7.4442 0-4.117508 3.318372-7.4442 7.437366-7.4442 4.097926 0 7.432099 3.326692 7.432099 7.4442zm-62.909275-320.1000882c0 15.8161422-12.804629 28.6310252-28.587436 28.6310252-15.798185 0-28.602814-12.814883-28.602814-28.6310252 0-15.8120365 12.804629-28.6320518 28.602814-28.6320518 15.782807 0 28.587436 12.8200153 28.587436 28.6320518zm0 84.7488412c0 15.81405-12.804629 28.631538-28.587436 28.631538-15.798185 0-28.602814-12.817488-28.602814-28.631538 0-15.80892 12.804629-28.631539 28.602814-28.631539 15.782807 0 28.587436 12.822619 28.587436 28.631539zm0 83.609224c0 15.806621-12.804629 28.626407-28.587436 28.626407-15.798185 0-28.602814-12.819786-28.602814-28.626407 0-15.816885 12.804629-28.63667 28.602814-28.63667 15.782807 0 28.587436 12.819785 28.587436 28.63667zm168.139335-83.609224c0 15.81405-12.802334 28.631538-28.592563 28.631538-15.795353 0-28.597687-12.817488-28.597687-28.631538 0-15.80892 12.802334-28.631539 28.597687-28.631539 15.790229 0 28.592563 12.822619 28.592563 28.631539zm-336.278669 0c0 15.81405-12.799503 28.631538-28.5925621 28.631538s-28.5976879-12.817488-28.5976879-28.631538c0-15.80892 12.8046288-28.631539 28.5976879-28.631539s28.5925621 12.822619 28.5925621 28.631539zm84.641569-42.374677c0 15.811753-12.80065 28.631538-28.595124 28.631538-15.794475 0-28.595125-12.819785-28.595125-28.631538 0-15.822017 12.80065-28.6315389 28.595125-28.6315389 15.794474 0 28.595124 12.8095219 28.595124 28.6315389zm0 83.601526c0 15.81317-12.80065 28.634105-28.595124 28.634105-15.794475 0-28.595125-12.820935-28.595125-28.634105 0-15.808038 12.80065-28.628972 28.595125-28.628972 15.794474 0 28.595124 12.820934 28.595124 28.628972zm168.139335-83.601526c0 15.811753-12.804629 28.631538-28.597688 28.631538s-28.592562-12.819785-28.592562-28.631538c0-15.822017 12.799503-28.6315389 28.592562-28.6315389s28.597688 12.8095219 28.597688 28.6315389zm0 83.601526c0 15.81317-12.804629 28.634105-28.597688 28.634105s-28.592562-12.820935-28.592562-28.634105c0-15.808038 12.799503-28.628972 28.592562-28.628972s28.597688 12.820934 28.597688 28.628972z" fill="#fff" fill-rule="evenodd" transform="translate(-59 -56)"/></svg>