<svg enable-background="new 0 0 120 121" viewBox="0 0 120 121" xmlns="http://www.w3.org/2000/svg"><path d="m708 364.7c10.9 0 21.1 2.7 30.4 8.2 9 5.2 16.1 12.3 21.3 21.3 5.5 9.3 8.2 19.4 8.2 30.4 0 10.9-2.7 21.1-8.2 30.4-5.2 9-12.3 16.1-21.3 21.3-9.3 5.5-19.4 8.2-30.4 8.2-10.9 0-21.1-2.7-30.4-8.2-9-5.3-16.1-12.4-21.3-21.5-5.5-9.3-8.2-19.4-8.2-30.2s2.7-20.9 8.2-30.2c5.3-9 12.4-16.2 21.5-21.5 9.3-5.5 19.4-8.2 30.2-8.2zm0 108c8.6 0 16.7-2.2 24.2-6.6 7.3-4.2 13.1-10 17.3-17.3 4.4-7.5 6.6-15.6 6.6-24.2s-2.2-16.7-6.6-24.2c-4.2-7.3-10-13.1-17.3-17.3-7.5-4.4-15.6-6.6-24.2-6.6s-16.7 2.2-24.2 6.6c-7.3 4.2-13.1 10-17.3 17.3-4.4 7.5-6.6 15.6-6.6 24.2s2.2 16.7 6.6 24.2c4.2 7.3 10 13.1 17.3 17.3 7.5 4.4 15.6 6.6 24.2 6.6zm-12.1-21.2v-54l36 27.1z" fill="#141414" transform="translate(-648 -364)"/></svg>