<?xml version="1.0" encoding="utf-8"?>
<!-- Generator: Adobe Illustrator 22.0.1, SVG Export Plug-In . SVG Version: 6.00 Build 0)  -->
<svg version="1.1" id="Layer_1" xmlns="http://www.w3.org/2000/svg" xmlns:xlink="http://www.w3.org/1999/xlink" x="0px" y="0px"
	 viewBox="0 0 120 121" style="enable-background:new 0 0 120 121;" xml:space="preserve">
<style type="text/css">
	.st0{enable-background:new    ;}
	.st1{fill:#141414;}
</style>
<title>play_circle_outline - material</title>
<desc>Created with Sketch.</desc>
<g id="token-oceanprotocol-com" transform="translate(-660.000000, -3702.000000)">
	<g id="project_x2B_why-ocean" transform="translate(12.000000, 824.000000)">
		<g id="video" transform="translate(0.000000, 2514.000000)">
			<g class="st0">
				<path class="st1" d="M708,364.7c10.9,0,21.1,2.7,30.4,8.2c9,5.2,16.1,12.3,21.3,21.3c5.5,9.3,8.2,19.4,8.2,30.4
					c0,10.9-2.7,21.1-8.2,30.4c-5.2,9-12.3,16.1-21.3,21.3c-9.3,5.5-19.4,8.2-30.4,8.2c-10.9,0-21.1-2.7-30.4-8.2
					c-9-5.3-16.1-12.4-21.3-21.5c-5.5-9.3-8.2-19.4-8.2-30.2c0-10.8,2.7-20.9,8.2-30.2c5.3-9,12.4-16.2,21.5-21.5
					C687.1,367.4,697.2,364.7,708,364.7z M708,472.7c8.6,0,16.7-2.2,24.2-6.6c7.3-4.2,13.1-10,17.3-17.3c4.4-7.5,6.6-15.6,6.6-24.2
					c0-8.6-2.2-16.7-6.6-24.2c-4.2-7.3-10-13.1-17.3-17.3c-7.5-4.4-15.6-6.6-24.2-6.6c-8.6,0-16.7,2.2-24.2,6.6
					c-7.3,4.2-13.1,10-17.3,17.3c-4.4,7.5-6.6,15.6-6.6,24.2c0,8.6,2.2,16.7,6.6,24.2c4.2,7.3,10,13.1,17.3,17.3
					C691.3,470.5,699.4,472.7,708,472.7z M695.9,451.5v-54l36,27.1L695.9,451.5z"/>
			</g>
		</g>
	</g>
</g>
</svg>
