<svg xmlns="http://www.w3.org/2000/svg" width="237" height="108" viewBox="0 0 237 108">
  <path d="M0.331938633,107.590183 C0,107.182605 0,107.057197 0,97.8710313 C0,87.9951193 0.0158066016,87.7756546 0.790330079,85.424247 C2.41841004,80.5803473 6.87587169,76.2380813 11.7759182,74.7645325 C16.2017666,73.4163921 21.1176197,73.8709976 24.9744305,75.9715884 C29.1157601,78.2132637 32.213854,82.1166003 33.4783821,86.6783311 L33.9051604,88.1675559 L33.9525802,97.5888624 L34,107.010169 L33.5890284,107.511803 L33.1622501,107.99776 L29.9377034,107.99776 C25.669921,107.99776 25.9228266,108.201549 25.9228266,104.721466 C25.9228266,103.341973 25.8754068,102.119241 25.827987,101.978157 C25.7331474,101.758692 24.8005579,101.72734 16.9130637,101.72734 L8.07717341,101.72734 L8.0297536,104.376592 C7.9823338,106.790704 7.9507206,107.072873 7.65039517,107.48045 L7.31845653,107.91938 L3.9832636,107.966408 L0.663877266,107.99776 L0.331938633,107.590183 Z M25.8596002,93.7952581 C26.0176662,93.1995682 25.7963738,90.0800341 25.5276616,88.9356824 C24.8005579,85.8318243 22.4295676,83.0728394 19.6950256,82.1322764 C17.6875872,81.4582062 15.2691771,81.5992906 13.3091585,82.5241776 C11.8707578,83.1982478 9.9739656,85.0166697 9.29428173,86.3648101 C8.34588563,88.2145841 8.18781962,88.9356824 8.10878661,91.6633152 L8.013947,94.2028354 L16.8972571,94.2028354 L25.7647606,94.2028354 L25.8596002,93.7952581 Z M55.9811321,107.612494 C53.3081761,106.837482 50.9339623,105.395961 48.7955975,103.272428 C46.3899371,100.900892 45.0534591,98.4828558 44.3301887,95.2743072 C43.8899371,93.3677783 43.8899371,89.9422264 44.3301887,88.0201973 C45.4150943,83.184124 48.7955975,78.9835604 53.3710692,76.7360263 C56.4213836,75.2325035 58.009434,75 65.2893082,75 C71.5157233,75 71.7358491,75.0310005 72.3176101,75.9610146 C72.6163522,76.4260216 72.6320755,76.6740254 72.6006289,78.828558 C72.5534591,80.9365899 72.5220126,81.2310944 72.2232704,81.6186003 C71.6572327,82.3471113 71.1383648,82.4091123 65.163522,82.4246125 C59.2044025,82.4401127 58.6540881,82.5021137 57.0188679,83.3081259 C55.745283,83.9436355 53.7955975,85.9896665 53.1037736,87.4001879 C52.5534591,88.531705 52.0345912,90.5932363 52.0345912,91.6782527 C52.0345912,92.6702677 52.5534591,94.7627994 53.072327,95.8633161 C54.0628931,97.9403476 56.327044,99.9398779 58.4496855,100.575388 C59.3773585,100.854392 59.9119497,100.885392 65.1792453,100.885392 L70.9025157,100.885392 L70.8710692,98.1418506 L70.8238994,95.3828088 L69.5660377,95.3053077 C68.1352201,95.196806 67.5534591,94.9178018 67.3018868,94.1892907 C67.0345912,93.4607797 67.081761,89.6787224 67.3490566,89.0277125 C67.7735849,88.0356975 67.9937107,88.004697 73.2610063,88.0511977 L77.9779874,88.0976984 L78.4811321,88.6092062 L79,89.1052137 L79,98.0798497 C79,106.976984 79,107.069986 78.6698113,107.503992 L78.3396226,107.937999 L67.8207547,107.969 L57.3018868,108 L55.9811321,107.612494 Z M101.666266,107.775353 C98.6880556,107.034146 95.3806746,104.936687 93.248903,102.444969 C91.3209037,100.189807 90.1452943,97.9504151 89.4085791,95.1117493 C89.0637337,93.7712682 89.0010345,93.2508462 89.0010345,90.8222099 C88.9853597,87.936233 89.1421076,86.7849964 89.8631481,84.5929156 C91.1484809,80.6818649 94.7380082,76.5657996 98.5626573,74.6102742 C102.026786,72.828223 107.40324,72.4812749 111.306263,73.7902152 C116.949188,75.6826591 121.447853,80.8711093 122.654812,86.8796186 C123.203429,89.6394325 123.093706,93.0773722 122.356991,95.6321714 C120.726812,101.356814 116.196798,106.024842 110.757645,107.617649 C109.472312,107.996138 109.190166,108.011908 105.914134,107.996138 C103.735338,107.980368 102.152185,107.901516 101.666266,107.775353 Z M109.002068,100.3002 C112.027303,99.1016518 114.472571,96.0264305 115.068213,92.6515723 C115.710879,88.9455364 114.53527,85.3183524 111.88623,82.8266346 C109.707434,80.7922575 106.98002,80.0195096 104.080184,80.6345538 C102.434331,80.9972722 101.211697,81.7069387 99.7382667,83.1735827 C98.656706,84.2775083 98.3432102,84.7033081 97.7632429,85.949167 C96.9638286,87.6839072 96.7287067,88.7720624 96.7287067,90.7433581 C96.7287067,95.1748308 99.3463969,99.0227999 103.296444,100.410592 C104.205582,100.725999 104.566102,100.75754 106.211956,100.710229 C107.701061,100.662918 108.281028,100.584066 109.002068,100.3002 Z M134.614426,107.736479 C134.487721,107.581467 134.281825,107.302444 134.186796,107.11643 C133.917547,106.604889 133.949223,76.5944961 134.218472,76.0829553 C134.313501,75.8814392 134.614426,75.5559133 134.851999,75.3853997 C135.295468,75.0598737 135.422173,75.0598737 145.780337,75.01337 C157.658965,74.9668663 157.78567,74.9823675 160.113881,76.0829553 C161.903594,76.920022 163.946718,78.8576765 164.786141,80.4853063 C165.720594,82.3299533 165.863137,82.9965065 165.958166,85.988245 C166.053195,89.1194947 165.894813,90.4836034 165.213772,92.1267344 L164.754465,93.2583247 L166.069033,94.5449272 C167.47863,95.9245372 168.159672,97.0561275 168.634817,98.7767646 C168.967419,100.047866 169.141638,105.61281 168.856551,106.7444 C168.555626,107.984499 168.508112,108 164.80198,108 L161.602669,108 L161.190877,107.519462 L160.779084,107.038923 L160.779084,104.000681 C160.779084,100.60591 160.668217,100.156375 159.68625,99.2418017 L159.179429,98.7767646 L150.753522,98.7767646 L142.327615,98.7767646 L142.248425,102.915595 C142.169234,106.806405 142.153396,107.069926 141.836632,107.488459 L141.504031,107.922494 L138.178015,107.968998 C135.168762,108 134.836161,107.984499 134.614426,107.736479 Z M155.79006,91.2586652 C156.566131,91.0881516 157.358039,90.2820874 157.595612,89.4450206 C157.817346,88.6854601 157.817346,84.9961659 157.595612,84.2366054 C157.500583,83.8955782 157.18382,83.3840374 156.898732,83.0740127 L156.376073,82.5004669 L149.312249,82.4539632 L142.248425,82.4074595 L142.248425,86.8253118 C142.248425,90.2045812 142.295939,91.2586652 142.454321,91.3051689 C142.802761,91.4601813 155.140695,91.4136776 155.79006,91.2586652 Z M181.598148,107.733549 C181.015741,107.059583 181,106.918521 181,98.1726463 C181,90.2888202 181.031481,89.4267717 181.314815,87.9221051 C181.975926,84.3798691 183.455556,81.5899665 186.037037,78.9881472 C190.507407,74.489821 196.677778,72.9381335 203.037037,74.7249251 C205.492593,75.414564 208.388889,77.2483764 210.403704,79.395661 C212.717593,81.8564179 213.976852,84.2858275 214.685185,87.6556537 C214.968519,89.0035842 215,89.7715911 215,98.0786046 L215,107.028236 L214.590741,107.514118 L214.181481,108 L210.986111,108 C207.365741,108 207.239815,107.952979 206.972222,106.824479 C206.893519,106.47966 206.814815,105.194424 206.814815,103.971882 L206.814815,101.730556 L198.015741,101.730556 L189.200926,101.730556 L189.153704,104.379396 C189.106481,106.793132 189.075,107.075257 188.775926,107.482771 L188.44537,107.921632 L185.139815,107.968653 C182.149074,108 181.818519,107.984326 181.598148,107.733549 Z M206.814815,92.1696535 C206.814815,91.0568272 206.736111,89.7715911 206.641667,89.3170564 C205.964815,85.9629038 203.650926,83.1573275 200.691667,82.1071956 C199.47963,81.6683345 196.709259,81.6369873 195.512963,82.0445012 C192.427778,83.0946331 190.066667,85.8688621 189.358333,89.3170564 C189.263889,89.7715911 189.185185,91.0568272 189.185185,92.1696535 L189.185185,94.2072228 L198,94.2072228 L206.814815,94.2072228 L206.814815,92.1696535 Z M229.430201,107.596235 L229.043459,107.192471 L229.011231,91.8028235 C228.979002,79.7675294 229.011231,76.32 229.172373,76.0249412 C229.269059,75.8230588 229.57523,75.4969412 229.816943,75.3261176 C230.235914,75.0310588 230.477628,75 233.152594,75 C235.82756,75 236.069274,75.0155294 236.488245,75.3261176 L236.939444,75.6522353 L236.987787,91.5388235 C237.020015,106.167529 237.003901,107.456471 236.746073,107.720471 C236.504359,107.968941 236.182074,108 233.152594,108 L229.816943,108 L229.430201,107.596235 Z M116.848699,61.7809626 C115.287023,61.1969693 113.946189,59.7922287 113.520277,58.2296522 C113.236336,57.2352853 113.189012,56.2251348 113.409855,55.6569251 C113.536052,55.3096859 113.488728,55.2465515 112.747326,54.8046106 C112.289865,54.552073 109.655521,52.9894965 106.879207,51.3480019 C104.102893,49.6907237 101.468549,48.1439308 101.026862,47.8913931 L100.222362,47.4494523 L99.6071563,47.9229603 C98.708009,48.6174388 97.8088618,48.9173272 96.5469007,48.9173272 C94.1018511,48.9173272 92.1142624,47.4652359 91.4201839,45.1923973 C90.6314582,42.588103 91.8618702,39.9206743 94.3857924,38.8158222 L95.1271945,38.4843666 L95.1271945,34.8067874 C95.1271945,32.7864864 95.079871,29.3140941 95.0167729,27.0886062 L94.9221258,23.0637878 L94.1964982,22.779683 C93.2184784,22.4008766 91.9407428,21.153972 91.4359584,20.0964707 C90.8680759,18.896917 90.8523014,16.9871012 91.4044093,15.7559803 C91.8776447,14.6669118 92.9029881,13.6251941 94.0229786,13.1043352 C94.7486062,12.757096 95.11142,12.6939616 96.310283,12.6939616 C97.5564695,12.6939616 97.8404108,12.7413124 98.5975874,13.1359024 C99.0708228,13.3884401 99.6071563,13.7198957 99.7806759,13.8935153 C100.111941,14.1934037 100.14349,14.1776201 104.19754,11.8732143 C109.276933,9.01638241 109.639747,8.81119559 111.721983,7.64320907 L113.409855,6.69619298 L113.315208,5.78074408 C113.062816,3.39742024 114.592944,1.02988 116.880248,0.224916323 C117.779396,-0.0749721076 119.483043,-0.0749721076 120.38219,0.224916323 C122.622171,0.998312801 124.199623,3.50790545 123.915681,5.87544569 L123.821034,6.69619298 L128.111702,9.14265122 C130.462104,10.4842574 132.71786,11.7785127 133.127997,11.9994831 C133.52236,12.2204535 134.563478,12.8044468 135.415302,13.2937384 L136.976978,14.1776201 L137.418665,13.8145973 C138.791047,12.6623944 140.952156,12.2835879 142.640029,12.9307156 C143.760019,13.3410892 144.911559,14.3670234 145.526765,15.4876591 C145.968451,16.2610555 146,16.4504588 146,17.9025501 C146,19.2441562 145.936902,19.5913955 145.621412,20.1753887 C145.006206,21.3591589 143.633823,22.542929 142.419185,22.937519 C142.151019,23.016437 142.135244,23.5372959 142.135244,30.7661854 C142.135244,37.9950749 142.151019,38.5159338 142.419185,38.5948518 C143.618048,38.9894418 145.02198,40.1889956 145.621412,41.3411985 C145.936902,41.9409753 146,42.2882146 146,43.6298207 C146,45.0345613 145.952676,45.3028825 145.574088,45.997361 C144.627617,47.8124751 142.845097,48.9173272 140.873283,48.9173272 C139.642871,48.9173272 138.507106,48.5543044 137.639508,47.9071767 C137.355567,47.6862063 137.071625,47.4968031 137.008527,47.4968031 C136.898106,47.4968031 131.676742,50.5588218 127.070584,53.3209521 L123.742162,55.3096859 L123.884132,56.0672988 C124.310044,58.3085702 122.65372,61.0075661 120.38219,61.7809626 C119.514592,62.080851 117.6532,62.0650674 116.848699,61.7809626 Z M116.706729,51.8372935 L117.369258,51.5689723 L117.369258,43.7876567 L117.369258,36.0063411 L116.896023,35.8958559 C116.627856,35.8327215 116.044199,35.5328331 115.586738,35.2329447 L114.766464,34.6805186 L114.05661,35.059325 C113.662248,35.2645119 112.163669,36.13261 110.712414,36.9691408 C104.765422,40.409966 102.746284,41.5779525 102.194176,41.8778409 C101.673618,42.1777294 101.626294,42.2566474 101.720941,42.6828046 C101.847137,43.2194471 101.847137,43.8507911 101.75249,44.6399712 L101.673618,45.1766137 L106.169354,47.8598259 C108.645952,49.3277009 111.611561,51.0954643 112.778875,51.7741591 L114.876885,53.0052801 L115.460542,52.5475556 C115.776032,52.295018 116.32814,51.979346 116.706729,51.8372935 Z M128.790006,49.2329993 C132.307722,47.1495639 135.273331,45.4133677 135.383753,45.3660169 C135.525723,45.3028825 135.588821,44.8609416 135.588821,43.7245223 L135.588821,42.1619458 L132.828281,40.5835856 C131.313928,39.7154875 128.758457,38.2476126 127.149457,37.3163801 C125.540456,36.3851476 123.836809,35.4065643 123.363573,35.1382431 L122.495975,34.664735 L121.6757,35.2329447 C121.21824,35.5328331 120.634583,35.8327215 120.366416,35.8958559 L119.89318,36.0063411 L119.89318,43.7876567 L119.89318,51.5689723 L120.587259,51.8372935 C120.965847,51.979346 121.517955,52.3108016 121.817671,52.5633392 C122.101612,52.8000932 122.354005,53.0052801 122.369779,53.0210637 C122.385554,53.0210637 125.288064,51.3164347 128.790006,49.2329993 Z M104.008246,37.8056717 C106.027383,36.6534688 108.945668,34.9646234 110.49157,34.0649581 L113.330983,32.4234636 L113.330983,30.8766706 L113.346757,29.3298777 L111.532688,28.28816 C109.245384,26.9623374 105.506824,24.7842004 102.478118,23.016437 L100.127715,21.6432637 L99.3705386,22.1641225 C98.9446267,22.4482274 98.3609697,22.7638994 98.092803,22.858601 L97.5722441,23.0322206 L97.6511166,30.6399166 C97.6984402,34.8383546 97.7930872,38.3580978 97.8561853,38.468583 C97.9350579,38.5632846 98.092803,38.6579862 98.2189991,38.6579862 C98.5187149,38.6579862 99.7649014,39.3682483 100.017294,39.6839203 C100.127715,39.8101891 100.238137,39.9206743 100.28546,39.9206743 C100.317009,39.9206743 101.989108,38.9736582 104.008246,37.8056717 Z M137.465988,39.5260843 C137.74993,39.3208975 138.302037,38.9894418 138.712175,38.8158222 L139.453577,38.4843666 L139.453577,30.7661854 L139.453577,23.0480042 L138.712175,22.7165486 C138.302037,22.542929 137.74993,22.2272569 137.481763,22.0220701 L136.992753,21.6432637 L133.758978,23.5372959 C131.992232,24.5790136 129.010849,26.3309934 127.149457,27.4200619 L123.757936,29.4245793 L123.899907,30.1979758 C123.978779,30.6714838 123.978779,31.2239099 123.884132,31.6342835 L123.726387,32.3129784 L126.502702,33.9071221 C128.032829,34.7910038 130.982663,36.4956328 133.064899,37.6951865 C135.147135,38.9105238 136.866557,39.9048907 136.898106,39.9048907 C136.929655,39.9206743 137.182047,39.7470547 137.465988,39.5260843 Z M115.586738,26.5361802 C115.87068,26.3309934 116.375464,26.0626721 116.690954,25.9521869 L117.290386,25.7470001 L117.337709,18.0919533 L117.369258,10.4369066 L116.706729,10.1685853 C116.32814,10.0265329 115.744483,9.69507728 115.413219,9.42675605 L114.798013,8.9216808 L114.23013,9.23735283 C113.094365,9.8844805 102.446569,15.8980327 101.989108,16.1663539 L101.500098,16.4504588 L101.515872,17.9341173 L101.515872,19.4177759 L103.487687,20.5699788 C104.576128,21.2013228 106.674138,22.4166602 108.141168,23.2689747 C109.623972,24.1212891 111.706208,25.3366265 112.778875,25.9679705 C113.867316,26.5993146 114.813787,27.0728226 114.908434,27.0254718 C115.003081,26.9623374 115.318572,26.741367 115.586738,26.5361802 Z M123.31625,26.6150982 C123.821034,26.3309934 125.540456,25.3208429 127.149457,24.3738268 C128.758457,23.4268107 131.298154,21.9273685 132.812507,21.0434868 L135.557272,19.4177759 L135.573047,17.9183337 L135.588821,16.4346752 L129.058173,12.6939616 L122.51175,8.96903161 L121.864995,9.44253966 C121.502181,9.69507728 120.918524,10.0265329 120.55571,10.1843689 L119.89318,10.4369066 L119.924729,18.0919533 L119.972053,25.7470001 L120.587259,25.9521869 C120.918524,26.0626721 121.454857,26.3783442 121.770348,26.6466654 C122.085838,26.899203 122.354005,27.1201734 122.369779,27.1201734 C122.369779,27.135957 122.795691,26.899203 123.31625,26.6150982 Z"/>
</svg>
