<svg height="108" viewBox="0 0 237 108" width="237" xmlns="http://www.w3.org/2000/svg"><path d="m.33193863 107.590183c-.33193863-.407578-.33193863-.532986-.33193863-9.7191517 0-9.875912.0158066-10.0953767.79033008-12.4467843 1.62807996-4.8438997 6.08554161-9.1861657 10.98558812-10.6597145 4.4258484-1.3481404 9.3417015-.8935349 13.1985123 1.2070559 4.1413296 2.2416753 7.2394235 6.1450119 8.5039516 10.7067427l.4267783 1.4892248.0474198 9.4213065.0474198 9.4213066-.4109716.501634-.4267783.485957h-3.2245467c-4.2677824 0-4.0148768.203789-4.0148768-3.276294 0-1.379493-.0474198-2.602225-.0948396-2.743309-.0948396-.219465-1.0274291-.250817-8.9149233-.250817h-8.83589029l-.04741981 2.649252c-.0474198 2.414112-.079033 2.696281-.37935843 3.103858l-.33193864.43893-3.33519293.047028-3.31938633.031352zm25.52766157-13.7949249c.158066-.5956899-.0632264-3.715224-.3319386-4.8595757-.7271037-3.1038581-3.098094-5.862843-5.832636-6.803406-2.0074384-.6740702-4.4258485-.5329858-6.3858671.3919012-1.4384007.6740702-3.3351929 2.4924921-4.01487677 3.8406325-.9483961 1.849774-1.10646211 2.5708723-1.18549512 5.2985051l-.09483961 2.5395202h8.8833101 8.8675035zm30.1215319 13.8172359c-2.672956-.775012-5.0471698-2.216533-7.1855346-4.340066-2.4056604-2.371536-3.7421384-4.7895722-4.4654088-7.9981208-.4402516-1.9065289-.4402516-5.3320808 0-7.2541099 1.0849056-4.8360733 4.4654088-9.0366369 9.0408805-11.284171 3.0503144-1.5035228 4.6383648-1.7360263 11.918239-1.7360263 6.2264151 0 6.4465409.0310005 7.0283019.9610146.2987421.465007.3144654.7130108.2830188 2.8675434-.0471698 2.1080319-.0786163 2.4025364-.3773585 2.7900423-.5660377.728511-1.0849056.790512-7.0597484.8060122-5.9591195.0155002-6.5094339.0775012-8.1446541.8835134-1.2735849.6355096-3.2232704 2.6815406-3.9150943 4.092062-.5503145 1.1315171-1.0691824 3.1930484-1.0691824 4.2780648 0 .992015.5188679 3.0845467 1.0377358 4.1850634.9905661 2.0770315 3.254717 4.0765618 5.3773585 4.7120719.927673.279004 1.4622642.310004 6.7295598.310004h5.7232704l-.0314465-2.7435414-.0471698-2.7590418-1.2578617-.0775011c-1.4308176-.1085017-2.0125786-.3875059-2.2641509-1.116017-.2672956-.728511-.2201258-4.5105683.0471698-5.1615782.4245283-.992015.6446541-1.0230155 5.9119497-.9765148l4.7169811.0465007.5031447.5115078.5188679.4960075v8.974636c0 8.8971343 0 8.9901363-.3301887 9.4241423l-.3301887.434007-10.5188679.031001-10.5188679.031zm45.6851339.162859c-2.9782104-.741207-6.2855914-2.838666-8.417363-5.330384-1.9279993-2.255162-3.1036087-4.4945539-3.8403239-7.3332197-.3448454-1.3404811-.4075446-1.8609031-.4075446-4.2895394-.0156748-2.8859769.1410731-4.0372135.8621136-6.2292943 1.2853328-3.9110507 4.8748601-8.027116 8.6995092-9.9826414 3.4641287-1.7820512 8.8405827-2.1289993 12.7436057-.820059 5.642925 1.8924439 10.14159 7.0808941 11.348549 13.0894034.548617 2.7598139.438894 6.1977536-.297821 8.7525528-1.630179 5.7246426-6.160193 10.3926706-11.599346 11.9854776-1.285333.378489-1.567479.394259-4.843511.378489-2.178796-.01577-3.761949-.094622-4.247868-.220785zm7.335802-7.475153c3.025235-1.1985482 5.470503-4.2737695 6.066145-7.6486277.642666-3.7060359-.532943-7.3332199-3.181983-9.8249377-2.178796-2.0343771-4.90621-2.807125-7.806046-2.1920808-1.645853.3627184-2.868487 1.0723849-4.3419173 2.5390289-1.0815607 1.1039256-1.3950565 1.5297254-1.9750238 2.7755843-.7994143 1.7347402-1.0345362 2.8228954-1.0345362 4.7941911 0 4.4314727 2.6176902 8.2794418 6.5677373 9.6672339.909138.315407 1.269658.346948 2.915512.299637 1.489105-.047311 2.069072-.126163 2.790112-.410029zm25.612358 7.436279c-.126705-.155012-.332601-.434035-.42763-.620049-.269249-.511541-.237573-30.5219339.031676-31.0334747.095029-.2015161.395954-.527042.633527-.6975556.443469-.325526.570174-.325526 10.928338-.3720297 11.878628-.0465037 12.005333-.0310025 14.333544 1.0695853 1.789713.8370667 3.832837 2.7747212 4.67226 4.402351.934453 1.844647 1.076996 2.5112002 1.172025 5.5029387.095029 3.1312497-.063353 4.4953584-.744394 6.1384894l-.459307 1.1315903 1.314568 1.2866025c1.409597 1.37961 2.090639 2.5112003 2.565784 4.2318374.332602 1.2711014.506821 6.8360454.221734 7.9676354-.300925 1.240099-.348439 1.2556-4.054571 1.2556h-3.199311l-.411792-.480538-.411793-.480539v-3.038242c0-3.394771-.110867-3.844306-1.092834-4.7588793l-.506821-.4650371h-8.425907-8.425907l-.07919 4.1388304c-.079191 3.89081-.095029 4.154331-.411793 4.572864l-.332601.434035-3.326016.046504c-3.009253.031002-3.341854.015501-3.563589-.232519zm21.175634-16.4778138c.776071-.1705136 1.567979-.9765778 1.805552-1.8136446.221734-.7595605.221734-4.4488547 0-5.2084152-.095029-.3410272-.411792-.852568-.69688-1.1625927l-.522659-.5735458-7.063824-.0465037-7.063824-.0465037v4.4178523c0 3.3792694.047514 4.4333534.205896 4.4798571.34844.1550124 12.686374.1085087 13.335739-.0465037zm25.808088 16.4748838c-.582407-.673966-.598148-.815028-.598148-9.5609027 0-7.8838261.031481-8.7458746.314815-10.2505412.661111-3.542236 2.140741-6.3321386 4.722222-8.9339579 4.47037-4.4983262 10.640741-6.0500137 17-4.2632221 2.455556.6896389 5.351852 2.5234513 7.366667 4.6707359 2.313889 2.4607569 3.573148 4.8901665 4.281481 8.2599927.283334 1.3479305.314815 2.1159374.314815 10.4229509v8.9496314l-.409259.485882-.40926.485882h-3.19537c-3.62037 0-3.746296-.047021-4.013889-1.175521-.078703-.344819-.157407-1.630055-.157407-2.852597v-2.241326h-8.799074-8.814815l-.047222 2.64884c-.047223 2.413736-.078704 2.695861-.377778 3.103375l-.330556.438861-3.305555.047021c-2.990741.031347-3.321296.015673-3.541667-.235104zm25.216667-15.5638955c0-1.1128263-.078704-2.3980624-.173148-2.8525971-.676852-3.3541526-2.990741-6.1597289-5.95-7.2098608-1.212037-.4388611-3.982408-.4702083-5.178704-.0626944-3.085185 1.0501319-5.446296 3.8243609-6.15463 7.2725552-.094444.4545347-.173148 1.7397708-.173148 2.8525971v2.0375693h8.814815 8.814815zm22.615386 15.4265815-.386742-.403764-.032228-15.3896475c-.032229-12.0352941 0-15.4828235.161142-15.7778823.096686-.2018824.402857-.528.64457-.6988236.418971-.2950588.660685-.3261176 3.335651-.3261176s2.91668.0155294 3.335651.3261176l.451199.3261177.048343 15.8865882c.032228 14.6287055.016114 15.9176475-.241714 16.1816475-.241714.24847-.563999.279529-3.593479.279529h-3.335651zm-112.581502-45.8152724c-1.561676-.5839933-2.90251-1.9887339-3.328422-3.5513104-.283941-.9943669-.331265-2.0045174-.110422-2.5727271.126197-.3472392.078873-.4103736-.662529-.8523145-.457461-.2525376-3.091805-1.8151141-5.868119-3.4566087-2.776314-1.6572782-5.410658-3.2040711-5.852345-3.4566088l-.8045-.4419408-.6152057.473508c-.8991473.6944785-1.7982945.9943669-3.0602556.9943669-2.4450496 0-4.4326383-1.4520913-5.1267168-3.7249299-.7887257-2.6042943.4416863-5.271723 2.9656085-6.3765751l.7414021-.3314556v-3.6775792c0-2.020301-.0473235-5.4926933-.1104216-7.7181812l-.0946471-4.0248184-.7256276-.2841048c-.9780198-.3788064-2.2557554-1.625711-2.7605398-2.6832123-.5678825-1.1995537-.583657-3.1093695-.0315491-4.3404904.4732354-1.0890685 1.4985788-2.1307862 2.6185693-2.6516451.7256276-.3472392 1.0884414-.4103736 2.2873044-.4103736 1.2461865 0 1.5301278.0473508 2.2873044.4419408.4732354.2525377 1.0095689.5839933 1.1830885.7576129.3312651.2998884.3628141.2841048 4.4168641-2.020301 5.079393-2.85683189 5.442207-3.06201871 7.524443-4.23000523l1.687872-.94701609-.094647-.9154489c-.252392-2.38332384 1.277736-4.75086408 3.56504-5.55582776.899148-.29988843 2.602795-.29988843 3.501942 0 2.239981.77339648 3.817433 3.28298913 3.533491 5.65052937l-.094647.82074729 4.290668 2.44645824c2.350402 1.34160618 4.606158 2.63586148 5.016295 2.85683188.394363.2209704 1.435481.8049637 2.287305 1.2942553l1.561676.8838817.441687-.3630228c1.372382-1.1522029 3.533491-1.5310094 5.221364-.8838817 1.11999.4103736 2.27153 1.4363078 2.886736 2.5569435.441686.7733964.473235.9627997.473235 2.414891 0 1.3416061-.063098 1.6888454-.378588 2.2728386-.615206 1.1837702-1.987589 2.3675403-3.202227 2.7621303-.268166.078918-.283941.5997769-.283941 7.8286664s.015775 7.7497484.283941 7.8286664c1.198863.39459 2.602795 1.5941438 3.202227 2.7463467.31549.5997768.378588.9470161.378588 2.2886222 0 1.4047406-.047324 1.6730618-.425912 2.3675403-.946471 1.8151141-2.728991 2.9199662-4.700805 2.9199662-1.230412 0-2.366177-.3630228-3.233775-1.0101505-.283941-.2209704-.567883-.4103736-.630981-.4103736-.110421 0-5.331785 3.0620187-9.937943 5.824149l-3.328422 1.9887338.14197.7576129c.425912 2.2412714-1.230412 4.9402673-3.501942 5.7136638-.867598.2998884-2.72899.2841048-3.533491 0zm-.14197-9.9436691.662529-.2683212v-7.7813156-7.7813156l-.473235-.1104852c-.268167-.0631344-.851824-.3630228-1.309285-.6629112l-.820274-.5524261-.709854.3788064c-.394362.2051869-1.892941 1.073285-3.344196 1.9098158-5.946992 3.4408252-7.96613 4.6088117-8.518238 4.9087001-.520558.2998885-.567882.3788065-.473235.8049637.126196.5366425.126196 1.1679865.031549 1.9571666l-.078872.5366425 4.495736 2.6832122c2.476598 1.467875 5.442207 3.2356384 6.609521 3.9143332l2.09801 1.231121.583657-.4577245c.31549-.2525376.867598-.5682096 1.246187-.7102621zm12.083277-2.6042942c3.517716-2.0834354 6.483325-3.8196316 6.593747-3.8669824.14197-.0631344.205068-.5050753.205068-1.6414946v-1.5625765l-2.76054-1.5783602c-1.514353-.8680981-4.069824-2.335973-5.678824-3.2672055-1.609001-.9312325-3.312648-1.9098158-3.785884-2.178137l-.867598-.4735081-.820275.5682097c-.45746.2998884-1.041117.5997768-1.309284.6629112l-.473236.1104852v7.7813156 7.7813156l.694079.2683212c.378588.1420525.930696.4735081 1.230412.7260457.283941.236754.536334.4419409.552108.4577245.015775 0 2.918285-1.704629 6.420227-3.7880644zm-24.78176-11.4273276c2.019137-1.1522029 4.937422-2.8410483 6.483324-3.7407136l2.839413-1.6414945v-1.546793l.015774-1.5467929-1.814069-1.0417177c-2.287304-1.3258226-6.025864-3.5039596-9.05457-5.271723l-2.350403-1.3731733-.7571764.5208588c-.4259119.2841049-1.0095689.5997769-1.2777356.6944785l-.5205589.1736196.0788725 7.607696c.0473236 4.198438.1419706 7.7181812.2050687 7.8286664.0788726.0947016.2366177.1894032.3628138.1894032.2997158 0 1.5459023.7102621 1.7982949 1.0259341.110421.1262688.220843.236754.268166.236754.031549 0 1.703648-.9470161 3.722786-2.1150026zm33.457742 1.7204126c.283942-.2051868.836049-.5366425 1.246187-.7102621l.741402-.3314556v-7.7181812-7.7181812l-.741402-.3314556c-.410138-.1736196-.962245-.4892917-1.230412-.6944785l-.48901-.3788064-3.233775 1.8940322c-1.766746 1.0417177-4.748129 2.7936975-6.609521 3.882766l-3.391521 2.0045174.141971.7733965c.078872.473508.078872 1.0259341-.015775 1.4363077l-.157745.6786949 2.776315 1.5941437c1.530127.8838817 4.479961 2.5885107 6.562197 3.7880644 2.082236 1.2153373 3.801658 2.2097042 3.833207 2.2097042.031549.0157836.283941-.157836.567882-.3788064zm-21.87925-12.9899041c.283942-.2051868.788726-.4735081 1.104216-.5839933l.599432-.2051868.047323-7.6550468.031549-7.6550467-.662529-.2683213c-.378589-.1420524-.962246-.47350802-1.29351-.74182925l-.615206-.50507525-.567883.31567203c-1.135765.64712767-11.783561 6.66067987-12.241022 6.92900107l-.48901.2841049.015774 1.4836585v1.4836586l1.971815 1.1522029c1.088441.631344 3.186451 1.8466814 4.653481 2.6989959 1.482804.8523144 3.56504 2.0676518 4.637707 2.6989958 1.088441.6313441 2.034912 1.1048521 2.129559 1.0575013.094647-.0631344.410138-.2841048.678304-.4892916zm7.729512.078918c.504784-.2841048 2.224206-1.2942553 3.833207-2.2412714 1.609-.9470161 4.148697-2.4464583 5.66305-3.33034l2.744765-1.6257109.015775-1.4994422.015774-1.4836585-6.530648-3.7407136-6.546423-3.72492999-.646755.47350805c-.362814.25253762-.946471.58399324-1.309285.74182924l-.66253.2525377.031549 7.6550467.047324 7.6550468.615206.2051868c.331265.1104852.867598.4261573 1.183089.6944785.31549.2525376.583657.473508.599431.473508 0 .0157836.425912-.2209704.946471-.5050752z"/></svg>