<svg height="77" viewBox="0 0 450 77" width="450" xmlns="http://www.w3.org/2000/svg"><path d="m27.2 75.6c-8.8-3.4-9.9-4.4-10-8.9l-.2-4.2-.6 3.9-.6 3.8-4.7-5c-2.7-2.8-4.8-5.3-4.8-5.6 0-.2.8-.7 1.7-.9 1.4-.4 1.2-.5-.4-.6-2.8-.1-2.8.1-.3-5.5l1.9-4.6 3.6 1.7c1.9.9 3.5 2.4 3.6 3.2 0 1.2.2 1.2.6.3.4-1 1.7-.1 4.2 2.6 5.7 6.1 9.4 7.7 18.1 7.7 8.9 0 13.9-2.2 19.2-8.5 4.1-4.7 5.8-9.8 5.8-17.1-.1-13.1-10.3-23.8-23.1-24.2-3.2-.1-4.9-.6-4.9-1.4 0-.7.3-1.3.8-1.3.4 0 1.5-1.2 2.5-2.5 1.7-2.4 1.7-2.5-1.8-4.7-1.9-1.3-3.5-2.6-3.5-3 0-1.4 11.3-.8 16.5.8 7.8 2.5 15.4 8.2 20.2 15.3 5.3 7.7 6.7 12.5 6.7 22.7 0 6.9-.5 9-3.1 14.6-4.2 8.9-10.1 15.1-18.2 19.1-5.8 2.8-7.6 3.2-16.1 3.4-6.1.2-10.8-.2-13.1-1.1zm-7.1-15.3c-2.1-.2-3.8-.8-3.8-1.2s-1.5-.5-3.2-.2l-3.3.5 3.5.7c1.9.3 5.1.6 7 .6h3.5zm422.8 1.4c-2.2-1.6-1.8-5.5.7-7.1 3.9-2.4 7.9 4.4 4.1 7.1-1 .7-2.1 1.3-2.4 1.3s-1.4-.6-2.4-1.3zm-281.7-13.5-12.4-13.9-.3 13.3-.3 13.4h-4.4-4.5v-22c0-19.7.2-22.1 1.7-22.7 1.2-.5 5 2.9 14.4 12.8l12.8 13.4.1-12.7v-12.8h4.5 4.5l-.2 22.2c-.3 19.2-.5 22.3-1.9 22.6-.9.2-6.4-5.2-14-13.6zm76.9 12.8c-7.6-2.3-13.7-8.7-15.8-16.8-2.6-9.9 2.4-20.4 12.1-25.5 4.7-2.5 6.2-2.8 11.7-2.4 4.5.3 7.4 1.2 10.2 3.1 4.7 3.1 4.9 4.4 1.5 7.6l-2.5 2.4-4.1-2.3c-3.1-1.8-5.1-2.2-8.1-1.8-11.1 1.5-15.4 16.8-6.7 24.1 3.7 3.1 10.2 3.5 15.6.9 3.4-1.6 3.5-1.6 6 1 1.4 1.4 2.3 3.2 2 4s-2.9 2.6-5.8 4.1c-5.4 2.7-10.8 3.2-16.1 1.6zm39.3-.4c-4.9-1.8-11.1-7.4-13.2-12-1.1-2.4-1.9-6.4-1.9-9.6 0-19.7 22.8-30.2 37.2-17.2 5.3 4.8 7.8 10.2 7.8 17.2s-2.6 12.6-7.9 17.1c-6.4 5.6-14.5 7.2-22 4.5zm16.1-11.3c5-4.5 6.2-11.5 2.8-17-5.5-9-16.8-9.3-22.7-.4-3.7 5.5-2.7 12.8 2.6 17.5 4.1 3.8 13.1 3.7 17.3-.1zm41.6-.9-12.3-13.6-.3 13.1-.3 13.1h-4.4-4.5v-22.5c0-20.8.1-22.5 1.8-22.5.9 0 7.1 5.9 13.7 13l12 13 .3-12.6.3-12.5 4.4.3c2.5.2 4.5.6 4.5 1.1v22.2c0 17.9-.2 21.5-1.4 21.5-.8 0-7-6.1-13.8-13.6zm-240.8 11.4c0-.7 4.4-10.8 9.8-22.5 6.4-14.2 10.2-21.3 11.2-21.3s4.8 7.1 11.3 21.5c5.3 11.8 9.7 21.9 9.7 22.5 0 .5-2 1-4.5 1-4.3 0-4.6-.2-6.1-4l-1.6-4h-8.8-8.7l-1.8 4c-1.7 3.8-2 4-6.2 4-2.7 0-4.3-.4-4.3-1.2zm24.3-18.5c-3.3-8-3.3-8-5.9-2.3-1.3 2.9-2.4 5.4-2.4 5.6s2.2.4 4.9.4h5zm61.7 18.9c0-.5 4.4-10.5 9.9-22.3 7-15.1 10.3-21.4 11.5-21.4 1.1 0 4.5 6.4 11.6 21.9 5.5 12 10 22 10 22.2s-2.2.4-4.8.4c-4.8 0-4.9-.1-6.5-4l-1.5-4h-8.9-8.8l-1.7 4c-1.6 3.8-1.8 4-6.2 4-2.5 0-4.6-.4-4.6-.8zm25.7-16.4c-4.5-11.3-4.2-11.2-7.5-3.5l-2.1 4.7h5.1c3.6 0 4.9-.3 4.5-1.2zm151.3-4.8v-22h11c12.9 0 16.6 1.3 22.3 8.1 7.6 8.8 6.7 21.9-2 30.1-4.8 4.6-9.2 5.8-20.8 5.8h-10.5zm23.9 10.5c5.8-4.9 6.5-13.6 1.5-19.4-2.6-3.2-7.6-5.1-13.1-5.1h-3.3v13.5 13.5h5.9c4.9 0 6.5-.4 9-2.5zm13.8 10.8c-.2-.5 4.1-10.6 9.7-22.6 7.1-15.4 10.5-21.7 11.5-21.5 1.4.3 20.9 40.6 21 43.6.1.8-1.4 1.2-4.5 1.2-4.4 0-4.6-.1-6.1-4l-1.6-4h-8.9-8.8l-1.6 4c-1.5 3.8-1.8 4-5.9 4-2.4 0-4.6-.3-4.8-.7zm24.1-20c-3.3-7.7-3-7.8-7.5 3.5-.4.9.9 1.2 4.5 1.2h5.1zm-417.2 8.9c-.9-3.2-1.6-6.1-1.6-6.5 0-1.2 6.2-7.7 7.4-7.7.7 0 2.2 1.3 3.3 2.8l2.1 2.9-2.3 2.9-2.3 2.9-3.1-2.2c-1.6-1.3-3.3-2.3-3.7-2.3s.6 1 2.2 2.2 3.2 2.4 3.7 2.8c.9.8-2 8-3.2 8-.5 0-1.6-2.6-2.5-5.8zm11.7 0c-3.8-1.8-3.9-2.3-1.7-5.7 2.1-3.2 3.4-3.2 3.4.1 0 1.4.5 3.4 1.1 4.6 1.4 2.7 1 2.8-2.8 1zm-12.9-15c.8-5.8 1.5-8.2 2.5-8.2 1.2 0 4.3 7.2 3.4 7.9-.4.4-2.1 1.7-3.7 3.1l-2.9 2.5zm10.8 2.5c-1.2-1.3-2.2-2.6-2.2-2.9s1.5-1.5 3.3-2.7c1.7-1.1 2.7-2.1 2.2-2.1-.6 0-2.1.7-3.3 1.6-1.2.8-2.7 1.2-3.2.9-1-.6-4-7-4-8.5 0-.7 6.7-3 8.7-3 1.1 0 2.6 7.1 2.3 11-.1 1.4-.3 3.7-.3 5.3-.2 3.3-.7 3.4-3.5.4zm4.8-12.1c0-.8-.2-2.1-.6-2.9-.3-1 .5-1.6 2.7-2.1 1.8-.3 3.4-.5 3.5-.3.5.5-4 6.7-4.8 6.7-.5 0-.8-.6-.8-1.4zm-9.6-6.1c.8-2.2 4.9-7.4 5.9-7.4.4-.1.7 1.4.7 3.3 0 3.8-.2 4-4.4 5-2.4.6-2.8.4-2.2-.9zm8.6-5v-4.6l3.8.7c5 .9 5.4 1.4 4 5.2-1.1 2.7-1.7 3.2-4.5 3.2-3.2 0-3.3-.1-3.3-4.5zm9 3.2c0-2.6 2.4-4.7 4.8-4.1 3.1.9 2.8 1.8-1.3 3.7-2.7 1.3-3.5 1.4-3.5.4zm6-6c-1.4-.6-2.7-1.2-2.8-1.3-.6-.4 3-7.4 3.7-7.4.3.1 1.9 1.2 3.6 2.5l3 2.5-2.5 2.4c-2.1 2-2.9 2.2-5 1.3zm-12-3.9c0-1.1 10-6.4 10-5.4 0 .2-.7 1.7-1.6 3.4-1.3 2.7-2.1 3.2-5 3.2-2.1 0-3.4-.5-3.4-1.2z" transform="translate(0 -.005)"/></svg>