<svg xmlns="http://www.w3.org/2000/svg" width="450" height="77" viewBox="0 0 450 77">
  <g fill-rule="evenodd" transform="translate(0 -.005)">
    <path fill-rule="nonzero" d="M27.2,75.6 C18.4,72.2 17.3,71.2 17.2,66.7 L17,62.5 L16.4,66.4 L15.8,70.2 L11.1,65.2 C8.4,62.4 6.3,59.9 6.3,59.6 C6.3,59.4 7.1,58.9 8,58.7 C9.4,58.3 9.2,58.2 7.6,58.1 C4.8,58 4.8,58.2 7.3,52.6 L9.2,48 L12.8,49.7 C14.7,50.6 16.3,52.1 16.4,52.9 C16.4,54.1 16.6,54.1 17,53.2 C17.4,52.2 18.7,53.1 21.2,55.8 C26.9,61.9 30.6,63.5 39.3,63.5 C48.2,63.5 53.2,61.3 58.5,55 C62.6,50.3 64.3,45.2 64.3,37.9 C64.2,24.8 54,14.1 41.2,13.7 C38,13.6 36.3,13.1 36.3,12.3 C36.3,11.6 36.6,11 37.1,11 C37.5,11 38.6,9.8 39.6,8.5 C41.3,6.1 41.3,6 37.8,3.8 C35.9,2.5 34.3,1.2 34.3,0.8 C34.3,-0.6 45.6,-9.32587341e-15 50.8,1.6 C58.6,4.1 66.2,9.8 71,16.9 C76.3,24.6 77.7,29.4 77.7,39.6 C77.7,46.5 77.2,48.6 74.6,54.2 C70.4,63.1 64.5,69.3 56.4,73.3 C50.6,76.1 48.8,76.5 40.3,76.7 C34.2,76.9 29.5,76.5 27.2,75.6 Z M20.1,60.3 C18,60.1 16.3,59.5 16.3,59.1 C16.3,58.7 14.8,58.6 13.1,58.9 L9.8,59.4 L13.3,60.1 C15.2,60.4 18.4,60.7 20.3,60.7 L23.8,60.7 L20.1,60.3 Z"/>
    <path d="M442.9 61.7C440.7 60.1 441.1 56.2 443.6 54.6 447.5 52.2 451.5 59 447.7 61.7 446.7 62.4 445.6 63 445.3 63 445 63 443.9 62.4 442.9 61.7zM161.2 48.2L148.8 34.3 148.5 47.6 148.2 61 143.8 61 139.3 61 139.3 39C139.3 19.3 139.5 16.9 141 16.3 142.2 15.8 146 19.2 155.4 29.1L168.2 42.5 168.3 29.8 168.3 17 172.8 17 177.3 17 177.1 39.2C176.8 58.4 176.6 61.5 175.2 61.8 174.3 62 168.8 56.6 161.2 48.2zM238.1 61C230.5 58.7 224.4 52.3 222.3 44.2 219.7 34.3 224.7 23.8 234.4 18.7 239.1 16.2 240.6 15.9 246.1 16.3 250.6 16.6 253.5 17.5 256.3 19.4 261 22.5 261.2 23.8 257.8 27L255.3 29.4 251.2 27.1C248.1 25.3 246.1 24.9 243.1 25.3 232 26.8 227.7 42.1 236.4 49.4 240.1 52.5 246.6 52.9 252 50.3 255.4 48.7 255.5 48.7 258 51.3 259.4 52.7 260.3 54.5 260 55.3 259.7 56.1 257.1 57.9 254.2 59.4 248.8 62.1 243.4 62.6 238.1 61z"/>
    <path fill-rule="nonzero" d="M277.4,60.6 C272.5,58.8 266.3,53.2 264.2,48.6 C263.1,46.2 262.3,42.2 262.3,39 C262.3,19.3 285.1,8.8 299.5,21.8 C304.8,26.6 307.3,32 307.3,39 C307.3,46 304.7,51.6 299.4,56.1 C293,61.7 284.9,63.3 277.4,60.6 Z M293.5,49.3 C298.5,44.8 299.7,37.8 296.3,32.3 C290.8,23.3 279.5,23 273.6,31.9 C269.9,37.4 270.9,44.7 276.2,49.4 C280.3,53.2 289.3,53.1 293.5,49.3 Z"/>
    <path d="M335.1,48.4 L322.8,34.8 L322.5,47.9 L322.2,61 L317.8,61 L313.3,61 L313.3,38.5 C313.3,17.7 313.4,16 315.1,16 C316,16 322.2,21.9 328.8,29 L340.8,42 L341.1,29.4 L341.4,16.9 L345.8,17.2 C348.3,17.4 350.3,17.8 350.3,18.3 C350.3,18.7 350.3,28.7 350.3,40.5 C350.3,58.4 350.1,62 348.9,62 C348.1,62 341.9,55.9 335.1,48.4 Z"/>
    <path fill-rule="nonzero" d="M94.3 59.8C94.3 59.1 98.7 49 104.1 37.3 110.5 23.1 114.3 16 115.3 16 116.3 16 120.1 23.1 126.6 37.5 131.9 49.3 136.3 59.4 136.3 60 136.3 60.5 134.3 61 131.8 61 127.5 61 127.2 60.8 125.7 57L124.1 53 115.3 53 106.6 53 104.8 57C103.1 60.8 102.8 61 98.6 61 95.9 61 94.3 60.6 94.3 59.8zM118.6 41.3C115.3 33.3 115.3 33.3 112.7 39 111.4 41.9 110.3 44.4 110.3 44.6 110.3 44.8 112.5 45 115.2 45L120.2 45 118.6 41.3zM180.3 60.2C180.3 59.7 184.7 49.7 190.2 37.9 197.2 22.8 200.5 16.5 201.7 16.5 202.8 16.5 206.2 22.9 213.3 38.4 218.8 50.4 223.3 60.4 223.3 60.6 223.3 60.8 221.1 61 218.5 61 213.7 61 213.6 60.9 212 57L210.5 53 201.6 53 192.8 53 191.1 57C189.5 60.8 189.3 61 184.9 61 182.4 61 180.3 60.6 180.3 60.2zM206 43.8C201.5 32.5 201.8 32.6 198.5 40.3L196.4 45 201.5 45C205.1 45 206.4 44.7 206 43.8zM357.3 39L357.3 17 368.3 17C381.2 17 384.9 18.3 390.6 25.1 398.2 33.9 397.3 47 388.6 55.2 383.8 59.8 379.4 61 367.8 61L357.3 61 357.3 39zM381.2 49.5C387 44.6 387.7 35.9 382.7 30.1 380.1 26.9 375.1 25 369.6 25L366.3 25 366.3 38.5 366.3 52 372.2 52C377.1 52 378.7 51.6 381.2 49.5zM395 60.3C394.8 59.8 399.1 49.7 404.7 37.7 411.8 22.3 415.2 16 416.2 16.2 417.6 16.5 437.1 56.8 437.2 59.8 437.3 60.6 435.8 61 432.7 61 428.3 61 428.1 60.9 426.6 57L425 53 416.1 53 407.3 53 405.7 57C404.2 60.8 403.9 61 399.8 61 397.4 61 395.2 60.7 395 60.3zM419.1 40.3C415.8 32.6 416.1 32.5 411.6 43.8 411.2 44.7 412.5 45 416.1 45L421.2 45 419.1 40.3z"/>
    <path d="M1.9 49.2C1 46 .3 43.1.3 42.7.3 41.5 6.5 35 7.7 35 8.4 35 9.9 36.3 11 37.8L13.1 40.7 10.8 43.6 8.5 46.5 5.4 44.3C3.8 43 2.1 42 1.7 42 1.3 42 2.3 43 3.9 44.2 5.5 45.4 7.1 46.6 7.6 47 8.5 47.8 5.6 55 4.4 55 3.9 55 2.8 52.4 1.9 49.2zM13.6 49.2C9.8 47.4 9.7 46.9 11.9 43.5 14 40.3 15.3 40.3 15.3 43.6 15.3 45 15.8 47 16.4 48.2 17.8 50.9 17.4 51 13.6 49.2zM.7 34.2C1.5 28.4 2.2 26 3.2 26 4.4 26 7.5 33.2 6.6 33.9 6.2 34.3 4.5 35.6 2.9 37L0 39.5.7 34.2zM11.5 36.7C10.3 35.4 9.3 34.1 9.3 33.8 9.3 33.5 10.8 32.3 12.6 31.1 14.3 30 15.3 29 14.8 29 14.2 29 12.7 29.7 11.5 30.6 10.3 31.4 8.8 31.8 8.3 31.5 7.3 30.9 4.3 24.5 4.3 23 4.3 22.3 11 20 13 20 14.1 20 15.6 27.1 15.3 31 15.2 32.4 15 34.7 15 36.3 14.8 39.6 14.3 39.7 11.5 36.7zM16.3 24.6C16.3 23.8 16.1 22.5 15.7 21.7 15.4 20.7 16.2 20.1 18.4 19.6 20.2 19.3 21.8 19.1 21.9 19.3 22.4 19.8 17.9 26 17.1 26 16.6 26 16.3 25.4 16.3 24.6zM6.7 18.5C7.5 16.3 11.6 11.1 12.6 11.1 13 11 13.3 12.5 13.3 14.4 13.3 18.2 13.1 18.4 8.9 19.4 6.5 20 6.1 19.8 6.7 18.5zM15.3 13.5L15.3 8.9 19.1 9.6C24.1 10.5 24.5 11 23.1 14.8 22 17.5 21.4 18 18.6 18 15.4 18 15.3 17.9 15.3 13.5zM24.3 16.7C24.3 14.1 26.7 12 29.1 12.6 32.2 13.5 31.9 14.4 27.8 16.3 25.1 17.6 24.3 17.7 24.3 16.7zM30.3 10.7C28.9 10.1 27.6 9.5 27.5 9.4 26.9 9 30.5 2 31.2 2 31.5 2.1 33.1 3.2 34.8 4.5L37.8 7 35.3 9.4C33.2 11.4 32.4 11.6 30.3 10.7zM18.3 6.8C18.3 5.7 28.3.4 28.3 1.4 28.3 1.6 27.6 3.1 26.7 4.8 25.4 7.5 24.6 8 21.7 8 19.6 8 18.3 7.5 18.3 6.8z"/>
  </g>
</svg>
