<svg height="47" viewBox="0 0 326 47" width="326" xmlns="http://www.w3.org/2000/svg"><path d="m167 23.1176471v-.1176471c0-12.4705882 9.583099-23 23.129577-23 7.808451 0 12.6 2.17647059 17.214085 6.05882353l-4.969014 5.88235297c-3.430986-2.9411765-6.861972-4.76470591-12.540845-4.76470591-8.28169 0-14.552113 7.17647061-14.552113 15.70588231v.1176471c0 9.1764706 6.092958 15.8823529 15.261972 15.8823529 4.2 0 8.04507-1.3529411 10.825352-3.3529411v-8.3529412-1.7647059l7.630986-5.0588235v18.7058823c-4.43662 3.7647059-10.766197 6.9411765-18.692958 6.9411765-14.078873 0-23.307042-9.9411765-23.307042-22.8823529zm-147.1886076-21.1176471h7.3772152l19.8113924 45h-8.3886076l-4.5810127-10.7480315-2.8556962-6.9685039-7.7936708-17.8937008-7.7341773 17.8937008-2.9151898 6.9685039-4.64050636 10.7480315h-8.09113924zm111.0594936-1h7.317722l19.811392 45h-8.329114l-4.581013-10.8070866-2.915189-6.968504-7.793671-17.8346456-7.734178 17.8346456-2.855696 6.968504-4.640506 10.8070866h-8.150633zm116.688457 0c13.767677 0 23.440657 10.3529412 23.440657 22.8823529v.1176471c0 12.5294118-9.732323 23-23.559343 23-13.827021 0-23.440657-10.3529412-23.440657-22.8823529v-.1176471c0-12.5294118 9.732323-23 23.559343-23zm15.132576 23.1764706v-.1176471c0-8.6470588-6.409091-15.82352938-15.310606-15.82352938s-15.132576 7.05882348-15.132576 15.70588238v.117647c0 8.6470589 6.409091 15.8235294 15.310606 15.8235294 8.901516 0 15.132576-7.0588235 15.132576-15.7058823zm55.567172-22.1764706h7.740909v44h-6.559091l-24.7-31.32893v31.32893h-7.740909v-44h7.268182l23.990909 30.3989432zm-230.3150786 27.318362 12.0559876 16.6235138h-9.2783826l-10.9922239-15.344782h-5.2006221-.5909798l3.0730949-6.8586526h4.3732504c5.6143079 0 9.2192846-2.8480845 9.2192846-7.323646v-.1162483c0-3.8943197-2.4230171-6.33553501-6.5598756-7.0330251-.8273717-.11624835-1.7138414-.2324967-2.718507-.2324967h-11.4650078v20.2853369 1.336856 10.4623514 4.8824306h-2.1866252-5.6734059v-44h19.9751166c5.673406 0 10.0466563 1.62747688 12.9424573 4.41743725 2.3639191 2.38309115 3.7231726 5.63804495 3.7231726 9.47424045v.1162483c0 7.2073976-4.4323484 11.5667107-10.6967341 13.310436z" fill-rule="evenodd"/></svg>