<svg xmlns="http://www.w3.org/2000/svg" width="326" height="47" viewBox="0 0 326 47">
  <g fill-rule="evenodd">
    <path d="M167,23.1176471 L167,23 C167,10.5294118 176.583099,0 190.129577,0 C197.938028,0 202.729577,2.17647059 207.343662,6.05882353 L202.374648,11.9411765 C198.943662,9 195.512676,7.17647059 189.833803,7.17647059 C181.552113,7.17647059 175.28169,14.3529412 175.28169,22.8823529 L175.28169,23 C175.28169,32.1764706 181.374648,38.8823529 190.543662,38.8823529 C194.743662,38.8823529 198.588732,37.5294118 201.369014,35.5294118 L201.369014,27.1764706 L201.369014,25.4117647 L209,20.3529412 L209,39.0588235 C204.56338,42.8235294 198.233803,46 190.307042,46 C176.228169,46 167,36.0588235 167,23.1176471"/>
    <polygon points="19.811 2 0 47 8.091 47 12.732 36.252 15.647 29.283 23.381 11.39 31.175 29.283 34.03 36.252 38.611 47 47 47 27.189 2"/>
    <polygon points="130.871 1 111 46 119.151 46 123.791 35.193 126.647 28.224 134.381 10.39 142.175 28.224 145.09 35.193 149.671 46 158 46 138.189 1"/>
    <path d="M247.559343,1 C233.732323,1 224,11.4705882 224,24 L224,24.1176471 C224,36.6470588 233.613636,47 247.440657,47 C261.267677,47 271,36.5294118 271,24 L271,23.8823529 C271,11.3529412 261.32702,1 247.559343,1 Z M262.691919,24.1764706 C262.691919,32.8235294 256.460859,39.8823529 247.559343,39.8823529 C238.657828,39.8823529 232.248737,32.7058824 232.248737,24.0588235 L232.248737,23.9411765 C232.248737,15.2941176 238.479798,8.23529412 247.381313,8.23529412 C256.282828,8.23529412 262.691919,15.4117647 262.691919,24.0588235 L262.691919,24.1764706 Z"/>
    <polygon points="318.259 2 318.259 32.399 294.268 2 287 2 287 46 294.741 46 294.741 14.671 319.441 46 326 46 326 2"/>
    <path d="M87.9440124,29.318362 C94.2083981,27.5746367 98.6407465,23.2153236 98.6407465,16.007926 L98.6407465,15.8916777 C98.6407465,12.0554822 97.281493,8.8005284 94.9175739,6.41743725 C92.0217729,3.62747688 87.6485226,2 81.9751166,2 L62,2 L62,46 L67.6734059,46 L69.8600311,46 L69.8600311,41.1175694 L69.8600311,30.655218 L69.8600311,29.318362 L69.8600311,9.0330251 L81.3250389,9.0330251 C82.3297045,9.0330251 83.2161742,9.14927345 84.0435459,9.2655218 C88.1804044,9.96301189 90.6034215,12.4042272 90.6034215,16.2985469 L90.6034215,16.4147952 C90.6034215,20.8903567 86.9984448,23.7384412 81.3841369,23.7384412 L77.0108865,23.7384412 L73.9377916,30.5970938 L74.5287714,30.5970938 L79.7293935,30.5970938 L90.7216174,45.9418758 L100,45.9418758 L87.9440124,29.318362 Z"/>
  </g>
</svg>
