<svg height="44" viewBox="0 0 152 44" width="152" xmlns="http://www.w3.org/2000/svg"><path d="m133.658977 6.1098027c-.19969-.03423258-.405086-.06775198-.613334-.09984503l-.24676-.03565894c-.347318-.04778298-.701768-.08772099-1.058357-.12124039-.242481-.0235349-.484962-.03993801-.726016-.05420159-.430047-.02638762-.855815-.0370853-1.265179-.0370853-.186853 0-.29383.0035659-.476404.00570543-.344465.00570543-.678946.02139537-1.009148.04279073-.188279.01212404-.372992.02852715-.556279.04421709-.271008.02424807-.539163.0534884-.802326.08700781l-.221086.02995351-.243907.03565894-.301675.04778298c-.132651.02139536-.261736.04421708-.390108.06775198-.178295.0335194-.35659.06917834-.532032.10555046-1.079752.22821721-2.078203.53203138-3.001056.89147349-.474977.18542649-.934264.38511655-1.367164.59907018-.361582.17615517-.710326.35944212-1.044094.55200039-.324496.18756602-.636868.3765584-.93569.57767482-.172589.11410861-.342326.23035675-.506357.34945761-.14121.10198456-.281706.20396913-.417923.30951959-.287411.22322496-.566977.44930264-.827287.68108574-.243907.2160932-.481396.4350391-.701768.6546981-.190419.1904188-.380838.382977-.561272.5848066-.181861.2046824-.363721.410791-.537737.6254578-.188992.2339227-.375132.4728376-.553426.7203106-.131225.183287-.259598.3694266-.383691.5591322-.085581.1283722-.166884.2581707-.248186.3893956-.474977.7759385-.891473 1.607505-1.23166 2.4939862-.426481 1.1054272-.734574 2.293583-.903597 3.5587622-.052775.3972406-.09414.801613-.117675 1.2152567-.017829.3173645-.030666.6390082-.030666.9649309 0 .2439071.002139.4849616.017829.7231633.016403.2496126.035659.4949461.064186.7388532l.01783.1711629c.037085.2895506.081302.5741089.135504.8558146.021395.1084031.044217.2189458.067752.3280622.049922.2339226.104837.4649926.16617.6917834.079876.2945429.164031.5833803.259597.8672254.117675.3473181.242481.6875044.380838 1.016993.219659.5241864.459287 1.0269775.718884 1.499815.15262.2781397.308806.5491477.470698.8080316.130512.2082482.263876.4065119.39938.6033492.176868.2567444.361582.5042174.543442.7395664.192559.2496126.392249.4828221.584807.706047.242481.2781398.487101.5334578.72245.7680936l.128372.1248063c.195411.1882792.406512.3922483.651133.5990702.16617.1412094.338046.2895506.525612.4364654.174729.1369303.35445.2781397.547722.4157832.229643.1640311.470698.3323413.727442.4977988.271008.1740156.556279.3494576.860807.5191942.60121.3366204 1.264466.6596904 1.994761.95352.272434.1084032.554853.2139537.847256.3137987.288838.0984187.584807.1904187.8929.2795661.523473.1483412 1.074761.2817056 1.653149.3943878.464992.0905737.949954.1654575 1.450605.2260777.497799.059907 1.012714.1069768 1.547598.1333645.258884.0128372.522047.0228217.789489.0271007.122667.0021396.247473.0049923.370853.0049923.957799 0 1.842854-.0356589 2.662297-.1041241l.161178-.0142636c.328062-.0299535.641861-.0641861.948528-.1012714.467845-.0584806.916434-.1283722 1.340776-.2032559.268868-.0499225.527752-.1019846.780931-.155473.392248-.0841551.764527-.175442 1.121117-.2695816.261736-.0691783.516341-.1426357.759535-.2160932.292403-.0877209.575535-.1811474.841551-.2724343l.259597-.0905737c.128372-.0456434.304527-.1084031.512063-.1897055.27386-.1069768.604775-.2374886.98062-.3979538.223225-.0962791.467132-.2053955.716032-.3209304.221085-.0998451.456434-.2139537.690357-.3280623.099845-.0484961.19969-.0941396.299535-.1447753v-5.8409343c-.067039.0427907-.139783.0855815-.208961.1269458l-.400807.2424808c-.39938.2424808-.784497.4692717-1.171753.6803726-.424341.2296436-.837985.4421709-1.248062.6361555-.723164.3401863-1.414234.6275973-2.085335.8679386-1.271598.4564344-2.441924.7488377-3.473181.9271324-.12124.0213954-.242481.0413644-.360868.059907-.285272.0449303-.55628.0784497-.81873.1069768-.407938.0449303-.784496.067752-1.126822.0841551-.221086.0092714-.427907.0142636-.620466.0142636-.413643 0-.840124-.0106977-1.27445-.0413644-.508497-.0356589-1.026978-.0927132-1.549025-.1811474-.845116-.1412094-1.692373-.3565894-2.522513-.6561245-.12124-.044217-.24462-.0941396-.366574-.1426357-.07845-.0299535-.160465-.0641861-.237488-.0969923-.136931-.0584807-.271008-.1162482-.406512-.1797211-.283845-.135504-.568404-.2802793-.845117-.4364654-.135504-.0784497-.269582-.1597521-.412218-.247473-.138356-.087721-.278139-.1782947-.412217-.271008-.171163-.119814-.339473-.2410544-.50493-.370853-.1569-.1248062-.320931-.2581707-.456435-.3779847l-.193985-.1740156-.096279-.0884342-.057054-.0542016-.071318-.067752c-.261736-.2610234-.502791-.5241864-.721737-.7873494-.122667-.1483412-.238201-.2966824-.348031-.4464499-.106977-.1426358-.204682-.2895506-.299535-.4321863-.090574-.135504-.175442-.2752871-.255318-.4115042-.121241-.2068219-.23107-.4136437-.331628-.6168997-.087008-.1747288-.165458-.3494576-.239628-.5220468-.12552-.2924033-.23321-.5905121-.32307-.8715045-.071318-.2196591-.130512-.438605-.182574-.6489927-.15262-.6090547-.232496-1.1674737-.276713-1.6403112-.016404-.1840002-.028528-.3530235-.035659-.5092097-.010698-.2339226-.014264-.4364654-.014264-.5990702 0-.1069768.001426-.2296435.007132-.3708529.012837-.3337677.039225-.7559696.109116-1.2380784.042791-.2924033.102698-.606202.179721-.9342642.052062-.2189459.114109-.4393182.184-.6689618.064186-.2082482.13907-.4172095.221086-.6318764.053488-.1447753.115535-.2888374.178294-.435039.085582-.1975505.181148-.3943879.283846-.5955043.077023-.1497676.162604-.2995351.249612-.4514422.192558-.3330545.410078-.6632563.656125-.9913185.089147-.1169613.180434-.235349.276713-.3515972.12338-.1497675.254605-.3031009.390822-.4493026.069178-.0727442.137644-.1497675.209675-.2225118 1.069768-1.0697682 2.27504-1.8713811 3.521676-2.4390714.192559-.087721.390822-.1668839.586233-.2453335.199691-.0784497.394388-.1483412.596218-.2168064.21538-.0713179.435039-.1383567.651132-.1996901.205396-.0570543.413644-.1069768.6169-.1547598.205395-.0477829.413644-.0877209.616899-.1255194.226078-.0427907.451443-.075597.675381-.1069768.225364-.0285272.449302-.0527753.670388-.0713179.426481-.0370853.844404-.055628 1.251629-.055628.137643 0 .271008-.0014263.406512.0021396.301674.0071318.597643.0171163.885768.0356589.201116.0142636.396527.0263876.589085.0442171.368714.0342326.723877.079876 1.06121.1312249.299535.0449303.590512.0969923.86152.1497675.420776.083442.80304.1768684 1.146079.2667289.224651.0584807.430046.119814.618326.175442.282418.0841551.524186.159752.711752.2246513.324496.1119691.503504.1782947.503504.1782947.287411.1019846.566977.21538.844404.3259227.370853.1483412.72459.3102328 1.065489.4635662.283132.1269459.550574.2595971.803753.382977.208248.1012714.401519.2039692.584806.2981088.319504.1640311.589086.315225.811598.435039l.595504.3244964v-5.73395749s-.358729-.14834119-.977055-.38083748c-.272434-.1041241-.594791-.22607767-.961365-.35658939-.204682-.07131788-.417923-.14976755-.646853-.22607768-.181148-.06133338-.368-.12837218-.563411-.19041874-.218233-.06917834-.444311-.14477529-.678947-.21537999-.167597-.04992252-.342325-.10341093-.516341-.15333344l-.156899-.04421709c-.169737-.04849616-.342326-.09699231-.519195-.14406211-.206821-.05491477-.418636-.10911636-.633302-.16189159l-.413644-.09984503c-.226791-.05134887-.456434-.10198457-.688931-.14976755-.235349-.05206205-.476403-.09556595-.718171-.13978304zm-28.673354-5.96003515h45.513645v42.83209185h-45.513645zm-34.9799929 23.62048155-.0021395-.0028527s3.3448085.0021395 5.2846548.0021395c.1939847 0 .390822.007845.5776748.019969.2160932.0121241.4229151.0263876.6297369.047783.3344809.0306667.6625431.0784497.9713495.135504.6033493.1141086 1.1539233.2731475 1.6445903.4849616.370853.1611784.7131788.3494576 1.0127139.5691166.1782947.1312249.3408995.2767134.490667.426481.0763101.0763101.147628.1568993.2118141.2374885.343039.422915.5363105.8864812.6390082 1.2858613.0870078.3366204.1055505.6518455.1126823.8144502.0028527.1312249 0 .2068219 0 .2068219s.0007131.0991318-.0121241.267442c-.0235349.3886825-.1326512 1.0761868-.5605585 1.750854-.1312249.2068218-.2938297.4115041-.4899538.6076283-.5099229.510636-1.1781714.8572409-1.8649626 1.0883108-.7573958.2567444-1.5361871.3651476-2.1324046.4207755-.315225.0263876-.5755352.0356589-.7595354.0427907-.1790078.0071318-.2881242.0099845-.2881242.0099845h-5.4650891zm0-12.7979934h3.6443436c.2424808 0 .5270392.0049923.8394115.0263876.718171.0470698 1.5704197.1782947 2.3156915.506357.3886825.171876.7495509.3979537 1.0469465.690357.2467598.2439072.4271941.4949461.5605585.7559695.2731475.5441555.3451785 1.1089931.3637212 1.4570243.0114109.2068219.0057054.3387599.0057054.3387599s.0014264.175442-.0228217.4514422c-.0271008.3095196-.0927132.7466982-.2795661 1.2031326-.1533334.3722794-.3851165.7559696-.7345741 1.0997217-.4407445.4328996-1.0070085.7402796-1.5975205.9506674-.1447753.0513488-.2924033.0969923-.4393182.1383566-.7531168.2103878-1.5069467.2859847-2.0511022.3266359-.1946978.0099845-.4129305.0228218-.5955043.0285272-.2332094.0071318-.4100778.0071318-.4100778.0071318h-2.6458933zm-5.5249961-4.81609638v30.84712228h11.6126903s5.6626396.1568993 8.7892154-2.9711029c2.5446219-2.5446219 2.3620482-5.4893371 2.3620482-5.4893371s.1832869-3.0738006-2.1730558-5.4315697c-2.0075983-2.0068851-4.5714761-2.5417692-4.5714761-2.5417692s1.1582024-.5434422 2.0482495-1.4334894c.4164964-.4172096 1.898482-1.7558462 1.898482-5.0050887 0-3.2734907-2.1801876-5.15628269-2.1801876-5.15628269s-2.3855831-2.81990894-7.7736488-2.81990894h-10.0130302v.00142635zm-11.9386129-6.00639177h45.5129309v42.83209185h-45.5136441v-42.83209185zm-34.9799934 23.62048155.0014264-.0028527s3.3440953.0021395 5.2825153.0021395c.1939846 0 .390822.007845.5776748.019969.2160932.0121241.422915.0263876.6297369.047783.335194.0306667.6625431.0784497.9713495.135504.6047756.1141086 1.1539233.2731475 1.6445903.4849616.370853.1611784.7131788.3494576 1.0127139.5691166.1782947.1312249.3401863.2767134.4899538.426481.0763101.0763101.147628.1568993.2118141.2374885.343039.422915.5355973.8864812.638295 1.2858613.0862947.3366204.1062637.6518455.1119691.8144502.0028527.1312249 0 .2068219 0 .2068219s.0014263.0991318-.0114109.267442c-.024248.3886825-.131938 1.0761868-.5612717 1.750854-.1297985.2068218-.2924033.4115041-.4899538.6076283-.5092097.510636-1.1774582.8572409-1.8642494 1.0883108-.7573958.2567444-1.5369003.3651476-2.1324046.4207755-.315225.0263876-.5741089.0356589-.7595354.0427907-.1790078.0071318-.2881242.0099845-.2881242.0099845h-5.4650891zm0-12.7979934h-.0007132 3.6443437c.2424808 0 .5270391.0049923.8386982.0263876.7181711.0470698 1.5711329.1782947 2.3156916.506357.3886824.171876.7495509.3979537 1.0469464.690357.2467599.2439072.4271941.4949461.5605586.7559695.2724343.5441555.3451785 1.1089931.3637211 1.4570243.0106977.2068219.0057055.3387599.0057055.3387599s.0014263.175442-.0228217.4514422c-.0271008.3095196-.0927133.7466982-.2802793 1.2031326-.1526203.3722794-.3836902.7559696-.7331478 1.0997217-.4407445.4328996-1.0070085.7402796-1.5975205.9506674-.1447753.0513488-.2924033.0969923-.4393181.1383566-.7531168.2103878-1.5069468.2859847-2.0511022.3266359-.1939847.0099845-.4115042.0228218-.5947912.0285272-.2332094.0071318-.4100778.0071318-.4100778.0071318h-2.6458933zm-5.5249961-4.81609638v30.84712228h11.6119771s5.6626396.1568993 8.7892154-2.9711029c2.5460483-2.5446219 2.3620482-5.4893371 2.3620482-5.4893371s.1840001-3.0738006-2.1723426-5.4315697c-2.0075983-2.0068851-4.5714761-2.5417692-4.5714761-2.5417692s1.1589156-.5434422 2.0482495-1.4334894c.4157833-.4172096 1.898482-1.7558462 1.898482-5.0050887 0-3.2734907-2.1787612-5.15628269-2.1787612-5.15628269s-2.3862963-2.81990894-7.7750752-2.81990894h-10.0130302v.00142635zm-11.93861293-6.00639177h45.51221773v42.83209185h-45.51293091v-42.83209185z" transform="translate(.523 .57)"/></svg>