<svg xmlns="http://www.w3.org/2000/svg" width="152" height="44" viewBox="0 0 152 44">
  <path d="M133.658977,6.1098027 C133.459287,6.07557012 133.253891,6.04205072 133.045643,6.00995767 L132.798883,5.97429873 C132.451565,5.92651575 132.097115,5.88657774 131.740526,5.85305834 C131.498045,5.82952344 131.255564,5.81312033 131.01451,5.79885675 C130.584463,5.77246913 130.158695,5.76177145 129.749331,5.76177145 C129.562478,5.76177145 129.455501,5.76533735 129.272927,5.76747688 C128.928462,5.77318231 128.593981,5.78887225 128.263779,5.81026761 C128.0755,5.82239165 127.890787,5.83879476 127.7075,5.8544847 C127.436492,5.87873277 127.168337,5.9079731 126.905174,5.94149251 L126.684088,5.97144602 L126.440181,6.00710496 L126.138506,6.05488794 C126.005855,6.0762833 125.87677,6.09910502 125.748398,6.12263992 C125.570103,6.15615932 125.391808,6.19181826 125.216366,6.22819038 C124.136614,6.45640759 123.138163,6.76022176 122.21531,7.11966387 C121.740333,7.30509036 121.281046,7.50478042 120.848146,7.71873405 C120.486564,7.89488922 120.13782,8.07817617 119.804052,8.27073444 C119.479556,8.45830046 119.167184,8.64729284 118.868362,8.84840926 C118.695773,8.96251787 118.526036,9.07876601 118.362005,9.19786687 C118.220795,9.29985143 118.080299,9.401836 117.944082,9.50738646 C117.656671,9.73061142 117.377105,9.9566891 117.116795,10.1884722 C116.872888,10.4045654 116.635399,10.6235113 116.415027,10.8431703 C116.224608,11.0335891 116.034189,11.2261473 115.853755,11.4279769 C115.671894,11.6326593 115.490034,11.8387679 115.316018,12.0534347 C115.127026,12.2873574 114.940886,12.5262723 114.762592,12.7737453 C114.631367,12.9570323 114.502994,13.1431719 114.378901,13.3328775 C114.29332,13.4612497 114.212017,13.5910482 114.130715,13.7222731 C113.655738,14.4982116 113.239242,15.3297781 112.899055,16.2162593 C112.472574,17.3216865 112.164481,18.5098423 111.995458,19.7750215 C111.942683,20.1722621 111.901318,20.5766345 111.877783,20.9902782 C111.859954,21.3076427 111.847117,21.6292864 111.847117,21.9552091 C111.847117,22.1991162 111.849256,22.4401707 111.864946,22.6783724 C111.881349,22.927985 111.900605,23.1733185 111.929132,23.4172256 L111.946962,23.5883885 C111.984047,23.8779391 112.028264,24.1624974 112.082466,24.4442031 C112.103861,24.5526062 112.126683,24.6631489 112.150218,24.7722653 C112.20014,25.0061879 112.255055,25.2372579 112.316388,25.4640487 C112.396264,25.7585916 112.480419,26.047429 112.575985,26.3312741 C112.69366,26.6785922 112.818466,27.0187785 112.956823,27.3482671 C113.176482,27.8724535 113.41611,28.3752446 113.675707,28.8480821 C113.828327,29.1262218 113.984513,29.3972298 114.146405,29.6561137 C114.276917,29.8643619 114.410281,30.0626256 114.545785,30.2594629 C114.722653,30.5162073 114.907367,30.7636803 115.089227,30.9990293 C115.281786,31.2486419 115.481476,31.4818514 115.674034,31.7050763 C115.916515,31.9832161 116.161135,32.2385341 116.396484,32.4731699 L116.524856,32.5979762 C116.720267,32.7862554 116.931368,32.9902245 117.175989,33.1970464 C117.342159,33.3382558 117.514035,33.486597 117.701601,33.6335118 C117.87633,33.7704421 118.056051,33.9116515 118.249323,34.049295 C118.478966,34.2133261 118.720021,34.3816363 118.976765,34.5470938 C119.247773,34.7211094 119.533044,34.8965514 119.837572,35.066288 C120.438782,35.4029084 121.102038,35.7259784 121.832333,36.019808 C122.104767,36.1282112 122.387186,36.2337617 122.679589,36.3336067 C122.968427,36.4320254 123.264396,36.5240254 123.572489,36.6131728 C124.095962,36.761514 124.64725,36.8948784 125.225638,37.0075606 C125.69063,37.0981343 126.175592,37.1730181 126.676243,37.2336383 C127.174042,37.2935453 127.688957,37.3406151 128.223841,37.3670028 C128.482725,37.37984 128.745888,37.3898245 129.01333,37.3941035 C129.135997,37.3962431 129.260803,37.3990958 129.384183,37.3990958 C130.341982,37.3990958 131.227037,37.3634369 132.04648,37.2949717 L132.207658,37.2807081 C132.53572,37.2507546 132.849519,37.216522 133.156186,37.1794367 C133.624031,37.1209561 134.07262,37.0510645 134.496962,36.9761808 C134.76583,36.9262583 135.024714,36.8741962 135.277893,36.8207078 C135.670141,36.7365527 136.04242,36.6452658 136.39901,36.5511262 C136.660746,36.4819479 136.915351,36.4084905 137.158545,36.335033 C137.450948,36.2473121 137.73408,36.1538856 138.000096,36.0625987 L138.259693,35.972025 C138.388065,35.9263816 138.56422,35.8636219 138.771756,35.7823195 C139.045616,35.6753427 139.376531,35.5448309 139.752376,35.3843657 C139.975601,35.2880866 140.219508,35.1789702 140.468408,35.0634353 C140.689493,34.9635902 140.924842,34.8494816 141.158765,34.735373 C141.25861,34.6868769 141.358455,34.6412334 141.4583,34.5905977 L141.4583,28.7496634 C141.391261,28.7924541 141.318517,28.8352449 141.249339,28.8766092 L140.848532,29.11909 C140.449152,29.3615708 140.064035,29.5883617 139.676779,29.7994626 C139.252438,30.0291062 138.838794,30.2416335 138.428717,30.4356181 C137.705553,30.7758044 137.014483,31.0632154 136.343382,31.3035567 C135.071784,31.7599911 133.901458,32.0523944 132.870201,32.2306891 C132.748961,32.2520845 132.62772,32.2720535 132.509333,32.2905961 C132.224061,32.3355264 131.953053,32.3690458 131.690603,32.3975729 C131.282665,32.4425032 130.906107,32.4653249 130.563781,32.481728 C130.342695,32.4909994 130.135874,32.4959916 129.943315,32.4959916 C129.529672,32.4959916 129.103191,32.4852939 128.668865,32.4546272 C128.160368,32.4189683 127.641887,32.361914 127.11984,32.2734798 C126.274724,32.1322704 125.427467,31.9168904 124.597327,31.6173553 C124.476087,31.5731383 124.352707,31.5232157 124.230753,31.4747196 C124.152303,31.4447661 124.070288,31.4105335 123.993265,31.3777273 C123.856334,31.3192466 123.722257,31.2614791 123.586753,31.1980062 C123.302908,31.0625022 123.018349,30.9177269 122.741636,30.7615408 C122.606132,30.6830911 122.472054,30.6017887 122.329418,30.5140678 C122.191062,30.4263468 122.051279,30.3357731 121.917201,30.2430598 C121.746038,30.1232458 121.577728,30.0020054 121.412271,29.8722068 C121.255371,29.7474006 121.09134,29.6140361 120.955836,29.4942221 L120.761851,29.3202065 L120.665572,29.2317723 L120.608518,29.1775707 L120.5372,29.1098187 C120.275464,28.8487953 120.034409,28.5856323 119.815463,28.3224693 C119.692796,28.1741281 119.577262,28.0257869 119.467432,27.8760194 C119.360455,27.7333836 119.26275,27.5864688 119.167897,27.4438331 C119.077323,27.3083291 118.992455,27.168546 118.912579,27.0323289 C118.791338,26.825507 118.681509,26.6186852 118.580951,26.4154292 C118.493943,26.2407004 118.415493,26.0659716 118.341323,25.8933824 C118.215803,25.6009791 118.108113,25.3028703 118.018253,25.0218779 C117.946935,24.8022188 117.887741,24.5832729 117.835679,24.3728852 C117.683059,23.7638305 117.603183,23.2054115 117.558966,22.732574 C117.542562,22.5485738 117.530438,22.3795505 117.523307,22.2233643 C117.512609,21.9894417 117.509043,21.7868989 117.509043,21.6242941 C117.509043,21.5173173 117.510469,21.3946506 117.516175,21.2534412 C117.529012,20.9196735 117.5554,20.4974716 117.625291,20.0153628 C117.668082,19.7229595 117.727989,19.4091608 117.805012,19.0810986 C117.857074,18.8621527 117.919121,18.6417804 117.989012,18.4121368 C118.053198,18.2038886 118.128082,17.9949273 118.210098,17.7802604 C118.263586,17.6354851 118.325633,17.491423 118.388392,17.3452214 C118.473974,17.1476709 118.56954,16.9508335 118.672238,16.7497171 C118.749261,16.5999495 118.834842,16.450182 118.92185,16.2982749 C119.114408,15.9652204 119.331928,15.6350186 119.577975,15.3069564 C119.667122,15.1899951 119.758409,15.0716074 119.854688,14.9553592 C119.978068,14.8055917 120.109293,14.6522583 120.24551,14.5060566 C120.314688,14.4333124 120.383154,14.3562891 120.455185,14.2835448 C121.524953,13.2137766 122.730225,12.4121637 123.976861,11.8444734 C124.16942,11.7567524 124.367683,11.6775895 124.563094,11.5991399 C124.762785,11.5206902 124.957482,11.4507987 125.159312,11.3823335 C125.374692,11.3110156 125.594351,11.2439768 125.810444,11.1826434 C126.01584,11.1255891 126.224088,11.0756666 126.427344,11.0278836 C126.632739,10.9801007 126.840988,10.9401627 127.044243,10.9023642 C127.270321,10.8595735 127.495686,10.8267672 127.719624,10.7953874 C127.944988,10.7668602 128.168926,10.7426121 128.390012,10.7240695 C128.816493,10.6869842 129.234416,10.6684415 129.641641,10.6684415 C129.779284,10.6684415 129.912649,10.6670152 130.048153,10.6705811 C130.349827,10.6777129 130.645796,10.6876974 130.933921,10.70624 C131.135037,10.7205036 131.330448,10.7326276 131.523006,10.7504571 C131.89172,10.7846897 132.246883,10.8303331 132.584216,10.881682 C132.883751,10.9266123 133.174728,10.9786743 133.445736,11.0314495 C133.866512,11.1148915 134.248776,11.2083179 134.591815,11.2981784 C134.816466,11.3566591 135.021861,11.4179924 135.210141,11.4736204 C135.492559,11.5577755 135.734327,11.6333724 135.921893,11.6982717 C136.246389,11.8102408 136.425397,11.8765664 136.425397,11.8765664 C136.712808,11.978551 136.992374,12.0919464 137.269801,12.2024891 C137.640654,12.3508303 137.994391,12.5127219 138.33529,12.6660553 C138.618422,12.7930012 138.885864,12.9256524 139.139043,13.0490323 C139.347291,13.1503037 139.540562,13.2530015 139.723849,13.3471411 C140.043353,13.5111722 140.312935,13.6623661 140.535447,13.7821801 L141.130951,14.1066765 L141.130951,8.37271901 C141.130951,8.37271901 140.772222,8.22437782 140.153896,7.99188153 C139.881462,7.88775743 139.559105,7.76580386 139.192531,7.63529214 C138.987849,7.56397426 138.774608,7.48552459 138.545678,7.40921446 C138.36453,7.34788108 138.177678,7.28084228 137.982267,7.21879572 C137.764034,7.14961738 137.537956,7.07402043 137.30332,7.00341573 C137.135723,6.95349321 136.960995,6.9000048 136.786979,6.85008229 L136.63008,6.8058652 C136.460343,6.75736904 136.287754,6.70887289 136.110885,6.66180309 C135.904064,6.60688832 135.692249,6.55268673 135.477583,6.4999115 L135.063939,6.40006647 C134.837148,6.3487176 134.607505,6.2980819 134.375008,6.25029892 C134.139659,6.19823687 133.898605,6.15473297 133.656837,6.11051588 L133.658977,6.1098027 Z M104.985623,0.149767546 L150.499268,0.149767546 L150.499268,42.9818594 L104.985623,42.9818594 L104.985623,0.149767546 Z M70.0056301,23.7702491 L70.0034906,23.7673964 C70.0034906,23.7673964 73.3482991,23.7695359 75.2881454,23.7695359 C75.4821301,23.7695359 75.6789674,23.7773809 75.8658202,23.7895049 C76.0819134,23.801629 76.2887353,23.8158925 76.4955571,23.8372879 C76.830038,23.8679546 77.1581002,23.9157376 77.4669066,23.9727919 C78.0702559,24.0869005 78.6208299,24.2459394 79.1114969,24.4577535 C79.4823499,24.6189319 79.8246757,24.8072111 80.1242108,25.0268701 C80.3025055,25.158095 80.4651103,25.3035835 80.6148778,25.4533511 C80.6911879,25.5296612 80.7625058,25.6102504 80.8266919,25.6908396 C81.1697309,26.1137546 81.3630024,26.5773208 81.4657001,26.9767009 C81.5527079,27.3133213 81.5712506,27.6285464 81.5783824,27.7911511 C81.5812351,27.922376 81.5783824,27.997973 81.5783824,27.997973 C81.5783824,27.997973 81.5790955,28.0971048 81.5662583,28.265415 C81.5427234,28.6540975 81.4336071,29.3416018 81.0056998,30.016269 C80.8744749,30.2230908 80.7118701,30.4277731 80.515746,30.6238973 C80.0058231,31.1345333 79.3375746,31.4811382 78.6507834,31.7122081 C77.8933876,31.9689525 77.1145963,32.0773557 76.5183788,32.1329836 C76.2031538,32.1593712 75.9428436,32.1686425 75.7588434,32.1757743 C75.5798356,32.1829061 75.4707192,32.1857588 75.4707192,32.1857588 L70.0056301,32.1857588 L70.0056301,23.7702491 Z M70.0056301,10.9722557 L73.6499737,10.9722557 C73.8924545,10.9722557 74.1770129,10.977248 74.4893852,10.9986433 C75.2075562,11.0457131 76.0598049,11.176938 76.8050767,11.5050003 C77.1937592,11.6768763 77.5546276,11.902954 77.8520232,12.1953573 C78.098783,12.4392645 78.2792173,12.6903034 78.4125817,12.9513268 C78.6857292,13.4954823 78.7577602,14.0603199 78.7763029,14.4083511 C78.7877138,14.615173 78.7820083,14.747111 78.7820083,14.747111 C78.7820083,14.747111 78.7834347,14.922553 78.7591866,15.1985532 C78.7320858,15.5080728 78.6664734,15.9452514 78.4796205,16.4016858 C78.3262871,16.7739652 78.094504,17.1576554 77.7450464,17.5014075 C77.3043019,17.9343071 76.7380379,18.2416871 76.1475259,18.4520749 C76.0027506,18.5034237 75.8551226,18.5490672 75.7082077,18.5904315 C74.9550909,18.8008193 74.201261,18.8764162 73.6571055,18.9170674 C73.4624077,18.9270519 73.244175,18.9398892 73.0616012,18.9455946 C72.8283918,18.9527264 72.6515234,18.9527264 72.6515234,18.9527264 L70.0056301,18.9527264 L70.0056301,10.9722557 Z M64.480634,6.15615932 L64.480634,37.0032816 L76.0933243,37.0032816 C76.0933243,37.0032816 81.7559639,37.1601809 84.8825397,34.0321787 C87.4271616,31.4875568 87.2445879,28.5428416 87.2445879,28.5428416 C87.2445879,28.5428416 87.4278748,25.469041 85.0715321,23.1112719 C83.0639338,21.1043868 80.500056,20.5695027 80.500056,20.5695027 C80.500056,20.5695027 81.6582584,20.0260605 82.5483055,19.1360133 C82.9648019,18.7188037 84.4467875,17.3801671 84.4467875,14.1309246 C84.4467875,10.8574339 82.2665999,8.97464191 82.2665999,8.97464191 C82.2665999,8.97464191 79.8810168,6.15473297 74.4929511,6.15473297 L64.4799209,6.15473297 L64.4799209,6.15615932 L64.480634,6.15615932 Z M52.5420211,0.149767546 L98.054952,0.149767546 L98.054952,42.9818594 L52.5413079,42.9818594 L52.5413079,0.149767546 L52.5420211,0.149767546 Z M17.5620277,23.7702491 L17.5634541,23.7673964 C17.5634541,23.7673964 20.9075494,23.7695359 22.8459694,23.7695359 C23.039954,23.7695359 23.2367914,23.7773809 23.4236442,23.7895049 C23.6397374,23.801629 23.8465592,23.8158925 24.0533811,23.8372879 C24.3885751,23.8679546 24.7159242,23.9157376 25.0247306,23.9727919 C25.6295062,24.0869005 26.1786539,24.2459394 26.6693209,24.4577535 C27.0401739,24.6189319 27.3824997,24.8072111 27.6820348,25.0268701 C27.8603295,25.158095 28.0222211,25.3035835 28.1719886,25.4533511 C28.2482987,25.5296612 28.3196166,25.6102504 28.3838027,25.6908396 C28.7268417,26.1137546 28.9194,26.5773208 29.0220977,26.9767009 C29.1083924,27.3133213 29.1283614,27.6285464 29.1340668,27.7911511 C29.1369195,27.922376 29.1340668,27.997973 29.1340668,27.997973 C29.1340668,27.997973 29.1354931,28.0971048 29.1226559,28.265415 C29.0984079,28.6540975 28.9907179,29.3416018 28.5613842,30.016269 C28.4315857,30.2230908 28.2689809,30.4277731 28.0714304,30.6238973 C27.5622207,31.1345333 26.8939722,31.4811382 26.207181,31.7122081 C25.4497852,31.9689525 24.6702807,32.0773557 24.0747764,32.1329836 C23.7595514,32.1593712 23.5006675,32.1686425 23.315241,32.1757743 C23.1362332,32.1829061 23.0271168,32.1857588 23.0271168,32.1857588 L17.5620277,32.1857588 L17.5620277,23.7702491 Z M17.5620277,10.9722557 L17.5613145,10.9722557 L21.2056582,10.9722557 C21.448139,10.9722557 21.7326973,10.977248 22.0443564,10.9986433 C22.7625275,11.0457131 23.6154893,11.176938 24.360048,11.5050003 C24.7487304,11.6768763 25.1095989,11.902954 25.4069944,12.1953573 C25.6537543,12.4392645 25.8341885,12.6903034 25.967553,12.9513268 C26.2399873,13.4954823 26.3127315,14.0603199 26.3312741,14.4083511 C26.3419718,14.615173 26.3369796,14.747111 26.3369796,14.747111 C26.3369796,14.747111 26.3384059,14.922553 26.3141579,15.1985532 C26.2870571,15.5080728 26.2214446,15.9452514 26.0338786,16.4016858 C25.8812583,16.7739652 25.6501884,17.1576554 25.3007308,17.5014075 C24.8599863,17.9343071 24.2937223,18.2416871 23.7032103,18.4520749 C23.558435,18.5034237 23.410807,18.5490672 23.2638922,18.5904315 C22.5107754,18.8008193 21.7569454,18.8764162 21.21279,18.9170674 C21.0188053,18.9270519 20.8012858,18.9398892 20.6179988,18.9455946 C20.3847894,18.9527264 20.207921,18.9527264 20.207921,18.9527264 L17.5620277,18.9527264 L17.5620277,10.9722557 Z M12.0370316,6.15615932 L12.0370316,37.0032816 L23.6490087,37.0032816 C23.6490087,37.0032816 29.3116483,37.1601809 32.4382241,34.0321787 C34.9842724,31.4875568 34.8002723,28.5428416 34.8002723,28.5428416 C34.8002723,28.5428416 34.9842724,25.469041 32.6279297,23.1112719 C30.6203314,21.1043868 28.0564536,20.5695027 28.0564536,20.5695027 C28.0564536,20.5695027 29.2153692,20.0260605 30.1047031,19.1360133 C30.5204864,18.7188037 32.0031851,17.3801671 32.0031851,14.1309246 C32.0031851,10.8574339 29.8244239,8.97464191 29.8244239,8.97464191 C29.8244239,8.97464191 27.4381276,6.15473297 22.0493487,6.15473297 L12.0363185,6.15473297 L12.0363185,6.15615932 L12.0370316,6.15615932 Z M0.0984186732,0.149767546 L45.6106364,0.149767546 L45.6106364,42.9818594 L0.0977054944,42.9818594 L0.0977054944,0.149767546 L0.0984186732,0.149767546 Z" transform="translate(.523 .57)"/>
</svg>
