<svg height="57" viewBox="0 0 288 57" width="288" xmlns="http://www.w3.org/2000/svg"><path d="m260.079891 56.0889455c-15.322873 0-27.744673-12.418225-27.745231-27.7372469s12.420336-27.73815165 27.743209-27.73926788 27.745578 12.41620378 27.747253 27.73522558c-.016711 15.3129822-12.428401 27.7229093-27.745231 27.7412892zm0-52.6569084c-13.763581.00167438-24.919967 11.1575184-24.91885 24.9176401.001116 13.7601218 11.159312 24.9141561 24.922893 24.9135981s24.920872-11.1554972 24.920873-24.915619c-.016714-13.754773-11.166683-24.90058401-24.924916-24.9156192z"/><path d="m247.737221 15.9868654h5.273686c2.021731 0 3.570378.5649319 4.645939 1.6947957s1.61132 2.7064179 1.607276 4.7296624v11.6270868c0 2.3284494-.565074 4.0464889-1.695222 5.1541193-1.130147 1.1076304-2.753598 1.660435-4.870351 1.6584139l-4.961328.0000055zm3.563301 21.5078367h1.649733c1.000757 0 1.708363-.2506315 2.122818-.7518949s.623704-1.2865088.627748-2.3557357v-11.975748c0-.978272-.202174-1.7352202-.60652-2.2708443-.404346-.5356242-1.119028-.8034362-2.144046-.8034362h-1.640635zm11.31462-21.5078367h5.194839c.998106-.0265646 1.991045.1519544 2.917358.5245074.753555.3138513 1.427896.7912595 1.974221 1.3976759.510602.5796091.886538 1.2650298 1.100833 2.0070747.221874.7654923.333184 1.558757.330553 2.3557357v.9095505c.009539.5740127-.043336 1.1473625-.157695 1.7099549-.091328.4266187-.249997.8359849-.470053 1.2127339-.206743.3457911-.465526.6576841-.767247.9247097-.323796.2836292-.674162.5354232-1.046246.751895.799618.3604196 1.452227.9829158 1.849884 1.7645279.404347.7801923.60652 1.8221327.60652 3.1258219v1.3976758c0 2.1889847-.529694 3.864579-1.589081 5.0267823-1.059387 1.1622032-2.753598 1.7443156-5.082633 1.7463368h-4.852155zm3.563302 10.1960607h1.607276c1.186756 0 1.984329-.2971198 2.392719-.8913594.40839-.5942397.610563-1.4613444.60652-2.6013144 0-1.1177364-.226434-1.9555335-.679302-2.5133911s-1.273691-.8367864-2.462469-.8367864h-1.467777zm0 11.1025795h1.537526c.580939.0316222 1.161279-.0721694 1.695222-.3031835.388595-.19221.710738-.4963205.924942-.8731685.220859-.4104418.352127-.8630492.38514-1.3279438.0465-.5113693.06975-1.0702377.06975-1.6766047.004895-.5486032-.030581-1.0968232-.106141-1.6402225-.054268-.423067-.208082-.8272459-.448824-1.1793839-.228587-.3205686-.544324-.568886-.90978-.715513-.503268-.1808854-1.036406-.2642315-1.570885-.2455785h-1.570885zm-244.8791833 15.5624083c-2.4655014 2.2556852-5.4980985 3.1894904-10.5079489 3.1894904h-9.82561461c-.49232598.0139108-.90632688-.3663905-.93403991-.8580093v-53.66347755c.02771303-.49161868.44171393-.87192001.93403991-.85800928h9.91052731c4.9249377 0 7.8817199.85800928 10.2532108 3.1894903 2.5413164 2.48913647 3.3055308 5.36634777 3.3055308 11.12380223 0 3.8898442-.5094763 7.3127858-3.5572364 10.1111694-1.0732005 1.026725-2.3821953 1.7742366-3.8119745 2.1768574 1.5617306.3190982 3.0011421 1.0738372 4.1516254 2.1768576 3.3024982 3.1106626 3.7240292 7.249117 3.7240292 11.1905024 0 6.8549787-1.1008327 9.8110179-3.6421491 12.2213264zm-10.3502539-48.06671028h-4.98255699c-.49232598-.01391072-.90632689.36639061-.9340399.85800928v18.8155674c.02771301.4916186.44171392.87192.9340399.8580092h4.98255699c5.434414 0 8.4912719-2.8772113 8.4912719-10.2657929 0-8.08893553-3.0568579-10.26579298-8.4912719-10.26579298zm0 24.57908558h-4.98255699c-.49232598-.0139108-.90632689.3663904-.9340399.8580093v20.8378012c.02771301.4916186.44171392.8719198.9340399.858009h4.98255699c5.7619345 0 8.9825526-2.4254677 8.9825526-11.2784255.0121304-8.0889355-3.2206181-11.2784259-8.9825526-11.2784259zm22.2622954 25.8191058v-53.66347755c.0277131-.49161868.4417138-.87192001.9340397-.85800928h3.1296403c.492326-.01391073.9063269.3663906.93404.85800928v53.66347755c-.0277131.4916188-.441714.8719201-.93404.8580093h-3.1296403c-.4923259.0139108-.9063266-.3663905-.9340397-.8580093zm26.562518 1.4795355c-3.8968873 0-6.9476802-1.2430522-8.9825526-3.2652862-3.8119747-3.7321888-4.245636-8.0889355-4.245636-25.0459881 0-16.9570525.4245636-21.3107674 4.245636-25.04598801 2.0409377-2.02223386 5.0917303-3.26528617 8.9825526-3.26528617 3.890822 0 6.6929418 1.16725643 8.7278143 3.0318349 2.3623932 2.24052597 3.6391167 5.55432151 3.7937789 9.38352898-.0115972.5011808-.4266366.898488-.9279745.8883276h-3.1296403c-.4835572.0145615-.8939446-.3517638-.93404-.8337546-.1819557-4.17483662-1.8043951-8.34664144-7.5238734-8.34664144-2.4564036 0-4.1516254.77918158-5.3373707 2.02223388-2.4564039 2.72865142-2.8809674 5.91207806-2.8809674 22.16877676 0 16.2566986.4245635 19.4461889 2.8809674 22.1687767 1.1857453 1.2430525 2.8809671 2.022234 5.3373707 2.022234 4.3214511 0 7.5420692-3.1106626 7.5420692-8.322387v-12.7579611c-.0277131-.4916186-.4417141-.8719201-.9340401-.8580093h-6.6140941v-3.8898442h11.6057489c.492326-.0139107.9063269.3663906.93404.8580093v16.6417418c.0060653 8.2374954-5.8407822 12.4456822-12.5397889 12.4456822zm41.1493098-2.64376c-2.0348727 1.634159-4.7460143 2.64376-8.3032509 2.64376-3.8968873 0-6.9476799-1.2430522-8.9825523-3.2652862-3.8119747-3.7321888-4.245636-8.0889355-4.245636-25.0459881 0-16.9570525.4245636-21.3107674 4.245636-25.04598801 2.0348724-2.02223386 5.085665-3.26528617 8.9825523-3.26528617 3.8119747 0 6.6080292 1.08842872 8.6429019 2.95603902 2.426078 2.23749415 3.639116 5.6119264 3.860496 9.44416566.000087.2454896-.099087.4805904-.274988.6518789-.1759.1712885-.413588.264218-.659052.2576716h-3.111444c-.482481.0146653-.892429-.3499375-.93404-.8307228-.112206-2.5012637-.7520845-4.8691268-2.3532956-6.47903112-1.1857457-1.16725645-2.7960546-1.86761031-5.155415-1.86761031-2.4564039 0-4.1516257.77918158-5.337371 2.02223388-2.4564039 2.7286514-2.8809674 5.91207805-2.8809674 22.16877675 0 16.2566988.4245635 19.4461891 2.8809674 22.1687766 1.1857453 1.2430525 2.8809671 2.022234 5.337371 2.022234 2.3714906 0 3.9817998-.7003537 5.155415-1.8676103 1.6012111-1.6099043 2.2441216-3.9777673 2.3532956-6.4790313.03241-.4880117.445034-.8630304.93404-.8489136h3.114477c.245464-.0065464.483152.086383.659052.2576716s.275075.4063894.274988.6518789c-.230478 4.0414359-1.519331 7.5037913-4.20318 9.750381zm31.39951 1.1642245v-25.1975798h-14.91128v25.1975798c-.027713.4916188-.441713.8719201-.934039.8580093h-3.129641c-.492326.0139108-.906326-.3663905-.93404-.8580093v-53.66347755c.027714-.49161868.441714-.87192001.93404-.85800928h3.135706c.489999-.01058066.900316.36880028.927974.85800928v24.25467915h14.91128v-24.25467915c.027713-.49161868.441714-.87192001.93404-.85800928h3.129641c.493488-.01558755.90934.36517834.937072.85800928v53.66347755c-.027713.4916188-.441714.8719201-.93404.8580093h-3.132673c-.492326.0139108-.906327-.3663905-.93404-.8580093zm34.977975.1697829-3.005303-13.7887853c-.102638-.415831-.481549-.7037315-.90978-.6912583h-12.533723c-.429126-.0121509-.808351.277251-.909779.6942902l-2.926457 13.7796895c-.101428.4170393-.480653.7064415-.909779.6942903h-3.499617c-.270464.0143249-.532445-.0967386-.710166-.3010674-.177722-.2043288-.251359-.4791281-.199613-.7449157l13.040167-53.66347752c.11095-.4073794.487724-.68486643.90978-.67003551h3.172096c.422928-.01448326.800002.26448098.909779.67306735l12.806658 53.66347758c.05068.2653298-.023447.5392237-.201034.7428059s-.438922.3142543-.708745.3001453h-3.408639c-.429577.0157103-.811532-.2713159-.915845-.6882264zm-10.180428-46.44771065-5.795293 26.81961155c-.043213.2623396.034214.5301728.210749.7290185.176534.1988457.43335.3074978.69903.2957415h9.837745c.266304.0119379.523735-.0971096.700397-.2966872.176662-.1995772.25362-.4682952.209382-.7311047zm19.869576 46.27792775v-53.66347755c.027713-.49161868.441714-.87192001.93404-.85800928h3.12964c.492326-.01391073.906327.3663906.93404.85800928v53.66347755c-.027713.4916188-.441714.8719201-.93404.8580093h-3.126607c-.493488.0155874-.909341-.3651783-.937073-.8580093zm36.263796.3031835-16.63986-42.6124394v42.3092559c-.027713.4916188-.441714.8719201-.93404.8580093h-3.12964c-.492326.0139108-.906327-.3663905-.93404-.8580093v-53.66347755c.027713-.49161868.441714-.87192001.93404-.85800928h3.405606c.382899-.01541794.736371.20454503.891584.55482579l16.63986 42.60031194-.097043-42.29712845c.026133-.49281995.440598-.87489347.93404-.86104111h3.144803c.484103-.0006888.883961.37774859.909779.86104111v53.66347755c-.027713.4916188-.441714.8719201-.93404.8580093h-3.311596c-.378546.0103919-.725907-.2087496-.879453-.5548258z"/></svg>