<?xml version="1.0" encoding="UTF-8"?>
<svg width="766px" height="151px" viewBox="0 0 766 151" version="1.1" xmlns="http://www.w3.org/2000/svg" xmlns:xlink="http://www.w3.org/1999/xlink">
    <!-- Generator: Sketch 46.2 (44496) - http://www.bohemiancoding.com/sketch -->
    <title>bigchain-db</title>
    <desc>Created with Sketch.</desc>
    <defs></defs>
    <g id="Page-1" stroke="none" stroke-width="1" fill="none" fill-rule="evenodd">
        <g id="bigchain-db" fill-rule="nonzero" fill="#FFFFFF">
            <path d="M691.77,149.28 C661.935955,149.284045 635.037314,131.315562 623.617516,103.75366 C612.197719,76.1917571 618.505843,44.4646261 639.600268,23.3673404 C660.694694,2.27005468 692.420969,-4.04237089 719.98442,7.3736895 C747.54787,18.7897499 765.52,45.6859549 765.52,75.52 C765.475919,116.234347 732.484341,149.230399 691.77,149.28 L691.77,149.28 Z M691.77,9.28 C664.972558,9.27191021 640.809266,25.4080744 630.548723,50.1633613 C620.28818,74.9186483 625.951311,103.417234 644.897104,122.368749 C663.842897,141.320263 692.339772,146.991998 717.098156,136.73893 C741.85654,126.485862 757.999999,102.327443 758,75.53 C757.961452,38.9633006 728.336678,9.32510816 691.77,9.27 L691.77,9.28 Z" id="Shape"></path>
            <path d="M659,42.66 L673,42.66 C678.386667,42.66 682.503333,44.16 685.35,47.16 C688.196667,50.16 689.62,54.3533333 689.62,59.74 L689.62,90.65 C689.62,96.8366667 688.12,101.4 685.12,104.34 C682.12,107.28 677.786667,108.75 672.12,108.75 L659,108.75 L659,42.66 Z M668.47,99.85 L672.83,99.85 C675.496667,99.85 677.383333,99.1833333 678.49,97.85 C679.596667,96.5166667 680.153333,94.4266667 680.16,91.58 L680.16,59.74 C680.282802,57.6230666 679.729493,55.5218956 678.58,53.74 C677.526667,52.32 675.606667,51.6066667 672.82,51.6 L668.46,51.6 L668.47,99.85 Z" id="Shape"></path>
            <path d="M698.51,42.66 L712.34,42.66 C714.991188,42.5887168 717.628837,43.0617919 720.09,44.05 C722.093256,44.882426 723.886484,46.1496399 725.34,47.76 C726.695314,49.3028193 727.692479,51.1264021 728.26,53.1 C728.850853,55.1373367 729.147189,57.2487275 729.14,59.37 L729.14,61.78 C729.165277,63.3074046 729.02445,64.8330317 728.72,66.33 C728.479519,67.4731214 728.057507,68.5703502 727.47,69.58 C726.932585,70.497125 726.258128,71.3267069 725.47,72.04 C724.609691,72.7943712 723.678727,73.46413 722.69,74.04 C724.816163,74.9975455 726.551837,76.65208 727.61,78.73 C728.77137,81.3408063 729.312172,84.185151 729.19,87.04 L729.19,90.75 C729.19,96.57 727.783333,101.026667 724.97,104.12 C722.156667,107.213333 717.653333,108.76 711.46,108.76 L698.56,108.76 L698.51,42.66 Z M708,69.77 L712.27,69.77 C715.423333,69.77 717.543333,68.98 718.63,67.4 C719.716667,65.82 720.256667,63.5133333 720.25,60.48 C720.25,57.5066667 719.646667,55.28 718.44,53.8 C717.233333,52.32 715.053333,51.5766667 711.9,51.57 L708,51.57 L708,69.77 Z M708,99.29 L712.08,99.29 C713.624772,99.3617147 715.165128,99.0741816 716.58,98.45 C717.613285,97.9396851 718.470085,97.1316463 719.04,96.13 C719.618768,95.0371113 719.959575,93.8340623 720.04,92.6 C720.16,91.2666667 720.22,89.78 720.22,88.14 C720.233689,86.6817674 720.140103,85.2245028 719.94,83.78 C719.801918,82.6668699 719.404605,81.6016618 718.78,80.67 C718.160983,79.8121087 717.306478,79.152125 716.32,78.77 C714.980666,78.2895427 713.561987,78.0689347 712.14,78.12 L708,78.12 L708,99.29 Z" id="Shape"></path>
            <path d="M57,140.67 C50.47,146.67 42.36,149.15 29.07,149.15 L3,149.15 C1.68334957,149.206482 0.569443776,148.18652 0.51,146.87 L0.51,4.18 C0.569443776,2.86347997 1.68334957,1.84351803 3,1.9 L29.34,1.9 C42.4,1.9 50.29,4.18 56.59,10.38 C63.35,17 65.37,24.65 65.37,39.95 C65.37,50.29 64.02,59.39 55.91,66.84 C53.0554731,69.5716876 49.573358,71.559996 45.77,72.63 C49.9089271,73.4851268 53.7220455,75.4922137 56.77,78.42 C65.55,86.69 66.68,97.65 66.68,108.2 C66.71,126.4 63.78,134.26 57,140.67 L57,140.67 Z M29.55,12.86 L16.26,12.86 C14.9433496,12.803518 13.8294438,13.82348 13.77,15.14 L13.77,65.14 C13.8294438,66.45652 14.9433496,67.476482 16.26,67.42 L29.54,67.42 C43.95,67.42 52.06,59.77 52.06,40.12 C52.07,18.65 44,12.86 29.55,12.86 L29.55,12.86 Z M29.55,78.21 L16.26,78.21 C14.9433496,78.153518 13.8294438,79.17348 13.77,80.49 L13.77,135.9 C13.8294438,137.21652 14.9433496,138.236482 16.26,138.18 L29.54,138.18 C44.86,138.18 53.41,131.77 53.41,108.18 C53.42,86.69 44.86,78.21 29.55,78.21 L29.55,78.21 Z" id="Shape"></path>
            <path d="M88.69,146.87 L88.69,4.18 C88.7494438,2.86347997 89.8633496,1.84351803 91.18,1.9 L99.5,1.9 C100.81665,1.84351803 101.930556,2.86347997 101.99,4.18 L101.99,146.87 C101.930556,148.18652 100.81665,149.206482 99.5,149.15 L91.18,149.15 C89.8633496,149.206482 88.7494438,148.18652 88.69,146.87 L88.69,146.87 Z" id="Shape"></path>
            <path d="M159.32,150.81 C148.96,150.81 140.85,147.5 135.45,142.12 C125.31,132.19 124.19,120.61 124.19,75.53 C124.19,30.45 125.32,18.86 135.45,8.94 C140.86,3.56 148.96,0.25 159.32,0.25 C169.68,0.25 177.11,3.35 182.52,8.32 C188.8,14.32 192.16,23.09 192.6,33.27 C192.595256,33.9146159 192.328135,34.5294872 191.860211,34.9728827 C191.392288,35.4162781 190.763938,35.6499371 190.12,35.62 L181.8,35.62 C180.516579,35.6616707 179.425888,34.6897239 179.32,33.41 C178.84,22.31 174.52,11.22 159.32,11.22 C152.79,11.22 148.32,13.29 145.13,16.6 C138.6,23.84 137.47,32.32 137.47,75.54 C137.47,118.76 138.6,127.24 145.13,134.48 C148.28,137.79 152.79,139.86 159.32,139.86 C170.81,139.86 179.32,131.59 179.32,117.73 L179.32,83.8 C179.260556,82.48348 178.14665,81.463518 176.83,81.52 L159.32,81.52 L159.32,71.18 L190.17,71.18 C191.48665,71.123518 192.600556,72.14348 192.66,73.46 L192.66,117.71 C192.65,139.64 177.11,150.81 159.32,150.81 L159.32,150.81 Z" id="Shape"></path>
            <path d="M268.69,143.77 C263.28,148.11 256.08,150.77 246.62,150.77 C236.26,150.77 228.15,147.46 222.75,142.08 C212.61,132.15 211.49,120.57 211.49,75.49 C211.49,30.41 212.62,18.82 222.75,8.9 C228.16,3.52 236.26,0.21 246.62,0.21 C256.76,0.21 264.19,3.11 269.62,8.07 C276.1,14.02 279.28,22.99 279.89,33.18 C279.896198,33.834209 279.632818,34.462121 279.161767,34.9161461 C278.690716,35.3701712 278.053538,35.6102673 277.4,35.58 L269.1,35.58 C267.816579,35.6216707 266.725888,34.6497239 266.62,33.37 C266.32,26.72 264.62,20.43 260.36,16.14 C257.21,13.04 252.93,11.14 246.62,11.14 C240.09,11.14 235.62,13.21 232.43,16.52 C225.9,23.76 224.77,32.24 224.77,75.46 C224.77,118.68 225.9,127.16 232.43,134.4 C235.58,137.71 240.09,139.78 246.62,139.78 C252.93,139.78 257.21,137.92 260.36,134.78 C264.62,130.5 266.36,124.2 266.62,117.55 C266.725888,116.270276 267.816579,115.298329 269.1,115.34 L277.38,115.34 C278.029137,115.30983 278.662187,115.547526 279.131047,115.997481 C279.599907,116.447435 279.863443,117.070172 279.86,117.72 C279.24,128.59 275.82,137.8 268.69,143.77 L268.69,143.77 Z" id="Shape"></path>
            <path d="M352.16,146.87 L352.16,79.87 L312.51,79.87 L312.51,146.87 C312.450556,148.18652 311.33665,149.206482 310.02,149.15 L301.7,149.15 C300.38335,149.206482 299.269444,148.18652 299.21,146.87 L299.21,4.18 C299.269444,2.86347997 300.38335,1.84351803 301.7,1.9 L310,1.9 C311.31665,1.84351803 312.430556,2.86347997 312.49,4.18 L312.49,68.7 L352.13,68.7 L352.13,4.18 C352.189444,2.86347997 353.30335,1.84351803 354.62,1.9 L363,1.9 C364.31665,1.84351803 365.430556,2.86347997 365.49,4.18 L365.49,146.87 C365.430556,148.18652 364.31665,149.206482 363,149.15 L354.68,149.15 C354.042595,149.185356 353.417536,148.96424 352.944151,148.535939 C352.470765,148.107638 352.188402,147.507753 352.16,146.87 L352.16,146.87 Z" id="Shape"></path>
            <path d="M445.14,147.32 L437.14,110.66 C436.855091,109.554192 435.84135,108.793887 434.7,108.83 L401.4,108.83 C400.252794,108.796067 399.237018,109.566226 398.96,110.68 L391.18,147.32 C390.902982,148.433774 389.887206,149.203933 388.74,149.17 L379.47,149.17 C378.749581,149.210847 378.050609,148.917039 377.575724,148.373755 C377.10084,147.830472 376.903162,147.098482 377.04,146.39 L411.74,3.7 C412.046511,2.6200004 413.047847,1.8865117 414.17,1.92 L422.57,1.92 C423.694989,1.8877109 424.69728,2.62602421 425,3.71 L459,146.4 C459.133323,147.106969 458.934032,147.83597 458.459593,148.376791 C457.985154,148.917612 457.28831,149.210132 456.57,149.17 L447.51,149.17 C446.388779,149.171106 445.411114,148.40795 445.14,147.32 L445.14,147.32 Z M418.06,23.82 L402.66,95.13 C402.540036,95.8326611 402.746899,96.5516864 403.221925,97.0831698 C403.69695,97.6146533 404.388331,97.9006297 405.1,97.86 L431.25,97.86 C431.961669,97.9006297 432.65305,97.6146533 433.128075,97.0831698 C433.603101,96.5516864 433.809964,95.8326611 433.69,95.13 L418.06,23.82 Z" id="Shape"></path>
            <path d="M470.89,146.87 L470.89,4.18 C470.949444,2.86347997 472.06335,1.84351803 473.38,1.9 L481.7,1.9 C483.01665,1.84351803 484.130556,2.86347997 484.19,4.18 L484.19,146.87 C484.130556,148.18652 483.01665,149.206482 481.7,149.15 L473.38,149.15 C472.06335,149.206482 470.949444,148.18652 470.89,146.87 L470.89,146.87 Z" id="Shape"></path>
            <path d="M567.29,147.64 L523.06,34.37 L523.06,146.87 C523.000556,148.18652 521.88665,149.206482 520.57,149.15 L512.25,149.15 C510.93335,149.206482 509.819444,148.18652 509.76,146.87 L509.76,4.18 C509.819444,2.86347997 510.93335,1.84351803 512.25,1.9 L521.3,1.9 C522.315657,1.87653289 523.242912,2.47488969 523.64,3.41 L567.87,116.68 L567.65,4.18 C567.675974,3.54593939 567.953047,2.94823925 568.420138,2.51866561 C568.887229,2.08909198 569.505986,1.86291624 570.14,1.89 L578.45,1.89 C579.76665,1.83351803 580.880556,2.85347997 580.94,4.17 L580.94,146.87 C580.880556,148.18652 579.76665,149.206482 578.45,149.15 L569.62,149.15 C568.607955,149.169336 567.685728,148.57167 567.29,147.64 L567.29,147.64 Z" id="Shape"></path>
        </g>
    </g>
</svg>