<svg height="61" viewBox="0 0 301 61" width="301" xmlns="http://www.w3.org/2000/svg"><path d="m7.897 7.813v11.289h7.208c5.271 0 7.897-2.257 7.897-5.581 0-3.825-2.626-5.708-8.585-5.708zm-7.897 37.61v-44.376h17.297c6.707 0 13.61 3.069 13.61 11.157 0 5.016-3.147 8.339-7.71 9.706v.132c5.577.634 9.579 5.016 9.579 10.724 0 9.657-8.398 12.657-16.796 12.657zm7.897-19.555v12.789h7.267c4.072 0 9.726-.694 9.726-6.515 0-4.642-3.019-6.274-9.411-6.274zm30.103-25.868h7v46h-7zm20.011 30.382c0 4.701 3.323 9.023 8.841 9.023 5.517 0 8.831-4.323 8.831-9.023s-3.314-9.022-8.831-9.022-8.841 4.321-8.841 9.022zm-7.523 0c0-9.465 7.267-15.799 16.364-15.798 9.087 0 16.364 6.332 16.364 15.798s-7.278 15.789-16.364 15.789c-9.097 0-16.364-6.324-16.364-15.789zm43.643 0c0 4.701 3.324 9.023 8.841 9.023s8.831-4.323 8.831-9.023-3.314-9.022-8.831-9.022-8.841 4.321-8.841 9.022zm-7.523 0c0-9.465 7.267-15.799 16.364-15.798 9.087 0 16.364 6.332 16.364 15.798s-7.278 15.789-16.364 15.789c-9.096 0-16.364-6.324-16.364-15.789zm37.31-15.046h7.149v4.706h.118c1.318-2.822 4.199-5.463 9.214-5.463 4.642 0 7.848 1.814 9.411 5.581 2.193-3.816 5.389-5.581 9.893-5.581 8.024 0 10.848 5.713 10.848 12.922v17.923h-7.523v-17.048c0-3.757-1.121-7.017-5.576-7.017-4.7 0-6.461 3.884-6.461 7.764v16.3h-7.513v-17.923c0-3.708-1.505-6.141-5.143-6.141-4.947 0-6.894 3.624-6.894 7.641v16.423h-7.523zm77.679 15.046c0-4.701-3.314-9.033-8.841-9.033-5.518 0-8.841 4.332-8.841 9.033 0 4.706 3.323 9.023 8.841 9.023 5.527 0 8.841-4.317 8.841-9.023zm-24.949 15.041h-.001v-45.423h7.523v19.166h.187c1.564-1.957 4.582-4.583 10.218-4.583 8.585 0 14.544 6.898 14.544 15.798 0 8.895-5.586 15.789-14.85 15.789-4.208 0-8.152-1.633-10.354-5.257h-.118v4.51zm43.397-18.05h15.42c-.069-4.39-2.95-7.149-7.651-7.149-4.445 0-7.208 2.817-7.769 7.149zm22.943 5.64h-22.943c.491 4.45 3.885 7.149 8.083 7.149 3.757 0 6.206-1.759 8.084-4.066l5.389 4.066c-3.501 4.318-7.965 6.009-12.715 6.009-9.106 0-16.364-6.324-16.364-15.789s7.258-15.798 16.364-15.798c8.399 0 14.102 5.891 14.102 16.364zm4.897-17.677h7.523v4.765h.128c1.632-3.447 4.946-5.522 8.899-5.522.944 0 1.819.192 2.694.447v7.268c-1.249-.31-2.448-.561-3.639-.561-7.08 0-8.083 5.959-8.083 7.592v16.099h-7.523v-30.088zm36.072 6.023c-5.272 0-8.901 3.624-8.901 8.958 0 4.765 3.767 8.713 8.841 8.713 5.576 0 8.959-3.825 8.959-8.831 0-5.216-3.451-8.84-8.899-8.84zm8.899-6.023h7.149v27.392c0 10.838-5.26 17.741-16.983 17.741-5.586 0-10.67-1.181-14.918-4.957l4.504-6.155c3.009 2.773 6.147 4.347 10.346 4.347 7.277 0 9.519-4.141 9.519-10.09v-2.198h-.107c-2.204 2.945-6.088 4.381-9.854 4.381-9.019 0-14.978-6.899-14.978-15.415 0-8.905 5.577-15.803 14.85-15.803 4.199 0 8.152 1.632 10.354 5.271h.118z" transform="translate(.523 .305)"/></svg>