<svg version="1.0" xmlns="http://www.w3.org/2000/svg"
 width="103.000000pt" height="75.000000pt" viewBox="0 0 103.000000 75.000000"
 preserveAspectRatio="xMidYMid meet">
<g transform="translate(0.000000,75.000000) scale(0.100000,-0.100000)"
fill="#000000" stroke="none">
<path d="M324 719 c-24 -25 -29 -39 -29 -79 0 -47 -1 -48 -19 -32 -26 24 -98
22 -126 -3 -47 -42 -57 -109 -23 -161 13 -20 11 -22 -17 -28 -17 -3 -45 -19
-61 -35 -33 -34 -39 -83 -14 -131 30 -57 41 -60 252 -60 126 0 193 4 193 10 0
6 -7 13 -16 17 -18 7 -15 40 21 243 22 124 22 125 30 75 4 -27 16 -97 27 -155
23 -127 23 -149 0 -166 -15 -11 -16 -13 -1 -19 9 -3 103 -5 209 -3 l192 3 23
28 c56 65 35 159 -42 187 -38 14 -40 17 -27 35 8 10 14 40 14 66 0 84 -72 138
-149 111 -28 -10 -29 -10 -34 31 -8 60 -52 97 -113 97 -38 0 -51 -5 -77 -32
l-32 -33 -31 33 c-27 26 -39 32 -76 32 -36 0 -50 -6 -74 -31z"/>
<path d="M40 158 c-37 -25 -47 -57 -35 -105 16 -66 216 -72 254 -6 9 15 10 14
8 -12 -2 -28 1 -30 35 -33 l38 -3 0 58 0 58 17 -32 c10 -18 28 -44 41 -58 l23
-27 154 4 c128 2 156 6 172 20 18 17 20 17 36 0 14 -14 36 -17 107 -17 80 0
91 2 114 24 14 14 26 28 26 33 0 12 -98 10 -105 -2 -11 -18 -54 -11 -65 11 -9
16 -8 26 5 45 18 28 37 31 59 9 19 -20 106 -21 106 -2 0 8 -9 22 -21 33 -32
28 -161 32 -211 6 -34 -18 -38 -18 -53 -3 -13 13 -44 17 -160 19 l-144 3 -3
-42 -3 -43 -29 43 c-29 42 -30 42 -85 39 -52 -3 -56 -5 -53 -27 l2 -23 -19 23
c-17 21 -29 24 -98 27 -69 3 -82 1 -113 -20z"/>
</g>
</svg>