<svg height="30" viewBox="0 0 287 30" width="287" xmlns="http://www.w3.org/2000/svg"><path d="m46.8589286 3.66535714c-.5839286 0-1.0585715.47517857-1.0585715 1.05857143v20.49482143c0 .5839286.4746429 1.0585714 1.0585715 1.0585714h19.6339285c.5833929 0 1.0585715-.4746428 1.0585715-1.0585714v-20.49482143c0-.58339286-.4751786-1.05857143-1.0585715-1.05857143zm19.6339285 26.02821426h-19.6339285c-2.4675 0-4.4748215-2.0073214-4.4748215-4.4748214v-20.49482143c0-2.4675 2.0073215-4.47482143 4.4748215-4.47482143h19.6339285c2.4669643 0 4.4748215 2.00732143 4.4748215 4.47482143v20.49482143c0 2.4675-2.0078572 4.4748214-4.4748215 4.4748214zm173.8419639.0519643h-20.631964v-3.41625h20.631964c.583393 0 1.058572-.4751786 1.058572-1.0591071v-7.69125c0-.5833929-.475179-1.0585715-2.193214-1.0585715h-16.21125c-1.332858 0-3.340179-2.0073214-3.340179-4.4748214v-7.26964284c0-2.4675 2.007321-4.47482143 4.474286-4.47482143h19.787143v3.41625h-19.787143c-.583393 0-1.058036.47464286-1.058036 1.05857143v7.26964284c0 .5839286.474643 1.0585714 1.058036 1.0585714h16.211785c2.466965 0 4.474822 2.0073215 4.474822 4.4748215v7.69125c0 2.4675-2.007857 4.4753571-4.474822 4.4753571zm-59.541428-.0064286h-22.520893v-29.4391071h3.41625v26.0228571h19.104643zm-44.432679-.0048214-21.185357-24.27482141v24.30535711h-3.41625v-29.46803569h3.444643l21.721607 24.88553569-.002678-24.8823214h3.41625l.003214 29.4342857zm-46.7099997.0101786v-29.4444643h3.4301786v29.4444643zm107.5510717-.0026786v-29.44499999h3.430714v29.44499999zm89.623393-29.44017856v3.43017857h-12.028393v26.01267859h-3.430179v-26.01267859h-12.028393v-3.43017857h12.028393v-.00482143h3.430179v.00482143zm-261.415179 29.39196426h-20.71071429c-2.46696428 0-4.47482142-2.0073214-4.47482142-4.4748214v-20.49482143c0-2.4675 2.00785714-4.47482143 4.47482142-4.47482143h20.71071429v3.41625h-20.71071429c-.58339285 0-1.05857142.47517857-1.05857142 1.05857143v20.49482143c0 .5839286.47517857 1.0585714 1.05857142 1.0585714h20.71071429z"/></svg>