<svg xmlns="http://www.w3.org/2000/svg" width="301" height="72" viewBox="0 0 301 72">
  <path fill-rule="evenodd" d="M42.8268892,52.1274028 C38.593286,56.4940181 31.3971261,59.4296161 23.4458353,59.4296161 C10.616726,59.4296161 0.457909908,52.5769308 -3.55271368e-14,44.1632927 L-3.55271368e-14,16.356775 L-3.55271368e-14,15.8115493 C-3.55271368e-14,7.19276897 10.3962509,-5.68434189e-14 23.4458353,-5.68434189e-14 C32.0197743,-5.68434189e-14 39.7533638,3.46885313 43.6201587,8.72361337 L43.6707164,8.80438757 L74.2870201,8.80438757 L70.4351005,24.76234 L55.0274223,24.76234 L51.725777,33.5667276 L68.7842779,26.4131627 L38.5191956,70.4351005 L42.8268892,52.1274028 Z M40.9423656,8.80438757 L40.8938987,8.72361337 C37.0059044,4.74416678 30.4764484,2.27856039 23.4458353,2.18090334 C11.6512632,2.27856039 2.28954954,8.45107845 2.18100793,15.8115493 C2.28954954,23.550792 11.6512632,29.7233101 23.4458353,29.9874209 C28.8525331,29.7451593 33.9802593,28.1942538 37.7321419,25.7601965 L37.9689214,24.76234 L23.1115174,24.76234 L26.9634369,8.80438757 L40.9423656,8.80438757 Z M36.9753395,28.949578 C33.0168332,30.8278237 28.3468297,32.0173218 23.4458353,32.1683243 C13.9408128,32.0018705 6.05458655,28.2269421 2.18100793,22.8994851 L2.18100793,25.0803885 C2.28954954,32.6820378 11.6512632,38.8545559 23.4458353,38.7110344 C27.7452415,38.8440408 31.890981,37.9483482 35.2142075,36.3714916 L36.9753395,28.949578 Z M34.573532,39.0714812 C31.239647,40.3871224 27.3824976,41.1292344 23.4458353,40.8919377 C13.9238531,41.1501204 6.05458655,37.3751921 2.18100793,32.1683243 L2.18100793,34.3492276 C2.28954954,41.8302877 11.6512632,48.0028058 23.4458353,47.9798736 C26.5861395,48.0004314 29.7870946,47.4559516 32.7780675,46.6380812 L34.573532,39.0714812 Z M32.168286,49.2078747 C29.5223123,49.8519648 26.4510953,50.2894062 23.4458353,50.1607769 C13.9408128,50.2983704 6.05458655,46.523442 2.18100793,40.8919377 L2.18100793,43.6180668 C2.28954954,50.9615335 11.6512632,57.1340514 23.4458353,57.2487126 C25.7758472,57.1433778 28.2268031,56.8334498 30.4844491,56.3040522 L32.168286,49.2078747 Z M46.2230347,47.8738574 L44.0219378,58.8793419 L62.1809872,31.3656307 L47.3235832,37.9689214 L53.9268739,22.5612431 L68.7842779,22.5612431 L71.535649,11.0054845 L28.6142596,11.0054845 L25.8628885,22.5612431 L40.7202925,22.5612431 L33.5667276,53.3765996 L46.2230347,47.8738574 Z M105.714449,19.4826094 L105.737019,19.5503188 C105.767112,21.303252 105.232965,22.6762369 104.13456,23.6693149 C103.036156,24.6623928 101.52023,25.1589244 99.5867376,25.1589244 C97.6156284,25.1589244 96.0244703,24.5250944 94.813216,23.2574153 C93.6019617,21.9897362 92.9963437,20.3515583 92.9963437,18.3428324 L92.9963437,15.0814903 C92.9963437,13.0802878 93.5869156,11.4421098 94.7680765,10.1669074 C95.9492373,8.89170503 97.4990176,8.25411335 99.4174639,8.25411335 C101.418667,8.25411335 102.983493,8.74312169 104.111991,9.72115306 C105.240488,10.6991844 105.789682,12.0759309 105.759589,13.851434 L105.737019,13.9191435 L102.532102,13.9191435 C102.532102,12.865879 102.278194,12.0815848 101.77037,11.5662376 C101.262545,11.0508903 100.478252,10.7932205 99.4174639,10.7932205 C98.431909,10.7932205 97.6626614,11.1900695 97.1096974,11.9837796 C96.5567335,12.7774897 96.2802559,13.8025264 96.2802559,15.0589205 L96.2802559,18.3428324 C96.2802559,19.6067498 96.5717802,20.6374289 97.154837,21.4349006 C97.7378943,22.2323723 98.5485198,22.6311022 99.5867376,22.6311022 C100.572292,22.6311022 101.307686,22.3734324 101.792939,21.8580851 C102.278194,21.3427379 102.520817,20.5509205 102.520817,19.4826094 L105.714449,19.4826094 Z M123.810411,18.1848435 C123.810411,20.208616 123.1747,21.8768868 121.903259,23.1897058 C120.631818,24.5025248 118.976714,25.1589244 116.937894,25.1589244 C114.906598,25.1589244 113.259017,24.500644 111.995099,23.1840633 C110.731182,21.8674827 110.099232,20.2010927 110.099232,18.1848435 L110.099232,15.2281943 C110.099232,13.2194684 110.729301,11.5549592 111.989456,10.2346169 C113.249612,8.91427463 114.891552,8.25411335 116.915324,8.25411335 C118.954143,8.25411335 120.61301,8.91427463 121.891974,10.2346169 C123.170938,11.5549592 123.810411,13.2194684 123.810411,15.2281943 L123.810411,18.1848435 Z M120.526499,15.2056244 C120.526499,13.9266604 120.206762,12.8771733 119.56728,12.0571316 C118.927799,11.2370899 118.043822,10.8270753 116.915324,10.8270753 C115.801873,10.8270753 114.934824,11.2370899 114.31415,12.0571316 C113.693476,12.8771733 113.383144,13.9266604 113.383144,15.2056244 L113.383144,18.1848435 C113.383144,19.4863775 113.695357,20.5471494 114.319792,21.3671911 C114.944228,22.1872328 115.81692,22.5972474 116.937894,22.5972474 C118.066392,22.5972474 118.946607,22.1872328 119.578565,21.3671911 C120.210524,20.5471494 120.526499,19.4863775 120.526499,18.1848435 L120.526499,15.2056244 Z M132.359329,24.9219411 L129.064133,24.9219411 L129.064133,8.4910967 L132.359329,8.4910967 L132.359329,24.9219411 Z M151.324229,24.9219411 L148.029033,24.9219411 L141.404784,13.840149 L141.337075,13.851434 L141.337075,24.9219411 L138.041878,24.9219411 L138.041878,8.4910967 L141.337075,8.4910967 L147.961323,19.5616038 L148.029033,19.5503188 L148.029033,8.4910967 L151.324229,8.4910967 L151.324229,24.9219411 Z M167.896726,11.0302038 L163.202199,11.0302038 L163.202199,24.9219411 L159.907003,24.9219411 L159.907003,11.0302038 L155.280185,11.0302038 L155.280185,8.4910967 L167.896726,8.4910967 L167.896726,11.0302038 Z M181.512574,17.6995919 L175.418718,17.6995919 L175.418718,22.3941189 L182.663636,22.3941189 L182.663636,24.9219411 L172.12352,24.9219411 L172.12352,8.4910967 L182.641067,8.4910967 L182.641067,11.0302038 L175.418718,11.0302038 L175.418718,15.1604848 L181.512574,15.1604848 L181.512574,17.6995919 Z M190.693448,22.3941189 L198.051217,22.3941189 L198.051217,24.9219411 L187.398252,24.9219411 L187.398252,8.4910967 L190.693448,8.4910967 L190.693448,22.3941189 Z M212.050752,17.6995919 L205.956895,17.6995919 L205.956895,22.3941189 L213.201814,22.3941189 L213.201814,24.9219411 L202.661698,24.9219411 L202.661698,8.4910967 L213.179244,8.4910967 L213.179244,11.0302038 L205.956895,11.0302038 L205.956895,15.1604848 L212.050752,15.1604848 L212.050752,17.6995919 Z M230.530401,22.6762419 C230.018815,23.3458172 229.255209,23.9269848 228.239562,24.4197621 C227.223914,24.9125394 225.914876,25.1589244 224.312409,25.1589244 C222.326253,25.1589244 220.701241,24.5344984 219.437323,23.2856276 C218.173406,22.0367568 217.541457,20.4155061 217.541457,18.4218268 L217.541457,14.991211 C217.541457,13.005055 218.154598,11.3856851 219.380899,10.1330526 C220.6072,8.88042017 222.183311,8.25411335 224.109281,8.25411335 C226.118006,8.25411335 227.656502,8.7299561 228.724813,9.68165581 C229.793124,10.6333556 230.308464,11.9028964 230.270847,13.4903165 L230.248278,13.558026 L227.144924,13.558026 C227.144924,12.6853212 226.892897,12.0063519 226.388835,11.5210979 C225.884772,11.0358439 225.15126,10.7932205 224.188275,10.7932205 C223.180151,10.7932205 222.367644,11.1825464 221.750732,11.9612098 C221.13382,12.7398732 220.825369,13.7423403 220.825369,14.9686411 L220.825369,18.4218268 C220.825369,19.6631743 221.141343,20.6750454 221.773302,21.4574705 C222.405261,22.2398955 223.251621,22.6311022 224.312409,22.6311022 C225.094834,22.6311022 225.713618,22.5521085 226.168778,22.3941189 C226.623939,22.2361292 226.975649,22.0367642 227.223919,21.7960181 L227.223919,18.6136705 L224.064141,18.6136705 L224.064141,16.3341165 L230.530401,16.3341165 L230.530401,22.6762419 Z M239.045464,18.3541173 L239.045464,24.9219411 L235.750267,24.9219411 L235.750267,8.4910967 L241.437867,8.4910967 C243.311174,8.4910967 244.776318,8.91803857 245.833344,9.77193518 C246.89037,10.6258318 247.418876,11.816379 247.418876,13.3436126 C247.418876,14.1862242 247.19506,14.9140943 246.747423,15.5272447 C246.299785,16.1403951 245.647147,16.6350459 244.789489,17.0112117 C245.759997,17.2970978 246.457774,17.7748214 246.882841,18.4443966 C247.307909,19.113972 247.52044,19.9415245 247.52044,20.9270792 L247.52044,22.1345657 C247.52044,22.5934881 247.582506,23.0730924 247.706641,23.5733931 C247.830776,24.0736937 248.043306,24.4442115 248.344239,24.6849577 L248.344239,24.9219411 L244.947478,24.9219411 C244.646545,24.6811949 244.452823,24.282465 244.366304,23.7257395 C244.279786,23.169014 244.236527,22.6311048 244.236527,22.1119959 L244.236527,20.949649 C244.236527,20.1296074 244.012712,19.4920158 243.565075,19.036855 C243.117438,18.5816942 242.483607,18.3541173 241.663566,18.3541173 L239.045464,18.3541173 Z M239.045464,15.8150102 L241.381443,15.8150102 C242.306811,15.8150102 242.995184,15.6194068 243.446583,15.2281943 C243.897982,14.8369817 244.123678,14.257695 244.123678,13.4903165 C244.123678,12.7379847 243.896101,12.1398899 243.440941,11.6960142 C242.98578,11.2521384 242.318095,11.0302038 241.437867,11.0302038 L239.045464,11.0302038 L239.045464,15.8150102 Z M261.46355,21.378476 L256.137068,21.378476 L255.031145,24.9219411 L251.589245,24.9219411 L257.130141,8.4910967 L260.504332,8.4910967 L266.022658,24.9219411 L262.580757,24.9219411 L261.46355,21.378476 Z M256.949582,18.7942292 L260.662321,18.7942292 L258.845449,13.0050649 L258.777739,13.0050649 L256.949582,18.7942292 Z M273.31895,18.963503 L273.31895,24.9219411 L270.023754,24.9219411 L270.023754,8.4910967 L276.309454,8.4910967 C278.197807,8.4910967 279.68364,8.97258186 280.766998,9.93556653 C281.850356,10.8985512 282.392026,12.1662113 282.392026,13.7385848 C282.392026,15.3109583 281.850356,16.5748567 280.766998,17.5303181 C279.68364,18.4857795 278.197807,18.963503 276.309454,18.963503 L273.31895,18.963503 Z M273.31895,16.4243959 L276.309454,16.4243959 C277.227299,16.4243959 277.923196,16.1742493 278.397164,15.6739487 C278.871134,15.173648 279.108115,14.5360564 279.108115,13.7611546 C279.108115,12.9712062 278.873015,12.3185682 278.402807,11.8032209 C277.9326,11.2878736 277.234822,11.0302038 276.309454,11.0302038 L273.31895,11.0302038 L273.31895,16.4243959 Z M300.454133,24.9219411 L297.158936,24.9219411 L297.158936,18.0945641 L290.466978,18.0945641 L290.466978,24.9219411 L287.171782,24.9219411 L287.171782,8.4910967 L290.466978,8.4910967 L290.466978,15.555457 L297.158936,15.555457 L297.158936,8.4910967 L300.454133,8.4910967 L300.454133,24.9219411 Z M99.5480462,52.2760512 L97.4931159,52.2760512 L97.4931159,41.4683215 L93.7959609,41.4683215 L93.7959609,39.7057244 L103.245201,39.7057244 L103.245201,41.4683215 L99.5480462,41.4683215 L99.5480462,52.2760512 Z M113.322098,52.2760512 L111.292962,52.2760512 L111.292962,46.4293876 C111.292962,45.6956849 111.145363,45.1482822 110.850163,44.7871629 C110.554962,44.4260437 110.086374,44.2454867 109.444384,44.2454867 C108.59604,44.2454867 107.972689,44.4991262 107.574312,45.0064128 C107.175934,45.5136994 106.976748,46.3634633 106.976748,47.5557301 L106.976748,52.2760512 L104.95621,52.2760512 L104.95621,38.8975091 L106.976748,38.8975091 L106.976748,42.2937329 C106.976748,42.8382778 106.942356,43.4200723 106.873572,44.0391339 L107.002542,44.0391339 C107.277681,43.5805698 107.660289,43.2251879 108.15038,42.9729776 C108.64047,42.7207673 109.212234,42.5946641 109.865688,42.5946641 C112.169973,42.5946641 113.322098,43.7553872 113.322098,46.0768681 L113.322098,52.2760512 Z M120.286506,52.4480119 C118.807637,52.4480119 117.651212,52.0166815 116.817199,51.1540077 C115.983185,50.2913338 115.566185,49.103384 115.566185,47.5901223 C115.566185,46.0367362 115.953093,44.8158275 116.72692,43.9273595 C117.500747,43.0388914 118.564026,42.5946641 119.91679,42.5946641 C121.17211,42.5946641 122.16374,42.9758398 122.89171,43.7382027 C123.619681,44.5005656 123.983661,45.5495153 123.983661,46.8850834 L123.983661,47.9770338 L117.646909,47.9770338 C117.67557,48.8998942 117.92491,49.6092249 118.394938,50.1050474 C118.864967,50.6008699 119.527009,50.8487774 120.381084,50.8487774 C120.942825,50.8487774 121.465867,50.7957567 121.950226,50.6897138 C122.434584,50.5836708 122.95476,50.4074129 123.510769,50.1609346 L123.510769,51.8031593 C123.017813,52.0381734 122.519131,52.2044004 122.014711,52.3018453 C121.51029,52.3992902 120.934228,52.4480119 120.286506,52.4480119 Z M119.91679,44.1251143 C119.274801,44.1251143 118.760357,44.3285991 118.373443,44.7355747 C117.98653,45.1425504 117.755818,45.7358088 117.681301,46.5153679 L121.997515,46.5153679 C121.986051,45.7300768 121.796896,45.1353854 121.430045,44.7312757 C121.063193,44.327166 120.55878,44.1251143 119.91679,44.1251143 Z M135.6254,44.297075 L133.303931,44.297075 L133.303931,52.2760512 L131.274794,52.2760512 L131.274794,44.297075 L129.709952,44.297075 L129.709952,43.3512911 L131.274794,42.7322326 L131.274794,42.1131741 C131.274794,40.989692 131.538465,40.1571239 132.065814,39.615445 C132.593162,39.0737661 133.398504,38.8029308 134.481861,38.8029308 C135.192636,38.8029308 135.891936,38.9204361 136.579782,39.1554502 L136.046704,40.6859004 C135.548015,40.5254029 135.072262,40.4451554 134.61943,40.4451554 C134.160866,40.4451554 133.826979,40.5870215 133.617759,40.8707581 C133.408539,41.1544947 133.303931,41.5800931 133.303931,42.1475663 L133.303931,42.7666248 L135.6254,42.7666248 L135.6254,44.297075 Z M143.948298,52.2760512 L143.664562,51.0293362 L143.561386,51.0293362 C143.280515,51.4707041 142.880711,51.8174881 142.36196,52.0696984 C141.843209,52.3219086 141.251384,52.4480119 140.586466,52.4480119 C139.434324,52.4480119 138.574529,52.1614136 138.007056,51.5882084 C137.439582,51.0150032 137.15585,50.1466104 137.15585,48.9830039 L137.15585,42.7666248 L139.193584,42.7666248 L139.193584,48.6304845 C139.193584,49.3584551 139.342615,49.9044248 139.640682,50.2684101 C139.938749,50.6323953 140.405904,50.8143853 141.042162,50.8143853 C141.890505,50.8143853 142.513857,50.5607458 142.912234,50.0534592 C143.310612,49.5461726 143.509798,48.6964087 143.509798,47.5041419 L143.509798,42.7666248 L145.538934,42.7666248 L145.538934,52.2760512 L143.948298,52.2760512 Z M151.961666,50.8143853 C152.454622,50.8143853 152.947571,50.7370037 153.440528,50.5822383 L153.440528,52.1040905 C153.216978,52.2015354 152.928947,52.2832159 152.576426,52.3491345 C152.223904,52.4150531 151.858491,52.4480119 151.480176,52.4480119 C149.565671,52.4480119 148.608432,51.4391859 148.608432,49.4215037 L148.608432,44.297075 L147.310129,44.297075 L147.310129,43.4028793 L148.703011,42.6634484 L149.390854,40.6515082 L150.637569,40.6515082 L150.637569,42.7666248 L153.345949,42.7666248 L153.345949,44.297075 L150.637569,44.297075 L150.637569,49.3871115 C150.637569,49.8743359 150.759373,50.2340168 151.002985,50.4661649 C151.246597,50.698313 151.566154,50.8143853 151.961666,50.8143853 Z M162.047161,52.2760512 L161.763426,51.0293362 L161.660249,51.0293362 C161.379379,51.4707041 160.979574,51.8174881 160.460823,52.0696984 C159.942072,52.3219086 159.350247,52.4480119 158.685329,52.4480119 C157.533187,52.4480119 156.673392,52.1614136 156.105919,51.5882084 C155.538446,51.0150032 155.254713,50.1466104 155.254713,48.9830039 L155.254713,42.7666248 L157.292447,42.7666248 L157.292447,48.6304845 C157.292447,49.3584551 157.441479,49.9044248 157.739545,50.2684101 C158.037612,50.6323953 158.504767,50.8143853 159.141025,50.8143853 C159.989368,50.8143853 160.61272,50.5607458 161.011097,50.0534592 C161.409475,49.5461726 161.608661,48.6964087 161.608661,47.5041419 L161.608661,42.7666248 L163.637797,42.7666248 L163.637797,52.2760512 L162.047161,52.2760512 Z M171.341636,42.5946641 C171.748612,42.5946641 172.083932,42.6233239 172.347606,42.6806444 L172.149851,44.563614 C171.863249,44.4948294 171.565187,44.4604376 171.255656,44.4604376 C170.447437,44.4604376 169.792559,44.7241081 169.291005,45.2514568 C168.789451,45.7788056 168.538677,46.4637755 168.538677,47.3063871 L168.538677,52.2760512 L166.518139,52.2760512 L166.518139,42.7666248 L168.100177,42.7666248 L168.366716,44.4432415 L168.469893,44.4432415 C168.785156,43.8757684 169.196424,43.4258091 169.703711,43.0933501 C170.210997,42.7608911 170.756967,42.5946641 171.341636,42.5946641 Z M177.910535,52.4480119 C176.431666,52.4480119 175.275241,52.0166815 174.441227,51.1540077 C173.607214,50.2913338 173.190214,49.103384 173.190214,47.5901223 C173.190214,46.0367362 173.577121,44.8158275 174.350948,43.9273595 C175.124775,43.0388914 176.188055,42.5946641 177.540819,42.5946641 C178.796138,42.5946641 179.787769,42.9758398 180.515739,43.7382027 C181.24371,44.5005656 181.60769,45.5495153 181.60769,46.8850834 L181.60769,47.9770338 L175.270938,47.9770338 C175.299599,48.8998942 175.548939,49.6092249 176.018967,50.1050474 C176.488995,50.6008699 177.151037,50.8487774 178.005113,50.8487774 C178.566854,50.8487774 179.089896,50.7957567 179.574255,50.6897138 C180.058613,50.5836708 180.578789,50.4074129 181.134798,50.1609346 L181.134798,51.8031593 C180.641841,52.0381734 180.14316,52.2044004 179.63874,52.3018453 C179.134319,52.3992902 178.558256,52.4480119 177.910535,52.4480119 Z M177.540819,44.1251143 C176.898829,44.1251143 176.384385,44.3285991 175.997472,44.7355747 C175.610559,45.1425504 175.379847,45.7358088 175.30533,46.5153679 L179.621544,46.5153679 C179.61008,45.7300768 179.420925,45.1353854 179.054073,44.7312757 C178.687222,44.327166 178.182809,44.1251143 177.540819,44.1251143 Z M196.912191,47.5041419 C196.912191,49.057528 196.51382,50.2698387 195.717065,51.1411106 C194.920309,52.0123825 193.811174,52.4480119 192.389625,52.4480119 C191.501157,52.4480119 190.715878,52.2473931 190.033764,51.8461495 C189.351649,51.4449058 188.827175,50.8688433 188.460323,50.1179445 C188.093472,49.3670457 187.910049,48.4957869 187.910049,47.5041419 C187.910049,45.96222 188.305555,44.7585071 189.096578,43.8929673 C189.887601,43.0274275 191.002469,42.5946641 192.441213,42.5946641 C193.816906,42.5946641 194.905979,43.0374585 195.708467,43.9230604 C196.510954,44.8086624 196.912191,46.0023443 196.912191,47.5041419 Z M189.990774,47.5041419 C189.990774,49.6995178 190.801847,50.7971892 192.424017,50.7971892 C194.028992,50.7971892 194.831467,49.6995178 194.831467,47.5041419 C194.831467,45.3316943 194.02326,44.2454867 192.406821,44.2454867 C191.558478,44.2454867 190.943724,44.5263531 190.562543,45.0880941 C190.181362,45.6498352 189.990774,46.4551764 189.990774,47.5041419 Z M204.00557,44.297075 L201.684101,44.297075 L201.684101,52.2760512 L199.654965,52.2760512 L199.654965,44.297075 L198.090122,44.297075 L198.090122,43.3512911 L199.654965,42.7322326 L199.654965,42.1131741 C199.654965,40.989692 199.918635,40.1571239 200.445984,39.615445 C200.973332,39.0737661 201.778674,38.8029308 202.862032,38.8029308 C203.572806,38.8029308 204.272106,38.9204361 204.959952,39.1554502 L204.426874,40.6859004 C203.928185,40.5254029 203.452432,40.4451554 202.9996,40.4451554 C202.541036,40.4451554 202.207149,40.5870215 201.997929,40.8707581 C201.788709,41.1544947 201.684101,41.5800931 201.684101,42.1475663 L201.684101,42.7666248 L204.00557,42.7666248 L204.00557,44.297075 Z M218.209524,52.2760512 L216.180387,52.2760512 L216.180387,46.4121915 C216.180387,45.6842209 216.04282,45.1411171 215.767682,44.7828639 C215.492543,44.4246107 215.062646,44.2454867 214.477976,44.2454867 C213.698417,44.2454867 213.126654,44.4991262 212.762669,45.0064128 C212.398683,45.5136994 212.216693,46.3577314 212.216693,47.538534 L212.216693,52.2760512 L210.196155,52.2760512 L210.196155,42.7666248 L211.778194,42.7666248 L212.061929,44.0133398 L212.165105,44.0133398 C212.428779,43.5605077 212.811388,43.2108578 213.312943,42.9643796 C213.814497,42.7179013 214.366199,42.5946641 214.968064,42.5946641 C216.429738,42.5946641 217.39844,43.0933451 217.8742,44.0907221 L218.011769,44.0907221 C218.292639,43.6206939 218.688145,43.2538481 219.198298,42.9901737 C219.70845,42.7264993 220.29311,42.5946641 220.952297,42.5946641 C222.087243,42.5946641 222.914079,42.8812624 223.432829,43.4544676 C223.951581,44.0276727 224.210952,44.9017975 224.210952,46.0768681 L224.210952,52.2760512 L222.190414,52.2760512 L222.190414,46.4121915 C222.190414,45.6842209 222.051413,45.1411171 221.773409,44.7828639 C221.495405,44.4246107 221.064074,44.2454867 220.479405,44.2454867 C219.694114,44.2454867 219.119484,44.4905283 218.755498,44.9806187 C218.391514,45.4707092 218.209524,46.2230297 218.209524,47.2376028 L218.209524,52.2760512 Z M235.465779,47.5041419 C235.465779,49.057528 235.067408,50.2698387 234.270652,51.1411106 C233.473897,52.0123825 232.364762,52.4480119 230.943213,52.4480119 C230.054745,52.4480119 229.269466,52.2473931 228.587351,51.8461495 C227.905237,51.4449058 227.380762,50.8688433 227.013911,50.1179445 C226.64706,49.3670457 226.463637,48.4957869 226.463637,47.5041419 C226.463637,45.96222 226.859143,44.7585071 227.650166,43.8929673 C228.441189,43.0274275 229.556056,42.5946641 230.994801,42.5946641 C232.370493,42.5946641 233.459567,43.0374585 234.262054,43.9230604 C235.064542,44.8086624 235.465779,46.0023443 235.465779,47.5041419 Z M228.544361,47.5041419 C228.544361,49.6995178 229.355435,50.7971892 230.977605,50.7971892 C232.582579,50.7971892 233.385055,49.6995178 233.385055,47.5041419 C233.385055,45.3316943 232.576848,44.2454867 230.960409,44.2454867 C230.112066,44.2454867 229.497312,44.5263531 229.116131,45.0880941 C228.734949,45.6498352 228.544361,46.4551764 228.544361,47.5041419 Z M246.153136,52.2760512 L244.124,52.2760512 L244.124,46.4293876 C244.124,45.6956849 243.976402,45.1482822 243.681202,44.7871629 C243.386001,44.4260437 242.917413,44.2454867 242.275423,44.2454867 C241.421347,44.2454867 240.796563,44.4976932 240.401051,45.0021138 C240.005539,45.5065344 239.807787,46.3519993 239.807787,47.538534 L239.807787,52.2760512 L237.787249,52.2760512 L237.787249,42.7666248 L239.369287,42.7666248 L239.653022,44.0133398 L239.756199,44.0133398 C240.042801,43.5605077 240.449771,43.2108578 240.97712,42.9643796 C241.504468,42.7179013 242.089129,42.5946641 242.731119,42.5946641 C245.012475,42.5946641 246.153136,43.7553872 246.153136,46.0768681 L246.153136,52.2760512 Z M253.117545,52.4480119 C251.638675,52.4480119 250.482251,52.0166815 249.648238,51.1540077 C248.814224,50.2913338 248.397223,49.103384 248.397223,47.5901223 C248.397223,46.0367362 248.784131,44.8158275 249.557958,43.9273595 C250.331785,43.0388914 251.395065,42.5946641 252.747829,42.5946641 C254.003148,42.5946641 254.994779,42.9758398 255.722749,43.7382027 C256.45072,44.5005656 256.814699,45.5495153 256.814699,46.8850834 L256.814699,47.9770338 L250.477948,47.9770338 C250.506608,48.8998942 250.755949,49.6092249 251.225977,50.1050474 C251.696005,50.6008699 252.358047,50.8487774 253.212123,50.8487774 C253.773864,50.8487774 254.296906,50.7957567 254.781264,50.6897138 C255.265623,50.5836708 255.785798,50.4074129 256.341808,50.1609346 L256.341808,51.8031593 C255.848851,52.0381734 255.35017,52.2044004 254.84575,52.3018453 C254.341329,52.3992902 253.765266,52.4480119 253.117545,52.4480119 Z M252.747829,44.1251143 C252.105839,44.1251143 251.591395,44.3285991 251.204482,44.7355747 C250.817568,45.1425504 250.586857,45.7358088 250.51234,46.5153679 L254.828553,46.5153679 C254.81709,45.7300768 254.627934,45.1353854 254.261083,44.7312757 C253.894232,44.327166 253.389819,44.1251143 252.747829,44.1251143 Z M257.313386,42.7666248 L259.514482,42.7666248 L261.44904,48.1575926 C261.741375,48.9256875 261.936262,49.6479152 262.033707,50.3242973 L262.102491,50.3242973 C262.154079,50.0090345 262.248657,49.6264257 262.386226,49.1764597 C262.523795,48.7264936 263.251755,46.5899033 264.570127,42.7666248 L266.754028,42.7666248 L262.687157,53.5399623 C261.947722,55.5175202 260.71535,56.5062843 258.990002,56.5062843 C258.542902,56.5062843 258.107273,56.4575626 257.683101,56.3601177 L257.683101,54.7608832 C257.9869,54.8296678 258.333684,54.8640596 258.723463,54.8640596 C259.697912,54.8640596 260.382882,54.299461 260.778394,53.1702468 L261.130913,52.2760512 L257.313386,42.7666248 Z" transform="translate(.523 .937)"/>
</svg>
