<svg height="30" viewBox="0 0 204 30" width="204" xmlns="http://www.w3.org/2000/svg"><path d="m3.70005209 24.8567602c-3.51030583-3.5103059-3.70005209-3.9846715-3.70005209-9.5821862 0-10.15142496 5.21802217-15.17970087 15.7489397-15.17970087 7.8744698 0 9.8668055.75898504 9.8668055 3.4154327 0 2.94106704-1.7077163 3.79492521-3.3205595 1.70771634-1.9923358-2.75132078-10.151425-2.46670139-12.99761892.37949253-1.89746261 1.80258947-2.182082 3.1308133-2.182082 8.8232011 0 6.1667535.18974626 6.9257385 2.65644766 9.0129474 3.70005206 3.1308133 9.01294736 3.1308133 12.90274576-.1897462l2.941067-2.4667014v2.941067c0 3.7949252-2.4667014 4.8385297-11.5745219 4.8385297-6.45137286 0-6.73599226-.0948732-10.34117121-3.7000521zm38.32874471 1.8025895c-4.5539103-2.7513208-6.3564998-6.1667535-6.3564998-11.7642682 0-9.39243993 5.6923879-14.80020837 15.5591934-14.80020837 9.7719325 0 15.5591934 5.31289531 15.4643203 14.23096957-.0948731 5.5026416-2.3718283 9.9616787-6.2616266 12.333507-4.1744177 2.5615745-14.2309696 2.6564476-18.4053873 0zm15.274574-3.8897984c2.0872089-2.3718283 2.4667014-3.8897983 2.4667014-8.6334549 0-5.02827588-.2846194-5.97700718-2.7513208-8.44370857-3.7949252-3.70005209-7.7795967-3.70005209-11.5745219 0-2.3718283 2.46670139-2.7513208 3.51030582-2.7513208 8.15908917 0 5.3128953 1.8025895 10.3411713 3.9846715 11.1950294.6641119.2846194 2.7513208.5692388 4.7436565.5692388 2.7513208.0948731 3.9846715-.4743656 5.8821341-2.8461939zm25.6157452 4.6487834c-3.3205596-1.5179701-4.0795446-4.364164-4.4590371-16.1284322l-.2846194-11.19502937h3.1308133 3.1308133v10.34117117c0 8.4437087.2846194 10.7206638 1.7077163 12.333507 1.8025895 2.3718283 6.2616266 2.8461939 9.4873131 1.1384776 1.9923357-1.0436045 2.0872089-1.7077164 2.0872089-12.4283801v-11.38477567h2.3718286 2.371828v9.96167867c0 10.8155369-1.328224 15.7489397-4.5539104 17.456656-2.4667014 1.3282239-12.3335069 1.2333507-14.9899546-.0948731zm36.905648-.758985c-8.443709-5.1231491-7.969343-19.25924553.853858-24.66701396 3.225686-1.99233574 10.625791-2.56157452 16.792544-1.32822383 2.751321.56923879 3.03594.94873131 2.466701 3.13081331-.853858 3.41543269-.948731 3.41543269-3.889798 1.13847756-4.743656-3.79492521-12.618126-1.70771634-14.515589 3.79492522-1.423097 4.0795446-1.328224 7.8744698.284619 11.7642682 1.707717 3.8897983 4.269291 5.4077684 8.918075 5.0282759l3.510306-.2846194.284619-4.9334028.284619-5.0282759h3.32056 3.225686v5.5975147c0 5.4077684-.094873 5.5975147-2.941067 6.6411191-5.028276 1.7077164-15.084827 1.3282239-18.595133-.8538581zm33.869707-12.333507v-14.23096957h8.064216c7.400105 0 8.064216.18974626 8.064216 1.89746261 0 1.61284322-.664111 1.89746261-4.743656 1.89746261h-4.743657v3.79492522 3.79492523h4.269291c3.605179 0 4.269291.2846194 4.269291 1.8974626s-.664112 1.8974626-4.269291 1.8974626h-4.269291v4.7436565 4.7436565h4.743657c4.079545 0 4.743656.2846194 4.743656 1.8974627 0 1.7077163-.664111 1.8974626-8.064216 1.8974626h-8.064216zm27.892701 0 .094873-14.23096957h7.684723c6.166754 0 8.253963.37949252 9.961679 1.80258948 4.174418 3.41543269 2.371828 10.81553689-3.225686 12.71299949-.664112.1897462.379492 2.2769551 2.941067 5.6923878 5.787261 7.6847236 5.882134 8.2539624 1.423097 8.2539624-3.510306 0-3.889799-.2846194-7.87447-6.3564998l-4.269291-6.4513728-.284619 6.4513728-.28462 6.3564998h-3.03594-3.130813zm12.333507-3.4154327c3.130813-3.03594017.758985-7.96934296-3.794926-7.96934296-2.087208 0-2.276955.37949253-2.276955 4.74365653 0 4.36416403.189747 4.74365653 2.276955 4.74365653 1.328224 0 3.035941-.6641119 3.794926-1.5179701z" fill-rule="evenodd" transform="translate(0 .805)"/></svg>