<svg height="72" viewBox="0 0 274 72" width="274" xmlns="http://www.w3.org/2000/svg"><g transform="translate(-14 -14.005)"><path d="m134.774708 72.526296c12.396109 0 21.454003-9.3446591 21.454003-21.8359226 0-12.3967611-9.057894-21.7414201-21.454003-21.7414201h-10.871036v43.5773427zm-23.171339-53.3026185c0-.9534967.761884-1.8118393 1.716033-1.8118393h22.599111c18.403856 0 33.469496 14.9704853 33.469496 33.2785352 0 18.4977064-15.06564 33.4688436-33.469496 33.4688436h-22.599111c-.954149 0-1.716033-.8583427-1.716033-1.8118394zm68.801666 0c0-.9534967.761883-1.8118393 1.812491-1.8118393h38.807903c1.049955 0 1.811839.8583426 1.811839 1.8118393v7.8182822c0 .9541485-.761884 1.8118394-1.811839 1.8118394h-28.223633v15.6378679h23.551303c.954149 0 1.81184.8576908 1.81184 1.8118393v7.9147399c0 1.0486509-.857691 1.8118392-1.81184 1.8118392h-23.551303v16.6871706h28.223633c1.049955 0 1.811839.8576909 1.811839 1.8118394v7.8182822c0 .9534967-.761884 1.8118394-1.811839 1.8118394h-38.807903c-1.050608 0-1.812491-.8583427-1.812491-1.8118394zm71.644558 30.7035074-19.071238-29.8458165c-.762536-1.2389592 0-2.6695302 1.62153-2.6695302h11.060041c.763188 0 1.239611.4764225 1.526378.8583426l12.2058 20.2143915h.093851l12.396761-20.2143915c.190961-.3819201.763188-.8583426 1.526377-.8583426h11.06004c1.621532 0 2.384721 1.430571 1.621532 2.6695302l-19.166392 29.8458165 19.833122 31.5618502c.763189 1.3341132 0 2.6701819-1.620879 2.6701819h-10.297503c-.763189 0-1.42992-.4770744-1.62088-.8583427l-13.635068-21.8365743h-.287419l-13.444759 21.8365743c-.285462.3812683-.857691.8583427-1.62088.8583427h-10.297504c-1.716684 0-2.479874-1.4305711-1.716684-2.6701819z"/><g transform="matrix(.70710678 .70710678 -.70710678 .70710678 50.02579 53.783059)"><path d="m.956.992h16.424v16.424h-16.424z" opacity=".9"/><rect height="16.424" opacity=".6" rx="8.212" width="16.424" x="15.503" y=".992"/><rect height="16.424" opacity=".6" rx="8.212" width="16.424" x=".956" y="15.539"/></g><g transform="matrix(-.70710678 -.70710678 .70710678 -.70710678 49.68829 44.681564)"><path d="m0 0h16.424v16.424h-16.424z" opacity=".9"/><rect height="16.424" opacity=".6" rx="8.212" width="16.424" x="14.547"/><rect height="16.424" opacity=".6" rx="8.212" width="16.424" y="14.547"/></g><g transform="matrix(-.70710678 .70710678 -.70710678 -.70710678 44.682618 49.999854)"><path d="m0 0h16.424v16.424h-16.424z" opacity=".9"/><rect height="16.424" opacity=".6" rx="8.212" width="16.424" x="14.547"/><rect height="16.424" opacity=".6" rx="8.212" width="16.424" y="14.547"/></g><g transform="matrix(.70710678 -.70710678 .70710678 .70710678 53.783059 50.02579)"><path d="m.992.956h16.424v16.424h-16.424z" opacity=".9"/><rect height="16.424" opacity=".6" rx="8.212" width="16.424" x="15.539" y=".956"/><rect height="16.424" opacity=".6" rx="8.212" width="16.424" x=".992" y="15.503"/></g><path d="m34.7794259 49.9636824 15.3178632 15.0832366 15.1692663-15.2331369-15.318515-15.0819331zm15.3243805 20.0899092c-1.0343126 0-2.0093167-.3995172-2.7451321-1.1236011l-16.4382055-16.185982c-.7449397-.7332084-1.1581434-1.712123-1.1633572-2.7568634-.0045623-1.0447405.3995169-2.0275655 1.1366358-2.7672913l16.2759221-16.3437031c1.4664168-1.4735859 4.0368823-1.485969 5.5189409-.0267215l16.436902 16.183375c.7442879.7338601 1.1568398 1.7114712 1.1620539 2.7562116.0058656 1.0440889-.397562 2.0262621-1.134029 2.7672914l-16.2772256 16.3463102c-.7397258.7416809-1.7238544 1.1509742-2.7725053 1.1509742z"/></g></svg>