<svg xmlns="http://www.w3.org/2000/svg" width="1761" height="489" viewBox="0 0 1761 489">
  <g transform="translate(-69 -69)">
    <path d="M855.983981 458.021164C935.234044 458.021164 993.142424 398.279449 993.142424 318.421052 993.142424 239.166822 935.234044 179.425108 855.983981 179.425108L786.483925 179.425108 786.483925 458.021164 855.983981 458.021164zM707.846362 117.250058C707.846362 111.15422 712.717199 105.666715 718.817204 105.666715L863.296486 105.666715C980.954914 105.666715 1077.27166 201.375125 1077.27166 318.421052 1077.27166 436.67948 980.954914 532.392057 863.296486 532.392057L718.817204 532.392057C712.717199 532.392057 707.846362 526.904552 707.846362 520.808714L707.846362 117.250058zM1147.70505 117.250058C1147.70505 111.15422 1152.57588 105.666715 1159.29256 105.666715L1407.39692 105.666715C1414.10943 105.666715 1418.98026 111.15422 1418.98026 117.250058L1418.98026 167.233431C1418.98026 173.333436 1414.10943 178.816774 1407.39692 178.816774L1226.95928 178.816774 1226.95928 278.791854 1377.52606 278.791854C1383.62607 278.791854 1389.10941 284.275191 1389.10941 290.375196L1389.10941 340.975237C1389.10941 347.679409 1383.62607 352.558579 1377.52606 352.558579L1226.95928 352.558579 1226.95928 459.241998 1407.39692 459.241998C1414.10943 459.241998 1418.98026 464.725336 1418.98026 470.825341L1418.98026 520.808714C1418.98026 526.904552 1414.10943 532.392057 1407.39692 532.392057L1159.29256 532.392057C1152.57588 532.392057 1147.70505 526.904552 1147.70505 520.808714L1147.70505 117.250058zM1605.73875 313.541881L1483.81365 122.733396C1478.93865 114.812556 1483.81365 105.666715 1494.18032 105.666715L1564.88871 105.666715C1569.76788 105.666715 1572.81372 108.712551 1574.64706 111.15422L1652.68045 240.387656 1653.28045 240.387656 1732.53468 111.15422C1733.75552 108.712551 1737.41385 105.666715 1742.29302 105.666715L1813.00141 105.666715C1823.36809 105.666715 1828.24726 114.812556 1823.36809 122.733396L1700.83466 313.541881 1827.63059 515.32121C1832.50976 523.850383 1827.63059 532.392057 1817.26808 532.392057L1751.4347 532.392057C1746.55553 532.392057 1742.29302 529.342054 1741.07219 526.904552L1653.90129 387.300274 1652.06378 387.300274 1566.10955 526.904552C1564.28455 529.342054 1560.62621 532.392057 1555.74704 532.392057L1489.91365 532.392057C1478.93865 532.392057 1474.05947 523.246216 1478.93865 515.32121L1605.73875 313.541881z"/>
    <g transform="rotate(45 -261.862 552.54)">
      <rect width="105" height="105" opacity=".9"/>
      <rect width="105" height="105" x="93" opacity=".6" rx="9"/>
      <rect width="105" height="105" y="93" opacity=".6" rx="9"/>
    </g>
    <g transform="rotate(-135 213.996 75.388)">
      <rect width="105" height="105" opacity=".9"/>
      <rect width="105" height="105" x="93" opacity=".6" rx="9"/>
      <rect width="105" height="105" y="93" opacity=".6" rx="9"/>
    </g>
    <g transform="rotate(135 74.974 214.996)">
      <rect width="105" height="105" opacity=".9"/>
      <rect width="105" height="105" x="93" opacity=".6" rx="9"/>
      <rect width="105" height="105" y="93" opacity=".6" rx="9"/>
    </g>
    <g transform="rotate(-45 552.54 -261.862)">
      <rect width="105" height="105" opacity=".9"/>
      <rect width="105" height="105" x="93" opacity=".6" rx="9"/>
      <rect width="105" height="105" y="93" opacity=".6" rx="9"/>
    </g>
    <path d="M216.700136,313.775215 L314.629381,410.204459 L411.608625,312.816881 L313.675213,216.39597 L216.700136,313.775215 Z M314.671047,442.212818 C308.058542,442.212818 301.825204,439.658649 297.121033,435.029479 L192.029283,331.550229 C187.266779,326.862725 184.62511,320.604387 184.591777,313.925215 C184.56261,307.246043 187.145945,300.962705 191.858449,296.233534 L295.912699,191.745951 C305.287707,182.32511 321.721053,182.245943 331.196061,191.575117 L436.279478,295.0377 C441.037815,299.72937 443.675317,305.979375 443.708651,312.658547 C443.746151,319.333553 441.166982,325.612724 436.458645,330.350228 L332.396062,434.854479 C327.666891,439.596149 321.375219,442.212818 314.671047,442.212818 Z"/>
  </g>
</svg>
