<svg height="79" viewBox="0 0 204 79" width="204" xmlns="http://www.w3.org/2000/svg"><path d="m176.76 10.7013889c-3.68 0-4.76-2.0763889-4.76-5.35069446 0-3.27430555 1.08-5.35069444 4.76-5.35069444h22.48c3.68 0 4.76 2.11631944 4.76 5.35069444 0 3.27430556-1.08 5.35069446-4.76 5.35069446h-5.4v30.0277778c0 3.8732639-2.36 5.2708333-5.84 5.2708333-3.52 0-5.84-1.3177083-5.84-5.2708333v-30.0277778zm-56.719288.5059975c0-3.58333337 2.076336-4.76420458 5.170484-4.76420458s5.170483 1.22159091 5.170483 4.72348488v18.6903409c0 5.2935606 1.913486 8.1032197 5.618321 8.1032197 3.745547 0 5.618321-2.8096591 5.618321-8.1439394v-21.09280305c0-3.58333333 2.076335-4.72348485 5.211196-4.72348485 3.094147 0 5.170483 1.22159091 5.170483 4.72348485v21.21496215c0 10.3020833-4.519084 17.061553-16 17.061553-11.440204 0-16-6.71875-16-17.0208333zm41.882911 35.7926136c-3.55595 0-4.923623-1.9297445-4.923623-5.2554745v-34.69434302c0-3.85948905 2.110124-5.05018248 5.353464-5.05018248 3.243339 0 5.353463 1.19069343 5.353463 5.05018248v29.60310222h6.955595c3.321492 0 4.337478 2.0529197 4.337478 5.1322992 0 3.1614964-1.015986 5.1322993-4.337478 5.1322993zm-69.923623-5.4898876v-26.7775281c0-3.0337079 1.3914373-4.7325843 4.8103976-4.7325843h6.4006114c10.614679 0 14.788991 4.9752809 14.788991 12.9438202 0 8.0089888-4.850153 12.8224719-13 12.8224719h-3.33945v5.7438203c0 3.3168539-1.749235 4.4898876-4.8103971 4.4898876-2.82263 0-4.8501529-1.1730337-4.8501529-4.4898876zm9.66055-13.5101124h1.232416c4.571866 0 5.446484-2.1033708 5.446484-5.0966292 0-2.7101124-.834863-5.1370787-5.446484-5.1370787h-1.232416zm-56.5985345-2.5766526c-2.3255814 0-3.0620155-1.5499297-3.0620155-3.7116737 0-2.2025316.6976744-3.7116737 3.0620155-3.7116737l13.875969.0407876c2.3643411 0 3.0620155 1.5907173 3.0620155 3.7116737s-.6976744 3.7116737-3.0620155 3.7116737h-2.9457364v17.9057665c0 2.7735584-1.627907 3.6300985-3.9534884 3.6300985s-3.9534884-.8565401-3.9534884-3.6300985v-17.9057665zm24.1774872 13.7754331-1.0089425 2.9378049c-1.0896579 3.0585366-2.0178851 3.8634146-4.9639972 3.8634146-2.9864698 0-4.9639972-1.5695122-4.03577-4.8292683.8475117-2.9378049 7.7083208-22.2951219 7.7083208-22.2951219 1.8160965-4.9097561 3.3093314-5.8756098 7.3854591-5.8756098 4.0357701 0 5.5693627.845122 7.3451015 5.8353659 0 0 6.3765167 19.4378048 7.143313 22.254878.8475117 3.1792683-1.2914464 4.8695122-4.2779162 4.8695122-2.8250391 0-4.2779163-.6841463-5.0447126-3.7829268l-.807154-2.9780488zm1.614308-7.6865854h6.0940128l-2.8653968-12.354878zm-42.8902276 8.8508911-.6726095 2.4916793c-.7913052 2.3691377-1.6221757 3.1452345-3.8773956 3.1452345-2.3343505 0-3.9565263-1.3071104-3.2443515-3.9213313.6726094-2.3691377 6.0534851-18.3403934 6.0534851-18.3403934 1.3847841-3.9213313 2.6904378-4.7382753 5.8556587-4.7382753 3.1256558 0 4.5500052.816944 5.8556588 4.6974281 0 0 5.3413104 16.0529501 5.9347893 18.2995462.6330442 2.6142209-1.1078273 3.9621785-3.4421778 3.9621785-2.4530462 0-3.323482-.6944024-3.9169609-3.0635401l-.7913052-2.5325265zm1.7013063-6.290469h4.7873967l-2.5321768-10.1709531zm-18.9071599 4.7365821c1.2508987 0 2.1265279-.3918228 3.1272469-1.0971039 1.667865-1.1754685 3.0021571-1.0579216 4.2113592.4701874 1.1675055 1.4497445.8756292 2.9386712-.5420561 4.2708688-1.5010786 1.3713799-4.1696626 2.5468484-7.3386062 2.5468484-6.08770734 0-10.2156733-4.7018739-10.2156733-11.5195911 0-6.9744464 4.58662884-11.4804089 10.7160328-11.4804089 3.2940335 0 5.5039547 1.0579216 7.0050332 2.350937 1.3759886 1.2146507 1.7095616 2.5860306.667146 4.0749574-.9173258 1.3713799-2.6685841 1.9982964-4.0445727.9403748-.7505393-.5877343-1.7095617-1.4105622-3.3774267-1.4105622-2.4184043 0-4.08626934 2.1550255-4.08626934 5.5247019.04169663 3.2129471 1.54277516 5.3287904 3.87778624 5.3287904zm104.7701155 29.9759247h2.428571c3.539952 0 5.186441-2.4380166 5.186441-5.9090909 0-3.3884298-1.687651-5.6611571-4.980629-5.6611571h-2.634383zm-4.527845-13.5123967c0-1.4876033 1.11138-2.2727273 2.263923-2.2727273h5.433414c5.92736 0 9.302663 4.7107438 9.302663 9.8760331 0 6.5702479-4.363196 10.1239669-9.302663 10.1239669h-5.433414c-1.193705 0-2.263923-.8264463-2.263923-2.2727273zm19.397743 5.1988636c0-1.1931818.872842-2.1875 2.102755-2.1875 1.229914 0 2.102756.9545455 2.102756 2.1875v10.3409091c0 1.2329545-.872842 2.1875-2.102756 2.1875-1.229913 0-2.102755-.9943182-2.102755-2.1875zm2.102755-8.4715909c1.388612 0 2.499502 1.1136364 2.499502 2.5056818 0 1.4318182-1.150564 2.5056818-2.499502 2.5056818-1.388612 0-2.499502-1.1136363-2.499502-2.5056818-.039674-1.3522727 1.11089-2.5056818 2.499502-2.5056818zm11.020393 10.0877863c-1.963788 0-3.050139 1.6431297-3.050139 3.6068702 0 2.0839695 1.086351 3.6469466 3.050139 3.6469466 1.963789 0 3.05014-1.5629771 3.05014-3.6469466 0-1.9637405-1.086351-3.6068702-3.05014-3.6068702zm7.479109 9.4179389c0 5.4503817-3.718663 7.4942748-8.064067 7.4942748-2.29805 0-6.643454-.8416031-6.643454-3.1660305 0-.9618321.961003-1.8435115 1.83844-1.8435115 1.295265 0 2.130919 1.2423664 4.721449 1.2423664 2.75766 0 3.67688-1.4026717 3.67688-3.7671755h-.041783c-.961003 1.2824427-2.548746 1.6431297-4.052925 1.6431297-4.303621 0-6.43454-3.5667939-6.43454-7.4141221 0-4.288168 3.008357-7.6946565 6.852368-7.6946565 1.671309 0 2.799443.480916 3.802228 1.6431298.292479-.6812977 1.002786-1.3625954 2.089137-1.3625954 1.295264 0 2.214484.961832 2.214484 2.2041984v11.0209924zm3.396825-11.0341343c0-1.1931818.873016-2.1875 2.103175-2.1875s2.103175.9545455 2.103175 2.1875v10.3409091c0 1.2329545-.873016 2.1875-2.103175 2.1875s-2.103175-.9943182-2.103175-2.1875zm2.103175-8.4715909c1.388889 0 2.5 1.1136364 2.5 2.5056818 0 1.4318182-1.150794 2.5056818-2.5 2.5056818-1.388889 0-2.5-1.1136363-2.5-2.5056818 0-1.3522727 1.111111-2.5056818 2.5-2.5056818zm7.125483 10.0835031h-.463321c-1.312741 0-2.162162-.610998-2.162162-1.9959267s.849421-1.9959267 2.162162-1.9959267h.463321v-2.8513238c0-1.2627292.84942-2.2403259 2.046332-2.2403259 1.196911 0 2.046332.9775967 2.046332 2.2403259v2.8513238h1.119691c1.312741 0 2.162162.610998 2.162162 1.9959267s-.849421 1.9959267-2.162162 1.9959267h-1.119691v8.676171c0 1.2627292-.849421 2.2403259-2.046332 2.2403259-1.235522 0-2.046332-.9775967-2.046332-2.2403259zm12.815858 3.9372761c0 2.0363637 1.089385 3.7402598 3.058659 3.7402598s3.058659-1.7038961 3.058659-3.7402598c0-2.0363636-1.089385-3.7402597-3.058659-3.7402597s-3.058659 1.7038961-3.058659 3.7402597zm10.558659 5.4025974c0 1.2883117-.921788 2.2857143-2.22067 2.2857143-1.089386 0-1.759777-.7480519-2.094972-1.412987-1.005587 1.2051948-2.136872 1.7038961-3.81285 1.7038961-3.896648 0-6.871508-3.5324675-6.871508-8.0207792 0-4.4467533 3.01676-7.9792208 6.871508-7.9792208 1.675978 0 2.807263.4987013 3.81285 1.7038961.293296-.7064935 1.005586-1.412987 2.094972-1.412987 1.298882 0 2.22067.9974026 2.22067 2.2857143zm2-17.2358766c0-1.2329545 1.037736-2.1875 2.5-2.1875s2.5.9545455 2.5 2.1875v16.625c0 1.2329545-1.037736 2.1875-2.5 2.1875s-2.5-.9545455-2.5-2.1875z" fill-rule="evenodd"/></svg>