<svg xmlns="http://www.w3.org/2000/svg" width="173" height="162" viewBox="0 0 173 162">
  <path d="M79.2780587,161.776166 C75.6144305,161.146114 72.5750977,159.222798 71.4907952,156.851813 C70.9157863,155.558549 70.8336422,153.767876 71.3100781,152.557513 C71.6386547,151.678756 72.5915266,150.700518 73.3801102,150.435233 C74.053692,150.219689 75.4829999,150.186528 75.6144305,150.418653 C75.663717,150.501554 75.4501422,150.899482 75.1379946,151.31399 C74.250838,152.474611 73.8401173,153.767876 73.9386903,155.06114 C74.0208344,156.404145 74.431555,157.249741 75.5158575,158.26114 C76.9287366,159.604145 78.867338,160.300518 81.7588114,160.516062 C88.0017652,160.996891 92.1911158,158.559585 92.1746869,154.464249 C92.1582581,152.524352 91.3368168,151.197927 89.6939342,150.418653 C88.5767741,149.888083 86.1453078,149.473575 83.0074021,149.258031 C76.797306,148.860104 74.7929892,148.329534 73.3472525,146.688083 C72.5258112,145.759585 72.2958077,143.653886 72.8872454,142.377202 C73.4786831,141.067358 75.0065639,139.973057 76.7480195,139.558549 L77.5530319,139.376166 L76.4851583,138.596891 C74.5958433,137.237306 73.2158219,135.430052 72.6243842,133.506736 C72.1972347,132.11399 72.2300924,129.560622 72.7065283,128.201036 C73.4622543,126.029016 75.3187116,124.039378 77.5858896,122.978238 C79.2123434,122.215544 80.280217,122 82.268105,122 C84.9295747,122.01658 87.2296104,122.762694 88.9710659,124.188601 L89.8253648,124.884974 L90.8603809,124.039378 C93.1932741,122.066321 95.5918827,121.668394 97.070477,123.011399 C98.6476443,124.453886 98.1219219,126.874611 96.2161781,126.874611 C95.4111656,126.874611 94.9183008,126.559585 94.3597208,125.71399 C93.7354254,124.768912 93.2425606,124.470466 92.6018364,124.702591 C92.3225464,124.802073 91.8132528,125.100518 91.4682474,125.382383 L90.8275232,125.896373 L91.3861033,127.090155 C92.9304129,130.373057 92.5032634,133.937824 90.2196567,136.889119 C89.2996424,138.049741 87.9031922,138.994819 86.2438808,139.541969 C84.5681406,140.089119 83.4838381,140.271503 80.6252224,140.453886 C76.9451654,140.68601 75.2037099,141.415544 75.2037099,142.725389 C75.2037099,144.051813 76.8630213,144.532642 82.5145373,144.864249 C85.1267206,145.013472 88.4453435,145.411399 89.5625036,145.709845 C92.5032634,146.472539 94.6718684,148.694301 95.2633062,151.546114 C95.3618791,152.076684 95.4111656,153.121244 95.378308,153.933679 C95.1318756,158.029016 91.9611122,160.93057 86.7860321,161.776166 C84.9788612,162.074611 81.035943,162.074611 79.2780587,161.776166 Z M83.9274164,138.464249 C84.9295747,138.149223 86.227452,136.872539 86.7696032,135.678756 C87.7224751,133.539896 87.7224751,128.847668 86.7696032,126.708808 C86.227452,125.481865 85.0281477,124.354404 83.8617011,123.956477 C82.8595427,123.62487 80.6252224,123.707772 79.8694964,124.105699 C79.1794857,124.470466 78.3580444,125.332642 77.9637526,126.128497 C76.8137348,128.366839 76.60016,132.943005 77.5201743,135.430052 C78.5059038,138.066321 81.1180871,139.309845 83.9274164,138.464249 Z M62.972412,92.9749923 L40,79.9499846 L40,53.4745292 L40,26.9990738 L41.55353,26.0172893 C42.4129296,25.4936709 44.9580745,23.988268 47.1726812,22.679222 C50.5772257,20.715653 63.7326501,13.09046 76.5244824,5.62889781 C78.2432816,4.61438716 81.1189648,2.9453535 82.9038717,1.8981167 C84.6887785,0.850879901 86.2753624,0 86.4736853,0 C86.6720083,0 89.8121222,1.7017598 93.4810973,3.82895956 C97.1500725,5.92343316 101.546232,8.41062056 103.231977,9.39240506 C106.405145,11.2250695 110.371605,13.4831738 115.792433,16.5921581 C117.544286,17.6066687 121.973499,20.1265823 125.60942,22.1556036 C129.245342,24.217351 132.418509,26.0827416 132.649886,26.2463723 C132.947371,26.5081815 133.046532,32.1370793 132.980425,53.1145415 L132.881263,79.6554492 L109.908851,92.8440877 C97.2822878,100.076567 86.7050621,106 86.4406315,106 C86.1762009,106 75.5989752,100.142019 62.972412,92.9749923 Z M84.9201553,79.2954616 C84.6226708,79.0663785 79.5984886,76.1537512 73.7149069,72.8156839 L63.0715735,66.7613461 L62.8732505,59.1361531 C62.7410352,54.9799321 62.6418737,49.1546774 62.6418737,46.24205 L62.6418737,40.9404137 L60.7578054,39.8277246 C59.7000828,39.2059278 55.3369772,36.7514665 51.0730331,34.3624575 C46.809089,31.9734486 42.9748447,29.7807965 42.5451449,29.5189873 L41.8179607,29.0608212 L41.8179607,53.867243 L41.8510145,78.7063909 L61.5180435,89.8332819 C72.326646,95.9530719 82.1105797,101.483791 83.23441,102.105588 L85.2837474,103.28373 L85.3829089,91.4695894 C85.4490166,80.8663168 85.4159628,79.6554492 84.9201553,79.2954616 Z M95.695704,98.6693424 C99.0671947,96.7384995 102.769224,94.6112998 103.959162,93.9240506 C105.149099,93.2368015 107.958675,91.6332201 110.239389,90.3241741 C112.520104,89.0151281 115.197464,87.4769991 116.189079,86.9206545 C117.180694,86.3315838 120.94883,84.1716579 124.551698,82.1099105 L131.063302,78.3791294 L131.063302,53.5727076 L131.063302,28.7662859 L129.608934,29.6171658 C128.815642,30.0753319 124.088944,32.7916023 119.13087,35.6387774 L110.07412,40.8422353 L110.008012,53.7036122 C109.974959,63.7832664 109.842743,66.6304415 109.512205,66.9249768 C109.148613,67.2849645 103.661677,70.3939487 91.1673292,77.4955233 L87.4322464,79.5899969 L87.4322464,91.5023155 L87.4322464,103.381908 L88.5230228,102.792837 C89.0849379,102.465576 92.3242133,100.600185 95.695704,98.6693424 Z M85.4490166,65.4850262 L85.4490166,53.7363384 L80.2595652,50.7909849 C70.1120394,45.0639086 64.9886957,42.2167336 64.8234265,42.2167336 C64.5920497,42.2167336 64.6581574,53.8345168 64.922588,60.5433776 L65.120911,65.5832047 L71.0706004,68.9867243 C74.3429296,70.8521149 78.8713044,73.4702069 81.1520187,74.7792529 C83.432733,76.0882989 85.3168013,77.200988 85.3829089,77.200988 C85.4159628,77.2337141 85.4490166,71.964804 85.4490166,65.4850262 Z M97.0178572,71.8338994 C100.75294,69.7066996 104.752453,67.4158691 105.942391,66.7286199 L108.09089,65.5177524 L108.190052,53.6708861 L108.256159,41.8240198 L107.198437,42.4785428 C106.074607,43.1330658 101.942878,45.4893486 92.8200207,50.7582587 L87.4322464,53.8345168 L87.4322464,65.5504785 L87.4322464,77.2991664 L88.8535611,76.5137388 C89.6137992,76.0882989 93.2827744,73.9610991 97.0178572,71.8338994 Z M91.8945135,48.9255943 C93.7124742,47.8783575 96.9848034,46.012967 99.1663562,44.7366471 C101.347909,43.4930534 103.926108,42.0203767 104.851615,41.4967583 C105.810176,40.9731399 106.669576,40.4167953 106.735683,40.2858907 C106.834845,40.1549861 102.30647,37.4059895 96.6873189,34.1661006 L86.4736853,28.2426675 L76.226998,34.1661006 C70.574793,37.4059895 65.9472567,40.1549861 65.9472567,40.2858907 C65.9472567,40.3840692 66.6413872,40.8422353 67.5338406,41.3331275 C68.3932402,41.7912936 73.0207764,44.3766595 77.8135818,47.0929299 L86.5728468,52.0018524 L87.5644617,51.4127817 C88.1263768,51.0855202 90.0765528,49.940105 91.8945135,48.9255943 Z M66.3769565,37.504168 C67.7652174,36.6860142 70.8392236,34.9188021 73.2852071,33.5115776 C75.6981367,32.1370793 78.5077122,30.5007718 79.4993272,29.9444273 C84.7218323,26.9336215 86.143147,26.18092 86.5067392,26.18092 C86.738116,26.18092 91.8945135,29.0608212 97.9764183,32.5625193 C104.025269,36.0642174 109.082505,38.9441186 109.148613,38.9441186 C109.247774,38.9441186 113.974472,36.2605743 119.692785,32.9879592 L130.038634,27.0645261 L127.658758,25.6900278 C126.336605,24.9373263 119.791946,21.1738191 113.048965,17.3448595 C106.339037,13.4831738 97.64588,8.54152516 93.745528,6.31614696 C89.845176,4.05804261 86.4736853,2.32355665 86.2092547,2.4217351 C85.7134472,2.618092 84.0938096,3.56715036 69.4179089,12.1086755 C59.4356522,17.9339302 46.1810663,25.6245755 44.3631056,26.6718123 C43.4045445,27.2281568 43.2062215,27.4572399 43.5367598,27.7190491 C43.7681366,27.915406 47.4701656,30.0098796 51.7341097,32.3988885 C55.9980538,34.7878975 60.3281056,37.2423588 61.3197205,37.8314295 C62.3113354,38.4532263 63.3029503,38.9441186 63.5343271,38.9441186 C63.7326501,38.9441186 65.0217495,38.2895956 66.3769565,37.504168 Z M45.2461789,77.5124607 C44.7068239,76.7798625 45.0990821,76 45.9816629,76 C46.5210179,76 46.7416631,76.1417932 46.9132761,76.6380693 C47.3545665,77.8196793 46.0061791,78.5286452 45.2461789,77.5124607 Z M52.1769683,73.8750367 C51.8726085,73.5355056 51.9740618,72.5430303 52.3798748,72.2034993 C52.6081446,72.0206749 53.0139576,71.9423216 53.3944073,72.0467927 C53.9524002,72.2034993 54.0538534,72.3340882 53.9777635,73.0653858 C53.9016735,73.7966833 53.8002203,73.9011544 53.1407742,73.9795077 C52.7095978,74.0317433 52.2784215,73.9795077 52.1769683,73.8750367 Z M58.1072474,70.4608452 C57.7897672,69.6060057 58.2049337,68.9065916 58.9864235,69.0102085 C60.3540308,69.1915381 60.3296093,70.7976002 58.962002,70.9789298 C58.4735708,71.0566425 58.2781983,70.9271213 58.1072474,70.4608452 Z M125.326236,77.9009226 C124.826605,77.6989375 124.926531,76.3607859 125.451144,76.0830563 C126.000738,75.7800786 127,76.3607859 127,76.9414932 C127,77.6989375 126.100664,78.2291485 125.326236,77.9009226 Z M119.46823,73.764589 C118.374585,73.1688379 119.393663,71.5483951 120.512164,72.1203161 C121.158409,72.4539367 121.158409,73.4547984 120.537019,73.788419 C119.965341,74.0743795 119.990197,74.0743795 119.46823,73.764589 Z M112.166388,70.625 C111.719121,70.05 112.237009,69 112.966759,69 C113.72005,69 114.143776,69.6 113.955453,70.375 C113.837752,70.85 113.649429,71 113.131542,71 C112.754896,71 112.33117,70.825 112.166388,70.625 Z M86.2210804,23.6266667 C86.0653947,23.4133333 85.9616043,22.96 86.0134995,22.6133333 C86.0653947,22.1066667 86.247028,22 86.9995089,22 C87.7519897,22 87.933623,22.1066667 87.9855183,22.6133333 C88.0893087,23.36 87.6222516,24 86.9995089,24 C86.7400327,24 86.4027137,23.8133333 86.2210804,23.6266667 Z M86.0983539,14.6797995 C85.8573001,14.0906305 86.0715701,13.4502294 86.6072451,13.1428369 C87.2768388,12.7329803 88,13.2453011 88,14.1674786 C88,14.8078797 87.892865,14.9103439 87.1161363,14.987192 C86.5268938,15.0384241 86.2054889,14.9359599 86.0983539,14.6797995 Z M86.3025432,7.67116212 C85.5536652,6.90801631 86.3025432,5.76329759 87.375935,6.04311772 C87.8502244,6.17030869 88,6.37381424 88,6.9334545 C88,7.90010586 86.9765334,8.35799334 86.3025432,7.67116212 Z M8.9770425,147.965659 C3.39708686,147.259186 0.623617788,145.419068 0.0788292195,142.034566 C-0.251345671,139.964434 0.475039087,137.516421 1.89479111,136.004895 C2.60466713,135.232703 5.18003127,133.786897 5.90641603,133.754037 C6.08801222,133.754037 5.84038105,133.606171 5.34511871,133.458304 C2.65419336,132.603964 1.05284514,130.484543 1.28396757,128.036529 C1.59763371,124.569879 4.32157656,122.581895 9.40626986,122.089007 C15.6961015,121.481111 21.804337,124.076991 21.3090746,127.1329 C21.094461,128.43084 19.9883751,129.153744 18.6676755,128.841581 C17.6111159,128.611566 17.148871,128.036529 16.7361524,126.409997 C16.4885213,125.457079 15.597049,124.504161 14.6230331,124.159139 C13.4344035,123.748398 10.8920569,123.649821 9.76946224,123.978413 C7.7884129,124.55345 6.4512046,126.393567 6.43469585,128.595137 C6.43469585,130.583121 7.47474676,131.89749 9.38976112,132.291801 C10.5123557,132.521816 13.1042286,132.571105 14.7881206,132.390379 C16.0592939,132.242512 16.0592939,132.242512 16.2573988,132.686112 C16.7526612,133.737608 15.7786452,134.345504 13.0381937,134.706955 C11.0076181,134.9534 8.81195506,135.429859 7.88746537,135.82417 C6.1540472,136.547073 5.32860997,137.861443 5.21304876,140.178019 C5.0809788,142.954625 6.26960841,144.630446 9.14212995,145.698372 C10.2812333,146.109112 10.5783907,146.158401 12.69151,146.158401 C14.7881206,146.158401 15.1182955,146.109112 16.3234338,145.698372 C17.8752558,145.172624 19.1464291,144.268995 19.3610428,143.562521 C19.4435865,143.283217 19.5591477,142.691751 19.6251827,142.231722 C19.8563051,140.473752 20.6322161,139.68513 22.0849856,139.68513 C22.7948617,139.68513 22.9599491,139.750849 23.4387027,140.276597 C23.933965,140.802345 24,140.950211 24,141.788122 C24,143.217499 23.2736152,144.252565 21.4246359,145.435498 C18.9483242,147.045601 15.7621365,147.899941 11.9486165,147.982089 C10.627917,148.014948 9.29070865,147.998519 8.9770425,147.965659 Z M151.646256,147.901968 C148.347274,147.2028 146.394815,144.38948 147.169066,141.409691 C147.53936,140.011354 148.111632,139.112423 149.373998,137.947143 C151.360119,136.099341 154.440291,134.434654 160.129351,132.154033 L162.95705,131.0054 L162.889724,128.891248 C162.822398,127.076739 162.755071,126.677215 162.401609,125.994693 C161.947158,125.129056 160.785781,124.230125 159.759057,123.930482 C158.008577,123.431076 155.51751,123.580898 154.154155,124.280066 C153.295746,124.696238 152.925453,125.278878 152.504664,126.843683 C152.050213,128.441782 151.528435,129.174244 150.653195,129.440594 C148.498758,130.073175 147.253224,128.142139 148.498758,126.061281 C149.003704,125.195644 150.569037,123.714072 151.461109,123.281254 C153.935345,122.032739 158.429366,121.633214 161.711516,122.365676 C163.916448,122.848435 165.919401,124.213478 166.693652,125.74499 C167.451071,127.226561 167.518397,127.92573 167.619386,136.415631 C167.720375,144.855592 167.737207,145.022061 168.477795,145.404939 C169.571845,145.987579 170.817379,145.271764 171.339156,143.740252 C171.642124,142.841321 171.675787,142.824674 172.332217,142.774734 C173.123299,142.708146 173.123299,142.691499 172.786669,144.272952 C172.231228,146.803275 170.750052,147.951909 167.972849,147.968556 C165.549107,148.00185 164.185752,147.152859 163.344175,145.138589 C163.091702,144.555948 162.839229,144.173071 162.721408,144.206364 C162.603588,144.239658 161.896663,144.639183 161.172907,145.105295 C159.489753,146.170694 157.066011,147.302681 155.769983,147.652265 C154.473954,147.985203 152.605653,148.101731 151.646256,147.901968 Z M158.429366,144.855592 C159.523416,144.356186 161.459043,143.157612 162.553093,142.291975 L162.923387,141.992331 L162.889724,137.381149 L162.839229,132.786614 L160.903602,133.569017 C157.26799,135.033941 155.803646,135.882931 154.238313,137.414443 C152.959116,138.662958 152.420506,139.828239 152.336349,141.442985 C152.252191,143.407315 152.992779,144.755711 154.524449,145.404939 C155.281868,145.721229 157.082843,145.471526 158.429366,144.855592 Z M25.0163749,146.198237 L25.0163749,145.412836 L26.2444946,145.31466 C27.5708639,145.216485 28.3077357,144.889235 28.6516093,144.251097 C28.8153586,143.923846 28.8644833,142.091244 28.8644833,135.317161 C28.8644833,130.621118 28.8153586,126.595938 28.7334839,126.3505 C28.5206098,125.597824 27.783738,125.221486 26.3099944,125.123311 L25,125.025136 L25.0491248,124.190647 L25.0982496,123.372521 L26.8994918,123.094358 C27.8983625,122.947096 29.4867307,122.619845 30.4364766,122.374408 C31.4025974,122.112607 32.2868436,121.948982 32.417843,122.014432 C32.7125918,122.12897 33.1547149,123.797947 33.3020892,125.385111 L33.4167137,126.54685 L34.4483343,125.565099 C36.5607002,123.601597 38.7549407,122.45622 41.1456804,122.112607 C43.7001694,121.736269 46.5494071,122.505308 48.0722756,123.977935 C49.9062676,125.761449 49.9390175,125.925074 50.0700169,135.628049 C50.1846414,144.251097 50.1846414,144.251097 51.0525127,144.905597 C51.3308865,145.101948 51.8876341,145.232848 52.7391304,145.298298 L54,145.412836 L54,146.198237 L54,147 L47.7775268,147 L41.5550536,147 L41.5550536,146.198237 L41.5550536,145.412836 L42.865048,145.31466 C44.2732919,145.216485 44.7972897,145.003773 45.2721626,144.267459 C45.5505364,143.858396 45.5669113,143.187533 45.5669113,135.709861 C45.5669113,126.497763 45.5832863,126.645025 44.256917,125.417836 C42.5866742,123.879759 40.3433089,123.716134 37.7888199,124.959686 C36.6261999,125.532374 34.8740824,127.086813 33.9243365,128.379452 L33.3348391,129.181216 L33.3839639,136.527987 C33.4494636,143.662046 33.4658385,143.874759 33.7933371,144.332909 C34.2682101,144.971048 34.8249577,145.200123 36.1513269,145.31466 L37.297572,145.412836 L37.297572,146.198237 L37.297572,147 L31.1569735,147 L25.0163749,147 L25.0163749,146.198237 Z M57,146.198422 L57,145.413203 L58.54375,145.331409 C60.25,145.233257 60.72125,145.036952 61.17625,144.169939 C61.42,143.711894 61.46875,142.943034 61.5175,137.184759 C61.55,133.454967 61.5175,129.872405 61.40375,128.710934 C61.14375,125.66821 60.77,125.242883 58.28375,125.242883 L57,125.242883 L57,124.424946 C57,123.98326 57.04875,123.607009 57.13,123.607009 C57.92625,123.607009 62.93125,122.707279 63.955,122.380104 C64.7025,122.151082 65.43375,121.971136 65.58,122.003853 C65.84,122.052929 65.85625,122.887225 65.9375,132.947847 C66.01875,142.975751 66.035,143.859123 66.31125,144.268091 C66.7825,145.004234 67.3025,145.216898 68.7,145.31505 L70,145.413203 L70,146.198422 L70,147 L63.5,147 L57,147 L57,146.198422 Z M100.016298,146.197673 L100.016298,145.41172 L101.140891,145.313476 C102.395871,145.215231 103.161898,144.887751 103.471568,144.331034 C103.634553,144.052676 103.683448,142.005923 103.683448,135.112459 C103.683448,126.483349 103.66715,126.221364 103.357479,125.87751 C102.852227,125.320793 102.461065,125.173427 101.238682,125.075183 L100.097791,124.976938 L100.048895,124.141863 L100,123.323162 L101.760232,123.1103 C103.227092,122.946559 105.215502,122.520835 106.959435,122.029614 C107.203912,121.947744 107.334299,122.029614 107.497284,122.373469 C107.806954,123.077552 108.16552,124.747702 108.16552,125.566403 C108.16552,125.975754 108.214415,126.352356 108.26331,126.417852 C108.312206,126.466975 108.801159,126.04125 109.355306,125.484533 C111.897863,122.881063 115.190148,121.653012 118.466135,122.09511 C121.285766,122.471713 123.323071,124.027245 124.154292,126.417852 C124.268381,126.745333 124.415067,127.023691 124.463962,127.023691 C124.512858,127.023691 125.034408,126.532471 125.604853,125.943006 C128.897139,122.586331 132.662079,121.309157 136.215139,122.357095 C138.611011,123.044804 140.371242,124.682206 140.8113,126.581593 C140.892792,126.958195 141.006882,130.953457 141.072075,135.456313 C141.186164,144.281912 141.186164,144.249164 142.06628,144.904125 C142.343354,145.100613 142.897501,145.231605 143.74502,145.297102 L145,145.41172 L145,146.197673 L145,147 L138.969576,147 L132.939152,147 L132.939152,146.197673 L132.939152,145.41172 L134.096342,145.313476 C135.335024,145.215231 135.856574,144.953247 136.31293,144.265538 C136.590004,143.856187 136.606302,143.184853 136.606302,135.865664 C136.606302,126.843577 136.590004,126.761707 135.465411,125.615525 C134.047447,124.190985 131.765665,123.994497 129.434987,125.107931 C128.342992,125.631899 127.870337,126.008502 126.468671,127.433042 L124.789931,129.119566 L124.789931,136.356885 C124.789931,144.118172 124.822528,144.39653 125.63745,144.936873 C125.833032,145.067865 126.484969,145.247979 127.071713,145.313476 L128.131112,145.444468 L128.180007,146.230421 L128.228903,147 L122.361463,147 L116.477725,147 L116.477725,146.197673 L116.477725,145.41172 L117.634915,145.313476 C118.873597,145.215231 119.395147,144.953247 119.851503,144.265538 C120.128577,143.856187 120.144875,143.184853 120.144875,135.783794 L120.144875,127.760522 L119.688519,126.827203 C118.889895,125.189801 117.537124,124.403848 115.548714,124.403848 C113.576603,124.403848 111.816371,125.320793 109.599783,127.482164 L108.328504,128.710216 L108.328504,136.275015 L108.328504,143.839813 L108.703368,144.39653 C109.110829,145.002369 109.958348,145.32985 111.229627,145.346224 L111.914162,145.362598 L111.914162,146.181299 L111.914162,147 L105.96523,147 L100.016298,147 L100.016298,146.197673 Z M61.0416667,118.769547 C59.7291667,118.191154 59.0182292,117.034369 59,115.461864 C59,114.558126 59.0911458,114.214705 59.5104167,113.600163 C60.7682292,111.720387 63.3203125,111.449266 64.9244792,113.039845 C65.5625,113.654387 66,114.684649 66,115.498014 C66,116.763247 64.9791667,118.317678 63.8671875,118.769547 C63.15625,119.076818 61.7161458,119.076818 61.0416667,118.769547 Z"/>
</svg>
