<svg height="162" viewBox="0 0 173 162" width="173" xmlns="http://www.w3.org/2000/svg"><path d="m79.2780587 161.776166c-3.6636282-.630052-6.702961-2.553368-7.7872635-4.924353-.5750089-1.293264-.657153-3.083937-.1807171-4.2943.3285766-.878757 1.2814485-1.856995 2.0700321-2.12228.6735818-.215544 2.1028897-.248705 2.2343203-.01658.0492865.082901-.1642883.480829-.4764359.895337-.8871566 1.160621-1.2978773 2.453886-1.1993043 3.74715.0821441 1.343005.4928647 2.188601 1.5771672 3.2 1.4128791 1.343005 3.3514805 2.039378 6.2429539 2.254922 6.2429538.480829 10.4323044-1.956477 10.4158755-6.051813-.0164288-1.939897-.8378701-3.266322-2.4807527-4.045596-1.1171601-.53057-3.5486264-.945078-6.6865321-1.160622-6.2100961-.397927-8.2144129-.928497-9.6601496-2.569948-.8214413-.928498-1.0514448-3.034197-.4600071-4.310881.5914377-1.309844 2.1193185-2.404145 3.8607741-2.818653l.8050124-.182383-1.0678736-.779275c-1.889315-1.359585-3.2693364-3.166839-3.8607741-5.090155-.4271495-1.392746-.3942918-3.946114.0821441-5.3057.755726-2.17202 2.6121833-4.161658 4.8793613-5.222798 1.6264538-.762694 2.6943274-.978238 4.6822154-.978238 2.6614697.01658 4.9615054.762694 6.7029609 2.188601l.8542989.696373 1.0350161-.845596c2.3328932-1.973057 4.7315018-2.370984 6.2100961-1.027979 1.5771673 1.442487 1.0514449 3.863212-.8542989 3.863212-.8050125 0-1.2978773-.315026-1.8564573-1.160621-.6242954-.945078-1.1171602-1.243524-1.7578844-1.011399-.27929.099482-.7885836.397927-1.133589.679792l-.6407242.51399.5585801 1.193782c1.5443096 3.282902 1.1171601 6.847669-1.1664466 9.798964-.9200143 1.160622-2.3164645 2.1057-3.9757759 2.65285-1.6757402.54715-2.7600427.729534-5.6186584.911917-3.680057.232124-5.4215125.961658-5.4215125 2.271503 0 1.326424 1.6593114 1.807253 7.3108274 2.13886 2.6121833.149223 5.9308062.54715 7.0479663.845596 2.9407598.762694 5.1093648 2.984456 5.7008026 5.836269.0985729.53057.1478594 1.57513.1150018 2.387565-.2464324 4.095337-3.4171958 6.996891-8.5922759 7.842487-1.8071709.298445-5.7500891.298445-7.5079734 0zm4.6493577-23.311917c1.0021583-.315026 2.3000356-1.59171 2.8421868-2.785493.9528719-2.13886.9528719-6.831088 0-8.969948-.5421512-1.226943-1.7414555-2.354404-2.9079021-2.752331-1.0021584-.331607-3.2364787-.248705-3.9922047.149222-.6900107.364767-1.511452 1.226943-1.9057438 2.022798-1.1500178 2.238342-1.3635926 6.814508-.4435783 9.301555.9857295 2.636269 3.5979128 3.879793 6.4072421 3.034197zm-20.9550044-45.4892567-22.972412-13.0250077v-26.4754554-26.4754554l1.55353-.9817845c.8593996-.5236184 3.4045445-2.0290213 5.6191512-3.3380673 3.4045445-1.963569 16.5599689-9.588762 29.3518012-17.05032419 1.7187992-1.01451065 4.5944824-2.68354431 6.3793893-3.73078111 1.7849068-1.0472368 3.3714907-1.8981167 3.5698136-1.8981167.198323 0 3.3384369 1.7017598 7.007412 3.82895956 3.6689752 2.0944736 8.0651347 4.581661 9.7508797 5.5634455 3.173168 1.83266444 7.139628 4.09076874 12.560456 7.19975304 1.751853 1.0145106 6.181066 3.5344242 9.816987 5.5634455 3.635922 2.0617474 6.809089 3.927138 7.040466 4.0907687.297485.2618092.396646 5.890707.330539 26.8681692l-.099162 26.5409077-22.972412 13.1886385c-12.6265632 7.2324793-23.2037889 13.1559123-23.4682195 13.1559123s-10.8416563-5.857981-23.4682195-13.0250077zm21.9477433-13.6795307c-.2974845-.2290831-5.3216667-3.1417104-11.2052484-6.4797777l-10.6433334-6.0543378-.198323-7.625193c-.1322153-4.156221-.2313768-9.9814757-.2313768-12.8941031v-5.3016363l-1.8840683-1.1126891c-1.0577226-.6217968-5.4208282-3.0762581-9.6847723-5.4652671-4.2639441-2.3890089-8.0981884-4.581661-8.5278882-4.8434702l-.7271842-.4581661v24.8064218l.0330538 24.8391479 19.667029 11.126891c10.8086025 6.11979 20.5925362 11.6505091 21.7163665 12.2723061l2.0493374 1.178142.0991615-11.8141406c.0661077-10.6032726.0330539-11.8141402-.4627536-12.1741278zm10.7755487 19.3738808c3.3714907-1.9308429 7.07352-4.0580426 8.263458-4.7452918 1.189937-.6872491 3.999513-2.2908305 6.280227-3.5998765 2.280715-1.309046 4.958075-2.847175 5.94969-3.4035196.991615-.5890707 4.759751-2.7489966 8.362619-4.810744l6.511604-3.7307811v-24.8064218-24.8064217l-1.454368.8508799c-.793292.4581661-5.51999 3.1744365-10.478064 6.0216116l-9.05675 5.2034579-.066108 12.8613769c-.033053 10.0796542-.165269 12.9268293-.495807 13.2213646-.363592.3599877-5.850528 3.4689719-18.3448758 10.5705465l-3.7350828 2.0944736v11.9123186 11.8795925l1.0907764-.589071c.5619151-.327261 3.8011905-2.192652 7.1726812-4.1234946zm-10.2466874-33.1843162v-11.7486878l-5.1894514-2.9453535c-10.1475258-5.7270763-15.2708695-8.5742513-15.4361387-8.5742513-.2313768 0-.1652691 11.6177832.0991615 18.326644l.198323 5.0398271 5.9496894 3.4035196c3.2723292 1.8653906 7.800704 4.4834826 10.0814183 5.7925286s4.1647826 2.4217351 4.2308902 2.4217351c.0330539.0327261.0661077-5.236184.0661077-11.7159618zm11.5688406 6.3488732c3.7350828-2.1271998 7.7345958-4.4180303 8.9245338-5.1052795l2.148499-1.2108675.099162-11.8468663.066107-11.8468663-1.057722.654523c-1.12383.654523-5.255559 3.0108058-14.3784163 8.2797159l-5.3877743 3.0762581v11.7159617 11.7486879l1.4213147-.7854276c.7602381-.4254399 4.4292133-2.5526397 8.1642961-4.6798394zm-5.1233437-22.9083051c1.8179607-1.0472368 5.0902899-2.9126273 7.2718427-4.1889472 2.1815528-1.2435937 4.7597518-2.7162704 5.6852588-3.2398888.958561-.5236184 1.817961-1.079963 1.884068-1.2108676.099162-.1309046-4.429213-2.8799012-10.0483641-6.1197901l-10.2136336-5.9234331-10.2466873 5.9234331c-5.652205 3.2398889-10.2797413 5.9888855-10.2797413 6.1197901 0 .0981785.6941305.5563446 1.5865839 1.0472368.8593996.4581661 5.4869358 3.043532 10.2797412 5.7598024l8.759265 4.9089225.9916149-.5890707c.5619151-.3272615 2.5120911-1.4726767 4.3300518-2.4871874zm-25.517557-11.4214263c1.3882609-.8181538 4.4622671-2.5853659 6.9082506-3.9925904 2.4129296-1.3744983 5.2225051-3.0108058 6.2141201-3.5671503 5.2225051-3.0108058 6.6438198-3.7635073 7.007412-3.7635073.2313768 0 5.3877743 2.8799012 11.4696791 6.3815993 6.0488507 3.5016981 11.1060867 6.3815993 11.1721947 6.3815993.099161 0 4.825859-2.6835443 10.544172-5.9561594l10.345849-5.9234331-2.379876-1.3744983c-1.322153-.7527015-7.866812-4.5162087-14.609793-8.3451683-6.709928-3.8616857-15.403085-8.80333434-19.303437-11.02871254-3.900352-2.25810435-7.2718427-3.99259031-7.5362733-3.89441186-.4958075.1963569-2.1154451 1.14541526-16.7913458 9.6869404-9.9822567 5.8252547-23.2368426 13.5159-25.0548033 14.5631368-.9585611.5563445-1.1568841.7854276-.8263458 1.0472368.2313768.1963569 3.9334058 2.2908305 8.1973499 4.6798394 4.2639441 2.389009 8.5939959 4.8434703 9.5856108 5.432541.9916149.6217968 1.9832298 1.1126891 2.2146066 1.1126891.198323 0 1.4874224-.654523 2.8426294-1.4399506zm-21.1307776 40.0082927c-.539355-.7325982-.1470968-1.5124607.735484-1.5124607.539355 0 .7600002.1417932.9316132.6380693.4412904 1.18161-.907097 1.8905759-1.6670972.8743914zm6.9307894-3.637424c-.3043598-.3395311-.2029065-1.3320064.2029065-1.6715374.2282698-.1828244.6340828-.2611777 1.0145325-.1567066.5579929.1567066.6594461.2872955.5833562 1.0185931-.07609.7312975-.1775432.8357686-.8369893.9141219-.4311764.0522356-.8623527 0-.9638059-.104471zm5.9302791-3.4141915c-.3174802-.8548395.0976863-1.5542536.8791761-1.4506367 1.3676073.1813296 1.3431858 1.7873917-.0244215 1.9687213-.4884312.0777127-.6838037-.0518085-.8547546-.5180846zm67.2189886 7.4400774c-.499631-.2019851-.399705-1.5401367.124908-1.8178663.549594-.3029777 1.548856.2777296 1.548856.8584369 0 .7574443-.899336 1.2876553-1.673764.9594294zm-5.858006-4.1363336c-1.093645-.5957511-.074567-2.2161939 1.043934-1.6442729.646245.3336206.646245 1.3344823.024855 1.6681029-.571678.2859605-.546822.2859605-1.068789-.02383zm-7.301842-3.139589c-.447267-.575.070621-1.625.800371-1.625.753291 0 1.177017.6.988694 1.375-.117701.475-.306024.625-.823911.625-.376646 0-.800372-.175-.965154-.375zm-25.9453076-46.9983333c-.1556857-.2133334-.2594761-.6666667-.2075809-1.0133334.0518952-.5066666.2335285-.6133333.9860094-.6133333.7524808 0 .9341141.1066667.9860094.6133333.1037904.7466667-.3632667 1.3866667-.9860094 1.3866667-.2594762 0-.5967952-.1866667-.7784285-.3733333zm-.1227265-8.9468672c-.2410538-.589169-.0267838-1.2295701.5088912-1.5369626.6695937-.4098566 1.3927549.1024642 1.3927549 1.0246417 0 .6404011-.107135.7428653-.8838637.8197134-.5892425.0512321-.9106474-.0512321-1.0177824-.3073925zm.2041893-7.00863738c-.748878-.76314581 0-1.90786453 1.0733918-1.6280444.4742894.12719097.624065.33069652.624065.89033678 0 .96665136-1.0234666 1.42453884-1.6974568.73770762zm-77.3255007 140.29449688c-5.57995564-.706473-8.35342471-2.546591-8.89821328-5.931093-.33017489-2.070132.39620987-4.518145 1.81596189-6.029671.70987602-.772192 3.28524016-2.217998 4.01162492-2.250858.18159619 0-.06603498-.147866-.56129732-.295733-2.69092535-.85434-4.29227357-2.973761-4.06115114-5.421775.31366614-3.46665 3.03760899-5.454634 8.12230229-5.947522 6.28983164-.607896 12.39806714 1.987984 11.90280474 5.043893-.2146136 1.29794-1.3206995 2.020844-2.6413991 1.708681-1.0565596-.230015-1.5188045-.805052-1.9315231-2.431584-.2476311-.952918-1.1391034-1.905836-2.1131193-2.250858-1.1886296-.410741-3.7309762-.509318-4.85357086-.180726-1.98104934.575037-3.31825764 2.415154-3.33476639 4.616724 0 1.987984 1.04005091 3.302353 2.95506527 3.696664 1.12259458.230015 3.71446748.279304 5.39835948.098578 1.2711733-.147867 1.2711733-.147867 1.4692782.295733.4952624 1.051496-.4787536 1.659392-3.2192051 2.020843-2.0305756.246445-4.22623864.722904-5.15072833 1.117215-1.73341817.722903-2.5588554 2.037273-2.67441661 4.353849-.13206996 2.776606 1.05655965 4.452427 3.92908119 5.520353 1.13910335.41074 1.43626075.460029 3.54938005.460029 2.0966106 0 2.4267855-.049289 3.6319238-.460029 1.551822-.525748 2.8229953-1.429377 3.037609-2.135851.0825437-.279304.1981049-.87077.2641399-1.330799.2311224-1.75797 1.0070334-2.546592 2.4598029-2.546592.7098761 0 .8749635.065719 1.3537171.591467.4952623.525748.5612973.673614.5612973 1.511525 0 1.429377-.7263848 2.464443-2.5753641 3.647376-2.4763117 1.610103-5.6624994 2.464443-9.4760194 2.546591-1.3206995.032859-2.65790785.01643-2.971574-.01643zm142.6692135-.063691c-3.298982-.699168-5.251441-3.512488-4.47719-6.492277.370294-1.398337.942566-2.297268 2.204932-3.462548 1.986121-1.847802 5.066293-3.512489 10.755353-5.79311l2.827699-1.148633-.067326-2.114152c-.067326-1.814509-.134653-2.214033-.488115-2.896555-.454451-.865637-1.615828-1.764568-2.642552-2.064211-1.75048-.499406-4.241547-.349584-5.604902.349584-.858409.416172-1.228702.998812-1.649491 2.563617-.454451 1.598099-.976229 2.330561-1.851469 2.596911-2.154437.632581-3.399971-1.298455-2.154437-3.379313.504946-.865637 2.070279-2.347209 2.962351-2.780027 2.474236-1.248515 6.968257-1.64804 10.250407-.915578 2.204932.482759 4.207885 1.847802 4.982136 3.379314.757419 1.481571.824745 2.18074.925734 10.670641.100989 8.439961.117821 8.60643.858409 8.989308 1.09405.58264 2.339584-.133175 2.861361-1.664687.302968-.898931.336631-.915578.993061-.965518.791082-.066588.791082-.083235.454452 1.498218-.555441 2.530323-2.036617 3.678957-4.81382 3.695604-2.423742.033294-3.787097-.815697-4.628674-2.829967-.252473-.582641-.504946-.965518-.622767-.932225-.11782.033294-.824745.432819-1.548501.898931-1.683154 1.065399-4.106896 2.197386-5.402924 2.54697-1.296029.332938-3.16433.449466-4.123727.249703zm6.78311-3.046376c1.09405-.499406 3.029677-1.69798 4.123727-2.563617l.370294-.299644-.033663-4.611182-.050495-4.594535-1.935627.782403c-3.635612 1.464924-5.099956 2.313914-6.665289 3.845426-1.279197 1.248515-1.817807 2.413796-1.901964 4.028542-.084158 1.96433.65643 3.312726 2.1881 3.961954.757419.31629 2.558394.066587 3.904917-.549347zm-133.4129911 1.342645v-.785401l1.2281197-.098176c1.3263693-.098175 2.0632411-.425425 2.4071147-1.063563.1637493-.327251.212874-2.159853.212874-8.933936 0-4.696043-.0491247-8.721223-.1309994-8.966661-.2128741-.752676-.9497459-1.129014-2.4234895-1.227189l-1.3099944-.098175.0491248-.834489.0491248-.818126 1.8012422-.278163c.9988707-.147262 2.5872389-.474513 3.5369848-.71995.9661208-.261801 1.850367-.425426 1.9813664-.359976.2947488.114538.7368719 1.783515.8842462 3.370679l.1146245 1.161739 1.0316206-.981751c2.1123659-1.963502 4.3066064-3.108879 6.6973461-3.452492 2.554489-.376338 5.4037267.392701 6.9265952 1.865328 1.833992 1.783514 1.8667419 1.947139 1.9977413 11.650114.1146245 8.623048.1146245 8.623048.9824958 9.277548.2783738.196351.8351214.327251 1.6866177.392701l1.2608696.114538v.785401.801763h-6.2224732-6.2224732v-.801763-.785401l1.3099944-.098176c1.4082439-.098175 1.9322417-.310887 2.4071146-1.047201.2783738-.409063.2947487-1.079926.2947487-8.557598 0-9.212098.016375-9.064836-1.3099943-10.292025-1.6702428-1.538077-3.9136081-1.701702-6.4680971-.45815-1.16262.572688-2.9147375 2.127127-3.8644834 3.419766l-.5894974.801764.0491248 7.346771c.0654997 7.134059.0818746 7.346772.4093732 7.804922.474873.638139 1.0316206.867214 2.3579898.981751l1.1462451.098176v.785401.801763h-6.1405985-6.1405986zm31.9836251.000185v-.785219l1.54375-.081794c1.70625-.098152 2.1775-.294457 2.6325-1.16147.24375-.458045.2925-1.226905.34125-6.98518.0325-3.729792 0-7.312354-.11375-8.473825-.26-3.042724-.63375-3.468051-3.12-3.468051h-1.28375v-.817937c0-.441686.04875-.817937.13-.817937.79625 0 5.80125-.89973 6.825-1.226905.7475-.229022 1.47875-.408968 1.625-.376251.26.049076.27625.883372.3575 10.943994.08125 10.027904.0975 10.911276.37375 11.320244.47125.736143.99125.948807 2.38875 1.046959l1.3.098153v.785219.801578h-6.5-6.5zm43.016298-.000749v-.785953l1.124593-.098244c1.25498-.098245 2.021007-.425725 2.330677-.982442.162985-.278358.21188-2.325111.21188-9.218575 0-8.62911-.016298-8.891095-.325969-9.234949-.505252-.556717-.896414-.704083-2.118797-.802327l-1.140891-.098245-.048896-.835075-.048895-.818701 1.760232-.212862c1.46686-.163741 3.45527-.589465 5.199203-1.080686.244477-.08187.374864 0 .537849.343855.30967.704083.668236 2.374233.668236 3.192934 0 .409351.048895.785953.09779.851449.048896.049123.537849-.376602 1.091996-.933319 2.542557-2.60347 5.834842-3.831521 9.110829-3.389423 2.819631.376603 4.856936 1.932135 5.688157 4.322742.114089.327481.260775.605839.30967.605839.048896 0 .570446-.49122 1.140891-1.080685 3.292286-3.356675 7.057226-4.633849 10.610286-3.585911 2.395872.687709 4.156103 2.325111 4.596161 4.224498.081492.376602.195582 4.371864.260775 8.87472.114089 8.825599.114089 8.792851.994205 9.447812.277074.196488.831221.32748 1.67874.392977l1.25498.114618v.785953.802327h-6.030424-6.030424v-.802327-.785953l1.15719-.098244c1.238682-.098245 1.760232-.360229 2.216588-1.047938.277074-.409351.293372-1.080685.293372-8.399874 0-9.022087-.016298-9.103957-1.140891-10.250139-1.417964-1.42454-3.699746-1.621028-6.030424-.507594-1.091995.523968-1.56465.900571-2.966316 2.325111l-1.67874 1.686524v7.237319c0 7.761287.032597 8.039645.847519 8.579988.195582.130992.847519.311106 1.434263.376603l1.059399.130992.048895.785953.048896.769579h-5.86744-5.883738v-.802327-.785953l1.15719-.098244c1.238682-.098245 1.760232-.360229 2.216588-1.047938.277074-.409351.293372-1.080685.293372-8.481744v-8.023272l-.456356-.933319c-.798624-1.637402-2.151395-2.423355-4.139805-2.423355-1.972111 0-3.732343.916945-5.948931 3.078316l-1.271279 1.228052v7.564799 7.564798l.374864.556717c.407461.605839 1.25498.93332 2.526259.949694l.684535.016374v.818701.818701h-5.948932-5.948932zm-38.9746313-27.428126c-1.3125-.578393-2.0234375-1.735178-2.0416667-3.307683 0-.903738.0911458-1.247159.5104167-1.861701 1.2578125-1.879776 3.8098958-2.150897 5.4140625-.560318.6380208.614542 1.0755208 1.644804 1.0755208 2.458169 0 1.265233-1.0208333 2.819664-2.1328125 3.271533-.7109375.307271-2.1510417.307271-2.8255208 0z"/></svg>