<svg height="144" viewBox="0 0 129 144" width="129" xmlns="http://www.w3.org/2000/svg"><path d="m62.7559226 99.8039569c-.7570714-.3951165-40.6088182-23.2995257-41.4651778-23.8181161-.6205504-.3704217-.9556476-.6667591-1.0921687-.9630965-.1861651-.3827691-.1985761-2.6299941-.1985761-24.9911182 0-13.9031617.049644-24.7071283.1116991-24.8676444.062055-.1605161.2482201-.4198113.4219742-.5926747.2482202-.2346004 26.3113371-15.28606939 40.4722972-23.36126274 1.9485283-1.11126514 2.1719264-1.21004426 2.7800658-1.21004426.3599192 0 .8191265.08643173 1.0301137.19755825 1.3031558.66675908 41.936796 24.07741135 42.160194 24.28731695.682606.6173696.645373-.1975582.657784 15.4218907v14.483489l.843948.3951165c1.538965.728496 2.618723 1.9632351 3.214451 3.667175.397153 1.1483073.409564 2.8398998.037233 4.0375966-1.179045 3.7289119-5.535309 5.5069362-9.159324 3.7412593-2.010583-.9754438-3.5123149-3.4202271-3.5123149-5.7291891 0-2.3583516 1.5389649-4.8154823 3.5991919-5.7662314l.744661-.3457269-.037233-13.5821295-.024822-13.5697821-19.7210919-11.3349044c-10.847221-6.23543218-19.7583247-11.33490444-19.8079688-11.33490444-.1241101 0-39.2436073 22.47225064-39.4421835 22.64511404-.111699.1111265-.1489321 4.5314923-.1241101 21.5955859l.0372331 21.4350698 11.2195512-6.4453378 11.2319623-6.4453378.024822-1.3582129c.024822-1.4446447.2358092-2.2966147.8439485-3.3214481.7694825-1.296476 2.0354054-2.2966146 3.5123153-2.815205 1.1542238-.3827691 3.090341-.3827691 4.1949207.0123474 2.9041759 1.0371808 4.7534161 4.0622914 4.2817978 6.9762756-.2606312 1.6545503-.8935926 2.8275524-2.0726383 3.9017754-2.0974604 1.9138455-5.2746785 2.1854881-7.7817021.6791064l-.7322494-.444506-2.4449686 1.3952551c-14.6822225 8.4085729-20.093422 11.5324627-20.0686 11.606547.024822.1111265 37.170969 21.4597646 37.3199011 21.4597646s37.2950787-21.3609854 37.3199007-21.4597646c.012411-.0493895-8.6008281-5.0253879-19.1501849-11.0756092-10.5493568-6.0378739-19.3611725-11.1249988-19.5597487-11.2978623-.7570715-.5926747-.7198384.1852109-.7198384-15.2984167v-14.199499l-.8315376-.4074639c-3.139985-1.5310764-4.4059078-5.469894-2.8172988-8.729605.4467963-.9137069 1.8740622-2.3213094 2.8048878-2.7658155 2.6559557-1.27178122 5.7090637-.72849604 7.657592 1.3458656 1.2783338 1.3582129 1.8244181 2.8769419 1.7127191 4.7907874-.1241101 2.3953938-1.489321 4.4203658-3.6612474 5.4575466l-.6453724.3086848.024822 13.3351817.037233 13.347529 20.2423541 11.6188944c11.1202632 6.3959483 20.3912862 11.730021 20.5774512 11.8534949.533673.3580743.819127.9260542.819127 1.6792451 0 .8396225-.335098 1.456992-1.030114 1.8891507-.670194.4198113-41.2293687 23.7069896-41.750631 23.9786322-.5088513.2469477-1.60102.2469477-2.0850494-.0123474zm43.5874604-37.2644243c.595728-.2469478.881181-.506243 1.166635-1.074223.843948-1.6545503-.757072-3.5930906-2.531846-3.0621528-.682605.1975582-1.390033.9137069-1.563787 1.580466-.273042.9877912.273042 2.0496668 1.290745 2.5065202.608139.28399 1.042524.2963374 1.638253.0493896zm-52.299988-4.5561871c.8067155-.3457269 1.3279779-1.1483073 1.3279779-2.0743616 0-1.3088234-1.4024439-2.3953937-2.6559557-2.0620142-1.47691.3951165-2.1471044 1.9138455-1.427266 3.1979741.5460844.9630965 1.7499522 1.3705604 2.7552438.9384017zm10.760344-40.0796294c.9804696-.4938956 1.4396769-1.6545503 1.0673467-2.6546889-.4219743-1.074223-1.551376-1.6915925-2.5814897-1.4076025-.7694825.1975582-1.538965 1.0371808-1.6630751 1.7780242-.2606312 1.7656768 1.588609 3.0868476 3.1772181 2.2842672zm-57.027739 108.2642839h4.416v3.84h-4.288v12.992h-4.992v-12.992h-2.656v-3.84h2.656v-.768c0-1.962676.58132752-3.519994 1.744-4.672s2.79998944-1.728 4.912-1.728c.7466704 0 1.4559966.079999 2.128.24s1.2319978.389332 1.68.688l-1.312 3.616c-.5760029-.405335-1.2479962-.608-2.016-.608-1.51467424 0-2.272.831992-2.272 2.496zm9.472-.384h4.992v17.216h-4.992zm2.496-2.4c-.9173379 0-1.6639971-.266664-2.24-.8s-.864-1.194663-.864-1.984.2879971-1.450664.864-1.984 1.3226621-.8 2.24-.8 1.6639971.255997 2.24.768.864 1.151996.864 1.92c0 .832004-.2879971 1.519997-.864 2.064s-1.3226621.816-2.24.816zm18.24 18.784c-.4906691.362668-1.0933298.634666-1.808.816s-1.4666627.272-2.256.272c-2.0480102 0-3.6319944-.522661-4.752-1.568s-1.68-2.581323-1.68-4.608v-7.072h-2.656v-3.84h2.656v-4.192h4.992v4.192h4.288v3.84h-4.288v7.008c0 .725337.1866648 1.285331.56 1.68s.9013299.592 1.584.592c.7893373 0 1.4613306-.213331 2.016-.64zm10.592 1.088c-1.8346758 0-3.4826594-.378663-4.944-1.136s-2.6026626-1.807993-3.424-3.152-1.232-2.869325-1.232-4.576.4106626-3.231993 1.232-4.576 1.9626594-2.394663 3.424-3.152 3.1093242-1.136 4.944-1.136c1.8133424 0 3.3973266.378663 4.752 1.136s2.3413302 1.839993 2.96 3.248l-3.872 2.08c-.8960045-1.578675-2.1866582-2.368-3.872-2.368-1.3013398 0-2.3786624.426662-3.232 1.28s-1.28 2.015993-1.28 3.488.4266624 2.634662 1.28 3.488 1.9306602 1.28 3.232 1.28c1.7066752 0 2.997329-.789325 3.872-2.368l3.872 2.112c-.6186698 1.36534-1.6053266 2.431996-2.96 3.2s-2.9386576 1.152-4.752 1.152zm20.928-17.728c2.133344 0 3.8559934.639994 5.168 1.92s1.968 3.178654 1.968 5.696v9.856h-4.992v-9.088c0-1.36534-.2986637-2.383997-.896-3.056s-1.4613277-1.008-2.592-1.008c-1.258673 0-2.2613296.389329-3.008 1.168s-1.12 1.935992-1.12 3.472v8.512h-4.992v-23.744h4.992v8.32c.6613366-.661337 1.4613286-1.167998 2.4-1.52s1.9626611-.528 3.072-.528zm18.592 0c2.66668 0 4.7146595.63466 6.144 1.904s2.144 3.183987 2.144 5.744v9.824h-4.672v-2.144c-.9386714 1.600008-2.6879872 2.4-5.248 2.4-1.3226733 0-2.4693285-.223998-3.44-.672s-1.7119974-1.066663-2.224-1.856-.768-1.685328-.768-2.688c0-1.600008.6026606-2.858662 1.808-3.776s3.0666541-1.376 5.584-1.376h3.968c0-1.088005-.3306634-1.92533-.992-2.512s-1.6533267-.88-2.976-.88c-.9173379 0-1.8186622.143999-2.704.432s-1.6373302.677331-2.256 1.168l-1.792-3.488c.9386714-.661337 2.0639934-1.173332 3.376-1.536s2.6613264-.544 4.048-.544zm-.384 14.368c.8533376 0 1.6106634-.197331 2.272-.592s1.1306653-.975996 1.408-1.744v-1.76h-3.424c-2.0480102 0-3.072.671993-3.072 2.016 0 .640003.2506642 1.146665.752 1.52s1.189329.56 2.064.56zm13.184-14.112h4.992v17.216h-4.992zm2.496-2.4c-.917338 0-1.663997-.266664-2.24-.8s-.864-1.194663-.864-1.984.287997-1.450664.864-1.984 1.322662-.8 2.24-.8 1.663997.255997 2.24.768.864 1.151996.864 1.92c0 .832004-.287997 1.519997-.864 2.064s-1.322662.816-2.24.816zm17.6 2.144c2.133344 0 3.855993.639994 5.168 1.92s1.968 3.178654 1.968 5.696v9.856h-4.992v-9.088c0-1.36534-.298664-2.383997-.896-3.056s-1.461328-1.008-2.592-1.008c-1.258673 0-2.26133.389329-3.008 1.168s-1.12 1.935992-1.12 3.472v8.512h-4.992v-17.216h4.768v2.016c.661337-.725337 1.482662-1.285331 2.464-1.68s2.058661-.592 3.232-.592z"/></svg>