<svg height="47" viewBox="0 0 183 47" width="183" xmlns="http://www.w3.org/2000/svg"><path d="m103.316 14.904c0-5.336.092-10.304.368-14.904l-14.076 2.668v1.288l1.38.184c1.012.092 1.656.46 2.024 1.012.368.644.644 1.564.828 2.944.184 2.668.368 8.74.276 18.308 0 9.476-.092 15.456-.276 17.756 5.06 1.104 9.016 1.564 11.96 1.564 5.52 0 9.844-1.564 12.972-4.784 3.128-3.128 4.784-7.544 4.784-12.972 0-4.324-1.196-7.912-3.588-10.764s-5.428-4.232-9.016-4.232c-2.392 0-4.876.644-7.636 1.932zm.276 28.336c-.184-2.944-.368-11.776-.368-26.22.828-.276 1.932-.46 3.312-.46 2.208 0 3.956 1.104 5.244 3.404s1.932 5.06 1.932 8.556c0 4.324-.736 7.82-2.208 10.764-1.472 2.852-3.312 4.324-5.612 4.324-.736-.184-1.472-.276-2.3-.368zm-66.792-42.32h-36.8v1.84l1.932.184c1.472.276 2.484.828 3.128 1.656.644.92 1.012 2.392 1.104 4.416.736 9.936.736 19.228 0 27.784-.184 2.024-.552 3.496-1.104 4.416-.644.92-1.656 1.472-3.128 1.656l-1.932.276v1.84h23.736v-1.84l-2.484-.184c-1.472-.184-2.484-.828-3.128-1.656-.644-.92-1.012-2.392-1.104-4.416-.276-3.68-.46-7.912-.46-12.604l4.968.092c2.668.092 4.508 2.116 5.428 6.164h1.84v-14.996h-1.84c-.92 3.956-2.668 5.98-5.428 6.072l-4.968.092c0-8.28.184-14.168.46-17.756h7.268c5.152 0 8.648 3.312 10.672 9.936l2.208-.644zm-4.324 28.336c0 4.784 1.38 8.74 4.048 11.868s6.624 4.6 11.592 4.6 9.016-1.564 11.96-4.784c2.944-3.128 4.324-7.084 4.324-11.868s-1.38-8.74-4.048-11.868-6.624-4.6-11.592-4.6-9.016 1.564-11.96 4.784c-2.944 3.128-4.324 7.084-4.324 11.868zm20.516-10.488c1.104 2.668 1.564 6.164 1.564 10.396 0 9.752-2.024 14.536-5.98 14.536-2.024 0-3.588-1.38-4.692-4.14s-1.564-6.256-1.564-10.396c0-9.66 2.024-14.444 5.98-14.444 2.024-.092 3.588 1.288 4.692 4.048zm77.74 22.356c3.036 3.036 6.9 4.6 11.5 4.6 2.852 0 5.336-.552 7.544-1.748 2.208-1.104 3.956-2.484 5.152-4.14l-.92-1.104c-2.024 1.564-4.324 2.3-6.992 2.3-3.68 0-6.532-1.196-8.464-3.68-2.024-2.484-2.944-5.612-2.76-9.66h19.688c0-4.416-1.104-8.004-3.404-10.856-2.3-2.76-5.52-4.14-9.66-4.14-5.152 0-9.108 1.656-11.96 4.876s-4.232 7.176-4.232 11.868c0 4.784 1.472 8.648 4.508 11.684zm6.808-23.092c1.012-2.208 2.3-3.312 4.048-3.312 2.76 0 4.14 3.496 4.14 10.58l-9.752.184c.092-2.76.552-5.244 1.564-7.452zm42.688-3.68c-2.484-1.104-5.612-1.748-9.384-1.748-3.864 0-6.9 1.012-9.2 2.944s-3.496 4.324-3.496 7.176c0 2.484.736 4.416 2.116 5.796s3.588 2.576 6.44 3.588c2.576.92 4.416 1.84 5.336 2.668.92.92 1.472 1.932 1.472 3.312 0 1.288-.46 2.484-1.472 3.404-.92 1.012-2.208 1.472-3.864 1.472-4.048 0-7.084-2.944-9.2-8.832l-1.564.46.368 9.2c3.312 1.288 6.992 1.932 11.04 1.932 4.232 0 7.452-.92 9.844-2.852 2.392-1.84 3.588-4.508 3.588-7.82 0-2.208-.552-4.048-1.748-5.428s-3.128-2.576-5.888-3.68c-3.036-1.104-5.152-2.116-6.256-3.036s-1.656-2.024-1.656-3.404.368-2.484 1.196-3.404 1.84-1.288 3.128-1.288c3.68 0 6.348 2.668 8.004 7.912l1.564-.46zm-88.504-.828c-1.288-.644-2.668-.92-4.232-.92s-3.128.644-4.876 1.932-3.036 3.036-4.048 5.428l.092-7.36-13.984 2.76v1.288l1.38.092c1.748.184 2.76 1.564 2.944 4.048.552 5.704.552 11.776 0 18.216-.184 2.484-1.196 3.772-2.944 4.048l-1.38.184v1.748h19.504v-1.748l-2.484-.184c-1.748-.184-2.76-1.564-2.944-4.048-.552-5.336-.644-11.04-.184-16.928.552-.92 1.748-1.472 3.588-1.656s3.956.368 6.164 1.656z" transform="translate(.523 .81)"/></svg>