<svg height="266" viewBox="0 0 253 266" width="253" xmlns="http://www.w3.org/2000/svg"><path d="m247.258984.33402037c3.019932 0 5.465054 2.42752089 5.465054 5.422542 0 2.99286347-2.445122 5.41606863-5.465054 5.41606863h-121.45265c-13.767145 0-26.0667815 8.5340842-30.7893714 21.3535517-10.1375646 27.5248489-18.1457189 49.266804-24.0222845 65.2215503 3.8669065-2.1016945 8.0691185-3.6294146 12.4803536-4.4925329l18.3786913-49.8968802c4.72259-12.8173098 17.024404-21.3513939 30.789371-21.3513939h106.805871c3.015577 0 5.462876 2.4275207 5.462876 5.4182264 0 2.9928633-2.447299 5.4160685-5.462876 5.4160685h-106.805871c-9.175194 0-17.377127 5.6901088-20.525521 14.2371398l-16.7043393 45.3525621h10.6797163l12.732921-34.5635809c3.165812-8.6031336 11.417826-14.3277671 20.656161-14.3277671h91.769353c3.091783 0 5.600047 2.4900968 5.600047 5.5541675 0 3.0662285-2.508264 5.5520097-5.600047 5.5520097h-91.769353c-4.533163 0-8.582965 2.807293-10.137566 7.0301003l-11.328555 30.7550705h95.481671c3.019931 0 5.465053 2.4275198 5.465053 5.4160684 0 2.9928638-2.445122 5.4182268-5.465053 5.4182268h-121.5288557c-13.7802083 0-26.0907318 8.54703-30.800258 21.388076l-50.3960673 137.289787c-1.02986873 2.813765-4.16519824 4.263805-7.00223594 3.238851-2.8326831-1.024953-4.29801423-4.130022-3.26379087-6.943788l46.90148121-127.782536c.4637675-1.424146.9993863-2.964813 1.6090337-4.624158 7.9428347-21.562857 19.850555-53.8995922 35.7362251-97.0253079 6.2989631-17.0962198 22.6984788-28.47212173 41.0532198-28.47212173zm-50.41641 138.90217563c2.966582 0 5.371581 2.414295 5.371581 5.396538 0 2.97805-2.404999 5.388155-5.371581 5.388155h-87.880584c-4.348622 0-8.231693 2.734944-9.7222917 6.838408l-38.1396927 105.1036c-1.014609 2.799913-4.0981017 4.241784-6.883057 3.219062-2.787043-1.016437-4.2212742-4.111848-3.2066654-6.911761l38.1396936-105.107792c3.035475-8.362012 10.9477542-13.92621 19.8120132-13.92621zm12.506602-25.25494c3.030694 0 5.49245 2.429381 5.49245 5.424538 0 2.990838-2.461756 5.420219-5.49245 5.420219h-107.321611c-9.2299426 0-17.4795599 5.700949-20.6371723 14.263168l-45.3094356 122.855439c-1.039408 2.811604-4.1904553 4.262754-7.0373392 3.237015-2.8512602-1.027898-4.3195607-4.137506-3.2801527-6.94911l45.3094358-122.853278c4.7396995-12.848729 17.1097501-21.397991 30.954664-21.397991z"/></svg>