<svg xmlns="http://www.w3.org/2000/svg" width="405" height="405" viewBox="0 0 405 405">
  <path d="M380.591711,404.275723 L24.3069531,404.275723 C11.1309345,404.275723 0.409804688,393.554594 0.409804688,380.378575 L0.409804688,24.0938164 C0.409804688,10.9177978 11.1309345,0.196667969 24.3069531,0.196667969 L380.591711,0.196667969 C393.767731,0.196667969 404.48886,10.9177978 404.48886,24.0938164 L404.48886,380.378575 C404.48886,393.554594 393.767731,404.275723 380.591711,404.275723 Z M24.3069531,4.54160406 C13.5271667,4.54160406 4.75474077,13.31403 4.75474077,24.0938164 L4.75474077,380.378575 C4.75474077,391.158362 13.5271667,399.930787 24.3069531,399.930787 L380.591711,399.930787 C391.371499,399.930787 400.143924,391.158362 400.143924,380.378575 L400.143924,24.0938164 C400.143924,13.31403 391.371499,4.54160406 380.591711,4.54160406 L24.3069531,4.54160406 Z M323.258984,63.3340204 C326.278916,63.3340204 328.724038,65.7615413 328.724038,68.7565624 C328.724038,71.7494258 326.278916,74.172631 323.258984,74.172631 L201.806334,74.172631 C188.039189,74.172631 175.739553,82.7067152 171.016963,95.5261827 C160.879398,123.051032 152.871244,144.792987 146.994678,160.747733 C150.861585,158.646038 155.063797,157.118318 159.475032,156.2552 L177.853723,106.35832 C182.576313,93.5410101 194.878127,85.006926 208.643094,85.006926 L315.448965,85.006926 C318.464542,85.006926 320.911841,87.4344467 320.911841,90.4251524 C320.911841,93.4180157 318.464542,95.8412209 315.448965,95.8412209 L208.643094,95.8412209 C199.4679,95.8412209 191.265967,101.53133 188.117573,110.078361 L171.413234,155.430923 L182.09295,155.430923 L194.825871,120.867342 C197.991683,112.264208 206.243697,106.539575 215.482032,106.539575 L307.251385,106.539575 C310.343168,106.539575 312.851432,109.029672 312.851432,112.093742 C312.851432,115.159971 310.343168,117.645752 307.251385,117.645752 L215.482032,117.645752 C210.948869,117.645752 206.899067,120.453045 205.344466,124.675852 L194.015911,155.430923 L289.497582,155.430923 C292.517513,155.430923 294.962635,157.858443 294.962635,160.846991 C294.962635,163.839855 292.517513,166.265218 289.497582,166.265218 L167.968726,166.265218 C154.188518,166.265218 141.877994,174.812248 137.168468,187.653294 L86.772401,324.943081 C85.7425323,327.756846 82.6072028,329.206886 79.7701651,328.181932 C76.937482,327.156979 75.4721508,324.05191 76.5063742,321.238144 L123.407855,193.455608 C123.871623,192.031462 124.407242,190.490795 125.016889,188.83145 C132.959724,167.268593 144.867444,134.931858 160.753114,91.8061421 C167.052077,74.7099223 183.451593,63.3340204 201.806334,63.3340204 L323.258984,63.3340204 Z M272.842574,202.236196 C275.809156,202.236196 278.214155,204.650491 278.214155,207.632734 C278.214155,210.610784 275.809156,213.020889 272.842574,213.020889 L184.96199,213.020889 C180.613368,213.020889 176.730297,215.755833 175.239698,219.859297 L137.100006,324.962897 C136.085397,327.76281 133.001904,329.204681 130.216949,328.181959 C127.429906,327.165522 125.995674,324.070111 127.010283,321.270198 L165.149977,216.162406 C168.185452,207.800394 176.097731,202.236196 184.96199,202.236196 L272.842574,202.236196 Z M285.349176,176.981256 C288.37987,176.981256 290.841626,179.410637 290.841626,182.405794 C290.841626,185.396632 288.37987,187.826013 285.349176,187.826013 L178.027565,187.826013 C168.797622,187.826013 160.548005,193.526962 157.390393,202.089181 L112.080957,324.94462 C111.041549,327.756224 107.890502,329.207374 105.043618,328.181635 C102.192358,327.153737 100.724057,324.044129 101.763465,321.232525 L147.072901,198.379247 C151.8126,185.530518 164.182651,176.981256 178.027565,176.981256 L285.349176,176.981256 Z"/>
</svg>
