<svg height="86" viewBox="0 0 341 86" width="341" xmlns="http://www.w3.org/2000/svg"><path d="m154.8.5h4.2v17.3h-4.2zm19 17.3-7-11.3h-.1l.1 11.3h-4v-17.3h4.7l7 11.3h.1l-.1-11.3h4v17.3zm12.9-13.8v3.6h6.7v3.5h-6.7v6.7h-4.2v-17.3h11.4v3.5zm16.4 10c.6.3 1.2.5 2 .4.7 0 1.4-.1 2-.4s1.2-.6 1.6-1.1.8-1 1-1.7c.3-.7.4-1.4.4-2.2 0-.7-.2-1.4-.4-2.1s-.6-1.2-1-1.7c-.5-.5-1-.8-1.6-1.1s-1.3-.4-2-.4-1.4.1-2 .4-1.2.6-1.6 1.1-.8 1-1 1.7c-.3.6-.4 1.3-.4 2.1s.2 1.5.4 2.2.6 1.2 1 1.7c.5.5 1 .8 1.6 1.1zm-1.8-13.4c1.2-.4 2.4-.6 3.8-.6s2.6.2 3.8.6 2.2 1 3 1.8c.9.8 1.5 1.8 2 2.9.5 1.2.7 2.4.7 3.8s-.2 2.7-.7 3.8-1.2 2.1-2 2.9-1.8 1.5-3 1.9c-1.2.5-2.4.7-3.8.7s-2.6-.3-3.8-.7c-1.2-.5-2.2-1.1-3-1.9-.9-.8-1.5-1.8-2-2.9-.5-1.2-.7-2.4-.7-3.8s.2-2.7.7-3.8c.5-1.2 1.2-2.1 2-2.9.9-.8 1.9-1.4 3-1.8zm21 0c1.1-.4 2.3-.6 3.7-.6 1.2 0 2.4.2 3.5.8 1.2.4 2.2 1.1 2.9 1.9l-2.8 2.8c-.3-.5-.9-.9-1.5-1.2-.7-.3-1.3-.4-2-.4s-1.4.1-2 .4-1.2.6-1.6 1.1-.8 1.1-1 1.7c-.3.6-.4 1.3-.4 2.1 0 .7.2 1.5.4 2.1.2.7.6 1.2 1 1.7.5.5 1 .8 1.6 1.1s1.3.4 2 .4c.8 0 1.6-.2 2.2-.5.6-.4 1.1-.8 1.5-1.3l2.9 2.7c-.7.9-1.7 1.6-2.8 2.1s-2.4.8-3.9.8c-1.3 0-2.6-.3-3.7-.7-1.2-.5-2.2-1.1-3-1.9-.9-.8-1.5-1.8-2-2.9s-.7-2.3-.7-3.7.2-2.7.7-3.8 1.1-2.1 2-2.9 1.9-1.4 3-1.8zm18.5 13.4c.6.3 1.3.5 2.1.4.7 0 1.4-.1 2-.4s1.2-.6 1.6-1.1.8-1 1-1.7c.3-.7.4-1.4.4-2.2 0-.7-.2-1.4-.4-2.1s-.6-1.2-1-1.7c-.5-.5-1-.8-1.6-1.1s-1.3-.4-2-.4-1.4.1-2 .4-1.2.6-1.6 1.1-.8 1-1 1.7c-.3.6-.4 1.3-.4 2.1s.2 1.5.4 2.2.6 1.2 1 1.7.9.8 1.5 1.1zm-1.7-13.4c1.1-.4 2.4-.6 3.8-.6s2.6.2 3.8.6 2.2 1 3 1.8c.9.8 1.5 1.8 2 2.9.5 1.2.7 2.4.7 3.8s-.2 2.7-.7 3.8-1.2 2.1-2 2.9-1.8 1.5-3 1.9c-1.2.5-2.4.7-3.8.7s-2.6-.3-3.8-.7c-1.2-.5-2.2-1.1-3-1.9-.9-.8-1.5-1.8-2-2.9-.5-1.2-.7-2.4-.7-3.8s.2-2.7.7-3.8c.5-1.2 1.2-2.1 2-2.9.9-.8 1.9-1.4 3-1.8zm29.3-.1h6v17.3h-4.1l.1-12.3h-.1l-4.5 12.3h-2.9l-4.4-12.3h-.1l.1 12.3h-3.9v-17.3h5.9l4 11.1h.1zm23.6 0h6v17.3h-4.1l.1-12.3h-.1l-4.5 12.3h-2.9l-4.4-12.3h-.1l.1 12.3h-3.9v-17.3h6l3.9 11.1h.1zm-123.4 22.4h6.1v17.3h-4.2l.1-12.2-4.5 12.2h-3l-4.4-12.2.1 12.2h-4v-17.3h6l3.9 11.1h.1zm9.2 0h11.6v3.5h-7.6v3.3h7.2v3.4h-7.2v3.6h8.1v3.5h-12.1zm18.7 3.6v10h2c.8 0 1.5-.1 2.2-.3.7-.1 1.3-.4 1.8-.8.6-.4 1-.9 1.3-1.6.3-.6.5-1.4.5-2.4 0-.9-.2-1.8-.5-2.4s-.8-1.1-1.3-1.5-1.1-.6-1.8-.8c-.7-.1-1.4-.2-2.1-.2zm-4.1-3.6h6.1c1.2 0 2.4.1 3.6.4s2.3.7 3.2 1.4c1 .7 1.7 1.6 2.3 2.7s.9 2.5.9 4.1c0 1.5-.2 2.8-.8 3.9-.5 1.1-1.3 2-2.2 2.7s-1.9 1.3-3.1 1.6c-1.1.3-2.3.5-3.5.5h-6.5zm18.5 0h4.2v17.3h-4.2zm15.3 4.6-2.2 6h4.4zm-1.9-4.6h4.1l7.2 17.3h-4.7l-1.3-3.4h-6.7l-1.3 3.4h-4.6zm-65.4 26v10h2c.8 0 1.5-.1 2.2-.3.7-.1 1.3-.4 1.8-.8.6-.4 1-.9 1.3-1.6.4-.6.5-1.4.5-2.4 0-.9-.2-1.8-.5-2.4s-.8-1.1-1.3-1.5-1.1-.6-1.8-.8c-.7-.1-1.4-.2-2.1-.2zm-4.1-3.5h6.1c1.2 0 2.4.1 3.6.4s2.3.7 3.2 1.4c1 .7 1.7 1.6 2.3 2.7s.9 2.5.9 4.1c0 1.5-.2 2.8-.8 3.9-.5 1.1-1.3 2-2.2 2.7s-1.9 1.3-3.1 1.6c-1.1.3-2.3.5-3.5.5h-6.5zm18.6 0h11.7v3.5h-7.6v3.3h7.2v3.3h-7.2v3.6h8v3.6h-12.1zm26.5 0h4.6l-6.7 17.3h-4.1l-6.6-17.3h4.7l4 12.3h.1zm6.7 0h11.7v3.5h-7.6v3.3h7.2v3.3h-7.2v3.6h8v3.6h-12.1zm14.9 0h4.2v13.6h6.7v3.7h-10.9zm19.7 13.5c.6.3 1.2.4 2 .4.7 0 1.4-.1 2-.4s1.2-.6 1.6-1.1.8-1 1-1.7c.3-.7.4-1.4.4-2.2 0-.7-.2-1.4-.4-2.1s-.6-1.2-1-1.7c-.5-.5-1-.8-1.6-1.1s-1.3-.4-2-.4-1.4.1-2 .4-1.2.6-1.6 1.1-.8 1.1-1 1.7c-.3.6-.4 1.3-.4 2.1s.2 1.5.4 2.2.6 1.2 1 1.7c.5.5 1 .8 1.6 1.1zm-1.8-13.4c1.2-.4 2.4-.6 3.8-.6s2.6.2 3.8.6 2.2 1 3 1.8c.9.8 1.5 1.8 2 2.9.5 1.2.7 2.4.7 3.8s-.2 2.7-.7 3.8-1.2 2.1-2 2.9-1.8 1.5-3 1.9c-1.2.5-2.4.7-3.8.7s-2.7-.3-3.8-.7c-1.2-.5-2.2-1.1-3-1.9-.9-.8-1.5-1.8-2-2.9-.5-1.2-.7-2.4-.7-3.8s.2-2.7.7-3.8c.5-1.2 1.2-2.1 2-2.9.9-.8 1.8-1.4 3-1.8zm19.8 3.2h-.1v4.1h1.8c.4 0 .7 0 1.1-.1.4 0 .7-.1 1-.3s.5-.4.7-.7c.1-.3.2-.6.2-1s0-.7-.2-1-.4-.5-.7-.6c-.2-.2-.6-.3-.9-.3-.4-.1-.7-.1-1.1-.1zm-4.2-3.3h6.4c1 0 1.9.1 2.7.3.9.2 1.6.5 2.2.9s1.1.9 1.4 1.6.5 1.5.5 2.5c0 1.1-.2 1.9-.6 2.6s-.9 1.3-1.5 1.7-1.4.7-2.2.9-1.7.3-2.6.3h-2.1v6.5h-4.2zm28.8 0h6.1v17.3h-4.2l.1-12.3-4.5 12.3h-3l-4.4-12.3.1 12.3h-4v-17.3h6l3.9 11.1h.1zm9.7 0h11.7v3.5h-7.6v3.3h7.2v3.3h-7.2v3.6h8v3.6h-12.1zm26.6 0h4v17.3h-4.7l-7-11.3h-.1l.1 11.3h-4v-17.3h4.7l7 11.3h.1zm6.1 0h14v3.5h-4.9v13.8h-4.2v-13.8h-4.9zm-162.1 27-2.2 6h4.4zm-2-4.6h4l7.2 17.3h-4.7l-1.3-3.4h-6.7l-1.3 3.4h-4.5zm22.6 0h4.2v10.8c0 1.1-.2 2-.5 2.9s-.8 1.6-1.5 2.2-1.5 1.1-2.4 1.4c-1 .3-2 .5-3.1.5-1.2 0-2.2-.2-3.1-.5s-1.7-.8-2.3-1.4c-.7-.6-1.2-1.3-1.5-2.2s-.5-1.9-.5-2.9v-10.8h4.1v10.5c0 .4.1.9.2 1.3.2.4.3.8.6 1.1.2.3.6.6 1 .8s.9.3 1.5.3 1.1-.1 1.5-.3.7-.5 1-.8.5-.7.6-1.1.2-.8.2-1.3zm6.2 0h14v3.6h-4.9v13.7h-4.2v-13.7h-4.9zm26.8 0h4.2v17.3h-4.2v-7.2h-6.8v7.2h-4.1v-17.3h4.1v6.6h6.8zm13.6 13.6c.6.3 1.3.4 2 .4s1.4-.1 2-.4 1.2-.6 1.6-1.1.8-1 1-1.7c.3-.7.4-1.4.4-2.2 0-.7-.2-1.4-.4-2.1s-.6-1.2-1-1.7c-.5-.5-1-.8-1.6-1.1s-1.3-.4-2-.4-1.4.1-2 .4-1.2.6-1.6 1.1-.8 1-1 1.7c-.3.6-.4 1.4-.4 2.1 0 .8.2 1.5.4 2.2s.6 1.2 1 1.7c.5.5 1 .8 1.6 1.1zm-1.7-13.4c1.1-.4 2.4-.7 3.8-.6 1.4 0 2.6.2 3.8.6s2.2 1 3 1.8c.9.8 1.5 1.8 2 2.9.5 1.2.7 2.4.7 3.8s-.2 2.7-.7 3.8-1.2 2.1-2 2.9-1.8 1.5-3 1.9c-1.2.5-2.4.7-3.8.7s-2.7-.3-3.8-.7c-1.2-.5-2.2-1.1-3-1.9-.9-.8-1.5-1.8-2-2.9-.5-1.2-.7-2.4-.7-3.8s.2-2.7.7-3.8c.5-1.2 1.2-2.1 2-2.9.9-.8 1.8-1.4 3-1.8zm19.5 3.2v4.1h2c.4 0 .7 0 1.1-.1s.7-.2 1-.3.5-.3.7-.6.3-.7.3-1.1-.1-.8-.3-1c-.2-.3-.4-.5-.7-.6-.3-.2-.6-.2-.9-.3-.4-.1-.7-.1-1-.1zm-4-3.4v-.1h6.7c.8 0 1.6.1 2.4.3s1.5.5 2.1.9 1.1.9 1.5 1.6.6 1.5.6 2.5c0 1.2-.4 2.2-1 3s-1.5 1.4-2.6 1.7l4.5 7.4h-4.9l-3.8-6.9h-1.4v6.9h-4.1zm16.2 0h4.2v17.3h-4.2zm6.1 0h14v3.6h-4.9v13.7h-4.2v-13.7h-4.9zm27.8 0h4.9l-6.7 10v7.3h-4.2v-7.3l-6.5-10h5.1l3.7 6.4zm-255.3-57.2 18.7-10.1v84.6l-18.7-9.8zm-39.9 74.5v-84.6l18.7 10.1v64.7zm79.8 0v-54.3l21.7 54.3zm32 0 21.7-54.3v54.3zm-24-84.6h37.8l-18.9 42.3z"/></svg>