<svg xmlns="http://www.w3.org/2000/svg" xmlns:xlink="http://www.w3.org/1999/xlink" width="341" height="86" viewBox="0 0 341 86">
  <path id="imda-a" d="M154.8,0.5 L159,0.5 L159,17.8 L154.8,17.8 L154.8,0.5 Z M173.8,17.8 L166.8,6.5 L166.7,6.5 L166.8,17.8 L162.8,17.8 L162.8,0.5 L167.5,0.5 L174.5,11.8 L174.6,11.8 L174.5,0.5 L178.5,0.5 L178.5,17.8 L173.8,17.8 Z M186.7,4 L186.7,7.6 L193.4,7.6 L193.4,11.1 L186.7,11.1 L186.7,17.8 L182.5,17.8 L182.5,0.5 L193.9,0.5 L193.9,4 L186.7,4 Z M203.1,14 C203.7,14.3 204.3,14.5 205.1,14.4 C205.8,14.4 206.5,14.3 207.1,14 C207.7,13.7 208.3,13.4 208.7,12.9 C209.1,12.4 209.5,11.9 209.7,11.2 C210,10.5 210.1,9.8 210.1,9 C210.1,8.3 209.9,7.6 209.7,6.9 C209.5,6.2 209.1,5.7 208.7,5.2 C208.2,4.7 207.7,4.4 207.1,4.1 C206.5,3.8 205.8,3.7 205.1,3.7 C204.4,3.7 203.7,3.8 203.1,4.1 C202.5,4.4 201.9,4.7 201.5,5.2 C201.1,5.7 200.7,6.2 200.5,6.9 C200.2,7.5 200.1,8.2 200.1,9 C200.1,9.8 200.3,10.5 200.5,11.2 C200.7,11.9 201.1,12.4 201.5,12.9 C202,13.4 202.5,13.7 203.1,14 Z M201.3,0.6 C202.5,0.2 203.7,4.61852778e-14 205.1,4.61852778e-14 C206.5,4.61852778e-14 207.7,0.2 208.9,0.6 C210.1,1 211.1,1.6 211.9,2.4 C212.8,3.2 213.4,4.2 213.9,5.3 C214.4,6.5 214.6,7.7 214.6,9.1 C214.6,10.5 214.4,11.8 213.9,12.9 C213.4,14 212.7,15 211.9,15.8 C211.1,16.6 210.1,17.3 208.9,17.7 C207.7,18.2 206.5,18.4 205.1,18.4 C203.7,18.4 202.5,18.1 201.3,17.7 C200.1,17.2 199.1,16.6 198.3,15.8 C197.4,15 196.8,14 196.3,12.9 C195.8,11.7 195.6,10.5 195.6,9.1 C195.6,7.7 195.8,6.4 196.3,5.3 C196.8,4.1 197.5,3.2 198.3,2.4 C199.2,1.6 200.2,1 201.3,0.6 Z M222.3,0.6 C223.4,0.2 224.6,9.05941988e-14 226,9.05941988e-14 C227.2,9.05941988e-14 228.4,0.2 229.5,0.8 C230.7,1.2 231.7,1.9 232.4,2.7 L229.6,5.5 C229.3,5 228.7,4.6 228.1,4.3 C227.4,4 226.8,3.9 226.1,3.9 C225.4,3.9 224.7,4 224.1,4.3 C223.5,4.6 222.9,4.9 222.5,5.4 C222.1,5.9 221.7,6.5 221.5,7.1 C221.2,7.7 221.1,8.4 221.1,9.2 C221.1,9.9 221.3,10.7 221.5,11.3 C221.7,12 222.1,12.5 222.5,13 C223,13.5 223.5,13.8 224.1,14.1 C224.7,14.4 225.4,14.5 226.1,14.5 C226.9,14.5 227.7,14.3 228.3,14 C228.9,13.6 229.4,13.2 229.8,12.7 L232.7,15.4 C232,16.3 231,17 229.9,17.5 C228.8,18 227.5,18.3 226,18.3 C224.7,18.3 223.4,18 222.3,17.6 C221.1,17.1 220.1,16.5 219.3,15.7 C218.4,14.9 217.8,13.9 217.3,12.8 C216.8,11.7 216.6,10.5 216.6,9.1 C216.6,7.7 216.8,6.4 217.3,5.3 C217.8,4.2 218.4,3.2 219.3,2.4 C220.2,1.6 221.2,1 222.3,0.6 Z M240.8,14 C241.4,14.3 242.1,14.5 242.9,14.4 C243.6,14.4 244.3,14.3 244.9,14 C245.5,13.7 246.1,13.4 246.5,12.9 C246.9,12.4 247.3,11.9 247.5,11.2 C247.8,10.5 247.9,9.8 247.9,9 C247.9,8.3 247.7,7.6 247.5,6.9 C247.3,6.2 246.9,5.7 246.5,5.2 C246,4.7 245.5,4.4 244.9,4.1 C244.3,3.8 243.6,3.7 242.9,3.7 C242.2,3.7 241.5,3.8 240.9,4.1 C240.3,4.4 239.7,4.7 239.3,5.2 C238.9,5.7 238.5,6.2 238.3,6.9 C238,7.5 237.9,8.2 237.9,9 C237.9,9.8 238.1,10.5 238.3,11.2 C238.5,11.9 238.9,12.4 239.3,12.9 C239.7,13.4 240.2,13.7 240.8,14 Z M239.1,0.6 C240.2,0.2 241.5,4.61852778e-14 242.9,4.61852778e-14 C244.3,4.61852778e-14 245.5,0.2 246.7,0.6 C247.9,1 248.9,1.6 249.7,2.4 C250.6,3.2 251.2,4.2 251.7,5.3 C252.2,6.5 252.4,7.7 252.4,9.1 C252.4,10.5 252.2,11.8 251.7,12.9 C251.2,14 250.5,15 249.7,15.8 C248.9,16.6 247.9,17.3 246.7,17.7 C245.5,18.2 244.3,18.4 242.9,18.4 C241.5,18.4 240.3,18.1 239.1,17.7 C237.9,17.2 236.9,16.6 236.1,15.8 C235.2,15 234.6,14 234.1,12.9 C233.6,11.7 233.4,10.5 233.4,9.1 C233.4,7.7 233.6,6.4 234.1,5.3 C234.6,4.1 235.3,3.2 236.1,2.4 C237,1.6 238,1 239.1,0.6 Z M268.4,0.5 L274.4,0.5 L274.4,17.8 L270.3,17.8 L270.4,5.5 L270.3,5.5 L265.8,17.8 L262.9,17.8 L258.5,5.5 L258.4,5.5 L258.5,17.8 L254.6,17.8 L254.6,0.5 L260.5,0.5 L264.5,11.6 L264.6,11.6 L268.4,0.5 Z M292,0.5 L298,0.5 L298,17.8 L293.9,17.8 L294,5.5 L293.9,5.5 L289.4,17.8 L286.5,17.8 L282.1,5.5 L282,5.5 L282.1,17.8 L278.2,17.8 L278.2,0.5 L284.2,0.5 L288.1,11.6 L288.2,11.6 L292,0.5 Z M168.6,22.9 L174.7,22.9 L174.7,40.2 L170.5,40.2 L170.6,28 L166.1,40.2 L163.1,40.2 L158.7,28 L158.8,40.2 L154.8,40.2 L154.8,22.9 L160.8,22.9 L164.7,34 L164.8,34 L168.6,22.9 Z M177.8,22.9 L189.4,22.9 L189.4,26.4 L181.8,26.4 L181.8,29.7 L189,29.7 L189,33.1 L181.8,33.1 L181.8,36.7 L189.9,36.7 L189.9,40.2 L177.8,40.2 L177.8,22.9 Z M196.5,26.5 L196.5,36.5 L198.5,36.5 C199.3,36.5 200,36.4 200.7,36.2 C201.4,36.1 202,35.8 202.5,35.4 C203.1,35 203.5,34.5 203.8,33.8 C204.1,33.2 204.3,32.4 204.3,31.4 C204.3,30.5 204.1,29.6 203.8,29 C203.5,28.4 203,27.9 202.5,27.5 C202,27.1 201.4,26.9 200.7,26.7 C200,26.6 199.3,26.5 198.6,26.5 L196.5,26.5 Z M192.4,22.9 L198.5,22.9 C199.7,22.9 200.9,23 202.1,23.3 C203.3,23.6 204.4,24 205.3,24.7 C206.3,25.4 207,26.3 207.6,27.4 C208.2,28.5 208.5,29.9 208.5,31.5 C208.5,33 208.3,34.3 207.7,35.4 C207.2,36.5 206.4,37.4 205.5,38.1 C204.6,38.8 203.6,39.4 202.4,39.7 C201.3,40 200.1,40.2 198.9,40.2 L192.4,40.2 L192.4,22.9 Z M210.9,22.9 L215.1,22.9 L215.1,40.2 L210.9,40.2 L210.9,22.9 Z M226.2,27.5 L224,33.5 L228.4,33.5 L226.2,27.5 Z M224.3,22.9 L228.4,22.9 L235.6,40.2 L230.9,40.2 L229.6,36.8 L222.9,36.8 L221.6,40.2 L217,40.2 L224.3,22.9 Z M158.9,48.9 L158.9,58.9 L160.9,58.9 C161.7,58.9 162.4,58.8 163.1,58.6 C163.8,58.5 164.4,58.2 164.9,57.8 C165.5,57.4 165.9,56.9 166.2,56.2 C166.6,55.6 166.7,54.8 166.7,53.8 C166.7,52.9 166.5,52 166.2,51.4 C165.9,50.8 165.4,50.3 164.9,49.9 C164.4,49.5 163.8,49.3 163.1,49.1 C162.4,49 161.7,48.9 161,48.9 L158.9,48.9 Z M154.8,45.4 L160.9,45.4 C162.1,45.4 163.3,45.5 164.5,45.8 C165.7,46.1 166.8,46.5 167.7,47.2 C168.7,47.9 169.4,48.8 170,49.9 C170.6,51 170.9,52.4 170.9,54 C170.9,55.5 170.7,56.8 170.1,57.9 C169.6,59 168.8,59.9 167.9,60.6 C167,61.3 166,61.9 164.8,62.2 C163.7,62.5 162.5,62.7 161.3,62.7 L154.8,62.7 L154.8,45.4 Z M173.4,45.4 L185.1,45.4 L185.1,48.9 L177.5,48.9 L177.5,52.2 L184.7,52.2 L184.7,55.5 L177.5,55.5 L177.5,59.1 L185.5,59.1 L185.5,62.7 L173.4,62.7 L173.4,45.4 Z M199.9,45.4 L204.5,45.4 L197.8,62.7 L193.7,62.7 L187.1,45.4 L191.8,45.4 L195.8,57.7 L195.9,57.7 L199.9,45.4 Z M206.6,45.4 L218.3,45.4 L218.3,48.9 L210.7,48.9 L210.7,52.2 L217.9,52.2 L217.9,55.5 L210.7,55.5 L210.7,59.1 L218.7,59.1 L218.7,62.7 L206.6,62.7 L206.6,45.4 Z M221.5,45.4 L225.7,45.4 L225.7,59 L232.4,59 L232.4,62.7 L221.5,62.7 L221.5,45.4 Z M241.2,58.9 C241.8,59.2 242.4,59.3 243.2,59.3 C243.9,59.3 244.6,59.2 245.2,58.9 C245.8,58.6 246.4,58.3 246.8,57.8 C247.2,57.3 247.6,56.8 247.8,56.1 C248.1,55.4 248.2,54.7 248.2,53.9 C248.2,53.2 248,52.5 247.8,51.8 C247.6,51.1 247.2,50.6 246.8,50.1 C246.3,49.6 245.8,49.3 245.2,49 C244.6,48.7 243.9,48.6 243.2,48.6 C242.5,48.6 241.8,48.7 241.2,49 C240.6,49.3 240,49.6 239.6,50.1 C239.2,50.6 238.8,51.2 238.6,51.8 C238.3,52.4 238.2,53.1 238.2,53.9 C238.2,54.7 238.4,55.4 238.6,56.1 C238.8,56.8 239.2,57.3 239.6,57.8 C240.1,58.3 240.6,58.6 241.2,58.9 Z M239.4,45.5 C240.6,45.1 241.8,44.9 243.2,44.9 C244.6,44.9 245.8,45.1 247,45.5 C248.2,45.9 249.2,46.5 250,47.3 C250.9,48.1 251.5,49.1 252,50.2 C252.5,51.4 252.7,52.6 252.7,54 C252.7,55.4 252.5,56.7 252,57.8 C251.5,58.9 250.8,59.9 250,60.7 C249.2,61.5 248.2,62.2 247,62.6 C245.8,63.1 244.6,63.3 243.2,63.3 C241.8,63.3 240.5,63 239.4,62.6 C238.2,62.1 237.2,61.5 236.4,60.7 C235.5,59.9 234.9,58.9 234.4,57.8 C233.9,56.6 233.7,55.4 233.7,54 C233.7,52.6 233.9,51.3 234.4,50.2 C234.9,49 235.6,48.1 236.4,47.3 C237.3,46.5 238.2,45.9 239.4,45.5 Z M259.2,48.7 L259.1,48.7 L259.1,52.8 L260.9,52.8 C261.3,52.8 261.6,52.8 262,52.7 C262.4,52.7 262.7,52.6 263,52.4 C263.3,52.2 263.5,52 263.7,51.7 C263.8,51.4 263.9,51.1 263.9,50.7 C263.9,50.3 263.9,50 263.7,49.7 C263.5,49.4 263.3,49.2 263,49.1 C262.8,48.9 262.4,48.8 262.1,48.8 C261.7,48.7 261.4,48.7 261,48.7 L259.2,48.7 Z M255,45.4 L261.4,45.4 C262.4,45.4 263.3,45.5 264.1,45.7 C265,45.9 265.7,46.2 266.3,46.6 C266.9,47 267.4,47.5 267.7,48.2 C268,48.9 268.2,49.7 268.2,50.7 C268.2,51.8 268,52.6 267.6,53.3 C267.2,54 266.7,54.6 266.1,55 C265.5,55.4 264.7,55.7 263.9,55.9 C263.1,56.1 262.2,56.2 261.3,56.2 L259.2,56.2 L259.2,62.7 L255,62.7 L255,45.4 Z M283.8,45.4 L289.9,45.4 L289.9,62.7 L285.7,62.7 L285.8,50.4 L281.3,62.7 L278.3,62.7 L273.9,50.4 L274,62.7 L270,62.7 L270,45.4 L276,45.4 L279.9,56.5 L280,56.5 L283.8,45.4 Z M293.5,45.4 L305.2,45.4 L305.2,48.9 L297.6,48.9 L297.6,52.2 L304.8,52.2 L304.8,55.5 L297.6,55.5 L297.6,59.1 L305.6,59.1 L305.6,62.7 L293.5,62.7 L293.5,45.4 Z M320.1,45.4 L324.1,45.4 L324.1,62.7 L319.4,62.7 L312.4,51.4 L312.3,51.4 L312.4,62.7 L308.4,62.7 L308.4,45.4 L313.1,45.4 L320.1,56.7 L320.2,56.7 L320.1,45.4 Z M326.2,45.4 L340.2,45.4 L340.2,48.9 L335.3,48.9 L335.3,62.7 L331.1,62.7 L331.1,48.9 L326.2,48.9 L326.2,45.4 Z M164.1,72.4 L161.9,78.4 L166.3,78.4 L164.1,72.4 Z M162.1,67.8 L166.1,67.8 L173.3,85.1 L168.6,85.1 L167.3,81.7 L160.6,81.7 L159.3,85.1 L154.8,85.1 L162.1,67.8 Z M184.7,67.8 L188.9,67.8 L188.9,78.6 C188.9,79.7 188.7,80.6 188.4,81.5 C188.1,82.4 187.6,83.1 186.9,83.7 C186.2,84.3 185.4,84.8 184.5,85.1 C183.5,85.4 182.5,85.6 181.4,85.6 C180.2,85.6 179.2,85.4 178.3,85.1 C177.4,84.8 176.6,84.3 176,83.7 C175.3,83.1 174.8,82.4 174.5,81.5 C174.2,80.6 174,79.6 174,78.6 L174,67.8 L178.1,67.8 L178.1,78.3 C178.1,78.7 178.2,79.2 178.3,79.6 C178.5,80 178.6,80.4 178.9,80.7 C179.1,81 179.5,81.3 179.9,81.5 C180.3,81.7 180.8,81.8 181.4,81.8 C182,81.8 182.5,81.7 182.9,81.5 C183.3,81.3 183.6,81 183.9,80.7 C184.2,80.4 184.4,80 184.5,79.6 C184.6,79.2 184.7,78.8 184.7,78.3 L184.7,67.8 Z M190.9,67.8 L204.9,67.8 L204.9,71.4 L200,71.4 L200,85.1 L195.8,85.1 L195.8,71.4 L190.9,71.4 L190.9,67.8 Z M217.7,67.8 L221.9,67.8 L221.9,85.1 L217.7,85.1 L217.7,77.9 L210.9,77.9 L210.9,85.1 L206.8,85.1 L206.8,67.8 L210.9,67.8 L210.9,74.4 L217.7,74.4 L217.7,67.8 Z M231.3,81.4 C231.9,81.7 232.6,81.8 233.3,81.8 C234,81.8 234.7,81.7 235.3,81.4 C235.9,81.1 236.5,80.8 236.9,80.3 C237.3,79.8 237.7,79.3 237.9,78.6 C238.2,77.9 238.3,77.2 238.3,76.4 C238.3,75.7 238.1,75 237.9,74.3 C237.7,73.6 237.3,73.1 236.9,72.6 C236.4,72.1 235.9,71.8 235.3,71.5 C234.7,71.2 234,71.1 233.3,71.1 C232.6,71.1 231.9,71.2 231.3,71.5 C230.7,71.8 230.1,72.1 229.7,72.6 C229.3,73.1 228.9,73.6 228.7,74.3 C228.4,74.9 228.3,75.7 228.3,76.4 C228.3,77.2 228.5,77.9 228.7,78.6 C228.9,79.3 229.3,79.8 229.7,80.3 C230.2,80.8 230.7,81.1 231.3,81.4 Z M229.6,68 C230.7,67.6 232,67.3 233.4,67.4 C234.8,67.4 236,67.6 237.2,68 C238.4,68.4 239.4,69 240.2,69.8 C241.1,70.6 241.7,71.6 242.2,72.7 C242.7,73.9 242.9,75.1 242.9,76.5 C242.9,77.9 242.7,79.2 242.2,80.3 C241.7,81.4 241,82.4 240.2,83.2 C239.4,84 238.4,84.7 237.2,85.1 C236,85.6 234.8,85.8 233.4,85.8 C232,85.8 230.7,85.5 229.6,85.1 C228.4,84.6 227.4,84 226.6,83.2 C225.7,82.4 225.1,81.4 224.6,80.3 C224.1,79.1 223.9,77.9 223.9,76.5 C223.9,75.1 224.1,73.8 224.6,72.7 C225.1,71.5 225.8,70.6 226.6,69.8 C227.5,69 228.4,68.4 229.6,68 Z M249.1,71.2 L249.1,75.3 L251.1,75.3 C251.5,75.3 251.8,75.3 252.2,75.2 C252.6,75.1 252.9,75 253.2,74.9 C253.5,74.8 253.7,74.6 253.9,74.3 C254.1,74 254.2,73.6 254.2,73.2 C254.2,72.8 254.1,72.4 253.9,72.2 C253.7,71.9 253.5,71.7 253.2,71.6 C252.9,71.4 252.6,71.4 252.3,71.3 C251.9,71.2 251.6,71.2 251.3,71.2 L249.1,71.2 Z M245.1,67.8 L245.1,67.7 L251.8,67.7 C252.6,67.7 253.4,67.8 254.2,68 C255,68.2 255.7,68.5 256.3,68.9 C256.9,69.3 257.4,69.8 257.8,70.5 C258.2,71.2 258.4,72 258.4,73 C258.4,74.2 258,75.2 257.4,76 C256.8,76.8 255.9,77.4 254.8,77.7 L259.3,85.1 L254.4,85.1 L250.6,78.2 L249.2,78.2 L249.2,85.1 L245.1,85.1 L245.1,67.8 Z M261.3,67.8 L265.5,67.8 L265.5,85.1 L261.3,85.1 L261.3,67.8 Z M267.4,67.8 L281.4,67.8 L281.4,71.4 L276.5,71.4 L276.5,85.1 L272.3,85.1 L272.3,71.4 L267.4,71.4 L267.4,67.8 Z M295.2,67.8 L300.1,67.8 L293.4,77.8 L293.4,85.1 L289.2,85.1 L289.2,77.8 L282.7,67.8 L287.8,67.8 L291.5,74.2 L295.2,67.8 Z M39.9,10.6 L58.6,0.5 L58.6,85.1 L39.9,75.3 L39.9,10.6 Z M-5.32907052e-15,85.1 L-5.32907052e-15,0.5 L18.7,10.6 L18.7,75.3 L-5.32907052e-15,85.1 Z M79.8,85.1 L79.8,30.8 L101.5,85.1 L79.8,85.1 Z M111.8,85.1 L133.5,30.8 L133.5,85.1 L111.8,85.1 Z M87.8,0.5 L125.6,0.5 L106.7,42.8 L87.8,0.5 Z"/>
</svg>
