<svg xmlns="http://www.w3.org/2000/svg" width="201" height="302" viewBox="0 0 201 302">
  <g>
    <path d="M101.152724,2.64381597e-06 C99.2325367,-0.000852146031 97.3111262,0.205589714 95.4445675,0.589098706 C83.5857552,3.19161742 74.7466026,15.334161 76.1458048,27.4156482 C77.1397736,38.6805094 86.6278732,48.5339238 97.905596,49.8084711 C106.140245,50.8540579 114.971757,47.5796833 120.071582,40.9398261 C126.134791,34.2236487 127.618573,24.0124825 124.193203,15.7088451 C121.501842,9.67954947 116.760419,4.29802217 110.483124,1.87103989 C107.549005,0.578366254 104.353028,0.00141853248 101.152724,2.64381597e-06 Z M100.48012,6.36319908 C105.359039,6.22995135 110.278596,8.17961948 113.770867,11.5720523 C121.439719,18.1050611 121.485839,31.3158492 114.206929,38.1541389 C109.955801,42.1609492 103.862482,44.4507933 98.0286494,43.3975746 C92.4853619,42.3443558 87.2323821,38.9330811 84.5945418,33.873052 C81.3373825,27.5918998 81.7810826,19.4323175 86.0627943,13.7388307 C89.1364516,9.976245 93.5631987,7.27546356 98.3954162,6.55042169 C99.0864157,6.44452772 99.7831343,6.38223395 100.48012,6.36319908 Z"/>
    <path d="M70.6764009,65.2213427 C73.3925404,61.6482825 82.0636328,48.724169 85.7520267,46 C89.0138787,48.0989189 87.0073616,47.1409452 89.0138787,48.0989189 C87.5709296,50.2057125 80.4992599,61.4862215 79.1411902,63.6547526 C77.8917969,65.2278405 77.7750955,65.2217208 76.8494475,66.7030436 C76.2938712,68.9796154 75.9697864,71.3024904 75.8000277,73.6407997 C81.108848,73.532759 86.085865,71.449117 90.9625699,69.5584049 C95.9781684,67.0811861 101.202107,65.0669988 106.287152,62.751841 C112.830579,60.0971268 119.435736,56.5549354 126.743078,57.2572 C128.296378,57.4970503 129.572971,57.8357193 130.356662,58.6066205 C131.172738,59.4093783 131.771385,60.739614 131.967286,61.9415204 C132.059882,64.6271034 132.028785,67.5056316 130.871301,70.0368708 C129.798735,72.4677865 128.543307,74.6216086 127.190045,77.0338872 C126.232328,78.1797738 126.105016,78.3143539 125.207533,79.3283698 C121.040728,83.5496742 117.306036,88.23401 112.683969,92 C110.646865,90.7652492 108.470867,89.7774485 106.240854,88.9748605 C108.231661,84.7921422 112.398466,82.3303577 115.361527,78.9116415 C119.019056,74.6517519 123.00067,70.3532757 124.651959,64.8509174 C115.755059,65.5917679 108.061902,70.3918617 99.9674982,73.6562341 C91.749633,77.3604857 83.1459526,81.4505978 73.8709513,80.4319284 C71.9727402,79.2048948 70.3060183,77.6768906 69.0328279,75.817048 C68.9556649,72.8073429 68.9326703,68.2687848 69.935327,66.1854901 C72.2206265,63.1209621 70.6146705,65.6612226 70.6764009,65.2213427 Z"/>
    <path d="M101.345723,88.0005267 C95.6635519,87.9614479 89.9796863,90.0983015 85.7345781,93.9038585 C81.6300034,98.1747235 78.8880013,104.021337 79.0035146,110.022173 C79.0343182,137.562687 79.0196865,165.102962 79.0119856,192.643477 C79.1583025,201.664038 85.3885694,210.252107 94.0828748,212.83934 C101.829971,215.650542 110.824126,213.148981 116.692204,207.557469 C120.442538,203.232542 123.022575,197.640791 122.868557,191.825309 C122.876258,165.837134 122.86808,139.840518 122.875488,113.852343 C123.684082,105.573198 120.55752,96.476124 113.403393,91.8113818 C111.370358,90.5756884 109.198706,89.5868944 106.973149,88.7836937 C105.132636,88.2681779 103.239542,88.0135633 101.345485,88.0005267 L101.345723,88.0005267 Z M100.649031,94.2707049 C106.732542,94.1659567 112.749063,97.9693358 115.174844,103.612013 C117.092366,106.971555 116.669533,110.910806 116.684935,114.610163 C116.677234,140.358922 116.677234,166.099958 116.684935,191.840995 C116.754243,198.0658 112.648952,203.950071 107.0119,206.429181 C100.019491,209.665153 91.1252015,206.437135 87.3902696,199.803015 C86.0272119,197.393413 85.2643386,194.636511 85.3182449,191.863925 C85.3182449,164.570549 85.3113141,137.284177 85.3267158,109.990801 C85.1495954,102.653872 90.9486124,95.9427524 98.0488334,94.5603205 C98.9103706,94.3797935 99.7800167,94.2856645 100.649085,94.2707049 L100.649031,94.2707049 Z"/>
    <path d="M1.0221798 243.85894C3.12671281 242.650109 6.22505308 242.456099 7.43077505 245.008076 8.70957115 246.716856 7.59153798 248.686804 6.45158268 250.089645 5.64776798 250.38066 4.8512607 250.686599 4.05475341 251 2.63711659 250.447818.854109453 250.022488.276824348 248.388327-.468531094 246.851171.466816912 245.269244 1.0221798 243.85894zM20.1050029 261.222373C24.6344252 257.654568 30.6481513 256.280534 36.2563717 257.357902 40.2578714 258.122989 43.9915843 261.027198 45.1621951 265.094651 46.2180401 268.240877 45.9273002 271.6057 45.9808575 274.876838 45.9273002 279.662537 46.1338786 284.456042 45.8278365 289.241741 44.0221885 290.280074 42.0405663 290.194197 40.2349182 289.226127 39.8370636 282.89464 40.4032413 276.524118 39.9212251 270.200438 39.7069957 267.038597 37.7483266 264.017284 34.6726041 263.135091 29.9825098 261.776671 24.6267741 263.322459 21.1302438 266.749738 19.5617783 268.248684 19.8984246 270.582981 19.8831225 272.558155 19.8525183 278.116748 20.0361435 283.683148 19.7760078 289.241741 17.9627087 290.233232 15.9887375 290.287881 14.2060426 289.194899 14.1601363 288.546917 14.0606726 287.266567 14.0071153 286.626392 14.0453705 285.049375 14.0606726 283.480166 14.0759747 281.918763 14.2519489 273.924383 13.7010732 265.890967 14.2519489 257.927814 15.766857 257.943428 17.2741141 258.005884 18.7813711 258.122989 19.2633873 259.130094 19.7071483 260.160619 20.1050029 261.222373zM57.1084181 261.182361C61.5631862 257.474466 67.6894507 256.396228 73.2789961 257.30381 76.8290115 257.986435 80.2180089 260.197209 81.6748177 263.641363 83.3463141 267.90777 82.9322737 272.577546 82.9782782 277.068909 82.9246063 281.00176 83.1469613 284.934612 82.8019277 288.859706 82.3188805 289.138962 81.3451188 289.712987 80.8620717 290 79.5202741 289.782801 77.2660541 289.674202 77.2200496 287.843525 77.0667014 282.436824 77.281389 277.022366 77.1587103 271.615665 77.0897036 268.652452 76.0929374 265.332411 73.3480028 263.835291 69.0619179 261.50816 63.7330646 262.663968 59.7920133 265.185027 58.4962202 266.177936 56.9704047 267.450101 56.9627373 269.241992 56.8247238 275.827772 57.1314204 282.42131 56.8017215 288.999334 54.9845442 290.015514 53.0063512 290.0543 51.1968413 288.991577 50.8671424 278.682386 51.0358256 268.342168 51.1048323 258.02522 53.6197444 257.497737 56.9704047 257.901107 57.1084181 261.182361z"/>
    <path d="M106.54685 257.004113C104.471358 256.96343 102.389114 257.224868 100.402247 257.775217 94.7155187 259.265627 89.7969258 263.820501 88.5306188 269.523598 87.194393 274.451075 88.4150586 280.024431 91.8177731 283.902537 97.8385581 291.096044 109.546071 291.743103 117.221601 286.800418 121.253585 283.659912 124.174155 278.793269 123.987705 273.645273 124.220767 268.132278 121.120545 262.702693 116.381605 259.790312 113.444052 257.979578 110.005997 257.071979 106.54685 257.004113zM106.085581 262.09888C109.390836 262.111959 112.742432 263.370199 115.053637 265.698956 118.805945 269.698729 119.194142 276.344739 115.581671 280.565031 110.423218 286.78521 98.8166987 285.712084 95.1110027 278.488161 93.8369269 275.218385 93.8988283 271.484757 95.2505916 268.260605 96.9752552 264.717081 100.852835 262.732874 104.675062 262.170169 105.142159 262.120742 105.613396 262.097017 106.085581 262.098918L106.085581 262.09888zM144.233769 257.003975C137.800501 257.138939 131.364379 260.70506 129.243924 266.948256 126.989798 272.221348 127.881739 278.554927 131.251388 283.148851 136.767458 290.001581 148.261192 290.833844 155.062036 285.469179 154.800465 288.285056 154.247027 291.413335 152.054447 293.412684 146.507605 297.487693 138.537624 295.702015 133.760108 291.23782 133.313898 291.38281 132.428458 291.665161 131.982248 291.810152 131.06675 293.214275 130.158699 295.061712 131.312688 296.626088 133.612974 299.220663 137.19828 300.379881 140.560236 300.853009 145.21466 301.036155 150.3689 301.509757 154.392476 298.670987 159.35463 295.465924 161.063258 289.200079 160.978632 283.629373 160.932472 275.105432 161.093554 266.581963 160.908931 258.058021 159.831874 257.996972 158.747124 257.837192 157.677761 257.974552 156.246814 258.150068 155.716694 259.676052 154.878129 260.629939 151.952773 258.077336 148.09374 256.923001 144.233784 257.003975L144.233769 257.003975zM143.730099 262.019037C148.192191 261.965619 152.947104 263.644225 155.185844 267.726865 155.101218 271.229541 155.338747 274.754401 155.08487 278.249446 154.146292 281.164527 151.185109 282.79782 148.323215 283.377784 144.51505 284.377458 140.198407 283.424028 137.198034 280.890517 132.54361 276.578944 133.07493 268.101026 138.229416 264.384679 139.845001 263.178964 141.837556 262.660049 143.730099 262.019037z"/>
    <path d="M1.88053814 258.312022C3.32406773 258.08693 4.77566173 257.986026 6.22725573 258.00155 6.53370335 258.288737 7.13853418 258.86311 7.44498181 259.158058 8.46109753 265.095835 7.7272362 271.1578 7.9449753 277.157671 7.81594472 281.116189 8.38851783 285.160087 7.30788682 289.040987 5.81597076 289.506695 3.89664092 290.733059 2.53375544 289.390268 1.51763964 288.769324.888615577 287.737004 1.04183939 286.564972 1.00151733 278.523748 1.06603262 270.474762 1.01764615 262.433538.896679988 260.997605 1.42086671 259.647052 1.88053814 258.312022zM194.534312 259.195195C196.250324 258.19078 198.188498 257.941622 200.134333 258.159635 200.348835 258.626805 200.777838 259.553359 201 260.020528 196.686988 269.208203 192.02158 278.224581 187.861783 287.482331 185.04262 292.769137 182.560532 299.255012 176.585133 301.567503 172.961589 302.423981 167.874839 302.314975 166.028594 298.359603 165.768128 296.381917 167.330925 294.957049 168.932025 294.217364 170.931486 295.642232 173.551468 297.129389 175.872681 295.455364 177.872142 293.874772 180.024817 291.515565 180.101425 288.868269 175.987593 279.314644 171.100023 270.119184 166.67976 260.705711 165.392751 258.354289 168.441736 257.684679 170.127105 258.12849 173.919185 258.362075 174.66228 262.714541 176.179112 265.470844 178.485003 271.396115 181.572292 276.963223 183.947131 282.865136 187.677925 275.063399 190.749892 266.965787 194.534312 259.195195z"/>
  </g>
</svg>
