<svg height="233" viewBox="0 0 155 233" width="155" xmlns="http://www.w3.org/2000/svg"><path d="m87.2815102 70.7538338c.1014038.0593381.2023861.1194423.3029296.1803252 5.5281893 3.5911111 7.9441687 10.5944139 7.3193464 16.9680415-.0057246 20.0067695.0005951 40.0200375-.0053556 60.0268075.1190137 4.476998-1.8746513 8.781759-4.7726364 12.111266-4.5344244 4.304577-11.4844532 6.230381-17.4708455 4.066202-6.7183269-1.991759-11.532624-8.603208-11.6456871-15.547609.0059507-21.201824.017257-42.403465-.0065458-63.6052897-.0892603-4.619691 2.0295596-9.1206553 5.2012764-12.4085434 3.2803109-2.9296748 7.6723888-4.5747129 12.0631576-4.5446284h-.0001845c1.2815268.0087877 2.5624833.1601608 3.8160925.4641058 1.5901857-3.0418452 4.7283009-4.8861793 6.9759079-7.423045 2.8447445-3.2412203 5.9415551-6.5118 7.2258912-10.698377-6.9198111.5636906-12.9033772 4.2159359-19.199025 6.6996975-6.3916729 2.8184524-13.0834243 5.9304941-20.2973142 5.1554196-1.4763864-.9336126-2.7727257-2.0962244-3.7629849-3.511322-.0600157-2.289993-.0779004-5.7432438.7019437-7.3283593 1.7774553-2.3317061.5283783-.3988992.5763909-.7335905 2.1125529-2.7186327 8.8567359-12.5521973 11.7254867-14.6249346 2.536996 1.5970035.9763716.8681105 2.536996 1.5970035-1.1222937 1.6029951-6.6224813 10.1859911-7.6787577 11.8359604-.9717504 1.1969148-1.0625181 1.1922584-1.7824666 2.3193519-.4321149 1.7321742-.6841808 3.4995791-.8162154 5.2787275 4.1290825-.0822049 8.0000957-1.6675847 11.7930884-3.10617 3.901021-1.8848404 7.9640845-3.4173742 11.9191196-5.1789073 5.089332-2.0198913 10.2266766-4.7150369 15.9101642-4.1807052 1.2081222.1824949 2.2010284.4401778 2.8105654 1.0267331.634726.610794 1.10034 1.6229298 1.252708 2.5374238.072019 2.0433784.047833 4.2335629-.852433 6.1595057-.834218 1.8496098-1.8106619 3.4883875-2.8631994 5.3238169-.744891.8718702-.8439109.9742681-1.5419536 1.745802-3.1486723 3.1205105-5.9801028 6.573572-9.4354598 9.3952915zm-9.6623856-70.75383174c2.4962373.0011044 4.9890991.45112362 7.2777123 1.45940905 4.8962902 1.89304618 8.5945996 6.09063748 10.6938617 10.79348809 2.6717881 6.4768372 1.5144387 14.4415468-3.2148648 19.6801651-3.9778631 5.1790886-10.8664426 7.7331008-17.2894689 6.9175432-8.7966238-.9941469-16.1973415-8.6798102-16.9726372-17.4664019-1.0913777-9.42356 5.8031614-18.89474401 15.053035-20.92470861 1.4559158-.29913701 2.9546159-.46016166 4.4523619-.45949493zm-.5246306 4.96329322c-.5436493.0148472-1.0870898.06343634-1.6260694.14603363-3.7691296.56553267-7.2219923 2.67214219-9.6194451 5.60695909-3.3397351 4.4409196-3.6858211 10.8053938-1.1452369 15.7046926 2.0575154 3.9468227 6.1548396 6.607617 10.4786039 7.4291276 4.5503891.8215106 9.3031781-.9645678 12.619058-4.0898799 5.6775498-5.3338659 5.6415761-15.6382806-.3401281-20.73402754-2.7239715-2.64609757-6.5612258-4.16683871-10.3667824-4.06290548zm.634303 67.86415212h.0000417c-.671553.0115166-1.3435524.0839809-2.0092856.2229581-5.4865345 1.0642531-9.9675931 6.2307502-9.8307272 11.8790209-.0119014 21.0115676-.0065458 42.0177416-.0065458 63.0293096-.0416548 2.134451.5478382 4.256828 1.60111 6.111839 2.8860838 5.10722 9.7589441 7.592281 15.1621689 5.101096 4.3559038-1.908521 7.528174-6.438476 7.4746178-11.230588-.0059507-19.816512-.0059507-39.633024 0-59.4554815-.0119014-2.8479176.314833-5.8805158-1.1668883-8.4668292-1.8744668-4.3439662-6.5235966-7.2719643-11.2244915-7.1913249zm-76.96216215 115.8167576c1.57839976-.906623 3.90215496-1.052131 4.80644643.861852.95909708 1.281585.12057221 2.759046-.73439427 3.811177-.60286102.218261-1.20024149.447715-1.79762195.682766-1.06322762-.414137-2.40048297-.733134-2.8334468-1.958755-.55901658-1.152867.14249442-2.339312.55901659-3.39704zm15.00289875 13.554562c3.5386111-2.702882 8.2368346-3.743817 12.6182568-2.927629 3.1261716.579611 6.0431348 2.779769 6.9576745 5.861174.8248789 2.383504.5977384 4.932612.6395801 7.410747-.0418417 3.625529.1195476 7.256973-.1195477 10.882502-1.4106626.786616-2.9588049.721558-4.3694674-.011828-.310824-4.796582.1315024-9.622735-.2450728-14.413402-.1673667-2.395333-1.6975769-4.684207-4.1004851-5.352535-3.6641362-1.029106-7.8483047.141946-10.579969 2.738369-1.2253637 1.135566-.9623588 2.903972-.9743136 4.400316-.0239095 4.211056.1195477 8.428025-.0836833 12.63908-1.41664.75113-2.9588049.792531-4.3515353-.035486-.0358643-.490895-.1135703-1.460858-.155412-1.945839.0298869-1.194709.0418417-2.383504.0537965-3.566385.1374798-6.056349-.2928918-12.14227.1374798-18.174962 1.1835219.011829 2.3610665.059144 3.5386111.14786.3765752.762958.7232634 1.54366 1.0340874 2.348018zm28.0026681-.030312c3.4802875-2.809011 8.2664316-3.625858 12.633264-2.938296 2.7734495.51714 5.4211037 2.191969 6.5592356 4.801177 1.3058566 3.232126.9823876 6.769835 1.0183286 10.172383-.0419312 2.979433.1317837 5.958866-.1377739 8.932422-.3773806.211557-1.1381319.646425-1.5155125.863859-1.0482794-.164545-2.8093887-.246817-2.8453297-1.633693-.1198034-4.095986.0479213-8.197848-.0479214-12.293833-.0539115-2.244859-.8326351-4.760041-2.9771152-5.894224-3.3485038-1.762978-7.5116705-.887365-10.5906168 1.022528-1.0123383.752204-2.2043818 1.715965-2.2103719 3.073458-.107823 4.989228.1317837 9.984332-.1257935 14.967683-1.4196698.769834-2.9651331.799217-4.3788128-.005876-.2575772-7.809993-.1257935-15.643492-.071882-23.459361 1.9647751-.399608 4.5824784-.094026 4.6903015 2.391773zm38.6531264-3.165339c2.6904476.051414 5.3644901.738989 7.6492532 2.110756 3.6858425 2.20635 6.0971267 6.319672 5.9158558 10.496183.1450168 3.899997-2.1265378 7.586848-5.2625251 9.966019-5.9698564 3.744458-15.0757002 3.254263-19.7585329-2.195364-2.6465558-2.93796-3.5959623-7.160199-2.5566756-10.893136.9849055-4.320528 4.8104777-7.77119 9.2334887-8.900288 1.5453409-.416931 3.1648638-.61499 4.7791359-.58417zm-.3587654 3.859672v.000029c-.3672549-.001441-.7337727.016533-1.0970699.053977-2.9728434.426293-5.9887388 1.929479-7.3301437 4.613968-1.0513715 2.442539-1.0995171 5.271045-.1085693 7.748148 2.8822081 5.472669 11.9095011 6.285643 15.9216313 1.573386 2.8096996-3.197191 2.5077687-8.232047-.4106935-11.262177-1.7976035-1.764211-4.4044006-2.717423-6.9751549-2.727331zm29.2317473-4.859716h.000012c2.924209-.062571 5.847718.829415 8.063897 2.801881.635277-.737095 1.036882-1.916264 2.120933-2.05189.810124-.106142 1.631904.017325 2.447856.064499.139866 6.586682.017835 13.172999.052804 19.759681.064111 4.304636-1.230304 9.146425-4.989512 11.623065-3.048164 2.193595-6.952891 1.82763-10.47897 1.686108-2.546936-.365599-5.263077-1.261358-7.005718-3.266257-.874234-1.208836-.186316-2.636401.507243-3.721405.338037-.112038 1.008826-.330219 1.346863-.442257 3.61933 3.449605 9.657195 4.829447 13.859348 1.680577 1.661046-1.544952 2.080317-3.962258 2.278477-6.138163-5.152155 4.145423-13.85953 3.502311-18.03837-1.792981-2.5527643-3.54985-3.2284776-8.443979-1.5208064-12.518641 1.6064054-4.824288 6.4822554-7.579927 11.3559434-7.684217zm-.381568 3.875275c-1.433745.495327-2.943256.896307-4.167184 1.827995-3.904914 2.871723-4.307429 9.422842-.78135 12.754512 2.273009 1.957713 5.543194 2.694455 8.428167 1.921979 2.168101-.448154 4.411422-1.710244 5.122466-3.962807.192331-2.700716.012385-5.424471.076495-8.131085-1.696014-3.154767-5.298222-4.451872-8.678594-4.410594zm-109.28778618-2.63458c1.03109256-.175853 2.06794542-.254684 3.10479827-.242556.21889116.224365.65091318.673094.86980434.903522.72579695 4.638888.20161028 9.374799.35713821 14.062198-.0921647 3.092592.31681609 6.251887-.4550632 9.28384-1.06565432.363834-2.43660421 1.321931-3.41009384.272876-.725797-.485113-1.1750999-1.291612-1.06565432-2.207262-.02880147-6.282207.01728088-12.570477-.01728088-18.852684-.08640441-1.121822.28801468-2.176942.61635142-3.219934zm148.38322718.679793c1.323781-.776139 2.818944-.96867 4.320017-.800206.165473.360995.496418 1.076968.6678 1.437963-3.327181 7.099567-6.92621 14.066769-10.135196 21.220484-2.174783 4.085259-4.089537 9.097072-8.69913 10.883997-2.795305.661824-6.719369.577592-8.143616-2.478832-.200931-1.528212 1.004655-2.629246 2.23979-3.200821 1.542441 1.101034 3.56357 2.250201 5.35422.956636 1.542441-1.221366 3.203077-3.04439 3.262174-5.090028-3.173528-7.382346-6.943939-14.487929-10.353856-21.761976-.992836-1.817008 1.359239-2.334434 2.659381-1.991489 2.925319.180497 3.498563 3.543767 4.668691 5.673637 1.77883 4.578618 4.160453 8.880474 5.992471 13.441043 2.878041-6.028615 5.247845-12.28586 8.167254-18.290408z"/></svg>