<svg height="27" viewBox="0 0 326 27" width="326" xmlns="http://www.w3.org/2000/svg"><path d="m22.5 20 7.6-19.9h15v26h-5.8v-20.2h-5.2l-7.7 20.2h-7.8l-7.5-20.2h-5.3v20.2h-5.8v-26h15.2zm288.4-19.9h15v26h-5.8v-20.2h-5.2l-7.7 20.2h-7.8l-7.5-20.2h-5.3v20.2h-5.8v-26h15.2l7.3 19.9zm-252.1 0h13.3l8.7 26.1h-6.2l-2.1-6.3h-14.5l-2.2 6.3h-6.2zm1.3 13.9h10.5l-2.7-8.1h-4.9zm210.1 4v-17.9h5.8v20.3l-5.7 5.7h-22.9l-5.8-5.7v-20.3h5.9v17.9l2.3 2.3h18.1zm-132-8.1v-9.8h26.6v5.8h-20.8v4h20.8v5.9h-20.8v2.2l2.3 2.3h18.5v5.8h-20.9l-5.7-5.7v-4.6zm-19.5-9.8h5.8 9.3v5.8h-9.3v20.2h-5.8v-20.2h-8.7v-5.8zm-27.8 0h5.8 9.3v5.8h-9.3v20.2h-5.8v-20.2h-8.7v-5.8zm119 9.8v-9.8h26.4v5.8h-20.5v4h20.5v5.9h-20.5v2.2l2.3 2.3h18.2v5.8h-20.6l-5.8-5.7v-4.6zm-5.2.8-2.2 2.1 2.2 2.2v11.2h-5.8v-8.7l-1.7-1.7h-21.2v10.3h-5.8v-26.1h29.5l5 5zm-28.7-4.9v4h21.2l1.2-1.2.4-.4v-.8l-1.6-1.6z" fill-rule="evenodd"/></svg>