<svg xmlns="http://www.w3.org/2000/svg" width="326" height="27" viewBox="0 0 326 27">
  <g fill-rule="evenodd">
    <polygon points="22.5 20 15.2 .1 0 .1 0 26.1 5.8 26.1 5.8 5.9 11.1 5.9 18.6 26.1 26.4 26.1 34.1 5.9 39.3 5.9 39.3 26.1 45.1 26.1 45.1 .1 30.1 .1"/>
    <polygon points="310.9 .1 303.3 20 296 .1 280.8 .1 280.8 26.1 286.6 26.1 286.6 5.9 291.9 5.9 299.4 26.1 307.2 26.1 314.9 5.9 320.1 5.9 320.1 26.1 325.9 26.1 325.9 .1"/>
    <path fill-rule="nonzero" d="M58.8,0.1 L49.6,26.2 L55.8,26.2 L58,19.9 L72.5,19.9 L74.6,26.2 L80.8,26.2 L72.1,0.1 L58.8,0.1 Z M60.1,14 L63,5.9 L67.9,5.9 L70.6,14 L60.1,14 Z"/>
    <polygon points="270.2 18 267.9 20.3 249.8 20.3 247.5 18 247.5 .1 241.6 .1 241.6 20.4 247.4 26.1 270.3 26.1 276 20.4 276 .1 270.2 .1"/>
    <polygon points="138.2 9.9 138.2 15.8 138.2 20.4 143.9 26.1 164.8 26.1 164.8 20.3 146.3 20.3 144 18 144 15.8 164.8 15.8 164.8 9.9 144 9.9 144 5.9 164.8 5.9 164.8 .1 138.2 .1"/>
    <polygon points="118.7 .1 110 .1 110 5.9 118.7 5.9 118.7 26.1 124.5 26.1 124.5 5.9 133.8 5.9 133.8 .1 124.5 .1"/>
    <polygon points="90.9 .1 82.2 .1 82.2 5.9 90.9 5.9 90.9 26.1 96.7 26.1 96.7 5.9 106 5.9 106 .1 96.7 .1"/>
    <polygon points="209.9 9.9 209.9 15.8 209.9 20.4 215.7 26.1 236.3 26.1 236.3 20.3 218.1 20.3 215.8 18 215.8 15.8 236.3 15.8 236.3 9.9 215.8 9.9 215.8 5.9 236.3 5.9 236.3 .1 209.9 .1"/>
    <path fill-rule="nonzero" d="M204.7,10.7 L204.7,5 L199.7,0 L170.2,0 L170.2,26.1 L176,26.1 L176,15.8 L197.2,15.8 L198.9,17.5 L198.9,26.2 L204.7,26.2 L204.7,15 L202.5,12.8 L204.7,10.7 Z M176,5.8 L197.2,5.8 L198.8,7.4 L198.8,8.2 L198.4,8.6 L197.2,9.8 L176,9.8 L176,5.8 Z"/>
  </g>
</svg>
