<svg height="49" viewBox="0 0 449 49" width="449" xmlns="http://www.w3.org/2000/svg"><path d="m36.4753377 13.1501981 12.4088487-12.9501981v37.5472552l-12.4088487 11.3140917zm-18.2237576 6.5721562 5.9818441 4.9083192 6.4270046-5.6570459v18.7736276l-12.4088487 11.3140917zm-5.8427314-6.5721562v25.5121675l-12.4088487 10.5376344v-49zm60.9869872 29.5053763h.0278225v-35.91114882h8.541517l9.4596604 15.19637802 9.4596602-15.19637802h8.541517v35.93887942h-7.873776v-23.4601018l-10.1552237 15.3350311h-.1947578l-10.0439335-15.196378v23.2937181zm68.9442311 0v-35.91114882h27.182612v7.01584602h-19.308836v7.2931523h16.999566v7.015846h-16.999566v7.5427278h19.559239v7.0435767zm71.587371.5268817c-5.453216 0-10.962077-1.9134125-15.274569-5.7679683l4.702008-5.6015846c3.255236 2.6621392 6.649585 4.3537069 10.767319 4.3537069 3.255236 0 5.202813-1.2756084 5.202813-3.3831353v-.1109225c0-1.9966044-1.252014-3.0226372-7.26168-4.5755517-7.261681-1.8579514-11.935866-3.8545558-11.935866-10.9813243v-.1109225c0-6.5166949 5.230636-10.81494056 12.603607-10.81494056 5.258458 0 9.737885 1.66383701 13.382637 4.57555176l-4.117735 5.9620827c-3.199591-2.2184494-6.343537-3.549519-9.376193-3.549519-3.060478 0-4.646362 1.3865308-4.646362 3.1335597v.1109225c0 2.3571024 1.530239 3.1335597 7.762486 4.7142048 7.317325 1.9134126 11.43506 4.5200906 11.43506 10.78721v.1109225c0 7.1544991-5.481039 11.1477079-13.243525 11.1477079zm56.702318 0c-5.453216 0-10.962077-1.9134125-15.246747-5.7679683l4.674185-5.6015846c3.255236 2.6621392 6.649585 4.3537069 10.76732 4.3537069 3.255236 0 5.202813-1.2756084 5.202813-3.3831353v-.1109225c0-1.9966044-1.252014-3.0226372-7.261681-4.5755517-7.26168-1.8579514-11.935865-3.8545558-11.935865-10.9813243v-.1109225c0-6.5166949 5.230635-10.81494056 12.603606-10.81494056 5.258458 0 9.737886 1.66383701 13.382637 4.57555176l-4.117734 5.9620827c-3.199591-2.2184494-6.343537-3.549519-9.376193-3.549519-3.060478 0-4.646363 1.3865308-4.646363 3.1335597v.1109225c0 2.3571024 1.530239 3.1335597 7.762486 4.7142048 7.317326 1.9134126 11.43506 4.5200906 11.43506 10.78721v.1109225c0 7.1544991-5.481038 11.1477079-13.243524 11.1477079zm40.56525-.5268817 15.441504-36.16072437h7.289503l15.441505 36.16072437h-8.291114l-3.283059-8.0696095h-15.246747l-3.283059 8.0696095zm14.18949-15.0299943h9.570951l-4.785476-11.6468591zm53.836597 15.0299943v-35.91114882h16.526583c4.562895 0 8.124179 1.27560838 10.489094 3.63271082 2.003223 1.9966044 3.088301 4.8251273 3.088301 8.2082626v.0831918c0 5.8234296-3.143946 9.4561404-7.734663 11.147708l8.791919 12.8392756h-9.264902l-7.734664-11.4804754h-6.232247v11.4804754zm7.929421-18.4685908h8.040712c3.839509 0 6.065311-2.0520657 6.065311-5.0747029v-.1109225c0-3.3831352-2.364915-5.1301641-6.232247-5.1301641h-7.873776zm53.920065 18.4685908v-35.91114882h7.929421v35.91114882z" fill-rule="evenodd" transform="translate(0 -.2)"/></svg>