<svg xmlns="http://www.w3.org/2000/svg" width="234" height="78" viewBox="0 0 234 78">
  <path fill-rule="evenodd" d="M208.905885,3.77585455 L208.905885,11.0730415 L202.439369,14.7397359 L202.438186,14.7397359 L202.438186,14.7397359 L195.97167,11.0730415 L195.97167,3.77585455 L202.439369,0.146623648 L208.905623,3.77600311 Z M233.721642,76.3699321 L0,76.3699321 L0,5.51257619 L190.119139,5.51257619 L190.119139,11.2134573 L5.70058554,11.2134573 L5.70058554,70.669051 L228.020761,70.669051 L228.020761,11.2134573 L214.518379,11.2134573 L214.518379,5.51257619 L233.721642,5.51257619 L233.721642,76.3699321 Z M62.0037708,26.9429822 L49.1407974,59.8527782 L45.6995758,59.8527782 L33.1602978,26.7673885 L33.3051478,59.8527782 L29.1507027,59.8527782 L29.1507027,22.6563097 L36.0318747,22.6563097 L47.6757434,53.3540397 L59.4955013,22.6563097 L66.1843184,22.6563097 L66.1461844,59.8527782 L61.9277984,59.8427274 L62.0037708,26.9429822 Z M118.146734,51.5862493 C120.037174,48.4699055 120.569572,44.6483789 120.569572,40.5979006 C120.569572,36.315958 119.699881,32.564048 117.519741,29.9520187 C115.33901,27.3396937 111.961049,25.9044965 108.179873,25.9044965 C104.511031,25.9044965 101.223823,27.079555 98.9065189,29.6670485 C96.5895106,32.2542464 95.5717178,36.6532515 95.5717178,41.6955087 C95.5717178,45.7297283 96.4629886,49.4442433 98.4506849,52.2132427 C100.43779,54.9825377 103.915668,56.5173563 108.372908,56.5173563 C112.604892,56.5173563 116.255703,54.7028886 118.146734,51.5862493 Z M121.624316,28.2986597 C123.973251,31.5199458 125.244087,35.6194957 125.244087,40.64106 C125.244087,46.0758902 124.111893,50.6361517 121.424778,54.2370038 C118.270891,58.4660318 113.634805,60.4082039 107.793804,60.4082039 C102.338872,60.4082039 98.050426,58.5582628 94.9290569,54.858085 C92.1449812,51.2897502 90.9255809,46.8901539 90.9255809,41.4389173 C90.9255809,36.5166787 91.8505515,32.1144219 94.2320033,28.6123042 C97.288929,24.1192945 101.927971,22.0278382 107.913822,22.0278382 C114.173115,22.0278382 118.614984,24.1692529 121.624316,28.2986597 Z M200.425954,59.9097427 L200.425954,22.6561028 L204.914825,22.6561028 L204.914825,59.9097427 L200.425954,59.9097427 Z M149.878338,22.6563097 L163.667465,22.6563097 C168.380114,22.6563097 171.64456,24.3081907 173.320681,26.9113517 C174.304478,28.4500131 174.68907,29.9162496 174.68907,31.9281862 C174.68907,34.2783031 173.767942,36.1646045 172.561253,37.668975 C170.166499,39.7571795 168.646165,39.6812072 167.354044,40.2133091 C169.482156,40.5931708 171.534592,41.2772174 173.320681,42.759417 C174.833033,44.3826235 175.998336,46.1734422 175.998336,49.0302975 C175.998336,51.4312598 175.313501,53.6033038 173.946492,55.5479552 C170.272623,59.4180509 168.207474,59.5635575 164.36038,59.7136631 C161.010108,59.8443837 156.182761,59.9097441 149.878338,59.9097441 L149.878338,22.6563097 Z M164.268444,56.0546345 C167.090358,56.0546345 169.330212,54.5032617 170.305141,52.9105032 C171.060726,51.7780129 171.306675,50.4468712 171.306675,48.8405145 C171.306675,46.1356038 170.280901,44.3483325 168.076225,43.3674912 C166.904123,42.8436664 165.409507,42.2595367 163.482116,42.2595367 L154.346221,42.2595367 L154.346221,56.0546345 L164.268444,56.0546345 Z M162.727418,38.541031 C164.671955,38.541031 166.501794,37.9926703 167.581961,37.4008547 C169.279662,36.4711544 170.128365,34.7261556 170.128365,32.3080479 C170.128365,29.8733858 169.083671,28.2889045 167.278072,27.4434536 C166.259097,26.9701785 164.571447,26.3337254 162.565127,26.3337254 L154.346221,26.3337254 L154.346221,38.541031 L162.727418,38.541031 Z" transform="translate(0 .805)"/>
</svg>
