<svg height="78" viewBox="0 0 234 78" width="234" xmlns="http://www.w3.org/2000/svg"><path d="m208.905885 3.77585455v7.29718695l-6.466516 3.6666944h-.001183l-6.466516-3.6666944v-7.29718695l6.467699-3.6292309 6.466254 3.62937946zm24.815757 72.59407755h-233.721642v-70.85735591h190.119139v5.70088111h-184.41855346v59.4555937h222.32017546v-59.4555937h-13.502382v-5.70088111h19.203263zm-171.7178712-49.4269499-12.8629734 32.909796h-3.4412216l-12.539278-33.0853897.14485 33.0853897h-4.1544451v-37.1964685h6.881172l11.6438687 30.69773 11.8197579-30.69773h6.6888171l-.038134 37.1964685-4.218386-.0100508zm56.1429632 24.6432671c1.89044-3.1163438 2.422838-6.9378704 2.422838-10.9883487 0-4.2819426-.869691-8.0338526-3.049831-10.6458819-2.180731-2.612325-5.558692-4.0475222-9.339868-4.0475222-3.668842 0-6.95605 1.1750585-9.2733541 3.762552-2.3170083 2.5871979-3.3348011 6.986203-3.3348011 12.0284602 0 4.0342196.8912708 7.7487346 2.8789671 10.517734 1.9871051 2.769295 5.4649831 4.3041136 9.9222231 4.3041136 4.231984 0 7.882795-1.8144677 9.773826-4.931107zm3.477582-23.2875896c2.348935 3.2212861 3.619771 7.320836 3.619771 12.3424003 0 5.4348302-1.132194 9.9950917-3.819309 13.5959438-3.153887 4.229028-7.789973 6.1712001-13.630974 6.1712001-5.454932 0-9.743378-1.8499411-12.8647471-5.5501189-2.7840757-3.5683348-4.003476-7.9679311-4.003476-13.4191677 0-4.9222386.9249706-9.3244954 3.3064224-12.8266131 3.0569257-4.4930097 7.6959677-6.584466 13.6818187-6.584466 6.259293 0 10.701162 2.1414147 13.710494 6.2708215zm78.801638 31.611083v-37.2536399h4.488871v37.2536399zm-50.547616-37.253433h13.789127c4.712649 0 7.977095 1.651881 9.653216 4.255042.983797 1.5386614 1.368389 3.0048979 1.368389 5.0168345 0 2.3501169-.921128 4.2364183-2.127817 5.7407888-2.394754 2.0882045-3.915088 2.0122322-5.207209 2.5443341 2.128112.3798617 4.180548 1.0639083 5.966637 2.5461079 1.512352 1.6232065 2.677655 3.4140252 2.677655 6.2708805 0 2.4009623-.684835 4.5730063-2.051844 6.5176577-3.673869 3.8700957-5.739018 4.0156023-9.586112 4.1657079-3.350272.1307206-8.177619.196081-14.482042.196081zm14.390106 33.3983248c2.821914 0 5.061768-1.5513728 6.036697-3.1441313.755585-1.1324903 1.001534-2.463632 1.001534-4.0699887 0-2.7049107-1.025774-4.492182-3.23045-5.4730233-1.172102-.5238248-2.666718-1.1079545-4.594109-1.1079545h-9.135895v13.7950978zm-1.541026-17.5136035c1.944537 0 3.774376-.5483607 4.854543-1.1401763 1.697701-.9297003 2.546404-2.6746991 2.546404-5.0928068 0-2.4346621-1.044694-4.0191434-2.850293-4.8645943-1.018975-.4732751-2.706625-1.1097282-4.712945-1.1097282h-8.218906v12.2073056z" fill-rule="evenodd" transform="translate(0 .805)"/></svg>