<svg xmlns="http://www.w3.org/2000/svg" width="325" height="47" viewBox="0 0 325 47">
  <path fill-rule="evenodd" d="M20.0570599,0.0522464012 C20.965258,0.132283441 22.390362,0.579156916 23.4641923,1.52014795 C24.6047201,2.62788282 24.8648405,4.30866066 24.4652111,5.83658999 C24.1094909,7.19777549 23.711529,7.90532516 22.3225528,8.84631619 C20.9185698,9.79342117 19.2211175,9.71338413 19.2211175,9.71338413 L19.2211175,15.6111135 L22.0902231,17.9332993 L19.2205617,20.2482595 L19.2211175,28.2825333 C19.2211175,28.2825333 22.0957812,26.6345484 23.8788286,22.9445073 C23.8788286,22.9445073 23.9521959,22.7438589 24.1200514,22.363683 C24.278458,23.3519181 24.1878605,25.3533999 23.0695652,27.9218108 C22.226953,29.8565951 20.6945772,31.718012 18.7725766,32.7790586 C15.3665559,34.6677105 12.8125962,34.8477938 10.0741066,34.280309 C6.8676227,33.6200034 3.95571955,31.8180583 1.96813305,28.6754929 C0.571375537,26.4672487 -0.0539138396,23.8921681 0.00333487667,21.122553 C0.115609058,15.6844808 4.16081446,10.9945326 8.83019762,9.24594558 C9.39879409,9.03306928 9.62500989,8.89300446 10.4314942,8.81908136 C10.0596555,9.0730878 9.63001221,9.39990572 9.10254588,9.74673289 C7.59907231,10.7344122 6.31069829,12.7025453 5.76099945,14.2171351 L14.8240826,10.1735971 L14.8240826,22.8450168 L7.51514459,26.5072672 C8.34830794,27.6616904 10.8783677,29.4102774 13.0427027,29.6565025 C16.7249623,30.0639132 18.8854066,28.4559468 18.8854066,28.4559468 L18.8848508,20.2482595 L16.031308,17.9332993 L18.8865182,15.6183391 L18.8865182,9.71338413 C17.3302425,9.53330079 15.4393674,9.01972978 14.3338558,8.74571408 C12.7086592,8.34552888 7.28892878,6.8242693 6.43686779,6.69754399 C5.58591843,6.57081867 4.53543228,6.61083719 3.90013827,7.17832204 C3.26428845,7.75192083 2.870773,8.75905358 3.14145383,9.66669585 C3.29430234,10.1802669 3.64779927,10.4804058 3.91514522,10.7738749 C3.91514522,10.7738749 3.60222262,10.7471959 3.03529359,10.4070385 C2.01204226,9.79342117 1.23390437,8.59230975 1.13997201,7.11106869 C1.01991645,5.16961466 1.81917523,3.42158347 3.42047184,2.24770688 C4.81167123,1.35340412 6.38517721,0.779249516 8.21491287,1.03992571 C10.8839258,1.42010165 14.472809,2.92802172 17.6692882,3.69504335 C18.9076391,3.99573807 19.8664162,4.09578437 20.736819,3.5883273 C21.1425623,3.29485815 21.8556701,2.54062021 21.2726225,1.54015721 C20.5923077,0.365724809 19.2878151,0.392403822 18.1828593,0.185641468 C19.1338549,-0.0144511323 19.3422847,-0.0144511323 20.0570599,0.0522464012 Z M9.28040597,25.246128 L9.28040597,13.0093539 L5.60036956,14.650669 C5.59925794,14.650669 4.66215759,16.7521972 4.82612236,19.8013861 C4.95562674,22.1835996 6.28735416,25.0332518 7.31060548,26.2271376 L9.28040597,25.246128 Z M55.209995,12.41519 L59.30967,19.5412657 L51.210922,25.5001345 L51.2103662,26.9080083 L55.2422321,30.6836445 L60.1478357,26.8340852 L60.3579329,27.0880916 L51.4816028,34.1207907 L46.3742392,29.5036539 L44.7445961,30.8170395 L44.5233827,30.5580308 L46.1936001,29.2157429 L46.1936001,17.5397839 C46.1936001,17.5397839 48.6986483,16.3186632 50.5656234,15.2109283 C52.4331543,14.0970795 55.209995,12.41519 55.209995,12.41519 Z M55.3278273,22.0568743 L51.2103662,15.0375147 L51.2103662,25.0732703 L55.3278273,22.0568743 Z M31.9431162,38.5106 C33.3709993,38.0904056 33.932926,37.9636802 35.3346858,36.3484883 C36.7370014,34.7405219 36.7458944,31.4112034 36.7642363,28.7427462 C36.7575665,26.2404771 36.7625688,18.7008768 36.7625688,18.7008768 L34.2747508,15.6111135 L32.6062009,17.0328826 L32.5923055,28.6754929 L34.0168537,30.0900364 L35.3630323,29.0228759 L35.5709062,29.2835521 L29.8443672,33.8395494 L26.2065725,30.4568729 L24.9004125,31.4317685 L24.7153268,31.1516388 L27.4204676,29.1434873 L27.4204676,8.24548258 C27.3937886,6.97155969 26.4883696,6.80426004 26.2043493,6.6241767 L32.5923055,1.68689178 L32.5923055,16.6054626 L37.7046715,12.2156533 L41.6898491,16.6454811 L43.4167594,15.3443234 L43.6212985,15.6049996 L41.8665976,16.94562 L41.8660418,26.2004586 L41.7498769,30.4374194 C41.7682187,33.4260247 40.3881356,36.3418186 37.6435321,37.7157877 C35.1646071,38.9580293 33.1086556,38.7973994 31.9431162,38.5106 Z M71.6859532,37.456779 C68.7268059,37.9636802 67.007677,36.4624299 66.1722904,35.2874417 C65.1473716,33.8473308 65.0912346,31.8052747 66.0500116,29.9772064 C67.6407478,26.9546965 71.1673799,26.8340852 72.268445,26.8474247 L72.2690008,19.2878151 C72.1861847,18.8276021 69.8973477,19.0076854 69.5844251,20.1081947 C69.234263,21.3359851 70.4031373,21.9562722 70.4031373,21.9562722 C70.4031373,21.9562722 69.6422296,21.9696117 68.6667782,21.3293154 C67.9080937,20.8357536 67.0421374,19.3745219 67.058256,17.9799876 C67.2783578,14.2304746 70.8828037,14.0698447 72.2673333,13.9764681 L72.2673333,8.61898876 C71.7287508,7.69133724 71.0300941,6.45743287 69.6878062,6.43742361 C68.1932257,6.41741435 67.8208311,8.83242087 67.8208311,8.83242087 C67.8208311,8.83242087 67.5501503,8.33218937 67.7947079,6.16340791 C68.0109191,4.24196313 69.8212013,2.0137097 72.3501494,2.02704921 C74.5500564,2.04705847 75.9545953,3.3882347 76.8755771,4.91616403 L87.0563998,23.4113901 L87.0575114,8.81241161 C85.6624213,8.71903506 84.3134637,8.55896098 82.465942,6.85761807 L80.9530196,8.58564 L80.7012365,8.35886838 L85.9814579,2.34052761 C85.9814579,2.34052761 87.3104062,3.94849398 89.4903039,3.94182423 C91.1516283,3.93571029 92.147089,2.63455257 92.3088305,1.34006461 C92.5989648,1.626864 93.6783532,4.58934612 91.0354635,7.30504735 C90.2089698,8.15210603 88.5059595,8.76572334 87.3909991,8.81241161 L87.3932223,33.9729445 C87.3932223,33.9729445 87.509943,34.3670158 87.0241626,34.3670158 C86.4600127,34.3670158 86.328285,34.0802164 86.328285,34.0802164 L72.6030443,9.07920175 L72.6030443,26.8679897 C74.6412097,27.1675728 76.6871566,28.2019404 78.1289349,29.8432555 L79.5484807,28.2552984 L79.803043,28.48207 L74.5189309,34.3203275 C73.3189311,32.9124537 71.8977178,32.2588179 70.5076301,32.4522407 C69.1164307,32.6389938 68.4800251,34.012963 68.4633507,34.7143987 C68.4372275,35.8087941 69.3982278,37.1961028 71.6859532,37.456779 Z M100.674369,12.41519 L104.774044,19.5412657 L96.6747399,25.5001345 L96.6741841,26.9080083 L100.706606,30.6836445 L105.611654,26.8340852 L105.822307,27.0880916 L96.9454207,34.1207907 L91.8380571,29.5036539 L90.2089698,30.8170395 L89.9872005,30.5580308 L91.6579738,29.2157429 L91.6579738,17.5397839 C91.6579738,17.5397839 94.1619103,16.3186632 96.0294413,15.2109283 C97.8969722,14.0970795 100.674369,12.41519 100.674369,12.41519 Z M100.792757,22.0568743 L96.6741841,15.0375147 L96.6741841,25.0732703 L100.792757,22.0568743 Z M113.081777,34.2074975 L108.729763,30.5902679 L106.818323,31.9786882 L106.623789,31.7052284 L108.568578,30.2840151 L108.568578,20.1748923 C108.661954,16.0118545 104.755146,17.0456663 104.966911,12.629178 C105.060287,10.6877239 106.93949,9.21926657 107.887707,8.73293038 C108.903177,8.21880356 110.002019,8.21880356 110.002019,8.21880356 C110.002019,8.21880356 108.220639,9.33265237 108.653061,10.933949 C109.319481,13.4028694 113.540323,13.6229712 113.619804,16.9122712 L113.619804,28.3820237 L116.736802,30.8781789 L117.55607,30.2373268 L117.55607,17.8199135 L115.875292,16.1519194 L120.202295,12.3218135 L124.15468,15.8251014 L122.646759,17.4597468 L122.646759,28.4626166 L126.348473,31.5184753 L127.006555,31.0971692 L127.006555,17.8532623 L125.322998,16.2786447 L129.658338,12.3156996 L133.711324,15.6650274 L135.329851,14.2304746 L135.548841,14.4839252 L131.904933,17.6865184 L131.904933,28.48207 L122.581174,34.2336207 L117.8123,30.4568729 L113.081777,34.2074975 Z M303.812267,12.41519 L307.912498,19.5412657 L299.812083,25.5001345 L299.812083,26.9080083 L303.844504,30.6836445 L308.750664,26.8340852 L308.960205,27.0880916 L300.084431,34.1207907 L294.976512,29.5036539 L293.347424,30.8170395 L293.124543,30.5580308 L294.795317,29.2157429 L294.795317,17.5397839 C294.795317,17.5397839 297.299809,16.3186632 299.167896,15.2109283 C301.034315,14.0970795 303.812267,12.41519 303.812267,12.41519 Z M303.930655,22.0568743 L299.812083,15.0375147 L299.812083,25.0732703 L303.930655,22.0568743 Z M262.139648,17.2996727 L267.525474,12.6158385 L271.236636,16.5654441 L276.308428,12.5958292 L279.986797,16.5987928 L285.238116,12.4485388 L288.910371,16.5654441 L290.853492,15.0908728 L291.055808,15.3576629 L289.11491,16.8322342 L289.11491,27.7550669 L291.125285,29.9833204 L292.435336,28.776095 L292.66433,29.0228759 L287.266833,34.0068491 L283.246639,29.6231537 L284.18763,28.6827185 L284.18763,19.1144015 L281.327417,15.9651663 L280.275264,16.8188947 L280.312503,28.5354281 L281.743165,30.0366784 L277.849141,33.9340376 L274.208011,29.8371416 L275.2396,28.808888 L275.2396,19.1872129 L272.496108,15.9851755 L271.50954,16.7722064 L271.50954,28.4420515 L273.139739,30.1300549 L269.172348,34.0401978 L265.305558,29.669842 L266.51056,28.5687768 L266.51056,18.9209786 L264.028856,16.1119008 L262.356971,17.5531234 L262.139648,17.2996727 Z M251.150674,16.998978 L256.258038,12.5424712 L260.007551,16.9122712 L261.71334,15.4449255 L261.930107,15.6983761 L260.134832,17.2529845 L260.134832,28.0351966 L262.263595,30.4907774 L263.779852,29.1562709 L263.997175,29.4102774 L258.848125,34.0068491 L255.285365,29.8966136 L253.649608,31.2917036 L253.432285,31.0376972 L254.990229,29.6765117 L254.990229,18.6469629 L252.780873,16.0318638 L251.368553,17.2529845 L251.150674,16.998978 Z M252.634694,7.86530664 L256.510932,4.31588623 L259.663502,7.81194861 L255.769478,11.3480295 L252.634694,7.86530664 Z M247.421726,0.0522464012 C248.33048,0.132283441 249.755584,0.579156916 250.829414,1.52014795 C251.969942,2.62788282 252.229507,4.30866066 251.829877,5.83658999 C251.474157,7.19777549 251.076751,7.90532516 249.686107,8.84631619 C248.283792,9.79342117 246.585784,9.71338413 246.585784,9.71338413 L246.585784,15.6111135 L249.456001,17.9332993 L246.585784,20.2482595 L246.585784,28.2825333 C246.585784,28.2825333 249.460447,26.6345484 251.244051,22.9445073 C251.244051,22.9445073 251.317974,22.7438589 251.483606,22.363683 C251.642568,23.3519181 251.553082,25.3533999 250.434231,27.9218108 C249.591619,29.8565951 248.058687,31.718012 246.137243,32.7790586 C242.731778,34.6677105 240.177818,34.8477938 237.439884,34.280309 C234.232845,33.6200034 231.321497,31.8180583 229.333911,28.6754929 C227.936597,26.4672487 227.310196,23.8921681 227.369113,21.122553 C227.480831,15.6844808 231.525481,10.9945326 236.195975,9.24594558 C236.76346,9.03306928 236.98912,8.89300446 237.796716,8.81908136 C237.424877,9.0730878 236.994678,9.39990572 236.468324,9.74673289 C234.96485,10.7344122 233.67592,12.7025453 233.125666,14.2171351 L242.188193,10.1735971 L242.188193,22.8450168 L234.879811,26.5072672 C235.71353,27.6616904 238.243034,29.4102774 240.409036,29.6565025 C244.090184,30.0639132 246.250073,28.4559468 246.250073,28.4559468 L246.250073,20.2482595 L243.397642,17.9332993 L246.250073,15.6183391 L246.250073,9.71338413 C244.694909,9.53330079 242.804589,9.01972978 241.699633,8.74571408 C240.073325,8.34552888 234.653039,6.8242693 233.80209,6.69754399 C232.95114,6.57081867 231.900098,6.61083719 231.264804,7.17832204 C230.628955,7.75192083 230.235995,8.75905358 230.50612,9.66669585 C230.659524,10.1802669 231.01191,10.4804058 231.280367,10.7738749 C231.280367,10.7738749 230.966333,10.7471959 230.39996,10.4070385 C229.376153,9.79342117 228.598015,8.59230975 228.504638,7.11106869 C228.385138,5.16961466 229.183841,3.42158347 230.785138,2.24770688 C232.176893,1.35340412 233.749843,0.779249516 235.580135,1.03992571 C238.248592,1.42010165 241.837475,2.92802172 245.03451,3.69504335 C246.272861,3.99573807 247.231638,4.09578437 248.100929,3.5883273 C248.507228,3.29485815 249.220336,2.54062021 248.637289,1.54015721 C247.956974,0.365724809 246.653037,0.392403822 245.548081,0.185641468 C246.499077,-0.0144511323 246.707507,-0.0144511323 247.421726,0.0522464012 Z M236.646184,25.246128 L236.646184,13.0093539 L232.966147,14.650669 C232.966147,14.650669 232.027379,16.7521972 232.190788,19.8013861 C232.320293,22.1835996 233.65202,25.0332518 234.675827,26.2271376 L236.646184,25.246128 Z M313.689616,35.6287108 C313.101566,35.8010127 310.544828,35.1812815 309.931766,32.5322778 C309.334267,29.9499716 311.126764,28.2019404 313.835239,25.4534462 L310.638204,22.5304268 L310.638204,16.9522898 C310.638204,16.9522898 312.987625,15.7784132 314.828477,14.6306598 C316.669884,13.4762366 318.552978,12.228437 318.552978,12.228437 C318.552978,12.228437 319.926391,13.9636844 321.478777,13.8236196 C323.909346,13.6096317 323.796516,11.6948567 323.725928,11.2413135 C324.140564,11.9816561 325.251078,14.1837863 320.980768,19.1071759 L324.458489,21.9162537 L324.458489,29.1629407 C324.458489,29.1629407 320.418286,31.2644688 316.597073,34.0535373 C316.597073,34.0535373 314.463863,31.3850802 312.611895,32.6595589 C311.361316,33.5194013 311.933248,34.9739633 313.689616,35.6287108 Z M310.683781,30.0433481 C310.683781,30.0433481 312.51963,27.0080546 315.673312,27.6616904 C318.698601,28.2886472 319.748531,31.4845707 319.748531,31.4845707 L319.748531,24.1256095 L317.63811,22.2903157 C315.320371,24.619727 311.195128,27.9879525 310.683781,30.0433481 Z M315.364836,14.6706783 L315.364836,20.4689172 L317.295174,22.1502509 C317.295174,22.1502509 321.48767,18.7936975 323.009485,15.6844808 C323.009485,15.6844808 321.125835,18.240108 318.589106,17.4597468 C316.465901,16.8127808 315.364836,14.6706783 315.364836,14.6706783 Z M183.155873,17.2324194 L184.722154,15.7917527 L184.946702,16.0452033 L183.421552,17.4597468 L183.421552,28.9828574 C183.421552,28.9828574 180.5241,30.5174564 178.502053,31.6585401 C176.481674,32.7996237 174.322341,34.1402441 174.322341,34.1402441 L169.006548,29.6631722 L167.600897,30.8842929 L167.37357,30.6302864 L168.851476,29.343024 L168.851476,16.9522898 L168.870929,16.9522898 C168.870929,16.9522898 171.378201,15.8178759 173.493068,14.62399 C175.385055,13.5562737 177.502146,12.3218135 177.502146,12.3218135 L183.155873,17.2324194 Z M173.894921,27.3876747 L178.387,31.4512219 L178.387,19.0137994 L173.894921,14.8574314 L173.894921,27.3876747 Z M193.607933,16.0652126 L196.98394,12.6158385 C196.98394,12.6158385 197.448599,13.0226934 197.882689,13.2361255 C198.130026,13.3561811 199.151609,13.8836474 200.089821,13.3695206 C200.597834,13.0893909 200.670646,13.0160237 201.22757,12.4885573 C201.341512,15.1709098 200.053694,17.0590058 198.447395,17.8399228 C197.789312,18.1600709 195.868979,18.7736882 193.859716,16.3253329 L193.859716,28.7221812 L195.996816,30.610833 L197.780419,29.1357059 L197.986626,29.3963821 L192.399596,34.0596513 L188.148184,30.1906385 L186.618587,31.6313053 L186.367915,31.3645151 L188.697883,29.262987 L188.717336,18.5602561 L186.930398,16.1919379 L185.394132,17.5464536 L185.171806,17.2996727 L190.584311,12.4357551 L193.607933,16.0652126 Z M207.843965,21.2292691 L214.086855,12.1483999 C214.086855,12.1483999 214.910013,13.1227397 216.34401,13.5029157 C218.293802,14.0103727 219.9957,12.1283907 219.9957,12.1283907 C219.669994,14.5572925 218.438869,17.3124564 215.896581,17.7332067 C213.657211,18.1067129 211.574025,16.3653515 211.574025,16.3653515 L211.168838,16.9923083 L219.836182,30.0833667 L221.569762,28.5626629 L221.793199,28.8155577 L215.845446,34.012963 L207.843965,21.2292691 Z M202.686579,9.10588076 C202.686579,7.14441746 201.882873,5.93719211 200.833499,6.02334309 L207.642761,1.24001831 L207.642761,28.315882 L207.643873,28.315882 L209.441927,30.2106478 L210.804224,29.0295456 L211.018212,29.2835521 L205.530673,34.0741024 L201.813397,30.5835982 L200.32493,31.8919814 L200.089821,31.637975 L202.686579,29.3769286 L202.686579,9.10588076 Z M145.758011,8.65900728 C145.757455,6.83093905 145.014889,5.81046679 143.81211,5.78323197 C142.081309,5.74321345 141.671119,8.1854548 141.671119,8.1854548 C141.671119,8.1854548 141.355973,6.30402854 142.930591,4.59601587 C143.816001,3.64168533 145.467876,2.30050909 148.050738,2.92135197 C150.718084,3.56831804 151.475657,5.63649739 151.475657,7.46456562 L151.475657,32.6517775 C151.475657,32.6517775 152.483345,32.7723889 153.174776,32.926349 C153.976814,33.0925371 154.73661,33.306525 154.73661,33.306525 L154.73661,2.93469147 L155.06843,2.93469147 L155.06843,7.03103165 L160.537072,2.62788282 L164.543927,6.19064273 L166.412013,4.57600661 L166.62489,4.82945724 L164.671764,6.51079089 L164.671764,29.9305182 C164.575052,31.4578917 164.328827,33.0125 162.885937,33.9068028 C159.667781,35.814908 155.785429,33.6138894 152.327718,33.1131021 C149.760418,32.7323704 145.730776,32.2460342 144.719197,34.6004571 C144.389044,35.3747043 144.411832,36.5685902 145.576816,37.3489513 C147.913453,38.911341 158.318268,34.7277382 161.887142,36.3885068 C165.14087,37.9025408 165.128642,40.2986497 164.626187,41.9466346 C163.78024,45.035842 159.880102,45.5766479 159.880102,45.5766479 C159.880102,45.5766479 161.787651,44.4683572 161.244066,42.6336192 C160.968383,41.7065235 160.338647,41.4458473 158.296591,41.6731747 C153.836749,42.180076 148.505949,44.3410761 144.923736,42.8409374 C143.077326,42.0733599 141.771721,39.7645136 141.898447,37.4967975 C141.990156,34.2336207 145.758011,32.9458025 145.758011,32.9458025 L145.756899,20.8757722 C145.649071,20.3949941 143.638696,20.5217194 143.199604,21.4093524 C142.530962,22.7510845 144.029989,23.3647018 144.029989,23.3647018 C144.029989,23.3647018 142.787191,23.5514549 141.745598,22.3503435 C141.238697,21.7628494 140.179318,19.7080095 141.556622,17.806574 C142.688812,16.2386262 144.046107,15.9651663 145.758011,15.7784132 L145.758011,8.65900728 Z M155.06843,33.3999015 C155.06843,33.3999015 156.655276,33.820096 157.811922,32.8724352 C159.097517,31.8113886 158.962455,30.3245894 158.962455,30.3245894 L158.962455,20.9424697 C158.962455,20.9424697 158.21711,19.9814694 157.032673,19.9814694 C155.848792,19.9814694 155.06843,20.9758185 155.06843,20.9758185 L155.06843,33.3999015 Z M158.962455,8.77239309 L156.335684,6.46410262 L155.06843,7.46456562 L155.06843,16.1585891 C155.06843,16.1585891 155.848792,17.1457126 157.032673,17.1457126 C158.21711,17.1457126 158.962455,16.1986076 158.962455,16.1986076 L158.962455,8.77239309 Z M158.962455,16.7188484 C158.962455,16.7188484 158.21044,17.5731326 157.026559,17.5731326 C155.842678,17.5731326 155.06843,16.7121786 155.06843,16.7121786 L155.06843,20.4222289 C155.06843,20.4222289 155.842678,19.5612749 157.026559,19.5612749 C158.21044,19.5612749 158.962455,20.3749849 158.962455,20.3749849 L158.962455,16.7188484 Z" transform="translate(.523 .672)"/>
</svg>
