<svg height="47" viewBox="0 0 325 47" width="325" xmlns="http://www.w3.org/2000/svg"><path d="m20.0570599.0522464c.9081981.08003704 2.3333021.52691052 3.4071324 1.46790155 1.1405278 1.10773487 1.4006482 2.78851271 1.0010188 4.31644204-.3557202 1.3611855-.7536821 2.06873517-2.1426583 3.0097262-1.403983.94710498-3.1014353.86706794-3.1014353.86706794v5.89772937l2.8691056 2.3221858-2.8696614 2.3149602.0005558 8.0342738s2.8746637-1.6479849 4.6577111-5.338026c0 0 .0733673-.2006484.2412228-.5808243.1584066.9882351.0678091 2.9897169-1.0504862 5.5581278-.8426122 1.9347843-2.374988 3.7962012-4.2969886 4.8572478-3.4060207 1.8886519-5.9599804 2.0687352-8.69847 1.5012504-3.2064839-.6603056-6.11838705-2.4622507-8.10597355-5.6048161-1.39675751-2.2082442-2.02204689-4.7833248-1.96479817-7.5529399.11227418-5.4380722 4.15747958-10.1280204 8.82686274-11.87660742.56859647-.2128763.79481227-.35294112 1.60129658-.42686422-.3718387.25400644-.80148199.58082436-1.32894832.92765153-1.50347357.98767931-2.79184759 2.95581241-3.34154643 4.47040221l9.06308315-4.043538v12.6714197l-7.30893801 3.6622504c.83316335 1.1544232 3.36322311 2.9030102 5.52755811 3.1492353 3.6822596.4074107 5.8427039-1.2005557 5.8427039-1.2005557l-.0005558-8.2076873-2.8535428-2.3149602 2.8552102-2.3149602v-5.90495497c-1.5562757-.18008334-3.4471508-.69365435-4.5526624-.96767005-1.6251966-.4001852-7.04492702-1.92144478-7.89698801-2.04817009-.85094936-.12672532-1.90143551-.0867068-2.53672952.48077805-.63584982.57359879-1.02936527 1.58073154-.75868444 2.48837381.15284851.51357105.50634544.81370995.77369139 1.10717905 0 0-.3129226-.026679-.87985163-.3668364-1.02325133-.61361733-1.80138922-1.81472875-1.89532158-3.29596981-.12005556-1.94145403.67920322-3.68948522 2.28049983-4.86336181 1.39119939-.89430276 2.96470537-1.46845736 4.79444103-1.20778117 2.66901293.38017594 6.25789613 1.88809601 9.45437533 2.65511764 1.2383509.30069472 2.197128.40074102 3.0675308-.10671605.4057433-.29346915 1.1188511-1.04770709.5358035-2.04817009-.6803148-1.1744324-1.9848074-1.14775339-3.0897632-1.35451574.9509956-.2000926 1.1594254-.2000926 1.8742006-.13339507zm-10.77665393 25.1938816v-12.2367741l-3.68003641 1.6413151c-.00111162 0-.93821197 2.1015282-.7742472 5.1507171.12950438 2.3822135 1.4612318 5.2318657 2.48448312 6.4257515zm45.92958903-12.830938 4.099675 7.1260757-8.098748 5.9588688-.0005558 1.4078738 4.0318659 3.7756362 4.9056036-3.8495593.2100972.2540064-8.8763301 7.0326991-5.1073636-4.6171368-1.6296431 1.3133856-.2212134-.2590087 1.6702174-1.3422879v-11.675959s2.5050482-1.2211207 4.3720233-2.3288556c1.8675309-1.1138488 4.6443716-2.7957383 4.6443716-2.7957383zm.1178323 9.6416843-4.1174611-7.0193596v10.0357556zm-23.3847111 16.4537257c1.4278831-.4201944 1.9898098-.5469198 3.3915696-2.1621117 1.4023156-1.6079664 1.4112086-4.9372849 1.4295505-7.6057421-.0066698-2.5022691-.0016675-10.0418694-.0016675-10.0418694l-2.487818-3.0897633-1.6685499 1.4217691-.0138954 11.6426103 1.4245482 1.4145435 1.3461786-1.0671605.2078739.2606762-5.726539 4.5559973-3.6377947-3.3826765-1.30616.9748956-.1850857-.2801297 2.7051408-2.0081515v-20.89800472c-.026679-1.27392289-.932098-1.44122254-1.2161183-1.62130588l6.3879562-4.93728492v14.91857082l5.112366-4.3898093 3.9851776 4.4298278 1.7269103-1.3011577.2045391.2606762-1.7547009 1.3406204-.0005558 9.2548386-.1161649 4.2369608c.0183418 2.9886053-1.3617413 5.9043992-4.1063448 7.2783683-2.478925 1.2422416-4.5348765 1.0816117-5.7004159.7948123zm39.742837-1.053821c-2.9591473.5069012-4.6782762-.9943491-5.5136628-2.1693373-1.0249188-1.4401109-1.0810558-3.482167-.1222788-5.3102353 1.5907362-3.0225099 5.1173683-3.1431212 6.2184334-3.1297817l.0005558-7.5596096c-.0828161-.460213-2.3716531-.2801297-2.6845757.8203796-.3501621 1.2277904.8187122 1.8480775.8187122 1.8480775s-.7609077.0133395-1.7363591-.6269568c-.7586845-.4935618-1.6246408-1.9547935-1.6085222-3.3493278.2201018-3.749513 3.8245477-3.9101429 5.2090773-4.0035195v-5.35747934c-.5385825-.92765152-1.2372392-2.16155589-2.5795271-2.18156515-1.4945805-.02000926-1.8669751 2.39499726-1.8669751 2.39499726s-.2706808-.5002315-.0261232-2.66901296c.2162112-1.92144478 2.0264934-4.14969821 4.5554415-4.1363587 2.199907.02000926 3.6044459 1.36118549 4.5254277 2.88911482l10.1808227 18.49522607.0011116-14.59897849c-1.3950901-.09337655-2.7440477-.25345063-4.5915694-1.95479354l-1.5129224 1.72802193-.2517831-.22677162 5.2802214-6.01834077s1.3289483 1.60796637 3.508846 1.60129662c1.6613244-.00611394 2.6567851-1.30727166 2.8185266-2.60175962.2901343.28679939 1.3695227 3.24928151-1.273367 5.96498274-.8264937.84705868-2.529504 1.46067599-3.6444644 1.50736426l.0022232 25.16053289s.1167207.3940713-.3690597.3940713c-.5641499 0-.6958776-.2867994-.6958776-.2867994l-13.7252407-25.00101465v17.78878795c2.0381654.2995831 4.0841123 1.3339507 5.5258906 2.9752658l1.4195458-1.5879571.2545623.2267716-5.2841121 5.8382575c-1.1999998-1.4078738-2.6212131-2.0615096-4.0113008-1.8680868-1.3911994.1867531-2.027605 1.5607223-2.0442794 2.262158-.0261232 1.0943954.9348771 2.4817041 3.2226025 2.7423803zm28.9884158-25.041589 4.099675 7.1260757-8.0993041 5.9588688-.0005558 1.4078738 4.0324219 3.7756362 4.905048-3.8495593.210653.2540064-8.8768863 7.0326991-5.1073636-4.6171368-1.6290873 1.3133856-.2217693-.2590087 1.6707733-1.3422879v-11.675959s2.5039365-1.2211207 4.3714675-2.3288556c1.8675309-1.1138488 4.6449277-2.7957383 4.6449277-2.7957383zm.118388 9.6416843-4.1185729-7.0193596v10.0357556zm12.28902 12.1506232-4.352014-3.6172296-1.91144 1.3884203-.194534-.2734598 1.944789-1.4212133v-10.1091228c.093376-4.1630378-3.813432-3.129226-3.601667-7.5457143.093376-1.9414541 1.972579-3.40991143 2.920796-3.89624762 1.01547-.51412682 2.114312-.51412682 2.114312-.51412682s-1.78138 1.11384881-1.348958 2.71514544c.66642 2.4689204 4.887262 2.6890222 4.966743 5.9783222v11.4697525l3.116998 2.4961552.819268-.6408521v-12.4174133l-1.680778-1.6679941 4.327003-3.8301059 3.952385 3.5032879-1.507921 1.6346454v11.0028698l3.701714 3.0558587.658082-.4213061v-13.2439069l-1.683557-1.5746176 4.33534-3.9629451 4.052986 3.3493278 1.618527-1.4345528.21899.2534506-3.643908 3.2025932v10.7955516l-9.323759 5.7515507-4.768874-3.7767478zm190.73049-21.7923075 4.100231 7.1260757-8.100415 5.9588688v1.4078738l4.032421 3.7756362 4.90616-3.8495593.209541.2540064-8.875774 7.0326991-5.107919-4.6171368-1.629088 1.3133856-.222881-.2590087 1.670774-1.3422879v-11.675959s2.504492-1.2211207 4.372579-2.3288556c1.866419-1.1138488 4.644371-2.7957383 4.644371-2.7957383zm.118388 9.6416843-4.118572-7.0193596v10.0357556zm-41.791007-4.7572016 5.385826-4.6838342 3.711162 3.9496056 5.071792-3.9696149 3.678369 4.0029636 5.251319-4.150254 3.672255 4.1169053 1.943121-1.4745713.202316.2667901-1.940898 1.4745713v10.9228327l2.010375 2.2282535 1.310051-1.2072254.228994.2467809-5.397497 4.9839732-4.020194-4.3836954.940991-.9404352v-9.568317l-2.860213-3.1492352-1.052153.8537284.037239 11.7165334 1.430662 1.5012503-3.894024 3.8973592-3.64113-4.096896 1.031589-1.0282536v-9.6216751l-2.743492-3.2020374-.986568.7870309v11.6698451l1.630199 1.6880034-3.967391 3.9101429-3.86679-4.3703558 1.205002-1.1010652v-9.6477982l-2.481704-2.8090778-1.671885 1.4412226zm-10.988974-.3006947 5.107364-4.4565068 3.749513 4.3698 1.705789-1.4673457.216767.2534506-1.795275 1.5546084v10.7822121l2.128763 2.4555808 1.516257-1.3345065.217323.2540065-5.14905 4.5965717-3.56276-4.1102355-1.635757 1.39509-.217323-.2540064 1.557944-1.3611855v-11.0295488l-2.209356-2.6150991-1.41232 1.2211207zm1.48402-9.13367136 3.876238-3.54942041 3.15257 3.49606238-3.894024 3.53608089zm-5.212968-7.81306024c.908754.08003704 2.333858.52691052 3.407688 1.46790155 1.140528 1.10773487 1.400093 2.78851271 1.000463 4.31644204-.35572 1.3611855-.753126 2.06873517-2.14377 3.0097262-1.402315.94710498-3.100323.86706794-3.100323.86706794v5.89772937l2.870217 2.3221858-2.870217 2.3149602v8.0342738s2.874663-1.6479849 4.658267-5.338026c0 0 .073923-.2006484.239555-.5808243.158962.9882351.069476 2.9897169-1.049375 5.5581278-.842612 1.9347843-2.375544 3.7962012-4.296988 4.8572478-3.405465 1.8886519-5.959425 2.0687352-8.697359 1.5012504-3.207039-.6603056-6.118387-2.4622507-8.105973-5.6048161-1.397314-2.2082442-2.023715-4.7833248-1.964798-7.5529399.111718-5.4380722 4.156368-10.1280204 8.826862-11.87660742.567485-.2128763.793145-.35294112 1.600741-.42686422-.371839.25400644-.802038.58082436-1.328392.92765153-1.503474.98767931-2.792404 2.95581241-3.342658 4.47040221l9.062527-4.043538v12.6714197l-7.308382 3.6622504c.833719 1.1544232 3.363223 2.9030102 5.529225 3.1492353 3.681148.4074107 5.841037-1.2005557 5.841037-1.2005557v-8.2076873l-2.852431-2.3149602 2.852431-2.3149602v-5.90495497c-1.555164-.18008334-3.445484-.69365435-4.55044-.96767005-1.626308-.4001852-7.046594-1.92144478-7.897543-2.04817009-.85095-.12672532-1.901992-.0867068-2.537286.48077805-.635849.57359879-1.028809 1.58073154-.758684 2.48837381.153404.51357105.50579.81370995.774247 1.10717905 0 0-.314034-.026679-.880407-.3668364-1.023807-.61361733-1.801945-1.81472875-1.895322-3.29596981-.1195-1.94145403.679203-3.68948522 2.2805-4.86336181 1.391755-.89430276 2.964705-1.46845736 4.794997-1.20778117 2.668457.38017594 6.25734 1.88809601 9.454375 2.65511764 1.238351.30069472 2.197128.40074102 3.066419-.10671605.406299-.29346915 1.119407-1.04770709.53636-2.04817009-.680315-1.1744324-1.984252-1.14775339-3.089208-1.35451574.950996-.2000926 1.159426-.2000926 1.873645-.13339507zm-10.775542 25.1938816v-12.2367741l-3.680037 1.6413151s-.938768 2.1015282-.775359 5.1507171c.129505 2.3822135 1.461232 5.2318657 2.485039 6.4257515zm77.043432 10.3825828c-.58805.1723019-3.144788-.4474293-3.75785-3.096433-.597499-2.5823062 1.194998-4.3303374 3.903473-7.0788316l-3.197035-2.9230194v-5.578137s2.349421-1.1738766 4.190273-2.32163c1.841407-1.1544232 3.724501-2.4022228 3.724501-2.4022228s1.373413 1.7352474 2.925799 1.5951826c2.430569-.2139879 2.317739-2.1287629 2.247151-2.5823061.414636.7403426 1.52515 2.9424728-2.74516 7.8658624l3.477721 2.8090778v7.246687s-4.040203 2.1015281-7.861416 4.8905966c0 0-2.13321-2.6684571-3.985178-1.3939784-1.250579.8598424-.678647 2.3144044 1.077721 2.9691519zm-3.005835-5.5853627s1.835849-3.0352935 4.989531-2.3816577c3.025289.6269568 4.075219 3.8228803 4.075219 3.8228803v-7.3589612l-2.110421-1.8352938c-2.317739 2.3294113-6.442982 5.6976368-6.954329 7.7530324zm4.681055-15.3726698v5.7982389l1.930338 1.6813337s4.192496-3.3565534 5.714311-6.4657701c0 0-1.88365 2.5556272-4.420379 1.775266-2.123205-.646966-3.22427-2.7890685-3.22427-2.7890685zm-132.208963 2.5617411 1.566281-1.4406667.224548.2534506-1.52515 1.4145435v11.5231106s-2.897452 1.534599-4.919499 2.6756827c-2.020379 1.1410836-4.179712 2.481704-4.179712 2.481704l-5.315793-4.4770719-1.405651 1.2211207-.227327-.2540065 1.477906-1.2872624v-12.3907342h.019453s2.507272-1.1344139 4.622139-2.3282998c1.891987-1.0677163 4.009078-2.3021765 4.009078-2.3021765zm-9.260952 10.1552553 4.492079 4.0635472v-12.4374225l-4.492079-4.156368zm19.713012-11.3224621 3.376007-3.4493741s.464659.4068549.898749.620287c.247337.1200556 1.26892.6475219 2.207132.1333951.508013-.2801297.580825-.3534969 1.137749-.8809633.113942 2.6823525-1.173876 4.5704485-2.780175 5.3513655-.658083.3201481-2.578416.9337654-4.587679-1.5145899v12.3968483l2.1371 1.8886518 1.783603-1.4751271.206207.2606762-5.58703 4.6632692-4.251412-3.8690128-1.529597 1.4406668-.250672-.2667902 2.329968-2.1015281.019453-10.7027309-1.786938-2.3683182-1.536266 1.3545157-.222326-.2467809 5.412505-4.8639176zm14.236032 5.1640565 6.24289-9.0808692s.823158.9743398 2.257155 1.3545158c1.949792.507457 3.65169-1.374525 3.65169-1.374525-.325706 2.4289018-1.556831 5.1840657-4.099119 5.604816-2.23937.3735062-4.322556-1.3678552-4.322556-1.3678552l-.405187.6269568 8.667344 13.0910584 1.73358-1.5207038.223437.2528948-5.947753 5.1974053zm-5.157386-12.12338834c0-1.9614633-.803706-3.16868865-1.85308-3.08253767l6.809262-4.78332478v27.07586369h.001112l1.798054 1.8947658 1.362297-1.1811022.213988.2540065-5.487539 4.7905503-3.717276-3.4905042-1.488467 1.3083832-.235109-.2540064 2.596758-2.2610464zm-56.928568-.44687348c-.000556-1.82806823-.743122-2.84854049-1.945901-2.87577531-1.730801-.04001852-2.140991 2.40222283-2.140991 2.40222283s-.315146-1.88142626 1.259472-3.58943893c.88541-.95433054 2.537285-2.29550678 5.120147-1.6746639 2.667346.64696607 3.424919 2.71514542 3.424919 4.54321365v25.18721188s1.007688.1206114 1.699119.2745715c.802038.1661881 1.561834.380176 1.561834.380176v-30.37183353h.33182v4.09634018l5.468642-4.40314883 4.006855 3.56275991 1.868086-1.61463612.212877.25345063-1.953126 1.68133365v23.41972731c-.096712 1.5273735-.342937 3.0819818-1.785827 3.9762846-3.218156 1.9081052-7.100508-.2929134-10.558219-.7937007-2.5673-.3807317-6.596942-.8670679-7.608521 1.487355-.330153.7742472-.307365 1.9681331.857619 2.7484942 2.336637 1.5623897 12.741452-2.6212131 16.310326-.9604445 3.253728 1.514034 3.2415 3.9101429 2.739045 5.5581278-.845947 3.0892074-4.746085 3.6300133-4.746085 3.6300133s1.907549-1.1082907 1.363964-2.9430287c-.275683-.9270957-.905419-1.1877719-2.947475-.9604445-4.459842.5069013-9.790642 2.6679014-13.372855 1.1677627-1.84641-.7675775-3.152015-3.0764238-3.025289-5.3441399.091709-3.2631768 3.859564-4.550995 3.859564-4.550995l-.001112-12.0700303c-.107828-.4807781-2.118203-.3540528-2.557295.5335802-.668642 1.3417321.830385 1.9553494.830385 1.9553494s-1.242798.1867531-2.284391-1.0143583c-.506901-.5874941-1.56628-2.642334-.188976-4.5437695 1.13219-1.5679478 2.489485-1.8414077 4.201389-2.0281608zm9.310419 24.74089422s1.586846.4201945 2.743492-.5274663c1.285595-1.0610466 1.150533-2.5478458 1.150533-2.5478458v-9.3821197s-.745345-.9610003-1.929782-.9610003c-1.183881 0-1.964243.9943491-1.964243.9943491zm3.894025-24.62750841-2.626771-2.30829047-1.267254 1.000463v8.69402348s.780362.9871235 1.964243.9871235c1.184437 0 1.929782-.947105 1.929782-.947105zm0 7.94645531s-.752015.8542842-1.935896.8542842-1.958129-.860954-1.958129-.860954v3.7100503s.774248-.860954 1.958129-.860954 1.935896.81371 1.935896.81371z" fill-rule="evenodd" transform="translate(.523 .672)"/></svg>