<svg width="89" height="123" viewBox="0 0 89 123" version="1.1" xmlns="http://www.w3.org/2000/svg" xmlns:xlink="http://www.w3.org/1999/xlink">
<title>Ocean_Logo_White</title>
<desc>Created using Figma</desc>
<g id="Canvas" transform="translate(-5357 -3316)">
<g id="Ocean_Logo_White">
<g id="Fill 397">
<use xlink:href="#path0_fill" transform="translate(5357 3422)" fill="#FFFFFE"/>
</g>
<g id="Fill 398">
<use xlink:href="#path1_fill" transform="translate(5377 3422)" fill="#FFFFFE"/>
</g>
<g id="Fill 399">
<use xlink:href="#path2_fill" transform="translate(5395 3422)" fill="#FFFFFE"/>
</g>
<g id="Fill 400">
<use xlink:href="#path3_fill" transform="translate(5413 3422)" fill="#FFFFFE"/>
</g>
<g id="Fill 401">
<use xlink:href="#path4_fill" transform="translate(5432 3422)" fill="#FFFFFE"/>
</g>
<g id="Fill 402">
<use xlink:href="#path5_fill" transform="translate(5359 3354)" fill="#FFFFFE"/>
</g>
<g id="Fill 403">
<use xlink:href="#path6_fill" transform="translate(5435 3354)" fill="#FFFFFE"/>
</g>
<g id="Fill 404">
<use xlink:href="#path7_fill" transform="translate(5397 3373)" fill="#FFFFFE"/>
</g>
<g id="Fill 405">
<use xlink:href="#path8_fill" transform="translate(5378 3364)" fill="#FFFFFE"/>
</g>
<g id="Fill 406">
<use xlink:href="#path9_fill" transform="translate(5416 3364)" fill="#FFFFFE"/>
</g>
<g id="Fill 407">
<use xlink:href="#path10_fill" transform="translate(5361 3370)" fill="#FFFFFE"/>
</g>
<g id="Fill 408">
<use xlink:href="#path11_fill" transform="translate(5436 3370)" fill="#FFFFFE"/>
</g>
<g id="Fill 409">
<use xlink:href="#path12_fill" transform="translate(5398 3389)" fill="#FFFFFE"/>
</g>
<g id="Fill 410">
<use xlink:href="#path13_fill" transform="translate(5380 3380)" fill="#FFFFFE"/>
</g>
<g id="Fill 411">
<use xlink:href="#path14_fill" transform="translate(5417 3380)" fill="#FFFFFE"/>
</g>
<g id="Fill 412">
<use xlink:href="#path15_fill" transform="translate(5362 3383)" fill="#FFFFFE"/>
</g>
<g id="Fill 413">
<use xlink:href="#path16_fill" transform="translate(5438 3383)" fill="#FFFFFE"/>
</g>
<g id="Fill 414">
<use xlink:href="#path17_fill" transform="translate(5400 3402)" fill="#FFFFFE"/>
</g>
<g id="Fill 415">
<use xlink:href="#path18_fill" transform="translate(5381 3393)" fill="#FFFFFE"/>
</g>
<g id="Fill 416">
<use xlink:href="#path19_fill" transform="translate(5419 3393)" fill="#FFFFFE"/>
</g>
<g id="Fill 417">
<use xlink:href="#path20_fill" transform="translate(5395 3316)" fill="#FFFFFE"/>
</g>
<g id="Fill 418">
<use xlink:href="#path21_fill" transform="translate(5395 3335)" fill="#FFFFFE"/>
</g>
<g id="Fill 419">
<use xlink:href="#path22_fill" transform="translate(5395 3354)" fill="#FFFFFE"/>
</g>
<g id="Fill 420">
<use xlink:href="#path23_fill" transform="translate(5433 3335)" fill="#FFFFFE"/>
</g>
<g id="Fill 421">
<use xlink:href="#path24_fill" transform="translate(5358 3335)" fill="#FFFFFE"/>
</g>
<g id="Fill 422">
<use xlink:href="#path25_fill" transform="translate(5376 3326)" fill="#FFFFFE"/>
</g>
<g id="Fill 423">
<use xlink:href="#path26_fill" transform="translate(5376 3344)" fill="#FFFFFE"/>
</g>
<g id="Fill 424">
<use xlink:href="#path27_fill" transform="translate(5414 3326)" fill="#FFFFFE"/>
</g>
<g id="Fill 425">
<use xlink:href="#path28_fill" transform="translate(5414 3344)" fill="#FFFFFE"/>
</g>
</g>
</g>
<defs>
<path id="path0_fill" fill-rule="evenodd" d="M 14.3817 8.56164L 14.3817 8.49705C 14.3817 4.58201 11.5731 1.46313 7.97064 1.46313C 4.27582 1.46313 1.61816 4.61489 1.61816 8.43599L 1.61816 8.49705C 1.61816 12.4144 4.42785 15.5333 8.0292 15.5333C 11.7251 15.5333 14.3817 12.3827 14.3817 8.56164ZM 0 8.56165L 0 8.49706C 0 3.94674 3.38964 0 8.02928 0C 12.643 0 16 3.88333 16 8.436L 16 8.49706C 16 13.0497 12.6104 17 7.97072 17C 3.35923 17 0 13.1143 0 8.56165Z"/>
<path id="path1_fill" fill-rule="evenodd" d="M 0 8.56165L 0 8.49706C 0 3.94674 3.65424 0 8.33346 0C 11.4096 0 13.3331 1.39856 14.8723 2.99206L 13.7504 4.13463C 12.34 2.70553 10.7357 1.46315 8.30036 1.46315C 4.58346 1.46315 1.69885 4.55032 1.69885 8.436L 1.69885 8.49706C 1.69885 12.4145 4.67922 15.5333 8.42922 15.5333C 10.7357 15.5333 12.5303 14.3579 13.91 12.8278L 15 13.7837C 13.3331 15.6602 11.3446 17 8.33346 17C 3.62114 17 0 13.1143 0 8.56165Z"/>
<path id="path2_fill" fill-rule="evenodd" d="M 13.3298 7.73378C 13.109 4.45638 11.2507 1.43027 7.56434 1.43027C 4.38002 1.43027 1.92438 4.1358 1.63965 7.73378L 13.3298 7.73378ZM 0 8.53229L 0 8.46536C 0 3.75416 3.27962 0 7.62609 0C 12.133 0 15 3.69193 15 8.49706C 15 8.78476 15 8.88105 14.9686 9.1347L 1.63981 9.1347C 1.92454 13.1789 4.78926 15.5345 7.94336 15.5345C 10.4292 15.5345 12.133 14.4213 13.4543 12.9887L 14.5258 13.9445C 12.8872 15.7271 10.9673 17 7.87945 17C 3.65732 17 0 13.5922 0 8.53229Z"/>
<path id="path3_fill" fill-rule="evenodd" d="M 12.5027 10.4894L 12.5027 8.626C 11.1354 8.27462 9.32335 7.8913 7.00078 7.8913C 3.56327 7.8913 1.65381 9.42933 1.65381 11.7068L 1.65381 11.7707C 1.65381 14.144 3.88015 15.5235 6.36468 15.5235C 9.67309 15.5235 12.5027 13.472 12.5027 10.4894ZM 0 11.8653L 0 11.8026C 0 8.40121 2.89412 6.47749 7.09682 6.47749C 9.35368 6.47749 10.9134 6.76735 12.4731 7.18616L 12.4731 6.47749C 12.4731 3.1719 10.4663 1.47415 7.12734 1.47415C 5.15215 1.47415 3.53139 2.02074 2.03621 2.79094L 1.46232 1.40908C 3.24503 0.577354 4.99606 0 7.22357 0C 9.41705 0 11.1669 0.608115 12.3452 1.79595C 13.4273 2.88677 14 4.39404 14 6.41478L 14 16.6143L 12.4731 16.6143L 12.4731 13.8873C 11.3594 15.4584 9.35368 17 6.26825 17C 3.24503 17 0 15.2679 0 11.8653Z"/>
<path id="path4_fill" fill-rule="evenodd" d="M 0 0.36636L 1.57262 0.36636L 1.57262 3.27802C 2.65845 1.43717 4.4851 0 7.46493 0C 11.5956 0 14 2.69682 14 6.43731L 14 16L 12.4309 16L 12.4309 6.71322C 12.4309 3.49399 10.5405 1.37724 7.24162 1.37724C 4.0373 1.37724 1.57262 3.70883 1.57262 6.95633L 1.57262 16L 0 16L 0 0.36636Z"/>
<path id="path5_fill" fill-rule="evenodd" d="M 10 4.99879C 10 7.76008 7.76316 10 5 10C 2.23926 10 0 7.76008 0 4.99879C 0 2.23751 2.23926 0 5 0C 7.76316 0 10 2.23751 10 4.99879Z"/>
<path id="path6_fill" fill-rule="evenodd" d="M 10 4.99879C 10 7.76008 7.76074 10 5.00121 10C 2.23926 10 0 7.76008 0 4.99879C 0 2.23751 2.23926 0 5.00121 0C 7.76074 0 10 2.23751 10 4.99879Z"/>
<path id="path7_fill" fill-rule="evenodd" d="M 10 4.9994C 10 7.76035 7.76101 10 5.0006 10C 2.23899 10 0 7.76035 0 4.9994C 0 2.23845 2.23899 0 5.0006 0C 7.76101 0 10 2.23845 10 4.9994Z"/>
<path id="path8_fill" fill-rule="evenodd" d="M 10 5C 10 7.76008 7.76222 10 4.9994 10C 2.23778 10 0 7.76008 0 5C 0 2.23751 2.23778 0 4.9994 0C 7.76222 0 10 2.23751 10 5Z"/>
<path id="path9_fill" fill-rule="evenodd" d="M 10 5C 10 7.76008 7.76101 10 5.0006 10C 2.23778 10 0 7.76008 0 5C 0 2.23751 2.23778 0 5.0006 0C 7.76101 0 10 2.23751 10 5Z"/>
<path id="path10_fill" fill-rule="evenodd" d="M 6 3.00108C 6 4.65502 4.65802 6 3.00162 6C 1.34306 6 0 4.65502 0 3.00108C 0 1.34282 1.34306 0 3.00162 0C 4.65802 0 6 1.34282 6 3.00108Z"/>
<path id="path11_fill" fill-rule="evenodd" d="M 6 3.00108C 6 4.65502 4.6561 6 3 6C 1.34282 6 0 4.65502 0 3.00108C 0 1.34282 1.34282 0 3 0C 4.6561 0 6 1.34282 6 3.00108Z"/>
<path id="path12_fill" fill-rule="evenodd" d="M 6 2.99784C 6 4.65502 4.65551 6 3.00108 6C 1.34557 6 0 4.65502 0 2.99784C 0 1.34174 1.34557 0 3.00108 0C 4.65551 0 6 1.34174 6 2.99784Z"/>
<path id="path13_fill" fill-rule="evenodd" d="M 6 3.00108C 6 4.65778 4.65718 6 3.00108 6C 1.3439 6 0 4.65778 0 3.00108C 0 1.3433 1.3439 0 3.00108 0C 4.65718 0 6 1.3433 6 3.00108Z"/>
<path id="path14_fill" fill-rule="evenodd" d="M 6 3.00108C 6 4.65778 4.65527 6 3.00162 6C 1.34365 6 0 4.65778 0 3.00108C 0 1.3433 1.34365 0 3.00162 0C 4.65527 0 6 1.3433 6 3.00108Z"/>
<path id="path15_fill" fill-rule="evenodd" d="M 3 1.49841C 3 2.32837 2.32885 3 1.50053 3C 0.67115 3 0 2.32837 0 1.49841C 0 0.670563 0.67115 0 1.50053 0C 2.32885 0 3 0.670563 3 1.49841Z"/>
<path id="path16_fill" fill-rule="evenodd" d="M 3 1.49841C 3 2.32837 2.32731 3 1.50053 3C 0.670563 3 0 2.32837 0 1.49841C 0 0.670563 0.670563 0 1.50053 0C 2.32731 0 3 0.670563 3 1.49841Z"/>
<path id="path17_fill" fill-rule="evenodd" d="M 3 1.49894C 3 2.32755 2.32731 3 1.50053 3C 0.671626 3 0 2.32755 0 1.49894C 0 0.670326 0.671626 0 1.50053 0C 2.32731 0 3 0.670326 3 1.49894Z"/>
<path id="path18_fill" fill-rule="evenodd" d="M 3 1.5C 3 2.32755 2.32779 3 1.49947 3C 0.672212 3 0 2.32755 0 1.5C 0 0.670326 0.672212 0 1.49947 0C 2.32779 0 3 0.670326 3 1.5Z"/>
<path id="path19_fill" fill-rule="evenodd" d="M 3 1.5C 3 2.32755 2.32731 3 1.50053 3C 0.6695 3 0 2.32755 0 1.5C 0 0.670326 0.6695 0 1.50053 0C 2.32731 0 3 0.670326 3 1.5Z"/>
<path id="path20_fill" fill-rule="evenodd" d="M 13 6.5C 13 10.0908 10.0894 13 6.50175 13C 2.91064 13 0 10.0908 0 6.5C 0 2.91038 2.91064 0 6.50175 0C 10.0894 0 13 2.91038 13 6.5Z"/>
<path id="path21_fill" fill-rule="evenodd" d="M 13 6.5C 13 10.0901 10.0894 13 6.50175 13C 2.91064 13 0 10.0901 0 6.5C 0 2.91102 2.91064 0 6.50175 0C 10.0894 0 13 2.91102 13 6.5Z"/>
<path id="path22_fill" fill-rule="evenodd" d="M 13 6.50116C 13 10.0896 10.0894 13 6.50175 13C 2.91064 13 0 10.0896 0 6.50116C 0 2.91038 2.91064 0 6.50175 0C 10.0894 0 13 2.91038 13 6.50116Z"/>
<path id="path23_fill" fill-rule="evenodd" d="M 13 6.5C 13 10.0901 10.0899 13 6.50058 13C 2.91012 13 0 10.0901 0 6.5C 0 2.91102 2.91012 0 6.50058 0C 10.0899 0 13 2.91102 13 6.5Z"/>
<path id="path24_fill" fill-rule="evenodd" d="M 6.50058 13C 2.91064 13 0 10.0901 0 6.5C 0 2.91102 2.91064 0 6.50058 0C 10.0905 0 13 2.91102 13 6.5C 13 10.0901 10.0905 13 6.50058 13Z"/>
<path id="path25_fill" fill-rule="evenodd" d="M 13 6.5C 13 10.0896 10.0903 13 6.5 13C 2.90973 13 0 10.0896 0 6.5C 0 2.90805 2.90973 0 6.5 0C 10.0903 0 13 2.90805 13 6.5Z"/>
<path id="path26_fill" fill-rule="evenodd" d="M 13 6.49942C 13 10.0894 10.0903 13 6.5 13C 2.90973 13 0 10.0894 0 6.49942C 0 2.91064 2.90973 0 6.5 0C 10.0903 0 13 2.91064 13 6.49942Z"/>
<path id="path27_fill" fill-rule="evenodd" d="M 13 6.5C 13 10.0896 10.0894 13 6.49942 13C 2.90947 13 0 10.0896 0 6.5C 0 2.90805 2.90947 0 6.49942 0C 10.0894 0 13 2.90805 13 6.5Z"/>
<path id="path28_fill" fill-rule="evenodd" d="M 13 6.49942C 13 10.0894 10.0894 13 6.49942 13C 2.90947 13 0 10.0894 0 6.49942C 0 2.91064 2.90947 0 6.49942 0C 10.0894 0 13 2.91064 13 6.49942Z"/>
</defs>
</svg>
