<svg height="133" viewBox="0 0 257 133" width="257" xmlns="http://www.w3.org/2000/svg"><path d="m174.321955 51.2469204c3.838975 2.8238591 4.836699 5.5264994 4.836699 13.1101344v25.7318112h-8.48698l.009042-25.4057746c0-2.2625506.065109-4.3226719-.991092-5.8800042-.984461-1.464179-2.944339-2.0619128-4.344769-2.0063791-3.168602.1385357-4.877693 2.3563011-4.877693 4.3710401v28.9211178h-8.4912v-55.4166667h8.4912v16.9915225c1.807356-1.4241709 4.409878-2.2912132 7.125736-2.3234586 2.508476-.0412024 5.082663.6968584 6.729057 1.9066572zm-59.652956 12.6675957c.110929 1.1233719.239655 5.1095109.239655 6.5733167 0 3.2446295-.180335 5.9470864-.215927 6.5721159-.544563 8.727597-5.537574 14.2603988-13.371446 14.2603988-7.8392119 0-12.8357824-5.435535-13.3761926-14.2561959-.040338-.6700604-.2444007-3.3316893-.21652-6.5763188.0427108-4.4442538.1672839-5.8318072.2313501-6.5865258.8506568-9.4498933 5.5909624-14.4513299 13.3613625-14.4513299 5.481219 0 12.164866 2.5529542 13.347718 14.464539zm-8.078867 6.5733167c0-5.458951-.212367-7.7339142-.21652-7.7819472-.036185-3.0470937-1.611146-6.1248085-5.038095-6.1248085-3.4216092 0-4.9971632 3.0777148-5.039874 6.1530279-.0041524.0198136-.2159268 2.2947768-.2159268 7.7537278 0 5.4595514.2117744 7.3004163.2159268 7.3178283.1483014 2.9564315 1.5625035 6.3787831 5.039874 6.3787831 3.482117 0 4.757509-3.2080044 5.042248-6.2292804.042711-.4749263.212367-2.0077796.212367-7.467331zm96.304343 6.1488251h8.140043c-.532915 9.2481546-5.675389 14.6836896-13.362604 14.6836896-7.69384 0-12.83812-5.5808348-13.35598-14.2561959-.036732-.6244291-.214972-3.3316893-.214972-6.5763188 0-4.5499264.145121-5.7345404.224004-6.5823229.939977-9.5063321 5.713927-14.4555328 13.346948-14.4555328 3.980299 0 7.337358 1.5370561 9.717108 4.4610653 2.04615 2.5205319 3.388974 6.4286173 3.645496 9.9986704.158368 2.3253978.193294 3.4313578.219789 4.092412.051786 1.6877597.019269 4.4898851.019269 4.4898851h-18.903107c-.00843 3.4271549.154756 4.4292435.207144 5.3328644.237252 3.1695779 1.578872 6.3595699 5.094301 6.3595699 4.129033 0 4.91606-4.2010867 5.149097-6.1680383.088518-.7595219.073464-1.379748.073464-1.379748zm-10.466801-11.1610691h10.584223c.009033-.8195632-.074066-1.5940954-.154756-2.7498896-.143315-2.2017128-1.093528-6.1770444-5.165958-6.1446221-3.43233.0282194-4.922082 2.7871151-5.165958 6.1248085-.036732.5379697-.036732.9240349-.097551 2.7697032zm7.164019-65.28487098 57.408307 66.93413128-57.413042 66.0658689h-141.9708963l-57.6160617-66.2878041 57.6095509-66.71219608zm-138.7089731 6.70999925-51.99070931 60.21350743 51.98656611 59.7932475h135.4500093l51.774668-59.5907906-51.787098-60.41596433zm21.483236 79.80786433c.0645803 1.8919942.4176979 3.3802846.4176979 3.3802846h-8.237832s-.3442305-1.5389005-.4088107-3.3355594l-.86028-12.6872485c-.4514692-6.462205-3.4411197-8.7643765-6.0912796-8.7643765h-4.5816423l-.0047399 24.7824765h-8.2336847v-54.1804773h12.747192c7.8059146.0870965 14.4339805 3.8051741 14.476639 14.4062268.0219217 6.9641866-2.8930764 10.299746-5.1492375 11.6473873 3.1205884 1.8137251 4.6936209 5.3399551 5.0656979 11.3396072 0 0 .8602799 13.4163872.8602799 13.4116793zm-19.7621467-43.8195284v15.4225485h4.3505754c5.0254094 0 6.0871323-4.1894579 6.3223465-6.5851993.0319939-.2877714.0450285-.541999.0450285-1.2740801 0-.6314494-.0367338-.9692425-.0450285-1.2670182-.1066462-4.0340966-2.4333124-6.2962509-6.7264174-6.2962509zm76.0980818 33.3638653h8.307905c.028033.2383632-.017297.4665193-.04533.8069522-.783731 9.2781491-5.284517 14.2885777-13.448678 14.2603584-7.880849-.0240164-12.905315-5.4355195-13.444502-14.2561555-.040559-.6700585-.245736-3.3316799-.217703-6.5763002.042944-4.4442411.164022-5.8317906.228439-6.5865071.859479-9.4498665 5.621509-14.451289 13.433766-14.451289 5.515342 0 12.502714 2.795513 13.448678 14.3426146.021472.2749882.04533.7421079.069188 1.2974879h-8.303133c-.060838-1.6187077-.129429-2.3560122-.129429-2.3842315-.041751-3.0470851-1.532271-6.1482072-5.072182-6.1247912-3.4409.0282193-4.774555 2.7048509-5.069796 6.1530105-.075152.8916101-.249911 2.2947703-.213528 7.7537058.032208 4.6934118-.003579 5.9254548.148515 7.5129412.254683 2.620193 1.640228 6.1836314 5.134809 6.1836314 3.751053 0 4.834796-3.2878499 5.072182-6.378765.032208-.3854637.068591-.9366409.100799-1.5526625z" fill-rule="evenodd" transform="translate(0 -.19)"/></svg>