<svg xmlns="http://www.w3.org/2000/svg" width="326" height="37" viewBox="0 0 326 37">
  <path fill-rule="evenodd" d="M40.8490264,10.5555906 C42.2355979,11.0062263 43.9057863,12.677045 44.0274264,14.3882003 L48.0207523,10.5555906 C48.0207523,10.5555906 49.2050104,11.289213 50.1806525,12.3505704 C50.9968389,13.208354 51.5262571,14.4279066 51.5262571,15.7741415 L51.5262571,22.9439766 C51.5262571,24.454079 52.6651365,24.7786628 53.1138815,25.1467345 L49.854178,28.5715661 C49.854178,28.5715661 48.6724409,27.8770198 47.6545714,26.7746955 C46.8427968,25.8803569 46.3518244,24.8593361 46.3518244,23.517513 L46.3518244,17.2420165 C46.3518244,15.2837994 45.2917275,14.836315 44.516508,14.5111009 L44.0274264,14.9176185 L44.0274264,23.1494413 C44.0274264,24.6160558 44.8858402,24.8208902 45.2482396,25.1870711 L41.8681564,28.5715661 C41.8681564,28.5715661 38.853624,26.8975961 38.853624,24.8208902 L38.853624,16.8739448 C38.853624,15.2031261 38.0380678,14.7569022 37.2653693,14.2665601 L40.8490264,10.5555906 Z M44.8026459,14.1852566 C45.6976148,14.6333713 46.7180053,15.2031261 46.7180053,17.0775187 L46.7180053,23.4765461 C46.7180053,25.7164893 48.2659233,27.0608334 49.8144716,28.1190396 L50.5493545,27.3438201 C49.3663569,26.5730124 47.6967988,25.3919056 47.6967988,23.434949 L47.6967988,16.6697406 C47.6967988,14.7146748 46.4306069,13.7365117 45.6604295,13.4106674 L44.8026459,14.1852566 Z M37.7519299,14.1852566 C38.5681163,14.5911439 39.2198049,15.4073303 39.2198049,16.9149117 L39.2198049,24.7376959 C39.2198049,26.08204 40.4028025,27.1824736 41.8681564,28.1190396 L42.5608119,27.3879382 C41.4622691,26.5730124 40.197968,25.9597696 40.197968,24.371515 L40.197968,16.7138588 C40.197968,14.7569022 39.341445,13.7774785 38.5258889,13.4516342 L37.7519299,14.1852566 Z M26.1809908,28.5274479 C24.8366467,27.4705023 22.5935522,25.7164893 22.5935522,22.0899746 C22.5935522,19.2367887 24.9967327,16.4251998 29.8068752,16.8739448 L30.1736864,16.8739448 C30.1736864,16.2203654 30.3356632,14.4695038 29.1955233,14.2237025 C29.1551866,14.2665601 27.8121031,15.5705676 26.0574599,15.5705676 C24.3456743,15.5705676 23.6536491,14.7972388 23.2862077,14.3882003 L27.2801638,10.5555906 C27.8927763,11.5772417 28.8299726,12.4722106 30.1320893,12.4722106 C30.8234842,12.4722106 31.7625713,11.7820761 32.7010281,10.5555906 C32.6178338,10.5555906 35.3462283,11.0471932 35.3462283,15.6096437 L35.3462283,22.4139282 C35.3462283,23.8843242 36.6105294,24.6992501 37.0580139,24.9431606 L33.4743568,28.5274479 C33.4743568,28.5274479 30.2121323,26.85852 30.2121323,24.6576529 L30.2121323,24.371515 L26.1809908,28.5274479 Z M30.1736864,23.8843242 L30.1736864,17.3214292 C29.8068752,17.3636566 28.3824882,17.1588222 27.6885722,17.6063066 C27.1975998,17.9334115 26.2206972,18.9519112 26.6284752,20.8275643 C27.0343625,22.7422935 28.9919494,24.0437799 29.6442682,24.371515 L30.1736864,23.8843242 Z M23.2862077,20.256549 C23.0826338,20.6220996 22.9609936,21.600893 22.9609936,22.2513211 C23.003221,25.633295 25.2828706,27.3438201 26.1393936,28.0389966 L27.0772202,27.0608334 C26.1393936,26.450742 24.9589171,25.3919056 24.388532,24.371515 C23.8975596,23.517513 23.1626768,21.8050972 23.3700322,20.1746152 L23.2862077,20.256549 Z M29.5617042,13.9804222 C30.4579336,14.4279066 30.5411279,15.1199318 30.5411279,16.6281435 L30.5411279,24.454079 C30.5411279,25.8803569 31.9661452,27.2234404 33.4340202,28.1190396 L34.2489461,27.3060045 C33.1485125,26.6536856 31.5174002,25.7977928 31.5174002,24.2101685 L31.5174002,16.7138588 C31.5174002,14.7569022 31.3547932,13.7365117 30.3356632,13.2877667 L29.5617042,13.9804222 Z M25.8954831,14.4279066 C25.2828706,14.2665601 24.5914757,13.5739046 24.5914757,13.5739046 L23.7759195,14.3484939 C24.01983,14.7569022 24.9179502,15.2031261 25.9767866,15.241572 C26.7097787,15.2837994 27.6053779,14.8772818 27.9337432,14.7146748 L27.8927763,14.5911439 C27.4837377,14.7146748 26.6284752,14.6333713 25.8954831,14.4279066 Z M93.4158424,15.0008128 L93.4158424,22.6603597 C93.4158424,24.1698319 94.8849779,24.8208902 95.2505286,25.0648007 L91.6637202,28.6503486 C91.6637202,28.6503486 88.2414097,26.9814207 88.2414097,24.902824 L88.2414097,16.954618 C88.2414097,15.3682542 87.3451803,14.7972388 86.6525248,14.3484939 L90.2374424,10.5990785 C91.4614068,11.0062263 93.0093248,12.3505704 93.3345389,13.8568913 L96.7184036,10.5990785 L99.5690685,13.5739046 L95.5763729,17.2420165 L93.4158424,15.0008128 Z M87.1422366,14.2665601 C87.9174562,14.6749685 88.6082209,15.4861128 88.6082209,16.9955849 L88.6082209,24.6992501 C88.6082209,26.2868744 90.3609733,27.5083179 91.6233836,28.2009733 L92.3979729,27.4282749 C91.2975393,26.8156624 89.5857538,26.0013668 89.5857538,24.4118516 L89.5857538,16.7913808 C89.5857538,14.836315 88.7708279,14.14492 87.7939252,13.6148715 L87.1422366,14.2665601 Z M95.6160792,16.7516744 L96.4316354,15.9796062 L94.1916922,13.6545779 L93.4158424,14.4279066 L95.6160792,16.7516744 Z M138.118907,10.5555906 C138.688032,11.0875298 139.219341,11.8224127 140.725031,11.9446831 C141.25634,11.98565 141.989963,11.7820761 142.479044,11.3736678 L142.602575,11.4537108 C142.518751,12.7999456 141.539957,14.3062665 140.359481,15.0008128 C139.706532,15.3682542 138.118907,15.8957816 137.141374,15.3247663 L137.141374,22.986204 C137.141374,23.5956652 137.752726,24.454079 138.607989,24.454079 C139.380687,24.454079 139.787205,23.9643672 140.359481,23.434949 L140.643728,23.7210869 L135.834846,28.5274479 C135.834846,28.5274479 134.290079,27.8770198 133.268428,26.7746955 C132.454763,25.8803569 131.96379,25.1051374 131.96379,23.4765461 L131.96379,17.6063066 C131.96379,16.9149117 131.84215,16.3029294 131.108528,16.0987253 L131.108528,15.9796062 L133.350362,13.7774785 C133.310025,13.7365117 136.284851,14.1026926 138.118907,10.5555906 Z M131.639837,15.9373788 C132.413166,16.3854935 132.331232,17.1191158 132.331232,17.5672305 L132.331232,23.517513 C132.331232,25.7574562 133.635239,27.0217573 135.795139,28.1190396 L136.487165,27.3879382 C135.144081,26.613349 133.310025,25.7164893 133.310025,23.517513 L133.310025,17.0775187 C133.310025,16.7138588 133.146158,15.5705676 132.290895,15.2837994 L131.639837,15.9373788 Z M137.141374,13.6955448 L137.141374,14.9573248 C137.588859,15.1199318 137.873106,15.2031261 138.364078,15.2031261 C139.015137,15.2031261 139.951703,14.836315 140.439524,14.5111009 L140.439524,14.4279066 C139.706532,14.4695038 139.301905,14.5514375 138.607989,14.3882003 C138.037604,14.2665601 137.466588,13.8991187 137.141374,13.6955448 Z M82.3327244,0.981944719 C80.7444697,3.58932938 78.0538908,5.58599233 74.5112006,5.58599233 C71.535114,5.58599233 70.8809044,4.6903932 68.4373872,4.6903932 C66.2377806,4.6903932 64.8915458,5.99566118 65.0547831,7.29777786 L64.9734795,7.29777786 C64.5657015,6.72928355 64.2808241,5.91372741 64.2808241,4.97590087 C64.3217909,2.89793442 66.360051,1.02354186 69.210716,0.778370814 C71.8206217,0.575427169 76.5469397,1.75527346 78.8688167,1.71619735 C80.296355,1.67523046 81.5997322,1.3096798 82.1688568,0.858413805 L82.3327244,0.981944719 Z M66.4010179,4.77169671 C66.971403,4.44648267 67.7441015,4.36517916 68.3970506,4.32295175 C70.1491728,4.24164824 72.3487794,5.21918114 74.5112006,5.21918114 C76.3421053,5.21918114 77.7280465,4.56686228 78.2171281,4.36517916 L78.1761612,4.20068136 C77.0769881,4.28198487 75.9343272,4.20068136 74.4677127,3.95614057 C72.3487794,3.58932938 70.0256418,3.14310547 69.1710096,3.14310547 C67.5821247,3.14310547 66.5226581,3.79416381 66.2793778,4.77169671 L66.4010179,4.77169671 Z M91.1349323,0.614503274 C90.5639169,3.75067588 87.9974992,5.50720986 85.1865406,5.99566118 C84.2077472,6.1582682 83.4350487,6.11604079 82.3736912,5.91372741 L82.3736912,9.8648259 L88.1607364,9.8648259 L83.1489108,15.3682542 L82.3736912,15.3682542 L82.3736912,19.562633 C82.3736912,21.1937452 81.6406991,23.517513 80.2547579,25.5942189 C79.0326842,27.4705023 77.0769881,28.9339655 75.4477666,30.0369201 C75.4477666,30.0369201 71.777764,26.4110356 67.6640585,26.4110356 C65.7468083,26.4110356 62.4883653,27.4282749 62.4883653,30.403101 C62.4883653,32.8472484 65.3390302,35.2516894 69.3336166,35.2516894 C72.0229351,35.2516894 73.2859756,34.3957966 74.1847261,33.9464214 L74.4280063,34.272896 C73.8185451,34.6800438 71.9832287,35.7811076 69.2535736,35.7811076 C64.729569,35.7811076 61.102424,33.3779271 61.102424,29.0165295 C61.102424,24.4118516 65.6264287,21.438286 70.2311065,21.438286 C72.3071822,21.438286 73.4908101,21.7231634 76.7530346,23.1897779 L76.7530346,7.419418 L78.9910871,5.26140855 C79.7656763,5.0553136 80.7841761,4.81266359 82.0888138,3.71096952 C83.4350487,2.5708296 84.3703542,0.858413805 84.3703542,0.858413805 C85.1865406,1.63174254 87.0590424,2.36662543 87.9552717,2.32628881 C89.7893277,2.20464867 90.4019402,1.43005941 90.9300979,0.532569504 L91.1349323,0.614503274 Z M78.2171281,6.56352523 L77.1160642,7.62488268 L77.1160642,23.434949 C77.1160642,23.434949 77.4835057,23.6788595 77.6883401,23.840206 C77.8912838,24.0072248 78.2171281,24.371515 78.2171281,24.371515 L78.2171281,6.56352523 Z M82.7014263,3.71096952 L82.3327244,4.03681382 L82.3327244,5.42401557 C82.9037397,5.62695921 84.0842162,5.79019649 85.1865406,5.62695921 C86.3260502,5.42401557 87.4264838,4.93367347 87.6300577,4.77169671 L87.6703943,4.64942631 C85.8363384,4.81266359 84.3703542,4.56686228 82.7014263,3.71096952 Z M63.4652679,27.4282749 L63.5068651,27.5083179 C64.5259951,26.4110356 66.4413545,26.0417034 67.6640585,26.0013668 C71.2483458,25.9206935 74.6712866,28.7738795 75.5278096,29.5459477 L76.7530346,28.6503486 C74.9586851,26.7746955 72.0229351,24.902824 67.907969,24.902824 C66.360051,24.902824 64.241748,25.7574562 63.4652679,27.4282749 Z M82.3736912,15.0008128 L82.9837827,15.0008128 L84.0842162,13.7774785 L82.3736912,13.7774785 L82.3736912,15.0008128 Z M149.527239,22.5790562 C149.527239,24.1698319 150.995114,24.7376959 151.361926,24.9803459 L147.776378,28.5274479 C147.776378,28.5274479 144.352807,26.8975961 144.352807,24.8208902 L144.352807,16.954618 C144.352807,15.3682542 143.455947,14.7972388 142.762661,14.3484939 L146.3501,10.5555906 C147.736671,11.0875298 149.527239,12.4722106 149.527239,14.5111009 L149.527239,22.5790562 Z M143.251743,14.2665601 C144.026962,14.6749685 144.718357,15.4861128 144.718357,16.9955849 L144.718357,24.7376959 C144.718357,26.164604 146.512707,27.4282749 147.736671,28.1190396 L148.50937,27.3060045 C147.408936,26.4904483 145.697151,25.7574562 145.697151,24.1698319 L145.697151,16.7913808 C145.697151,14.9573248 144.841888,13.9804222 143.945659,13.6148715 L143.251743,14.2665601 Z M157.433218,28.5274479 C157.392881,28.4877415 157.351284,28.5274479 157.351284,28.5274479 C156.90443,27.99866 156.170177,27.3060045 154.743899,27.1824736 C154.214481,27.1427672 152.82854,27.1024306 152.299122,28.5274479 L152.175591,28.5274479 C151.68777,26.6536856 153.276024,24.5347523 155.111341,23.8843242 C157.14708,23.1494413 158.815378,23.7589025 158.815378,23.7589025 L158.815378,19.1945613 C157.107374,19.7674674 155.111341,20.8275643 153.724769,20.5407961 C153.153754,20.4178955 152.705009,20.050454 152.705009,19.1176696 C152.705009,19.1176696 152.705009,16.0590189 152.705009,16.018052 C152.705009,15.7344351 152.705009,15.6506106 152.626227,15.4861128 C152.502696,15.2837994 152.258785,15.2031261 152.258785,15.2031261 L152.258785,15.0795952 L153.96994,13.4106674 C153.96994,13.4106674 157.02544,13.6148715 159.42862,10.5555906 C159.998375,11.0471932 160.527793,11.8224127 162.037265,11.9446831 C162.565423,11.98565 163.829094,11.8224127 164.318176,11.3314404 L164.441706,11.4127439 C164.360403,12.757088 162.60702,14.4279066 161.385577,14.9573248 C159.42862,15.8144781 157.677128,15.0795952 157.677128,15.0795952 L157.677128,18.1382459 C159.956778,17.7708044 162.321513,16.4655365 163.179926,16.7516744 C163.707454,16.9149117 164.033298,17.1191158 164.033298,18.1760615 L164.033298,22.5393498 C164.033298,22.9439766 164.033298,23.7589025 164.033298,23.7589025 C164.033298,23.7589025 163.054505,23.8004996 162.483489,23.9643672 C162.037265,24.0860073 161.546293,24.2908417 160.814562,24.7376959 C158.612434,26.08204 157.433218,28.4877415 157.433218,28.5274479 Z M157.351284,27.9583233 C157.351284,27.9583233 157.514521,27.6702946 157.634901,27.4705023 C157.758432,27.2656678 157.962636,26.9814207 157.962636,26.9814207 C157.554858,26.6536856 156.863463,25.9597696 155.599162,25.9597696 C153.96994,25.9597696 153.438631,26.7362496 153.357328,26.9373025 L153.438631,26.9814207 C154.172884,26.6536856 155.111341,26.8156624 155.925636,27.0608334 C156.618292,27.2656678 157.107374,27.6702946 157.351284,27.9583233 Z M157.677128,13.3281033 L157.677128,14.6749685 C158.246253,14.8772818 159.102776,14.9573248 159.591858,14.9573248 C160.245437,14.9573248 161.221079,14.7569022 161.712051,14.3882003 L161.712051,14.3062665 C160.853638,14.3062665 160.201949,14.4279066 159.387023,14.1852566 C158.695628,13.9804222 157.962636,13.5341983 157.677128,13.3281033 Z M152.664672,15.0795952 C153.074341,15.3682542 153.074341,15.6506106 153.074341,16.0987253 L153.074341,18.3827867 C153.074341,19.1554851 153.074341,19.6439365 153.317622,19.9319652 C153.807333,20.5010898 154.98781,20.1349088 154.98781,20.1349088 C154.214481,19.6861639 154.051244,19.2802766 154.051244,18.4218628 L154.051244,15.7741415 C154.051244,15.4073303 154.051244,14.6333713 153.317622,14.4695038 L152.664672,15.0795952 Z M159.712867,24.2101685 C159.956778,24.3299178 160.161612,24.5347523 160.161612,24.5347523 L160.161612,19.562633 C160.161612,19.3590591 160.201949,19.0332148 160.041863,18.9096838 C159.956778,18.8699775 159.877995,18.7880437 159.797953,18.7880437 L159.182819,19.0332148 L159.182819,23.9643672 C159.182819,23.9643672 159.509294,24.0860073 159.712867,24.2101685 Z M147.614401,2.61116622 L150.221155,5.21918114 L146.3501,9.00893313 L143.781791,6.44188509 L147.614401,2.61116622 Z M144.3131,6.44188509 L146.3501,8.48077545 L147.205362,7.66332853 L145.126135,5.58599233 L144.3131,6.44188509 Z M117.782946,10.5555906 C119.169517,11.0062263 120.840966,12.677045 120.964497,14.3882003 L124.957823,10.5555906 C124.957823,10.5555906 126.137039,11.289213 127.114572,12.3505704 C127.929498,13.208354 128.460176,14.4279066 128.460176,15.7741415 L128.460176,22.9439766 C128.460176,24.454079 129.604098,24.7786628 130.050322,25.1467345 L126.790618,28.5715661 C126.790618,28.5715661 125.608881,27.8770198 124.589121,26.7746955 C123.773565,25.8803569 123.285744,24.8593361 123.285744,23.517513 L123.285744,17.2420165 C123.285744,15.2837994 122.227537,14.836315 121.450427,14.5111009 L120.964497,14.9176185 L120.964497,23.1494413 C120.964497,24.6160558 121.816608,24.8208902 122.18531,25.1870711 L118.804597,28.5715661 C118.804597,28.5715661 115.787543,26.8975961 115.787543,24.8208902 L115.787543,16.8739448 C115.787543,15.2031261 114.972617,14.7569022 114.198028,14.2665601 L117.782946,10.5555906 Z M121.737826,14.1852566 C122.633425,14.6333713 123.651925,15.2031261 123.651925,17.0775187 L123.651925,23.4765461 C123.651925,25.7164893 125.200473,27.0608334 126.748391,28.1190396 L127.482013,27.3438201 C126.302167,26.5730124 124.630718,25.3919056 124.630718,23.434949 L124.630718,16.6697406 C124.630718,14.7146748 123.367047,13.7365117 122.593088,13.4106674 L121.737826,14.1852566 Z M114.68711,14.1852566 C115.502035,14.5911439 116.154985,15.4073303 116.154985,16.9149117 L116.154985,24.7376959 C116.154985,26.08204 117.335461,27.1824736 118.804597,28.1190396 L119.494731,27.3879382 C118.396188,26.5730124 117.132517,25.9597696 117.132517,24.371515 L117.132517,16.7138588 C117.132517,14.7569022 116.277255,13.7774785 115.462329,13.4516342 L114.68711,14.1852566 Z M103.113649,28.5274479 C101.770566,27.4705023 99.5287319,25.7164893 99.5287319,22.0899746 C99.5287319,19.2367887 101.934433,16.4251998 106.740794,16.8739448 L107.108236,16.8739448 C107.108236,16.2203654 107.272103,14.4695038 106.129442,14.2237025 C106.090997,14.2665601 104.745392,15.5705676 102.99327,15.5705676 C101.281484,15.5705676 100.588199,14.7972388 100.223908,14.3882003 L104.215974,10.5555906 C104.825435,11.5772417 105.763892,12.4722106 107.068529,12.4722106 C107.759924,12.4722106 108.697751,11.7820761 109.634947,10.5555906 C109.553013,10.5555906 112.283929,11.0471932 112.283929,15.6096437 L112.283929,22.4139282 C112.283929,23.8843242 113.546339,24.6992501 113.995715,24.9431606 L110.408276,28.5274479 C110.408276,28.5274479 107.149833,26.85852 107.149833,24.6576529 L107.149833,24.371515 L103.113649,28.5274479 Z M107.108236,23.8843242 L107.108236,17.3214292 C106.740794,17.3636566 105.316407,17.1588222 104.623122,17.6063066 C104.13404,17.9334115 103.156507,18.9519112 103.562394,20.8275643 C103.971433,22.7422935 105.927129,24.0437799 106.576927,24.371515 L107.108236,23.8843242 Z M100.223908,20.256549 C100.019704,20.6220996 99.8961733,21.600893 99.8961733,22.2513211 C99.9352494,25.633295 102.21805,27.3438201 103.074573,28.0389966 L104.010509,27.0608334 C103.074573,26.450742 101.892206,25.3919056 101.321821,24.371515 C100.834,23.517513 100.100377,21.8050972 100.302691,20.1746152 L100.223908,20.256549 Z M106.498144,13.9804222 C107.393744,14.4279066 107.473787,15.1199318 107.473787,16.6281435 L107.473787,24.454079 C107.473787,25.8803569 108.901325,27.2234404 110.3692,28.1190396 L111.183496,27.3060045 C110.083062,26.6536856 108.45384,25.7977928 108.45384,24.2101685 L108.45384,16.7138588 C108.45384,14.7569022 108.288712,13.7365117 107.272103,13.2877667 L106.498144,13.9804222 Z M102.829402,14.4279066 C102.21805,14.2665601 101.524765,13.5739046 101.524765,13.5739046 L100.710469,14.3484939 C100.95564,14.7569022 101.850609,15.2031261 102.911336,15.241572 C103.644958,15.2837994 104.539927,14.8772818 104.865141,14.7146748 L104.825435,14.5911439 C104.417657,14.7146748 103.562394,14.6333713 102.829402,14.4279066 Z M229.025055,3.67189341 C230.369399,4.11937785 231.675298,5.99566118 231.675298,8.43854804 L231.675298,14.3882003 L235.666733,10.5555906 C235.666733,10.5555906 236.850991,11.3314404 237.826633,12.3909071 C238.642819,13.2461696 239.170977,14.4695038 239.170977,15.8144781 L239.170977,28.2009733 C239.170977,28.6503486 239.048707,36.5550666 232.693797,36.5550666 C230.207423,36.5550666 229.432203,34.5590339 229.432203,34.5590339 L229.717711,34.35546 C229.717711,34.35546 230.409106,35.7426617 232.039588,35.7426617 C234.161672,35.7426617 233.997175,33.3350694 233.997175,32.0304317 L233.997175,17.2804623 C233.997175,15.3682542 232.855774,14.6749685 232.162488,14.4279066 L231.675298,14.8772818 L231.675298,23.0668773 C231.675298,24.5347523 232.52993,24.7376959 232.897371,25.1051374 L229.514137,28.4877415 C229.514137,28.4877415 226.499604,26.8156624 226.499604,24.7376959 L226.499604,10.3539075 C226.499604,8.76376208 225.968295,7.94820594 225.277531,7.50198203 L229.025055,3.67189341 Z M232.488333,14.1026926 C233.383932,14.5111009 234.365246,15.3247663 234.365246,17.1191158 L234.365246,31.9087916 C234.365246,33.7056622 234.365246,34.2325593 233.916501,35.0884521 L233.997175,35.0884521 C234.607896,34.7235317 235.340888,33.9464214 235.340888,31.3793734 L235.340888,16.7913808 C235.340888,14.836315 234.200118,13.6955448 233.262922,13.3690702 L232.488333,14.1026926 Z M225.804428,7.45912436 C226.499604,7.86879321 226.865785,8.887293 226.865785,10.3942441 L226.865785,24.5347523 C226.865785,25.9597696 228.047522,27.0608334 229.514137,27.99866 L230.289356,27.1824736 C229.188923,26.3694385 227.842688,25.7574562 227.842688,24.1698319 L227.842688,10.1906702 C227.842688,8.2356044 227.354867,7.17613773 226.460528,6.80743576 L225.804428,7.45912436 Z M217.451595,1.18614888 L217.412519,1.34938616 C215.701994,1.34938616 213.377596,1.55296007 210.930928,3.22377872 C207.674375,5.46183115 205.760276,9.53961186 205.718049,13.4106674 C205.675822,19.1945613 208.977122,22.986204 209.914319,23.3914611 C209.548138,22.6603597 209.262,21.355722 209.262,20.2956251 C209.262,18.2195494 210.729244,17.0775187 211.464127,16.7516744 L211.464127,9.09338794 C211.464127,8.68245857 211.502573,8.43854804 211.339966,8.03140023 C211.215175,7.70429541 210.850885,7.54294891 210.850885,7.54294891 L210.850885,7.45912436 L213.012045,4.85363048 C214.519627,4.89270658 216.028469,4.64942631 216.844655,4.24164824 C217.89971,3.71096952 219.613386,1.14455174 219.613386,1.14455174 C220.833569,2.16368179 221.649755,2.73280636 223.361541,2.81600065 C224.991393,2.89793442 226.092457,1.75527346 226.499604,0.90001095 L226.703178,0.981944719 C226.171869,3.46705899 224.951056,5.34271206 222.180434,6.3196147 C219.04111,7.419418 217.085414,6.645459 217.085414,6.645459 L217.085414,18.7880437 C217.085414,19.3590591 217.125751,19.8891075 216.798016,20.2149518 C216.188555,20.7853369 214.72194,20.0126384 213.377596,20.4178955 C212.031361,20.8275643 210.320836,22.4139282 210.444997,23.7589025 C210.444997,23.7589025 212.68494,25.470688 217.167978,25.470688 C220.672853,25.470688 222.384008,24.4118516 224.543908,22.7422935 L224.705255,22.8633034 C222.629809,27.9583233 218.266521,30.565708 213.499236,30.565708 C206.488857,30.565708 199.973861,24.6160558 199.973861,16.0987253 C199.973861,8.43854804 205.513215,2.32628881 211.585767,1.14455174 C215.617539,0.369962484 217.451595,1.18614888 217.451595,1.18614888 Z M204.616355,5.66855636 L204.494085,5.58599233 C202.291957,7.7874897 200.421346,11.8224127 200.421346,16.1409527 C200.421346,22.8633034 204.616355,27.7144128 209.424607,29.4236773 C213.298813,30.8115093 216.798016,29.791749 217.494453,29.5459477 L217.617984,29.3839709 C215.824264,29.5056111 211.545431,29.2213639 208.977122,27.7957163 C205.921623,26.08204 204.329587,24.3299178 202.987764,21.4792529 C201.88733,19.1554851 201.642789,15.4861128 202.011491,12.9631829 C202.741332,8.11396426 204.616355,5.66855636 204.616355,5.66855636 Z M217.085414,6.19797456 C217.085414,6.19797456 217.776809,6.52255835 219.328509,6.48474276 C220.507725,6.44188509 221.893036,5.99566118 222.421193,5.75049013 L222.463421,5.66855636 C221.569712,5.66855636 220.427682,5.42401557 219.530192,5.17884452 C218.758754,4.93367347 218.02261,4.48492851 217.696766,4.32295175 L217.085414,4.73009956 L217.085414,6.19797456 Z M211.339966,7.45912436 C211.339966,7.45912436 211.585767,7.70429541 211.66581,7.86879321 C211.830938,8.19337699 211.830938,8.39884168 211.830938,8.76376208 L211.830938,17.0352913 C211.339966,17.2804623 210.930928,17.5672305 210.608235,17.8930748 C210.15949,18.3827867 209.670408,19.1945613 209.751712,20.0926814 L209.832385,20.2149518 C209.832385,20.2149518 210.52504,19.0748119 211.545431,18.5857303 C212.113925,18.3008529 212.850069,18.1760615 213.092719,18.1382459 L213.092719,8.43854804 C213.092719,7.90912984 212.968557,7.50198203 212.766244,7.05386733 C212.644604,6.76709914 212.156153,6.44188509 212.156153,6.44188509 L211.339966,7.45912436 Z M189.133393,22.6181323 C189.133393,22.6181323 186.769919,24.1698319 185.465912,25.2696352 C184.119677,26.3694385 182.163981,28.5274479 182.163981,28.5274479 C182.163981,28.5274479 179.63727,27.1824736 178.62003,26.08204 C177.803214,25.1870711 176.989548,24.371515 176.989548,22.7838906 L176.989548,17.5672305 C176.989548,16.6697406 176.826941,16.3438963 176.416012,16.1825498 L176.416012,16.0590189 L178.658476,13.8568913 C178.62003,13.8165546 181.758094,13.208354 184.569052,10.5990785 C185.181665,11.0471932 185.833353,11.4940474 186.686725,12.1463663 C187.502911,12.757088 189.133393,13.5341983 189.133393,15.4073303 C189.133393,15.4073303 189.133393,22.5790562 189.133393,22.6181323 Z M183.95644,23.840206 L183.95644,17.9334115 C183.95644,16.4251998 183.060841,15.8548147 182.163981,15.3682542 L182.163981,21.3172762 C182.163981,21.9267373 182.572389,22.7025871 183.224078,23.2742327 C183.508955,23.517513 183.671562,23.6397834 183.95644,23.840206 Z M176.908245,16.0590189 C177.437663,16.3854935 177.35825,17.1997891 177.35825,17.648534 L177.35825,22.9439766 C177.35825,25.1051374 179.922777,26.8156624 182.123644,28.0780727 L182.815039,27.3438201 C181.469435,26.5730124 178.334523,24.9803459 178.334523,22.7838906 L178.334523,17.1588222 C178.334523,16.7913808 178.334523,15.6096437 177.59964,15.3682542 L176.908245,16.0590189 Z M182.163981,13.6955448 L182.163981,14.9176185 C182.572389,15.1621593 182.980167,15.3247663 183.346348,15.6506106 C183.95644,16.1825498 184.323251,16.8739448 184.323251,17.8514777 L184.323251,24.0860073 L185.220111,24.7786628 L185.300784,24.6992501 L185.300784,17.6882404 C185.300784,16.4251998 184.935863,15.6909472 184.282914,15.0008128 C183.427652,14.0610954 182.163981,13.6955448 182.163981,13.6955448 Z M172.343273,10.5555906 C172.916179,11.0875298 173.442446,11.8224127 174.952549,11.9446831 C175.480706,11.98565 176.215589,11.7820761 176.704671,11.3736678 L176.826941,11.4537108 C176.745638,12.7999456 175.766844,14.3062665 174.585107,15.0008128 C173.933419,15.3682542 172.343273,15.8957816 171.366371,15.3247663 L171.366371,22.986204 C171.366371,23.5956652 171.974571,24.454079 172.831725,24.454079 C173.608205,24.454079 174.014092,23.9643672 174.585107,23.434949 L174.870615,23.7210869 L170.062363,28.5274479 C170.062363,28.5274479 168.514445,27.8770198 167.495315,26.7746955 C166.679129,25.8803569 166.190047,25.1051374 166.190047,23.4765461 L166.190047,17.6063066 C166.190047,16.9149117 166.066516,16.3029294 165.336045,16.0987253 L165.336045,15.9796062 L167.574098,13.7774785 C167.534391,13.7365117 170.508587,14.1026926 172.343273,10.5555906 Z M165.864203,15.9373788 C166.637532,16.3854935 166.557489,17.1191158 166.557489,17.5672305 L166.557489,23.517513 C166.557489,25.7574562 167.864017,26.9814207 170.022026,28.1190396 L170.714052,27.3879382 C169.368447,26.613349 167.534391,25.7164893 167.534391,23.517513 L167.534391,17.0775187 C167.534391,16.7138588 167.373675,15.5705676 166.515261,15.2837994 L165.864203,15.9373788 Z M171.366371,13.6955448 L171.366371,14.9573248 C171.814485,15.1199318 172.098102,15.2031261 172.589075,15.2031261 C173.240763,15.2031261 174.177329,14.836315 174.66515,14.5111009 L174.66515,14.4279066 C173.933419,14.4695038 173.526271,14.5514375 172.831725,14.3882003 C172.26197,14.2665601 171.694106,13.8991187 171.366371,13.6955448 Z M247.362463,14.7972388 L247.362463,22.4574161 C247.362463,23.9643672 248.831599,24.6160558 249.195889,24.8593361 L245.609081,28.4480352 C245.609081,28.4480352 242.189921,26.7746955 242.189921,24.6992501 L242.189921,16.7516744 C242.189921,15.1621593 241.293062,14.5911439 240.598515,14.14492 L244.182803,10.3942441 C245.406137,10.803913 246.954055,12.1463663 247.280529,13.6545779 L250.661243,10.3942441 L253.513799,13.3690702 L249.522363,17.0352913 L247.362463,14.7972388 Z M241.087597,14.0610954 C241.862816,14.4695038 242.556102,15.2837994 242.556102,16.7913808 L242.556102,24.4931551 C242.556102,26.08204 244.305703,27.3060045 245.570004,27.99866 L246.345224,27.2234404 C245.24479,26.613349 243.532375,25.7977928 243.532375,24.2101685 L243.532375,16.5878068 C243.532375,14.6333713 242.719339,13.9400856 241.741176,13.4106674 L241.087597,14.0610954 Z M249.56207,16.5499913 L250.378256,15.7741415 L248.137052,13.4516342 L247.362463,14.2237025 L249.56207,16.5499913 Z M265.415624,22.5393498 C265.415624,22.5393498 263.05341,24.0860073 261.749403,25.1870711 C260.403798,26.2868744 258.44369,28.4480352 258.44369,28.4480352 C258.44369,28.4480352 255.91824,27.1024306 254.901,26.0013668 C254.087335,25.1051374 253.272409,24.2908417 253.272409,22.7025871 L253.272409,17.4840362 C253.272409,16.5878068 253.10476,16.2632231 252.700763,16.0987253 L252.700763,15.9796062 L254.942597,13.7774785 C254.901,13.7365117 258.037173,13.1232689 260.852543,10.5171448 C261.460744,10.96652 262.115584,11.4127439 262.965804,12.065693 C263.781991,12.677045 265.415624,13.4516342 265.415624,15.3247663 C265.415624,15.3247663 265.415624,22.4977527 265.415624,22.5393498 Z M260.236779,23.7589025 L260.236779,17.8514777 C260.236779,16.3438963 259.34055,15.7741415 258.44369,15.2837994 L258.44369,21.2334516 C258.44369,21.8448036 258.851469,22.6181323 259.506308,23.1897779 C259.789295,23.434949 259.956314,23.5559589 260.236779,23.7589025 Z M253.189215,15.9796062 C253.721154,16.3029294 253.635439,17.1191158 253.635439,17.5672305 L253.635439,22.8633034 C253.635439,25.0238339 256.206899,26.7362496 258.402724,27.99866 L259.09664,27.2656678 C257.753556,26.4904483 254.612972,24.902824 254.612972,22.7025871 L254.612972,17.0775187 C254.612972,16.7138588 254.612972,15.530231 253.883761,15.2837994 L253.189215,15.9796062 Z M258.44369,13.6148715 L258.44369,14.836315 C258.851469,15.0795952 259.259877,15.241572 259.627318,15.5705676 C260.236779,16.0987253 260.605481,16.7913808 260.605481,17.7708044 L260.605481,24.0072248 L261.502341,24.6992501 L261.584275,24.6160558 L261.584275,17.6063066 C261.584275,16.3438963 261.218094,15.6096437 260.564515,14.9176185 C259.707361,13.9804222 258.44369,13.6148715 258.44369,13.6148715 Z M310.188648,22.4977527 C310.188648,24.2101685 311.652111,24.6992501 312.020813,24.902824 L308.435265,28.4877415 C308.435265,28.4877415 305.012324,26.8156624 305.012324,24.7376959 L305.012324,10.2322673 C305.012324,8.64275221 304.482276,7.98917283 303.707056,7.54294891 L307.294495,3.79416381 C308.680436,4.24164824 310.188648,6.1582682 310.188648,7.94820594 L310.188648,22.4977527 Z M304.276181,7.50198203 C304.971988,7.90912984 305.381656,8.76376208 305.381656,10.2719737 L305.381656,24.5347523 C305.381656,26.1236371 306.927053,27.1024306 308.391777,28.0389966 L309.127921,27.3060045 C308.026226,26.4904483 306.352887,25.83939 306.352887,24.1698319 L306.352887,10.1484428 C306.352887,8.19337699 305.824729,7.17613773 304.890684,6.85029342 L304.276181,7.50198203 Z M318.659969,19.48259 L318.659969,22.9055308 C318.659969,23.517513 319.273842,24.371515 320.129105,24.371515 C320.905585,24.371515 321.308321,23.8843242 321.879966,23.3511244 L322.249929,23.6788595 L317.361634,28.5274479 C317.361634,28.5274479 315.768968,27.8373135 314.751098,26.7362496 C313.936172,25.83939 313.488688,24.6992501 313.488688,23.3914611 L313.488688,17.5672305 C313.488688,16.8739448 313.20255,16.3029294 312.632165,16.1825498 L312.632165,16.0590189 L314.870217,13.8568913 C314.830511,13.8165546 318.542111,13.8991187 320.698229,10.5990785 C320.698229,10.5990785 321.351178,11.4537108 322.453503,12.5560351 C323.388808,13.4913406 324.406678,14.6333713 324.77538,14.9573248 C324.77538,14.9573248 319.723217,18.6664036 318.659969,19.48259 Z M320.170702,17.8514777 L318.659969,15.9373788 L318.659969,18.9519112 L320.170702,17.8514777 Z M313.122507,16.018052 C313.894575,16.4655365 313.853608,17.1997891 313.853608,17.648534 L313.853608,23.434949 C313.853608,25.7164893 315.197322,26.9814207 317.320037,28.0780727 L318.093366,27.3438201 C316.747131,26.613349 314.830511,25.83939 314.830511,23.3511244 L314.830511,17.1588222 C314.830511,16.7913808 314.630719,15.5705676 313.772935,15.3682542 L313.122507,16.018052 Z M318.659969,13.7365117 L318.659969,15.241572 L320.496546,17.6063066 L321.351178,16.954618 L318.742533,13.6545779 L318.659969,13.7365117 Z M299.266246,10.5555906 C299.837261,11.0875298 300.36794,11.8224127 301.874891,11.9446831 C302.403679,11.98565 303.136671,11.7820761 303.625753,11.3736678 L303.747393,11.4537108 C303.66798,12.7999456 302.685405,14.3062665 301.506189,15.0008128 C300.854501,15.3682542 299.266246,15.8957816 298.285562,15.3247663 L298.285562,22.986204 C298.285562,23.5956652 298.896914,24.454079 299.752806,24.454079 C300.527396,24.454079 300.936434,23.9643672 301.506189,23.434949 L301.791697,23.7210869 L296.984706,28.5274479 C296.984706,28.5274479 295.435527,27.8770198 294.415136,26.7746955 C293.603362,25.8803569 293.111759,25.1051374 293.111759,23.4765461 L293.111759,17.6063066 C293.111759,16.9149117 292.99327,16.3029294 292.257127,16.0987253 L292.257127,15.9796062 L294.498961,13.7774785 C294.459255,13.7365117 297.434711,14.1026926 299.266246,10.5555906 Z M292.787176,15.9373788 C293.562395,16.3854935 293.482352,17.1191158 293.482352,17.5672305 L293.482352,23.517513 C293.482352,25.7574562 294.822284,27.0217573 296.943108,28.1190396 L297.637655,27.3879382 C296.293311,26.613349 294.459255,25.7164893 294.459255,23.517513 L294.459255,17.0775187 C294.459255,16.7138588 294.295387,15.5705676 293.440755,15.2837994 L292.787176,15.9373788 Z M298.285562,13.6955448 L298.285562,14.9573248 C298.733676,15.1199318 299.021705,15.2031261 299.510156,15.2031261 C300.163106,15.2031261 301.098411,14.836315 301.589383,14.5111009 L301.589383,14.4279066 C300.854501,14.4695038 300.448613,14.5514375 299.752806,14.3882003 C299.185573,14.2665601 298.615188,13.8991187 298.285562,13.6955448 Z M289.809198,22.5790562 C289.809198,24.1698319 291.279594,24.7376959 291.643884,24.9803459 L288.062118,28.5274479 C288.062118,28.5274479 284.637917,26.8975961 284.637917,24.8208902 L284.637917,16.954618 C284.637917,15.3682542 283.741057,14.7972388 283.048402,14.3484939 L286.630798,10.5555906 C288.019891,11.0875298 289.809198,12.4722106 289.809198,14.5111009 L289.809198,22.5790562 Z M283.539374,14.2665601 C284.313333,14.6749685 285.005358,15.4861128 285.005358,16.9955849 L285.005358,24.7376959 C285.005358,26.164604 286.797817,27.4282749 288.019891,28.1190396 L288.793219,27.3060045 C287.692786,26.4904483 285.979109,25.7574562 285.979109,24.1698319 L285.979109,16.7913808 C285.979109,14.9573248 285.124477,13.9804222 284.230769,13.6148715 L283.539374,14.2665601 Z M287.89636,2.61116622 L290.501854,5.21918114 L286.630798,9.00893313 L284.066901,6.44188509 L287.89636,2.61116622 Z M284.595059,6.44188509 L286.630798,8.48077545 L287.489212,7.66332853 L285.411245,5.58599233 L284.595059,6.44188509 Z M270.660646,10.5555906 C272.047217,11.0062263 273.715515,12.677045 273.835895,14.3882003 L277.830481,10.5555906 C277.830481,10.5555906 279.014739,11.289213 279.992272,12.3505704 C280.808458,13.208354 281.338507,14.4279066 281.338507,15.7741415 L281.338507,22.9439766 C281.338507,24.454079 282.474865,24.7786628 282.924871,25.1467345 L279.665797,28.5715661 C279.665797,28.5715661 278.48343,27.8770198 277.468082,26.7746955 C276.651265,25.8803569 276.162183,24.8593361 276.162183,23.517513 L276.162183,17.2420165 C276.162183,15.2837994 275.100196,14.836315 274.328758,14.5111009 L273.835895,14.9176185 L273.835895,23.1494413 C273.835895,24.6160558 274.693048,24.8208902 275.060489,25.1870711 L271.678515,28.5715661 C271.678515,28.5715661 268.661462,26.8975961 268.661462,24.8208902 L268.661462,16.8739448 C268.661462,15.2031261 267.848427,14.7569022 267.075728,14.2665601 L270.660646,10.5555906 Z M274.613005,14.1852566 C275.509234,14.6333713 276.530885,15.2031261 276.530885,17.0775187 L276.530885,23.4765461 C276.530885,25.7164893 278.077543,27.0608334 279.62483,28.1190396 L280.357823,27.3438201 C279.174825,26.5730124 277.509679,25.3919056 277.509679,23.434949 L277.509679,16.6697406 C277.509679,14.7146748 276.242226,13.7365117 275.467637,13.4106674 L274.613005,14.1852566 Z M267.562919,14.1852566 C268.380996,14.5911439 269.029534,15.4073303 269.029534,16.9149117 L269.029534,24.7376959 C269.029534,26.08204 270.211901,27.1824736 271.678515,28.1190396 L272.371171,27.3879382 C271.270737,26.5730124 270.005176,25.9597696 270.005176,24.371515 L270.005176,16.7138588 C270.005176,14.7569022 269.150543,13.7774785 268.334987,13.4516342 L267.562919,14.1852566 Z M71.8073862,6.9227733 L75.5908356,6.9227733 L75.5908356,14.0825243 C75.5908356,17.7846702 73.5160204,19.7359544 70.4661934,20.2653726 L70.4661934,15.0587967 C70.4661934,15.0587967 69.4067268,15.0587967 69.1615557,15.0997635 C67.8600693,15.3436741 67.8600693,15.7085945 67.6980925,16.2783493 L67.6161588,16.2783493 C66.9669912,15.6695184 66.5592131,14.6913552 66.5592131,13.7976469 C66.5592131,11.7631683 68.2287712,10.1358376 70.4661934,10.0557946 L70.4661934,8.22488998 L71.8073862,6.9227733 Z M70.7901469,8.3452696 L70.7901469,10.0557946 L71.8073862,10.0557946 L71.8073862,7.36899721 L70.7901469,8.3452696 Z M68.4323452,14.938417 C68.9592423,14.6503883 69.6928647,14.6503883 70.8323744,14.6913552 L70.8323744,19.8178882 C70.8323744,19.8178882 71.2376314,19.7359544 71.4002384,19.6943572 C71.5628454,19.6565417 71.9290264,19.4933044 71.9290264,19.4933044 C71.9290264,19.4933044 71.9290264,15.0997635 71.9290264,13.5934427 L70.4245963,13.5934427 C69.9348844,13.5934427 69.3657599,13.7138223 69.1231099,13.8386137 C68.6749952,14.0428179 68.3075537,14.4474447 68.3075537,14.8949291 L68.4323452,14.938417 Z M4.14773954,11.2142121 C6.05994768,13.0835625 8.7038874,13.8568913 11.6339651,14.2652996 C15.6606947,14.8350544 19.647718,15.6890564 19.485111,19.8386867 C19.402547,21.7483738 18.1407669,22.9288504 17.4506325,23.4998657 L17.3277318,23.4166714 C17.4102958,23.2143581 17.369329,22.889144 17.2886557,22.6458637 C15.8233018,18.1697589 2.31809543,21.6286245 2.60108206,13.5329378 C2.64267921,12.3953189 3.21369456,11.2526579 3.7002551,10.6444572 C3.7002551,10.6444572 3.78281913,10.8883678 4.14773954,11.2142121 Z M3.0485665,12.9631829 C2.96789325,13.4913406 2.88658974,14.9150974 3.74185225,16.2997781 C4.67715774,17.8042082 7.36206436,18.7395137 10.046971,19.145401 C12.6505741,19.5538093 14.9680392,20.0416304 16.2714164,20.7727317 C17.003148,21.1805098 17.7348796,22.0761089 17.6542064,22.8084708 L17.7348796,22.8084708 C18.385938,22.2790526 18.6720759,20.1626403 16.4737298,19.065358 C15.0102666,18.3323659 12.6902804,17.9668152 10.2518054,17.6018948 C8.45997687,17.3157569 7.11815383,17.194747 5.65279986,16.2997781 C4.5132902,15.6083832 3.53764808,14.8772818 3.13239105,12.9631829 L3.0485665,12.9631829 Z M3.61832133,5.47821791 C4.92106827,1.45148825 9.19359924,0.351684951 12.2037199,0.393282096 C15.0102666,0.433618721 18.3443408,2.06031918 19.1996033,2.79268103 L16.2714164,6.45322977 C15.2945138,5.80343195 11.7140081,3.40340275 8.6648113,3.40340275 C6.66940887,3.40340275 4.47295358,4.01475473 4.43324721,5.72338896 C4.35068318,8.20598219 10.6570624,8.36669843 13.7075197,9.06061443 C21.6399692,10.8883678 22.0477472,14.550177 21.7622395,17.6397104 C21.2340819,23.2950313 16.1081792,28.2179904 13.8713872,29.9675915 C13.8713872,29.9675915 10.82093,25.938971 5.97675339,25.938971 C3.86412264,25.938971 1.17921603,27.161675 1.17921603,29.520107 C1.17921603,32.6524981 4.39165007,34.5224788 7.52467138,34.6453795 C9.39654289,34.7279435 11.1864806,33.7894867 11.5110644,33.62751 L11.6743017,33.9949514 C10.5335315,34.484033 9.27427249,35.0947547 7.36206436,35.0947547 C4.14773954,35.0947547 -2.84217094e-14,32.9783424 -2.84217094e-14,28.7467783 C-2.84217094e-14,23.5389418 4.92106827,20.9781964 8.5425409,20.9781964 C14.113407,20.9781964 16.4321327,24.0280234 17.2476888,24.8007219 C17.369329,24.8832859 20.0529751,22.6458637 20.2987764,20.081967 C20.8685312,13.8978582 14.033364,13.5739046 12.080189,13.2480603 C8.7038874,12.677045 1.54539695,11.8652704 3.61832133,5.47821791 Z M2.31809543,26.5106166 L2.39876868,26.6322568 C2.80591649,26.1438055 4.67715774,25.4089226 6.18221807,25.4914866 C10.6570624,25.6956908 12.8957451,28.423455 13.9514302,29.4400641 L15.1319068,28.423455 C13.4623487,26.6707026 10.2927723,24.5158445 7.03685032,24.5158445 C4.55551761,24.5158445 2.96789325,25.4543013 2.31809543,26.5106166 Z M9.31397886,3.07944923 C10.6570624,3.24079573 11.8362785,3.56664003 12.8554085,4.01475473 C14.4411421,4.74585606 15.7016616,5.64082493 16.2298193,5.96477845 L17.0447452,4.90846308 C16.3514594,4.46223916 14.7228682,3.52504289 13.3413388,2.99751546 C12.3663269,2.63007401 10.5335315,2.26389309 9.31397886,2.99751546 L9.31397886,3.07944923 Z" transform="translate(.523 .09)"/>
</svg>
