<svg height="37" viewBox="0 0 326 37" width="326" xmlns="http://www.w3.org/2000/svg"><path d="m40.8490264 10.5555906c1.3865715.4506357 3.0567599 2.1214544 3.1784 3.8326097l3.9933259-3.8326097s1.1842581.7336224 2.1599002 1.7949798c.8161864.8577836 1.3456046 2.0773362 1.3456046 3.4235711v7.1698351c0 1.5101024 1.1388794 1.8346862 1.5876244 2.2027579l-3.2597035 3.4248316s-1.1817371-.6945463-2.1996066-1.7968706c-.8117746-.8943386-1.302747-1.9153594-1.302747-3.2571825v-6.2754965c0-1.9582171-1.0600969-2.4057015-1.8353164-2.7309156l-.4890816.4065176v8.2318228c0 1.4666145.8584138 1.6714489 1.2208132 2.0376298l-3.3800832 3.384495s-3.0145324-1.67397-3.0145324-3.7506759v-7.9469454c0-1.6708187-.8155562-2.1170426-1.5882547-2.6073847zm3.9536195 3.629666c.8949689.4481147 1.9153594 1.0178695 1.9153594 2.8922621v6.3990274c0 2.2399432 1.547918 3.5842873 3.0964663 4.6424935l.7348829-.7752195c-1.1829976-.7708077-2.8525557-1.9519145-2.8525557-3.9088711v-6.7652084c0-1.9550658-1.2661919-2.9332289-2.0363693-3.2590732zm-7.050716 0c.8161864.4058873 1.467875 1.2220737 1.467875 2.7296551v7.8227842c0 1.3443441 1.1829976 2.4447777 2.6483515 3.3813437l.6926555-.7311014c-1.0985428-.8149258-2.3628439-1.4281686-2.3628439-3.0164232v-7.6576562c0-1.9569566-.856523-2.9363803-1.6720791-3.2622246zm-11.5709391 14.3421913c-1.3443441-1.0569456-3.5874386-2.8109586-3.5874386-6.4374733 0-2.8531859 2.4031805-5.6647748 7.213323-5.2160298h.3668112c0-.6535794.1619768-2.404441-.9781631-2.6502423-.0403367.0428576-1.3834202 1.3468651-3.1380634 1.3468651-1.7117856 0-2.4038108-.7733288-2.7712522-1.1823673l3.9939561-3.8326097c.6126125 1.0216511 1.5498088 1.91662 2.8519255 1.91662.6913949 0 1.630482-.6901345 2.5689388-1.91662-.0831943 0 2.6452002.4916026 2.6452002 5.0540531v6.8042845c0 1.470396 1.2643011 2.2853219 1.7117856 2.5292324l-3.5836571 3.5842873s-3.2622245-1.6689279-3.2622245-3.869795v-.2861379zm3.9926956-4.6431237v-6.562895c-.3668112.0422274-1.7911982-.162607-2.4851142.2848774-.4909724.3271049-1.467875 1.3456046-1.060097 3.2212577.4058873 1.9147292 2.3634742 3.2162156 3.015793 3.5439507zm-6.8874787-3.6277752c-.2035739.3655506-.3252141 1.344344-.3252141 1.9947721.0422274 3.3819739 2.321877 5.092499 3.1784 5.7876755l.9378266-.9781632c-.9378266-.6100914-2.1183031-1.6689278-2.6886882-2.6893184-.4909724-.854002-1.2258552-2.5664178-1.0184998-4.1968998zm6.2754965-6.2761268c.8962294.4474844.9794237 1.1395096.9794237 2.6477213v7.8259355c0 1.4262779 1.4250173 2.7693614 2.8928923 3.6649606l.8149259-.8130351c-1.1004336-.6523189-2.7315459-1.5082117-2.7315459-3.095836v-7.4963097c0-1.9569566-.162607-2.9773471-1.181737-3.4260921zm-3.6662211.4474844c-.6126125-.1613465-1.3040074-.854002-1.3040074-.854002l-.8155562.7745893c.2439105.4084083 1.1420307.8546322 2.2008671.8930781.7329921.0422274 1.6285913-.3642902 1.9569566-.5268972l-.0409669-.1235309c-.4090386.1235309-1.2643011.0422274-1.9972932-.1632373zm67.5203593.5729062v7.6595469c0 1.5094722 1.4691355 2.1605305 1.8346862 2.404441l-3.5868084 3.5855479s-3.4223105-1.6689279-3.4223105-3.7475246v-7.948206c0-1.5863638-.8962294-2.1573792-1.5888849-2.6061241l3.5849176-3.7494154c1.2239644.4071478 2.7718824 1.7514919 3.0970965 3.2578128l3.3838647-3.2578128 2.8506649 2.9748261-3.9926956 3.6681119zm-6.2736058-.7342527c.7752196.4084084 1.4659843 1.2195527 1.4659843 2.7290248v7.7036652c0 1.5876243 1.7527524 2.8090678 3.0151627 3.5017232l.7745893-.7726984c-1.1004336-.6126125-2.8122191-1.4269081-2.8122191-3.0164233v-7.6204708c0-1.9550658-.8149259-2.6464608-1.7918286-3.1765093zm8.4738426 2.4851143.8155562-.7720682-2.2399432-2.3250283-.7758498.7733287zm42.5028278-6.1960838c.569125.5319392 1.100434 1.2668221 2.606124 1.3890925.531309.0409669 1.264932-.162607 1.754013-.5710153l.123531.080043c-.083824 1.3462348-1.062618 2.8525557-2.243094 3.547102-.652949.3674414-2.240574.8949688-3.218107.3239535v7.6614377c0 .6094612.611352 1.467875 1.466615 1.467875.772698 0 1.179216-.4897118 1.751492-1.01913l.284247.2861379-4.808882 4.806361s-1.544767-.6504281-2.566418-1.7527524c-.813665-.8943386-1.304638-1.6695581-1.304638-3.2981494v-5.8702395c0-.6913949-.12164-1.3033772-.855262-1.5075813v-.1191191l2.241834-2.2021277c-.040337-.0409668 2.934489.3252141 4.768545-3.2218879zm-6.47907 5.3817882c.773329.4481147.691395 1.181737.691395 1.6298517v5.9502825c0 2.2399432 1.304007 3.5042443 3.463907 4.6015266l.692026-.7311014c-1.343084-.7745892-3.17714-1.6714489-3.17714-3.8704252v-6.4399943c0-.3636599-.163867-1.5069511-1.01913-1.7937193zm5.501537-2.241834v1.26178c.447485.162607.731732.2458013 1.222704.2458013.651059 0 1.587625-.3668111 2.075446-.6920252v-.0831943c-.732992.0415972-1.137619.1235309-1.831535-.0397063-.570385-.1216402-1.141401-.4890816-1.466615-.6926555zm-54.8086496-12.71360008c-1.5882547 2.60738466-4.2788336 4.60404761-7.8215238 4.60404761-2.9760866 0-3.6302962-.89559913-6.0738134-.89559913-2.1996066 0-3.5458414 1.30526798-3.3826041 2.60738466h-.0813036c-.407778-.56849431-.6926554-1.38405045-.6926554-2.32187699.0409668-2.07796645 2.0792269-3.95235901 4.9298919-4.19753006 2.6099057-.20294364 7.3362237.97690265 9.6581007.93782654 1.4275383-.04096689 2.7309155-.40651755 3.3000401-.85778354zm-15.9317065 3.78975199c.5703851-.32521404 1.3430836-.40651755 1.9960327-.44874496 1.7521222-.08130351 3.9517288.89622939 6.11415.89622939 1.8309047 0 3.2168459-.65231886 3.7059275-.85400198l-.0409669-.1644978c-1.0991731.08130351-2.241834 0-3.7084485-.24454079-2.1189333-.36681119-4.4420709-.8130351-5.2967031-.8130351-1.5888849 0-2.6483515.65105834-2.8916318 1.62859124zm24.7339144-4.15719344c-.5710154 3.13617261-3.1374331 4.89270659-5.9483917 5.38115791-.9787934.16260702-1.7514919.12037961-2.8128494-.08193377v3.95109849h5.7870452l-5.0118256 5.5034283h-.7752196v4.1943788c0 1.6311122-.7329921 3.95488-2.1189333 6.0315859-1.2220737 1.8762834-3.1777698 3.3397466-4.8069913 4.4427012 0 0-3.6700026-3.6258845-7.7837081-3.6258845-1.9172502 0-5.1756932 1.0172393-5.1756932 3.9920654 0 2.4441474 2.8506649 4.8485884 6.8452513 4.8485884 2.6893185 0 3.952359-.8558928 4.8511095-1.305268l.2432802.3264746c-.6094612.4071478-2.4447776 1.5082116-5.1744327 1.5082116-4.5240046 0-8.1511496-2.4031805-8.1511496-6.7645781 0-4.6046779 4.5240047-7.5782435 9.1286825-7.5782435 2.0760757 0 3.2597036.2848774 6.5219281 1.7514919v-15.7703599l2.2380525-2.15800945c.7745892-.20609495 1.793089-.44874496 3.0977267-1.55043903 1.3462349-1.14013992 2.2815404-2.85255571 2.2815404-2.85255571.8161864.77332873 2.6886882 1.50821162 3.5849175 1.467875 1.834056-.12164014 2.4466685-.8962294 2.9748262-1.79371931zm-12.9178042 5.94902196-1.1010639 1.06135745v15.81006632s.3674415.2439105.5722759.405257c.2029437.1670188.528788.531309.528788.531309zm4.4842982-2.85255571-.3687019.3258443v1.38720175c.5710153.20294364 1.7514918.36618092 2.8538162.20294364 1.1395096-.20294364 2.2399432-.69328574 2.4435171-.8552625l.0403366-.1222704c-1.8340559.16323728-3.3000401-.08256403-4.968968-.93845679zm-19.2361584 23.71730538.0415972.080043c1.01913-1.0972823 2.9344894-1.4666145 4.1571934-1.5069511 3.5842873-.0806733 7.0072281 2.7725127 7.8637511 3.5445809l1.225225-.8955991c-1.7943495-1.8756531-4.7300995-3.7475246-8.8450656-3.7475246-1.547918 0-3.666221.8546322-4.4427011 2.5254509zm18.9084233-12.4274621h.6100915l1.1004335-1.2233343h-1.710525zm67.1535478 7.5782434c0 1.5907757 1.467875 2.1586397 1.834687 2.4012897l-3.585548 3.547102s-3.423571-1.6298518-3.423571-3.7065577v-7.8662722c0-1.5863638-.89686-2.1573792-1.590146-2.6061241l3.587439-3.7929033c1.386571.5319392 3.177139 1.91662 3.177139 3.9555103zm-6.275496-8.3124961c.775219.4084084 1.466614 1.2195527 1.466614 2.7290248v7.742111c0 1.4269081 1.79435 2.690579 3.018314 3.3813437l.772699-.8130351c-1.100434-.8155562-2.812219-1.5485483-2.812219-3.1361726v-7.3784511c0-1.834056-.855263-2.8109586-1.751492-3.1765093zm14.181475 14.2608878c-.040337-.0397064-.081934 0-.081934 0-.446854-.5287879-1.181107-1.2214434-2.607385-1.3449743-.529418-.0397064-1.915359-.080043-2.444777 1.3449743h-.123531c-.487821-1.8737623 1.100433-3.9926956 2.93575-4.6431237 2.035739-.7348829 3.704037-.1254217 3.704037-.1254217v-4.5643412c-1.708004.5729061-3.704037 1.633003-5.090609 1.3462348-.571015-.1229006-1.01976-.4903421-1.01976-1.4231265 0 0 0-3.0586507 0-3.0996176 0-.2836169 0-.3674414-.078782-.5319392-.123531-.2023134-.367442-.2829867-.367442-.2829867v-.1235309l1.711155-1.6689278s3.0555.2042041 5.45868-2.8550768c.569755.4916026 1.099173 1.2668221 2.608645 1.3890925.528158.0409669 1.791829-.1222704 2.280911-.6132427l.12353.0813035c-.081303 1.3443441-1.834686 3.0151627-3.056129 3.5445809-1.956957.8571533-3.708449.1222704-3.708449.1222704v3.0586507c2.27965-.3674415 4.644385-1.6727094 5.502798-1.3865715.527528.1632373.853372.3674414.853372 1.4243871v4.3632883 1.2195527s-.978793.0415971-1.549809.2054647c-.446224.1216401-.937196.3264745-1.668927.7733287-2.202128 1.3443441-3.381344 3.7500456-3.381344 3.789752zm-.081934-.5691246s.163237-.2880287.283617-.487821c.123531-.2048345.327735-.4890816.327735-.4890816-.407778-.3277351-1.099173-1.0216511-2.363474-1.0216511-1.629222 0-2.160531.77648-2.241834.9775329l.081303.0441182c.734253-.3277351 1.67271-.1657583 2.487005.0794127.692656.2048344 1.181738.6094612 1.425648.8974899zm.325844-14.63022v1.3468652c.569125.2023133 1.425648.2823563 1.91473.2823563.653579 0 1.629221-.2004226 2.120193-.5691245v-.0819338c-.858413 0-1.510102.1216401-2.325028-.1210099-.691395-.2048344-1.424387-.6510583-1.709895-.8571533zm-5.012456 1.7514919c.409669.288659.409669.5710154.409669 1.0191301v2.2840614c0 .7726984 0 1.2611498.243281 1.5491785.489711.5691246 1.670188.2029436 1.670188.2029436-.773329-.4487449-.936566-.8546322-.936566-1.713046v-2.6477213c0-.3668112 0-1.1407702-.733622-1.3046377zm7.048195 9.1305733c.243911.1197493.448745.3245838.448745.3245838v-4.9721193c0-.2035739.040337-.5294182-.119749-.6529492-.085085-.0397063-.163868-.1216401-.24391-.1216401l-.615134.2451711v4.9311524s.326475.1216401.530048.2458013zm-12.098466-21.59900228 2.606754 2.60801492-3.871055 3.78975199-2.568309-2.56704804zm-3.301301 3.83071887 2.037 2.03889036.855262-.81744692-2.079227-2.0773362zm-26.530154 4.11370551c1.386571.4506357 3.05802 2.1214544 3.181551 3.8326097l3.993326-3.8326097s1.179216.7336224 2.156749 1.7949798c.814926.8577836 1.345604 2.0773362 1.345604 3.4235711v7.1698351c0 1.5101024 1.143922 1.8346862 1.590146 2.2027579l-3.259704 3.4248316s-1.181737-.6945463-2.201497-1.7968706c-.815556-.8943386-1.303377-1.9153594-1.303377-3.2571825v-6.2754965c0-1.9582171-1.058207-2.4057015-1.835317-2.7309156l-.48593.4065176v8.2318228c0 1.4666145.852111 1.6714489 1.220813 2.0376298l-3.380713 3.384495s-3.017054-1.67397-3.017054-3.7506759v-7.9469454c0-1.6708187-.814926-2.1170426-1.589515-2.6073847zm3.95488 3.629666c.895599.4481147 1.914099 1.0178695 1.914099 2.8922621v6.3990274c0 2.2399432 1.548548 3.5842873 3.096466 4.6424935l.733622-.7752195c-1.179846-.7708077-2.851295-1.9519145-2.851295-3.9088711v-6.7652084c0-1.9550658-1.263671-2.9332289-2.03763-3.2590732zm-7.050716 0c.814925.4058873 1.467875 1.2220737 1.467875 2.7296551v7.8227842c0 1.3443441 1.180476 2.4447777 2.649612 3.3813437l.690134-.7311014c-1.098543-.8149258-2.362214-1.4281686-2.362214-3.0164232v-7.6576562c0-1.9569566-.855262-2.9363803-1.670188-3.2622246zm-11.573461 14.3421913c-1.343083-1.0569456-3.5849171-2.8109586-3.5849171-6.4374733 0-2.8531859 2.4057011-5.6647748 7.2120621-5.2160298h.367442c0-.6535794.163867-2.404441-.978794-2.6502423-.038445.0428576-1.38405 1.3468651-3.136172 1.3468651-1.711786 0-2.405071-.7733288-2.769362-1.1823673l3.992066-3.8326097c.609461 1.0216511 1.547918 1.91662 2.852555 1.91662.691395 0 1.629222-.6901345 2.566418-1.91662-.081934 0 2.648982.4916026 2.648982 5.0540531v6.8042845c0 1.470396 1.26241 2.2853219 1.711786 2.5292324l-3.587439 3.5842873s-3.258443-1.6689279-3.258443-3.869795v-.2861379zm3.994587-4.6431237v-6.562895c-.367442.0422274-1.791829-.162607-2.485114.2848774-.489082.3271049-1.466615 1.3456046-1.060728 3.2212577.409039 1.9147292 2.364735 3.2162156 3.014533 3.5439507zm-6.884328-3.6277752c-.204204.3655506-.3277347 1.344344-.3277347 1.9947721.0390761 3.3819739 2.3218767 5.092499 3.1783997 5.7876755l.935936-.9781632c-.935936-.6100914-2.118303-1.6689278-2.688688-2.6893184-.487821-.854002-1.221444-2.5664178-1.01913-4.1968998zm6.274236-6.2761268c.8956.4474844.975643 1.1395096.975643 2.6477213v7.8259355c0 1.4262779 1.427538 2.7693614 2.895413 3.6649606l.814296-.8130351c-1.100434-.6523189-2.729656-1.5082117-2.729656-3.095836v-7.4963097c0-1.9569566-.165128-2.9773471-1.181737-3.4260921zm-3.668742.4474844c-.611352-.1613465-1.304637-.854002-1.304637-.854002l-.814296.7745893c.245171.4084083 1.14014.8546322 2.200867.8930781.733622.0422274 1.628591-.3642902 1.953805-.5268972l-.039706-.1235309c-.407778.1235309-1.263041.0422274-1.996033-.1632373zm126.195653-10.75601319c1.344344.44748444 2.650243 2.32376777 2.650243 4.76665463v5.94965226l3.991435-3.8326097s1.184258.7758498 2.1599 1.8353165c.816186.8552625 1.344344 2.0785967 1.344344 3.423571v12.3864952c0 .4493753-.12227 8.3540933-6.47718 8.3540933-2.486374 0-3.261594-1.9960327-3.261594-1.9960327l.285508-.2035739s.691395 1.3872017 2.321877 1.3872017c2.122084 0 1.957587-2.4075923 1.957587-3.71223v-14.7499694c0-1.9122081-1.141401-2.6054938-1.834687-2.8525557l-.48719.4493752v8.1895955c0 1.467875.854632 1.6708186 1.222073 2.0382601l-3.383234 3.3826041s-3.014533-1.6720791-3.014533-3.7500456v-14.3837884c0-1.59014542-.531309-2.40570156-1.222073-2.85192547zm3.463278 10.43079919c.895599.4084083 1.876913 1.2220737 1.876913 3.0164232v14.7896758c0 1.7968706 0 2.3237677-.448745 3.1796605h.080674c.610721-.3649204 1.343713-1.1420307 1.343713-3.7090787v-14.5879926c0-1.9550658-1.14077-3.095836-2.077966-3.4223106zm-6.683905-6.64356824c.695176.40966885 1.061357 1.42816864 1.061357 2.93511974v14.1405082c0 1.4250173 1.181737 2.5260811 2.648352 3.4639077l.775219-.8161864c-1.100433-.8130351-2.446668-1.4250174-2.446668-3.0126417v-13.9791617c0-1.9550658-.487821-3.01453247-1.38216-3.38323444zm-8.352833-6.27297548-.039076.16323728c-1.710525 0-4.034923.20357391-6.481591 1.87439256-3.256553 2.23805243-5.170652 6.31583314-5.212879 10.18688868-.042227 5.7838939 3.259073 9.5755366 4.19627 9.9807937-.366181-.7311014-.652319-2.0357391-.652319-3.095836 0-2.0760757 1.467244-3.2181064 2.202127-3.5439507v-7.65828646c0-.41092937.038446-.6548399-.124161-1.06198771-.124791-.32710482-.489081-.48845132-.489081-.48845132v-.08382455l2.16116-2.60549388c1.507582.0390761 3.016424-.20420417 3.83261-.61198224 1.055055-.53067872 2.768731-3.0970965 2.768731-3.0970965 1.220183 1.01913005 2.036369 1.58825462 3.748155 1.67144891 1.629852.08193377 2.730916-1.06072719 3.138063-1.9159897l.203574.08193377c-.531309 2.48511427-1.752122 4.36076734-4.522744 5.33766998-3.139324 1.0998033-5.09502.3258443-5.09502.3258443v12.1425847c0 .5710154.040337 1.1010638-.287398 1.4269081-.609461.5703851-2.076076-.2023134-3.42042.2029437-1.346235.4096688-3.05676 1.9960327-2.932599 3.341007 0 0 2.239943 1.7117855 6.722981 1.7117855 3.504875 0 5.21603-1.0588364 7.37593-2.7283945l.161347.1210099c-2.075446 5.0950199-6.438734 7.7024046-11.206019 7.7024046-7.010379 0-13.525375-5.9496522-13.525375-14.4669827 0-7.66017726 5.539354-13.77243649 11.611906-14.95417356 4.031772-.77458926 5.865828.04159714 5.865828.04159714zm-12.83524 4.48240748-.12227-.08256403c-2.202128 2.20149737-4.072739 6.23642037-4.072739 10.55496037 0 6.7223507 4.195009 11.5734601 9.003261 13.2827246 3.874206 1.387832 7.373409.3680717 8.069846.1222704l.123531-.1619768c-1.79372.1216402-6.072553-.162607-8.640862-1.5882546-3.055499-1.7136763-4.647535-3.4657985-5.989358-6.3164634-1.100434-2.3237678-1.344975-5.9931401-.976273-8.51607.729841-4.84921864 2.604864-7.29462654 2.604864-7.29462654zm12.469059.5294182s.691395.32458379 2.243095.2867682c1.179216-.04285767 2.564527-.48908158 3.092684-.73425263l.042228-.08193377c-.893709 0-2.035739-.24454079-2.933229-.48971184-.771438-.24517105-1.507582-.69391601-1.833426-.85589277l-.611352.40714781zm-5.745448 1.2611498s.245801.24517105.325844.40966885c.165128.32458378.165128.53004847.165128.89496887v8.27152922c-.490972.245171-.90001.5319392-1.222703.8577835-.448745.4897119-.937827 1.3014865-.856523 2.1996066l.080673.1222704s.692655-1.1401399 1.713046-1.6292215c.568494-.2848774 1.304638-.4096688 1.547288-.4474844v-9.69969786c0-.5294182-.124162-.93656601-.326475-1.38468071-.12164-.28676819-.610091-.61198224-.610091-.61198224zm-22.206573 15.15900794s-2.363474 1.5516996-3.667481 2.6515029c-1.346235 1.0998033-3.301931 3.2578127-3.301931 3.2578127s-2.526711-1.3449743-3.543951-2.4454079c-.816816-.8949689-1.630482-1.710525-1.630482-3.2981494v-5.2166601c0-.8974899-.162607-1.2233342-.573536-1.3846807v-.1235309l2.242464-2.2021276c-.038446-.0403367 3.099618-.6485373 5.910576-3.2578128.612613.4481147 1.264301.8949689 2.117673 1.5472878.816186.6107217 2.446668 1.387832 2.446668 3.260964zm-5.176953 1.2220737v-5.9067945c0-1.5082117-.895599-2.0785968-1.792459-2.5651573v5.949022c0 .6094611.408408 1.3853109 1.060097 1.9569565.284877.2432803.447484.3655507.732362.5659733zm-7.048195-7.7811871c.529418.3264746.450005 1.1407702.450005 1.5895151v5.2954426c0 2.1611608 2.564527 3.8716858 4.765394 5.1340961l.691395-.7342526c-1.345604-.7708077-4.480516-2.3634742-4.480516-4.5599295v-5.6250684c0-.3674414 0-1.5491785-.734883-1.790568zm5.255736-2.3634741v1.2220737c.408408.2445408.816186.4071478 1.182367.7329921.610092.5319392.976903 1.2233342.976903 2.2008671v6.2345296l.89686.6926555.080673-.0794127v-7.0110097c0-1.2630406-.364921-1.9972932-1.01787-2.6874276-.855262-.9397174-2.118933-1.305268-2.118933-1.305268zm-9.820708-3.1399542c.572906.5319392 1.099173 1.2668221 2.609276 1.3890925.528157.0409669 1.26304-.162607 1.752122-.5710153l.12227.080043c-.081303 1.3462348-1.060097 2.8525557-2.241834 3.547102-.651688.3674414-2.241834.8949688-3.218736.3239535v7.6614377c0 .6094612.6082 1.467875 1.465354 1.467875.77648 0 1.182367-.4897118 1.753382-1.01913l.285508.2861379-4.808252 4.806361s-1.547918-.6504281-2.567048-1.7527524c-.816186-.8943386-1.305268-1.6695581-1.305268-3.2981494v-5.8702395c0-.6913949-.123531-1.3033772-.854002-1.5075813v-.1191191l2.238053-2.2021277c-.039707-.0409668 2.934489.3252141 4.769175-3.2218879zm-6.47907 5.3817882c.773329.4481147.693286 1.181737.693286 1.6298517v5.9502825c0 2.2399432 1.306528 3.4639077 3.464537 4.6015266l.692026-.7311014c-1.345605-.7745892-3.179661-1.6714489-3.179661-3.8704252v-6.4399943c0-.3636599-.160716-1.5069511-1.01913-1.7937193zm5.502168-2.241834v1.26178c.448114.162607.731731.2458013 1.222704.2458013.651688 0 1.588254-.3668111 2.076075-.6920252v-.0831943c-.731731.0415972-1.138879.1235309-1.833425-.0397063-.569755-.1216402-1.137619-.4890816-1.465354-.6926555zm75.996092 1.101694v7.6601773c0 1.5069511 1.469136 2.1586397 1.833426 2.40192l-3.586808 3.5886991s-3.41916-1.6733397-3.41916-3.7487851v-7.9475757c0-1.5895151-.896859-2.1605305-1.591406-2.6067544l3.584288-3.7506759c1.223334.4096689 2.771252 1.7521222 3.097726 3.2603338l3.380714-3.2603338 2.852556 2.9748261-3.991436 3.6662211zm-6.274866-.7361434c.775219.4084084 1.468505 1.222704 1.468505 2.7302854v7.7017743c0 1.5888849 1.749601 2.8128494 3.013902 3.5055049l.77522-.7752196c-1.100434-.6100914-2.812849-1.4256476-2.812849-3.0132719v-7.6223617c0-1.9544355-.813036-2.6477212-1.791199-3.1771394zm8.474473 2.4888959.816186-.7758498-2.241204-2.3225073-.774589.7720683zm15.853554 5.9893585s-2.362214 1.5466575-3.666221 2.6477213c-1.345605 1.0998033-3.305713 3.2609641-3.305713 3.2609641s-2.52545-1.3456046-3.54269-2.4466684c-.813665-.8962294-1.628591-1.7105251-1.628591-3.2987797v-5.2185509c0-.8962294-.167649-1.2208131-.571646-1.3853109v-.1191191l2.241834-2.2021277c-.041597-.0409668 3.094576-.6542096 5.909946-3.2603337.608201.4493752 1.263041.8955991 2.113261 1.5485482.816187.611352 2.44982 1.3859412 2.44982 3.2590733zm-5.178845 1.2195527v-5.9074248c0-1.5075814-.896229-2.0773362-1.793089-2.5676783v5.9496522c0 .611352.407779 1.3846807 1.062618 1.9563263.282987.2451711.450006.366181.730471.5691246zm-7.047564-7.7792963c.531939.3233232.446224 1.1395096.446224 1.5876243v5.2960729c0 2.1605305 2.57146 3.8729462 4.767285 5.1353566l.693916-.7329922c-1.343084-.7752195-4.483668-2.3628438-4.483668-4.5630807v-5.6250684c0-.3636599 0-1.5472877-.729211-1.7937193zm5.254475-2.3647347v1.2214435c.407779.2432802.816187.405257 1.183628.7342526.609461.5281577.978163 1.2208132.978163 2.2002368v6.2364204l.89686.6920253.081934-.0831943v-7.0097492c0-1.2624103-.366181-1.9966629-1.01976-2.6886881-.857154-.9371963-2.120825-1.302747-2.120825-1.302747zm51.744958 8.8828812c0 1.7124158 1.463463 2.2014974 1.832165 2.4050713l-3.585548 3.5849175s-3.422941-1.6720791-3.422941-3.7500456v-14.5054286c0-1.58951509-.530048-2.24309447-1.305268-2.68931839l3.587439-3.7487851c1.385941.44748443 2.894153 2.36410439 2.894153 4.15404213zm-5.912467-14.99577067c.695807.40714781 1.105475 1.26178005 1.105475 2.76999167v14.2627786c0 1.5888848 1.545397 2.5676783 3.010121 3.5042443l.736144-.7329921c-1.101695-.8155562-2.775034-1.4666145-2.775034-3.1361726v-14.0213891c0-1.95506581-.528158-2.97230507-1.462203-3.29814938zm14.383788 11.98060797v3.4229408c0 .6119822.613873 1.4659842 1.469136 1.4659842.77648 0 1.179216-.4871908 1.750861-1.0203906l.369963.3277351-4.888295 4.8485884s-1.592666-.6901344-2.610536-1.7911983c-.814926-.8968596-1.26241-2.0369995-1.26241-3.3447885v-5.8242306c0-.6932857-.286138-1.2643011-.856523-1.3846807v-.1235309l2.238052-2.2021276c-.039706-.0403367 3.671894.0422274 5.828012-3.2578128 0 0 .652949.8546323 1.755274 1.9569566.935305.9353055 1.953175 2.0773362 2.321877 2.4012897 0 0-5.052163 3.7090788-6.115411 4.5252652zm1.510733-1.6311123-1.510733-1.9140989v3.0145324zm-7.048195-1.8334257c.772068.4474845.731101 1.1817371.731101 1.630482v5.786415c0 2.2815403 1.343714 3.5464717 3.466429 4.6431237l.773329-.7342526c-1.346235-.7304711-3.262855-1.5044301-3.262855-3.9926957v-6.1923022c0-.3674414-.199792-1.5882546-1.057576-1.790568zm5.537462-2.2815403v1.5050603l1.836577 2.3647346.854632-.6516886-2.608645-3.3000401zm-19.393723-3.1809211c.571015.5319392 1.101694 1.2668221 2.608645 1.3890925.528788.0409669 1.26178-.162607 1.750862-.5710153l.12164.080043c-.079413 1.3462348-1.061988 2.8525557-2.241204 3.547102-.651688.3674414-2.239943.8949688-3.220627.3239535v7.6614377c0 .6094612.611352 1.467875 1.467244 1.467875.77459 0 1.183628-.4897118 1.753383-1.01913l.285508.2861379-4.806991 4.806361s-1.549179-.6504281-2.56957-1.7527524c-.811774-.8943386-1.303377-1.6695581-1.303377-3.2981494v-5.8702395c0-.6913949-.118489-1.3033772-.854632-1.5075813v-.1191191l2.241834-2.2021277c-.039706-.0409668 2.93575.3252141 4.767285-3.2218879zm-6.47907 5.3817882c.775219.4481147.695176 1.181737.695176 1.6298517v5.9502825c0 2.2399432 1.339932 3.5042443 3.460756 4.6015266l.694547-.7311014c-1.344344-.7745892-3.1784-1.6714489-3.1784-3.8704252v-6.4399943c0-.3636599-.163868-1.5069511-1.0185-1.7937193zm5.498386-2.241834v1.26178c.448114.162607.736143.2458013 1.224594.2458013.65295 0 1.588255-.3668111 2.079227-.6920252v-.0831943c-.734882.0415972-1.14077.1235309-1.836577-.0397063-.567233-.1216402-1.137618-.4890816-1.467244-.6926555zm-8.476364 8.8835114c0 1.5907757 1.470396 2.1586397 1.834686 2.4012897l-3.581766 3.547102s-3.424201-1.6298518-3.424201-3.7065577v-7.8662722c0-1.5863638-.89686-2.1573792-1.589515-2.6061241l3.582396-3.7929033c1.389093.5319392 3.1784 1.91662 3.1784 3.9555103zm-6.269824-8.3124961c.773959.4084084 1.465984 1.2195527 1.465984 2.7290248v7.742111c0 1.4269081 1.792459 2.690579 3.014533 3.3813437l.773328-.8130351c-1.100433-.8155562-2.81411-1.5485483-2.81411-3.1361726v-7.3784511c0-1.834056-.854632-2.8109586-1.74834-3.1765093zm4.356986-11.65539388 2.605494 2.60801492-3.871056 3.78975199-2.563897-2.56704804zm-3.301301 3.83071887 2.035739 2.03889036.858414-.81744692-2.077967-2.0773362zm-13.934413 4.11370551c1.386571.4506357 3.054869 2.1214544 3.175249 3.8326097l3.994586-3.8326097s1.184258.7336224 2.161791 1.7949798c.816186.8577836 1.346235 2.0773362 1.346235 3.4235711v7.1698351c0 1.5101024 1.136358 1.8346862 1.586364 2.2027579l-3.259074 3.4248316s-1.182367-.6945463-2.197715-1.7968706c-.816817-.8943386-1.305899-1.9153594-1.305899-3.2571825v-6.2754965c0-1.9582171-1.061987-2.4057015-1.833425-2.7309156l-.492863.4065176v8.2318228c0 1.4666145.857153 1.6714489 1.224594 2.0376298l-3.381974 3.384495s-3.017053-1.67397-3.017053-3.7506759v-7.9469454c0-1.6708187-.813035-2.1170426-1.585734-2.6073847zm3.952359 3.629666c.896229.4481147 1.91788 1.0178695 1.91788 2.8922621v6.3990274c0 2.2399432 1.546658 3.5842873 3.093945 4.6424935l.732993-.7752195c-1.182998-.7708077-2.848144-1.9519145-2.848144-3.9088711v-6.7652084c0-1.9550658-1.267453-2.9332289-2.042042-3.2590732zm-7.050086 0c.818077.4058873 1.466615 1.2220737 1.466615 2.7296551v7.8227842c0 1.3443441 1.182367 2.4447777 2.648981 3.3813437l.692656-.7311014c-1.100434-.8149258-2.365995-1.4281686-2.365995-3.0164232v-7.6576562c0-1.9569566-.854633-2.9363803-1.670189-3.2622246zm-195.7555328-7.2624833h3.7834494v7.159751c0 3.7021459-2.0748152 5.6534301-5.1246422 6.1828483v-5.2065759s-1.0594666 0-1.3046377.0409668c-1.3014864.2439106-1.3014864.608831-1.4634632 1.1785858h-.0819337c-.6491676-.6088309-1.0569457-1.5869941-1.0569457-2.4807024 0-2.0344786 1.6695581-3.6618093 3.9069803-3.7418523v-1.83090462zm-1.0172393 1.4224963v1.710525h1.0172393v-2.68679739zm-2.3578017 6.5931474c.5268971-.2880287 1.2605195-.2880287 2.4000292-.2470618v5.126533s.405257-.0819338.567864-.123531c.162607-.0378155.528788-.2010528.528788-.2010528s0-4.3935409 0-5.8998617h-1.5044301c-.4897119 0-1.0588364.1203796-1.3014864.245171-.4481147.2042042-.8155562.608831-.8155562 1.0563154zm-64.28460566-3.7242049c1.91220814 1.8693504 4.55614786 2.6426792 7.48622556 3.0510875 4.0267296.5697548 8.0137529 1.4237568 7.8511459 5.5733871-.082564 1.9096871-1.3443441 3.0901637-2.0344785 3.661179l-.1229007-.0831943c.082564-.2023133.0415972-.5275274-.0390761-.7708077-1.4653539-4.4761048-14.97056027-1.0172392-14.68757364-9.1129259.04159715-1.1376189.6126125-2.2802799 1.09917304-2.8884806 0 0 .08256403.2439106.44748444.5697549zm-1.09917304 1.7489708c-.08067325.5281577-.16197676 1.9519145.69328575 3.3365952.93530549 1.5044301 3.62021211 2.4397356 6.30511875 2.8456229 2.6036031.4084083 4.9210682.8962294 6.2244454 1.6273307.7317316.4077781 1.4634632 1.3033772 1.38279 2.0357391h.0806732c.6510584-.5294182.9371963-2.6458305-1.2611498-3.7431128-1.4634632-.7329921-3.7834494-1.0985428-6.2219244-1.4634632-1.79182853-.2861379-3.13365157-.4071478-4.59900554-1.3021167-1.13950966-.6913949-2.11515178-1.4224963-2.52040881-3.3365952zm.56975483-7.48496499c1.30274694-4.02672966 5.57527791-5.12653296 8.58539857-5.08493581 2.8065467.04033662 6.1406209 1.66703708 6.9958834 2.39939893l-2.9281869 3.66054874c-.9769026-.64979782-4.5574083-3.04982702-7.6066051-3.04982702-1.99540243 0-4.19185772.61135198-4.23156409 2.31998621-.08256403 2.48259323 6.22381519 2.64330947 9.27427249 3.33722547 7.9324495 1.82775337 8.3402275 5.48956257 8.0547198 8.57909597-.5281576 5.6553209-5.6540603 10.57828-7.8908523 12.3278811 0 0-3.0504572-4.0286205-7.89463381-4.0286205-2.11263075 0-4.79753736 1.222704-4.79753736 3.581136 0 3.1323911 3.21243404 5.0023718 6.34545535 5.1252725 1.87187151.082564 3.66180922-.8558928 3.98639302-1.0178695l.1632373.3674414c-1.1407702.4890816-2.40002921 1.0998033-4.31223734 1.0998033-3.21432482 0-7.36206436-2.1164123-7.36206436-6.3479764 0-5.2078365 4.92106827-7.7685819 8.5425409-7.7685819 5.5708661 0 7.8895918 3.049827 8.7051479 3.8225255.1216402.082564 2.8052863-2.1548582 3.0510876-4.7187549.5697548-6.1841088-6.2654124-6.5080624-8.2185874-6.8339067-3.3763016-.5710153-10.53479205-1.3827899-8.46186767-7.76984239zm-1.3002259 21.03239869.08067325.1216402c.40714781-.4884513 2.27838906-1.2233342 3.78344939-1.1407702 4.47484433.2042042 6.71352703 2.9319684 7.76921213 3.9485775l1.1804766-1.0166091c-1.6695581-1.7527524-4.8391345-3.9076105-8.09505648-3.9076105-2.48133271 0-4.06895707.9384568-4.71875489 1.9947721zm6.99588343-23.43116737c1.34308354.1613465 2.52229964.4871908 3.54142964.9353055 1.5857336.73110133 2.8462531 1.6260702 3.3744108 1.95002372l.8149259-1.05631537c-.6932858-.44622392-2.321877-1.38342019-3.7034064-1.91094762-.9750119-.36744145-2.8078073-.73362237-4.02735994 0z" fill-rule="evenodd" transform="translate(.523 .09)"/></svg>