<svg height="98" viewBox="0 0 267 98" width="267" xmlns="http://www.w3.org/2000/svg"><path d="m89.5695706 97.1769384c-2.3701486-1.1036036-4.2442197-2.759009-5.4017341-4.9662162-.7716763-1.3795045-.9921552-3.8626126-1.1023947-14.7331081l-.220479-13.0225226-2.700867-.6621621c-1.9291908-.4966216-2.7008671-.9380631-2.7008671-1.6002252 0-.7725226 1.1023948-1.213964 5.6773328-2.1520271 3.0867052-.6621621 6.1734104-1.3795045 6.889967-1.545045l1.2126342-.3310811v14.5675676c0 14.2916666 0 14.6779279 1.2677539 16.4988738.6614368.9932433 1.874071 2.2072072 2.5906276 2.5934685 1.7087118.8828829 8.9293968.606982 11.1893068-.4414414l1.488232-.7173424v-13.1328829-13.0777027l-2.755986-.6621621c-1.984311-.4966216-2.755987-.9380631-2.755987-1.6002252 0-.7725226 1.102395-1.213964 5.677333-2.1520271 3.086705-.6621621 6.17341-1.3795045 6.889967-1.545045l1.212634-.3310811v16.8851351c0 16.1677928.05512 16.9403153 1.102394 17.9887388.606318.606982 1.818952 1.1036036 2.755987 1.1036036 1.267754 0 1.653592.2759009 1.653592 1.0484234 0 1.3243243-4.07886 2.8141892-7.771882 2.8141892-2.370149 0-2.811107-.2207207-4.133981-1.8761261l-1.488232-1.820946-3.307185 1.7105856c-2.866226 1.4898649-3.968621 1.7105856-8.3230797 1.8761261-3.6379026.0551802-5.5670933-.1103603-6.9450867-.7173423zm48.9463254.1103603c-7.551404-2.8693693-11.520025-7.9459459-12.346821-15.8367117-.937035-9.6013513 3.196945-17.9335585 10.748349-21.4650901 2.590627-1.2139639 3.858381-1.4346846 8.047481-1.4346846 4.24422 0 5.346614.2207207 7.716763 1.4346846 3.086705 1.6002253 6.008051 5.0213964 6.889967 8.1114865.275599 1.1036036.551197 3.5867117.551197 5.518018v3.4211712h-12.732659-12.732659l.385839 2.9245496c.496077 4.0833333 2.645747 8.2218468 5.126135 9.9324324 3.031585 2.0968468 6.449009 2.759009 13.614575 2.5382883 6.17341-.2207207 6.338769-.2207207 6.338769.9380631 0 .8828828-.771676 1.545045-3.417423 2.759009-3.031586 1.3243243-4.24422 1.545045-9.811313 1.7105855-4.409579.1103604-6.945087-.0551801-8.3782-.5518018zm12.787779-27.59009c-.440958-3.8626127-1.488233-5.9594595-3.637903-6.8975226-2.204789-1.0484234-5.401734-.7725225-7.441164.606982-2.03943 1.3243243-4.905657 6.3457207-4.905657 8.4977478v1.2691441h8.157721 8.157721zm93.86891 27.259009c-3.362304-2.1520271-3.527663-2.9797298-3.472544-18.7612613v-14.2916667l-2.755986-.6621621c-4.464699-1.0484234-3.527664-3.2556307 1.433113-3.3108108 1.708711 0 1.763831-.0551802 3.031585-4.7454955 1.377993-4.9110361 1.708712-5.3524775 4.795417-6.0146397l1.763832-.3862612v5.5731982 5.5731982h6.063171 6.063171v2.2072072 2.2072072h-6.063171-6.063171v12.9121621c0 16.2781532-.385838 15.5608109 7.716763 15.3952703 5.401734-.0551802 5.567093 0 5.401734 1.1036036-.440958 3.1452703-14.110653 5.5731982-17.913914 3.2004505zm-231.8336089-.6621622c-.3307185-1.213964.2755986-1.545045 4.5198183-2.7038288l2.2599092-.606982v-24.2240991-24.2792793h-6.7797275-6.77972755l-1.81895128 5.518018c-1.37799339 4.3592343-1.98431048 5.5180181-2.81110652 5.5180181-.99215524 0-1.37799339-2.6486487-1.81895128-12.9673424l-.11023947-2.152027 24.8038811-.0551802c21.6069364 0 24.8038811.1103604 24.6936416.8277027-.0551197.4414414-.6063171 3.8626126-1.2677539 7.6148649-1.047275 5.7939189-1.3779934 6.731982-2.2599092 6.731982-.6614368 0-1.1575144-.5518019-1.3779934-1.4898649-.1653592-.8828829-.7716763-3.2556306-1.2677539-5.4076577l-.9370355-3.8626126-6.7246078-.1655405-6.7246077-.1655406v24.2792793 24.2792793l3.1969446.8828829c1.7087119.4966216 3.3071842 1.2139639 3.5276631 1.545045 1.2126342 1.9313063.6063171 2.0416667-10.8034682 2.0416667-10.8585879 0-11.2444261-.0551802-11.5200247-1.1587838zm33.8986374 0c.1102395-.8277027.9370356-1.4346847 2.6457474-2.0968468l2.4803881-.9380631.1653592-14.402027.1102394-14.4020271-2.7559867-.6621621c-1.9843105-.4966216-2.7559868-.9380631-2.7559868-1.6002252 0-.7725226 1.2677539-1.213964 6.5041288-2.3727478 3.5276631-.7725225 6.6143683-1.3243243 6.889967-1.1587838.2204789.1103604.3858381 1.0484234.3858381 2.0968469v1.8761261l3.4725434-1.6554054c3.5276631-1.6554054 10.0317919-3.1452703 10.6932287-2.4831081.4960776.4966216-1.4882329 12.0292793-2.1496697 12.9121621-.3307184.3310811-.9370355.6621622-1.3228737.6621622-.4409578 0-.7716763-.3310811-.7716763-.6621622 0-.3862612-.606317-1.9864864-1.3228736-3.5867117-1.5984723-3.4211711-2.8111065-3.9177928-6.1734104-2.6486486l-2.4252684.938063.1102395 13.5743244.1653592 13.6295045 2.700867.8828829c1.8189513.5518018 2.8662263 1.2139639 3.141825 2.0416666l.4409579 1.213964h-10.1971511c-10.0869117 0-10.1971512 0-10.031792-1.1587838zm119.4995875-.1103604c0-1.0484234.440958-1.4346846 2.370148-1.9864864 1.267754-.3862613 2.645748-.9932433 3.031586-1.2691442.496077-.4414414.661437-5.9594594.661437-24.1689189s-.16536-23.7274775-.661437-24.1689189c-.385838-.2759009-1.763832-.8828829-3.031586-1.2691442-1.874071-.5518018-2.370148-.938063-2.370148-1.9313063v-1.2139639l15.047688.0551801c14.386251.1103604 15.102807.1655406 17.748554 1.3795045 3.472544 1.6002253 5.126136 3.1452703 6.39389 5.9042793 1.157514 2.5382883 1.377993 7.1182433.385838 10.2635135-.826796 2.8141892-3.693022 6.1801802-6.504129 7.5596847l-2.259909 1.1036036 2.590628.8828829c3.748142 1.2691442 6.008051 3.2556306 7.661643 6.6768018 1.377993 2.7038288 1.488233 3.5315315 1.267754 7.338964-.330719 5.0213964-1.543353 7.8355856-4.850537 10.8153153-4.850537 4.4144144-9.204996 5.2972973-25.465318 5.2972973h-12.016102zm27.449628-4.2488738c6.008051-3.4211712 7.551404-13.6295045 2.811107-18.981982-2.20479-2.5382883-5.677333-3.6418919-11.354666-3.6418919h-4.574938v11.8085586c0 8.9391891.165359 11.9189189.716557 12.1396396.330718.1655405 2.755986.2207207 5.346614.1655405 3.748142-.1103603 5.181255-.4414414 7.055326-1.4898648zm-4.023741-27.0934685c4.850537-1.3795045 7.386045-4.911036 7.441165-10.3186937 0-3.6418919-.992156-6.0698198-3.252065-8.0011261-2.204789-1.8761261-4.905656-2.5934685-9.535714-2.5934685h-3.748142v10.7601351 10.7601352h3.472543c1.874071 0 4.409579-.2759009 5.622213-.606982zm23.977085 31.3975225c0-1.0484234.496078-1.4346847 2.645748-2.0968468l2.590627-.8277027.16536-14.4020271.110239-14.3468468-2.755987-.7173423c-1.98431-.4966217-2.755987-.9932433-2.755987-1.6554054 0-.7725226 1.102395-1.213964 5.677333-2.2072073 3.086705-.6621621 6.173411-1.3243243 6.834847-1.4898648l1.157515-.3310811-.275599 14.5675676c-.165359 7.9459459-.165359 15.947072.05512 17.6576576l.385838 3.1452703 2.590628.7173423c1.98431.5518018 2.645747 1.0484235 2.755986 1.9864865l.16536 1.213964h-9.645954c-9.701074 0-9.701074 0-9.701074-1.213964zm3.79002-45.2101378c-2.109335-2.2088354-6.772077-7.0682731-10.380151-10.7680723s-6.550042-7.0130522-6.550042-7.2891566c0-.3313253 4.052145 1.4909638 9.047939 4.0863453l8.992431 4.6385543 1.221194-1.7670683c4.829269-6.9578313 21.814971-23.5240964 31.195963-30.42670684 5.828428-4.30722892 15.042894-9.93975904 15.486964-9.44277109.166527.16566265-.888141 1.32530121-2.38688 2.59538153-5.162321 4.19678715-19.42809 18.9407631-23.924306 24.7389558-5.439865 6.9578313-11.268292 15.5722892-15.209419 22.5301205-1.609756 2.7610442-3.108495 5.0803213-3.275021 5.0803213-.222036 0-2.164845-1.8222892-4.218672-3.9759036z" fill-rule="evenodd" transform="translate(0 -.005)"/></svg>