<svg xmlns="http://www.w3.org/2000/svg" width="137" height="151" viewBox="0 0 137 151">
  <path d="M55.0839971,147.269226 C56.2595692,147.269226 58.2901029,146.896393 59.8931558,144.33982 C58.9847591,142.315867 58.343538,138.267961 58.2366678,136.776627 C57.7557519,129.160171 60.6946822,122.023073 63.900788,121.863287 C66.2519322,121.703502 68.1221606,123.940503 68.335901,127.562314 C68.9236871,137.042936 65.7710164,140.984319 64.1679635,144.393082 C64.435139,145.72463 66.679413,147.961631 68.8168169,147.961631 C69.6183433,147.961631 70.52674,147.588798 70.7939154,147.269226 C70.6336102,146.736607 70.4733049,146.044202 70.4733049,144.978964 C70.4733049,139.492985 74.0000212,134.859198 77.0992568,134.859198 C79.5572713,134.859198 80.9465838,138.054913 80.9465838,140.18539 C80.9465838,142.688701 78.8091799,144.712654 75.7099443,146.683345 C76.2442953,147.215964 77.2595621,147.64206 78.1679588,147.64206 C82.6565069,147.64206 85.0076511,142.262605 86.7175742,137.309246 C87.0381848,136.350531 87.5725357,135.018983 88.6946728,135.018983 C90.5649011,135.018983 91.3664276,147.37575 94.5190983,147.37575 C95.8549757,147.37575 96.9771127,144.659392 96.9771127,142.528915 C96.9771127,140.984319 96.4427618,140.824533 96.4427618,138.53427 C96.4427618,136.03096 97.7786392,133.900483 99.5954325,133.900483 C100.717569,133.900483 101.091615,134.965721 101.091615,136.29727 C101.091615,141.303891 97.4580286,150.624728 92.1145189,150.624728 C88.1068867,150.624728 88.4274973,143.753939 86.9847497,143.753939 C85.3816968,143.753939 83.1908578,150.731252 75.4427688,150.731252 C74.1603265,150.731252 72.8244491,150.092108 71.7557472,148.867084 C69.8855188,150.14537 68.2824659,150.67799 66.4656726,150.67799 C63.5801774,150.67799 62.2977351,147.695322 61.122163,147.695322 C59.7328505,147.695322 58.1297976,150.731252 53.4275091,150.731252 C49.6336172,150.731252 49.0458312,145.72463 47.7099538,145.72463 C46.5343816,145.72463 44.7175884,150.731252 42.7404898,150.731252 C39.4275138,150.731252 38.7328575,142.049558 35.8473623,142.049558 C33.5496532,142.049558 26.3893503,150.891037 24.4122517,150.67799 C23.6107252,150.571466 23.2901147,149.985585 23.3969848,149.239918 C23.503855,148.174679 24.4656868,145.245273 24.8397325,143.860463 C25.4809536,141.463676 26.0687397,138.853842 26.3893503,138.054913 C26.7099608,137.202722 27.5649224,136.616841 28.2595786,136.670103 C28.6336243,136.723365 28.7404945,137.362508 28.8473647,137.895127 C29.2214104,139.812557 29.8091964,141.783248 30.3969825,141.783248 C31.5191195,141.783248 35.1527061,134.805936 37.2901099,134.805936 C39.9084297,134.805936 40.1756051,145.777892 43.7557566,145.777892 C44.9313287,145.777892 45.7862903,144.393082 46.5878167,142.635439 C46.6412518,139.759295 47.4427783,135.604864 49.7939225,135.604864 C51.4504105,135.604864 52.251937,139.279937 51.0229297,142.475653 C50.9160595,146.310512 53.4275091,147.269226 55.0839971,147.269226 Z M117.923671,137.841865 C118.083976,137.14946 118.671762,135.658126 119.954204,135.658126 C121.343517,135.658126 120.702296,144.499606 122.679394,144.499606 C123.854966,144.499606 125.458019,133.474387 132.832062,133.474387 C135.343512,133.474387 137,134.859198 137,136.670103 C137,137.895127 136.038168,139.013628 134.702291,139.013628 C131.870231,139.013628 132.564887,136.883151 131.389315,136.883151 C128.236644,136.883151 125.938935,142.901748 123.587791,148.174679 C122.625959,150.305156 122.091608,150.67799 121.290082,150.67799 C119.312983,150.67799 118.885502,145.245273 118.083976,142.901748 C116.427488,146.470297 113.274817,150.67799 108.091613,150.67799 C105.152682,150.67799 102.160317,149.133394 102.160317,144.33982 C102.160317,139.013628 105.633598,135.178769 109.160315,135.178769 C111.83207,135.178769 113.648863,137.895127 113.648863,139.865819 C113.648863,145.138749 106.755735,145.245273 106.755735,146.363774 C106.755735,147.429012 108.572529,147.801846 109.587795,147.801846 C114.022909,147.801846 116.961839,141.889772 117.923671,137.841865 Z M65.7710164,129.639529 C65.6107111,127.45579 65.1297952,126.443813 63.900788,126.550337 C62.3511702,126.656861 61.6030788,131.556958 61.9236894,136.723365 C62.1374298,140.078866 62.6183457,140.611486 63.0992615,140.558224 C64.0076582,140.504962 66.0916269,134.486364 65.7710164,129.639529 Z M53.0000283,125.005741 C53.1603336,126.816647 51.9313264,128.787338 50.1679682,128.734076 C48.6717855,128.734076 47.9236941,127.668837 47.8168239,126.390551 C47.6565187,124.41986 49.0458312,122.875264 50.5420139,122.875264 C51.8778913,122.875264 52.8931581,123.727455 53.0000283,125.005741 Z M77.4733025,140.984319 C77.4733025,139.652771 76.7786462,138.53427 75.9236847,138.53427 C75.2290285,138.53427 73.5725405,139.333199 73.5725405,141.83651 C73.5725405,143.807201 74.2671967,144.712654 74.5878073,145.138749 C76.8320813,144.446344 77.4733025,142.582177 77.4733025,140.984319 Z M108.145048,138.321223 C105.152682,138.321223 105.419858,143.168058 105.847339,144.33982 C108.038178,143.966987 109.480925,142.635439 109.854971,141.463676 C110.282452,140.291914 109.801536,138.321223 108.145048,138.321223 Z M17.6794295,132.781982 C17.4656891,132.089577 16.824468,130.49172 16.6107276,129.266695 C16.2366819,126.656861 17.5725593,124.952479 18.8550016,124.526384 C20.2443142,124.15355 20.8321002,124.845955 21.3664512,126.497075 C22.0611074,129.000386 22.1679776,132.302625 21.9008021,136.989675 C21.5801916,143.434368 18.3740858,151.157347 10.3588213,150.997561 C3.46569386,150.837775 0.366458259,146.363774 0.0458476799,139.546247 C-0.11445761,136.350531 0.0992827764,133.101554 1.43516019,128.57429 C2.12981644,126.124242 2.7710376,125.272051 4.96187656,124.792693 C6.67179965,124.473122 6.51149436,126.284027 6.13744868,128.414504 C5.28248714,133.101554 4.85500636,135.391817 5.17561694,140.718009 C5.49622752,146.363774 8.06111215,148.547513 10.8931723,148.547513 C15.1145449,148.654036 17.0382084,145.085487 17.7862997,140.025604 C18.5878262,135.977698 18.1069103,134.007007 17.6794295,132.781982 Z M110.335887,30.8919173 C111.992375,31.0517031 117.015274,30.3060361 118.938937,26.4179155 C120.11451,26.8440109 120.007639,28.6016544 120.007639,30.8919173 C120.007639,34.8865618 119.580159,39.9464448 118.511457,40.0529686 C116.854969,40.1594925 110.870238,34.8332998 110.335887,30.8919173 Z M110.709933,29.1875356 C109.053445,29.1875356 107.931308,28.6549164 107.931308,27.5364159 C107.931308,27.0570586 108.358788,26.0983439 109.748101,26.0983439 C113.541993,26.0983439 117.015274,23.5417714 117.015274,21.2515086 C117.015274,20.5591036 116.854969,20.2927939 116.587793,19.9199605 C118.297716,20.1330082 118.992372,21.2515086 118.992372,22.6895806 C118.992372,25.7255104 115.038175,29.1875356 110.709933,29.1875356 Z M109.801536,24.4472242 C109.21375,24.4472242 108.358788,24.4472242 107.931308,23.5417714 C107.557262,22.7961045 107.664132,21.5710802 106.969476,21.0384609 C107.664132,21.2515086 108.412223,21.2515086 109.000009,21.2515086 C110.870238,21.2515086 112.687031,19.9732224 114.076344,19.9732224 C114.98474,19.9732224 115.251916,20.5591036 115.251916,21.1449848 C115.251916,22.9558903 111.511459,24.4472242 109.801536,24.4472242 Z M16.5572925,57.0435231 C17.946605,57.0435231 17.6794295,48.4150911 19.9771387,48.4150911 C20.5114896,48.4150911 20.6717949,48.9477103 20.6717949,49.6401154 C20.6717949,51.6108066 19.7099632,54.4869507 19.7099632,56.0315465 C19.7099632,56.8304754 19.9237036,57.096785 20.2977493,57.096785 C21.3130161,57.096785 23.0229392,47.5629002 24.7328623,47.5629002 C25.2672132,47.5629002 25.5343887,48.0955195 25.5343887,48.6281388 C25.5343887,50.59883 22.9695041,56.3511181 22.9695041,57.9489759 C22.9695041,58.2152855 23.0763743,58.4283332 23.2366796,58.4283332 C24.3053815,58.4283332 26.3893503,53.9543314 27.0305714,51.7173305 C27.4046171,50.5455681 27.885533,49.906425 28.3664488,49.906425 C28.7939296,49.906425 29.1679753,50.3857823 29.1679753,51.344497 C29.1679753,53.5814979 27.0840065,58.8544286 25.2672132,62.4229777 C23.8779007,65.086074 21.6870618,69.0274565 21.6870618,71.2644575 C21.6870618,72.3829579 21.9008021,73.5547203 23.503855,74.9395304 C20.8321002,74.7797446 19.7633983,74.513435 18.7481315,72.4362198 C14.3130184,81.2776996 26.9771363,80.4255088 22.6488935,88.255012 C21.8473671,86.8702019 15.5954608,85.3788679 15.5954608,77.1765313 C15.5954608,70.0926951 21.8473671,65.9382648 21.8473671,62.9555969 C21.8473671,62.3697158 21.6336267,61.8903584 21.0992757,61.4110011 C19.7099632,60.2392387 19.6565281,59.280524 18.5878262,59.280524 C17.7862997,59.280524 16.824468,61.0914295 17.8397348,62.7425492 C18.1603454,63.2751685 18.480956,63.5947401 18.480956,64.1273593 C18.480956,65.2991217 16.6641627,68.3883134 15.3817204,68.3883134 C14.0992781,68.3883134 13.0840112,65.1925979 13.0840112,60.026191 C13.0840112,55.4456653 14.0992781,50.8651397 15.4351555,50.8651397 C15.8092011,50.8651397 15.9160713,51.1314493 15.9160713,51.4510209 C15.9160713,51.9836401 15.755766,53.0488786 15.755766,54.9130461 C15.702331,56.8837373 16.1298117,57.0435231 16.5572925,57.0435231 Z M27.1374416,69.2405043 C26.0153046,69.2405043 24.8931676,68.3350515 24.8397325,66.8437176 C24.8397325,66.6306699 24.9466026,65.8850029 25.2137781,65.8850029 C25.5343887,65.8850029 25.8015642,66.7371937 26.7633959,66.7371937 C28.6336243,66.7371937 28.7404945,64.9262882 28.7404945,61.3577392 C28.7404945,57.2033089 30.4504176,52.5162594 35.9542325,49.0009722 C35.099271,50.4923062 34.8855306,52.4097355 34.8855306,53.6347598 C34.8855306,60.718596 43.435146,67.3230749 43.435146,71.6905529 C43.435146,73.5014584 42.0992686,75.4721496 39.7481244,75.4721496 C37.6641556,75.4721496 36.5420186,73.8210299 36.5420186,72.4362198 C36.5420186,71.3709813 37.2901099,70.5187905 37.5572854,70.5187905 C37.6641556,70.5187905 37.7175907,70.6253143 37.7175907,70.891624 C37.7175907,71.4775052 38.1985066,72.2231721 39.1603383,72.2231721 C40.0152999,72.2231721 40.6030859,71.584029 40.6030859,70.7851001 C40.6030859,67.3230749 33.5496532,61.3044772 33.5496532,53.0488786 C33.1756075,53.9543314 32.6946916,55.1260938 32.6946916,56.8837373 C32.6946916,60.8783818 35.6336219,65.0328121 35.6336219,68.7611469 C35.6336219,70.3057428 34.4046147,71.6905529 32.908432,71.6905529 C31.1985089,71.6905529 30.5572878,70.3057428 30.5572878,69.453552 C30.5572878,68.8676708 30.8244633,68.3350515 30.9847686,68.3350515 C31.1985089,68.3350515 31.0916387,69.1872423 32.0534705,69.1872423 C33.0687373,69.1872423 33.442783,68.4948373 33.442783,67.2165511 C33.442783,63.7545258 31.4656844,61.3044772 31.4656844,57.7359282 C31.4656844,57.2033089 31.4656844,56.6174277 31.5725546,56.0848084 C30.4504176,57.3630947 30.3435474,59.2272621 30.3435474,60.8251199 L30.3435474,65.086074 C30.3435474,67.962218 28.9007998,69.2405043 27.1374416,69.2405043 Z M99.3816921,27.6962017 C101.198485,27.6962017 102.587798,26.8440109 102.587798,26.3646535 C102.587798,26.2048678 102.320622,26.0983439 101.786271,26.0983439 C101.25192,26.0983439 100.183219,26.045082 98.0992498,25.7255104 C96.3358916,25.4592008 95.0000142,24.7667958 94.5190983,24.7667958 C94.358793,24.7667958 94.2519228,24.8733196 94.2519228,24.9798435 C94.3053579,26.045082 96.3358916,27.6962017 99.3816921,27.6962017 Z M90.2977257,22.423271 C90.8320766,22.0504375 93.1832209,22.6363187 96.2290214,21.1449848 C96.603067,20.9319371 96.9771127,20.8786751 97.2977233,20.8786751 C98.7404709,20.8786751 98.3664252,22.5297948 99.7023026,22.5297948 C100.717569,22.5297948 102.053447,21.677604 102.854973,21.677604 C104.083981,21.677604 105.900774,25.5657246 105.900774,27.4298921 C105.900774,29.5603691 102.694668,30.8386554 98.9007762,30.8386554 C93.3435262,30.8386554 90.0305502,26.045082 90.0305502,22.9026283 C90.0839853,22.5830568 90.1908555,22.5297948 90.2977257,22.423271 Z M28.0458382,84.8995106 C26.6030906,90.9713702 29.8091964,96.936706 36.4351484,96.883444 C39.8015595,96.883444 41.4046124,95.1790624 41.4046124,92.2496564 C41.4046124,89.0006789 39.1603383,85.6984395 35.4733167,85.6984395 C33.6030883,85.6984395 32.320646,86.763678 32.320646,88.255012 C32.320646,90.7583225 34.3511796,92.3561803 36.4885835,92.3561803 C37.9313311,92.3561803 38.8397277,91.7702991 38.8397277,90.8115844 C38.8397277,90.6517986 38.8397277,90.4387509 38.7328575,90.3322271 C38.5725523,90.385489 38.2519417,90.4920129 37.8244609,90.4920129 C36.1145378,90.4920129 34.7252253,89.5332982 34.7252253,88.5213216 C34.7252253,87.7223927 35.2595763,87.2430354 36.0076676,87.2430354 C38.5191172,87.2430354 40.2290402,89.7996078 40.2290402,91.6637752 C40.2290402,93.5812046 38.8931628,95.2323243 36.5420186,95.2323243 C31.5725546,95.2323243 29.4885858,91.131156 29.4885858,88.3615358 C29.4885858,85.3788679 32.0000354,83.4081767 34.7252253,83.4081767 C39.8015595,83.4081767 43.6488864,87.8289166 43.6488864,94.1138239 C43.6488864,96.936706 42.1527037,101.144398 36.0611027,101.144398 C28.8473647,101.144398 24.4656868,94.8594908 24.4656868,90.8115844 C24.4656868,87.4028211 26.6565257,85.2190822 28.0458382,84.8995106 Z M72.3969683,100.93135 C72.3969683,101.836803 73.1450597,102.58247 74.0534563,102.58247 C74.961853,102.58247 75.7099443,101.836803 75.7099443,100.93135 C75.7099443,100.025898 74.961853,99.2802307 74.0534563,99.2802307 C73.1450597,99.2802307 72.3969683,100.025898 72.3969683,100.93135 Z M75.6030741,109.240211 C77.5801727,109.240211 77.4733025,109.080425 78.1145237,109.080425 C78.7557448,109.080425 78.7557448,109.453259 78.7557448,109.719568 C78.7557448,110.625021 76.7252112,111.743521 73.0916246,111.743521 C70.9542207,111.743521 69.6717784,110.625021 69.2977327,109.346735 C67.213764,110.678283 64.0610933,111.903307 60.9084226,111.903307 C52.3588071,111.903307 50.2214033,108.228234 47.5496485,107.00321 C45.5191148,106.097757 42.3664441,107.855401 37.9847662,103.008566 C38.5725523,103.115089 39.3740787,103.168351 39.9618648,103.168351 C43.8091917,103.168351 45.8397254,101.304184 45.8397254,98.321516 C45.8397254,97.9486826 45.7862903,97.5225871 45.7328552,97.1497537 C46.9084273,97.629111 49.5801821,99.5998023 50.2214033,103.115089 C50.3282735,103.541185 52.0381966,103.914018 53.1068985,103.914018 C54.6030812,103.914018 56.5267447,103.274875 56.7939202,100.824827 C61.8168192,100.398731 65.1832303,97.4693252 65.8778866,93.7409904 C67.6412447,94.3268716 69.7252135,95.9247294 70.2061294,96.7769202 C70.9007856,96.5106105 71.7557472,96.4040867 72.7175789,96.4040867 C74.0534563,96.4040867 75.549639,96.6703963 77.3664323,97.2030156 C77.4733025,96.6703963 77.5267376,95.9779913 78.3816991,95.9779913 C79.6107064,95.9779913 79.2900958,97.3628014 79.7175766,98.1617303 C79.9313169,98.5878257 80.9465838,98.8008734 80.9465838,99.6530642 C80.9465838,100.451993 80.2519275,100.718303 79.8778818,100.718303 C79.7175766,100.718303 79.5038362,100.665041 79.396966,100.611779 C78.5420044,100.878089 78.5420044,106.896686 75.0152881,106.896686 C72.4504034,106.896686 70.0458241,104.766209 69.0305573,102.103113 C68.7633818,101.304184 68.1221606,100.824827 67.5343746,100.824827 C66.8931534,100.824827 66.5191077,100.93135 65.7175813,101.836803 C63.4733072,104.286852 59.7328505,106.417329 55.0839971,106.417329 C53.6412495,106.417329 52.5191124,106.310805 52.251937,106.310805 C52.0916317,106.310805 52.0916317,106.364067 52.0916317,106.417329 C52.0916317,106.683638 53.5343793,107.855401 56.5801798,107.855401 C63.900788,107.855401 65.7175813,103.754233 66.8931534,103.754233 C67.0534587,103.754233 67.5343746,103.754233 67.8549851,104.393376 C69.5649082,108.334758 73.305365,109.240211 75.6030741,109.240211 Z M100.877875,82.7690335 C100.022913,82.7690335 95.1603194,89.2137266 92.0610838,89.2137266 C91.3129925,89.2137266 90.6717713,87.7756546 90.6717713,86.7104161 C90.6717713,86.1245349 91.045817,85.6984395 92.3816944,85.4321299 C99.5419974,83.8342721 97.9389445,78.4548175 104.083981,78.4548175 C107.450392,78.4548175 111.190848,80.7450803 111.190848,85.9114872 C111.190848,91.3974656 103.335889,98.2149922 102.213752,98.2149922 C101.25192,98.2149922 100.236654,96.8301821 100.236654,95.9247294 C100.236654,95.6584197 100.343524,95.2855862 101.198485,94.9127528 C105.206118,93.314895 107.503827,89.693084 107.503827,87.8289166 C107.503827,87.4028211 107.290086,86.9767257 106.755735,86.9767257 C106.061079,86.9767257 103.015279,93.8475142 99.6488675,93.8475142 C97.2977233,93.8475142 94.9465791,91.7170372 94.9465791,90.7583225 C94.9465791,89.1072028 101.679401,86.0180111 101.679401,83.6744863 C101.625966,82.8222955 101.25192,82.7690335 100.877875,82.7690335 Z M105.419858,80.2124611 C104.832072,80.2124611 104.190851,80.6918184 104.190851,81.8103189 C104.190851,83.0353432 105.152682,83.8342721 105.687033,84.1005817 C105.954209,84.2603675 106.435125,84.4201533 106.916041,84.4201533 C108.145048,84.4201533 109.10688,84.1005817 109.10688,83.0886051 C109.053445,81.7570569 107.183216,80.2124611 105.419858,80.2124611 Z M27.5114873,32.0636797 C27.5114873,31.1582269 28.3130137,30.4125599 29.1679753,30.4125599 C30.0763719,30.4125599 30.8244633,31.1582269 30.8244633,32.0636797 C30.8244633,32.9691324 30.0763719,33.7147994 29.1679753,33.7147994 C28.2595786,33.7147994 27.5114873,32.9691324 27.5114873,32.0636797 Z M25.3740834,28.3353448 C25.3740834,27.4298921 26.1221748,26.6842251 27.0305714,26.6842251 C27.9389681,26.6842251 28.6870594,27.4298921 28.6870594,28.3353448 C28.6870594,29.2407976 27.9389681,29.9864645 27.0305714,29.9864645 C26.1221748,29.9864645 25.3740834,29.2407976 25.3740834,28.3353448 Z M23.8779007,39.7333971 C23.7175954,40.2127544 23.5572901,40.7453737 23.5572901,41.6508264 C23.5572901,42.9291126 23.9847709,44.1541369 25.160343,45.2726374 C24.8397325,45.538947 24.3053815,45.6987328 23.5572901,45.6987328 C22.1145425,45.6987328 20.9389704,44.7400181 20.9389704,43.2486842 C20.9389704,41.1714691 22.916069,39.9997067 23.8779007,39.7333971 Z M13.6717973,40.3192782 C14.633629,41.6508264 16.3435521,42.0769218 17.8397348,42.1301837 C18.3206507,42.1301837 18.8550016,42.1301837 19.3359175,42.0236599 C18.2672156,43.355208 17.0382084,43.9943512 16.0229415,43.9943512 C14.633629,43.9943512 13.6183622,42.9291126 13.6183622,40.9584214 C13.6183622,40.7453737 13.6183622,40.532326 13.6717973,40.3192782 Z M12.1756146,43.9943512 C13.4580569,45.9117805 14.633629,46.4976617 16.0763766,46.4976617 C17.1985137,46.4976617 18.480956,46.2313521 20.0840089,45.8585186 C17.946605,47.6694241 16.1832468,48.6281388 14.8473694,48.6281388 C13.1374463,48.6281388 12.1756146,47.1368048 12.1756146,43.9943512 Z M22.9695041,27.3766301 C20.137444,27.3766301 16.824468,26.045082 16.824468,22.7961045 C16.824468,21.2515086 18.0000401,19.9732224 19.603093,19.9732224 C22.4351531,19.9732224 23.3435498,23.0091522 23.3435498,24.9798435 C23.3435498,25.8852962 23.1832445,26.737487 22.9695041,27.3766301 Z M19.4427877,37.8692296 C20.1908791,37.8692296 20.9924055,37.4431342 20.9389704,37.1768246 C20.9389704,37.0703007 20.8321002,37.0703007 20.72523,36.9637769 C19.4962228,36.3778957 18.1603454,35.2061333 17.8931699,33.1821801 C17.8931699,32.8626086 17.7862997,32.7560847 17.6259944,32.7560847 C17.1985137,32.7560847 16.5572925,33.7680613 16.5572925,34.6202521 C16.5572925,36.164848 18.0534752,37.8692296 19.4427877,37.8692296 Z M23.2901147,32.7560847 C22.8091988,32.1702035 22.8091988,31.3180127 22.4351531,31.104965 C22.2214127,30.9984411 22.0611074,30.9451792 21.793932,30.9451792 C21.2061459,30.9451792 20.72523,30.9984411 20.72523,31.79737 C20.72523,33.0756563 21.9008021,35.2593952 23.3435498,35.2593952 C24.038206,35.2593952 24.3588166,34.5137283 24.3588166,33.9278471 C24.3588166,33.6082755 23.5572901,33.1289182 23.2901147,32.7560847 Z M13.511492,37.9224916 C14.045843,36.9637769 13.5649271,33.1821801 17.2519488,30.8386554 C19.068742,29.666893 20.6717949,29.5071072 22.0611074,29.5071072 C22.381718,29.5071072 22.7023286,29.5071072 22.9695041,29.5603691 C23.7175954,29.6136311 24.3053815,29.6136311 24.5191219,29.8266788 C24.8397325,30.1462503 24.6259921,30.7853934 25.160343,31.5310604 C25.694694,32.2767274 26.3359152,32.1702035 26.3359152,32.9691324 C26.3359152,33.5550136 25.160343,37.2833484 22.1679776,38.7746824 C20.72523,39.5203494 19.603093,39.786659 18.6412613,39.786659 C17.0382084,39.786659 15.9160713,39.0942539 14.9008045,39.0942539 C14.7404992,39.0942539 14.5267588,39.2007778 14.2061483,39.2007778 C13.8321026,39.2007778 13.4046218,38.7746824 13.4046218,38.4018489 C13.4046218,38.1888012 13.4580569,38.0290154 13.511492,37.9224916 Z M27.351182,36.2713718 C29.4351508,36.910515 31.9466003,38.8279443 32.0000354,41.6508264 C32.0000354,43.40847 31.0382036,45.1661135 29.00767,45.1661135 C26.8702661,45.1661135 25.4809536,43.3019461 25.4809536,41.0649452 C25.4809536,39.2007778 26.4427853,37.3366104 27.351182,36.2713718 Z M18.4275209,28.2820829 C18.4275209,28.2820829 17.1985137,29.1875356 15.702331,29.1875356 C13.8855377,29.1875356 12.4962252,27.8559875 12.4962252,25.9918201 C12.4962252,24.7135338 13.1374463,23.3819857 14.6870641,22.6895806 C14.633629,22.9558903 14.633629,23.168938 14.633629,23.3819857 C14.633629,25.7787724 15.9695064,27.5896778 18.4275209,28.2820829 Z M91.9007786,42.0769218 C91.9007786,41.1182071 92.702305,40.3192782 93.6641367,40.3192782 C94.6259685,40.3192782 95.4274949,41.1182071 95.4274949,42.0769218 C95.4274949,43.0356365 94.6259685,43.8345654 93.6641367,43.8345654 C92.702305,43.8345654 91.9007786,43.0356365 91.9007786,42.0769218 Z M92.0076488,47.2965906 C92.0076488,46.2313521 92.9160454,45.3791612 93.9847473,45.3258993 C95.1068843,45.3258993 95.9618459,46.2313521 95.9618459,47.2965906 C95.9618459,48.4150911 95.0534493,49.2672819 93.9847473,49.2672819 C92.8626103,49.2672819 92.0076488,48.3618291 92.0076488,47.2965906 Z M86.0229179,50.8651397 C86.0229179,49.2672819 87.3053603,47.9889956 88.9084132,47.9889956 C90.511466,47.9889956 91.7939084,49.2672819 91.7939084,50.8651397 C91.7939084,52.4629975 90.511466,53.7412837 88.9084132,53.7412837 C87.3053603,53.7412837 86.0229179,52.4629975 86.0229179,50.8651397 Z M87.5725357,45.0063278 C87.5725357,44.100875 88.3206271,43.355208 89.2290237,43.355208 C90.1374204,43.355208 90.8855117,44.100875 90.8855117,45.0063278 C90.8855117,45.9117805 90.1374204,46.6574475 89.2290237,46.6574475 C88.3206271,46.6574475 87.5725357,45.9117805 87.5725357,45.0063278 Z M82.1221559,48.3085672 C82.1221559,47.4031145 82.8702472,46.6574475 83.7786439,46.6574475 C84.6870405,46.6574475 85.4351319,47.4031145 85.4351319,48.3085672 C85.4351319,49.2140199 84.6870405,49.9596869 83.7786439,49.9596869 C82.8702472,49.9596869 82.1221559,49.2140199 82.1221559,48.3085672 Z M86.3969636,38.6148966 C86.3969636,37.1235627 87.6259708,35.9518003 89.0687184,35.9518003 C90.511466,35.9518003 91.7404733,37.1768246 91.7404733,38.6148966 C91.7404733,40.0529686 90.511466,41.2779929 89.0687184,41.2779929 C87.6259708,41.2779929 86.3969636,40.0529686 86.3969636,38.6148966 Z M89.4961992,33.5017517 C89.4961992,32.5962989 90.2442906,31.9038939 91.0992521,31.9038939 C92.0076488,31.9038939 92.702305,32.6495609 92.702305,33.5017517 C92.702305,34.4072044 91.9542137,35.0996095 91.0992521,35.0996095 C90.1908555,35.0996095 89.4961992,34.3539425 89.4961992,33.5017517 Z M81.9618506,37.4963962 C81.9618506,36.5909434 82.709942,35.8985384 83.5114684,35.8985384 C84.419865,35.8985384 85.1145213,36.6442053 85.1145213,37.4963962 C85.1145213,38.4018489 84.36643,39.0942539 83.5114684,39.0942539 C82.6565069,39.0942539 81.9618506,38.348587 81.9618506,37.4963962 Z M81.7481102,42.8758507 C81.7481102,41.4377787 82.8702472,40.3192782 84.2595598,40.3192782 C85.7023074,40.3192782 86.8244444,41.4377787 86.8244444,42.8758507 C86.8244444,44.3139227 85.7023074,45.4324232 84.2595598,45.4324232 C82.8702472,45.4324232 81.7481102,44.3139227 81.7481102,42.8758507 Z M76.5114708,45.538947 C76.5114708,44.2606608 77.5801727,43.1421603 78.862615,43.1954223 C80.1450573,43.1954223 81.2137593,44.2606608 81.2137593,45.538947 C81.2137593,46.8172333 80.1450573,47.8824718 78.862615,47.8824718 C77.5801727,47.8824718 76.5114708,46.8172333 76.5114708,45.538947 Z M77.9542184,39.6801351 C77.9542184,38.7746824 78.7023097,38.0290154 79.6107064,38.0290154 C80.519103,38.0290154 81.2671944,38.7746824 81.2671944,39.6801351 C81.2671944,40.5855879 80.519103,41.3312548 79.6107064,41.3312548 C78.7023097,41.3312548 77.9542184,40.5855879 77.9542184,39.6801351 Z M92.5419997,52.4629975 C92.5419997,51.6108066 93.2900911,50.9184016 94.0916175,50.9184016 C95.0000142,50.9184016 95.6946704,51.6108066 95.6946704,52.4629975 C95.6946704,53.4217121 95.0000142,54.0608552 94.0916175,54.0608552 C93.3435262,54.1141172 92.5419997,53.4217121 92.5419997,52.4629975 Z M93.6641367,100.238945 C93.3969613,100.238945 92.0076488,101.570494 88.6946728,101.517232 L88.1603218,101.517232 C88.2137569,101.890065 88.267192,102.156375 88.267192,102.475946 C88.267192,103.487923 88.0000165,104.499899 87.6794059,105.511876 C89.7633747,105.458614 91.1526872,104.872733 92.2213891,104.180328 C93.7175718,103.221613 94.1450526,101.996589 94.1450526,101.091136 C94.1450526,100.345469 93.8778771,100.238945 93.6641367,100.238945 Z M93.9847473,96.1377771 C92.9160454,97.0432298 91.2595574,97.5225871 89.5496343,97.5225871 C87.2519252,97.5225871 85.4351319,96.7236583 85.4351319,95.9247294 L85.4351319,94.0073 C85.4351319,93.4214188 87.0381848,92.0366087 90.0839853,92.0366087 C92.5954348,92.0366087 94.4122281,92.7290138 94.4122281,93.9540381 L94.4122281,94.9127528 C94.4122281,95.3921101 94.3053579,95.8714674 93.9847473,96.1377771 Z M96.1221512,96.6171344 C97.0839829,96.6171344 98.4198603,97.5225871 98.3664252,99.81285 C98.3664252,103.754233 92.5419997,108.601068 84.7404756,108.601068 C82.3358963,108.601068 81.053454,106.949948 81.053454,105.298828 C81.053454,102.902042 82.3358963,100.771565 83.3511631,99.5998023 C83.832079,99.067183 84.2595598,98.6410876 84.6870405,98.6410876 C85.0076511,98.6410876 86.0229179,99.3334926 88.267192,99.3334926 C92.4885646,99.3334926 95.0534493,97.4693252 96.1221512,96.6171344 Z M97.6183339,61.6773107 C97.6183339,62.6892873 97.9389445,63.9143116 99.0076464,63.9143116 C99.8626079,63.9143116 100.610699,62.5827635 100.610699,61.1446914 C100.610699,59.4935717 100.343524,58.2152855 100.343524,57.5228805 C100.343524,57.2565708 100.450394,57.096785 100.610699,57.096785 C101.25192,57.150047 101.839707,58.8544286 102.480928,58.8544286 C103.229019,58.8544286 104.351156,57.4696185 104.832072,57.4696185 C104.938942,57.4696185 104.992377,57.6294043 104.992377,57.6826662 C104.992377,58.3218094 104.030545,59.7066194 104.030545,60.2392387 C104.030545,60.718596 106.435125,60.771858 106.435125,61.1979534 C106.435125,61.8370965 103.923675,61.8370965 102.694668,62.3697158 C101.519096,62.8490731 100.82444,63.4882162 100.82444,64.340407 C100.82444,65.1925979 101.679401,65.3523836 102.854973,65.3523836 C105.633598,65.3523836 107.610697,63.8610497 108.198483,63.8610497 C108.305353,63.8610497 108.412223,63.9675735 108.412223,64.0740974 C108.412223,64.5001928 106.969476,65.8850029 106.969476,66.4708841 C106.969476,67.1632891 109.53436,68.0154799 109.53436,68.4415754 C109.480925,68.5480992 109.32062,68.6013611 109.053445,68.6013611 C108.572529,68.6013611 107.877872,68.4948373 107.343521,68.4948373 C107.022911,68.4948373 106.7023,68.5480992 106.59543,68.707885 C106.328255,69.0274565 106.7023,71.2644575 106.114514,71.2644575 C105.580163,71.2644575 104.137416,66.3643602 100.93131,66.3643602 C100.450394,66.3643602 100.129783,66.7371937 100.129783,67.3763368 C100.129783,69.0274565 101.732836,70.9448859 103.282454,71.8503386 C103.97711,72.329696 105.152682,72.7557914 105.152682,73.022101 C105.152682,73.5014584 102.480928,73.075363 102.480928,73.8742918 C102.480928,74.6199588 102.801538,75.7384593 102.801538,76.4308643 C102.801538,76.643912 102.748103,76.9102216 102.534363,76.9102216 C102.053447,76.9102216 100.82444,74.6199588 100.236654,74.6199588 C99.7557377,74.6199588 98.6336007,76.0047689 98.2061199,76.0047689 C98.0992498,76.0047689 97.9923796,75.898245 97.9923796,75.7384593 C97.9923796,74.7797446 99.5419974,72.5960056 99.5419974,70.5187905 C99.5419974,69.5068139 99.4351272,67.3763368 98.2061199,67.3763368 C97.1908531,67.3763368 96.0687161,68.9741946 95.5878002,70.5187905 C95.3206247,71.4242432 95.48093,74.9395304 94.8397089,74.9395304 C94.1984877,74.9395304 94.358793,72.5960056 93.5572665,72.5960056 C92.9160454,72.5960056 91.6336031,73.7145061 91.1526872,73.7145061 C91.045817,73.7145061 90.9923819,73.6612441 90.9923819,73.6079822 C90.9923819,73.1286249 92.2213891,71.4775052 92.2213891,71.1579336 C92.2213891,70.5187905 89.4427641,70.4655286 89.4427641,69.9329093 C89.4427641,69.6665997 90.511466,69.453552 91.5267329,69.2937662 C93.6641367,68.9209327 96.7633723,67.3763368 96.7633723,65.2458598 C96.7633723,62.8490731 94.4122281,61.7838346 92.9160454,60.8251199 C92.1145189,60.3457626 91.2595574,59.9196671 91.2595574,59.6000956 C91.2595574,59.280524 92.2748242,59.280524 92.702305,59.280524 C93.3435262,59.280524 93.9313122,59.2272621 93.9313122,58.7479048 C93.9313122,58.3750713 93.824442,57.6294043 93.824442,57.0435231 C93.824442,56.6174277 93.8778771,56.2978562 94.0381824,56.2978562 C94.6794036,56.2978562 95.5343651,58.3218094 95.9618459,58.3218094 C96.603067,58.3218094 97.5648988,56.6706896 98.1526848,56.6706896 C98.3664252,56.6706896 98.4198603,56.7772135 98.4198603,57.150047 C98.4198603,58.4283332 97.6183339,60.1327148 97.6183339,61.6773107 Z M77.740478,49.4803296 C78.2213939,52.9956167 82.9771174,51.2379731 82.9771174,55.4989273 C82.9771174,56.1380704 82.8168122,57.0435231 82.8168122,57.842452 C82.8168122,58.7479048 82.9236823,59.5468337 83.6183386,59.5468337 C84.3129949,59.5468337 84.4733001,59.0674763 84.4733001,58.3750713 C84.4733001,57.7359282 84.3129949,56.8837373 84.3129949,56.40438 C84.3129949,54.966308 85.3816968,54.5934745 85.9694828,54.5934745 C87.5725357,54.5934745 88.7481079,56.1913323 91.1526872,56.1913323 C90.6183362,58.8544286 85.1145213,58.1620236 85.1145213,61.0381676 C85.1145213,62.4762396 86.5572689,62.8490731 87.5191006,62.8490731 C88.3740622,62.8490731 88.6946728,62.7425492 88.6946728,61.9968823 C88.6946728,61.5707869 88.5878026,61.1446914 88.5878026,60.8251199 C88.5878026,60.6653341 88.6946728,60.5055483 88.9084132,60.5055483 C89.8168098,60.5055483 94.3053579,63.9143116 94.3053579,64.9795501 C94.3053579,65.9382648 89.5496343,66.8969795 88.1603218,66.8969795 C87.732841,66.8969795 87.6794059,66.6306699 87.6794059,66.4176222 C87.6794059,66.1513125 88.3740622,65.2458598 88.3740622,64.7665024 C88.3740622,64.393669 87.732841,64.1273593 86.076353,64.1273593 C85.2748266,64.1273593 84.6870405,64.2338832 84.6870405,64.8197644 C84.6870405,65.9382648 86.5038338,67.3230749 86.5038338,68.3350515 C86.5038338,69.1872423 86.0229179,69.6665997 84.6870405,69.6665997 C83.5649035,69.6665997 81.8549804,68.8144088 81.8549804,67.3230749 C81.8549804,66.1513125 83.0305525,64.9795501 83.0305525,64.2871451 C83.0305525,64.0740974 82.8702472,63.7545258 82.3893314,63.7545258 C80.8397136,63.7545258 80.4122328,67.8024322 74.961853,68.2817896 C75.8168145,67.4828607 76.5649059,66.6306699 76.5649059,64.8197644 C76.5649059,63.9675735 76.3511655,63.2219066 76.3511655,62.2631919 C76.3511655,61.0381676 76.9389515,60.3990245 77.7939131,60.3990245 C79.3435309,60.3990245 80.0916222,62.5827635 81.1068891,62.5827635 C81.64124,62.5827635 82.2290261,62.1034061 82.2290261,61.3577392 C82.2290261,58.2152855 76.1374251,58.6413809 76.1374251,54.220641 C76.1908602,53.0488786 76.618341,51.5575447 77.740478,49.4803296 Z M85.6488723,76.4841262 C85.6488723,77.0700074 86.076353,77.4961028 86.6641391,77.4961028 C87.3053603,77.4961028 87.732841,76.9102216 87.732841,76.2710785 C87.732841,75.4188877 86.9313146,74.1938634 86.1832232,74.1938634 C85.8626127,74.1938634 85.9694828,74.6732207 85.9160477,75.2591019 C85.8626127,75.6319354 85.6488723,76.1645547 85.6488723,76.4841262 Z M83.4580333,70.9448859 C87.8397112,71.7970767 90.1908555,75.0460542 90.1908555,78.135246 C90.1908555,80.265723 88.8549781,82.1831524 86.5038338,82.1831524 C84.36643,82.1831524 82.8168122,80.7450803 82.8168122,78.4015556 C82.8168122,76.643912 84.2061247,74.8330065 84.2061247,73.022101 C84.2595598,72.3829579 84.0458194,71.6905529 83.4580333,70.9448859 Z M77.9542184,78.0287221 C80.3587977,78.0287221 81.9618506,79.573318 82.0152857,81.1179138 C82.0152857,82.1831524 81.2137593,83.0886051 80.0381871,83.0886051 C78.9694852,83.0886051 78.2213939,82.2364143 78.2213939,81.2244377 C78.2213939,80.5320326 78.4885693,79.8928895 78.4885693,79.2537464 C78.4885693,78.8809129 78.3816991,78.4548175 77.9542184,78.0287221 Z M91.7404733,75.3656258 C94.8397089,75.5786735 96.8702425,77.4428409 96.8702425,79.6798418 C96.8702425,81.2776996 95.6946704,82.6625097 93.9847473,82.6625097 C92.4351295,82.6625097 91.3664276,81.5440092 91.3664276,80.1591992 C91.3664276,78.9341749 92.167954,77.8689363 92.167954,76.6971739 C92.167954,76.2710785 92.0076488,75.8449831 91.7404733,75.3656258 Z M78.9160501,73.1818868 C80.8397136,73.4481964 81.3206295,74.0873396 81.3206295,74.6199588 C81.3206295,75.5254116 80.4656679,75.8449831 79.6641415,75.8449831 C79.0763554,75.8449831 78.4351342,75.7384593 77.6870429,75.7384593 C76.7786462,75.7384593 75.8702496,75.951507 75.1221583,76.8036978 C75.6565092,76.9102216 76.4580357,77.2830551 76.4580357,78.081984 C76.4580357,80.4787707 69.7252135,78.5080794 69.7252135,84.6864629 C69.7252135,87.9887023 73.1450597,91.5572514 78.328264,91.5572514 C81.0000189,91.5572514 82.709942,90.7050606 82.709942,89.693084 C82.709942,88.8941551 81.2671944,89.4267743 81.2671944,88.7876312 C81.2671944,88.5213216 81.7481102,87.9354404 81.7481102,87.509345 C81.7481102,87.2962973 81.5878049,86.9234638 81.2671944,86.9234638 C80.519103,86.9234638 79.0763554,88.1484881 76.2442953,88.1484881 C74.0000212,88.1484881 71.8091823,86.8702019 71.8091823,85.1125583 C71.8091823,84.7397248 71.9694876,84.5266771 72.236663,84.5266771 C72.5038385,84.5266771 72.8244491,84.6864629 73.0916246,84.6864629 C73.3588001,84.6864629 73.3588001,84.5266771 73.3588001,84.0473198 C73.3588001,83.5679624 73.3588001,82.2896762 74.1603265,82.2896762 C74.961853,82.2896762 76.4580357,85.2190822 82.2290261,85.2190822 C84.1526896,85.2190822 87.8397112,84.8462487 89.2290237,83.6212244 C89.1755886,88.20175 85.5954372,94.2203477 78.1145237,94.2203477 C70.3129996,94.2203477 66.145062,87.9887023 66.145062,82.2364143 C66.145062,75.898245 71.3282664,70.0926951 78.4885693,70.0926951 C80.3053626,70.0926951 81.8549804,70.7318382 81.8549804,71.4775052 C81.8549804,72.5427437 79.1297905,71.8503386 78.9160501,73.1818868 Z M51.9847615,25.7255104 C54.7099514,25.7255104 55.9923937,28.0690352 55.9923937,30.7321315 C55.9923937,31.9038939 55.6717831,33.6082755 55.1374322,33.6082755 C54.6030812,33.6082755 54.6565163,32.6495609 54.6030812,31.79737 C54.496211,30.6788696 54.3359057,30.4125599 53.96186,30.4125599 C53.2672038,30.4125599 52.7862879,32.0636797 52.7862879,33.6082755 C52.7862879,34.5669902 52.9465932,35.6322287 53.6946846,35.6322287 C54.1221653,35.6322287 54.496211,35.419181 54.7633865,35.1528714 C54.6030812,37.0703007 53.1603336,38.7214205 51.183235,38.7214205 C47.4962134,38.7214205 46.160336,34.4604663 45.7328552,31.9571558 C43.5420162,34.3006806 41.4580475,36.0050622 37.8244609,36.0050622 C34.4046147,36.0050622 32.8549969,33.5017517 32.8549969,31.1582269 C32.8549969,30.4658219 33.1221724,28.6016544 33.977134,28.6016544 C34.9924008,28.6016544 34.0840041,32.0104177 36.1679729,32.0104177 C36.6488888,32.0104177 37.6107205,31.5843223 38.0916364,30.1995122 C38.3588119,29.3473214 38.5725523,28.4951306 38.5725523,27.7494636 C38.5725523,26.6309632 38.3053768,25.9385581 37.5038503,25.9385581 C36.8091941,25.9385581 35.9007974,26.4711774 35.6336219,26.790749 C36.6488888,23.8080811 39.0534681,22.2634852 41.7252229,22.2634852 C45.0381989,22.2634852 46.748122,25.1928912 46.748122,28.3886067 C46.748122,28.8679641 46.6946869,29.3473214 46.6412518,29.8266788 C47.870259,27.483154 49.8473576,25.7255104 51.9847615,25.7255104 Z M48.7786557,30.6256077 C48.7786557,29.9332026 48.6183504,29.7734168 48.4580451,29.7734168 C48.0305643,29.7734168 47.6030836,30.2527742 46.9084273,31.3712746 C47.0152975,32.8626086 47.2290379,33.5550136 47.6565187,33.5550136 C48.0839994,33.5017517 48.7786557,32.0636797 48.7786557,30.6256077 Z M43.0611004,32.3299893 C43.5420162,32.3299893 44.1298023,31.850632 45.1985042,30.6256077 C45.3053744,30.0929884 45.3053744,29.5603691 45.3053744,28.9744879 C45.3053744,28.1222971 44.9847638,27.2168444 44.4504129,27.2168444 C43.2214056,27.2168444 42.5801845,30.5190838 42.5801845,31.4245365 C42.5267494,31.9038939 42.7939249,32.3299893 43.0611004,32.3299893 Z M49.8473576,36.0050622 C50.8626244,36.0050622 52.0381966,32.0104177 52.0381966,29.5071072 C52.0381966,28.9744879 51.9313264,28.3886067 51.717586,28.3886067 C50.8626244,28.3886067 49.3664417,32.4897751 49.3664417,34.726776 C49.3664417,35.6322287 49.5801821,36.0050622 49.8473576,36.0050622 Z M39.6412542,33.7147994 C41.0840018,33.7147994 42.6870547,26.045082 42.6870547,24.7667958 C42.6870547,24.4472242 42.5801845,24.1809146 42.2595739,24.1809146 C40.9771316,24.1809146 39.1603383,31.4777985 39.1603383,33.0756563 C39.1603383,33.3952278 39.2672085,33.7147994 39.6412542,33.7147994 Z M44.1832374,36.910515 C45.1450691,36.910515 47.0687326,38.6681585 47.4962134,40.532326 C47.282473,40.479064 47.0687326,40.4258021 46.8549922,40.4258021 C45.5191148,40.4258021 44.7710234,41.7573503 43.7023215,43.9943512 C46.1069009,42.3964934 48.3511749,41.0649452 50.9160595,41.0649452 C53.1068985,41.0649452 54.8168216,42.3964934 54.8168216,44.4204466 C54.8168216,45.2726374 54.3893408,46.2313521 53.8549899,47.0835429 C53.5343793,45.2193755 51.9847615,44.3671846 49.3130066,44.3671846 C47.8168239,44.3671846 45.9465956,44.6867562 44.503848,45.2193755 C49.2061365,45.8585186 49.9007927,47.5629002 49.9007927,49.1074961 C49.9007927,51.7173305 47.282473,53.0488786 45.5191148,53.9010695 C45.6794201,53.1554025 45.7862903,52.4097355 45.7862903,51.5575447 C45.7862903,49.9596869 45.1985042,48.2020433 42.84736,46.4443998 C42.4733143,48.1487814 41.1374369,49.160758 41.1374369,50.4923062 C41.1374369,50.9716635 41.4580475,51.1314493 41.7252229,51.1314493 C41.7252229,51.8771163 41.4046124,54.0075933 41.4046124,54.5402126 C41.4046124,55.658713 41.6717879,55.8717607 42.2061388,55.9782846 C42.5801845,56.9369993 42.5801845,58.5348571 42.7939249,59.3870479 C42.9007951,59.8664052 43.3282758,59.9729291 43.5954513,59.9729291 C43.9160619,60.8251199 44.3435427,62.0501442 45.1450691,62.6360254 C45.3053744,62.7425492 45.5191148,63.0088589 45.5191148,63.2751685 C45.5191148,64.0208355 44.3969778,64.8730263 43.7023215,64.8730263 C43.4885811,64.8730263 43.1145355,64.7132405 42.7939249,63.9675735 C42.5267494,63.3816924 40.4962157,62.1034061 40.3893455,61.3577392 C40.4962157,61.2512153 40.6030859,60.9849057 40.6030859,60.718596 C40.6030859,59.5468337 38.7862926,58.2152855 38.7862926,56.40438 C39.000033,56.2978562 39.2137734,55.9782846 39.2137734,55.6054511 C39.2137734,54.5934745 38.1450715,52.5695213 38.1450715,51.1847112 C38.6259874,51.1847112 38.8397277,51.1314493 38.8931628,50.4923062 C38.9465979,49.1074961 39.2672085,47.0835429 40.5496508,45.9117805 C40.2290402,45.8585186 39.8549946,45.8052567 39.3740787,45.8052567 C36.8626292,45.8052567 32.9618671,47.2433287 31.5191195,50.4923062 C31.4656844,49.9596869 31.4122493,49.5335915 31.4122493,49.1074961 C31.4122493,46.4443998 33.0153022,44.6334943 34.2443094,44.100875 C34.8320955,43.8345654 35.5801868,43.7280415 36.4351484,43.7280415 C37.7710258,43.7280415 39.3740787,44.0476131 40.9771316,44.3139227 C39.534384,42.4497553 37.3969801,41.0649452 35.5801868,41.0649452 C34.7252253,41.0649452 34.0840041,41.3845168 33.8702638,42.0769218 C33.8168287,41.7040883 33.7633936,41.0649452 33.7633936,40.6388498 C33.7633936,38.6148966 34.4046147,37.4431342 36.1679729,37.4431342 C38.7862926,37.4431342 40.9771316,40.532326 42.313009,43.40847 C42.313009,39.0942539 42.3664441,36.910515 44.1832374,36.910515 Z M114.396954,66.8437176 C116.480923,66.8437176 118.137411,69.5600758 118.137411,72.7025295 C118.137411,76.0580308 116.534358,79.7331037 113.702298,82.2364143 C113.648863,76.643912 106.755735,78.4015556 106.755735,74.3536492 C106.755735,72.5960056 107.984743,71.4242432 109.53436,71.4242432 C110.870238,71.4242432 111.885505,71.7970767 112.687031,72.5427437 C111.93894,71.8503386 111.564894,70.838362 111.564894,69.8796474 C111.564894,68.2817896 112.580161,66.8437176 114.396954,66.8437176 Z M83.4580333,24.3407003 C83.1374227,23.8080811 81.8549804,23.4885095 81.3206295,23.4885095 C79.5038362,23.4885095 78.2213939,24.7667958 78.0076535,25.9385581 C77.8473482,25.5124627 77.740478,25.0331054 77.740478,24.5004861 C77.740478,22.6895806 78.9694852,20.4525797 82.0152857,20.4525797 C84.6870405,20.4525797 85.7023074,21.8373898 86.076353,21.8373898 C86.5038338,21.8373898 86.9313146,21.4112944 87.2519252,21.4112944 C87.732841,21.4112944 87.732841,22.1036994 87.732841,22.6363187 C87.732841,24.2874384 86.9847497,27.1635824 85.1145213,28.228821 C84.7939107,27.5364159 84.0992545,26.737487 83.0305525,26.2581297 C82.7633771,26.1516058 82.6030718,25.8852962 82.6030718,25.6189866 C82.5496367,25.1928912 82.9771174,24.60701 83.4580333,24.3407003 Z M77.206127,27.3766301 C78.274829,28.4418687 79.2366607,28.8679641 80.4122328,28.8679641 C80.8931487,28.8679641 81.4274996,28.7614402 81.6946751,28.7614402 C82.0687208,28.7614402 82.3358963,28.921226 82.3358963,29.2407976 C82.3358963,29.7201549 81.9084155,30.4658219 81.4274996,30.8386554 C81.9084155,31.0517031 82.4962016,31.104965 83.0305525,31.104965 C85.3816968,31.104965 88.1068867,29.6136311 88.1068867,25.8852962 C88.5878026,26.5244393 88.9084132,27.9092494 88.9084132,28.5483925 C88.9084132,33.0756563 85.5954372,34.8332998 82.4962016,34.8332998 C80.4656679,34.8332998 79.5038362,34.1941567 79.2366607,34.1941567 C78.4351342,34.1941567 78.4885693,35.7920145 77.9542184,35.7387526 C76.9923866,35.5789668 76.1374251,33.4484897 76.1374251,31.2114888 C76.08399,29.8266788 76.4580357,28.4418687 77.206127,27.3766301 Z M41.5114826,0.958714674 C41.5114826,1.54459586 39.4809489,1.54459586 39.534384,2.66309632 C39.534384,3.94138255 43.2214056,5.00662108 43.2214056,6.01859768 C43.2214056,6.28490731 43.0076653,6.39143116 42.7404898,6.39143116 C42.0458335,6.39143116 40.7633912,5.80554997 39.8015595,5.80554997 C39.1069032,5.80554997 38.6259874,6.17838346 38.6259874,6.8707885 C38.6259874,8.04255088 39.8549946,9.85345637 39.8549946,10.7056472 C39.8549946,10.9719568 39.6412542,11.1850045 39.3740787,11.1850045 C38.412247,11.1850045 37.2901099,7.98928895 35.8473623,7.98928895 C34.0305691,7.98928895 34.56492,12.6230765 33.3359128,12.6230765 C32.1069056,12.6230765 33.5496532,7.93602703 31.3588142,7.93602703 C30.0229368,7.93602703 28.6336243,10.0665041 27.7786628,10.0665041 C27.5649224,10.0665041 27.351182,10.0132422 27.351182,9.74693252 C27.351182,8.94800363 29.595456,7.0838362 29.595456,6.01859768 C29.595456,5.48597841 29.0611051,5.37945456 28.473319,5.37945456 C27.4046171,5.37945456 25.9618695,5.80554997 25.0534728,5.80554997 C24.6259921,5.80554997 24.3053815,5.64576419 24.3053815,5.37945456 C24.3053815,4.52726374 28.5267541,4.10116833 28.5267541,2.66309632 C28.5267541,1.27828623 26.5496555,1.49133394 26.5496555,1.0119766 C26.5496555,0.639143116 28.0992733,0.372833484 29.7557613,0.372833484 C32.5343863,0.372833484 31.9466003,2.71635824 34.1374392,2.71635824 C36.221408,2.71635824 35.8473623,0.479357337 38.5725523,0.479357337 C40.2824753,0.479357337 41.5114826,0.692405043 41.5114826,0.958714674 Z M51.2901052,5.16640686 C51.2901052,4.68704952 53.0534634,4.31421603 54.4427759,4.26095411 C55.5114778,4.26095411 56.0458288,4.31421603 56.0458288,5.53924034 C56.0458288,6.55121694 55.8320884,7.50993162 55.1374322,7.50993162 C53.9084249,7.50993162 51.2901052,5.91207382 51.2901052,5.16640686 Z M55.618348,13.4220054 C55.618348,13.9546247 55.1908673,14.3807201 54.3893408,14.1676724 C52.1450668,14.1676724 47.3893432,11.9306715 45.7862903,11.9306715 C45.3053744,11.9306715 45.1985042,12.0371954 45.1985042,12.4632908 C45.1985042,14.0611486 48.2977398,19.0677696 48.2977398,21.2515086 C48.2977398,21.8373898 48.0839994,22.3167471 47.4962134,22.3167471 C45.625985,22.3167471 41.4580475,17.3101261 40.0152999,17.3101261 C38.6794224,17.3101261 39.2672085,21.5178182 38.0382013,21.5178182 C37.0763696,21.5178182 36.1679729,19.1210316 35.099271,19.1210316 C34.0305691,19.1210316 33.3359128,27.4298921 31.6259897,27.4298921 C29.595456,27.4298921 30.3969825,19.7601747 29.0611051,19.7601747 C27.9924031,19.7601747 26.6030906,22.3700091 25.0534728,22.3700091 C24.2519464,22.3700091 23.9847709,21.730866 23.9847709,20.7721513 C23.9847709,19.547127 24.3588166,17.8960073 24.3588166,16.8307687 C24.3588166,16.2448875 24.3053815,15.6057444 23.7710305,15.6057444 C22.2214127,15.6057444 16.6107276,19.7069127 14.4198886,19.7069127 C13.9389728,19.7069127 13.6183622,19.547127 13.6183622,19.0677696 C13.6183622,17.0438164 20.72523,10.9719568 20.72523,9.53388482 C20.72523,8.25559858 12.5496603,9.37409904 12.5496603,8.14907473 C12.5496603,6.71100272 18.3206507,4.26095411 18.3206507,3.35550136 C18.3206507,2.45004861 12.7099655,2.07721513 12.7099655,1.0119766 C12.7099655,0.266309632 14.045843,0 16.5038574,0 C18.5343911,0 23.8244656,0.532619263 23.8244656,1.75764357 C23.8244656,3.08919173 19.3359175,4.47400181 19.3359175,5.80554997 C19.3359175,7.35014584 25.5878238,6.44469309 25.5878238,7.82950317 C25.5878238,9.26757518 21.0458406,12.4100288 21.0458406,13.4220054 C21.0458406,13.5817912 21.259581,13.6883151 21.4198863,13.6883151 C22.5420233,13.6883151 25.3740834,11.6110999 26.6565257,11.6110999 C27.1374416,11.6110999 27.2977469,11.9306715 27.2977469,12.5165527 C27.2977469,13.6883151 26.6030906,15.6057444 26.6030906,16.8307687 C26.6030906,17.1503403 26.7099608,17.4699118 27.0305714,17.4699118 C27.9924031,17.4699118 29.4351508,13.5285293 30.7175931,13.5285293 C31.8931652,13.5285293 30.8244633,19.493865 32.0534705,19.493865 C33.1221724,19.493865 33.3359128,14.1144105 34.4046147,14.1144105 C35.4198816,14.1144105 35.9542325,17.1503403 37.0229345,17.1503403 C37.4504152,17.1503403 37.5038503,16.5644591 37.5038503,15.6057444 L37.5038503,14.1676724 C37.5038503,13.2622197 37.5038503,12.6230765 37.9847662,12.6230765 C39.2672085,12.6230765 42.7939249,16.7775068 43.5420162,16.7775068 C43.7023215,16.7775068 43.7557566,16.617721 43.7557566,16.5111972 C43.7557566,15.3926967 41.4046124,11.6110999 41.4046124,9.64040867 C41.4046124,9.00126555 41.6717879,8.52190822 42.313009,8.52190822 C43.8091917,8.52190822 46.9084273,10.2262899 48.2977398,10.2262899 C48.7786557,10.2262899 49.0458312,10.0665041 49.0458312,9.58714674 C49.0458312,7.8827651 43.969497,4.47400181 43.969497,3.0359298 C43.969497,1.70438164 49.6336172,0.266309632 53.5343793,0.266309632 C54.0152951,0.266309632 55.030562,0.266309632 55.030562,0.798928895 C55.030562,1.8109055 50.2214033,2.71635824 49.0458312,3.94138255 C48.8855259,4.10116833 48.7786557,4.31421603 48.7786557,4.47400181 C48.8320908,6.39143116 55.618348,10.9186949 55.618348,13.4220054 Z M17.5725593,11.0252188 C17.5725593,11.8774096 14.4198886,14.6470297 13.2977516,14.6470297 C12.8702708,14.6470297 12.7634006,14.1676724 12.7634006,13.6883151 C12.7634006,12.8361243 13.1374463,11.7176238 13.6183622,11.3447903 C14.1527132,10.865433 15.4351555,10.5991233 16.3435521,10.5991233 C16.9313382,10.5458614 17.5725593,10.6523853 17.5725593,11.0252188 Z M48.1908696,15.2861729 C48.1908696,15.179649 48.2977398,15.0198632 48.3511749,15.0198632 C49.526747,15.0198632 54.8168216,19.1742935 55.5649129,20.239532 C55.7252182,20.5058416 55.8320884,20.8254132 55.8320884,21.1449848 C55.8320884,22.423271 55.2443024,23.861343 54.3893408,23.861343 C53.4275091,23.861343 48.1908696,16.7242449 48.1908696,15.2861729 Z M115.145046,2.71635824 C115.145046,3.30223943 115.625961,3.72833484 116.213747,3.72833484 C116.801534,3.72833484 117.282449,3.24897751 117.282449,2.71635824 C117.282449,2.13047705 116.801534,1.65111972 116.213747,1.65111972 C115.625961,1.65111972 115.145046,2.13047705 115.145046,2.71635824 Z M108.358788,11.8774096 C108.358788,8.94800363 101.25192,8.20233666 101.25192,7.50993162 C101.25192,6.97731235 105.206118,6.0718596 107.236651,6.01859768 C104.083981,2.0239532 99.6488675,2.45004861 99.6488675,1.75764357 C99.6488675,1.33154816 102.961844,0.532619263 106.061079,0.532619263 C108.625964,0.532619263 111.083978,1.11850045 111.083978,3.08919173 C111.083978,4.15443026 110.229017,5.27293071 110.229017,6.97731235 C110.229017,7.8827651 110.709933,8.681694 111.885505,8.681694 C113.167947,8.681694 113.488558,7.29688391 113.488558,5.8588119 C113.488558,4.63378759 113.274817,3.72833484 113.274817,3.14245365 C113.274817,1.38481009 114.450389,0.213047705 116.160312,0.213047705 C117.60306,0.213047705 117.923671,0.852190822 120.007639,0.852190822 C118.885502,1.54459586 118.458022,2.71635824 118.458022,3.30223943 C118.458022,5.059883 119.580159,6.23164538 119.580159,9.80019445 C119.580159,16.3514114 113.435122,18.6949361 105.847339,18.6949361 C103.76337,18.6949361 101.572531,18.5351504 99.3816921,18.2155788 C99.0610815,18.1623169 98.9542113,18.109055 98.9542113,17.8960073 C98.9542113,17.363388 101.893142,17.0438164 101.893142,14.3807201 C101.893142,13.3154816 101.572531,12.3567669 101.572531,11.9839334 C101.572531,11.7708857 101.732836,11.6643619 101.893142,11.6643619 C102.534363,11.6643619 103.76337,14.0611486 106.114514,14.0611486 C106.80917,14.0078866 108.358788,13.7948389 108.358788,11.8774096 Z M115.412221,7.66971739 C115.412221,11.3447903 112.687031,14.1676724 107.824437,14.9666013 C108.358788,15.0198632 108.893139,15.0198632 109.374055,15.0198632 C115.09161,15.0198632 117.175579,12.4632908 117.175579,10.2795518 C117.175579,9.10778941 116.480923,8.04255088 115.412221,7.66971739 Z M112.526726,61.2512153 C113.167947,59.1740002 114.022909,57.7359282 115.412221,55.4989273 C114.022909,54.8065222 110.389322,53.3151883 110.389322,50.8651397 C110.389322,47.9889956 113.969473,45.7519947 114.717565,45.7519947 C115.038175,45.7519947 115.145046,46.0183044 115.145046,46.6041856 C115.145046,48.0955195 114.450389,50.4923062 114.450389,51.8238543 C114.450389,52.9956167 115.198481,54.1141172 115.893137,54.1141172 C116.587793,54.1141172 118.564892,51.6108066 118.564892,49.160758 C118.564892,44.7400181 114.66413,43.40847 113.488558,43.40847 C112.366421,43.40847 110.335887,45.2193755 105.526728,45.2193755 C96.549632,45.2193755 94.5190983,36.3778957 94.5190983,32.4897751 C94.5190983,32.3299893 94.5725334,32.2767274 94.6259685,32.2767274 C94.8397089,32.2767274 95.6946704,33.3419659 98.5267305,33.3419659 C99.9694781,33.3419659 101.305356,32.9691324 103.442759,32.9691324 C108.412223,32.9691324 110.656497,36.4311576 113.755733,40.7986356 C115.625961,41.970398 120.11451,43.8345654 120.11451,49.1074961 C120.11451,53.7412837 115.145046,56.3511181 113.969473,61.3044772 C115.893137,61.0914295 117.015274,57.6826662 118.992372,57.6826662 C120.007639,57.6826662 120.43512,58.4815951 120.43512,59.7066194 C120.43512,61.5175249 119.366418,64.2871451 117.38932,65.9915267 C117.442755,65.831741 117.442755,65.6186933 117.442755,65.3523836 C117.442755,64.1806213 116.961839,62.5295015 115.625961,62.5295015 C113.541993,62.5295015 112.900771,64.7665024 111.725199,66.6306699 C110.496192,62.3697158 108.893139,58.588119 105.954209,56.2445942 C103.015279,53.9010695 97.8855094,55.1793557 97.8855094,50.8651397 C97.8855094,49.6933773 98.6336007,48.0422576 98.6336007,46.7107094 C98.6336007,46.2313521 98.5267305,45.8585186 98.3129901,45.4856851 C102.320622,46.977019 100.877875,49.6401154 103.389324,52.3564736 C104.938942,54.1141172 109.160315,55.7652369 111.618329,62.9555969 C111.671764,62.7425492 111.725199,62.20993 111.725199,61.8370965 C111.725199,55.711975 103.54963,49.6401154 102.854973,47.1900667 C107.610697,47.722686 108.412223,48.8944484 110.709933,55.1260938 C111.030543,56.4576419 112.526726,59.6533575 112.526726,61.2512153 Z M111.458024,41.0649452 C111.458024,40.2127544 109.267185,40.1062305 109.053445,37.6561819 C109.000009,37.2833484 108.893139,36.6442053 108.412223,36.6442053 C107.664132,36.6442053 108.251918,38.9344682 107.396957,38.9344682 C105.473293,38.9344682 104.832072,35.2061333 104.137416,35.2061333 C103.97711,35.2061333 103.76337,35.3126572 103.76337,35.8452764 C103.76337,36.3246338 103.87024,36.5909434 103.87024,37.1235627 C103.87024,37.6561819 103.76337,38.0290154 103.229019,38.0290154 C102.106882,38.0290154 101.091615,35.419181 100.129783,35.419181 C99.916043,35.419181 99.7023026,35.5257049 99.7023026,35.7387526 C99.7023026,36.2181099 100.557264,37.1768246 100.557264,37.60292 C100.557264,38.6148966 97.8320743,38.0822773 97.8320743,38.8812062 C97.8320743,39.2540397 98.2061199,39.3605636 98.6870358,39.3605636 C99.5419974,39.3605636 100.93131,38.9877301 101.625966,38.9877301 C102.053447,38.9877301 102.694668,39.0942539 102.694668,39.6268732 C102.694668,40.2127544 101.198485,40.9584214 101.198485,41.4910406 C101.198485,41.7573503 101.465661,41.8638741 101.679401,41.8638741 C102.801538,41.8638741 104.778637,39.8931828 106.221384,39.8931828 C106.48856,39.8931828 107.076346,39.9997067 107.076346,40.3725402 C107.076346,40.9051594 105.687033,41.8638741 105.687033,42.662803 C105.687033,42.8758507 105.793904,43.1421603 106.061079,43.1421603 C106.80917,43.1421603 107.824437,41.1714691 109.21375,41.1714691 C109.748101,41.1714691 110.549627,41.3845168 110.977108,41.3845168 C111.297719,41.4377787 111.458024,41.224731 111.458024,41.0649452 Z M80.4122328,16.1916256 C79.8244467,16.1916256 77.4198674,18.9079839 76.618341,18.9612458 C76.4580357,18.9612458 76.4046006,18.9612458 76.4046006,18.7481981 C76.4046006,17.8960073 78.4885693,14.9666013 78.4885693,14.1144105 C78.4885693,13.2622197 75.6565092,13.741577 75.6565092,13.049172 C75.6565092,12.1969811 78.4885693,11.2915284 78.4885693,10.119766 C78.4885693,8.94800363 75.7633794,8.78821785 75.7633794,7.8827651 C75.7633794,7.35014584 78.328264,6.65774079 78.328264,5.91207382 C78.328264,5.16640686 75.7633794,2.23700091 75.7633794,1.27828623 C75.7633794,0.213047705 79.6107064,3.08919173 80.6259732,3.08919173 C81.1068891,3.08919173 81.1068891,1.65111972 81.1068891,1.17176238 C81.1068891,0.479357337 81.3206295,0.0532619263 81.5343698,0.0532619263 C82.0152857,0.0532619263 83.0305525,1.70438164 83.6717737,1.65111972 C84.7404756,1.65111972 86.8244444,0.266309632 89.6030694,0.266309632 C95.48093,0.266309632 99.7557377,3.78159677 99.7557377,9.80019445 C99.7557377,16.0318398 95.0000142,19.547127 89.9771151,19.547127 C86.4503987,19.547127 84.3129949,17.363388 83.5114684,17.363388 C82.9771174,17.363388 82.175591,19.2808173 81.6946751,19.2808173 C81.4809347,19.2808173 81.4274996,19.2275554 81.3206295,18.7481981 C81.2137593,17.7894834 81.1068891,16.1916256 80.4122328,16.1916256 Z M81.5878049,9.37409904 C81.5878049,9.6936706 79.9313169,10.865433 79.8778818,11.1317426 C79.8778818,11.1850045 79.9313169,11.2382665 80.1450573,11.2382665 C80.4656679,11.2382665 81.4274996,11.2915284 81.9084155,11.2915284 C82.0687208,11.2915284 82.175591,11.4513142 82.175591,11.6110999 L82.2824612,13.2622197 C82.2824612,13.4752674 82.3893314,13.6350531 82.4962016,13.6350531 C82.9236823,13.6350531 83.6183386,11.9306715 84.0992545,11.9306715 C84.4733001,11.9306715 85.7557425,12.5165527 86.076353,12.5165527 C86.1297881,12.5165527 86.1832232,12.5165527 86.1832232,12.4100288 C86.1832232,12.0371954 85.3282617,10.865433 85.3282617,10.5991233 C85.3282617,10.2262899 87.732841,10.2795518 87.732841,9.85345637 C87.732841,9.53388482 85.3816968,9.05452748 85.3816968,8.681694 C85.3816968,8.30886051 86.4503987,7.19036006 86.4503987,6.92405043 C86.4503987,6.8707885 86.3969636,6.81752657 86.2900934,6.81752657 C85.8626127,6.81752657 84.8473458,7.45666969 84.3129949,7.45666969 C83.8855141,7.45666969 83.3511631,5.27293071 83.0839876,5.27293071 C82.709942,5.27293071 82.6030718,7.61645547 82.0687208,7.61645547 C81.4274996,7.61645547 80.6794083,7.45666969 80.1984924,7.45666969 C80.0916222,7.45666969 79.984752,7.45666969 79.984752,7.56319354 C79.984752,8.04255088 81.5878049,8.8947417 81.5878049,9.37409904 Z M89.7099396,17.2568641 C92.0076488,17.2568641 96.1755863,15.7655302 96.0687161,9.9067183 C96.0687161,5.16640686 93.6107016,2.34352476 89.4961992,2.34352476 C86.9313146,2.34352476 85.3282617,3.35550136 85.3282617,4.31421603 C85.3282617,4.8468353 85.8091776,4.95335915 86.2366583,4.95335915 C87.0381848,4.95335915 89.0687184,4.15443026 89.4427641,4.15443026 C89.7633747,4.15443026 89.92368,4.20769218 89.92368,4.42073989 C89.92368,4.8468353 89.0687184,5.8588119 89.0687184,6.44469309 C89.0687184,7.24362198 93.6641367,6.65774079 93.6641367,7.50993162 C93.6641367,8.30886051 90.2977257,9.05452748 90.2977257,9.53388482 C90.2977257,10.0665041 93.0229156,11.8774096 93.0229156,12.7828623 C93.0229156,12.9426481 92.9160454,13.1024339 92.6488699,13.1024339 C91.7404733,13.1024339 90.0839853,12.6230765 88.9618482,12.6230765 C88.6946728,12.6230765 88.5878026,12.7296004 88.5878026,12.8893862 C88.5878026,13.5285293 89.2824588,14.7535536 89.2824588,15.4992206 C89.2824588,15.7122683 89.1755886,15.8187921 89.0152833,15.8187921 C88.3740622,15.8187921 86.3435285,14.433982 85.4351319,14.433982 C85.1145213,14.433982 84.8473458,14.7002917 84.8473458,15.0731252 C84.8473458,15.8187921 86.7710093,17.2568641 89.7099396,17.2568641 Z M61.4962087,89.1604647 C61.4962087,88.4680597 61.0687279,87.9354404 61.0152928,87.2430354 C61.0152928,86.5506303 61.4427736,86.071273 62.0839947,86.071273 C62.8855212,86.071273 63.2595668,86.763678 63.366437,87.509345 C63.6336125,87.1897734 63.900788,87.0832496 64.2748337,87.0832496 C65.1297952,87.0832496 65.6107111,87.7756546 65.6107111,88.4680597 C65.6107111,88.947417 65.3435356,89.3202505 65.022925,89.5865601 C65.557276,89.8528698 65.8244515,90.2257032 65.8244515,90.7583225 C65.8244515,91.4507275 65.2901005,91.9300849 64.6488793,91.9300849 C64.0076582,91.9300849 63.6336125,91.1844179 62.9923914,91.1844179 C62.6183457,91.1844179 62.1908649,91.3442037 62.0305596,91.6105133 C62.2977351,92.1963945 62.4046053,92.7822757 62.4046053,93.314895 C62.4046053,96.5638725 58.2366678,99.1737069 53.96186,99.1737069 C49.6870523,99.1737069 48.1374345,96.5106105 48.1374345,95.445372 C48.1374345,95.1790624 48.3511749,95.0725385 48.6183504,95.0725385 C49.3130066,95.0725385 49.4733119,95.3388482 51.3969754,95.3388482 C55.9923937,95.3388482 54.3893408,89.1604647 58.6641485,89.1604647 C59.2519346,89.1604647 60.5343769,89.5332982 61.0152928,90.385489 C61.3893385,89.9593936 61.4962087,89.5332982 61.4962087,89.1604647 Z M50.2748384,90.7583225 C50.9160595,90.7583225 51.1297999,90.385489 51.0763648,90.0659175 C51.0763648,89.0006789 49.2061365,87.7223927 48.1374345,87.7223927 C47.7099538,87.7223927 47.1221677,88.0419643 47.1221677,88.6811074 C47.1221677,89.4267743 49.0458312,90.7583225 50.2748384,90.7583225 Z M38.6794224,81.4374854 C36.0076676,80.7450803 35.6336219,80.265723 35.687057,79.573318 C35.687057,78.4015556 37.343545,77.6026267 38.7862926,77.6026267 C40.8168263,77.6026267 42.313009,78.1885079 43.7023215,80.265723 C44.9847638,82.1831524 45.1985042,85.2723441 45.8397254,85.8582253 C46.160336,86.1245349 46.6946869,86.2310588 47.0687326,86.2310588 C47.4962134,86.2310588 47.870259,86.1777968 48.1374345,86.1777968 C51.1297999,86.1777968 53.1603336,89.5332982 53.1603336,91.0246321 C53.1603336,92.4094422 51.9313264,92.8887996 50.4351437,92.8887996 C48.6717855,92.8887996 46.6412518,91.876823 45.5725499,90.7050606 C44.7710234,89.8528698 44.3435427,88.20175 44.0229321,86.1777968 C43.7023215,84.0473198 41.9923984,82.2896762 38.6794224,81.4374854 Z M59.5725452,76.3776024 C59.5725452,74.513435 55.6717831,74.460173 55.6717831,71.6372909 C55.6717831,70.9448859 56.152699,69.7198616 57.0610956,68.4415754 C57.4351413,70.6253143 58.2901029,71.7438148 60.2137663,72.4362198 C63.900788,73.8210299 64.435139,75.898245 64.435139,78.081984 C64.435139,81.8103189 61.8168192,86.4973684 55.030562,86.4973684 C49.6336172,86.4973684 45.7328552,81.703795 45.7328552,77.6026267 C45.7328552,76.4841262 46.0000307,75.2591019 46.748122,75.2591019 C47.3893432,75.2591019 47.6030836,75.7384593 48.0839994,76.2710785 C49.9542278,78.135246 51.9847615,78.6146033 54.9771269,78.6146033 C57.6488817,78.5613414 59.5725452,77.4961028 59.5725452,76.3776024 Z M59.7328505,79.3602703 C58.2901029,79.9994134 57.7557519,79.8928895 57.7557519,81.3309615 C57.7557519,81.8635808 57.6488817,82.5559858 57.6488817,82.9288193 C57.6488817,83.4081767 57.7557519,83.7277482 58.2901029,83.7277482 C59.7862856,83.7277482 62.1908649,81.1711758 62.1908649,79.0406987 C62.1908649,78.4548175 61.8702543,78.1885079 61.4962087,78.1885079 C61.122163,78.2417698 60.7481173,78.8809129 59.7328505,79.3602703 Z M46.4809465,58.3750713 C46.4809465,55.711975 52.839723,54.3271649 52.839723,51.0249254 C52.839723,50.4923062 52.6259826,49.5335915 52.251937,48.8411865 C54.4427759,50.0662108 56.0992639,52.090164 56.0992639,53.7412837 C56.0992639,56.6174277 53.1068985,57.9489759 53.1068985,59.7066194 C53.1068985,61.7838346 56.3130043,62.1034061 56.3130043,64.7132405 C56.3130043,66.8437176 53.2672038,69.2937662 53.2672038,72.0101244 C53.2672038,74.1406015 54.7633865,75.898245 57.0610956,76.1645547 C56.3130043,76.3243405 55.618348,76.4308643 54.9236918,76.4308643 C50.7023192,76.4308643 46.3740763,72.9688391 46.3740763,68.8676708 C46.3740763,66.8437176 47.2290379,65.0328121 48.5649153,63.7545258 C49.7404874,64.7665024 50.9160595,65.4056456 51.6641509,65.4056456 C52.3053721,65.4056456 52.6259826,65.086074 52.6259826,64.5534547 C52.5725475,63.0621208 46.4809465,61.6773107 46.4809465,58.3750713 Z M22.2748478,78.8809129 C22.0611074,77.2830551 23.3969848,76.0580308 24.572557,75.898245 C24.7328623,75.898245 25.0000377,75.8449831 25.0000377,75.8449831 C24.8931676,75.5254116 24.7862974,75.2591019 24.7862974,74.9927923 C24.6259921,73.4481964 25.5878238,72.1699102 27.0305714,71.9568625 C28.6336243,71.6905529 29.8091964,72.8090533 30.1832421,74.0340776 C30.5038527,73.7145061 31.0382036,73.5014584 31.5725546,73.4481964 C33.0153022,73.2884107 34.3511796,74.4069111 34.5114849,75.898245 C34.6183551,77.3363171 33.6030883,78.5613414 32.1069056,78.827651 C31.9466003,78.8809129 31.7328599,78.8809129 31.7328599,78.8809129 C31.8931652,79.2004845 31.9466003,79.4135322 32.0000354,79.8396276 C32.1603407,81.3842235 31.1450738,82.5559858 29.595456,82.7690335 C28.0992733,82.9820813 26.9771363,82.1298904 26.6565257,80.7983423 C26.3359152,81.01139 25.8015642,81.1711758 25.2672132,81.2244377 C23.7710305,81.3842235 22.4351531,80.3189849 22.2748478,78.8809129 Z M30.0763719,77.2830551 C29.9695017,76.3776024 29.1679753,75.7917212 28.3130137,75.898245 C27.4580522,76.0047689 26.816831,76.8036978 26.9237012,77.6558886 C27.0305714,78.5080794 27.8320979,79.1472226 28.6870594,79.0406987 C29.5420209,78.9341749 30.1832421,78.135246 30.0763719,77.2830551 Z"/>
</svg>
