<svg height="151" viewBox="0 0 137 151" width="137" xmlns="http://www.w3.org/2000/svg"><path d="m55.0839971 147.269226c1.1755721 0 3.2061058-.372833 4.8091587-2.929406-.9083967-2.023953-1.5496178-6.071859-1.656488-7.563193-.4809159-7.616456 2.4580144-14.753554 5.6641202-14.91334 2.3511442-.159785 4.2213726 2.077216 4.435113 5.699027.5877861 9.480622-2.5648846 13.422005-4.1679375 16.830768.2671755 1.331548 2.5114495 3.568549 4.6488534 3.568549.8015264 0 1.7099231-.372833 1.9770985-.692405-.1603052-.532619-.3206105-1.225024-.3206105-2.290262 0-5.485979 3.5267163-10.119766 6.6259519-10.119766 2.4580145 0 3.847327 3.195715 3.847327 5.326192 0 2.503311-2.1374039 4.527264-5.2366395 6.497955.534351.532619 1.5496178.958715 2.4580145.958715 4.4885481 0 6.8396923-5.379455 8.5496154-10.332814.3206106-.958715.8549615-2.290263 1.9770986-2.290263 1.8702283 0 2.6717548 12.356767 5.8244255 12.356767 1.3358774 0 2.4580144-2.716358 2.4580144-4.846835 0-1.544596-.5343509-1.704382-.5343509-3.994645 0-2.50331 1.3358774-4.633787 3.1526707-4.633787 1.1221365 0 1.4961825 1.065238 1.4961825 2.396787 0 5.006621-3.6335864 14.327458-8.9770961 14.327458-4.0076322 0-3.6870216-6.870789-5.1297692-6.870789-1.6030529 0-3.7938919 6.977313-11.5419809 6.977313-1.2824423 0-2.6183197-.639144-3.6870216-1.864168-1.8702284 1.278286-3.4732813 1.810906-5.2900746 1.810906-2.8854952 0-4.1679375-2.982668-5.3435096-2.982668-1.3893125 0-2.9923654 3.03593-7.6946539 3.03593-3.7938919 0-4.3816779-5.006622-5.7175553-5.006622-1.1755722 0-2.9923654 5.006622-4.969464 5.006622-3.312976 0-4.0076323-8.681694-6.8931275-8.681694-2.2977091 0-9.458012 8.841479-11.4351106 8.628432-.8015265-.106524-1.122137-.692405-1.0152669-1.438072.1068702-1.065239 1.068702-3.994645 1.4427477-5.379455.6412211-2.396787 1.2290072-5.006621 1.5496178-5.80555.3206105-.852191 1.1755721-1.438072 1.8702283-1.38481.3740457.053262.4809159.692405.5877861 1.225024.3740457 1.91743.9618317 3.888121 1.5496178 3.888121 1.122137 0 4.7557236-6.977312 6.8931274-6.977312 2.6183198 0 2.8854952 10.971956 6.4656467 10.971956 1.1755721 0 2.0305337-1.38481 2.8320601-3.142453.0534351-2.876144.8549616-7.030575 3.2061058-7.030575 1.656488 0 2.4580145 3.675073 1.2290072 6.870789-.1068702 3.834859 2.4045794 4.793573 4.0610674 4.793573zm62.8396739-9.427361c.160305-.692405.748091-2.183739 2.030533-2.183739 1.389313 0 .748092 8.84148 2.72519 8.84148 1.175572 0 2.778625-11.025219 10.152668-11.025219 2.51145 0 4.167938 1.384811 4.167938 3.195716 0 1.225024-.961832 2.343525-2.297709 2.343525-2.83206 0-2.137404-2.130477-3.312976-2.130477-3.152671 0-5.45038 6.018597-7.801524 11.291528-.961832 2.130477-1.496183 2.503311-2.297709 2.503311-1.977099 0-2.40458-5.432717-3.206106-7.776242-1.656488 3.568549-4.809159 7.776242-9.992363 7.776242-2.938931 0-5.931296-1.544596-5.931296-6.33817 0-5.326192 3.473281-9.161051 6.999998-9.161051 2.671755 0 4.488548 2.716358 4.488548 4.68705 0 5.27293-6.893128 5.379454-6.893128 6.497955 0 1.065238 1.816794 1.438072 2.83206 1.438072 4.435114 0 7.374044-5.912074 8.335876-9.959981zm-52.1526546-8.202336c-.1603053-2.183739-.6412212-3.195716-1.8702284-3.089192-1.5496178.106524-2.2977092 5.006621-1.9770986 10.173028.2137404 3.355501.6946563 3.888121 1.1755721 3.834859.9083967-.053262 2.9923654-6.07186 2.6717549-10.918695zm-12.7709881-4.633788c.1603053 1.810906-1.0687019 3.781597-2.8320601 3.728335-1.4961827 0-2.2442741-1.065239-2.3511443-2.343525-.1603052-1.970691 1.2290073-3.515287 2.72519-3.515287 1.3358774 0 2.3511442.852191 2.4580144 2.130477zm24.4732742 15.978578c0-1.331548-.6946563-2.450049-1.5496178-2.450049-.6946562 0-2.3511442.798929-2.3511442 3.30224 0 1.970691.6946562 2.876144 1.0152668 3.302239 2.244274-.692405 2.8854952-2.556572 2.8854952-4.15443zm30.6717455-2.663096c-2.992366 0-2.72519 4.846835-2.297709 6.018597 2.190839-.372833 3.633586-1.704381 4.007632-2.876144.427481-1.171762-.053435-3.142453-1.709923-3.142453zm-90.4656185-5.539241c-.2137404-.692405-.8549615-2.290262-1.0687019-3.515287-.3740457-2.609834.9618317-4.314216 2.244274-4.740311 1.3893126-.372834 1.9770986.319571 2.5114496 1.970691.6946562 2.503311.8015264 5.80555.5343509 10.4926-.3206105 6.444693-3.5267163 14.167672-11.5419808 14.007886-6.89312744-.159786-9.99236304-4.633787-10.31297362-11.451314-.16030529-3.195716.0534351-6.444693 1.38931251-10.971957.69465625-2.450048 1.33587741-3.302239 3.52671637-3.781597 1.70992309-.319571 1.5496178 1.491334 1.17557212 3.621811-.85496154 4.68705-1.28244232 6.977313-.96183174 12.303505.32061058 5.645765 2.88549521 7.829504 5.71755536 7.829504 4.2213726.106523 6.1450361-3.462026 6.8931274-8.521909.8015265-4.047906.3206106-6.018597-.1068702-7.243622zm92.6564575-101.8900647c1.656488.1597858 6.679387-.5858812 8.60305-4.4740018 1.175573.4260954 1.068702 2.1837389 1.068702 4.4740018 0 3.9946445-.42748 9.0545275-1.496182 9.1610513-1.656488.1065239-7.641219-5.2196688-8.17557-9.1610513zm.374046-1.7043817c-1.656488 0-2.778625-.5326192-2.778625-1.6511197 0-.4793573.42748-1.438072 1.816793-1.438072 3.793892 0 7.267173-2.5565725 7.267173-4.8468353 0-.692405-.160305-.9587147-.427481-1.3315481 1.709923.2130477 2.404579 1.3315481 2.404579 2.7696201 0 3.0359298-3.954197 6.497955-8.282439 6.497955zm-.908397-4.7403114c-.587786 0-1.442748 0-1.870228-.9054528-.374046-.7456669-.267176-1.9706912-.961832-2.5033105.694656.2130477 1.442747.2130477 2.030533.2130477 1.870229 0 3.687022-1.2782862 5.076335-1.2782862.908396 0 1.175572.5858812 1.175572 1.1717624 0 1.8109055-3.740457 3.3022394-5.45038 3.3022394zm-93.2442435 32.5962989c1.3893125 0 1.122137-8.628432 3.4198462-8.628432.5343509 0 .6946562.5326192.6946562 1.2250243 0 1.9706912-.9618317 4.8468353-.9618317 6.3914311 0 .7989289.2137404 1.0652385.5877861 1.0652385 1.0152668 0 2.7251899-9.5338848 4.435113-9.5338848.5343509 0 .8015264.5326193.8015264 1.0652386 0 1.9706912-2.5648846 7.7229793-2.5648846 9.3208371 0 .2663096.1068702.4793573.2671755.4793573 1.0687019 0 3.1526707-4.4740018 3.7938918-6.7110027.3740457-1.1717624.8549616-1.8109055 1.3358774-1.8109055.4274808 0 .8015265.4793573.8015265 1.438072 0 2.2370009-2.0839688 7.5099316-3.9007621 11.0784807-1.3893125 2.6630963-3.5801514 6.6044788-3.5801514 8.8414798 0 1.1185004.2137403 2.2902628 1.8167932 3.6750729-2.6717548-.1597858-3.7404567-.4260954-4.7557235-2.5033106-4.4351131 8.8414798 8.2290048 7.989289 3.900762 15.8187922-.8015264-1.3848101-7.0534327-2.8761441-7.0534327-11.0784807 0-7.0838362 6.2519063-11.2382665 6.2519063-14.2209344 0-.5858811-.2137404-1.0652385-.7480914-1.5445958-1.3893125-1.1717624-1.4427476-2.1304771-2.5114495-2.1304771-.8015265 0-1.7633582 1.8109055-.7480914 3.4620252.3206106.5326193.6412212.8521909.6412212 1.3848101 0 1.1717624-1.8167933 4.2609541-3.0992356 4.2609541s-2.2977092-3.1957155-2.2977092-8.3621224c0-4.5805257 1.0152669-9.1610513 2.3511443-9.1610513.3740456 0 .4809158.2663096.4809158.5858812 0 .5326192-.1603053 1.5978577-.1603053 3.4620252-.053435 1.9706912.3740457 2.130477.8015265 2.130477zm10.5801491 12.1969812c-1.122137 0-2.244274-.9054528-2.2977091-2.3967867 0-.2130477.1068701-.9587147.3740456-.9587147.3206106 0 .5877861.8521908 1.5496178.8521908 1.8702284 0 1.9770986-1.8109055 1.9770986-5.3794545 0-4.1544303 1.7099231-8.8414798 7.213738-12.356767-.8549615 1.491334-1.0687019 3.4087633-1.0687019 4.6337876 0 7.0838362 8.5496154 13.6883151 8.5496154 18.0557931 0 1.8109055-1.3358774 3.7815967-3.6870216 3.7815967-2.0839688 0-3.2061058-1.6511197-3.2061058-3.0359298 0-1.0652385.7480913-1.9174293 1.0152668-1.9174293.1068702 0 .1603053.1065238.1603053.3728335 0 .5858812.4809159 1.3315481 1.4427476 1.3315481.8549616 0 1.4427476-.6391431 1.4427476-1.438072 0-3.4620252-7.0534327-9.4806229-7.0534327-17.7362215-.3740457.9054528-.8549616 2.0772152-.8549616 3.8348587 0 3.9946445 2.9389303 8.1490748 2.9389303 11.8774096 0 1.5445959-1.2290072 2.929406-2.7251899 2.929406-1.7099231 0-2.3511442-1.3848101-2.3511442-2.2370009 0-.5858812.2671755-1.1185005.4274808-1.1185005.2137403 0 .1068701.8521908 1.0687019.8521908 1.0152668 0 1.3893125-.692405 1.3893125-1.9706912 0-3.4620253-1.9770986-5.9120739-1.9770986-9.4806229 0-.5326193 0-1.1185005.1068702-1.6511198-1.122137 1.2782863-1.2290072 3.1424537-1.2290072 4.7403115v4.2609541c0 2.876144-1.4427476 4.1544303-3.2061058 4.1544303zm72.2442505-41.5443026c1.8167929 0 3.2061059-.8521908 3.2061059-1.3315482 0-.1597857-.267176-.2663096-.801527-.2663096s-1.603052-.0532619-3.6870212-.3728335c-1.7633582-.2663096-3.0992356-.9587146-3.5801515-.9587146-.1603053 0-.2671755.1065238-.2671755.2130477.0534351 1.0652385 2.0839688 2.7163582 5.1297693 2.7163582zm-9.0839664-5.2729307c.5343509-.3728335 2.8854952.2130477 5.9312957-1.2782862.3740456-.2130477.7480913-.2663097 1.0687019-.2663097 1.4427476 0 1.0687019 1.6511197 2.4045793 1.6511197 1.0152664 0 2.3511444-.8521908 3.1526704-.8521908 1.229008 0 3.045801 3.8881206 3.045801 5.7522881 0 2.130477-3.206106 3.4087633-6.9999978 3.4087633-5.55725 0-8.870226-4.7935734-8.870226-7.9360271.0534351-.3195715.1603053-.3728335.2671755-.4793573zm-62.2518875 62.4762396c-1.4427476 6.0718596 1.7633582 12.0371954 8.3893102 11.9839334 3.3664111 0 4.969464-1.7043816 4.969464-4.6337876 0-3.2489775-2.2442741-6.5512169-5.9312957-6.5512169-1.8702284 0-3.1526707 1.0652385-3.1526707 2.5565725 0 2.5033105 2.0305336 4.1011683 4.1679375 4.1011683 1.4427476 0 2.3511442-.5858812 2.3511442-1.5445959 0-.1597858 0-.3728335-.1068702-.4793573-.1603052.0532619-.4809158.1597858-.9083966.1597858-1.7099231 0-3.0992356-.9587147-3.0992356-1.9706913 0-.7989289.534351-1.2782862 1.2824423-1.2782862 2.5114496 0 4.2213726 2.5565724 4.2213726 4.4207398 0 1.9174294-1.3358774 3.5685491-3.6870216 3.5685491-4.969464 0-7.0534328-4.1011683-7.0534328-6.8707885 0-2.9826679 2.5114496-4.9533591 5.2366395-4.9533591 5.0763342 0 8.9236611 4.4207399 8.9236611 10.7056472 0 2.8228821-1.4961827 7.0305741-7.5877837 7.0305741-7.213738 0-11.5954159-6.2849072-11.5954159-10.3328136 0-3.4087633 2.1908389-5.5925022 3.5801514-5.9120738zm44.3511301 16.0318394c0 .905453.7480914 1.65112 1.656488 1.65112.9083967 0 1.656488-.745667 1.656488-1.65112 0-.905452-.7480913-1.6511193-1.656488-1.6511193-.9083966 0-1.656488.7456673-1.656488 1.6511193zm3.2061058 8.308861c1.9770986 0 1.8702284-.159786 2.5114496-.159786.6412211 0 .6412211.372834.6412211.639143 0 .905453-2.0305336 2.023953-5.6641202 2.023953-2.1374039 0-3.4198462-1.1185-3.7938919-2.396786-2.0839687 1.331548-5.2366394 2.556572-8.3893101 2.556572-8.5496155 0-10.6870193-3.675073-13.3587741-4.900097-2.0305337-.905453-5.1832044.852191-9.5648823-3.994644.5877861.106523 1.3893125.159785 1.9770986.159785 3.8473269 0 5.8778606-1.864167 5.8778606-4.846835 0-.3728334-.0534351-.7989289-.1068702-1.1717623 1.1755721.4793573 3.8473269 2.4500486 4.4885481 5.9653353.1068702.426096 1.8167933.798929 2.8854952.798929 1.4961827 0 3.4198462-.639143 3.6870217-3.089191 5.022899-.426096 8.3893101-3.3555018 9.0839664-7.0838366 1.7633581.5858812 3.8473269 2.183739 4.3282428 3.0359298.6946562-.2663097 1.5496178-.3728335 2.5114495-.3728335 1.3358774 0 2.8320601.2663096 4.6488534.7989289.1068702-.5326193.1603053-1.2250243 1.0152668-1.2250243 1.2290073 0 .9083967 1.3848101 1.3358775 2.183739.2137403.4260954 1.2290072.6391431 1.2290072 1.4913339 0 .7989288-.6946563 1.0652388-1.068702 1.0652388-.1603052 0-.3740456-.053262-.4809158-.106524-.8549616.26631-.8549616 6.284907-4.3816779 6.284907-2.5648847 0-4.969464-2.130477-5.9847308-4.793573-.2671755-.798929-.9083967-1.278286-1.4961827-1.278286-.6412212 0-1.0152669.106523-1.8167933 1.011976-2.2442741 2.450049-5.9847308 4.580526-10.6335842 4.580526-1.4427476 0-2.5648847-.106524-2.8320601-.106524-.1603053 0-.1603053.053262-.1603053.106524 0 .266309 1.4427476 1.438072 4.4885481 1.438072 7.3206082 0 9.1374015-4.101168 10.3129736-4.101168.1603053 0 .6412212 0 .9618317.639143 1.7099231 3.941382 5.4503799 4.846835 7.748089 4.846835zm25.2748009-26.4711775c-.854962 0-5.7175556 6.4446931-8.8167912 6.4446931-.7480913 0-1.3893125-1.438072-1.3893125-2.5033105 0-.5858812.3740457-1.0119766 1.7099231-1.2782862 7.160303-1.5978578 5.5572501-6.9773124 11.7022866-6.9773124 3.366411 0 7.106867 2.2902628 7.106867 7.4566697 0 5.4859784-7.854959 12.303505-8.977096 12.303505-.961832 0-1.977098-1.3848101-1.977098-2.2902628 0-.2663097.10687-.6391432.961831-1.0119766 4.007633-1.5978578 6.305342-5.2196688 6.305342-7.0838362 0-.4260955-.213741-.8521909-.748092-.8521909-.694656 0-3.740456 6.8707885-7.1068675 6.8707885-2.3511442 0-4.7022884-2.130477-4.7022884-3.0891917 0-1.6511197 6.7328219-4.7403114 6.7328219-7.0838362-.053435-.8521908-.427481-.9054528-.801526-.9054528zm4.541983-2.5565724c-.587786 0-1.229007.4793573-1.229007 1.5978578 0 1.2250243.961831 2.0239532 1.496182 2.2902628.267176.1597858.748092.3195716 1.229008.3195716 1.229007 0 2.190839-.3195716 2.190839-1.3315482-.053435-1.3315482-1.923664-2.876144-3.687022-2.876144zm-77.9083707-48.1487814c0-.9054528.8015264-1.6511198 1.656488-1.6511198.9083966 0 1.656488.745667 1.656488 1.6511198 0 .9054527-.7480914 1.6511197-1.656488 1.6511197-.9083967 0-1.656488-.745667-1.656488-1.6511197zm-2.1374039-3.7283349c0-.9054527.7480914-1.6511197 1.656488-1.6511197.9083967 0 1.656488.745667 1.656488 1.6511197 0 .9054528-.7480913 1.6511197-1.656488 1.6511197-.9083966 0-1.656488-.7456669-1.656488-1.6511197zm-1.4961827 11.3980523c-.1603053.4793573-.3206106 1.0119766-.3206106 1.9174293 0 1.2782862.4274808 2.5033105 1.6030529 3.621811-.3206105.2663096-.8549615.4260954-1.6030529.4260954-1.4427476 0-2.6183197-.9587147-2.6183197-2.4500486 0-2.0772151 1.9770986-3.2489775 2.9389303-3.5152871zm-10.2061034.5858811c.9618317 1.3315482 2.6717548 1.7576436 4.1679375 1.8109055.4809159 0 1.0152668 0 1.4961827-.1065238-1.0687019 1.3315481-2.2977091 1.9706913-3.312976 1.9706913-1.3893125 0-2.4045793-1.0652386-2.4045793-3.0359298 0-.2130477 0-.4260954.0534351-.6391432zm-1.4961827 3.675073c1.2824423 1.9174293 2.4580144 2.5033105 3.900762 2.5033105 1.1221371 0 2.4045794-.2663096 4.0076323-.6391431-2.1374039 1.8109055-3.9007621 2.7696202-5.2366395 2.7696202-1.7099231 0-2.6717548-1.491334-2.6717548-4.6337876zm10.7938895-16.6177211c-2.8320601 0-6.1450361-1.3315481-6.1450361-4.5805256 0-1.5445959 1.1755721-2.8228821 2.778625-2.8228821 2.8320601 0 3.7404568 3.0359298 3.7404568 5.0066211 0 .9054527-.1603053 1.7576435-.3740457 2.3967866zm-3.5267164 10.4925995c.7480914 0 1.5496178-.4260954 1.4961827-.692405 0-.1065239-.1068702-.1065239-.2137404-.2130477-1.2290072-.5858812-2.5648846-1.7576436-2.8320601-3.7815968 0-.3195715-.1068702-.4260954-.2671755-.4260954-.4274807 0-1.0687019 1.0119766-1.0687019 1.8641674 0 1.5445959 1.4961827 3.2489775 2.8854952 3.2489775zm3.847327-5.1131449c-.4809159-.5858812-.4809159-1.438072-.8549616-1.6511197-.2137404-.1065239-.3740457-.1597858-.6412211-.1597858-.5877861 0-1.068702.0532619-1.068702.8521908 0 1.2782863 1.1755721 3.4620252 2.6183198 3.4620252.6946562 0 1.0152668-.7456669 1.0152668-1.3315481 0-.3195716-.8015265-.7989289-1.0687019-1.1717624zm-9.7786227 5.1664069c.534351-.9587147.0534351-4.7403115 3.7404568-7.0838362 1.8167932-1.1717624 3.4198461-1.3315482 4.8091586-1.3315482.3206106 0 .6412212 0 .9083967.0532619.7480913.053262 1.3358774.053262 1.5496178.2663097.3206106.3195715.1068702.9587146.6412211 1.7043816.534351.745667 1.1755722.6391431 1.1755722 1.438072 0 .5858812-1.1755722 4.314216-4.1679376 5.80555-1.4427476.745667-2.5648846 1.0119766-3.5267163 1.0119766-1.6030529 0-2.72519-.6924051-3.7404568-.6924051-.1603053 0-.3740457.1065239-.6946562.1065239-.3740457 0-.8015265-.4260954-.8015265-.7989289 0-.2130477.0534351-.3728335.1068702-.4793573zm13.83969-1.6511198c2.0839688.6391432 4.5954183 2.5565725 4.6488534 5.3794546 0 1.7576436-.9618318 3.5152871-2.9923654 3.5152871-2.1374039 0-3.5267164-1.8641674-3.5267164-4.1011683 0-1.8641674.9618317-3.7283348 1.8702284-4.7935734zm-8.9236611-7.9892889s-1.2290072.9054527-2.7251899.9054527c-1.8167933 0-3.2061058-1.3315481-3.2061058-3.1957155 0-1.2782863.6412211-2.6098344 2.1908389-3.3022395-.0534351.2663097-.0534351.4793574-.0534351.6924051 0 2.3967867 1.3358774 4.2076921 3.7938919 4.9000972zm73.4732577 13.7948389c0-.9587147.8015264-1.7576436 1.7633581-1.7576436.9618318 0 1.7633582.7989289 1.7633582 1.7576436s-.8015264 1.7576436-1.7633582 1.7576436c-.9618317 0-1.7633581-.7989289-1.7633581-1.7576436zm.1068702 5.2196688c0-1.0652385.9083966-1.9174294 1.9770985-1.9706913 1.122137 0 1.9770986.9054528 1.9770986 1.9706913 0 1.1185005-.9083966 1.9706913-1.9770986 1.9706913-1.122137 0-1.9770985-.9054528-1.9770985-1.9706913zm-5.9847309 3.5685491c0-1.5978578 1.2824424-2.8761441 2.8854953-2.8761441 1.6030528 0 2.8854952 1.2782863 2.8854952 2.8761441s-1.2824424 2.876144-2.8854952 2.876144c-1.6030529 0-2.8854953-1.2782862-2.8854953-2.876144zm1.5496178-5.8588119c0-.9054528.7480914-1.6511198 1.656488-1.6511198.9083967 0 1.656488.745667 1.656488 1.6511198 0 .9054527-.7480913 1.6511197-1.656488 1.6511197-.9083966 0-1.656488-.745667-1.656488-1.6511197zm-5.4503798 3.3022394c0-.9054527.7480913-1.6511197 1.656488-1.6511197.9083966 0 1.656488.745667 1.656488 1.6511197s-.7480914 1.6511197-1.656488 1.6511197c-.9083967 0-1.656488-.745667-1.656488-1.6511197zm4.2748077-9.6936706c0-1.4913339 1.2290072-2.6630963 2.6717548-2.6630963s2.6717549 1.2250243 2.6717549 2.6630963-1.2290073 2.6630963-2.6717549 2.6630963-2.6717548-1.2250243-2.6717548-2.6630963zm3.0992356-5.1131449c0-.9054528.7480914-1.5978578 1.6030529-1.5978578.9083967 0 1.6030529.745667 1.6030529 1.5978578 0 .9054527-.7480913 1.5978578-1.6030529 1.5978578-.9083966 0-1.6030529-.745667-1.6030529-1.5978578zm-7.5343486 3.9946445c0-.9054528.7480914-1.5978578 1.5496178-1.5978578.9083966 0 1.6030529.7456669 1.6030529 1.5978578 0 .9054527-.7480913 1.5978577-1.6030529 1.5978577-.8549615 0-1.5496178-.7456669-1.5496178-1.5978577zm-.2137404 5.3794545c0-1.438072 1.122137-2.5565725 2.5114496-2.5565725 1.4427476 0 2.5648846 1.1185005 2.5648846 2.5565725s-1.122137 2.5565725-2.5648846 2.5565725c-1.3893126 0-2.5114496-1.1185005-2.5114496-2.5565725zm-5.2366394 2.6630963c0-1.2782862 1.0687019-2.3967867 2.3511442-2.3435247 1.2824423 0 2.3511443 1.0652385 2.3511443 2.3435247 0 1.2782863-1.068702 2.3435248-2.3511443 2.3435248s-2.3511442-1.0652385-2.3511442-2.3435248zm1.4427476-5.8588119c0-.9054527.7480913-1.6511197 1.656488-1.6511197.9083966 0 1.656488.745667 1.656488 1.6511197 0 .9054528-.7480914 1.6511197-1.656488 1.6511197-.9083967 0-1.656488-.7456669-1.656488-1.6511197zm14.5877813 12.7828624c0-.8521909.7480914-1.5445959 1.5496178-1.5445959.9083967 0 1.6030529.692405 1.6030529 1.5445959 0 .9587146-.6946562 1.5978577-1.6030529 1.5978577-.7480913.053262-1.5496178-.6391431-1.5496178-1.5978577zm1.122137 47.7759475c-.2671754 0-1.6564879 1.331549-4.9694639 1.278287h-.534351c.0534351.372833.1068702.639143.1068702.958714 0 1.011977-.2671755 2.023953-.5877861 3.03593 2.0839688-.053262 3.4732813-.639143 4.5419832-1.331548 1.4961827-.958715 1.9236635-2.183739 1.9236635-3.089192 0-.745667-.2671755-.852191-.4809159-.852191zm.3206106-4.1011679c-1.0687019.9054527-2.7251899 1.38481-4.435113 1.38481-2.2977091 0-4.1145024-.7989288-4.1145024-1.5978577v-1.9174294c0-.5858812 1.6030529-1.9706913 4.6488534-1.9706913 2.5114495 0 4.3282428.6924051 4.3282428 1.9174294v.9587147c0 .4793573-.1068702.9587146-.4274808 1.2250243zm2.1374039.4793573c.9618317 0 2.2977091.9054527 2.244274 3.1957156 0 3.941383-5.8244255 8.788218-13.6259496 8.788218-2.4045793 0-3.6870216-1.65112-3.6870216-3.30224 0-2.396786 1.2824423-4.527263 2.2977091-5.6990257.4809159-.5326193.9083967-.9587147 1.3358774-.9587147.3206106 0 1.3358774.692405 3.5801515.692405 4.2213726 0 6.7862573-1.8641674 7.8549592-2.7163582zm1.4961827-34.9398237c0 1.0119766.3206106 2.2370009 1.3893125 2.2370009.8549615 0 1.6030526-1.3315481 1.6030526-2.7696202 0-1.6511197-.267175-2.9294059-.267175-3.6218109 0-.2663097.10687-.4260955.267175-.4260955.641221.053262 1.229008 1.7576436 1.870229 1.7576436.748091 0 1.870228-1.3848101 2.351144-1.3848101.10687 0 .160305.1597858.160305.2130477 0 .6391432-.961832 2.0239532-.961832 2.5565725 0 .4793573 2.40458.5326193 2.40458.9587147 0 .6391431-2.51145.6391431-3.740457 1.1717624-1.175572.4793573-1.870228 1.1185004-1.870228 1.9706912 0 .8521909.854961 1.0119766 2.030533 1.0119766 2.778625 0 4.755724-1.4913339 5.34351-1.4913339.10687 0 .21374.1065238.21374.2130477 0 .4260954-1.442747 1.8109055-1.442747 2.3967867 0 .692405 2.564884 1.5445958 2.564884 1.9706913-.053435.1065238-.21374.1597857-.480915.1597857-.480916 0-1.175573-.1065238-1.709924-.1065238-.32061 0-.641221.0532619-.748091.2130477-.267175.3195715.10687 2.5565725-.480916 2.5565725-.534351 0-1.977098-4.9000973-5.183204-4.9000973-.480916 0-.801527.3728335-.801527 1.0119766 0 1.6511197 1.603053 3.5685491 3.152671 4.4740018.694656.4793574 1.870228.9054528 1.870228 1.1717624 0 .4793574-2.671754.053262-2.671754.8521908 0 .745667.32061 1.8641675.32061 2.5565725 0 .2130477-.053435.4793573-.267175.4793573-.480916 0-1.709923-2.2902628-2.297709-2.2902628-.4809163 0-1.6030533 1.3848101-2.0305341 1.3848101-.1068701 0-.2137403-.1065239-.2137403-.2663096 0-.9587147 1.5496178-3.1424537 1.5496178-5.2196688 0-1.0119766-.1068702-3.1424537-1.3358775-3.1424537-1.0152668 0-2.1374038 1.5978578-2.6183197 3.1424537-.2671755.9054527-.1068702 4.4207399-.7480913 4.4207399-.6412212 0-.4809159-2.3435248-1.2824424-2.3435248-.6412211 0-1.9236634 1.1185005-2.4045793 1.1185005-.1068702 0-.1603053-.053262-.1603053-.1065239 0-.4793573 1.2290072-2.130477 1.2290072-2.4500486 0-.6391431-2.778625-.692405-2.778625-1.2250243 0-.2663096 1.0687019-.4793573 2.0839688-.6391431 2.1374038-.3728335 5.2366394-1.9174294 5.2366394-4.0479064 0-2.3967867-2.3511442-3.4620252-3.8473269-4.4207399-.8015265-.4793573-1.656488-.9054528-1.656488-1.2250243 0-.3195716 1.0152668-.3195716 1.4427476-.3195716.6412212 0 1.2290072-.0532619 1.2290072-.5326192 0-.3728335-.1068702-1.1185005-.1068702-1.7043817 0-.4260954.0534351-.7456669.2137404-.7456669.6412212 0 1.4961827 2.0239532 1.9236635 2.0239532.6412211 0 1.6030529-1.6511198 2.1908389-1.6511198.2137404 0 .2671755.1065239.2671755.4793574 0 1.2782862-.8015264 2.9826678-.8015264 4.5272637zm-19.8778559-12.1969811c.4809159 3.5152871 5.2366394 1.7576435 5.2366394 6.0185977 0 .6391431-.1603052 1.5445958-.1603052 2.3435247 0 .9054528.1068701 1.7043817.8015264 1.7043817s.8549615-.4793574.8549615-1.1717624c0-.6391431-.1603052-1.491334-.1603052-1.9706913 0-1.438072 1.0687019-1.8109055 1.6564879-1.8109055 1.6030529 0 2.7786251 1.5978578 5.1832044 1.5978578-.534351 2.6630963-6.0381659 1.9706913-6.0381659 4.8468353 0 1.438072 1.4427476 1.8109055 2.4045793 1.8109055.8549616 0 1.1755722-.1065239 1.1755722-.8521908 0-.4260954-.1068702-.8521909-.1068702-1.1717624 0-.1597858.1068702-.3195716.3206106-.3195716.9083966 0 5.3969447 3.4087633 5.3969447 4.4740018 0 .9587147-4.7557236 1.9174294-6.1450361 1.9174294-.4274808 0-.4809159-.2663096-.4809159-.4793573 0-.2663097.6946563-1.1717624.6946563-1.6511198 0-.3728334-.6412212-.6391431-2.2977092-.6391431-.8015264 0-1.3893125.1065239-1.3893125.6924051 0 1.1185004 1.8167933 2.5033105 1.8167933 3.5152871 0 .8521908-.4809159 1.3315482-1.8167933 1.3315482-1.122137 0-2.8320601-.8521909-2.8320601-2.3435248 0-1.1717624 1.1755721-2.3435248 1.1755721-3.0359298 0-.2130477-.1603053-.5326193-.6412211-.5326193-1.5496178 0-1.9770986 4.0479064-7.4274784 4.5272638.8549615-.7989289 1.6030529-1.6511197 1.6030529-3.4620252 0-.8521909-.2137404-1.5978578-.2137404-2.5565725 0-1.2250243.587786-1.8641674 1.4427476-1.8641674 1.5496178 0 2.2977091 2.183739 3.312976 2.183739.5343509 0 1.122137-.4793574 1.122137-1.2250243 0-3.1424537-6.091601-2.7163583-6.091601-7.1370982.0534351-1.1717624.4809159-2.6630963 1.6030529-4.7403114zm7.9083943 27.0037966c0 .5858812.4274807 1.0119766 1.0152668 1.0119766.6412212 0 1.0687019-.5858812 1.0687019-1.2250243 0-.8521908-.8015264-2.0772151-1.5496178-2.0772151-.3206105 0-.2137404.4793573-.2671755 1.0652385-.053435.3728335-.2671754.9054528-.2671754 1.2250243zm-2.190839-5.5392403c4.3816779.8521908 6.7328222 4.1011683 6.7328222 7.1903601 0 2.130477-1.3358774 4.0479064-3.6870217 4.0479064-2.1374038 0-3.6870216-1.4380721-3.6870216-3.7815968 0-1.7576436 1.3893125-3.5685491 1.3893125-5.3794546.0534351-.6391431-.1603053-1.3315481-.7480914-2.0772151zm-5.5038149 7.0838362c2.4045793 0 4.0076322 1.5445959 4.0610673 3.0891917 0 1.0652386-.8015264 1.9706913-1.9770986 1.9706913-1.0687019 0-1.8167932-.8521908-1.8167932-1.8641674 0-.6924051.2671754-1.3315482.2671754-1.9706913 0-.3728335-.1068702-.7989289-.5343509-1.2250243zm13.7862549-2.6630963c3.0992356.2130477 5.1297692 2.0772151 5.1297692 4.314216 0 1.5978578-1.1755721 2.9826679-2.8854952 2.9826679-1.5496178 0-2.6183197-1.1185005-2.6183197-2.5033105 0-1.2250243.8015264-2.2902629.8015264-3.4620253 0-.4260954-.1603052-.8521908-.4274807-1.3315481zm-12.8244232-2.183739c1.9236635.2663096 2.4045794.9054528 2.4045794 1.438072 0 .9054528-.8549616 1.2250243-1.656488 1.2250243-.5877861 0-1.2290073-.1065238-1.9770986-.1065238-.9083967 0-1.8167933.2130477-2.5648846 1.0652385.5343509.1065238 1.3358774.4793573 1.3358774 1.2782862 0 2.3967867-6.7328222.4260954-6.7328222 6.6044789 0 3.3022394 3.4198462 6.8707885 8.6030505 6.8707885 2.6717549 0 4.381678-.8521908 4.381678-1.8641674 0-.7989289-1.4427476-.2663097-1.4427476-.9054528 0-.2663096.4809158-.8521908.4809158-1.2782862 0-.2130477-.1603053-.5858812-.4809158-.5858812-.7480914 0-2.190839 1.2250243-5.0228991 1.2250243-2.2442741 0-4.435113-1.2782862-4.435113-3.0359298 0-.3728335.1603053-.5858812.4274807-.5858812.2671755 0 .5877861.1597858.8549616.1597858s.2671755-.1597858.2671755-.6391431c0-.4793574 0-1.7576436.8015264-1.7576436.8015265 0 2.2977092 2.929406 8.0686996 2.929406 1.9236635 0 5.6106851-.3728335 6.9999976-1.5978578-.0534351 4.5805256-3.6335865 10.5991233-11.1145 10.5991233-7.8015241 0-11.9694617-6.2316454-11.9694617-11.9839334 0-6.3381693 5.1832044-12.1437192 12.3435073-12.1437192 1.8167933 0 3.3664111.6391431 3.3664111 1.3848101 0 1.0652385-2.7251899.3728334-2.9389303 1.7043816zm-26.9312886-47.4563764c2.7251899 0 4.0076322 2.3435248 4.0076322 5.0066211 0 1.1717624-.3206106 2.876144-.8549615 2.876144-.534351 0-.4809159-.9587146-.534351-1.8109055-.1068702-1.1185004-.2671755-1.3848101-.6412212-1.3848101-.6946562 0-1.1755721 1.6511198-1.1755721 3.1957156 0 .9587147.1603053 2.0239532.9083967 2.0239532.4274807 0 .8015264-.2130477 1.0687019-.4793573-.1603053 1.9174293-1.6030529 3.5685491-3.5801515 3.5685491-3.6870216 0-5.022899-4.2609542-5.4503798-6.7642647-2.190839 2.3435248-4.2748077 4.0479064-7.9083943 4.0479064-3.4198462 0-4.969464-2.5033105-4.969464-4.8468353 0-.692405.2671755-2.5565725 1.1221371-2.5565725 1.0152668 0 .1068701 3.4087633 2.1908389 3.4087633.4809159 0 1.4427476-.4260954 1.9236635-1.8109055.2671755-.8521908.4809159-1.7043816.4809159-2.4500486 0-1.1185004-.2671755-1.8109055-1.068702-1.8109055-.6946562 0-1.6030529.5326193-1.8702284.8521909 1.0152669-2.9826679 3.4198462-4.5272638 6.091601-4.5272638 3.312976 0 5.0228991 2.929406 5.0228991 6.1251215 0 .4793574-.0534351.9587147-.1068702 1.4380721 1.2290072-2.3435248 3.2061058-4.1011684 5.3435097-4.1011684zm-3.2061058 4.9000973c0-.6924051-.1603053-.8521909-.3206106-.8521909-.4274808 0-.8549615.4793574-1.5496178 1.5978578.1068702 1.491334.3206106 2.183739.7480914 2.183739.4274807-.0532619 1.122137-1.4913339 1.122137-2.9294059zm-5.7175553 1.7043816c.4809158 0 1.0687019-.4793573 2.1374038-1.7043816.1068702-.5326193.1068702-1.0652386.1068702-1.6511198 0-.8521908-.3206106-1.7576435-.8549615-1.7576435-1.2290073 0-1.8702284 3.3022394-1.8702284 4.2076921-.0534351.4793574.2137404.9054528.4809159.9054528zm6.7862572 3.6750729c1.0152668 0 2.190839-3.9946445 2.190839-6.497955 0-.5326193-.1068702-1.1185005-.3206106-1.1185005-.8549616 0-2.3511443 4.1011684-2.3511443 6.3381693 0 .9054527.2137404 1.2782862.4809159 1.2782862zm-10.2061034-2.2902628c1.4427476 0 3.0458005-7.6697174 3.0458005-8.9480036 0-.3195716-.1068702-.5858812-.4274808-.5858812-1.2824423 0-3.0992356 7.2968839-3.0992356 8.8947417 0 .3195715.1068702.6391431.4809159.6391431zm4.5419832 3.1957156c.9618317 0 2.8854952 1.7576435 3.312976 3.621811-.2137404-.053262-.4274808-.1065239-.6412212-.1065239-1.3358774 0-2.0839688 1.3315482-3.1526707 3.5685491 2.4045794-1.5978578 4.6488534-2.929406 7.213738-2.929406 2.190839 0 3.9007621 1.3315482 3.9007621 3.3555014 0 .8521908-.4274808 1.8109055-.9618317 2.6630963-.3206106-1.8641674-1.8702284-2.7163583-4.5419833-2.7163583-1.4961827 0-3.366411.3195716-4.8091586.8521909 4.7022885.6391431 5.3969447 2.3435247 5.3969447 3.8881206 0 2.6098344-2.6183197 3.9413825-4.3816779 4.7935734.1603053-.745667.2671755-1.491334.2671755-2.3435248 0-1.5978578-.5877861-3.3555014-2.9389303-5.1131449-.3740457 1.7043816-1.7099231 2.7163582-1.7099231 4.0479064 0 .4793573.3206106.6391431.587786.6391431 0 .745667-.3206105 2.876144-.3206105 3.4087633 0 1.1185004.2671755 1.3315481.8015264 1.438072.3740457.9587147.3740457 2.5565725.5877861 3.4087633.1068702.4793573.5343509.5858812.8015264.5858812.3206106.8521908.7480914 2.0772151 1.5496178 2.6630963.1603053.1065238.3740457.3728335.3740457.6391431 0 .745667-1.122137 1.5978578-1.8167933 1.5978578-.2137404 0-.587786-.1597858-.9083966-.9054528-.2671755-.5858811-2.2977092-1.8641674-2.4045794-2.6098343.1068702-.1065239.2137404-.3728335.2137404-.6391432 0-1.1717623-1.8167933-2.5033105-1.8167933-4.314216.2137404-.1065238.4274808-.4260954.4274808-.7989289 0-1.0119766-1.0687019-3.0359298-1.0687019-4.4207399.4809159 0 .6946562-.0532619.7480913-.692405.0534351-1.3848101.3740457-3.4087633 1.656488-4.5805257-.3206106-.0532619-.6946562-.1065238-1.1755721-.1065238-2.5114495 0-6.4122116 1.438072-7.8549592 4.6870495-.0534351-.5326193-.1068702-.9587147-.1068702-1.3848101 0-2.6630963 1.6030529-4.4740018 2.8320601-5.0066211.5877861-.2663096 1.3358774-.3728335 2.190839-.3728335 1.3358774 0 2.9389303.3195716 4.5419832.5858812-1.4427476-1.8641674-3.5801515-3.2489775-5.3969448-3.2489775-.8549615 0-1.4961827.3195716-1.709923 1.0119766-.0534351-.3728335-.1068702-1.0119766-.1068702-1.438072 0-2.0239532.6412211-3.1957156 2.4045793-3.1957156 2.6183197 0 4.8091587 3.0891918 6.1450361 5.9653358 0-4.3142161.0534351-6.497955 1.8702284-6.497955zm70.2137166 29.9332026c2.083969 0 3.740457 2.7163582 3.740457 5.8588119 0 3.3555013-1.603053 7.0305742-4.435113 9.5338848-.053435-5.5925023-6.946563-3.8348587-6.946563-7.8827651 0-1.7576436 1.229008-2.929406 2.778625-2.929406 1.335878 0 2.351145.3728335 3.152671 1.1185005-.748091-.6924051-1.122137-1.7043817-1.122137-2.6630963 0-1.5978578 1.015267-3.0359298 2.83206-3.0359298zm-30.9389207-42.5030173c-.3206106-.5326192-1.6030529-.8521908-2.1374038-.8521908-1.8167933 0-3.0992356 1.2782863-3.312976 2.4500486-.1603053-.4260954-.2671755-.9054527-.2671755-1.438072 0-1.8109055 1.2290072-4.0479064 4.2748077-4.0479064 2.6717548 0 3.6870217 1.3848101 4.0610673 1.3848101.4274808 0 .8549616-.4260954 1.1755722-.4260954.4809158 0 .4809158.692405.4809158 1.2250243 0 1.6511197-.7480913 4.5272637-2.6183197 5.5925023-.3206106-.6924051-1.0152668-1.491334-2.0839688-1.9706913-.2671754-.1065239-.4274807-.3728335-.4274807-.6391431-.0534351-.4260954.3740456-1.0119766.8549615-1.2782863zm-6.2519063 3.0359298c1.068702 1.0652386 2.0305337 1.491334 3.2061058 1.491334.4809159 0 1.0152668-.1065239 1.2824423-.1065239.3740457 0 .6412212.1597858.6412212.4793574 0 .4793573-.4274808 1.2250243-.9083967 1.5978578.4809159.2130477 1.068702.2663096 1.6030529.2663096 2.3511443 0 5.0763342-1.4913339 5.0763342-5.2196688.4809159.6391431.8015265 2.0239532.8015265 2.6630963 0 4.5272638-3.312976 6.2849073-6.4122116 6.2849073-2.0305337 0-2.9923654-.6391431-3.2595409-.6391431-.8015265 0-.7480914 1.5978578-1.2824423 1.5445959-.9618318-.1597858-1.8167933-2.2902629-1.8167933-4.5272638-.0534351-1.38481.3206106-2.7696201 1.0687019-3.8348587zm-35.6946444-26.41791543c0 .58588119-2.0305337.58588119-1.9770986 1.70438165 0 1.27828623 3.6870216 2.34352476 3.6870216 3.35550136 0 .26630963-.2137403.37283348-.4809158.37283348-.6946563 0-1.9770986-.58588119-2.9389303-.58588119-.6946563 0-1.1755721.37283349-1.1755721 1.06523853 0 1.17176238 1.2290072 2.98266787 1.2290072 3.8348587 0 .2663096-.2137404.4793573-.4809159.4793573-.9618317 0-2.0839688-3.19571555-3.5267164-3.19571555-1.8167932 0-1.2824423 4.63378755-2.5114495 4.63378755s.2137404-4.68704947-1.9770986-4.68704947c-1.3358774 0-2.7251899 2.13047707-3.5801514 2.13047707-.2137404 0-.4274808-.0532619-.4274808-.31957158 0-.79892889 2.244274-2.66309632 2.244274-3.72833484 0-.53261927-.5343509-.63914312-1.122137-.63914312-1.0687019 0-2.5114495.42609541-3.4198462.42609541-.4274807 0-.7480913-.15978578-.7480913-.42609541 0-.85219082 4.2213726-1.27828623 4.2213726-2.71635824 0-1.38481009-1.9770986-1.17176238-1.9770986-1.65111972 0-.37283348 1.5496178-.63914312 3.2061058-.63914312 2.778625 0 2.190839 2.34352476 4.3816779 2.34352476 2.0839688 0 1.7099231-2.2370009 4.4351131-2.2370009 1.709923 0 2.9389303.2130477 2.9389303.47935733zm9.7786226 4.20769219c0-.47935734 1.7633582-.85219083 3.1526707-.90545275 1.0687019 0 1.6030529.05326192 1.6030529 1.27828623 0 1.0119766-.2137404 1.97069128-.9083966 1.97069128-1.2290073 0-3.847327-1.5978578-3.847327-2.34352476zm4.3282428 8.25559854c0 .5326193-.4274807.9587147-1.2290072.745667-2.244274 0-6.9999976-2.2370009-8.6030505-2.2370009-.4809159 0-.5877861.1065239-.5877861.5326193 0 1.5978578 3.0992356 6.6044788 3.0992356 8.7882178 0 .5858812-.2137404 1.0652385-.8015264 1.0652385-1.8702284 0-6.0381659-5.006621-7.4809135-5.006621-1.3358775 0-.7480914 4.2076921-1.9770986 4.2076921-.9618317 0-1.8702284-2.3967866-2.9389303-2.3967866s-1.7633582 8.3088605-3.4732813 8.3088605c-2.0305337 0-1.2290072-7.6697174-2.5648846-7.6697174-1.068702 0-2.4580145 2.6098344-4.0076323 2.6098344-.8015264 0-1.0687019-.6391431-1.0687019-1.5978578 0-1.2250243.3740457-2.876144.3740457-3.9413826 0-.5858812-.0534351-1.2250243-.5877861-1.2250243-1.5496178 0-7.1603029 4.1011683-9.3511419 4.1011683-.4809158 0-.8015264-.1597857-.8015264-.6391431 0-2.0239532 7.1068678-8.0958128 7.1068678-9.53388478 0-1.27828624-8.1755697-.15978578-8.1755697-1.38481009 0-1.43807201 5.7709904-3.88812062 5.7709904-4.79357337s-5.6106852-1.27828623-5.6106852-2.34352476c0-.74566697 1.3358775-1.0119766 3.7938919-1.0119766 2.0305337 0 7.3206082.53261926 7.3206082 1.75764357 0 1.33154816-4.4885481 2.71635824-4.4885481 4.0479064 0 1.54459587 6.2519063.63914312 6.2519063 2.0239532 0 1.43807201-4.5419832 4.58052563-4.5419832 5.59250223 0 .1597858.2137404.2663097.3740457.2663097 1.122137 0 3.9541971-2.0772152 5.2366394-2.0772152.4809159 0 .6412212.3195716.6412212.9054528 0 1.1717624-.6946563 3.0891917-.6946563 4.314216 0 .3195716.1068702.6391431.4274808.6391431.9618317 0 2.4045794-3.9413825 3.6870217-3.9413825 1.1755721 0 .1068702 5.9653357 1.3358774 5.9653357 1.0687019 0 1.2824423-5.3794545 2.3511442-5.3794545 1.0152669 0 1.5496178 3.0359298 2.6183198 3.0359298.4274807 0 .4809158-.5858812.4809158-1.5445959v-1.438072c0-.9054527 0-1.5445959.4809159-1.5445959 1.2824423 0 4.8091587 4.1544303 5.55725 4.1544303.1603053 0 .2137404-.1597858.2137404-.2663096 0-1.1185005-2.3511442-4.9000973-2.3511442-6.87078853 0-.63914312.2671755-1.11850045.9083966-1.11850045 1.4961827 0 4.5954183 1.70438168 5.9847308 1.70438168.4809159 0 .7480914-.1597858.7480914-.63914316 0-1.70438164-5.0763342-5.11314493-5.0763342-6.55121694 0-1.33154816 5.6641202-2.76962017 9.5648823-2.76962017.4809158 0 1.4961827 0 1.4961827.53261927 0 1.0119766-4.8091587 1.91742934-5.9847308 3.14245365-.1603053.15978578-.2671755.37283348-.2671755.53261926.0534351 1.91742935 6.8396923 6.44469309 6.8396923 8.94800359zm-38.0457887-2.3967866c0 .8521908-3.1526707 3.6218109-4.2748077 3.6218109-.4274808 0-.534351-.4793573-.534351-.9587146 0-.8521908.3740457-1.9706913.8549616-2.3435248.534351-.4793573 1.8167933-.745667 2.7251899-.745667.5877861-.0532619 1.2290072.053262 1.2290072.4260955zm30.6183103 4.2609541c0-.1065239.1068702-.2663097.1603053-.2663097 1.1755721 0 6.4656467 4.1544303 7.213738 5.2196688.1603053.2663096.2671755.5858812.2671755.9054528 0 1.2782862-.587786 2.7163582-1.4427476 2.7163582-.9618317 0-6.1984712-7.1370981-6.1984712-8.5751701zm66.9541764-12.56981466c0 .58588119.480915 1.0119766 1.068701 1.0119766.587787 0 1.068702-.47935733 1.068702-1.0119766 0-.58588119-.480915-1.06523852-1.068702-1.06523852-.587786 0-1.068701.47935733-1.068701 1.06523852zm-6.786258 9.16105136c0-2.92940597-7.106868-3.67507294-7.106868-4.36747798 0-.53261927 3.954198-1.43807202 5.984731-1.49133394-3.15267-3.99464448-7.5877835-3.56854907-7.5877835-4.26095411 0-.42609541 3.3129765-1.22502431 6.4122115-1.22502431 2.564885 0 5.022899.58588119 5.022899 2.55657247 0 1.06523853-.854961 2.18373898-.854961 3.88812062 0 .90545275.480916 1.70438165 1.656488 1.70438165 1.282442 0 1.603053-1.38481009 1.603053-2.8228821 0-1.22502431-.213741-2.13047706-.213741-2.71635825 0-1.75764356 1.175572-2.92940594 2.885495-2.92940594 1.442748 0 1.763359.63914311 3.847327.63914311-1.122137.69240504-1.549617 1.86416742-1.549617 2.45004861 0 1.75764357 1.122137 2.92940595 1.122137 6.49795502 0 6.55121695-6.145037 8.89474165-13.73282 8.89474165-2.083969 0-4.274808-.1597857-6.4656469-.4793573-.3206106-.0532619-.4274808-.1065238-.4274808-.3195715 0-.5326193 2.9389307-.8521909 2.9389307-3.5152872 0-1.0652385-.320611-2.0239532-.320611-2.3967867 0-.2130477.160305-.3195715.320611-.3195715.641221 0 1.870228 2.3967867 4.221372 2.3967867.694656-.053262 2.244274-.2663097 2.244274-2.183739zm7.053433-4.20769221c0 3.67507291-2.72519 6.49795501-7.587784 7.29688391.534351.0532619 1.068702.0532619 1.549618.0532619 5.717555 0 7.801524-2.5565724 7.801524-4.7403114 0-1.17176239-.694656-2.23700092-1.763358-2.60983441zm-2.885495 53.58149791c.641221-2.0772151 1.496183-3.5152871 2.885495-5.752288-1.389312-.6924051-5.022899-2.183739-5.022899-4.6337876 0-2.8761441 3.580151-5.113145 4.328243-5.113145.32061 0 .427481.2663097.427481.8521909 0 1.4913339-.694657 3.8881206-.694657 5.2196687 0 1.1717624.748092 2.2902629 1.442748 2.2902629s2.671755-2.5033106 2.671755-4.9533592c0-4.4207399-3.900762-5.752288-5.076334-5.752288-1.122137 0-3.152671 1.8109055-7.96183 1.8109055-8.977096 0-11.0076297-8.8414798-11.0076297-12.7296004 0-.1597858.0534351-.2130477.1068702-.2130477.2137404 0 1.0687019 1.0652385 3.900762 1.0652385 1.4427476 0 2.7786255-.3728335 4.9160285-.3728335 4.969464 0 7.213738 3.4620252 10.312974 7.8295032 1.870228 1.1717624 6.358777 3.0359298 6.358777 8.3088605 0 4.6337876-4.969464 7.243622-6.145037 12.1969811 1.923664-.2130477 3.045801-3.621811 5.022899-3.621811 1.015267 0 1.442748.7989289 1.442748 2.0239532 0 1.8109055-1.068702 4.5805257-3.0458 6.2849073.053435-.1597857.053435-.3728334.053435-.6391431 0-1.1717623-.480916-2.8228821-1.816794-2.8228821-2.083968 0-2.72519 2.2370009-3.900762 4.1011684-1.229007-4.2609541-2.83206-8.0425509-5.77099-10.3860757-2.93893-2.3435247-8.0686996-1.0652385-8.0686996-5.3794545 0-1.1717624.7480913-2.8228821.7480913-4.1544303 0-.4793573-.1068702-.8521908-.3206106-1.2250243 4.0076319 1.4913339 2.5648849 4.1544303 5.0763339 6.8707885 1.549618 1.7576436 5.770991 3.4087633 8.229005 10.5991233.053435-.2130477.10687-.7456669.10687-1.1185004 0-6.1251215-8.175569-12.1969811-8.870226-14.6470298 4.755724.5326193 5.55725 1.7043817 7.85496 7.9360271.32061 1.3315481 1.816793 4.5272637 1.816793 6.1251215zm-1.068702-20.1862701c0-.8521908-2.190839-.9587147-2.404579-3.4087633-.053436-.3728335-.160306-1.0119766-.641222-1.0119766-.748091 0-.160305 2.2902629-1.015266 2.2902629-1.923664 0-2.564885-3.7283349-3.259541-3.7283349-.160306 0-.374046.1065239-.374046.6391431 0 .4793574.10687.745667.10687 1.2782863 0 .5326192-.10687.9054527-.641221.9054527-1.122137 0-2.137404-2.6098344-3.099236-2.6098344-.21374 0-.4274804.1065239-.4274804.3195716 0 .4793573.8549614 1.438072.8549614 1.8641674 0 1.0119766-2.7251897.4793573-2.7251897 1.2782862 0 .3728335.3740456.4793574.8549615.4793574.8549616 0 2.2442742-.3728335 2.9389302-.3728335.427481 0 1.068702.1065238 1.068702.6391431 0 .5858812-1.496183 1.3315482-1.496183 1.8641674 0 .2663097.267176.3728335.480916.3728335 1.122137 0 3.099236-1.9706913 4.541983-1.9706913.267176 0 .854962.1065239.854962.4793574 0 .5326192-1.389313 1.4913339-1.389313 2.2902628 0 .2130477.106871.4793573.374046.4793573.748091 0 1.763358-1.9706912 3.152671-1.9706912.534351 0 1.335877.2130477 1.763358.2130477.320611.0532619.480916-.1597858.480916-.3195716zm-31.0457912-24.8733196c-.5877861 0-2.9923654 2.7163583-3.7938918 2.7696202-.1603053 0-.2137404 0-.2137404-.2130477 0-.8521908 2.0839687-3.7815968 2.0839687-4.6337876s-2.8320601-.3728335-2.8320601-1.0652385c0-.8521909 2.8320601-1.7576436 2.8320601-2.929406 0-1.17176237-2.7251899-1.33154815-2.7251899-2.2370009 0-.53261926 2.5648846-1.22502431 2.5648846-1.97069128 0-.74566696-2.5648846-3.67507291-2.5648846-4.63378759 0-1.06523852 3.847327 1.8109055 4.8625938 1.8109055.4809159 0 .4809159-1.43807201.4809159-1.91742935 0-.69240504.2137404-1.11850045.4274807-1.11850045.4809159 0 1.4961827 1.65111971 2.1374039 1.59785779 1.0687019 0 3.1526707-1.38481009 5.9312957-1.38481009 5.8778606 0 10.1526683 3.51528714 10.1526683 9.53388482 0 6.23164535-4.7557235 9.74693255-9.7786226 9.74693255-3.5267164 0-5.6641202-2.183739-6.4656467-2.183739-.534351 0-1.3358774 1.9174293-1.8167933 1.9174293-.2137404 0-.2671755-.0532619-.3740456-.5326192-.1068702-.9587147-.2137404-2.5565725-.9083967-2.5565725zm1.1755721-6.81752656c0 .31957156-1.656488 1.49133396-1.7099231 1.75764356 0 .0532619.0534351.1065239.2671755.1065239.3206106 0 1.2824423.0532619 1.7633582.0532619.1603053 0 .2671755.1597858.2671755.3195715l.1068702 1.6511198c0 .2130477.1068702.3728334.2137404.3728334.4274807 0 1.122137-1.7043816 1.6030529-1.7043816.3740456 0 1.656488.5858812 1.9770985.5858812.0534351 0 .1068702 0 .1068702-.1065239 0-.3728334-.8549615-1.5445958-.8549615-1.8109055 0-.3728334 2.4045793-.3195715 2.4045793-.74566693 0-.31957155-2.3511442-.79892889-2.3511442-1.17176237 0-.37283349 1.0687019-1.49133394 1.0687019-1.75764357 0-.05326193-.0534351-.10652386-.1603053-.10652386-.4274807 0-1.4427476.63914312-1.9770985.63914312-.4274808 0-.9618318-2.18373898-1.2290073-2.18373898-.3740456 0-.4809158 2.34352476-1.0152668 2.34352476-.6412212 0-1.3893125-.15978578-1.8702284-.15978578-.1068702 0-.2137404 0-.2137404.10652385 0 .47935734 1.6030529 1.33154816 1.6030529 1.8109055zm8.1221347 7.88276506c2.2977092 0 6.4656467-1.4913339 6.3587765-7.3501458 0-4.74031144-2.4580145-7.56319354-6.5725169-7.56319354-2.5648846 0-4.1679375 1.0119766-4.1679375 1.97069127 0 .53261927.4809159.63914312.9083966.63914312.8015265 0 2.8320601-.79892889 3.2061058-.79892889.3206106 0 .4809159.05326192.4809159.26630963 0 .42609541-.8549616 1.43807201-.8549616 2.0239532 0 .79892889 4.5954183.2130477 4.5954183 1.06523853 0 .79892889-3.366411 1.54459586-3.366411 2.0239532 0 .53261928 2.7251899 2.34352478 2.7251899 3.24897748 0 .1597858-.1068702.3195716-.3740457.3195716-.9083966 0-2.5648846-.4793574-3.6870217-.4793574-.2671754 0-.3740456.1065239-.3740456.2663097 0 .6391431.6946562 1.8641674.6946562 2.6098344 0 .2130477-.1068702.3195715-.2671755.3195715-.6412211 0-2.6717548-1.3848101-3.5801514-1.3848101-.3206106 0-.5877861.2663097-.5877861.6391432 0 .7456669 1.9236635 2.1837389 4.8625938 2.1837389zm-28.2137309 71.9036006c0-.692405-.4274808-1.2250243-.4809159-1.9174293 0-.6924051.4274808-1.1717624 1.0687019-1.1717624.8015265 0 1.1755721.692405 1.2824423 1.438072.2671755-.3195716.534351-.4260954.9083967-.4260954.8549615 0 1.3358774.692405 1.3358774 1.3848101 0 .4793573-.2671755.8521908-.5877861 1.1185004.534351.2663097.8015265.6391431.8015265 1.1717624 0 .692405-.534351 1.1717624-1.1755722 1.1717624-.6412211 0-1.0152668-.745667-1.6564879-.745667-.3740457 0-.8015265.1597858-.9618318.4260954.2671755.5858812.3740457 1.1717624.3740457 1.7043817 0 3.2489775-4.1679375 5.8588119-8.4427453 5.8588119-4.2748077 0-5.8244255-2.6630964-5.8244255-3.7283349 0-.2663096.2137404-.3728335.4809159-.3728335.6946562 0 .8549615.2663097 2.778625.2663097 4.5954183 0 2.9923654-6.1783835 7.2671731-6.1783835.5877861 0 1.8702284.3728335 2.3511443 1.2250243.3740457-.4260954.4809159-.8521908.4809159-1.2250243zm-11.2213703 1.5978578c.6412211 0 .8549615-.3728335.8015264-.692405 0-1.0652386-1.8702283-2.3435248-2.9389303-2.3435248-.4274807 0-1.0152668.3195716-1.0152668.9587147 0 .7456669 1.9236635 2.0772151 3.1526707 2.0772151zm-11.595416-9.3208371c-2.6717548-.6924051-3.0458005-1.1717624-2.9923654-1.8641674 0-1.1717624 1.656488-1.9706913 3.0992356-1.9706913 2.0305337 0 3.5267164.5858812 4.9160289 2.6630963 1.2824423 1.9174294 1.4961827 5.0066211 2.1374039 5.5925023.3206106.2663096.8549615.3728335 1.2290072.3728335.4274808 0 .8015264-.053262 1.0687019-.053262 2.9923654 0 5.0228991 3.3555014 5.0228991 4.8468353 0 1.3848101-1.2290072 1.8641675-2.7251899 1.8641675-1.7633582 0-3.7938919-1.0119766-4.8625938-2.183739-.8015265-.8521908-1.2290072-2.5033106-1.5496178-4.5272638-.3206106-2.130477-2.0305337-3.8881206-5.3435097-4.7403114zm20.8931228-5.059883c0-1.8641674-3.9007621-1.9174294-3.9007621-4.7403115 0-.692405.4809159-1.9174293 1.3893125-3.1957155.3740457 2.1837389 1.2290073 3.3022394 3.1526707 3.9946444 3.6870217 1.3848101 4.2213727 3.4620252 4.2213727 5.6457642 0 3.7283349-2.6183198 8.4153844-9.404577 8.4153844-5.3969448 0-9.2977068-4.7935734-9.2977068-8.8947417 0-1.1185005.2671755-2.3435248 1.0152668-2.3435248.6412212 0 .8549616.4793574 1.3358774 1.0119766 1.8702284 1.8641675 3.9007621 2.3435248 6.8931275 2.3435248 2.6717548-.0532619 4.5954183-1.1185005 4.5954183-2.2370009zm.1603053 2.9826679c-1.4427476.6391431-1.9770986.5326192-1.9770986 1.9706912 0 .5326193-.1068702 1.2250243-.1068702 1.5978578 0 .4793574.1068702.7989289.6412212.7989289 1.4961827 0 3.900762-2.5565724 3.900762-4.6870495 0-.5858812-.3206106-.8521908-.6946562-.8521908-.3740457.0532619-.7480914.692405-1.7633582 1.1717624zm-13.251904-20.985199c0-2.6630963 6.3587765-4.0479064 6.3587765-7.3501459 0-.5326192-.2137404-1.4913339-.587786-2.1837389 2.1908389 1.2250243 3.8473269 3.2489775 3.8473269 4.9000972 0 2.876144-2.9923654 4.2076922-2.9923654 5.9653357 0 2.0772152 3.2061058 2.3967867 3.2061058 5.0066211 0 2.1304771-3.0458005 4.5805257-3.0458005 7.2968839 0 2.1304771 1.4961827 3.8881206 3.7938918 4.1544303-.7480913.1597858-1.4427476.2663096-2.1374038.2663096-4.2213726 0-8.5496155-3.4620252-8.5496155-7.5631935 0-2.0239532.8549616-3.8348587 2.190839-5.113145 1.1755721 1.0119766 2.3511442 1.6511198 3.0992356 1.6511198.6412212 0 .9618317-.3195716.9618317-.8521909-.0534351-1.4913339-6.1450361-2.876144-6.1450361-6.1783834zm-24.2060987 20.5058416c-.2137404-1.5978578 1.122137-2.8228821 2.2977092-2.9826679.1603053 0 .4274807-.0532619.4274807-.0532619-.1068701-.3195715-.2137403-.5858812-.2137403-.8521908-.1603053-1.5445959.8015264-2.8228821 2.244274-3.0359298 1.6030529-.2663096 2.778625.8521908 3.1526707 2.0772151.3206106-.3195715.8549615-.5326192 1.3893125-.5858812 1.4427476-.1597857 2.778625.9587147 2.9389303 2.4500486.1068702 1.4380721-.9083966 2.6630964-2.4045793 2.929406-.1603053.0532619-.3740457.0532619-.3740457.0532619.1603053.3195716.2137404.5326193.2671755.9587147.1603053 1.5445959-.8549616 2.7163582-2.4045794 2.9294059-1.4961827.2130478-2.6183197-.6391431-2.9389303-1.9706912-.3206105.2130477-.8549615.3728335-1.3893125.4260954-1.4961827.1597858-2.8320601-.9054528-2.9923654-2.3435248zm7.8015241-1.5978578c-.1068702-.9054527-.9083966-1.4913339-1.7633582-1.3848101-.8549615.1065239-1.4961827.9054528-1.3893125 1.7576436s.9083967 1.491334 1.7633582 1.3848101c.8549615-.1065238 1.4961827-.9054527 1.3893125-1.7576436z"/></svg>