<svg xmlns="http://www.w3.org/2000/svg" viewBox="0 0 262.9 65.2"><path d="M82.6 1.8h19L80.4 64.3h-19l-10.6-40-10.8 40H21L0 1.8h19.8L31 45.2 42.2 1.8h18L71.6 45 82.5 2M103 1.8h51V16h-32.5v10H151v14h-29.5v10H155v14.3h-52V1.8M203.7 3.7a18.6 18.6 0 0 1 8.4 5.5 12.8 12.8 0 0 1 3 8.4 13.3 13.3 0 0 1-2.8 8.4 14.8 14.8 0 0 1-7.8 5 15 15 0 0 1 9 5.5 16 16 0 0 1 3.6 10.3 14.8 14.8 0 0 1-3 9.3 19 19 0 0 1-8.7 6.2 36 36 0 0 1-13 2h-32V2H191a38 38 0 0 1 12.7 2zM194.4 25a5 5 0 0 0 1.6-4 4.7 4.7 0 0 0-1.6-4 6.5 6.5 0 0 0-4.4-1.3h-11.2v10.6H190a6.2 6.2 0 0 0 4.4-1.4zm1.3 24a5.2 5.2 0 0 0 2-4.5 4.7 4.7 0 0 0-2-4A9.3 9.3 0 0 0 190 39h-11.2v11.4H190a8.7 8.7 0 0 0 5.7-1.5zM260.2 37.4a15.3 15.3 0 0 1 2.7 9 17 17 0 0 1-3 10 18.7 18.7 0 0 1-8.2 6.6 29.3 29.3 0 0 1-11.7 2.2 28 28 0 0 1-10.5-2 18.6 18.6 0 0 1-8-6.2 16.5 16.5 0 0 1-3.2-10h13.2a7 7 0 0 0 1.2 3.8 8 8 0 0 0 3.2 2.8 10.3 10.3 0 0 0 4.5 1 11 11 0 0 0 5-1 7.6 7.6 0 0 0 3.2-3 8.3 8.3 0 0 0 1-4.3q0-9.2-10-9.2H233V27h6.7q4.5 0 6.8-2.2a8.3 8.3 0 0 0 2.3-6.3 7.7 7.7 0 0 0-2-5.6q-2.3-2-6.3-2a10 10 0 0 0-4 .7 7.2 7.2 0 0 0-3 2.4 5.8 5.8 0 0 0-1.2 3.5h-13a15.2 15.2 0 0 1 2.7-9 18.2 18.2 0 0 1 7.6-6.2A25.6 25.6 0 0 1 240 0a29.4 29.4 0 0 1 11.6 2 16.7 16.7 0 0 1 7.6 6.2 17.4 17.4 0 0 1 2.7 10 13.5 13.5 0 0 1-2.6 7.8 17 17 0 0 1-7 5.7 16 16 0 0 1 7.8 5.7z"></path></svg>
