<svg height="49" viewBox="0 0 261 49" width="261" xmlns="http://www.w3.org/2000/svg"><path d="m16.3719586 48.8714214-16.3719586-46.75212499h13.1503846l9.1427219 30.07374999 11.9334142-30.07374999h8.6222663l11.8438402 30.07374999 9.3156923-30.07374999h11.9318698l-16.4599881 46.75212499h-8.7936923l-12.8028994-31.9755625-12.7133255 31.9755625h-8.7998698zm104.3305034-20.6535h-32.394888c.9575148 7.086625 5.2261775 11.4078125 11.496355 11.4078125 4.875604 0 8.795237-2.7654375 10.362781-7.4326875l10.015296 3.4560313c-2.526604 8.1248125-10.27784 14.3462812-20.8166806 14.3462812-14.456929 0-23.6011952-10.0250937-23.6011952-24.7159062.0030887-13.9144688 9.3203254-24.28409379 23.1687692-24.28409379 14.7179286 0 22.1201366 11.14749999 22.1201366 23.33318749 0 1.3827188-.08803 2.7654375-.34903 3.889375zm-21.8591366-17.1974687c-5.4856331 0-9.3172366 3.889375-10.4492662 9.9378125h20.4645618c-.261-5.445125-4.180633-9.9378125-10.0152956-9.9378125zm70.3665266 17.1959375h-32.396432c.957515 7.0881562 5.226178 11.4078125 11.496355 11.4078125 4.877148 0 8.795237-2.7639063 10.362781-7.4311563l10.015296 3.4560313c-2.525059 8.1248125-10.276296 14.3462812-20.813592 14.3462812-14.455384 0-23.601195-10.0250937-23.601195-24.7159062 0-13.9144688 9.318781-24.28409379 23.165681-24.28409379 14.717929 0 22.120136 11.14749999 22.120136 23.33318749 0 1.3827188-.08803 2.7654375-.34903 3.889375zm-21.859136-17.1944063c-5.485633 0-9.317237 3.889375-10.449266 9.9378125h20.464562c-.261-5.445125-4.179089-9.9378125-10.015296-9.9378125zm40.844183 38.2827813-20.030591-47.18546879h13.760414l11.233811 29.98646879 11.32184-29.98646879h12.628384l-20.030591 47.18393749h-8.883267zm72.456071-21.0853125h-32.396432c.957515 7.086625 5.226178 11.4078125 11.496355 11.4078125 4.877148 0 8.795237-2.7654375 10.362782-7.4326875l10.015295 3.4560312c-2.525059 8.1232813-10.276295 14.34475-20.812047 14.34475-14.455385 0-23.601195-10.0250937-23.601195-24.7159062 0-13.9144688 9.318781-24.28409379 23.16568-24.28409379 14.716385 0 22.118592 11.14749999 22.118592 23.33318749 0 1.3827188-.086485 2.7654375-.34903 3.889375zm-21.857591-17.199c-5.487178 0-9.318781 3.889375-10.450811 9.9378125h20.464562c-.261-5.445125-4.179089-9.9378125-10.013751-9.9378125z" transform="translate(0 -.995)"/></svg>