<svg height="63" viewBox="0 0 302 63" width="302" xmlns="http://www.w3.org/2000/svg"><path d="m0 0h60.2375312v61.5511222h-60.2375312zm4.43618454 9.66052369c2.68723192 12.51289281 5.09673317 25.09334161 7.68638406 37.62875311.4728927 1.5012469.1801496 3.4828928 1.6363591 4.4887282 2.627182.4203491 5.3219202.3152618 7.9716209.1351122 1.441197.0450374 1.7864838-1.6513716 2.049202-2.7397756 1.8090025-8.9249127 3.7756359-17.8198005 5.5771322-26.7447132.1426184-.8256858.3978304-1.6288528.7881546-2.37197 2.2443641 9.5779551 4.098404 19.2384788 6.1851372 28.8464588.2852369 1.0208479.3452867 2.2818953 1.3511222 2.9049127 2.8673815.3452868 5.8098254.3753117 8.6697007-.0225187 1.0283541-.608005 1.0808978-1.8615461 1.343616-2.8974065 2.6497007-13.0683541 5.1192518-26.1892518 7.9190773-39.22758101-2.529601.01501247-5.0516958.00750624-7.5737906.00750624-2.0116708 11.37194517-3.6255112 22.81895257-5.8473566 34.15336657-2.499576-9.6154863-4.1734663-19.4636658-6.3502743-29.1692269-.4954114-1.6588778-.2702244-4.0758853-2.0867331-4.91658357-2.2218454-.13511221-4.4587033-.14261845-6.6805487 0-1.2610474.10508729-1.5462843 1.59882797-1.79399 2.58965087-2.0116708 9.6229925-4.1209227 19.2234663-6.0875561 28.8464589-.2026683.8932419-.5029177 1.7489526-.8406983 2.5971571-2.019177-11.3419202-3.9332668-22.7138654-5.6747132-34.10082297-2.74728177-.00750624-5.49456357.00750623-8.24184536-.00750624zm115.47591046-9.66052369h60.237531v61.5511222h-60.237531c0-20.5145387 0-41.0365835 0-61.5511222zm13.608803 9.66802993v42.21506237h8.346932c0-5.5020699 0-11.0116459 0-16.5137157 4.52626.0150124 9.052519-.0225187 13.578778.0075062 1.651372-.1576309 3.618005 1.0208479 3.580474 2.8373566.210175 4.5637905.600499 9.1125686.885736 13.6688529 2.649701 0 5.291895 0 7.941596.0075062-.750623-5.1642893.172643-10.5012219-1.283566-15.5604239-.750624-2.6497008-3.678055-3.2426933-5.95995-3.9032419 1.696409-.9007482 3.873217-.9833167 5.104239-2.6346883 1.786484-2.2668828 1.91409-5.2918953 1.921596-8.0541895-.030025-3.2276808.045038-6.7781297-2.004164-9.4878803-1.63636-2.25187036-4.698903-2.58214467-7.266035-2.58214467-8.279377-.00750624-16.56626 0-24.845636 0zm106.490947-9.66802993h60.988155v61.5511222h-60.988155c0-20.5145387 0-41.0365835 0-61.5511222zm13.608803 9.66802993v42.21506237c7.01833-.0150125 14.029152.0300249 21.047482-.0225187 4.323591-.0825686 9.360274-.8857357 11.964937-4.7589527 3.040025-4.8640399 2.582145-10.8164837 3.115088-16.3035411-.540449-5.4945636-.06005-11.4695262-3.115088-16.3485786-2.424513-3.6255112-7.063366-4.57880295-11.139252-4.72892763-7.288553-.12009975-14.584613-.02251871-21.873167-.05254364zm-178.1004236-.4128429c9.7055611-.0225187 19.403616-.0225187 29.1016706 0 .037531 2.51458857.037531 5.03668327.007506 7.55877807-3.430349.0225187-6.8606978.0075062-10.2910469.0075062.0150125 9.3002245.0150125 18.6079551 0 27.9081796 3.4303491 0 6.8606979-.0150125 10.2985539.0150124.015012 2.5145886.022518 5.0366833-.015013 7.5512719-9.6980546.0225187-19.3961095.0225187-29.0941643 0-.0375312-2.5220948-.0375312-5.0366833-.0075063-7.5587781 3.4303492-.0225187 6.8606983-.0075062 10.2910474-.0075062-.0150124-9.3002245-.0150124-18.6079551 0-27.9081796-3.4303491 0-6.8606982.0150125-10.2910474-.0075062-.0300249-2.5220948-.0300249-5.0366833 0-7.55877807zm115.3933416.00750624c11.889875-.03753118 23.779751-.03753118 35.677132 0 .015013 4.66887783 0 9.33775563.007506 14.00663343-2.574638 0-5.149276 0-7.723915 0-.007506-2.1542893-.007506-4.3010723.007507-6.4478554-4.653866.0075063-9.300225.0075063-13.95409 0-.015013 3.2276808-.007506 6.4553616-.007506 9.6830424h11.259351v7.1834663c-3.753117 0-7.506234 0-11.259351 0 .015012 3.6855611-.037532 7.3786285.037531 11.0641896 4.773965-.0525437 9.54793-.0150125 14.321895-.0225187-.007506-2.4545387-.007506-4.9090773 0-7.363616 2.619676-.0300249 5.239352-.0300249 7.859027-.0075062 0 4.9766334.037532 9.9532668-.022518 14.9299002-12.070025.0375312-24.132544.0375312-36.202569 0-.037531-2.5145885-.030025-5.029177-.007506-7.5437656 1.91409-.0225187 3.820673-.0225187 5.734763-.0075062.037531-9.3077307.037531-18.6154613 0-27.923192-1.91409.0150125-3.82818.0150125-5.742269-.0225187-.015013-2.5070823-.015013-5.0216708.015012-7.52875313zm-49.045736 7.34109723c5.359452.0825686 10.726409-.1651371 16.070848.1125935 2.064215 1.4637158 1.651372 4.4061596 1.73394 6.6204988-.105087 2.0116708-.142618 5.2318454-2.822344 5.3894763-4.984139.255212-9.990798.0375312-14.982444.1050873 0-4.0758853 0-8.1517706 0-12.2276559zm120.099751 0c4.526259.0225187 9.052519-.0300249 13.578778.0150125 2.019177-.0225187 4.323591.960798 4.961621 3.0325187 1.418678 4.0533666.81818 8.4520199.975811 12.6705237-.1201 3.3702992.232693 6.9282544-1.200998 10.088379-.960798 2.0416958-3.445362 2.5821447-5.494564 2.5446135-4.278553 0-8.549601-.0150125-12.820648-.0075062 0-9.4503492 0-18.893192 0-28.3435412z" transform="translate(.523 .737)"/></svg>