<svg xmlns="http://www.w3.org/2000/svg" width="286" height="77" viewBox="0 0 286 77">
  <g fill-rule="evenodd">
    <path fill-rule="nonzero" d="M97.4603172,19.0193188 L77.2716196,19.0193188 L77.2716196,64.9922725 L89.0049744,64.9922725 L89.0049744,53.2387132 L97.4603172,53.2387132 C119.422998,53.2387132 119.422998,19.0830708 97.4603172,19.0173869 L97.4603172,19.0193188 Z M97.394757,42.6636009 L89.0069027,42.6636009 L89.0069027,29.5074965 C91.6929443,29.5074965 94.6431551,29.4418126 97.394757,29.5074965 C104.21495,29.5712486 103.819661,42.6442821 97.394757,42.6442821 L97.394757,42.6636009 Z M148.068967,19.0173869 L127.945829,19.0173869 L127.945829,64.9884087 L139.681112,64.9884087 L139.681112,51.4613834 L145.778215,51.4613834 L153.645443,64.9884087 L167.818025,64.9806812 L157.775739,48.7026584 C169.379901,40.8205871 166.101889,19.0792071 148.072823,19.0135232 L148.068967,19.0173869 Z M148.072823,41.0176389 L139.681112,41.0176389 L139.681112,29.5036328 C142.438499,29.5036328 145.317365,29.4398807 148.072823,29.5036328 C154.758039,29.5693167 154.430238,41.0021839 148.072823,41.0021839 L148.072823,41.0176389 Z M179.618868,64.9710218 L192.719347,64.9710218 L192.719347,19 L179.618868,19 L179.618868,64.9710218 Z M208.845238,19.0077275 L208.845238,29.5132922 L225.885116,29.5132922 L206.159196,64.9826131 L243.779205,64.9826131 L243.779205,54.4731847 L224.766735,54.4731847 L244.577497,19.0038638 L208.845238,19.0077275 Z M268.429855,54.5388686 L268.429855,46.4713368 L284.033193,46.4713368 L284.033193,36.0237285 L268.429855,36.0237285 L268.429855,29.5210197 L285.409958,29.5210197 L285.409958,19.0115913 L256.762061,19.0115913 L256.762061,64.9903406 L286,64.9903406 L286,54.5465961 L268.429855,54.5388686 Z M45.8258429,64.9922725 L62.5379196,64.9922725 L37.4071367,33.2476166 C34.568764,36.6013607 31.7516019,40.1328378 29,43.7493175 L45.8258429,65 L45.8258429,64.9922725 Z"/>
    <path d="M72.6167798,4.58841517 C71.8529205,1.82491251 69.8005311,-0.069783702 65.6224525,0.0019704022 C55.3836525,0.188143213 42.9883003,12.0159346 31.8660469,26.3434838 L16.7238878,7.15023062 L0,7.15023062 L23.8493828,37.3761622 C9.94174369,57.7097239 -0.0617259988,78.466053 2.40924289,76.9184915 C6.60853975,69.9757971 12.0963668,61.3207007 18.2516063,52.4639171 C31.646148,33.1736988 48.2002893,12.9021948 61.4945263,7.17738082 C66.7605256,4.90839969 69.432104,6.39390357 70.1265215,9.85749358 C70.8402284,13.3288408 69.5478403,18.7976671 66.8859066,24.4604234 C67.2909834,25.2497186 70.666624,19.3561855 72.209774,13.1581824 C72.9813489,10.1270563 73.3092683,7.01641891 72.6341402,4.58647587"/>
  </g>
</svg>
