<svg xmlns="http://www.w3.org/2000/svg" width="286" height="77" viewBox="0 0 286 77">
  <path d="M97.4603172,19.0193188 L97.4603172,19.0173869 C119.422998,19.0830708 119.422998,53.2387132 97.4603172,53.2387132 L89.0049744,53.2387132 L89.0049744,64.9922725 L77.2716196,64.9922725 L77.2716196,19.0193188 L97.4603172,19.0193188 Z M97.394757,42.6636009 L97.394757,42.6442821 C103.819661,42.6442821 104.21495,29.5712486 97.394757,29.5074965 C94.6431551,29.4418126 91.6929443,29.5074965 89.0069027,29.5074965 L89.0069027,42.6636009 L97.394757,42.6636009 Z M148.068967,19.0173869 L148.072823,19.0135232 C166.101889,19.0792071 169.379901,40.8205871 157.775739,48.7026584 L167.818025,64.9806812 L153.645443,64.9884087 L145.778215,51.4613834 L139.681112,51.4613834 L139.681112,64.9884087 L127.945829,64.9884087 L127.945829,19.0173869 L148.068967,19.0173869 Z M148.072823,41.0176389 L148.072823,41.0021839 C154.430238,41.0021839 154.758039,29.5693167 148.072823,29.5036328 C145.317365,29.4398807 142.438499,29.5036328 139.681112,29.5036328 L139.681112,41.0176389 L148.072823,41.0176389 Z M179.618868,64.9710218 L179.618868,19 L192.719347,19 L192.719347,64.9710218 L179.618868,64.9710218 Z M208.845238,19.0077275 L244.577497,19.0038638 L224.766735,54.4731847 L243.779205,54.4731847 L243.779205,64.9826131 L206.159196,64.9826131 L225.885116,29.5132922 L208.845238,29.5132922 L208.845238,19.0077275 Z M268.429855,54.5388686 L286,54.5465961 L286,64.9903406 L256.762061,64.9903406 L256.762061,19.0115913 L285.409958,19.0115913 L285.409958,29.5210197 L268.429855,29.5210197 L268.429855,36.0237285 L284.033193,36.0237285 L284.033193,46.4713368 L268.429855,46.4713368 L268.429855,54.5388686 Z M45.8258429,64.9922725 L45.8258429,65 L29,43.7493175 C31.7516019,40.1328378 34.568764,36.6013607 37.4071367,33.2476166 L62.5379196,64.9922725 L45.8258429,64.9922725 Z M72.6167798,4.58841517 L72.6341402,4.58647587 C73.3092683,7.01641891 72.9813489,10.1270563 72.209774,13.1581824 C70.666624,19.3561855 67.2909834,25.2497186 66.8859066,24.4604234 C69.5478403,18.7976671 70.8402284,13.3288408 70.1265215,9.85749358 C69.432104,6.39390357 66.7605256,4.90839969 61.4945263,7.17738082 C48.2002893,12.9021948 31.646148,33.1736988 18.2516063,52.4639171 C12.0963668,61.3207007 6.60853975,69.9757971 2.40924289,76.9184915 C-0.0617259988,78.466053 9.94174369,57.7097239 23.8493828,37.3761622 L0,7.15023062 L16.7238878,7.15023062 L31.8660469,26.3434838 C42.9883003,12.0159346 55.3836525,0.188143213 65.6224525,0.0019704022 C69.8005311,-0.069783702 71.8529205,1.82491251 72.6167798,4.58841517 Z"/>
</svg>
