<svg height="77" viewBox="0 0 286 77" width="286" xmlns="http://www.w3.org/2000/svg"><path d="m97.4603172 19.0193188v-.0019319c21.9626808.0656839 21.9626808 34.2213263 0 34.2213263h-8.4553428v11.7535593h-11.7333548v-45.9729537zm-.0655602 23.6442821v-.0193188c6.424904 0 6.820193-13.0730335 0-13.1367856-2.7516019-.0656839-5.7018127 0-8.3878543 0v13.1561044zm50.67421-23.646214.003856-.0038637c18.029066.0656839 21.307078 21.8070639 9.702916 29.6891352l10.042286 16.2780228-14.172582.0077275-7.867228-13.5270253h-6.097103v13.5270253h-11.735283v-45.9710218zm.003856 22.000252v-.015455c6.357415 0 6.685216-11.4328672 0-11.4985511-2.755458-.0637521-5.634324 0-8.391711 0v11.5140061zm31.546045 23.9533829v-45.9710218h13.100479v45.9710218zm29.22637-45.9632943 35.732259-.0038637-19.810762 35.4693209h19.01247v10.5094284h-37.620009l19.72592-35.4693209h-17.039878zm59.584617 35.5311411 17.570145.0077275v10.4437445h-29.237939v-45.9787493h28.647897v10.5094284h-16.980103v6.5027088h15.603338v10.4476083h-15.603338zm-222.6040121 10.4534039v.0077275l-16.8258429-21.2506825c2.7516019-3.6164797 5.568764-7.1479568 8.4071367-10.5017009l25.1307829 31.7446559zm26.7909369-60.40385733.0173604-.0019393c.6751281 2.42994304.3472087 5.54058043-.4243662 8.57170653-1.54315 6.1980031-4.9187906 12.0915362-5.3238674 11.302241 2.6619337-5.6627563 3.9543218-11.1315826 3.2406149-14.60292982-.6944175-3.46359001-3.3659959-4.94909389-8.6319952-2.68011276-13.294237 5.72481398-29.8483783 25.99631798-43.24292 45.28653628-6.1552395 8.8567836-11.64306655 17.51188-15.84236341 24.4545744-2.47096889 1.5475615 7.5325008-19.2087676 21.44013991-39.5423293l-23.8493828-30.22593158h16.7238878l15.1421591 19.19325318c11.1222534-14.3275492 23.5176056-26.15534059 33.7564056-26.3415134 4.1780786-.0717541 6.230468 1.82294211 6.9943273 4.58644477z"/></svg>