<svg xmlns="http://www.w3.org/2000/svg" style="display: none;">
    <symbol id="logo" xmlns="http://www.w3.org/2000/svg" width="65" height="90" viewBox="0 0 65 90">
      <g fill="none" fill-rule="evenodd">
          <path fill="#008996" d="M10.78 83.6734L10.78 83.6274C10.78 80.8124 8.676 78.5694 5.974 78.5694 3.204 78.5694 1.212 80.8354 1.212 83.5814L1.212 83.6274C1.212 86.4434 3.318 88.6864 6.019 88.6864 8.789 88.6864 10.78 86.4204 10.78 83.6734M0 83.6734L0 83.6274C0 80.3554 2.54 77.5164 6.019 77.5164 9.476 77.5164 11.993 80.3094 11.993 83.5814L11.993 83.6274C11.993 86.9004 9.452 89.7384 5.974 89.7384 2.517 89.7384 0 86.9464 0 83.6734M14.6482 83.6734L14.6482 83.6274C14.6482 80.3554 17.2582 77.5164 20.6002 77.5164 22.7962 77.5164 24.1702 78.5234 25.2692 79.6684L24.4672 80.4914C23.4612 79.4624 22.3152 78.5694 20.5762 78.5694 17.9222 78.5694 15.8612 80.7884 15.8612 83.5814L15.8612 83.6274C15.8612 86.4434 17.9902 88.6864 20.6682 88.6864 22.3152 88.6864 23.5972 87.8404 24.5822 86.7404L25.3602 87.4274C24.1702 88.7774 22.7502 89.7384 20.6002 89.7384 17.2342 89.7384 14.6482 86.9464 14.6482 83.6734M37.0568 83.0777C36.8948 80.7207 35.5458 78.5457 32.8688 78.5457 30.5558 78.5457 28.7708 80.4917 28.5648 83.0777L37.0568 83.0777zM27.3728 83.6507L27.3728 83.6047C27.3728 80.2167 29.7548 77.5157 32.9128 77.5157 36.1858 77.5157 38.2688 80.1717 38.2688 83.6267 38.2688 83.8327 38.2688 83.9017 38.2468 84.0857L28.5648 84.0857C28.7708 86.9927 30.8518 88.6857 33.1428 88.6857 34.9498 88.6857 36.1858 87.8857 37.1478 86.8557L37.9258 87.5417C36.7358 88.8237 35.3398 89.7387 33.0968 89.7387 30.0298 89.7387 27.3728 87.2897 27.3728 83.6507L27.3728 83.6507zM49.5759 85.0929L49.5759 83.7649C48.5919 83.5129 47.2879 83.2389 45.6179 83.2389 43.1439 83.2389 41.7709 84.3379 41.7709 85.9629L41.7709 86.0079C41.7709 87.7019 43.3729 88.6859 45.1589 88.6859 47.5389 88.6859 49.5759 87.2209 49.5759 85.0929M40.5809 86.0759L40.5809 86.0309C40.5809 83.6049 42.6639 82.2309 45.6859 82.2309 47.3109 82.2309 48.4319 82.4369 49.5539 82.7349L49.5539 82.2309C49.5539 79.8729 48.1109 78.6609 45.7079 78.6609 44.2879 78.6609 43.1219 79.0499 42.0459 79.5989L41.6339 78.6139C42.9159 78.0199 44.1749 77.6079 45.7769 77.6079 47.3549 77.6079 48.6139 78.0429 49.4619 78.8899 50.2409 79.6679 50.6529 80.7439 50.6529 82.1859L50.6529 89.4649 49.5539 89.4649 49.5539 87.5189C48.7529 88.6399 47.3109 89.7389 45.0899 89.7389 42.9159 89.7389 40.5809 88.5039 40.5809 86.0759M54.6794 77.7911L55.8024 77.7911 55.8024 79.9651C56.5784 78.5921 57.8844 77.5161 60.0134 77.5161 62.9654 77.5161 64.6824 79.5311 64.6824 82.3241L64.6824 89.4641 63.5614 89.4641 63.5614 82.5291C63.5614 80.1251 62.2114 78.5461 59.8534 78.5461 57.5644 78.5461 55.8024 80.2861 55.8024 82.7121L55.8024 89.4641 54.6794 89.4641 54.6794 77.7911z"/>
          <path fill="#0099A8" d="M8.2512 31.401C8.2512 33.333 6.6862 34.899 4.7542 34.899 2.8232 34.899 1.2562 33.333 1.2562 31.401 1.2562 29.469 2.8232 27.904 4.7542 27.904 6.6862 27.904 8.2512 29.469 8.2512 31.401M63.508 31.401C63.508 33.333 61.942 34.899 60.011 34.899 58.08 34.899 56.513 33.333 56.513 31.401 56.513 29.469 58.08 27.904 60.011 27.904 61.942 27.904 63.508 29.469 63.508 31.401M35.8479 45.2828C35.8479 47.2138 34.2819 48.7808 32.3509 48.7808 30.4199 48.7808 28.8529 47.2138 28.8529 45.2828 28.8529 43.3508 30.4199 41.7848 32.3509 41.7848 34.2819 41.7848 35.8479 43.3508 35.8479 45.2828M22.0495 38.3961C22.0495 40.3271 20.4845 41.8941 18.5525 41.8941 16.6215 41.8941 15.0545 40.3271 15.0545 38.3961 15.0545 36.4641 16.6215 34.8981 18.5525 34.8981 20.4845 34.8981 22.0495 36.4641 22.0495 38.3961M49.6511 38.3961C49.6511 40.3271 48.0851 41.8941 46.1551 41.8941 44.2231 41.8941 42.6571 40.3271 42.6571 38.3961 42.6571 36.4641 44.2231 34.8981 46.1551 34.8981 48.0851 34.8981 49.6511 36.4641 49.6511 38.3961"/>
          <path fill="#1FCAD4" d="M7.0651 41.9635C7.0651 43.2575 6.0161 44.3075 4.7211 44.3075 3.4261 44.3075 2.3771 43.2575 2.3771 41.9635 2.3771 40.6685 3.4261 39.6195 4.7211 39.6195 6.0161 39.6195 7.0651 40.6685 7.0651 41.9635M62.323 41.9635C62.323 43.2575 61.274 44.3075 59.979 44.3075 58.684 44.3075 57.635 43.2575 57.635 41.9635 57.635 40.6685 58.684 39.6195 59.979 39.6195 61.274 39.6195 62.323 40.6685 62.323 41.9635M34.6628 55.8453C34.6628 57.1403 33.6118 58.1893 32.3188 58.1893 31.0238 58.1893 29.9728 57.1403 29.9728 55.8453 29.9728 54.5503 31.0238 53.5003 32.3188 53.5003 33.6118 53.5003 34.6628 54.5503 34.6628 55.8453M20.8645 48.9586C20.8645 50.2526 19.8145 51.3026 18.5205 51.3026 17.2255 51.3026 16.1755 50.2526 16.1755 48.9586 16.1755 47.6636 17.2255 46.6136 18.5205 46.6136 19.8145 46.6136 20.8645 47.6636 20.8645 48.9586M48.4665 48.9586C48.4665 50.2526 47.4155 51.3026 46.1225 51.3026 44.8275 51.3026 43.7765 50.2526 43.7765 48.9586 43.7765 47.6636 44.8275 46.6136 46.1225 46.6136 47.4155 46.6136 48.4665 47.6636 48.4665 48.9586"/>
          <path fill="#85DADF" d="M5.9465 50.2198C5.9465 50.8778 5.4125 51.4118 4.7545 51.4118 4.0955 51.4118 3.5625 50.8778 3.5625 50.2198 3.5625 49.5608 4.0955 49.0278 4.7545 49.0278 5.4125 49.0278 5.9465 49.5608 5.9465 50.2198M61.2033 50.2198C61.2033 50.8778 60.6693 51.4118 60.0113 51.4118 59.3523 51.4118 58.8203 50.8778 58.8203 50.2198 58.8203 49.5608 59.3523 49.0278 60.0113 49.0278 60.6693 49.0278 61.2033 49.5608 61.2033 50.2198M33.5432 64.1012C33.5432 64.7592 33.0092 65.2932 32.3512 65.2932 31.6922 65.2932 31.1602 64.7592 31.1602 64.1012 31.1602 63.4432 31.6922 62.9092 32.3512 62.9092 33.0092 62.9092 33.5432 63.4432 33.5432 64.1012M19.7448 57.2144C19.7448 57.8724 19.2108 58.4064 18.5528 58.4064 17.8948 58.4064 17.3608 57.8724 17.3608 57.2144 17.3608 56.5564 17.8948 56.0224 18.5528 56.0224 19.2108 56.0224 19.7448 56.5564 19.7448 57.2144M47.3469 57.2144C47.3469 57.8724 46.8129 58.4064 46.1549 58.4064 45.4949 58.4064 44.9629 57.8724 44.9629 57.2144 44.9629 56.5564 45.4949 56.0224 46.1549 56.0224 46.8129 56.0224 47.3469 56.5564 47.3469 57.2144"/>
          <path fill="#008996" d="M37.0549 4.71C37.0549 7.312 34.9459 9.42 32.3469 9.42 29.7449 9.42 27.6359 7.312 27.6359 4.71 27.6359 2.108 29.7449 0 32.3469 0 34.9459 0 37.0549 2.108 37.0549 4.71M37.0549 18.5172C37.0549 21.1182 34.9459 23.2272 32.3469 23.2272 29.7449 23.2272 27.6359 21.1182 27.6359 18.5172 27.6359 15.9162 29.7449 13.8072 32.3469 13.8072 34.9459 13.8072 37.0549 15.9162 37.0549 18.5172M37.0549 32.3243C37.0549 34.9263 34.9459 37.0343 32.3469 37.0343 29.7449 37.0343 27.6359 34.9263 27.6359 32.3243 27.6359 29.7223 29.7449 27.6143 32.3469 27.6143 34.9459 27.6143 37.0549 29.7223 37.0549 32.3243M64.7219 18.5172C64.7219 21.1182 62.6129 23.2272 60.0119 23.2272 57.4099 23.2272 55.3009 21.1182 55.3009 18.5172 55.3009 15.9162 57.4099 13.8072 60.0119 13.8072 62.6129 13.8072 64.7219 15.9162 64.7219 18.5172M9.4646 18.5172C9.4646 21.1182 7.3556 23.2272 4.7546 23.2272 2.1526 23.2272.0446 21.1182.0446 18.5172.0446 15.9162 2.1526 13.8072 4.7546 13.8072 7.3556 13.8072 9.4646 15.9162 9.4646 18.5172M23.2619 11.6139C23.2619 14.2149 21.1529 16.3239 18.5529 16.3239 15.9509 16.3239 13.8429 14.2149 13.8429 11.6139 13.8429 9.0119 15.9509 6.9039 18.5529 6.9039 21.1529 6.9039 23.2619 9.0119 23.2619 11.6139M23.2619 25.4205C23.2619 28.0225 21.1529 30.1305 18.5529 30.1305 15.9509 30.1305 13.8429 28.0225 13.8429 25.4205 13.8429 22.8195 15.9509 20.7105 18.5529 20.7105 21.1529 20.7105 23.2619 22.8195 23.2619 25.4205M50.8635 11.6139C50.8635 14.2149 48.7545 16.3239 46.1535 16.3239 43.5535 16.3239 41.4445 14.2149 41.4445 11.6139 41.4445 9.0119 43.5535 6.9039 46.1535 6.9039 48.7545 6.9039 50.8635 9.0119 50.8635 11.6139M50.8635 25.4205C50.8635 28.0225 48.7545 30.1305 46.1535 30.1305 43.5535 30.1305 41.4445 28.0225 41.4445 25.4205 41.4445 22.8195 43.5535 20.7105 46.1535 20.7105 48.7545 20.7105 50.8635 22.8195 50.8635 25.4205"/>
      </g>
    </symbol>
    
    <symbol id="ipdb" xmlns="http://www.w3.org/2000/svg" width="151" height="36" viewBox="0 0 151 36">
        <path d="M29.4836312,2.44017222 C38.0059542,2.44017222 44.9140016,9.29993568 44.9140016,17.7609762 C44.9140016,26.2220167 38.0059542,33.0817802 29.4836312,33.0817802 C28.8880432,33.0794762 28.4053849,32.6010131 28.4038379,32.0096542 L28.4038379,14.9431894 C28.4038379,14.3495264 28.8880432,13.8679913 29.4851782,13.8679913 C30.0830867,13.8679913 30.5680655,14.3495264 30.5680655,14.9431894 L30.5680655,30.9091122 L31.2502845,30.8200243 C37.8628584,29.9552579 42.8000509,24.3496362 42.7830341,17.7279523 C42.7644703,10.4534696 36.8101372,4.57060033 29.4836312,4.58903229 C28.8857228,4.58903229 28.4015174,4.10826517 28.4015174,3.51460226 C28.4015174,2.92093934 28.8857228,2.44017222 29.4836312,2.44017222 Z M60.4380417,14.9186134 C63.4941043,16.6166583 65.4084943,19.8030845 65.4610917,23.2805821 C65.4989928,28.6419803 61.1635762,33.0249483 55.7646096,33.0817802 L55.6911279,33.0817802 C53.3961804,33.0825482 51.1739409,32.2815257 49.4134756,30.8200243 C49.1628646,30.6149687 49.0189952,30.3093053 49.0213157,29.9875139 C49.0244097,29.3953869 49.5109355,28.9176918 50.1080705,28.9207638 C50.3617755,28.9199958 50.6077456,29.0083156 50.8018918,29.1711313 C52.1686503,30.3062333 53.8927615,30.9290801 55.6748846,30.9329201 L55.7514602,30.9329201 C59.9476484,30.8753202 63.3115605,27.4677105 63.2844883,23.3013181 C63.2287969,19.3975812 60.197486,16.1735231 56.2797545,15.8494277 L56.2797545,13.6368237 C58.5445359,13.2904564 60.2237847,11.3673879 60.2469894,9.09257606 L60.2469894,9.08796807 C60.2454424,6.60042062 58.2134818,4.5851923 55.7089182,4.5867283 C53.2035811,4.5874963 51.1739409,6.60502861 51.1754879,9.09257606 L51.1754879,21.9219926 C51.1754879,22.5156555 50.6912826,22.9971906 50.0933741,22.9971906 C49.4962391,22.9971906 49.0112603,22.5156555 49.0112603,21.9219926 L49.0112603,9.08412807 C49.0151278,7.24861143 49.7824308,5.49450264 51.1306255,4.23805694 C53.8339762,1.71978954 58.0819883,1.8541893 60.6182651,4.53834439 C63.1553153,7.22249948 63.0191809,11.4411158 60.3158301,13.9586152 L59.731071,14.5154141 L60.4380417,14.9186134 Z M1.53825517,12.9794938 C2.13693714,12.9864057 2.617275,13.4733168 2.61031358,14.0677478 L2.61031358,32.0742428 C2.61031358,32.6679058 2.12533478,33.1486729 1.52819979,33.1486729 C0.930291306,33.1486729 0.4453125,32.6679058 0.4453125,32.0742428 L0.4453125,14.0677478 L0.4453125,14.0477798 C0.449953446,13.4533489 0.939573197,12.9748858 1.53825517,12.9794938 Z M1.53825517,2.44017222 C2.13693714,2.44017222 2.62191595,2.92170734 2.62191595,3.51690625 L2.62191595,8.60489695 C2.62191595,9.19855987 2.13771063,9.67932699 1.53980215,9.67932699 C0.94189367,9.67932699 0.458461846,9.19855987 0.458461846,8.60489695 L0.458461846,3.51229826 C0.460008827,2.92093934 0.94189367,2.44247622 1.53825517,2.44017222 Z M16.5990516,2.44017222 L16.5828082,2.44401222 C21.8394525,2.45015621 26.0967466,6.68566846 26.0905586,11.9049869 C26.0851442,17.1243054 21.8193418,21.3506016 16.5626975,21.3452257 C15.964789,21.3452257 15.4805837,20.8636905 15.4805837,20.2707956 C15.4805837,19.6771327 15.964789,19.1963656 16.5626975,19.1963656 C20.5732479,19.2270855 23.8598108,16.0421954 23.926331,12.0601226 C23.9936247,8.05270596 20.776676,4.750312 16.7406004,4.68272812 C12.7045248,4.61591225 9.37774033,7.8107864 9.31044662,11.8182031 L9.31044662,32.074166 C9.31044662,32.667829 8.82546782,33.1485961 8.22833283,33.1485961 C7.63042435,33.1485961 7.14544554,32.667829 7.14544554,32.074166 L7.14544554,11.8182031 C7.15472743,6.63958854 11.3834023,2.44478022 16.5990516,2.44017222 Z M73.3103229,35.59375 L73.3103229,0.59375 L74.2965238,0.59375 L74.2965238,35.59375 L73.3103229,35.59375 Z M85.2160498,14.4791646 L85.2160498,6.60103502 L86.3530814,6.60103502 L86.3530814,14.4791646 L85.2160498,14.4791646 Z M87.968904,6.60111182 L89.0610732,6.60111182 L90.7789965,11.3665431 L90.7998807,11.3665431 L90.7998807,6.60111182 L91.9369124,6.60111182 L91.9369124,14.4792414 L90.8725889,14.4792414 L89.1299138,9.75374605 L89.1105766,9.75374605 L89.1105766,14.4792414 L87.9735449,14.4792414 L87.968904,6.60111182 Z M94.2674405,7.66125708 L92.9517325,7.66125708 L92.9517325,6.60065102 L96.7201802,6.60065102 L96.7201802,7.66509707 L95.4044722,7.66509707 L95.4044722,14.4787806 L94.2674405,14.4787806 L94.2674405,7.66125708 Z M97.7759953,6.60111182 L101.166206,6.60111182 L101.166206,7.66555787 L98.913027,7.66555787 L98.913027,9.97953764 L100.873826,9.97953764 L100.873826,11.0439837 L98.913027,11.0439837 L98.913027,13.3579635 L101.166206,13.3579635 L101.166206,14.4876894 L97.7759953,14.4876894 L97.7759953,6.60111182 Z M102.46103,6.60111182 L104.272546,6.60111182 C105.609138,6.60111182 106.278208,7.37218241 106.278208,8.91509158 C106.288263,9.31829085 106.212461,9.71918611 106.05931,10.0924334 C105.904611,10.4395688 105.634663,10.7244963 105.295874,10.898832 L106.514122,14.4953694 L105.295874,14.4953694 L104.272546,11.1161756 L103.594194,11.1161756 L103.594194,14.4830814 L102.457162,14.4830814 L102.46103,6.60111182 Z M103.598061,10.1208494 L104.243926,10.1208494 C104.407906,10.1269934 104.571113,10.0978094 104.723491,10.0363695 C104.835647,9.98568163 104.930786,9.90273778 104.994986,9.79828997 C105.063827,9.68078618 105.108689,9.55022642 105.124933,9.41505867 C105.169795,9.06561931 105.169795,8.71233995 105.124933,8.36290059 C105.110236,8.21928486 105.063053,8.08181311 104.986478,7.95970133 C104.909129,7.85602152 104.801613,7.77845366 104.677855,7.73774974 C104.516969,7.68091784 104.346027,7.65480589 104.175086,7.66094988 L103.586459,7.66094988 L103.598061,10.1208494 Z M107.768725,6.60080462 L109.474272,6.60080462 C109.749635,6.59696462 110.024224,6.63843655 110.286437,6.72214839 C110.533955,6.81046823 110.75672,6.95792396 110.932302,7.1537636 C111.126449,7.35805123 111.265677,7.60688278 111.338385,7.87875428 C111.421149,8.2481616 111.458276,8.62601691 111.447447,9.00387222 C111.451315,9.30185568 111.431204,9.59983913 111.387115,9.89475059 C111.34612,10.1412781 111.256395,10.3770537 111.122581,10.5882533 C110.972524,10.8416929 110.75672,11.0505885 110.4976,11.1934362 C110.178922,11.3508759 109.825437,11.4261398 109.469631,11.4107798 L108.889513,11.4107798 L108.889513,14.4873822 L107.752481,14.4873822 L107.768725,6.60080462 Z M108.905756,10.3424938 L109.453388,10.3424938 C109.638252,10.3517098 109.821569,10.3171498 109.989417,10.241886 C110.109308,10.1827501 110.207541,10.0882862 110.270194,9.97155045 C110.332073,9.84559868 110.367654,9.70812693 110.375389,9.56835119 L110.375389,8.50006514 C110.368428,8.35107342 110.33362,8.20515368 110.274062,8.06844993 C110.21837,7.94787415 110.126325,7.84803434 110.010301,7.78275445 C109.851736,7.7036506 109.67538,7.66755467 109.49825,7.67753865 L108.909624,7.67753865 L108.905756,10.3424938 Z M112.860615,6.60111182 L114.017758,6.60111182 L114.017758,13.3502835 L116.270937,13.3502835 L116.270937,14.4792414 L112.880726,14.4792414 L112.860615,6.60111182 Z M118.801026,6.60126541 L119.747778,6.60126541 L121.518299,14.483235 L120.380494,14.483235 L120.047893,12.7897981 L118.484668,12.7897981 L118.152067,14.483235 L117.014261,14.483235 L118.801026,6.60126541 Z M119.296833,8.86686127 L119.276722,8.86686127 L118.719809,11.7215121 L119.856841,11.7215121 L119.296833,8.86686127 Z M122.594225,6.60111182 L123.686394,6.60111182 L125.388074,11.3665431 L125.408185,11.3665431 L125.408185,6.60111182 L126.544443,6.60111182 L126.544443,14.4792414 L125.473158,14.4792414 L123.763743,9.75374605 L123.743632,9.75374605 L123.743632,14.4792414 L122.606601,14.4792414 L122.594225,6.60111182 Z M128.144796,6.60111182 L131.53578,6.60111182 L131.53578,7.66555787 L129.281827,7.66555787 L129.281827,9.97953764 L131.2434,9.97953764 L131.2434,11.0439837 L129.281827,11.0439837 L129.281827,13.3579635 L131.53578,13.3579635 L131.53578,14.4876894 L128.144796,14.4876894 L128.144796,6.60111182 Z M133.573929,7.66125708 L132.258221,7.66125708 L132.258221,6.60065102 L136.026668,6.60065102 L136.026668,7.66509707 L134.727204,7.66509707 L134.727204,14.4787806 L133.590172,14.4787806 L133.573929,7.66125708 Z M137.727575,6.60080462 L138.673554,6.60080462 L140.444848,14.4835422 L139.307043,14.4835422 L138.974442,12.7901053 L137.422819,12.7901053 L137.090218,14.4835422 L135.945452,14.4835422 L137.727575,6.60080462 Z M138.207139,8.87100846 L138.187028,8.87100846 L137.630115,11.7256592 L138.767147,11.7256592 L138.207139,8.87100846 Z M141.565637,6.60111182 L143.393396,6.60111182 C144.730762,6.60111182 145.398284,7.37218241 145.398284,8.91509158 C145.409113,9.31829085 145.333311,9.71918611 145.18016,10.0924334 C145.024688,10.4395688 144.756287,10.7244963 144.416724,10.898832 L145.634972,14.4953694 L144.416724,14.4953694 L143.356268,11.1284635 L142.67869,11.1284635 L142.67869,14.4953694 L141.541659,14.4953694 L141.565637,6.60111182 Z M142.702668,10.1208494 L143.348533,10.1208494 C143.512513,10.1269934 143.67572,10.0978094 143.828098,10.0363695 C143.940254,9.98568163 144.035393,9.90273778 144.099593,9.79828997 C144.168434,9.68078618 144.212523,9.55022642 144.230313,9.41505867 C144.274402,9.06561931 144.274402,8.71233995 144.230313,8.36290059 C144.214843,8.21928486 144.16766,8.08181311 144.091858,7.95970133 C144.019923,7.85218153 143.915502,7.76846968 143.794838,7.72162177 C143.633951,7.66478987 143.46301,7.63867792 143.291295,7.64482191 L142.702668,7.64482191 L142.702668,10.1208494 Z M147.721077,11.1491227 L146.16172,6.60103502 L147.379968,6.60103502 L148.293461,9.73370129 L148.314345,9.73370129 L149.227838,6.60103502 L150.445313,6.60103502 L148.886728,11.1491227 L148.886728,14.4791646 L147.721077,14.4791646 L147.721077,11.1491227 Z M85.1874306,20.9868007 L86.8728673,20.9868007 C87.4204989,20.9499368 87.9588486,21.1442404 88.3548759,21.5228637 C88.7168697,21.936815 88.9009605,22.475182 88.8669269,23.022765 L88.8669269,26.7076222 C88.9117894,27.2951412 88.7176432,27.8765161 88.3270303,28.3196513 C87.9000633,28.6944346 87.3392824,28.8833623 86.77154,28.8441943 L85.1874306,28.8441943 L85.1874306,20.9868007 Z M86.3244623,27.8043242 L86.8481156,27.8043242 C87.0987267,27.8296682 87.3477908,27.7421164 87.5264672,27.5662447 C87.6772979,27.3473651 87.7469121,27.0847096 87.7252543,26.820518 L87.7252543,23.026605 C87.7391772,22.7731654 87.6718835,22.5227979 87.5342021,22.3092943 C87.3586196,22.1195986 87.1018207,22.0251348 86.8442482,22.0550868 L86.3205948,22.0550868 L86.3244623,27.8043242 Z M91.6151402,20.9861095 L92.5611196,20.9861095 L94.3316403,28.8688471 L93.1946086,28.8688471 L92.8620075,27.1754102 L91.3103847,27.1754102 L90.9777836,28.8688471 L89.840752,28.8688471 L91.6151402,20.9861095 Z M92.0900636,23.2563134 L91.5339236,26.1109641 L92.6709553,26.1109641 L92.0900636,23.2563134 Z M95.5823751,22.0507092 L94.2674405,22.0507092 L94.2674405,20.9862631 L98.0351148,20.9862631 L98.0351148,22.0507092 L96.7201802,22.0507092 L96.7201802,28.8682327 L95.5823751,28.8682327 L95.5823751,22.0507092 Z M99.7406623,20.9861095 L100.686642,20.9861095 L102.457162,28.8688471 L101.320904,28.8688471 L100.98753,27.1754102 L99.4405478,27.1754102 L99.1071732,28.8688471 L97.970915,28.8688471 L99.7406623,20.9861095 Z M100.211718,23.2563134 L99.6555783,26.1109641 L100.79261,26.1109641 L100.211718,23.2563134 Z M103.577951,20.9870311 L105.238636,20.9870311 C105.55654,20.9778151 105.873672,21.034647 106.168372,21.1521508 C106.408927,21.2512226 106.623958,21.4032863 106.797993,21.595286 C106.960427,21.7796057 107.079544,21.9969493 107.147611,22.2319568 C107.217999,22.4746444 107.25358,22.7257799 107.252806,22.9784515 L107.252806,23.2641469 C107.256674,23.4453946 107.24043,23.6266423 107.204076,23.804818 C107.177004,23.9461297 107.125954,24.0828334 107.054019,24.2080172 C106.988272,24.317841 106.906282,24.4169128 106.810369,24.5021607 C106.706721,24.5920165 106.596112,24.6718884 106.476995,24.7394722 C106.732247,24.853904 106.940316,25.0520477 107.066395,25.3008792 C107.206397,25.6119187 107.27137,25.951374 107.256674,26.2923654 L107.256674,26.7355006 C107.300763,27.3184115 107.119766,27.8944105 106.749263,28.3482976 C106.312241,28.7545689 105.721294,28.9557845 105.124933,28.9004886 L103.574083,28.9004886 L103.577951,20.9870311 Z M104.714982,27.7315948 L105.206149,27.7315948 C105.391787,27.7392748 105.576651,27.7047148 105.746046,27.630987 C105.871351,27.5703151 105.974226,27.4727792 106.043066,27.3529715 C106.111133,27.2277877 106.152129,27.0910839 106.164504,26.9497722 C106.178427,26.7877245 106.184615,26.6110848 106.184615,26.4175492 C106.186936,26.2439815 106.176107,26.0696458 106.152129,25.8968461 C106.135885,25.7639824 106.088702,25.6380306 106.014447,25.5259028 C105.939418,25.424527 105.836544,25.3461911 105.717427,25.3008792 C105.55654,25.2432793 105.385599,25.2171674 105.214658,25.2240794 L104.711115,25.2240794 L104.714982,27.7315948 Z M104.714982,24.2118572 L105.22626,24.2118572 C105.512452,24.2494891 105.798643,24.1442733 105.990469,23.9292337 C106.132791,23.6857782 106.200085,23.4054587 106.184615,23.1236032 C106.20782,22.8371397 106.130471,22.5529802 105.965717,22.3172047 C105.756875,22.115221 105.467589,22.0169172 105.178303,22.0507092 L104.711115,22.0507092 L104.714982,24.2118572 Z M110.009528,20.9861095 L110.957054,20.9861095 L112.726801,28.8688471 L111.581261,28.8688471 L111.247887,27.1754102 L109.697811,27.1754102 L109.363663,28.8688471 L108.227405,28.8688471 L110.009528,20.9861095 Z M110.489092,23.2563134 L110.468981,23.2563134 L109.912068,26.1109641 L111.049873,26.1109641 L110.489092,23.2563134 Z M117.522445,23.2563134 L116.385413,23.2563134 L116.385413,23.0021058 C116.392375,22.7663303 116.328175,22.5343947 116.20287,22.333179 C116.062868,22.1365714 115.826953,22.0282836 115.585624,22.0513236 C115.451036,22.0451796 115.317996,22.0758995 115.199652,22.1396434 C115.103739,22.1941713 115.022522,22.2717392 114.964511,22.365435 C114.905725,22.4652748 114.865504,22.5743306 114.84694,22.6879944 C114.830697,22.8108742 114.824509,22.9352899 114.830697,23.0589377 C114.823735,23.1925695 114.823735,23.3277372 114.830697,23.462137 C114.838432,23.5596728 114.867824,23.6541366 114.915781,23.7401525 C114.964511,23.8223283 115.031031,23.8929842 115.1107,23.9459761 C115.219763,24.0174 115.337333,24.0765359 115.459545,24.1233838 L116.328949,24.4659111 C116.550167,24.545015 116.757462,24.6594468 116.942327,24.8045985 C117.093931,24.9290143 117.216916,25.08415 117.302774,25.2600217 C117.393272,25.4481814 117.452831,25.650165 117.478356,25.8567566 C117.509296,26.1125001 117.523992,26.3697797 117.522445,26.6270592 C117.523992,26.9373306 117.489958,27.2468341 117.421118,27.5501935 C117.363106,27.813617 117.25095,28.0616806 117.091611,28.2805602 C116.932271,28.4879198 116.722655,28.6530395 116.482873,28.7597913 C116.191267,28.8865111 115.874909,28.946415 115.557005,28.937199 C115.294791,28.938735 115.033351,28.8895831 114.789702,28.7920472 C114.330248,28.6138716 113.96284,28.2590562 113.770241,27.808241 C113.669687,27.5740015 113.617863,27.3213299 113.620957,27.0663544 L113.620957,26.6631551 L114.757215,26.6631551 L114.757215,27.0179705 C114.754895,27.2199541 114.819094,27.4165618 114.940532,27.5786095 C115.091363,27.7575531 115.322637,27.851249 115.557005,27.828209 C115.711703,27.835121 115.866401,27.805937 116.00795,27.7437292 C116.110824,27.6915052 116.195908,27.6100974 116.251599,27.5102576 C116.311932,27.3950578 116.347512,27.268338 116.356794,27.1393143 C116.370717,26.9910905 116.377678,26.8282748 116.377678,26.6508672 C116.379999,26.4811395 116.373038,26.3121798 116.356794,26.1432201 C116.349059,26.0303243 116.317346,25.9205005 116.263975,25.8206607 C116.214472,25.7392528 116.146405,25.6716689 116.064415,25.623285 C115.955352,25.5603091 115.840876,25.5042452 115.723305,25.4581653 L114.911913,25.1271579 C114.494228,24.9866142 114.143837,24.7001507 113.924939,24.3207594 C113.744715,23.9352241 113.658858,23.5120569 113.673554,23.0873537 C113.671234,22.8016582 113.712229,22.5182667 113.794992,22.2448592 C113.868474,21.9944917 113.991459,21.7617881 114.156213,21.5590365 C114.322513,21.3624288 114.530582,21.2057571 114.765723,21.0990053 C115.041086,20.9753575 115.340427,20.9146856 115.642089,20.9215976 C115.908943,20.9177576 116.173477,20.9699815 116.4179,21.0751973 C116.642212,21.1704292 116.846414,21.3071329 117.018902,21.4783966 C117.182883,21.6419803 117.312829,21.834748 117.404874,22.0467156 C117.493052,22.2517712 117.538688,22.4729548 117.538688,22.6964424 L117.522445,23.2563134 Z M118.927105,20.9864935 L122.318089,20.9864935 L122.318089,22.0509396 L120.064136,22.0509396 L120.064136,24.3649193 L122.024936,24.3649193 L122.024936,25.4293654 L120.064136,25.4293654 L120.064136,27.7441132 L122.318089,27.7441132 L122.318089,28.8730711 L118.927105,28.8730711 L118.927105,20.9864935 Z"/>
    </symbol>
    
    <symbol id="bigchaindb" xmlns="http://www.w3.org/2000/svg" width="1000" height="197" viewBox="0 0 1000 197">
        <g>
            <path id="db" fill="currentColor" class="green" d="M903.593256,194.893048 C850.350653,194.893048 807.188452,151.743267 807.186513,98.514046 C807.184573,45.2848251 850.343629,2.13190023 903.586232,2.12802165 C956.828834,2.12414306 999.994181,45.2707795 1000,98.5 C999.941936,151.708235 956.814861,194.829183 903.593256,194.893048 L903.593256,194.893048 Z M903.593256,11.9253476 C855.768748,11.9311656 817.003497,50.6945337 817.007376,98.5070223 C817.011256,146.319511 855.782797,185.076591 903.607306,185.074652 C951.431814,185.072713 990.20021,146.312489 990.200211,98.5 C990.142138,50.7060968 951.399181,11.9775906 903.593256,11.9253476 L903.593256,11.9253476 Z"/>
            <path id="bigchain" class="blue" d="M860.706006 55.5497861L879.030558 55.5497861C886.055497 55.5497861 891.4366 57.5127629 895.173867 61.4387166 898.911135 65.3646702 900.772743 70.8427451 900.758693 77.8729412L900.758693 118.273743C900.758693 126.364439 898.795223 132.334135 894.868282 136.182834 890.941342 140.031533 885.300316 141.952371 877.945205 141.945348L860.706006 141.945348 860.706006 55.5497861zM873.08746 130.283369L878.81981 130.283369C882.297155 130.283369 884.755883 129.412496 886.195996 127.670749 887.636108 125.929002 888.363189 123.200499 888.377239 119.485241L888.377239 77.8729412C888.377239 74.4737255 887.674745 71.8435472 886.269758 69.9824064 884.86477 68.1212656 882.381454 67.1906952 878.81981 67.1906952L873.119073 67.1906952 873.08746 130.283369zM912.402529 55.5497861L930.453109 55.5497861C933.921242 55.4574818 937.371421 56.0777843 940.590095 57.3722995 943.208483 58.4628429 945.551623 60.1216998 947.449947 62.2288235 949.224142 64.2427993 950.530415 66.6244404 951.275026 69.2028342 952.045977 71.8627011 952.432746 74.6190689 952.423604 77.3883422L952.423604 80.5487701C952.456749 82.5433002 952.273023 84.5355266 951.875659 86.4903743 951.558322 87.9727526 951.006992 89.3951829 950.24236 90.7042781 949.523988 91.9058031 948.624791 92.989542 947.576396 93.9173797 946.451297 94.9029102 945.233875 95.7778223 943.940991 96.53 946.719434 97.7823548 948.987062 99.9453512 950.368809 102.66123 951.773797 105.372175 952.476291 108.99262 952.476291 113.522567L952.476291 118.379091C952.476291 125.985187 950.635757 131.807398 946.954689 135.845722 943.273621 139.884046 937.386723 141.90672 929.293994 141.913743L912.434141 141.913743 912.402529 55.5497861zM924.783983 90.9781818L930.368809 90.9781818C934.492448 90.9781818 937.263786 89.9457754 938.682824 87.8809626 940.101862 85.8161497 940.804355 82.8032086 940.790306 78.842139 940.790306 74.9583244 940.003512 72.0472193 938.429926 70.1088235 936.85634 68.1704278 934.004215 67.2012299 929.873551 67.2012299L924.773446 67.2012299 924.783983 90.9781818zM924.783983 129.556471L930.126449 129.556471C932.145043 129.666349 934.16156 129.305703 936.01686 128.502995 937.367116 127.83512 938.48647 126.778423 939.230769 125.468984 939.998189 124.042816 940.454309 122.470135 940.56902 120.854759 940.730594 119.077897 940.81138 117.135989 940.81138 115.029037 940.82839 113.122798 940.705121 111.21789 940.442571 109.329733 940.254005 107.859696 939.719547 106.45529 938.883035 105.231711 938.088761 104.117827 936.991665 103.254995 935.721812 102.745508 933.973097 102.116983 932.120595 101.827379 930.263435 101.892193L924.805058 101.892193 924.783983 129.556471zM73.8988409 183.63139C65.3319283 191.469251 54.7945205 194.713957 37.3867229 194.713957L3.2455216 194.713957C1.53482961 194.762293.0962948464 193.440855-.99200722e-16 191.73262L-.99200722e-16 5.26737968C.0962948464 3.55914535 1.53482961 2.23770698 3.2455216 2.28604278L37.6817703 2.28604278C54.7945205 2.28604278 65.0684932 5.26737968 73.308746 13.3686096 82.1390938 22.0176471 84.7945205 32.0151337 84.7945205 52.0206417 84.7945205 65.536738 83.024236 77.4304813 72.4341412 87.1540642 68.7050763 90.7216401 64.1566936 93.3190291 59.1886196 94.7180214 64.615187 95.8267962 69.6167304 98.4492985 73.6143309 102.281979 85.089568 113.090642 86.5542677 127.470588 86.5542677 141.165775 86.5542677 164.984866 82.7291886 175.256257 73.8988409 183.63139zM37.9346681 16.6133155L20.6217071 16.6133155C18.9110151 16.5649797 17.4724803 17.8864181 17.3761855 19.5946524L17.3761855 84.973369C17.4724803 86.6816033 18.9110151 88.0030417 20.6217071 87.9547059L37.9346681 87.9547059C56.8177028 87.9547059 67.4394099 77.9572193 67.4394099 52.2840107 67.4394099 24.1772727 56.8177028 16.6133155 37.9346681 16.6133155zM37.9346681 102.01861L20.6217071 102.01861C18.9110151 101.970274 17.4724803 103.291712 17.3761855 104.999947L17.3761855 177.405348C17.4724803 179.113582 18.9110151 180.43502 20.6217071 180.386684L37.9346681 180.386684C57.9557429 180.386684 69.14647 171.958877 69.14647 141.19738 69.1886196 113.090642 57.9557429 102.008075 37.9346681 102.008075L37.9346681 102.01861zM115.289779 191.73262L115.289779 5.26737968C115.386074 3.55914535 116.824608 2.23770698 118.5353 2.28604278L129.409905 2.28604278C131.120597 2.23770698 132.559132 3.55914535 132.655427 5.26737968L132.655427 191.73262C132.559132 193.440855 131.120597 194.762293 129.409905 194.713957L118.5353 194.713957C116.824608 194.762293 115.386074 193.440855 115.289779 191.73262zM207.586934 196.873583C194.046365 196.873583 183.445732 192.554332 176.375132 185.527647 163.12961 172.559358 161.622761 157.420909 161.622761 98.5 161.622761 39.5790909 163.097998 24.4511765 176.375132 11.4723529 183.466807 4.44566845 194.067439.126417112 207.586934.126417112 221.106428.126417112 230.842993 4.18229947 237.913593 10.6611765 246.122234 18.4463636 250.558483 29.9608556 251.09589 43.2662567 251.055593 45.0077166 249.61345 46.3882456 247.871444 46.3529412L236.996839 46.3529412C235.316616 46.4035381 233.890637 45.1306626 233.751317 43.4558824 233.119073 28.9495187 227.48156 14.4536898 207.608008 14.4536898 199.072708 14.4536898 193.182297 17.161123 189.062171 21.4803743 180.52687 30.9616578 179.051633 42.0231551 179.051633 98.5105348 179.051633 154.997914 180.52687 166.080481 189.062171 175.540695 193.182297 179.859947 199.072708 182.56738 207.608008 182.56738 222.623815 182.56738 233.814542 171.758717 233.814542 153.649465L233.814542 109.319198C233.718247 107.610964 232.279712 106.289525 230.56902 106.337861L207.586934 106.337861 207.586934 92.8217647 247.913593 92.8217647C249.624285 92.7734289 251.06282 94.0948673 251.159115 95.8031016L251.159115 153.628396C251.18019 182.251337 230.864067 196.873583 207.586934 196.873583zM350.56902 187.687273C343.498419 193.365508 334.077977 196.873583 321.717597 196.873583 308.177028 196.873583 297.576396 192.554332 290.505796 185.527647 277.260274 172.559358 275.753425 157.420909 275.753425 98.5 275.753425 39.5790909 277.228662 24.4511765 290.505796 11.4723529 297.576396 4.44566845 308.177028.126417112 321.717597.126417112 334.963119.126417112 344.678609 3.90839572 351.74921 10.3978075 360.179136 18.1724599 364.394099 29.8976471 365.16333 43.2135829 365.163633 44.066589 364.81903 44.883497 364.207826 45.4786755 363.596623 46.073854 362.770725 46.3967576 361.917808 46.3740107L351.106428 46.3740107C349.429947 46.4249684 348.005494 45.1580781 347.860906 43.4874866 347.471022 34.7963102 345.247629 26.5686631 339.683878 20.9747059 335.563751 16.9188235 329.968388 14.4852941 321.770285 14.4852941 313.234984 14.4852941 307.344573 17.1927273 303.224447 21.5119786 294.689146 30.993262 293.213909 42.0547594 293.213909 98.542139 293.213909 155.029519 294.689146 166.112086 303.224447 175.572299 307.344573 179.891551 313.234984 182.598984 321.770285 182.598984 330.010537 182.598984 335.605901 180.165455 339.683878 176.109572 345.247629 170.515615 347.48156 162.287968 347.860906 153.596791 347.973522 151.90109 349.407274 150.598007 351.106428 150.647059L361.928346 150.647059C362.781263 150.624312 363.60716 150.947215 364.218364 151.542394 364.829567 152.137573 365.174171 152.954481 365.173867 153.807487 364.373024 167.850321 359.894626 179.881016 350.56902 187.687273zM459.67334 191.73262L459.67334 104.178235 407.860906 104.178235 407.860906 191.73262C407.764611 193.440855 406.326077 194.762293 404.615385 194.713957L393.74078 194.713957C392.030088 194.762293 390.591553 193.440855 390.495258 191.73262L390.495258 5.26737968C390.591553 3.55914535 392.030088 2.23770698 393.74078 2.28604278L404.636459 2.28604278C406.339065 2.249278 407.7648 3.56751828 407.860906 5.26737968L407.860906 89.5454545 459.67334 89.5454545 459.67334 5.26737968C459.769635 3.55914535 461.20817 2.23770698 462.918862 2.28604278L473.793467 2.28604278C475.508197 2.2318805 476.953165 3.55493309 477.049526 5.26737968L477.049526 191.73262C476.953231 193.440855 475.514696 194.762293 473.804004 194.713957L462.918862 194.713957C461.20817 194.762293 459.769635 193.440855 459.67334 191.73262L459.67334 191.73262zM581.211802 192.322567L570.769231 144.410481C570.412596 142.965587 569.095987 141.965215 567.608008 142.008556L524.056902 142.008556C522.565812 141.966335 521.248115 142.971924 520.89568 144.421016L510.727081 192.301497C510.374646 193.750589 509.056949 194.756179 507.565859 194.713957L495.40569 194.713957C494.465904 194.763732 493.555597 194.377818 492.938065 193.667834 492.320533 192.95785 492.064665 192.003001 492.244468 191.079465L537.555321 4.6142246C537.940839 3.19869767 539.25002 2.23450958 540.716544 2.28604278L551.738672 2.28604278C553.208226 2.2357176 554.518448 3.20503855 554.899895 4.62475936L599.399368 191.09C599.575468 192.011945 599.317898 192.963648 598.700833 193.671038 598.083768 194.378428 597.175704 194.762982 596.238145 194.713957L584.394099 194.713957C582.901443 194.768546 581.57426 193.771212 581.211802 192.322567zM545.837724 30.9300535L525.700738 124.120535C525.550586 125.03209 525.819622 125.962734 526.43303 126.653666 527.046437 127.344598 527.938798 127.722133 528.86196 127.681283L563.045311 127.681283C563.970642 127.722764 564.865142 127.343855 565.478991 126.65038 566.09284 125.956906 566.360248 125.023188 566.206533 124.11L545.837724 30.9300535zM614.87882 191.73262L614.87882 5.26737968C614.975115 3.55914535 616.413649 2.23770698 618.124341 2.28604278L628.998946 2.28604278C630.709638 2.23770698 632.148173 3.55914535 632.244468 5.26737968L632.244468 191.73262C632.148173 193.440855 630.709638 194.762293 628.998946 194.713957L618.134879 194.713957C616.420149 194.768119 614.975181 193.445067 614.87882 191.73262zM740.885142 192.786096L683.066386 44.7200535 683.066386 191.73262C682.970091 193.440855 681.531556 194.762293 679.820864 194.713957L668.946259 194.713957C667.235567 194.762293 665.797032 193.440855 665.700738 191.73262L665.700738 5.26737968C665.797032 3.55914535 667.235567 2.23770698 668.946259 2.28604278L680.779768 2.28604278C682.110232 2.23246985 683.338446 2.99677826 683.877766 4.21390374L741.696523 152.237807 741.359326 5.26737968C741.450129 3.55497127 742.890279 2.22737504 744.604847 2.27550802L755.532139 2.27550802C757.214257 2.27311466 758.60365 3.58807638 758.693361 5.26737968L758.693361 191.73262C758.597067 193.440855 757.158532 194.762293 755.44784 194.713957L743.940991 194.713957C742.625651 194.750066 741.418671 193.988612 740.885142 192.786096z"/>
        </g>
    </symbol>

    <symbol id="twitter" xmlns="http://www.w3.org/2000/svg" width="20" height="20" viewBox="0 0 20 20">
        <path d="M17.316,4.246 C17.324,4.408 17.327,4.572 17.327,4.734 C17.327,9.724 13.53,15.476 6.587,15.476 C4.454,15.476 2.471,14.851 0.8,13.779 C1.096,13.814 1.396,13.832 1.7,13.832 C3.47,13.832 5.097,13.228 6.388,12.217 C4.737,12.186 3.342,11.096 2.862,9.596 C3.092,9.639 3.329,9.662 3.572,9.662 C3.917,9.662 4.251,9.617 4.567,9.531 C2.84,9.183 1.539,7.658 1.539,5.828 C1.539,5.812 1.539,5.797 1.539,5.781 C2.048,6.064 2.631,6.234 3.249,6.254 C2.236,5.576 1.569,4.422 1.569,3.111 C1.569,2.42 1.755,1.771 2.081,1.213 C3.942,3.498 6.725,5 9.862,5.158 C9.798,4.881 9.765,4.594 9.765,4.297 C9.765,2.213 11.454,0.524 13.539,0.524 C14.625,0.524 15.606,0.981 16.295,1.715 C17.154,1.545 17.962,1.231 18.692,0.799 C18.41,1.68 17.811,2.42 17.032,2.887 C17.796,2.795 18.522,2.594 19.2,2.293 C18.694,3.051 18.054,3.715 17.316,4.246 Z" />
    </symbol>
    
    <symbol id="email" xmlns="http://www.w3.org/2000/svg" width="20" height="20" viewBox="0 0 20 20">
        <path d="M.2575 7.94833333C.1 8.01333333-.00166666667 8.1675 0 8.33916667.00166666667 8.50833333.106666667 8.66.265833333 8.72166667L7.18416667 11.4125 19.2916667.0866666667.2575 7.94833333zM7.50833333 12.25L7.5 12.2416667 7.5 17.9166667C7.5 18.145 7.68416667 18.3333333 7.91666667 18.3333333 8.06166667 18.3333333 8.20083333 18.2566667 8.27666667 18.1266667L11.0158333 13.43 16.0491667 16.1975C16.1675 16.2641667 16.3083333 16.265 16.4225 16.2125 16.5425 16.1583333 16.6291667 16.0508333 16.6566667 15.9208333L19.9716667.591666667 7.50833333 12.25z"/>
    </symbol>

</svg>