<svg height="55" viewBox="0 0 55 55" width="55" xmlns="http://www.w3.org/2000/svg"><g fill="none" fill-rule="evenodd"><rect fill="#141414" fill-rule="nonzero" height="55" rx="2" width="55"/><path d="m11.746012 17.9388069c.2322915-.0153927.4868806-.1110285.6226731-.1998879.1847551-.1187079-.2540635-.3800516-.4157494-.4274933-.1076669-.0170463-.2361173.0086618-.3523512.0574134.0951752.1209831.1550989.1980756.1550989.1980756s.155483.1080595.2443166 0c-.0775639.1179127-.1721142.2359153-.253988.3718922zm-.1650772-.0044753c-.0702883-.0401311-.1667865-.0973946-.2840235-.1682643.0578374.10085.1614888.1514015.2840235.1682643zm-.9222855-.5603996c-1.38196468-.8576632-3.63439616-2.2928579-3.63439616-2.2928579-.04446523 0-.02228105-.0810741.02218418-.0810741.7108625.1080595 2.68787011.432356 3.33198628.9186828.1137478.0830315.4721432.5132222.7948053.9132588.5239118-.4353275 1.0548253-.5573888 1.5650671-.6368462.4157494-.0712662 1.085663.1425323 1.3859656.4513177.1155475.094987.207925.1661496.2309942.1424287.8777379-.6412917 1.8017149-.7601032 2.5870753-.783824.2541642-.0237209-.3695103.0237208-1.1318014.4274933-.6930835.4513177-1.9404323 1.0213433-3.1183721 4.0616523-.2541642.6412918-.5082276 1.6151934-.6929828 2.1139528-.9702161.6651162-2.07904901 1.5913689-2.49479837 1.3538496-1.24734884-.7599996.1155475-4.9640807.90090787-6.2229433.0839366-.1333908.1684327-.254686.253365-.3650905zm17.3724438 20.7055199c-.2111859-.1649838-.4739846-.37535-.5659721-.470488-.1860078-.1682522-.3488915-.2885673-.465121-.4569245 3.3954036.7455968 5.4885495-1.9723488 6.2559078-4.0167607.7675612-2.0685379.7907869-2.2849372 1.0697986-2.0685379.1628836.1443361.813911.8418907 1.3022577.9621009.5116736.1443361.9534676.1683571 1.279032-.1923783.0930039-.096294.0930039.3848614.0930039.5531137-.0464512.9140587-.3022374 2.3572101-.5813505 3.1028068-.441794 1.1785002-1.8837096 5.1230929-5.2557862 4.4255383-.2861661-.0601822-.5763775-.1653501-.8565-.2941221-.1211306.4589661-.222836.9447981-.1499496 1.0670358.7107893 1.1436322 3.9943561 2.8029012 4.827511 3.1391945.0244731 0 .0244731.0672783-.0244731.0672783l-.5391569.0897695c-.4655237.0223935-1.2987855.0447869-1.6908899-.2018347-1.0291537-.6502911-2.842623-2.1750036-3.4061461-2.8926707-.3495005-.4397374-1.1272747-2.3936995-1.2921656-2.8131209zm-3.0310931-20.2949487s1.2-.9310501 3-1.7845032c-.9461926 1.5258844-1.2461926 2.2241438-1.6153304 3zm-12-1.972021c-.0756606.0208252-.1514314.0625665-.201982.104126-.0252202.0208252-.0756606.0625666-.1262112.0833918l-1.6667367-3.9410575c-.0252202-.0416504.0505506-.0833917.0757708-.0416504.4545145.6255748 1.4646446 2.0435989 1.7171771 2.6482575.100991.2294411.1767618.8550159.201982 1.1469326zm30.5591392-7.44059999c.3882745.49619351.5025256 1.11058722.4110849 1.84297499-.1826823 2.9064677-2.8092625 7.4434179-4.5908626 8.6012028-3.8143135 2.4574718-9.3187865 2.1739768-9.3187865 2.1739768s-1.1877334-.7088921-1.941472-1.1578879c-.3197437-.1653979-1.119103-.6615914-1.119103-.6615914s1.7816001-4.8203422 6.2354011-8.412103c1.4389464-1.27608812 3.0833854-2.38667534 5.2075396-3.21366452 2.0328131-.80339036 3.3118876-.63799253 4.2254981-.02359882.3425541.18909971.5937671.47259469.8907004.85069105zm3.4379041 7.06501819c.1403287 2.4319474-4.7505597 3.8861737-6.9970433 4.5630996 2.4571298-1.5043041 3.6037427-4.1368911 4.3526386-5.8417254.2340172-.5516219 2.5975605.4512475 2.6444047 1.2786258zm-20.0407586 8.1610746c2.9362809-1.4967109 4.712218.2338802 5.0437153.6783852-.0946987-.0468169-.6629945-.0935317-.9944918-.0701743-.8998963 0-2.0838888.2338802-3.4809277 1.2629327-2.2259887 1.6371614-3.4099812 4.279916-3.8124251 7.5308814-.2605506-.5847515-.2841995-.7016406-.473597-1.3565664-.1420998-.4677604-.2131496-1.0290525-.2367985-1.5904466-.047401-2.0112881.852392-4.9113823 3.9545248-6.455012zm6.730413 2.2299119c1.1108991.9871479 4.4435967 4.9356394 2.9223768 5.2570131-.5555549.1147334-1.0143222-.0919069-1.5938897-.6428475-.4347546-.4361072-1.1108992-1.4462818-1.4490768-1.2625682-.1931541.0918067-.8934165 1.9283424-1.3281712 2.8925636-.845286 1.8364355-2.9462841 4.5223588-6.0131578 3.8107313-1.0626634-.2523935-1.4249589-.9182678-2.2217984-2.0430758-.0242233-.0229267.096577-1.3315484.4587672-2.3645496.9417578-2.7317766 2.1733519-4.7289991 4.5883044-5.8768339 1.4248535-.665674 2.75313-.6427474 3.4533925-.5509406.4587672.2524936.6279087.2754202 1.183253.7805076zm-3.6958754 21.0469697c.0234144.0237007 0 .0712055-.0472397.0712055l-.6593022.0474014c-.5887507.0475049-1.1538816-.1661118-1.577704-.569541-1.0596075-1.0441758-3.0847538-3.0614252-3.6028503-4.105601-.5651309-1.1153814-.7299564-3.7258725-1.2480529-4.8649546-.7534736-1.6376244-4.1208441-5.9092338-4.1208441-5.9092338s-1.0596075.2610181-1.4599128 1.0678765c-.3531683.7356528-.6593022 2.6816967-.3296511 3.4410503.1648256.3797285.3531683.8543632.4944767 1.1628862.4003052.8779604 1.318707 2.7290981 1.6483581 3.3935454.0706542.1187104.0941714.189916.0941714.189916l-.1176885-.1661119c-.1413084-.1660083-.6829221-.4033257-.6829221-.4033257-.0706542.1187105-.235377.4034292-.2118599.7119522 0 0-1.4600154-3.53606-1.8368036-4.7463476-.3532709-1.2102876-1.2950872-3.915685-1.1067445-5.1734775.0941714-.569541 1.0596075-1.2577925 1.0360904-1.82723-.0706542-1.2340918-1.6483582-2.4443793-2.4254516-3.2750419-.1176886-.118607-.2118599-.2373174-.2825141-.3559243-.2353771-.4034292-1.1066418-1.6849224-.0235172-4.6751421 1.6483582-4.5328344 5.2982428-4.8887587 5.8869935-4.8887587.4003053.0237007.7534736 0 1.0831247.0949063.3296511.0949062.635785.2136166.9654361.4034291 1.3187071.7119522 3.0612366 2.5630898 4.1679811 3.4173496.8712648.6644473 3.4145076 1.3526987 3.9796385 2.1595571-.9184018-.2848222-3.4145076-.6170459-6.0753363 2.9902197-2.0016291 2.7055009-1.1068472 6.3363637-1.036193 6.5973818.4474423 1.4950063 2.0722834 4.2716093 2.613897 5.7430185.2825141.7832612.588648 2.0647543.6593022 2.4206786.1413084.7831577-.3060312 2.4444829 0 3.1800322.4945794 1.2340918 3.6264702 3.464958 4.2151182 3.8682837zm-16.448613-20.960034c.1393163.1618951.2985969.3699882.4577907.5781823-.0198775 1.0871681-.2387907 1.4340573-.2387907 1.4340573-.1990357.4162872-1.3136528 1.6190515-1.6321272 1.9659406-.1990357.254493-.1591938.046299.0597194-.5318832.258755-.6708811.9950915-1.7810474.636862-2.8681147-.3382651-1.0638675-.3582294-2.5442238-.0994744-3.2843011 0-.0461981.0796837-.4856851.1194388.069398-.0597194 1.2258634.2985101 1.9428416.4179488 2.1972337.0398419.092598.1791582.3006911.2786326.4394871z" fill="#fff"/></g></svg>