<svg height="55" viewBox="0 0 55 55" width="55" xmlns="http://www.w3.org/2000/svg"><g fill="none" fill-rule="evenodd"><rect fill="#141414" fill-rule="nonzero" height="55" rx="2" width="55"/><path d="m23 17.2903252c-4.2089621 2.1524256-7.0750661 6.3699335-7.0750661 11.2098681 0 6.9035969 5.8322424 12.5415509 13.0750661 12.7248508v-.0362229h10.0126321v-2.5534776l-8.1529379-5.776502c-.3672878.0921907-.7515424.1411584-1.1470192.1411584-2.5984754 0-4.712675-2.1140004-4.712675-4.7124758s2.1141996-4.7126749 4.712675-4.7126749c.5135962 0 1.0082656.0825947 1.4714256.2351985l6.2427443-5.4970846c-2.3133343-1.6498724-5.1158269-2.5424141-8.0629265-2.5424141-1.526849 0-2.9950374.2424174-4.3639184.6887561v4.5117594c-.00021.5682522-.4478756 1.0288274-1.0000951 1.0289354-.5521887-.0001081-.9997999-.4607149-.9999049-1.0289354zm0-3.070116v-4.1911759c0-.5683194.4477153-1.0290333 1-1.0290333s1 .4607139 1 1.0290333v3.5305358c.967278-.2537907 1.9702618-.4253588 3-.506225v-3.0413878c0-.55888802.4477153-1.0119563 1-1.0119563s1 .45306828 1 1.0119563v2.999454c4.1322685.1485531 7.9946245 1.7432724 10.9349037 4.5285408l1.0650963 1.008878-3.3247655 2.9681895c1.5103953 1.9146867 2.3247655 4.2153162 2.3247655 6.6413186 0 2.4353743-.8307629 4.7617446-2.3653581 6.6895399l3.3653581 2.3840344-.0002084 6.7680885h-12.9997916v-.0037805c-8.8558564-.1840487-16-7.0648079-16-15.4960262 0-6.4099574 4.1289584-11.9236094 10-14.2799841zm13.1676901 18.8800684c1.123579-1.4274168 1.7313426-3.1448343 1.7313426-4.9419404 0-1.7592337-.5754334-3.4296898-1.6446357-4.8323789l-2.6385829 2.3234798c.5107206.7532667.8093366 1.6614729.8093366 2.6380861 0 1.0838587-.3678012 2.0834267-.9851476 2.880448zm-9.1676901-14.1002776h3.5z" fill="#fff"/></g></svg>