<svg xmlns="http://www.w3.org/2000/svg" width="55" height="55" viewBox="0 0 55 55">
  <g fill="none">
    <rect width="55" height="55" fill="#141414" rx="2"/>
    <path fill="#FFF" d="M22.9029707,42.7232256 C23.429663,42.7088174 23.8332127,42.416417 23.8517531,41.9216507 C23.8996163,40.6356756 23.8658228,39.3469623 23.8658228,38.10369 C22.9259161,38.1471752 22.028613,38.2649177 21.1414347,38.2141959 C19.1846985,38.1024513 17.6810845,37.2745376 16.9012697,35.3745542 C16.4393374,34.2489592 15.7432832,33.2862219 14.659261,32.6437885 C14.4568287,32.5236989 14.2798401,32.3468896 14.1249422,32.167342 C13.9225099,31.9331609 13.9603797,31.6925906 14.2802346,31.6283082 C14.6029166,31.5632434 14.9554473,31.5178023 15.2736586,31.576804 C16.5234267,31.8094204 17.3876596,32.5866775 18.0491971,33.6204776 C19.3572821,35.6657159 21.3707572,36.2917853 23.6360401,35.3473026 C23.7623384,35.2946249 23.9228904,35.1669727 23.9466905,35.0504689 C24.1293333,34.1451033 24.4705557,33.3196018 25.1581944,32.59587 C24.3936984,32.4554396 23.6855469,32.3521052 22.9910706,32.1924422 C20.9912706,31.7335984 19.1947576,30.9080969 17.8810185,29.2685683 C16.8091594,27.9311542 16.319022,26.3655569 16.09371,24.6992982 C15.7408506,22.0894696 16.056695,19.6464755 17.8641218,17.5608814 C17.9554431,17.4555259 18.00495,17.2396647 17.9643189,17.1084267 C17.5116568,15.6417306 17.5808217,14.1873563 18.0294733,12.7370241 C18.2649102,11.9753487 18.3304591,11.9374051 19.1142844,12.0435428 C19.1622133,12.049932 19.2088273,12.0618627 19.2563618,12.0698817 C20.8275627,12.3276635 22.1799606,13.0821022 23.5121744,13.8920873 C23.6912668,14.0010284 23.9640475,14.0688314 24.1608257,14.0213693 C27.342741,13.255717 30.5186077,13.2589116 33.7001286,14.0241727 C33.8848094,14.0684402 34.1314889,14.0053965 34.308083,13.9136669 C35.0323423,13.5382078 35.7256353,13.101726 36.4591648,12.7457602 C37.3125495,12.3320316 38.2114306,12.0207897 39.1791479,12.0379361 C39.3485099,12.0411306 39.6105082,12.2015108 39.6671814,12.3499602 C40.2494291,13.8797002 40.3721771,15.4385823 39.9082067,17.0305837 C39.8586998,17.2005475 39.9323355,17.4427477 40.0245116,17.6102993 C40.4824333,18.4434286 41.1217487,19.2122755 41.4114919,20.0959963 C42.2947254,22.7896008 41.9728323,25.4569315 40.7705329,27.988526 C39.668825,30.3090835 37.6256326,31.484944 35.2070298,32.0914548 C34.3901999,32.2961677 33.5533175,32.4206253 32.6721221,32.5922191 C33.8268871,33.7884204 34.0079519,35.2482711 33.9874391,36.7772287 C33.9661374,38.3544307 33.9717916,39.9320891 33.9709369,41.5096823 C33.9705424,42.2737699 34.3068996,42.6959088 34.8939467,42.7206177 C34.8936838,42.7222259 30.8966918,42.7230952 22.9029707,42.7232256 Z"/>
  </g>
</svg>
