<svg xmlns="http://www.w3.org/2000/svg" width="55" height="55" viewBox="0 0 55 55">
  <g fill="none">
    <rect width="55" height="55" fill="#141414" rx="2"/>
    <path fill="#FFF" d="M42.7166472,23.4694118 C44.3454289,25.8952361 45.2316778,28.9283114 44.9474394,32.6036101 C44.5625998,37.5728937 40.4012221,43 35.3935166,43 L19.6039147,43 C14.5994029,43 10.4364284,37.5728937 10.0515888,32.6036101 C9.77054408,28.9314907 10.6551961,25.9000051 12.2807842,23.4741808 C12.0955502,23.1483001 8.19286136,16.1378904 13.2612469,12.0015897 C16.4469524,12.0015897 21.3109419,17.2236296 21.3364914,17.2506538 C25.3222161,16.1045075 29.7853975,16.1124558 33.7615412,17.2760884 L33.7248138,17.2522435 C33.7248138,17.2522435 38.6095622,12 41.8032519,12 C46.9929977,16.2380391 42.7677462,23.5043844 42.7677462,23.5043844 L42.7166472,23.4694118 Z M33.8876919,39.8206759 C36.9759899,39.8206759 39.4766489,37.3296754 39.4766489,34.2568586 C39.4766489,24.7681657 32.8880671,28.6437619 27.5003125,28.6437619 C22.1109611,28.6437619 15.5239761,24.8667248 15.5239761,34.2568586 C15.5239761,37.3296754 18.026232,39.8206759 21.1129331,39.8206759 L33.8876919,39.8206759 Z M33.5,36 C32.6715729,36 32,34.8807119 32,33.5 C32,32.1192881 32.6715729,31 33.5,31 C34.3284271,31 35,32.1192881 35,33.5 C35,34.8807119 34.3284271,36 33.5,36 Z M21.5,36 C20.6715729,36 20,34.8807119 20,33.5 C20,32.1192881 20.6715729,31 21.5,31 C22.3284271,31 23,32.1192881 23,33.5 C23,34.8807119 22.3284271,36 21.5,36 Z"/>
  </g>
</svg>
