<svg height="55" viewBox="0 0 55 55" width="55" xmlns="http://www.w3.org/2000/svg"><g fill="none"><rect fill="#141414" height="55" rx="2" width="55"/><path d="m40.9776018 24.9894877c1.4426352 2.1128147 2.2275985 4.7545254 1.9758445 7.955592-.3408579 4.3280858-4.0266496 9.0549203-8.4620458 9.0549203h-13.985076c-4.4325676 0-8.1197736-4.7268345-8.4606316-9.0549203-.2489253-3.1982975.5346237-5.8386236 1.9744302-7.9514383-.1640644-.2838316-3.6207316-6.3896724.8684099-9.9922569 2.8216249 0 7.1297298 4.5482283 7.1523594 4.5717656 3.5302133-.9982565 7.4833168-.9913338 11.0050441.0221527l-.03253-.0207682s4.3264914-4.5745346 7.155188-4.5745346c4.596632 3.6911953.8542664 10.0199477.8542664 10.0199477zm-7.8199318 14.2414235c2.7353496 0 4.9502191-2.169581 4.9502191-4.8459053 0-8.2643454-5.8356011-4.8888262-10.6076123-4.8888262-4.7734255 0-10.6076123-3.2896775-10.6076123 4.8888262 0 2.6763243 2.2162838 4.8459053 4.9502191 4.8459053zm-.65767-3.2309112c-.8284271 0-1.5-.8954305-1.5-2s.6715729-2 1.5-2 1.5.8954305 1.5 2-.6715729 2-1.5 2zm-10 0c-.8284271 0-1.5-.8954305-1.5-2s.6715729-2 1.5-2 1.5.8954305 1.5 2-.6715729 2-1.5 2z" fill="#fff"/></g></svg>