<svg xmlns="http://www.w3.org/2000/svg" width="55" height="55" viewBox="0 0 55 55">
  <path fill="#141414" d="M53.5680592,0 L1.43242898,0 C0.641224342,0 0,0.635851023 0,1.42042554 L0,53.5795745 C0,54.3642458 0.641224342,55 1.43242898,55 L18.7639408,55 L18.7639408,54.9875096 C19.5461623,54.9786016 20.1454976,54.5443407 20.173033,53.8095343 C20.2441174,51.8996574 20.1939287,49.9857139 20.1939287,48.1392575 C18.7980184,48.2038399 17.465381,48.3787062 16.1477807,48.3033762 C13.2417172,48.1374178 11.0086121,46.9078347 9.85046354,44.0860582 C9.16442087,42.4143713 8.13066998,40.9845537 6.52072526,40.0304383 C6.22008117,39.8520863 5.95722508,39.5894964 5.72717718,39.3228398 C5.42653309,38.9750437 5.4827757,38.6177588 5.95781094,38.5222892 C6.43704485,38.4256576 6.96060887,38.3581705 7.43320302,38.4457973 C9.2893068,38.7912695 10.5728296,39.9456195 11.5553177,41.4809765 C13.4980312,44.5184795 16.4883609,45.4482918 19.852665,44.0455853 C20.040238,43.9673505 20.2786832,43.7777668 20.3140301,43.6047402 C20.5852835,42.2601288 21.0920529,41.0341282 22.1133054,39.9592718 C20.9779077,39.7507103 19.9261905,39.5972424 18.894783,39.3601175 C15.9247631,38.6786618 13.2566566,37.4526613 11.3055458,35.0177014 C9.71366511,33.0314295 8.98573341,30.7062693 8.65110941,28.2316111 C8.12705717,24.355602 8.59613616,20.7273684 11.2804514,17.6299306 C11.4160781,17.4734611 11.4896036,17.1528729 11.42926,16.9579638 C10.7569851,14.7796875 10.8597059,12.6197111 11.5260246,10.465738 C11.8756857,9.33452927 11.9730362,9.27817701 13.1371411,9.43580842 C13.2083231,9.44529729 13.2775523,9.4630163 13.3481485,9.4749258 C15.681631,9.8577726 17.6901561,10.9782337 19.6687048,12.1811899 C19.9346854,12.3429848 20.339808,12.4436829 20.6320547,12.3731942 C25.3577034,11.2360792 30.0743688,11.2408236 34.7994315,12.3773577 C35.0737119,12.443102 35.44007,12.349472 35.7023402,12.213239 C36.7779802,11.6556227 37.80763,11.0073781 38.8970377,10.4787125 C40.1644493,9.86425989 41.4994301,9.40201643 42.9366436,9.42748145 C43.1881731,9.43222589 43.5772821,9.67041586 43.6614507,9.89088681 C44.5261809,12.1627931 44.7084811,14.4779802 44.0194115,16.8423545 C43.945886,17.0947778 44.0552466,17.4544834 44.1921427,17.7033241 C44.8722291,18.9406532 45.8217138,20.0825127 46.2520283,21.3949781 C47.56377,25.3954077 47.0857078,29.3568167 45.3001026,33.1166356 C43.6638918,36.5630314 40.6294272,38.3093706 37.0374187,39.2101353 C35.8242969,39.5141664 34.5813938,39.6990057 33.272679,39.9538496 C34.9876881,41.7303982 35.256598,43.8985078 35.2261333,46.1692522 C35.1944968,48.5116472 35.2028942,50.85472 35.2016248,53.1976959 C35.2010389,54.3324871 35.7005827,54.9594302 36.5724408,54.996127 C36.5718549,54.9997095 55,54.9997095 55,54.9997095 L55,1.42042554 C54.9998047,0.635851023 54.358678,0 53.5680592,0 Z"/>
</svg>
