<?xml version="1.0" encoding="UTF-8"?>
<svg width="77px" height="77px" viewBox="0 0 77 77" version="1.1" xmlns="http://www.w3.org/2000/svg" xmlns:xlink="http://www.w3.org/1999/xlink" xmlns:sketch="http://www.bohemiancoding.com/sketch/ns">
    <g id="Page-1" stroke="none" stroke-width="1" fill="none" fill-rule="evenodd" sketch:type="MSPage">
        <g id="LinkedIn_Logo" sketch:type="MSLayerGroup">
            <g id="g3019" transform="translate(38.631257, 38.599935) scale(1, -1) translate(-38.631257, -38.599935) translate(0.631257, 0.599935)" sketch:type="MSShapeGroup">
                <rect id="Rectangle-1" fill="rgb(20, 20, 20)" x="0" y="0" width="76" height="76"></rect>
                <path d="M23.2194422,11.9890254 L23.2194422,46.4192651 L11.7754679,46.4192651 L11.7754679,11.9890254 L23.2194422,11.9890254 L23.2194422,11.9890254 Z M17.4974041,51.1201328 C21.4881495,51.1201328 23.9720497,53.7639889 23.9720497,57.0680449 C23.8976753,60.4464752 21.4881495,63.0169757 17.573103,63.0169757 C13.658464,63.0169757 11.0989668,60.4464752 11.0989668,57.0680449 C11.0989668,53.7639889 13.5823576,51.1201328 17.422826,51.1201328 L17.4972004,51.1201328 L17.4974041,51.1201328 Z" id="path28" fill="#fff"></path>
                <path d="M29.5517577,11.9890254 L40.9956301,11.9890254 L40.9956301,31.2163286 C40.9956301,32.2453438 41.0700044,33.2733403 41.3721885,34.0089334 C42.199476,36.0649263 44.0824721,38.1942747 47.2438923,38.1942747 C51.3849146,38.1942747 53.0414254,35.0369298 53.0414254,30.4083988 L53.0414254,11.9890254 L64.4843809,11.9890254 L64.4843809,31.7308362 C64.4843809,42.3062605 58.8385511,47.2271949 51.3093177,47.2271949 C45.1356336,47.2271949 42.42535,43.7764278 40.9195237,41.4259939 L40.9959357,41.4259939 L40.9959357,46.4192651 L29.5520633,46.4192651 C29.7022384,43.1885646 29.5520633,11.9890254 29.5520633,11.9890254 L29.5517577,11.9890254 Z" id="path30" fill="#fff"></path>
            </g>
        </g>
    </g>
</svg>