<svg height="55" viewBox="0 0 55 55" width="55" xmlns="http://www.w3.org/2000/svg"><g fill="none"><rect fill="#141414" height="55" rx="2" width="55"/><path d="m7.32056983.43042889v18.78237341h-6.24291321v-18.78237341zm-3.1214844 21.34678921c2.17703016 0 3.5320466 1.4422756 3.5320466 3.2447031-.0405727 1.8430002-1.35501644 3.2452589-3.49075136 3.2452589-2.13551262 0-3.53176871-1.4022587-3.53176871-3.2452589 0-1.8024275 1.35473855-3.2447031 3.44978965-3.2447031h.0405727zm6.57588717-21.34678921h6.2428576v10.48887231c0 .561348.0405726 1.1221404.20542 1.5234209.4513016 1.1215846 1.478513 2.283186 3.20313 2.283186 2.2590092 0 3.1626684-1.7223938 3.1626684-4.2473485v-10.04813071h6.2423574v10.76954631c0 5.7691021-3.0799112 8.4535687-7.1872562 8.4535687-3.3678662 0-4.8463793-1.8824614-5.6678372-3.1646693h.0416843v2.7239277h-6.2428576c.0819234-1.7624107 0-18.78237341 0-18.78237341z" fill="#fff" transform="matrix(1 0 0 -1 13.176 42.225)"/></g></svg>