<svg height="55" viewBox="0 0 55 55" width="55" xmlns="http://www.w3.org/2000/svg"><g fill="none"><rect fill="#141414" height="55" rx="2" width="55"/><g fill="#fff" transform="translate(13 15)"><g fill-opacity=".7"><path d="m19.337.027c-.14-.07-.254 0-.254.157v19.267l8.406 4.218c.418.21.761-.003.761-.472v-18.547c.0004551-.0924982-.0514332-.1773006-.134-.219l-8.779-4.405"/><path d="m9.917 14.647 9.06-14.503c.0878393-.1335189.2607236-.1817557.405-.113l8.753 4.31c.0518435.0250656.0906021.0709701.1066233.1262815.0160213.0553115.0077975.1148246-.0226233.1637185l-9.092 14.552z"/><path d="m1.345.125c-.572-.28-.766-.073-.43.461l8.78 13.993 9.388 4.604-9.328-14.867c-.0398554-.0636114-.0966453-.1148608-.164-.148z"/></g><path d="m9.917 23.194c0 .472-.343.686-.762.475l-7.897-3.98c-.28-.141-.508-.514-.508-.829v-18.49c0-.314.228-.456.508-.316l8.546 4.307c.069.035.113.107.113.185z"/></g></g></svg>