<?xml version="1.0" encoding="UTF-8"?>
<svg width="55px" height="55px" viewBox="0 0 55 55" version="1.1" xmlns="http://www.w3.org/2000/svg" xmlns:xlink="http://www.w3.org/1999/xlink" xmlns:sketch="http://www.bohemiancoding.com/sketch/ns">
    <!-- Generator: Sketch 3.5.1 (25234) - http://www.bohemiancoding.com/sketch -->
    <title>buttons/reddit</title>
    <desc>Created with Sketch.</desc>
    <defs></defs>
    <g id="Page-1" stroke="none" stroke-width="1" fill="none" fill-rule="evenodd" sketch:type="MSPage">
        <g id="buttons/reddit" sketch:type="MSLayerGroup">
            <g id="Group-5" sketch:type="MSShapeGroup">
                <rect id="Rectangle-2" fill="#FF3F18" x="0" y="0" width="55" height="55"></rect>
                <path d="M31.7874299,35.2762966 C31.9082911,35.1554355 32.0573531,35.0950049 32.2386448,35.0950049 C32.4199365,35.0950049 32.5689986,35.1554355 32.6898597,35.2762966 C32.8107209,35.3971577 32.8711514,35.5502485 32.8711514,35.7395976 C32.8711514,35.9289467 32.8107209,36.0820375 32.6898597,36.2028986 C31.5779373,37.2987063 29.7932212,37.8466101 27.3437688,37.8466101 L27.2913957,37.8466101 C24.8419433,37.8466101 23.0693133,37.2987063 21.969477,36.2028986 C21.8325011,36.0820375 21.7640131,35.9289467 21.7640131,35.7395976 C21.7640131,35.5502485 21.8325011,35.3971577 21.969477,35.2762966 C22.0903381,35.1554355 22.2394002,35.0950049 22.4206919,35.0950049 C22.6019836,35.0950049 22.7510457,35.1554355 22.8719068,35.2762966 C23.7098774,36.1505255 25.1843832,36.5856256 27.2913957,36.5856256 L27.3437688,36.5856256 C29.4306378,36.5856256 30.913201,36.1505255 31.7874299,35.2762966 L31.7874299,35.2762966 Z M24.6163359,29.6199955 C24.6163359,30.2525021 24.3947571,30.8004059 23.9475709,31.2637069 C23.5003847,31.7270079 22.9605383,31.9566441 22.3280317,31.9566441 C21.6955251,31.9566441 21.1556787,31.7270079 20.7084925,31.2637069 C20.2613063,30.8004059 20.0397275,30.2525021 20.0397275,29.6199955 C20.0397275,28.9874888 20.2613063,28.4476424 20.7084925,28.0004562 C21.1556787,27.55327 21.6955251,27.3316913 22.3280317,27.3316913 C22.9605383,27.3316913 23.5003847,27.55327 23.9475709,28.0004562 C24.3947571,28.4476424 24.6163359,28.9874888 24.6163359,29.6199955 L24.6163359,29.6199955 Z M41.3233735,30.0591242 C41.9236505,29.817402 42.4111237,29.4306463 42.789822,28.8907999 C43.1685202,28.3509535 43.3538406,27.7466479 43.3538406,27.0778829 C43.3538406,26.203654 43.0436303,25.454315 42.4272386,24.8298658 C41.8108468,24.2054166 41.0655364,23.8911776 40.1913075,23.8911776 C39.1639879,23.8911776 38.3219887,24.3021055 37.6733672,25.1239612 C35.0869389,23.2909007 31.8720327,22.303868 28.0326773,22.1668921 L30.1678907,15.3543527 L35.4616084,16.6153373 C35.4777233,17.4734513 35.7919622,18.1986181 36.4002966,18.7988951 C37.008631,19.3991721 37.7337978,19.6972962 38.5717683,19.6972962 C39.4298824,19.6972962 40.1671353,19.3951434 40.7835271,18.786809 C41.3999189,18.1784746 41.7101292,17.4452504 41.7101292,16.5871363 C41.7101292,15.7290223 41.3999189,14.9917693 40.7835271,14.3753775 C40.1671353,13.7589858 39.4298824,13.4487755 38.5717683,13.4487755 C37.9553765,13.4487755 37.3873292,13.6260385 36.8756837,13.9765358 C36.3600095,14.3270331 35.9772826,14.7863054 35.7194455,15.350324 L29.8858814,13.960421 C29.7327906,13.9241626 29.5837285,13.9483349 29.4346665,14.0248803 C29.2896331,14.1014256 29.1889155,14.2263155 29.1405711,14.3995498 L26.6991761,22.1628634 C22.8598207,22.2313514 19.59657,23.1982404 16.9053954,25.0675593 C16.2890036,24.3303064 15.4913201,23.9636943 14.5163736,23.9636943 C13.6421448,23.9636943 12.8968344,24.2779333 12.2804426,24.9023825 C11.6640508,25.5268317 11.3538406,26.2761707 11.3538406,27.1503996 C11.3538406,27.7829062 11.5190175,28.3630396 11.8534,28.8867712 C12.1877824,29.4105028 12.6389973,29.7972585 13.203016,30.0550955 C13.0821548,30.4821382 13.0217243,30.9454392 13.0217243,31.4449986 C13.0217243,33.1249684 13.6542309,34.6800483 14.9232728,36.1102384 C16.1923147,37.5404285 17.9166003,38.6724945 20.1041868,39.5024076 C22.2877447,40.3323208 24.6767664,40.7472773 27.2631947,40.7472773 C29.8335082,40.7472773 32.2104439,40.3323208 34.3980304,39.5024076 C36.5815883,38.6724945 38.3099025,37.5404285 39.5789445,36.1102384 C40.8479864,34.6800483 41.480493,33.1249684 41.480493,31.4449986 C41.480493,30.9816976 41.4281198,30.5224253 41.3233735,30.0591242 L41.3233735,30.0591242 L41.3233735,30.0591242 Z M32.3272763,27.3316913 C32.9597829,27.3316913 33.4996293,27.55327 33.9468155,28.0004562 C34.3940017,28.4476424 34.6155805,28.9874888 34.6155805,29.6199955 C34.6155805,30.2525021 34.3940017,30.8004059 33.9468155,31.2637069 C33.4996293,31.7270079 32.9597829,31.9566441 32.3272763,31.9566441 C31.6947697,31.9566441 31.1549233,31.7270079 30.7077371,31.2637069 C30.2605509,30.8004059 30.0389722,30.2525021 30.0389722,29.6199955 C30.0389722,28.9874888 30.2605509,28.4476424 30.7077371,28.0004562 C31.1549233,27.5572987 31.6947697,27.3316913 32.3272763,27.3316913 L32.3272763,27.3316913 Z" id="Shape" fill="#FFFFFF"></path>
            </g>
        </g>
    </g>
</svg>