<svg height="55" viewBox="0 0 55 55" width="55" xmlns="http://www.w3.org/2000/svg"><g fill="none"><rect fill="#141414" height="55" rx="2" width="55"/><path d="m32.3492383 35.8738512c.1321919-.1321918.2952285-.1982878.4935163-.1982878s.3613245.066096.4935163.1982878c.1321919.1321918.1982878.2996349.1982878.5067355 0 .2071005-.0660959.3745436-.1982878.5067354-1.2161651 1.1985397-3.1681984 1.7978095-5.8472869 1.7978095h-.0572831c-2.6790886 0-4.6179026-.5992698-5.8208486-1.7978095-.1498174-.1321918-.2247261-.2996349-.2247261-.5067354 0-.2071006.0749087-.3745437.2247261-.5067355.1321918-.1321918.2952285-.1982878.4935163-.1982878s.3613245.066096.4935163.1982878c.9165303.9561879 2.5292711 1.4320786 4.833816 1.4320786h.0572831c2.2825129 0 3.9040664-.4758907 4.8602543-1.4320786zm-7.8433841-6.1865793c0 .6918041-.2423518 1.2910738-.7314617 1.7978093s-1.0795669.7579001-1.771371.7579001-1.2822611-.2511646-1.771371-.7579001-.7314617-1.1060052-.7314617-1.7978093c0-.6918042.2423518-1.2822612.7314617-1.7713711s1.0795669-.7314616 1.771371-.7314616 1.2822611.2423517 1.771371.7314616.7314617 1.0795669.7314617 1.7713711zm18.2733224.480297c.656553-.2643837 1.1897268-.6873977 1.6039281-1.2778547.4142011-.590457.6168953-1.2514163.6168953-1.982878 0-.9561878-.3392925-1.7757774-1.0134709-2.4587687-.6741786-.6829913-1.4893618-1.0266902-2.4455497-1.0266902-1.1236308 0-2.0445674.4494524-2.7539972 1.3483571-2.8289059-2.00491-6.3452096-3.084477-10.5445046-3.2342944l2.3353897-7.4512149 5.7900037 1.3792019c.0176257.9385622.3613245 1.7317133 1.0266902 2.3882663.6653658.656553 1.458517.9826262 2.3750472.9826262.9385623 0 1.7449327-.3304796 2.4191112-.9958454.6741785-.6653657 1.0134711-1.4673297 1.0134711-2.405892 0-.9385622-.3392926-1.7449326-1.0134711-2.4191112-.6741785-.6741784-1.4805489-1.0134709-2.4191112-1.0134709-.6741785 0-1.2954802.1938814-1.8550925.5772378-.5640187.3833564-.9826262.8856855-1.2646355 1.5025809l-6.3804608-1.5202064c-.167443-.0396577-.3304797-.0132192-.4935163.0705023-.1586303.0837214-.2687901.2203198-.3216668.4097948l-2.6702758 8.4911242c-4.199295.0749088-7.7684754 1.1324436-10.7119476 3.1770112-.6741786-.8063704-1.5466449-1.2073524-2.6129926-1.2073524-.9561878 0-1.771371.3436989-2.4455496 1.0266903-.6741785.6829913-1.0134709 1.5025808-1.0134709 2.4587687 0 .6918041.1806622 1.326325.5463931 1.8991564.3657307.5728314.859247.9958455 1.4761425 1.2778547-.1321919.467078-.1982878.9738134-.1982878 1.5202065 0 1.837467.6918041 3.5383356 2.0798187 5.102606 1.3880145 1.5642705 3.2739519 2.8024677 5.6666247 3.7101851 2.3882664.9077176 5.0012589 1.3615762 7.8301648 1.3615762 2.8112804 0 5.4110539-.4538586 7.8037266-1.3615762 2.3882664-.9077174 4.2786101-2.1459146 5.6666248-3.7101851 1.3880146-1.5642704 2.0798187-3.265139 2.0798187-5.102606 0-.5067355-.0572832-1.0090645-.1718495-1.5158001zm-9.8394813-2.9831297c.6918041 0 1.2822611.2423517 1.771371.7314616s.7314617 1.0795669.7314617 1.7713711c0 .6918041-.2423518 1.2910738-.7314617 1.7978093s-1.0795669.7579001-1.771371.7579001-1.2822611-.2511646-1.771371-.7579001-.7314616-1.1060052-.7314616-1.7978093c0-.6918042.2423517-1.2822612.7314616-1.7713711.4891099-.4847035 1.0795669-.7314616 1.771371-.7314616z" fill="#fff"/></g></svg>