<svg height="55" viewBox="0 0 55 55" width="55" xmlns="http://www.w3.org/2000/svg"><g fill="none"><rect fill="#141414" height="55" rx="2" width="55"/><g transform="translate(13 13)"><path d="m19.1107819 1.81099048c-.4469278-1.37617986-1.9246621-2.12925766-3.3002578-1.68198484-1.3758255.44704298-2.1287093 1.92515783-1.6815517 3.30110785l6.7725082 20.84266051c.4650807 1.2856221 1.8534293 2.008016 3.1861705 1.6244094 1.390187-.40027 2.2375116-1.8771208 1.7939156-3.2427279zm-10.99974592 3.00000304c-.44715603-1.37606297-1.92477002-2.12913969-3.30036075-1.68209735-1.37593539.44715726-2.12893144 1.92515507-1.68166052 3.30133296l6.77259853 20.84274567c.46496416 1.2855054 1.85342266 2.0080131 3.18615906 1.6240623 1.390067-.4000397 2.2373885-1.8768883 1.7937942-3.2427233z" fill="#fff"/><path d="m27.1890906 19.1108636c1.3761845-.4469306 2.129035-1.9244442 1.6819906-3.3003931-.4470446-1.3756042-1.9251643-2.1286077-3.301119-1.681562l-20.84273044 6.7727797c-1.28562637.4648538-2.00802266 1.853211-1.62441484 3.1859604.40027145 1.3900806 1.87712713 2.2375254 3.24273882 1.7939267l20.84353486-6.7705968" fill="#fff"/><path d="m9.717 25 5.283-1.717-1.717-5.283-5.283 1.717z" fill="#b8b8b8"/><path d="m19.7171559 22c1.9972144-.6486492 3.8535464-1.2518453 5.2828441-1.7162454l-1.7169122-5.2837546-5.2830878 1.7169765z" fill="#b8b8b8"/><path d="m24.1890065 8.1110021c1.376063-.4469365 2.1291396-1.9245844 1.6820974-3.30055137-.4470425-1.3756223-1.9251551-2.12852073-3.301333-1.68158422l-20.84274573 6.77298371c-1.28550529.46463018-2.00801304 1.85312048-1.62406228 3.18588748.40003968 1.389984 1.87688828 2.2374399 3.2427233 1.7938353l20.84332031-6.77068579" fill="#fff"/><path d="m5.71697653 15c1.43853144-.4674954 3.2932073-1.0702671 5.28302347-1.7166684-.6486491-1.9974581-1.25184528-3.85379018-1.71624539-5.2833316l-5.28375461 1.71739963zm10.99994027-4 5.2830832-1.71661329c-.5721915-1.76115278-1.1444564-3.52228169-1.7167949-5.28338671l-5.2832051 1.71710068z" fill="#b8b8b8"/></g></g></svg>