<?xml version="1.0" encoding="UTF-8"?>
<svg width="55px" height="55px" viewBox="0 0 55 55" version="1.1" xmlns="http://www.w3.org/2000/svg" xmlns:xlink="http://www.w3.org/1999/xlink" xmlns:sketch="http://www.bohemiancoding.com/sketch/ns">
    <!-- Generator: Sketch 3.5.1 (25234) - http://www.bohemiancoding.com/sketch -->
    <title>Group</title>
    <desc>Created with Sketch.</desc>
    <defs></defs>
    <g id="Page-1" stroke="none" stroke-width="1" fill="none" fill-rule="evenodd" sketch:type="MSPage">
        <g id="Group" sketch:type="MSLayerGroup">
            <g sketch:type="MSShapeGroup">
                <rect id="Rectangle-path" fill="#FFFFFF" x="0" y="0" width="55" height="55" rx="2"></rect>
                <g transform="translate(14.000000, 14.000000)" id="Shape">
                    <path d="M17.5040156,1.67041406 C17.0937422,0.407425781 15.7372031,-0.283710937 14.4744258,0.126773438 C13.2114375,0.537046875 12.5203008,1.89358594 12.9307852,3.15636328 L19.1478516,22.2847031 C19.5747891,23.464582 20.8492734,24.1275586 22.0727109,23.7755039 C23.3488828,23.4081563 24.1267148,22.0527773 23.7195,20.7994922 L17.5040156,1.67041406" fill="#DFA22F"></path>
                    <path d="M7.87071094,4.80051562 C7.46022656,3.53763281 6.10379297,2.84649609 4.84101562,3.25676953 C3.57792188,3.66714844 2.88667969,5.02358203 3.29726953,6.28657031 L9.51444141,25.4150156 C9.94127344,26.5947891 11.2158633,27.2578711 12.4393008,26.9055 C13.7153672,26.5383633 14.4931992,25.1829844 14.0859844,23.9294883 L7.87071094,4.80051562" fill="#3CB187"></path>
                    <path d="M25.3295859,17.5125586 C26.5925742,17.1022852 27.2835,15.745957 26.8732266,14.4828633 C26.4629531,13.2200859 25.1064141,12.5288437 23.8436367,12.9392227 L4.71529688,19.1565 C3.53541797,19.5832266 2.87244141,20.8577109 3.22449609,22.0811484 C3.59184375,23.3572148 4.94722266,24.1351523 6.20050781,23.7279375 L25.3295859,17.5126641" fill="#CE1E5B"></path>
                    <path d="M8.70201562,22.9151953 L13.2737695,21.4297734 L11.7881367,16.8574922 L7.21606641,18.3435469 L8.70201562,22.9153008" fill="#392538"></path>
                    <path d="M18.3354258,19.7849883 C20.0638477,19.2235781 21.6703477,18.7015078 22.9072852,18.2995664 L21.4214414,13.7264414 L16.8493711,15.2124961 L18.3354258,19.7849883" fill="#BB242A"></path>
                    <path d="M22.1994844,7.87914844 C23.4623672,7.468875 24.1535039,6.11244141 23.7432305,4.84934766 C23.332957,3.58657031 21.976418,2.89543359 20.7134297,3.30570703 L1.58498437,9.52308984 C0.405210937,9.94960547 -0.257871094,11.2241953 0.0945,12.4476328 C0.461636719,13.7235938 1.81701562,14.5015312 3.07051172,14.0943164 L22.1994844,7.87904297" fill="#72C5CD"></path>
                    <path d="M5.57107031,13.2819961 C6.81612891,12.877418 8.42136328,12.3557695 10.1435625,11.7963633 C9.58215234,10.0677305 9.06008203,8.46123047 8.65814062,7.22408203 L4.08501563,8.71034766 L5.57107031,13.2819961" fill="#248C73"></path>
                    <path d="M15.204375,10.152 L19.7770781,8.66615625 C19.2818253,7.14176058 18.7865089,5.61738558 18.2911289,4.09303125 L13.7183203,5.57929687 L15.204375,10.152" fill="#62803A"></path>
                </g>
            </g>
        </g>
    </g>
</svg>