<svg height="55" viewBox="0 0 56 55" width="56" xmlns="http://www.w3.org/2000/svg"><g fill="none"><rect fill="#141414" height="55" rx="2" width="55" x=".833"/><g transform="translate(10.25 14.255)"><path d="m12.6288083 26.0153453c-.981915 0-.8150632-.3707566-1.1537174-1.3056925l-2.88750121-9.5030773 22.22670271-13.18596616" fill="#b0b0b0"/><path d="m12.6288083 26.0153453c.7577285 0 1.0925182-.3465346 1.515457-.7577285l4.0412187-3.92958-5.0409151-3.0397543" fill="#d8d9d9"/><path d="m13.1440637 18.2890402 12.2145835 9.024294c1.3938416.7690692 2.3998272.3708828 2.7470184-1.294074l4.9719618-23.42972304c.509042-2.04086595-.7779598-2.96650709-2.1113852-2.36113253l-29.19527915 11.25757237c-1.99285121.7993278-1.98123271 1.9111428-.36325504 2.4065457l7.49216685 2.338426 17.34516314-10.94286252c.8188267-.49653949 1.5703419-.2295892.9535255.31784186" fill="#fff"/></g></g></svg>