<?xml version="1.0" encoding="UTF-8"?>
<svg width="55px" height="55px" viewBox="0 0 55 55" version="1.1" xmlns="http://www.w3.org/2000/svg" xmlns:xlink="http://www.w3.org/1999/xlink" xmlns:sketch="http://www.bohemiancoding.com/sketch/ns">
    <g id="Page-1" stroke="none" stroke-width="1" fill="none" fill-rule="evenodd" sketch:type="MSPage">
        <g id="buttons/twitter" sketch:type="MSLayerGroup">
            <g id="Group" sketch:type="MSShapeGroup">
                <g>
                    <rect id="Rectangle-path" fill="rgb(20, 20, 20)" x="0" y="0" width="55" height="55" rx="2"></rect>
                    <path d="M27.496,23.235 L27.553,24.209 L26.604,24.089 C23.152,23.633 20.137,22.083 17.576,19.482 L16.324,18.191 L16.002,19.144 C15.319,21.269 15.755,23.514 17.178,25.023 C17.936,25.857 17.766,25.976 16.457,25.48 C16.002,25.32 15.604,25.202 15.566,25.261 C15.433,25.401 15.888,27.208 16.248,27.923 C16.742,28.916 17.747,29.889 18.847,30.465 L19.777,30.922 L18.677,30.942 C17.614,30.942 17.577,30.962 17.69,31.378 C18.07,32.669 19.568,34.04 21.237,34.636 L22.413,35.053 L21.388,35.688 C19.8489208,36.6084534 18.0978021,37.1148757 16.305,37.158 C15.452,37.178 14.75,37.258 14.75,37.317 C14.75,37.515 17.064,38.627 18.41,39.065 C22.45,40.355 27.25,39.799 30.853,37.595 C33.413,36.025 35.974,32.908 37.169,29.889 C37.814,28.28 38.459,25.341 38.459,23.93 C38.459,23.017 38.516,22.898 39.578,21.805 C40.204,21.17 40.792,20.475 40.906,20.276 C41.096,19.899 41.076,19.899 40.109,20.236 C38.497,20.832 38.269,20.753 39.066,19.859 C39.654,19.223 40.356,18.071 40.356,17.734 C40.356,17.674 40.071,17.774 39.749,17.952 C39.407,18.151 38.649,18.449 38.079,18.628 L37.055,18.965 L36.125,18.31 C35.614,17.952 34.893,17.555 34.514,17.436 C33.546,17.158 32.067,17.198 31.194,17.516 C28.824,18.409 27.325,20.713 27.496,23.236 L27.496,23.235 Z" id="Shape" fill="#fff"></path>
                </g>
            </g>
        </g>
    </g>
</svg>