<svg xmlns="http://www.w3.org/2000/svg" width="55" height="55" viewBox="0 0 55 55">
  <g fill="none">
    <rect width="55" height="55" fill="#141414" rx="2"/>
    <path fill="#FFF" d="M27.4671146,22.8339446 L27.5284565,23.8821377 L26.5071677,23.7529969 C22.7922162,23.2622617 19.5475527,21.5941926 16.791472,18.7950649 L15.4441026,17.4057247 L15.0975746,18.4313182 C14.362548,20.7181872 14.8317597,23.1341971 16.3631548,24.7581431 C17.1788945,25.6556719 16.995945,25.7837366 15.5872336,25.2499545 C15.0975746,25.0777667 14.6692575,24.9507782 14.6283629,25.0142724 C14.4852318,25.1649367 14.9748908,27.1095825 15.3623134,27.8790467 C15.8939431,28.9476871 16.9754977,29.9948041 18.1592887,30.6146801 L19.1601302,31.1064914 L17.9763391,31.1280149 C16.8323666,31.1280149 16.7925481,31.1495384 16.9141558,31.5972266 C17.3231017,32.9865668 18.9352099,34.4620009 20.7313437,35.1034004 L21.9969239,35.5521648 L20.8938459,36.2355351 C19.2375294,37.2261028 17.3530216,37.7711011 15.4236553,37.8175103 C14.5056791,37.8390338 13.7502052,37.9251277 13.7502052,37.9886219 C13.7502052,38.2017043 16.2404711,39.3984094 17.6890008,39.8697735 C22.0367423,41.2580375 27.2023758,40.6596849 31.0798295,38.2877982 C33.834834,36.5982056 36.5909147,33.2437723 37.8769423,29.9948041 C38.5710743,28.2632407 39.2652063,25.1003663 39.2652063,23.5818853 C39.2652063,22.5993388 39.3265482,22.4712741 40.4694446,21.2950163 C41.1431293,20.611646 41.7759194,19.8637053 41.8986032,19.6495468 C42.1030762,19.2438293 42.0815527,19.2438293 41.0408928,19.6064998 C39.3061009,20.2478993 39.0607333,20.1628816 39.9184437,19.2007824 C40.5512338,18.5163359 41.3067077,17.2765839 41.3067077,16.9139134 C41.3067077,16.849343 40.9999982,16.9569603 40.6534703,17.1485192 C40.2854189,17.3626778 39.4696793,17.6833775 38.8562603,17.8760126 L37.7542585,18.2386831 L36.753417,17.5337894 C36.2034922,17.1485192 35.427571,16.7212783 35.0197012,16.5932136 C33.9779651,16.2940374 32.3863043,16.3370843 31.4468047,16.6793075 C28.8962732,17.6403306 27.2830889,20.1198347 27.4671146,22.8350208 L27.4671146,22.8339446 Z"/>
  </g>
</svg>
