<svg height="55" viewBox="0 0 55 55" width="55" xmlns="http://www.w3.org/2000/svg"><g fill="none"><rect fill="#141414" height="55" rx="2" width="55"/><path d="m27.3804404 21.8979232.0743703 1.2213522-1.2381997-.1504746c-4.5039677-.5718035-8.4377633-2.5154337-11.7792063-5.7769706l-1.6335363-1.6188559-.4201268 1.1950191c-.8911385 2.6646543-.3222712 5.4797833 1.534376 7.3720014.9889941 1.0457984.767188 1.1950191-.9407186.5730574-.5936574-.2006328-1.1129445-.3485995-1.1625247-.2746162-.1735306.1755537.4201268 2.4414504.8898337 3.3380282.6445423 1.2451773 1.9558075 2.4652755 3.3910232 3.1875536l1.2134096.5730574-1.4352157.0250791c-1.3869402 0-1.4352156.0250791-1.2877799.5467244.4958018 1.6188559 2.4503046 3.3380282 4.6279182 4.0853853l1.534376.5228993-1.3373601.7962614c-2.0081005 1.1542071-4.2928577 1.7892379-6.632001 1.8433138-1.1129445.0250791-2.0288731.1253955-2.0288731.1993788 0 .2482831 3.0191719 1.6426811 4.7753539 2.1919134 5.2711557 1.6176019 11.5339149.9204029 16.2348986-1.8433139 3.3401382-1.9687093 6.6815812-5.877287 8.2407473-9.6629771.8415583-2.0176136 1.6831165-5.7029873 1.6831165-7.4723177 0-1.1448609.0743703-1.2940816 1.4600058-2.6646544.8167681-.7962614 1.5839562-1.6677601 1.7326967-1.9172972.2479009-.472741.221806-.472741-1.039879-.0501582-2.1032433.7473572-2.4007244.6482948-1.3608454-.472741.767188-.7975154 1.6831166-2.2420715 1.6831166-2.6646543 0-.0752373-.3718514.0501582-.7919781.2733622-.4462216.249537-1.4352157.6232156-2.1789183.8476735l-1.3360553.4225829-1.2134096-.8213406c-.6667229-.4489158-1.6074416-.946736-2.1019386-1.0959566-1.2629898-.3485995-3.1927025-.2984413-4.3317418.1003164-3.0922374 1.1197818-5.0480449 4.0088941-4.8249341 7.1726225z" fill="#fff"/></g></svg>