<svg height="55" viewBox="0 0 55 55" width="55" xmlns="http://www.w3.org/2000/svg"><g fill="none"><rect fill="#141414" height="55" rx="2" width="55"/><path d="m27.5007941 11.328125c8.9168636 0 16.1710809 7.2545952 16.1710809 16.171875s-7.2542173 16.171875-16.1710809 16.171875c-8.9192459 0-16.1726691-7.253801-16.1726691-16.171875s7.2534232-16.171875 16.1726691-16.171875zm.0000068 1.7259325c-7.9659135 0-14.4467434 6.4811674-14.4467434 14.4459425s6.4808299 14.4459425 14.4467434 14.4459425c7.9635108 0 14.4451416-6.4819684 14.4451416-14.4459425s-6.4816308-14.4459425-14.4451416-14.4459425zm13.6654262 14.5063917c0 3.192202-1.0596021 6.1355724-2.8256056 8.4875419-.4998123-.3988122-1.0312794-1.4776504-.5314671-2.595688.5048104-1.124855.6364277-3.7290646.5198048-4.7431384-.1099587-1.0123695-.6247654-3.4512595-2.0225738-3.4751201-1.3961424-.0204519-2.3541159-.4925501-3.1838044-2.1866498-1.7210203-3.5245456 3.2304536-4.2011629 1.5094332-6.1509114-.4814859-.5487929-2.9705511 2.2531185-3.3354141-1.4810591-.0233246-.2675791.2249155-.6680956.5597898-1.0839511 5.404637 1.857715 9.3098372 7.0848819 9.3098372 13.228976zm-15.32921-13.9220563c-.3358167.6257692-1.221619.8796808-1.7596111 1.3498267-1.1719318 1.0140083-1.6756569.8731283-2.30617 1.846183-.6356531.9730548-2.6848204 2.3736639-2.6848204 3.0780638s1.0348638 1.5332984 1.5522957 1.3727607c.5174319-.1638139 1.8829723-.1539851 2.6848204.1146698.8035615.2719311 6.7060544.5438622 4.8247954 5.3141239-.596246 1.516917-3.2091057 1.2613672-3.9047261 3.7726348-.1045144.3685813-.4660314 1.9428332-.4883049 2.4572089-.0428338.7961357.5893926 3.7972069-.2141689 3.7972069-.8069881 0-2.9778034-2.6849103-2.9778034-3.1714377 0-.4865273-.561979-2.1918303-.561979-3.6530506 0-1.4595821-2.6008663-1.4366482-2.6008663-3.3778432 0-1.7495328 1.4100876-2.6210229 1.0931178-3.4613884-.3101165-.835451-2.7876215-.8632994-3.820772-.9665022 1.8041582-4.4737584 6.0481278-7.7942668 11.1641928-8.4724564zm-2.7384835 27.1056932c.8356795-.5052113.9206062-1.1580998 1.678153-1.1911328.8662531-.0446918 1.5711453-.386681 2.5478031-.6334573.8662531-.2156863 2.4170159-1.2222227 3.7809399-1.3504687 1.151607-.1068716 3.4225488.0680093 4.0340216 1.33881-2.1996034 1.6730266-4.8374289 2.6484731-7.6671889 2.6484731-1.5269833 0-2.997915-.289525-4.3737287-.8122243z" fill="#fff"/></g></svg>