<svg xmlns="http://www.w3.org/2000/svg" width="55" height="55" viewBox="0 0 55 55">
  <g fill="none">
    <rect width="55" height="55" fill="#141414" rx="2"/>
    <path fill="#FFF" d="M27.5008593,10 C37.1500257,10 45,17.8503832 45,27.5 C45,37.1496168 37.1500257,45 27.5008593,45 C17.849115,45 10,37.1504762 10,27.5 C10,17.8495238 17.849115,10 27.5008593,10 Z M27.5008667,11.8676758 C18.8807477,11.8676758 11.8676758,18.881113 11.8676758,27.5 C11.8676758,36.118887 18.8807477,43.1323242 27.5008667,43.1323242 C36.1183856,43.1323242 43.1323242,36.1180203 43.1323242,27.5 C43.1323242,18.8819797 36.1183856,11.8676758 27.5008667,11.8676758 Z M42.2885742,27.5654136 C42.2885742,31.0197771 41.1419517,34.2048736 39.2309141,36.75 C38.6900544,36.3184351 38.1149403,35.1509967 38.6557999,33.9411395 C39.2020682,32.7239052 39.3444946,29.9058233 39.218294,28.8084681 C39.0993049,27.7129571 38.5422194,25.0737718 37.0296151,25.0479517 C35.5188137,25.0258201 34.482166,24.5149506 33.5843389,22.6817219 C31.7219787,18.8677209 37.0800954,18.135536 35.2177352,16.0256632 C34.696707,15.4318003 32.0032257,18.4638204 31.6083981,14.4229713 C31.583158,14.133417 31.851785,13.7000078 32.214161,13.25 C38.0626571,15.260281 42.2885742,20.9167321 42.2885742,27.5654136 Z M25.7004436,12.5 C25.3370478,13.1771609 24.3784984,13.4519251 23.7963234,13.9606821 C22.528146,15.0579664 21.9830521,14.9055166 21.3007578,15.958484 C20.6129014,17.0114515 18.3954449,18.5270864 18.3954449,19.2893356 C18.3954449,20.0515848 19.5152975,20.948557 20.0752238,20.7748351 C20.6351501,20.5975679 22.1128364,20.6082039 22.9805367,20.8989222 C23.8500912,21.1931858 30.2373299,21.4874495 28.2015714,26.6494717 C27.5563583,28.2909665 24.7289159,28.0144296 23.9761673,30.7319365 C23.8630696,31.1307878 23.4718628,32.834326 23.44776,33.3909452 C23.4014085,34.252464 24.0855569,37.5 23.2160024,37.5 C22.3427399,37.5 19.9936451,34.5945898 19.9936451,34.0681061 C19.9936451,33.5416223 19.3855132,31.6962703 19.3855132,30.1150464 C19.3855132,28.5355953 16.5710492,28.5604127 16.5710492,26.4597958 C16.5710492,24.5665816 18.0969411,23.6235198 17.7539399,22.7141388 C17.4183549,21.8100759 14.7373833,21.7799404 13.6193848,21.6682621 C15.5717106,16.8270935 20.1642187,13.2338864 25.7004436,12.5 Z M22.7370605,41.8317646 C23.6413706,41.2850625 23.7332721,40.5785552 24.5530329,40.5428093 C25.4904275,40.4944472 26.2532094,40.124372 27.3100758,39.857329 C28.2474705,39.6239293 29.9255906,38.5347305 31.4015276,38.3959523 C32.6477111,38.2803038 35.1051554,38.4695468 35.7668457,39.8447128 C33.3865986,41.6551378 30.5321401,42.7106934 27.4699843,42.7106934 C25.8175966,42.7106934 24.2258638,42.397391 22.7370605,41.8317646 Z"/>
  </g>
</svg>
