<svg height="55" viewBox="0 0 55 55" width="55" xmlns="http://www.w3.org/2000/svg"><g fill="none"><rect fill="#141414" height="55" rx="2" width="55"/><path d="m44.1288337 19.9579035c-.3991734-1.503017-1.5752762-2.6867462-3.0685697-3.0884617-2.7067017-.7299642-13.560264-.7299642-13.560264-.7299642s-10.8534988 0-13.560264.7299642c-1.4932935.4017791-2.6693963 1.5854447-3.0685697 3.0884617-.7252613 2.7243057-.7252613 8.4083157-.7252613 8.4083157s0 5.6840099.7252613 8.4083157c.3991734 1.503017 1.5752762 2.6374294 3.0685697 3.0391448 2.7067652.7299642 13.560264.7299642 13.560264.7299642s10.8534988 0 13.560264-.7299642c1.4932935-.4017154 2.6693963-1.5361278 3.0685697-3.0391448.7252613-2.7243058.7252613-8.4083157.7252613-8.4083157s0-5.68401-.7252613-8.4083157zm-20.1785595 13.5689707v-10.32131l9.0714226 5.1607821z" fill="#fff"/></g></svg>