<svg xmlns="http://www.w3.org/2000/svg" width="65" height="66" viewBox="0 0 65 66">
  <g fill="#231F20" fill-rule="evenodd">
    <path d="M8.2516 31.4014C8.2516 33.3334 6.6856 34.8994 4.7536 34.8994 2.8226 34.8994 1.2566 33.3334 1.2566 31.4014 1.2566 29.4694 2.8226 27.9034 4.7536 27.9034 6.6856 27.9034 8.2516 29.4694 8.2516 31.4014M63.5075 31.4014C63.5075 33.3334 61.9425 34.8994 60.0115 34.8994 58.0795 34.8994 56.5135 33.3334 56.5135 31.4014 56.5135 29.4694 58.0795 27.9034 60.0115 27.9034 61.9425 27.9034 63.5075 29.4694 63.5075 31.4014M35.8473 45.2822C35.8473 47.2152 34.2823 48.7802 32.3513 48.7802 30.4193 48.7802 28.8533 47.2152 28.8533 45.2822 28.8533 43.3512 30.4193 41.7852 32.3513 41.7852 34.2823 41.7852 35.8473 43.3512 35.8473 45.2822M22.0495 38.3965C22.0495 40.3275 20.4845 41.8935 18.5535 41.8935 16.6205 41.8935 15.0545 40.3275 15.0545 38.3965 15.0545 36.4635 16.6205 34.8995 18.5535 34.8995 20.4845 34.8995 22.0495 36.4635 22.0495 38.3965M49.651 38.3965C49.651 40.3275 48.085 41.8935 46.155 41.8935 44.222 41.8935 42.657 40.3275 42.657 38.3965 42.657 36.4635 44.222 34.8995 46.155 34.8995 48.085 34.8995 49.651 36.4635 49.651 38.3965M7.0651 41.9639C7.0651 43.2579 6.0151 44.3079 4.7211 44.3079 3.4261 44.3079 2.3771 43.2579 2.3771 41.9639 2.3771 40.6689 3.4261 39.6189 4.7211 39.6189 6.0151 39.6189 7.0651 40.6689 7.0651 41.9639M62.3229 41.9639C62.3229 43.2579 61.2729 44.3079 59.9789 44.3079 58.6839 44.3079 57.6349 43.2579 57.6349 41.9639 57.6349 40.6689 58.6839 39.6189 59.9789 39.6189 61.2729 39.6189 62.3229 40.6689 62.3229 41.9639M34.6628 55.8457C34.6628 57.1407 33.6118 58.1907 32.3188 58.1907 31.0238 58.1907 29.9728 57.1407 29.9728 55.8457 29.9728 54.5507 31.0238 53.5007 32.3188 53.5007 33.6118 53.5007 34.6628 54.5507 34.6628 55.8457M20.8639 48.958C20.8639 50.253 19.8139 51.303 18.5199 51.303 17.2249 51.303 16.1759 50.253 16.1759 48.958 16.1759 47.663 17.2249 46.614 18.5199 46.614 19.8139 46.614 20.8639 47.663 20.8639 48.958M48.4665 48.958C48.4665 50.253 47.4145 51.303 46.1215 51.303 44.8265 51.303 43.7765 50.253 43.7765 48.958 43.7765 47.663 44.8265 46.614 46.1215 46.614 47.4145 46.614 48.4665 47.663 48.4665 48.958M5.9469 50.2197C5.9469 50.8777 5.4119 51.4107 4.7539 51.4107 4.0949 51.4107 3.5619 50.8777 3.5619 50.2197 3.5619 49.5617 4.0949 49.0287 4.7539 49.0287 5.4119 49.0287 5.9469 49.5617 5.9469 50.2197M61.2028 50.2197C61.2028 50.8777 60.6698 51.4107 60.0118 51.4107 59.3518 51.4107 58.8198 50.8777 58.8198 50.2197 58.8198 49.5617 59.3518 49.0287 60.0118 49.0287 60.6698 49.0287 61.2028 49.5617 61.2028 50.2197M33.5426 64.1016C33.5426 64.7596 33.0096 65.2936 32.3516 65.2936 31.6916 65.2936 31.1596 64.7596 31.1596 64.1016 31.1596 63.4436 31.6916 62.9096 32.3516 62.9096 33.0096 62.9096 33.5426 63.4436 33.5426 64.1016M19.7448 57.2148C19.7448 57.8728 19.2108 58.4068 18.5538 58.4068 17.8938 58.4068 17.3598 57.8728 17.3598 57.2148 17.3598 56.5568 17.8938 56.0238 18.5538 56.0238 19.2108 56.0238 19.7448 56.5568 19.7448 57.2148M47.3464 57.2148C47.3464 57.8728 46.8124 58.4068 46.1554 58.4068 45.4944 58.4068 44.9624 57.8728 44.9624 57.2148 44.9624 56.5568 45.4944 56.0238 46.1554 56.0238 46.8124 56.0238 47.3464 56.5568 47.3464 57.2148M37.0544 4.71C37.0544 7.312 34.9464 9.421 32.3464 9.421 29.7444 9.421 27.6354 7.312 27.6354 4.71 27.6354 2.108 29.7444 0 32.3464 0 34.9464 0 37.0544 2.108 37.0544 4.71M37.0544 18.5176C37.0544 21.1196 34.9464 23.2276 32.3464 23.2276 29.7444 23.2276 27.6354 21.1196 27.6354 18.5176 27.6354 15.9156 29.7444 13.8066 32.3464 13.8066 34.9464 13.8066 37.0544 15.9156 37.0544 18.5176M37.0544 32.3252C37.0544 34.9262 34.9464 37.0342 32.3464 37.0342 29.7444 37.0342 27.6354 34.9262 27.6354 32.3252 27.6354 29.7232 29.7444 27.6142 32.3464 27.6142 34.9464 27.6142 37.0544 29.7232 37.0544 32.3252M64.7223 18.5176C64.7223 21.1196 62.6133 23.2276 60.0113 23.2276 57.4103 23.2276 55.3003 21.1196 55.3003 18.5176 55.3003 15.9156 57.4103 13.8066 60.0113 13.8066 62.6133 13.8066 64.7223 15.9156 64.7223 18.5176M9.4645 18.5176C9.4645 21.1196 7.3555 23.2276 4.7535 23.2276 2.1525 23.2276.0445 21.1196.0445 18.5176.0445 15.9156 2.1525 13.8066 4.7535 13.8066 7.3555 13.8066 9.4645 15.9156 9.4645 18.5176M23.2614 11.6133C23.2614 14.2163 21.1534 16.3243 18.5534 16.3243 15.9504 16.3243 13.8424 14.2163 13.8424 11.6133 13.8424 9.0113 15.9504 6.9033 18.5534 6.9033 21.1534 6.9033 23.2614 9.0113 23.2614 11.6133M23.2614 25.4209C23.2614 28.0229 21.1534 30.1309 18.5534 30.1309 15.9504 30.1309 13.8424 28.0229 13.8424 25.4209 13.8424 22.8189 15.9504 20.7109 18.5534 20.7109 21.1534 20.7109 23.2614 22.8189 23.2614 25.4209M50.8639 11.6133C50.8639 14.2163 48.7549 16.3243 46.1529 16.3243 43.5529 16.3243 41.4439 14.2163 41.4439 11.6133 41.4439 9.0113 43.5529 6.9033 46.1529 6.9033 48.7549 6.9033 50.8639 9.0113 50.8639 11.6133M50.8639 25.4209C50.8639 28.0229 48.7549 30.1309 46.1529 30.1309 43.5529 30.1309 41.4439 28.0229 41.4439 25.4209 41.4439 22.8189 43.5529 20.7109 46.1529 20.7109 48.7549 20.7109 50.8639 22.8189 50.8639 25.4209"/>
  </g>
</svg>
