<svg xmlns="http://www.w3.org/2000/svg" width="678" height="211" viewBox="0 0 678 211" xmlns:xlink="http://www.w3.org/1999/xlink">
  <defs>
    <rect id="a" width="33.632" height="33.194" x=".089" y=".307"/>
    <rect id="c" width="36.657" height="35.084" x=".327" y=".212"/>
    <rect id="e" width="1.062" height="11.864" x=".067" y=".029"/>
    <rect id="g" width="1.062" height="1.017" x=".267" y=".007"/>
    <rect id="i" width="1.062" height="1.017" x=".118" y=".134"/>
    <rect id="k" width="44.295" height="24.05" x=".05" y=".16"/>
    <rect id="m" width="2.817" height="2.696" x=".108" y=".122"/>
    <rect id="o" width="8.188" height="7.837" x=".059" y=".104"/>
    <rect id="q" width="8.184" height="7.867" x=".088" y=".125"/>
    <rect id="s" width="11.644" height="13.941" x=".031" y=".101"/>
    <rect id="u" width="8.16" height="7.837" x=".054" y=".104"/>
    <rect id="w" width="8.158" height="6.747" x=".075" y=".177"/>
    <rect id="y" width="27.241" height="14.047" x=".138" y=".002"/>
    <rect id="A" width="119.925" height="114.927" x=".034" y=".063"/>
    <rect id="C" width="33.62" height="33.225" x=".089" y=".308"/>
    <rect id="E" width="36.645" height="35.118" x=".327" y=".213"/>
    <rect id="G" width="1.062" height="11.875" x=".067" y=".029"/>
    <rect id="I" width="1.062" height="1.018" x=".266" y=".007"/>
    <rect id="K" width="1.062" height="1.018" x=".118" y=".135"/>
    <rect id="M" width="44.28" height="24.073" x=".05" y=".16"/>
    <rect id="O" width="2.816" height="2.699" x=".108" y=".122"/>
    <rect id="Q" width="8.186" height="7.845" x=".059" y=".104"/>
    <rect id="S" width="8.181" height="7.875" x=".088" y=".125"/>
    <rect id="U" width="11.64" height="13.954" x=".031" y=".101"/>
    <rect id="W" width="8.157" height="7.845" x=".054" y=".104"/>
    <rect id="Y" width="8.156" height="6.753" x=".075" y=".177"/>
    <rect id="aa" width="27.231" height="14.06" x=".138" y=".002"/>
    <rect id="ac" width="41.674" height="39.506" x=".032" y=".07"/>
    <rect id="ae" width="1" height="1" x=".306" y=".009"/>
    <rect id="ag" width="1" height="1" x=".135" y=".162"/>
    <rect id="ai" width="56.949" height="32.035" x=".063" y=".212"/>
    <rect id="ak" width="3.776" height="3.794" x=".144" y=".172"/>
    <rect id="am" width="10.584" height="10.635" x=".076" y=".141"/>
    <rect id="ao" width="10.578" height="10.677" x=".114" y=".17"/>
    <rect id="aq" width="15.202" height="18.619" x=".041" y=".135"/>
    <rect id="as" width="11.133" height="10.635" x=".074" y=".141"/>
    <rect id="au" width="11.13" height="8.721" x=".102" y=".23"/>
    <rect id="aw" width="54.955" height="54.53" x=".043" y=".097"/>
  </defs>
  <g fill="none" fill-rule="evenodd">
    <g transform="translate(407 53)">
      <g transform="translate(0 37)">
        <path fill="#39BA91" fill-rule="nonzero" d="M43.399871,28.4683098 C36.4948138,28.4683098 30.8968159,33.8263119 30.8968159,40.4349612 C30.8968159,44.2402461 32.7548531,47.628242 35.6476458,49.8195422 L53.2053645,33.0155093 C50.9157811,30.2465887 47.3758285,28.4683098 43.399871,28.4683098"/>
        <path stroke="#A9CAD3" stroke-width=".2" d="M33.0214397,52.5354704 C35.8158011,54.6528713 39.3451108,55.9198943 43.1857347,55.9198943 C52.2398165,55.9198943 59.5792354,48.8953425 59.5792354,40.2303097 C59.5792354,36.554141 58.2547705,33.1765523 56.0424595,30.5017605"/>
        <rect width="1.062" height="72.187" x="42.582" y="4.067" fill="#E5E5E5" fill-rule="nonzero"/>
        <g opacity=".16" transform="translate(23.46 21.351)">
          <mask id="b" fill="white">
            <use xlink:href="#a"/>
          </mask>
          <path fill="#FFFFFF" fill-rule="nonzero" d="M0.0885804634,20.7967163 C0.0885804634,25.5972241 1.7657257,30.0089811 4.56728715,33.5012861 L33.7203925,4.72695169 C30.1820769,1.96214306 25.7121956,0.306806651 20.8484418,0.306806651 C9.38331872,0.306806651 0.0885804634,9.4803578 0.0885804634,20.7967163" mask="url(#b)"/>
        </g>
        <g opacity=".13" transform="translate(21.336 20.334)">
          <mask id="d" fill="white">
            <use xlink:href="#c"/>
          </mask>
          <path stroke="#FFFFFF" stroke-width=".2" d="M36.9634222,4.90920888 C33.1124008,1.99120711 28.2479527,0.244373987 22.9544434,0.244373987 C10.4761339,0.244373987 0.360621964,9.92580373 0.360621964,21.8686376 C0.360621964,26.9349891 2.18610614,31.5900615 5.23527013,35.2764558" mask="url(#d)"/>
        </g>
        <path fill="#FFFFFF" fill-rule="nonzero" d="M57.4546118,41.3343617 C57.4546118,38.3938514 56.3949724,35.691536 54.625455,33.5519366 L36.2083752,51.1786931 C38.4439068,52.8722761 41.2673848,53.8864436 44.3400716,53.8864436 C51.5828335,53.8864436 57.4546118,48.2666382 57.4546118,41.3343617"/>
        <g opacity=".67" transform="translate(43.645 41.685)">
          <mask id="f" fill="white">
            <use xlink:href="#e"/>
          </mask>
          <polygon fill="#E5F5F9" fill-rule="nonzero" points="1.017 11.854 .067 11.892 .067 .885 1.002 .029" mask="url(#f)"/>
        </g>
        <path fill="#FFFFFF" fill-rule="nonzero" d="M68.9116346,71.5544319 C71.4261308,74.6553015 73.3186498,78.221411 74.3981666,82.0105595 C75.5052537,85.7934256 75.7678294,89.7880215 75.2774687,93.6824071 C74.7805428,97.5793054 73.4656919,101.378821 71.4340081,104.790373 C69.4062627,108.204127 66.6702177,111.229288 63.4339649,113.643134 C60.200338,116.060122 56.4655186,117.86234 52.5075091,118.901513 C48.5504845,119.940685 44.3791319,120.230008 40.3065737,119.744977 C36.2323742,119.268427 32.2602515,118.010299 28.6918397,116.067034 C25.1188329,114.130679 21.9590555,111.50416 19.4373384,108.404233 C16.9146368,105.304305 15.0345905,101.727201 13.9508069,97.9374241 C12.8620999,94.1485895 12.5745788,90.1555646 13.0764278,86.2577232 C13.5766356,82.3592546 14.8947686,78.5587968 16.9294066,75.1481861 C18.960106,71.735062 21.6991049,68.7108425 24.9366706,66.2991949 C28.1719387,63.8844058 31.9080711,62.0850157 35.8654239,61.04867 C39.8224486,60.0016436 43.9908472,59.7449917 48.0630772,60.207719 C52.1346508,60.6962058 56.0979117,61.9584176 59.6676364,63.8932017 C63.2255451,65.8487191 66.380071,68.4648715 68.9116346,71.5544319 M68.9116346,71.5544319 C66.3777734,68.466128 63.2219346,65.853117 59.6636976,63.900427 C56.0936448,61.9681559 52.1303839,60.7087712 48.0607797,60.2237401 C43.9905189,59.7638401 39.8250744,60.0230051 35.8719884,61.0722305 C31.9185741,62.1098327 28.187365,63.909851 24.9573484,66.324326 C21.7243779,68.7359737 18.9916152,71.7579942 16.9658391,75.1679766 C14.9364527,78.57576 13.6225866,82.3708778 13.1263172,86.2640063 C12.6280788,90.1555646 12.9182255,94.1419924 14.0072608,97.9229737 C15.0913727,101.70427 16.9704341,105.273206 19.4898536,108.364965 C22.0050063,111.459238 25.1555936,114.083557 28.7207231,116.018028 C32.2809294,117.960037 36.2455032,119.218479 40.3128098,119.696913 C44.3788037,120.184458 48.54392,119.897648 52.4963496,118.86256 C56.4497639,117.82747 60.1813013,116.030279 63.4132871,113.617689 C66.6478988,111.208555 69.3839437,108.18779 71.4116891,104.778121 C73.4446859,101.371281 74.7615064,97.5752217 75.260729,93.6802076 C75.7533879,89.7883354 75.4944224,85.7953105 74.3899607,82.0127583 C73.3137261,78.2232959 71.4241614,74.6568717 68.9116346,71.5544319"/>
        <path fill="#FFFFFF" fill-rule="nonzero" d="M26.6475686,64.5622167 C26.6475686,63.7198798 27.3607681,63.0369719 28.2408725,63.0369719 C29.1209769,63.0369719 29.8345041,63.7198798 29.8345041,64.5622167 C29.8345041,65.4045536 29.1209769,66.0871479 28.2408725,66.0871479 C27.3607681,66.0871479 26.6475686,65.4045536 26.6475686,64.5622167"/>
        <path fill="#7DACBC" fill-rule="nonzero" d="M65.9531065,79.3045778 C66.1373609,79.6393895 66.3141511,79.9786705 66.4842624,80.3213027 C66.3141511,79.9786705 66.1373609,79.6393895 65.9531065,79.3045778 M65.9531065,79.3045778 C65.3445039,77.86734 64.6322539,76.5061398 63.8284828,75.2376761 C64.6322539,76.5061398 65.3445039,77.86734 65.9531065,79.3045778 M68.0777302,83.3714788 C68.4946766,84.0355383 68.8487805,84.7141141 69.140042,85.4049293 C68.8487805,84.7141141 68.4946766,84.0355383 68.0777302,83.3714788 M68.0777302,85.4049293 C68.3059094,86.0719244 68.4839082,86.7502244 68.608886,87.4383805 C68.4839082,86.7502244 68.3059094,86.0719244 68.0777302,85.4049293 M67.0154183,81.3380283 C67.2009236,81.6734868 67.3784453,82.0121576 67.5465742,82.3547532 C67.3784453,82.0121576 67.2009236,81.6734868 67.0154183,81.3380283"/>
        <path fill="#A1D1E1" fill-rule="nonzero" d="M63.8284828,76.2544017 C62.5727896,74.7621578 61.1468524,73.3990002 59.5792354,72.1875 C61.1468524,73.3990002 62.5727896,74.7621578 63.8284828,76.2544017"/>
        <g opacity=".8" transform="translate(69.14 87.439)">
          <mask id="h" fill="white">
            <use xlink:href="#g"/>
          </mask>
          <path fill="#E6F9FF" fill-rule="nonzero" d="M0.266109114,0.00762544017 C0.280450324,0.127090669 0.293729222,0.24706426 0.306476964,0.366021127 C0.293729222,0.24706426 0.280450324,0.127090669 0.266109114,0.00762544017" mask="url(#h)"/>
        </g>
        <path fill="#E6F9FF" fill-rule="nonzero" d="M56.4709111,82.1566376 L60.4400116,78.3578612 L56.4709111,82.1566376 Z" opacity=".8"/>
        <g opacity=".8" transform="translate(68.078 85.405)">
          <mask id="j" fill="white">
            <use xlink:href="#i"/>
          </mask>
          <path fill="#E6F9FF" fill-rule="nonzero" d="M0.117916614,0.134207747 C0.146067877,0.258756602 0.174750297,0.383305458 0.201308092,0.508362676 C0.174750297,0.383305458 0.146067877,0.258756602 0.117916614,0.134207747" mask="url(#j)"/>
        </g>
        <path stroke="#124354" stroke-width=".35" d="M0.0897728312,90.4885566 L81.8877837,90.4885566"/>
        <path fill="#7DACBC" fill-rule="nonzero" d="M60.813275,77.9730622 L56.3923,82.0190568 C57.8699022,84.1771068 58.7248224,86.7277822 58.7248224,89.4619302 C58.7248224,89.4653334 58.7244843,89.4687373 58.7244843,89.471831 L69.140042,89.471831 C69.140042,88.6692534 69.0944057,87.8759568 69.0075277,87.0937998 C68.9994145,87.0210907 68.9906254,86.9483824 68.9821741,86.8759837 C68.8925918,86.1411637 68.7654862,85.4171729 68.6025477,84.7052488 C68.5856453,84.6291366 68.5673907,84.5533339 68.5494743,84.477532 C68.3692954,83.7266232 68.1502412,82.989019 67.8923115,82.2671941 C67.7841366,81.9646032 67.6695387,81.6651059 67.548518,81.3680839 C67.4274972,81.071681 67.3000536,80.7777527 67.1661871,80.4869188 C67.0323207,80.1960849 66.8920312,79.9083454 66.7459951,79.6236995 C66.5996209,79.3390529 66.4471618,79.057192 66.2889559,78.7790429 C65.5763535,77.5275293 64.7427301,76.3422263 63.8016081,75.2376761 L60.813275,77.9730622 L60.813275,77.9730622 Z"/>
        <path fill="#39BA91" fill-rule="nonzero" d="M43.1431685,76.7168751 C48.4132108,76.7168751 53.0368873,79.4895995 55.6437985,83.6587844 L59.8934342,79.3987171 L62.766171,76.5188232 C61.6947441,75.1406049 60.4780556,73.881608 59.140478,72.7626808 C58.9493956,72.6030667 58.7557134,72.4460585 58.5597562,72.291982 C54.42516,69.0426956 49.2162122,67.1038733 43.5549058,67.1038733 C42.504602,67.1038733 41.4698969,67.1703248 40.4540398,67.2999705 C40.0481521,67.351438 39.645189,67.413329 39.2451507,67.4849925 C38.6459056,67.592162 38.0541347,67.721482 37.4708131,67.8719753 C27.1650322,70.5300382 19.4996343,79.7827683 19.2191851,90.8752946 C19.2139857,91.0847473 19.2113858,91.2945263 19.2113858,91.5052815 L28.400894,91.5052815 L28.400894,91.4948576 C28.400894,83.3330415 35.0007144,76.7168751 43.1431685,76.7168751"/>
        <g opacity=".8" transform="translate(19.211 66.088)">
          <mask id="l" fill="white">
            <use xlink:href="#k"/>
          </mask>
          <path fill="#E6F9FF" fill-rule="nonzero" d="M24.3883662,9.63470349 C29.7480363,9.63470349 34.4503478,12.3676612 37.1015948,16.477051 L41.4235043,12.2780824 L44.345098,9.43949224 C43.2554492,8.08104015 42.0180684,6.84010008 40.6577428,5.73722063 C40.4634105,5.57989575 40.2664342,5.42513946 40.0671446,5.2732728 C35.8622311,2.07058794 30.5646944,0.159572368 24.8071059,0.159572368 C23.7389396,0.159572368 22.686637,0.225070886 21.6535034,0.352857209 C21.2407127,0.403586453 20.8308963,0.464589974 20.4240545,0.53522563 C19.8146181,0.640858043 19.212783,0.768323298 18.6195409,0.916658173 C8.13848902,3.53659886 0.342725404,12.6566253 0.0575064805,23.5900616 C0.0522185284,23.7965104 0.0495745522,24.0032802 0.0495745522,24.2110132 L9.39536913,24.2110132 L9.39536913,24.200739 C9.39536913,16.1559798 16.107433,9.63470349 24.3883662,9.63470349" mask="url(#l)"/>
        </g>
        <path fill="#A1D1E1" fill-rule="nonzero" d="M63.8284828,75.2376761 L60.6415473,78.2878522 L63.8284828,75.2376761 Z"/>
        <g opacity=".8" transform="translate(60.641 75.238)">
          <mask id="n" fill="white">
            <use xlink:href="#m"/>
          </mask>
          <path fill="#E6F9FF" fill-rule="nonzero" d="M2.92465071,0.122007042 L0.107399726,2.81866769 L2.92465071,0.122007042 Z" mask="url(#n)"/>
        </g>
        <path fill="#FFFFFF" fill-rule="nonzero" d="M56.3923,82.3547532 L47.8938053,90.4885566 L56.3923,82.3547532 Z"/>
        <g opacity=".8" transform="translate(47.894 82.354)">
          <mask id="p" fill="white">
            <use xlink:href="#o"/>
          </mask>
          <path fill="#E6F9FF" fill-rule="nonzero" d="M8.24659928,0.103461972 L0.0581297035,7.94054363 L8.24659928,0.103461972 Z" mask="url(#p)"/>
        </g>
        <path fill="#FFFFFF" fill-rule="nonzero" d="M58.5169236,90.4777507 C58.5169236,87.4937583 57.6496043,84.7096661 56.1515075,82.3547532 L47.8938053,90.4885566 L58.5169236,90.4885566 C58.5169236,90.4851798 58.5169236,90.4814656 58.5169236,90.4777507"/>
        <g opacity=".8" transform="translate(56.393 75.238)">
          <mask id="r" fill="white">
            <use xlink:href="#q"/>
          </mask>
          <path fill="#E6F9FF" fill-rule="nonzero" d="M8.27175483,1.03580851 C8.03515672,0.726723998 7.79107998,0.422644908 7.53884462,0.124822589 L4.53377693,2.89094123 L0.0880444045,6.9819312 C0.311044905,7.30978602 0.518408175,7.64765166 0.712173853,7.99271261 L8.27175483,1.03580851 L8.27175483,1.03580851 Z" mask="url(#r)"/>
        </g>
        <path fill="#E5E5E5" fill-rule="nonzero" d="M59.1039018,89.4620166 C59.1039018,89.4653898 59.1039018,89.4687637 59.1039018,89.471831 L69.140042,89.471831 C69.140042,88.6762215 69.0960652,87.8898124 69.0123465,87.1144456 C69.0045285,87.042368 68.9963847,86.9702912 68.9879151,86.8979071 C68.9015904,86.1700807 68.7791071,85.4523754 68.6227454,84.746632 C68.6058062,84.6711812 68.5885413,84.5960371 68.5709506,84.5208922 C68.397324,83.7765037 68.1862356,83.0453027 67.9376858,82.3297449 C67.8340961,82.0297807 67.7233399,81.7328839 67.6067202,81.4384405 C67.4901004,81.144611 67.3669656,80.8532349 67.2386187,80.5649261 C67.1096203,80.2766173 66.9744326,79.9913759 66.8333813,79.709201 C66.6926558,79.4270261 66.5457409,79.147612 66.3929625,78.8718783 C65.8893475,77.9615583 65.3222107,77.0877366 64.6980671,76.2544017 L57.4546118,83.0744407 C58.5071214,84.9877076 59.1039018,87.1589188 59.1039018,89.4620166"/>
        <g opacity=".8" transform="translate(57.455 76.254)">
          <mask id="t" fill="white">
            <use xlink:href="#s"/>
          </mask>
          <path fill="#E6F9FF" fill-rule="nonzero" d="M1.67458706,14.0316417 C1.67458706,14.0352003 1.67458706,14.0387588 1.67458706,14.0419938 L11.6750431,14.0419938 C11.6750431,13.2028257 11.6312227,12.3733627 11.5478017,11.5555458 C11.5400115,11.4795225 11.5318966,11.4034991 11.5234571,11.3271523 C11.4374394,10.5594784 11.3153916,9.80248017 11.1595858,9.05809859 C11.1427068,8.97851671 11.1255033,8.89925839 11.1079752,8.82 C10.9349659,8.03485698 10.7246282,7.26362456 10.4769619,6.50889084 C10.3737406,6.1925044 10.2633782,5.87935299 10.1471731,5.56878961 C10.030968,5.25887325 9.908271,4.9515449 9.78038044,4.64745159 C9.65184068,4.34335827 9.51713371,4.0425 9.37658388,3.74487676 C9.23635876,3.44725351 9.08996628,3.15254181 8.93773108,2.86171215 C8.43590675,1.9015537 7.8707864,0.979892166 7.24886184,0.100933098 L0.031161147,7.2943574 C1.0799285,9.31237237 1.67458706,11.6024538 1.67458706,14.0316417" mask="url(#t)"/>
        </g>
        <g opacity=".8" transform="translate(47.894 82.354)">
          <mask id="v" fill="white">
            <use xlink:href="#u"/>
          </mask>
          <path fill="#E6F9FF" fill-rule="nonzero" d="M7.63574006,0.103461972 L0.0538237996,7.94054363 L1.64870797,7.94054363 L8.2136377,1.15434929 C8.03391032,0.795485912 7.84222199,0.444430986 7.63574006,0.103461972" mask="url(#v)"/>
        </g>
        <path fill="#E5E5E5" fill-rule="nonzero" d="M58.5169236,89.4624717 C58.5169236,87.26631 57.9162585,85.1959105 56.8568975,83.3714788 L50.018429,89.471831 L58.5169236,89.471831 C58.5169236,89.4689063 58.5169236,89.465689 58.5169236,89.4624717"/>
        <g opacity=".8" transform="translate(50.019 83.371)">
          <mask id="x" fill="white">
            <use xlink:href="#w"/>
          </mask>
          <path fill="#E6F9FF" fill-rule="nonzero" d="M8.23378232,6.91456426 C8.23378232,4.48537632 7.65714367,2.1952949 6.64015717,0.177279929 L0.0752274157,6.92491638 L8.23378232,6.92491638 C8.23378232,6.92168134 8.23378232,6.9181228 8.23378232,6.91456426" mask="url(#x)"/>
        </g>
        <path fill="#FFFFFF" fill-rule="nonzero" d="M43.7185873,76.2544017 C35.4633934,76.2544017 28.7721923,82.6226012 28.7721923,90.4785234 L28.7721923,90.4885566 L48.4560328,90.4885566 L56.3923,82.9361363 C53.7492936,78.9232076 49.0615981,76.2544017 43.7185873,76.2544017"/>
        <g opacity=".8" transform="translate(28.772 76.254)">
          <mask id="z" fill="white">
            <use xlink:href="#y"/>
          </mask>
          <path fill="#E6F9FF" fill-rule="nonzero" d="M14.8800893,0.00247550521 C6.73833144,0.00247550521 0.139075366,6.28747379 0.139075366,14.0407561 L0.139075366,14.050658 L19.5524366,14.050658 L27.3796503,6.59691193 C24.7729619,2.63641305 20.1496809,0.00247550521 14.8800893,0.00247550521" mask="url(#z)"/>
        </g>
        <path fill="#39BA91" fill-rule="nonzero" d="M43.1098052,4.28506834e-15 C41.0584842,4.28506834e-15 39.3953107,1.59180262 39.3953107,3.55479467 C39.3953107,4.55317665 39.8259903,5.4544644 40.5178505,6.10035211 L45.7691816,1.07436877 C45.0946496,0.412198178 44.152321,0 43.1098052,0"/>
        <path fill="#074354" fill-rule="nonzero" d="M43.0774185,7.11707747 C45.150455,7.11707747 46.8314935,5.50817665 46.8314935,3.52379452 C46.8314935,2.54821362 46.4248471,1.66436965 45.7653604,1.01672535 L40.4576225,6.09669483 C41.1339865,6.72757656 42.0577775,7.11707747 43.0774185,7.11707747"/>
        <rect width="60.552" height="1.017" x="14.962" y="87.438" fill="#7DACBC" fill-rule="nonzero"/>
        <path stroke="#124354" stroke-width=".2" d="M20.2736976,85.4049293 L69.140042,85.4049293"/>
      </g>
      <g transform="translate(82 10)">
        <g opacity=".56" transform="translate(0 15.265)">
          <mask id="B" fill="white">
            <use xlink:href="#A"/>
          </mask>
          <path stroke="#E5E5E5" stroke-width=".14" d="M0.0568767123,57.5264592 C0.0568767123,25.8022487 26.8924932,0.0850675517 59.9963835,0.0850675517 C93.0996161,0.0850675517 119.93589,25.8022487 119.93589,57.5264592 C119.93589,89.2506694 93.0996161,114.967851 59.9963835,114.967851 C26.8924932,114.967851 0.0568767123,89.2506694 0.0568767123,57.5264592 Z" mask="url(#B)"/>
        </g>
        <path fill="#39BA91" fill-rule="nonzero" d="M60.2863706,28.4952598 C53.3836854,28.4952598 47.7876106,33.858334 47.7876106,40.4732397 C47.7876106,44.2821269 49.6450095,47.67333 52.5368084,49.8667047 L70.0884956,33.046764 C67.7996988,30.275222 64.2609622,28.4952598 60.2863706,28.4952598"/>
        <path stroke="#A9CAD3" stroke-width=".2" d="M49.9115044,52.5852039 C52.7049059,54.7046093 56.2330032,55.9728318 60.0723078,55.9728318 C69.1232793,55.9728318 76.4601768,48.94163 76.4601768,40.2683944 C76.4601768,36.5887455 75.1361671,33.2079594 72.924616,30.5306355"/>
        <rect width="1.062" height="72.256" x="59.469" y="4.071" fill="#E5E5E5" fill-rule="nonzero"/>
        <g opacity=".16" transform="translate(40.354 21.372)">
          <mask id="D" fill="white">
            <use xlink:href="#C"/>
          </mask>
          <path fill="#FFFFFF" fill-rule="nonzero" d="M0.0885500341,20.8164038 C0.0885500341,25.6214561 1.76511913,30.0373896 4.56571818,33.5330006 L33.7088087,4.73142653 C30.1717087,1.96400055 25.7033628,0.307097094 20.8412798,0.307097094 C9.38009532,0.307097094 0.0885500341,9.48933252 0.0885500341,20.8164038" mask="url(#D)"/>
        </g>
        <g opacity=".13" transform="translate(38.23 20.354)">
          <mask id="F" fill="white">
            <use xlink:href="#E"/>
          </mask>
          <path stroke="#FFFFFF" stroke-width=".2" d="M36.9507244,4.91385625 C33.1010259,1.99309213 28.2382489,0.244605328 22.946558,0.244605328 C10.4725351,0.244605328 0.360498082,9.93520014 0.360498082,21.8893399 C0.360498082,26.9604875 2.18535516,31.6199668 5.23347169,35.3098508" mask="url(#F)"/>
        </g>
        <path fill="#FFFFFF" fill-rule="nonzero" d="M74.3362829,41.3734916 C74.3362829,38.4301975 73.2770078,35.725324 71.5080982,33.5836991 L53.0973451,51.2271422 C55.3321089,52.9223284 58.1546169,53.9374561 61.2262482,53.9374561 C68.4665219,53.9374561 74.3362829,48.3123305 74.3362829,41.3734916"/>
        <g opacity=".67" transform="translate(60.531 41.725)">
          <mask id="H" fill="white">
            <use xlink:href="#G"/>
          </mask>
          <polygon fill="#E5F5F9" fill-rule="nonzero" points="1.016 11.865 .067 11.903 .067 .886 1.002 .029" mask="url(#H)"/>
        </g>
        <path fill="#FFFFFF" fill-rule="nonzero" d="M85.7893705,71.62217 C88.3030024,74.7259745 90.1948712,78.2954603 91.2740173,82.0881959 C92.3807239,85.8746434 92.64321,89.8730203 92.1530173,93.7710923 C91.6562627,97.6716799 90.3418632,101.474792 88.3108771,104.889575 C86.2838283,108.306559 83.5487232,111.334585 80.3135824,113.750716 C77.0810663,116.169992 73.3475298,117.973916 69.39088,119.014073 C65.4352147,120.054229 61.2652951,120.343826 57.1941358,119.858335 C53.121336,119.381335 49.1505777,118.122016 45.5833918,116.176911 C42.0116124,114.238722 38.8529205,111.609717 36.3320696,108.506855 C33.8102346,105.403994 31.9308342,101.823503 30.8474229,98.0301378 C29.7590899,94.2377165 29.4716676,90.2409117 29.9733442,86.3393806 C30.4733802,82.4372211 31.7910603,78.6331658 33.8249993,75.2193257 C35.8550012,71.8029711 38.5930592,68.7758887 41.8295127,66.3619581 C45.0636694,63.944883 48.7985183,62.1437894 52.7545117,61.1064627 C56.7101771,60.0584451 60.8771437,59.8015503 64.9479749,60.2647156 C69.0181497,60.7536647 72.9800491,62.0170715 76.5485473,63.9536872 C80.1052339,65.9110558 83.2586759,68.5296848 85.7893705,71.62217 M85.7893705,71.62217 C83.2563798,68.5309426 80.1016251,65.9154579 76.54461,63.9609193 C72.9757837,62.026819 69.0138843,60.7662421 64.9456781,60.2807519 C60.8768156,59.8204165 56.712802,60.0798269 52.7610739,61.1300455 C48.8090177,62.16863 45.0790904,63.9703524 41.8501834,66.387113 C38.6183235,68.8010438 35.8864995,71.8259249 33.8614193,75.2391354 C31.8327301,78.650145 30.5193153,82.4488551 30.0232165,86.3456694 C29.5251492,90.2409117 29.8151963,94.2311136 30.9038574,98.0156741 C31.9875969,101.800549 33.8660128,105.372864 36.3845669,108.46755 C38.8988555,111.564752 42.0483604,114.191556 45.6122652,116.127858 C49.1712485,118.071706 53.1344604,119.331339 57.2003699,119.810226 C61.2649669,120.298232 65.4286525,120.011151 69.3797243,118.975083 C73.3317805,117.939014 77.0620361,116.140121 80.2929117,113.725246 C83.526412,111.313832 86.2615171,108.290208 88.2885659,104.877311 C90.3208646,101.467246 91.6372324,97.6675924 92.1362839,93.7688918 C92.6287734,89.8733353 92.3698961,85.8765297 91.2658141,82.0903971 C90.1899498,78.2973473 88.3010341,74.7275473 85.7893705,71.62217"/>
        <path fill="#FFFFFF" fill-rule="nonzero" d="M43.539823,64.6233356 C43.539823,63.7802012 44.2527774,63.0966468 45.1325795,63.0966468 C46.0123816,63.0966468 46.7256637,63.7802012 46.7256637,64.6233356 C46.7256637,65.4664699 46.0123816,66.1497103 45.1325795,66.1497103 C44.2527774,66.1497103 43.539823,65.4664699 43.539823,64.6233356"/>
        <path fill="#7DACBC" fill-rule="nonzero" d="M82.8318585,79.3796524 C83.0160498,79.7147813 83.192779,80.0543833 83.3628322,80.3973406 C83.192779,80.0543833 83.0160498,79.7147813 82.8318585,79.3796524 M82.8318585,79.3796524 C82.2234651,77.9410545 81.5114598,76.5785655 80.7079646,75.308901 C81.5114598,76.5785655 82.2234651,77.9410545 82.8318585,79.3796524 M84.9557524,83.4504038 C85.3725556,84.1150919 85.726538,84.79431 86.017699,85.4857795 C85.726538,84.79431 85.3725556,84.1150919 84.9557524,83.4504038 M84.9557524,85.4857795 C85.1838534,86.1534063 85.3617907,86.8323484 85.4867254,87.5211552 C85.3617907,86.8323484 85.1838534,86.1534063 84.9557524,85.4857795"/>
        <path stroke="#124354" stroke-width=".35" d="M16.9911504,90.5742191 L98.7610617,90.5742191"/>
        <path fill="#7DACBC" fill-rule="nonzero" d="M83.8938051,81.4150281 C84.0792468,81.7508046 84.2567078,82.0897958 84.4247788,82.4327163 C84.2567078,82.0897958 84.0792468,81.7508046 83.8938051,81.4150281"/>
        <path fill="#A1D1E1" fill-rule="nonzero" d="M80.7079646,76.3265892 C79.4527024,74.8329324 78.0272554,73.4684843 76.4601768,72.2558374 C78.0272554,73.4684843 79.4527024,74.8329324 80.7079646,76.3265892"/>
        <g opacity=".8" transform="translate(86.018 87.521)">
          <mask id="J" fill="white">
            <use xlink:href="#I"/>
          </mask>
          <path fill="#E6F9FF" fill-rule="nonzero" d="M0.266017699,0.00763265885 C0.280353982,0.127210981 0.293628318,0.247298147 0.306371682,0.366367626 C0.293628318,0.247298147 0.280353982,0.127210981 0.266017699,0.00763265885" mask="url(#J)"/>
        </g>
        <path fill="#E6F9FF" fill-rule="nonzero" d="M73.3529202,82.2344125 L77.3206573,78.4320396 L73.3529202,82.2344125 Z" opacity=".8"/>
        <g opacity=".8" transform="translate(84.956 85.486)">
          <mask id="L" fill="white">
            <use xlink:href="#K"/>
          </mask>
          <path fill="#E6F9FF" fill-rule="nonzero" d="M0.117876106,0.134334796 C0.146017699,0.259001558 0.174690266,0.38366832 0.201238938,0.508843926 C0.174690266,0.38366832 0.146017699,0.259001558 0.117876106,0.134334796" mask="url(#L)"/>
        </g>
        <path fill="#7DACBC" fill-rule="nonzero" d="M77.6937929,78.0468761 L73.2743363,82.0967013 C74.751431,84.2567942 75.6060578,86.8098841 75.6060578,89.5466205 C75.6060578,89.5500273 75.6057198,89.553434 75.6057198,89.5565309 L86.017699,89.5565309 C86.017699,88.7531933 85.9720785,87.9591463 85.8852307,87.1762484 C85.8771198,87.1034713 85.8683341,87.0306934 85.8598859,86.9582261 C85.7703337,86.2227104 85.643272,85.4980346 85.4803895,84.7854358 C85.4634929,84.709252 85.4452449,84.6333779 85.4273341,84.5575039 C85.2472171,83.8058848 85.0282383,83.0675821 84.7703971,82.3450736 C84.6622595,82.0421957 84.5477012,81.7424155 84.4267222,81.4451125 C84.3057424,81.1484284 84.1783427,80.8542222 84.0445222,80.563113 C83.9107017,80.2720038 83.7704605,79.9839914 83.6244746,79.699076 C83.4781507,79.4141606 83.3257441,79.1320322 83.1675922,78.8536204 C82.4552349,77.6009219 81.6218978,76.4144968 80.6810993,75.308901 L77.6937929,78.0468761 L77.6937929,78.0468761 Z"/>
        <path fill="#39BA91" fill-rule="nonzero" d="M60.0297563,76.7895005 C65.2979881,76.7895005 69.9200762,79.5648496 72.5260919,83.7379812 L76.774268,79.4738811 L79.646018,76.5912607 C78.5749588,75.211738 77.3586885,73.9515489 76.0215702,72.8315627 C75.8305537,72.6717975 75.636938,72.5146407 75.4410483,72.3604184 C71.307872,69.1080559 66.1007137,67.1673982 60.4413522,67.1673982 C59.3914091,67.1673982 58.3570594,67.2339126 57.3415513,67.3636811 C56.935803,67.4151973 56.5329784,67.4771469 56.1330774,67.5488783 C55.5340381,67.6561492 54.9424706,67.7855915 54.3593494,67.9362274 C44.0571088,70.5968065 36.3943442,79.8582955 36.1139913,90.9613234 C36.1087936,91.1709742 36.1061947,91.3809517 36.1061947,91.5919066 L45.2925461,91.5919066 L45.2925461,91.581473 C45.2925461,83.4119295 51.8900993,76.7895005 60.0297563,76.7895005"/>
        <g opacity=".8" transform="translate(36.106 66.15)">
          <mask id="N" fill="white">
            <use xlink:href="#M"/>
          </mask>
          <path fill="#E6F9FF" fill-rule="nonzero" d="M24.3799882,9.64382435 C29.7378171,9.64382435 34.4385132,12.3793692 37.0888495,16.4926493 L41.4092743,12.2897057 L44.3298644,9.44842828 C43.2405899,8.08869016 42.0036342,6.84657537 40.6437758,5.74265186 C40.4495104,5.58517805 40.2526017,5.43027526 40.0533805,5.27826483 C35.8499115,2.07254809 30.5541948,0.159723429 24.798584,0.159723429 C23.7307847,0.159723429 22.6788436,0.225283953 21.6460649,0.353191248 C21.233416,0.403968514 20.8237404,0.465029785 20.4170383,0.53573231 C19.8078113,0.641464721 19.2061829,0.769050639 18.6131445,0.917525943 C8.1356932,3.53994684 0.342607669,12.6686069 0.0574867256,23.6123935 C0.05220059,23.8190377 0.0495575221,24.0260033 0.0495575221,24.2339329 L9.39214156,24.2339329 L9.39214156,24.223649 C9.39214156,16.1712742 16.1018997,9.64382435 24.3799882,9.64382435" mask="url(#N)"/>
        </g>
        <path fill="#A1D1E1" fill-rule="nonzero" d="M80.7079646,75.308901 L77.5221241,78.3619649 L80.7079646,75.308901 Z"/>
        <g opacity=".8" transform="translate(77.522 75.309)">
          <mask id="P" fill="white">
            <use xlink:href="#O"/>
          </mask>
          <path fill="#E6F9FF" fill-rule="nonzero" d="M2.92364602,0.122122542 L0.107362832,2.82133603 L2.92364602,0.122122542 Z" mask="url(#P)"/>
        </g>
        <path fill="#FFFFFF" fill-rule="nonzero" d="M73.2743363,82.4327163 L64.7787611,90.5742191 L73.2743363,82.4327163 Z"/>
        <g opacity=".8" transform="translate(64.779 82.433)">
          <mask id="R" fill="white">
            <use xlink:href="#Q"/>
          </mask>
          <path fill="#E6F9FF" fill-rule="nonzero" d="M8.24376637,0.103559916 L0.0581097345,7.9480607 L8.24376637,0.103559916 Z" mask="url(#R)"/>
        </g>
        <path fill="#FFFFFF" fill-rule="nonzero" d="M75.3982302,90.5634028 C75.3982302,87.5765859 74.531209,84.7898582 73.0336265,82.4327163 L64.7787611,90.5742191 L75.3982302,90.5742191 C75.3982302,90.5708389 75.3982302,90.5671208 75.3982302,90.5634028"/>
        <g opacity=".8" transform="translate(73.275 75.309)">
          <mask id="T" fill="white">
            <use xlink:href="#S"/>
          </mask>
          <path fill="#E6F9FF" fill-rule="nonzero" d="M8.26891324,1.03678907 C8.03239646,0.727411963 7.78840354,0.423045012 7.53625485,0.124940755 L4.53221947,2.89367798 L0.0880141595,6.98854075 C0.310938053,7.31670594 0.518230089,7.65489146 0.711929204,8.00027907 L8.26891324,1.03678907 L8.26891324,1.03678907 Z" mask="url(#T)"/>
        </g>
        <path fill="#E5E5E5" fill-rule="nonzero" d="M75.9850068,89.5467066 C75.9850068,89.5500839 75.9850068,89.5534605 75.9850068,89.5565309 L86.017699,89.5565309 C86.017699,88.7601679 85.9737373,87.9730147 85.8900476,87.196914 C85.8822322,87.1247683 85.8740912,87.0526227 85.8656246,86.9801708 C85.7793293,86.2516548 85.6568883,85.5332699 85.5005802,84.8268591 C85.4836471,84.7513361 85.4663876,84.6761207 85.4488032,84.6009054 C85.2752363,83.855812 85.0642207,83.1239194 84.8157556,82.4076835 C84.7122022,82.1074352 84.6014839,81.8102573 84.4849039,81.515536 C84.3683246,81.2214278 84.2452317,80.9297761 84.116929,80.6411942 C83.9879751,80.3526122 83.8528339,80.0671006 83.711831,79.7846588 C83.5711537,79.5022169 83.424289,79.2225385 83.2715634,78.9465436 C82.7681217,78.035362 82.2011795,77.1607133 81.5772505,76.3265892 L74.3362829,83.1530846 C75.3884312,85.0681625 75.9850068,87.241429 75.9850068,89.5467066"/>
        <g opacity=".8" transform="translate(74.336 76.326)">
          <mask id="V" fill="white">
            <use xlink:href="#U"/>
          </mask>
          <path fill="#E6F9FF" fill-rule="nonzero" d="M1.6740118,14.044925 C1.6740118,14.048487 1.6740118,14.0520488 1.6740118,14.0552869 L11.6710324,14.0552869 C11.6710324,13.2153244 11.6272271,12.3850761 11.5438348,11.566485 C11.5360472,11.4903897 11.5279351,11.4142944 11.5194986,11.3378754 C11.4335104,10.5694747 11.3115045,9.81175987 11.1557522,9.0666736 C11.138879,8.9870164 11.1216814,8.90768302 11.1041593,8.82834957 C10.9312095,8.04246328 10.720944,7.27050078 10.4733629,6.51505259 C10.370177,6.19836663 10.2598525,5.88491877 10.1436873,5.5740614 C10.0275221,5.26385164 9.90486724,4.95623236 9.77702063,4.65185117 C9.64852507,4.34746998 9.51386429,4.0463269 9.3733628,3.74842191 C9.23318583,3.45051691 9.08684363,3.15552622 8.93466073,2.86442123 C8.43300885,1.90335384 7.86808259,0.980819793 7.24637169,0.101028648 L0.0311504424,7.30126272 C1.07955752,9.32118806 1.6740118,11.6134374 1.6740118,14.044925" mask="url(#V)"/>
        </g>
        <g opacity=".8" transform="translate(64.779 82.433)">
          <mask id="X" fill="white">
            <use xlink:href="#W"/>
          </mask>
          <path fill="#E6F9FF" fill-rule="nonzero" d="M7.63311702,0.103559916 L0.0538053098,7.9480607 L1.6481416,7.9480607 L8.21081612,1.15544208 C8.03115044,0.796238975 7.839528,0.444851713 7.63311702,0.103559916" mask="url(#X)"/>
        </g>
        <path fill="#E5E5E5" fill-rule="nonzero" d="M75.3982302,89.5471629 C75.3982302,87.3489218 74.7977715,85.2765629 73.7387744,83.4504038 L66.9026549,89.5565309 L75.3982302,89.5565309 C75.3982302,89.5536033 75.3982302,89.5503835 75.3982302,89.5471629"/>
        <g opacity=".8" transform="translate(66.903 83.45)">
          <mask id="Z" fill="white">
            <use xlink:href="#Y"/>
          </mask>
          <path fill="#E6F9FF" fill-rule="nonzero" d="M8.2309538,6.92111004 C8.2309538,4.48962248 7.65451324,2.19737311 6.63787611,0.177447754 L0.0752015729,6.93147196 L8.2309538,6.93147196 C8.2309538,6.92823386 8.2309538,6.92467194 8.2309538,6.92111004" mask="url(#Z)"/>
        </g>
        <path fill="#FFFFFF" fill-rule="nonzero" d="M60.6049774,76.3265892 C52.3526193,76.3265892 45.6637168,82.7008174 45.6637168,90.5641763 L45.6637168,90.5742191 L65.3407954,90.5742191 L73.2743363,83.0146492 C70.6322379,78.9979213 65.9461527,76.3265892 60.6049774,76.3265892"/>
        <g opacity=".8" transform="translate(45.664 76.326)">
          <mask id="ab" fill="white">
            <use xlink:href="#aa"/>
          </mask>
          <path fill="#E6F9FF" fill-rule="nonzero" d="M14.8749776,0.00247784868 C6.73601666,0.00247784868 0.13902759,6.29342592 0.13902759,14.054048 L0.13902759,14.0639594 L19.5457199,14.0639594 L27.3702447,6.603157 C24.7644518,2.63890885 20.142759,0.00247784868 14.8749776,0.00247784868" mask="url(#ab)"/>
        </g>
        <path fill="#39BA91" fill-rule="nonzero" d="M59.9964044,4.28912487e-15 C57.945788,4.28912487e-15 56.2831859,1.59330952 56.2831859,3.55815987 C56.2831859,4.55748699 56.7137176,5.45962795 57.40534,6.10612711 L62.6548673,1.07538584 C61.980567,0.412588392 61.0385621,0 59.9964044,0"/>
        <path fill="#074354" fill-rule="nonzero" d="M59.9640288,7.12381496 C62.0363532,7.12381496 63.7168141,5.51339105 63.7168141,3.52713038 C63.7168141,2.55062593 63.3103075,1.66594525 62.6510473,1.01768785 L57.3451327,6.10246636 C58.0212644,6.73394533 58.9447381,7.12381496 59.9640288,7.12381496"/>
        <rect width="60.531" height="1.018" x="31.859" y="87.521" fill="#39BA91" fill-rule="nonzero"/>
        <path stroke="#124354" stroke-width=".2" d="M37.1681416,85.4857795 L86.017699,85.4857795"/>
      </g>
      <g transform="translate(193)">
        <rect width="48.875" height="1.022" x=".097" y="120.579" fill="#BADDE5" fill-rule="nonzero"/>
        <path fill="#E5E5E5" fill-rule="nonzero" d="M43.8472222,45.9782609 C43.8472222,43.1569113 46.2413653,40.8695652 49.1944444,40.8695652 C52.1475236,40.8695652 54.5416667,43.1569113 54.5416667,45.9782609 C54.5416667,48.7996104 52.1475236,51.0869565 49.1944444,51.0869565 C46.2413653,51.0869565 43.8472222,48.7996104 43.8472222,45.9782609 M19.25,56.1956522 C19.25,55.0672954 20.2075937,54.1521739 21.3890533,54.1521739 C22.5701841,54.1521739 23.5277778,55.0672954 23.5277778,56.1956522 C23.5277778,57.324009 22.5701841,58.2391304 21.3890533,58.2391304 C20.2075937,58.2391304 19.25,57.324009 19.25,56.1956522"/>
        <path fill="#39BA91" fill-rule="nonzero" d="M58.8194444,41.3804348 C58.8194444,39.9694405 60.0161815,38.8260869 61.4930556,38.8260869 C62.9692641,38.8260869 64.1666667,39.9694405 64.1666667,41.3804348 C64.1666667,42.7914291 62.9692641,43.9347826 61.4930556,43.9347826 C60.0161815,43.9347826 58.8194444,42.7914291 58.8194444,41.3804348 M48.5401759,47 C37.6791537,47 28.875,55.4117282 28.875,65.7882667 C28.875,71.8745202 31.9052967,77.2841827 36.6014868,80.717391 L64.1666667,54.3821335 C60.57284,49.8948161 54.9109192,47 48.5401759,47"/>
        <path fill="#074354" fill-rule="nonzero" d="M67.375,65.7310406 C67.375,61.3759783 65.8972639,57.3627882 63.4113938,54.1521739 L36.3611111,80.8866578 C39.6092979,83.343535 43.6704757,84.8043479 48.0769306,84.8043479 C58.7348861,84.8043479 67.375,76.2650038 67.375,65.7310406"/>
        <path fill="#074354" fill-rule="nonzero" d="M70.4888954,66.8945381 C70.4888954,62.1491275 68.822998,57.7752325 66.020905,54.276741 L35.5285784,83.4091911 C39.1904155,86.0862898 43.7678754,87.6781879 48.7348507,87.6781879 C60.7493757,87.6781879 70.4888954,78.3728121 70.4888954,66.8945381" opacity=".4"/>
        <g opacity=".18" transform="translate(33.153 50.065)">
          <mask id="ad" fill="white">
            <use xlink:href="#ac"/>
          </mask>
          <path fill="#7DACBC" fill-rule="nonzero" d="M41.7063782,14.9939029 C41.7063782,9.38122849 39.7203448,4.20842467 36.3804196,0.070119818 L0.0322587891,34.5279868 C4.39729655,37.6941901 9.85391959,39.5769227 15.7745479,39.5769227 C30.0967985,39.5769227 41.7063782,28.5705824 41.7063782,14.9939029" mask="url(#ad)"/>
        </g>
        <path fill="#39BA91" fill-rule="nonzero" d="M48.0899587,12.2608696 C42.7935147,12.2608696 38.5,16.3629393 38.5,21.4229065 C38.5,24.336797 39.9253008,26.9306612 42.1438125,28.6086956 L55.6111111,15.7422068 C53.8547622,13.6223055 51.1398414,12.2608696 48.0899587,12.2608696"/>
        <polygon fill="#FFFFFF" fill-rule="nonzero" points="49.194 100.131 48.125 100.131 48.634 0 48.626 0"/>
        <path fill="#074354" fill-rule="nonzero" d="M57.75,21.8226558 C57.75,19.753566 57.0031962,17.852646 55.7560087,16.3478261 L42.7777778,28.7476503 C44.3531064,29.9392538 46.3430117,30.6521739 48.5079884,30.6521739 C53.6117765,30.6521739 57.75,26.698981 57.75,21.8226558"/>
        <path stroke="#FFFFFF" stroke-width=".12" d="M19.25,66.413198 C19.25,51.1771832 32.1777726,38.8260869 48.1251617,38.8260869 C64.0722274,38.8260869 77,51.1771832 77,66.413198 C77,81.6489038 64.0722274,94 48.1251617,94 C32.1777726,94 19.25,81.6489038 19.25,66.413198 Z"/>
        <path stroke="#124354" stroke-width=".29" d="M17.1111111,139.978261 L48.125,139.978261"/>
        <g fill-rule="nonzero" transform="translate(23.528 99.109)">
          <path fill="#E6F9FF" d="M28.7318033,0.662065761 C27.2235985,0.307610742 25.6625141,0.0833828102 24.0625,0 C22.4624859,0.0833828102 20.9014015,0.307610742 19.3928723,0.662065761 C11.8677449,2.43090561 5.65520008,7.41982097 2.41883729,14.0258007 C0.851589045,17.2589926 0,20.7641935 0,24.4614561 C0,26.971997 0.393190827,29.3935337 1.12182664,31.6739131 L47.0028489,31.6739131 C47.7318091,29.3935337 48.125,26.971997 48.125,24.4614561 C48.125,12.9402627 39.8631264,3.2781624 28.7318033,0.662065761 Z"/>
          <path fill="#124354" d="M9.62513719,11.5730912 C8.63848533,11.5730912 7.83539028,12.3401001 7.83539028,13.2827398 C7.83539028,14.2251174 8.63848533,14.9923883 9.62513719,14.9923883 C10.6117891,14.9923883 11.4143354,14.2251174 11.4143354,13.2827398 C11.4143354,12.3401001 10.6117891,11.5730912 9.62513719,11.5730912 M9.62513719,15.3260869 C8.44559981,15.3260869 7.4861111,14.4096608 7.4861111,13.2827398 C7.4861111,12.1560808 8.44559981,11.2391304 9.62513719,11.2391304 C10.8046746,11.2391304 11.7638889,12.1560808 11.7638889,13.2827398 C11.7638889,14.4096608 10.8046746,15.3260869 9.62513719,15.3260869"/>
          <polygon fill="#124354" points="2.139 13.283 7.486 13.283 7.486 13.736 2.139 13.736"/>
          <path fill="#124354" d="M7.48597391,17.703526 C6.49932208,17.703526 5.69677574,18.4705348 5.69677574,19.4131746 C5.69677574,20.3555522 6.49932208,21.1228231 7.48597391,21.1228231 C8.47262577,21.1228231 9.27572089,20.3555522 9.27572089,19.4131746 C9.27572089,18.4705348 8.47262577,17.703526 7.48597391,17.703526 M7.48597391,21.4565217 C6.30643658,21.4565217 5.34722222,20.5398334 5.34722222,19.4131746 C5.34722222,18.2859913 6.30643658,17.3695652 7.48597391,17.3695652 C8.66551129,17.3695652 9.625,18.2859913 9.625,19.4131746 C9.625,20.5398334 8.66551129,21.4565217 7.48597391,21.4565217"/>
          <polygon fill="#124354" points="0 19.413 5.347 19.413 5.347 19.867 0 19.867"/>
        </g>
        <path fill="#124354" fill-rule="nonzero" d="M26.7361111,113.413044 L26.7361111,113.560685 C26.7607083,113.511641 26.7842361,113.462087 26.8082986,113.413044 L26.7361111,113.413044 Z"/>
        <path fill="#B8D6DD" fill-rule="nonzero" d="M54.4715339,99.8027265 C52.537549,99.350259 50.5169487,99.1086958 48.4375273,99.1086958 C47.9737458,99.1086958 47.5131963,99.1226321 47.0555556,99.1461688 C48.6495416,99.228858 50.2047447,99.4509109 51.7072672,99.8027265 C62.7966531,102.397367 71.0274,111.978772 71.0274,123.404111 C71.0274,125.893766 70.6356906,128.294845 69.9094767,130.556563 C69.0468755,133.244423 67.7114436,135.733767 65.9946442,137.934783 L68.7589109,137.934783 C70.4757102,135.733767 71.810819,133.244423 72.6737434,130.556563 C73.399634,128.294845 73.7916667,125.893766 73.7916667,123.404111 C73.7916667,111.978772 65.5605965,102.397367 54.4715339,99.8027265"/>
        <path fill="#E6F9FF" fill-rule="nonzero" d="M66.4674157,138.872167 C68.1753333,136.548487 69.5044283,133.920737 70.3624071,131.082755 L24.8827863,131.082755 C25.7410865,133.920737 27.0698601,136.548487 28.7777778,138.872167 L66.4674157,138.872167 L66.4674157,138.872167 Z" opacity=".76"/>
      </g>
    </g>
    <g fill-rule="nonzero" transform="translate(221 107)">
      <path fill="#6594A4" d="M146.30462,79.8191993 L85.1626065,79.8191993 C84.7928145,79.8191993 84.4927295,79.5186319 84.4927295,79.1468662 L84.4927295,77.2108712 C84.4927295,76.8391055 84.7928145,76.5381116 85.1626065,76.5381116 L146.30462,76.5381116 C146.674837,76.5381116 146.974922,76.8391055 146.974922,77.2108712 L146.974922,79.1468662 C146.974922,79.5186319 146.674837,79.8191993 146.30462,79.8191993 M106.803123,75.3571585 L65.4985682,75.3571585 C65.2486392,75.3571585 65.045466,75.154222 65.045466,74.9031098 L65.045466,73.5951089 C65.045466,73.3439966 65.2486392,73.1410602 65.4985682,73.1410602 L106.803123,73.1410602 C107.053051,73.1410602 107.2558,73.3439966 107.2558,73.5951089 L107.2558,74.9031098 C107.2558,75.154222 107.053051,75.3571585 106.803123,75.3571585"/>
      <path fill="#B8D6DD" d="M56.4322747,1.39156327 C52.9630252,0.541874055 49.3399082,0.0886780513 45.6109539,0.0886780513 C44.7791332,0.0886780513 43.9532631,0.114258259 43.1320686,0.159449958 C45.9913728,0.313783875 48.7801188,0.731593923 51.4745039,1.39156327 C71.3608433,6.26160838 86.1215173,24.2479046 86.1215173,45.6943504 C86.1215173,55.9217436 82.7649058,65.3633981 77.0964535,72.9700987 L82.0533733,72.9700987 C87.7218264,65.3633981 91.0788626,55.9217436 91.0788626,45.6943504 C91.0788626,24.2479046 76.3181886,6.26160838 56.4322747,1.39156327"/>
      <path fill="#E6F9FF" d="M43.1324936,0.159449958 C40.2736145,0.313783875 37.4848685,0.731593923 34.7900583,1.39156327 C14.9032941,6.26160838 0.143045034,24.2479046 0.143045034,45.6943504 C0.143045034,55.9217436 3.49965645,65.3633981 9.16810893,72.9700987 L77.0964535,72.9700987 C82.7649058,65.3633981 86.1219428,55.9217436 86.1219428,45.6943504 C86.1219428,24.2479046 71.361268,6.26160838 51.4745039,1.39156327 C48.7796937,0.731593923 45.9909477,0.313783875 43.1324936,0.159449958 Z"/>
      <g fill="#124354" transform="translate(1.153 22.639)">
        <path d="M14.7401148,1.12116486 C13.2116389,1.12116486 11.9675206,2.36862629 11.9675206,3.90173338 C11.9675206,5.43441412 13.2116389,6.6823019 14.7401148,6.6823019 C16.2685907,6.6823019 17.5118589,5.43441412 17.5118589,3.90173338 C17.5118589,2.36862629 16.2685907,1.12116486 14.7401148,1.12116486 M14.7401148,7.22502861 C12.9128295,7.22502861 11.4264334,5.73455522 11.4264334,3.90173338 C11.4264334,2.06933787 12.9128295,0.578011793 14.7401148,0.578011793 C16.5674002,0.578011793 18.0533712,2.06933787 18.0533712,3.90173338 C18.0533712,5.73455522 16.5674002,7.22502861 14.7401148,7.22502861"/>
        <polygon points="3.233 3.63 11.739 3.63 11.739 4.173 3.233 4.173"/>
        <path d="M11.5886451,9.52511564 C10.0601691,9.52511564 8.81690103,10.7725771 8.81690103,12.3056841 C8.81690103,13.8383649 10.0601691,15.0862527 11.5886451,15.0862527 C13.117121,15.0862527 14.3612392,13.8383649 14.3612392,12.3056841 C14.3612392,10.7725771 13.117121,9.52511564 11.5886451,9.52511564 M11.5886451,15.6289794 C9.76135973,15.6289794 8.27538866,14.1380796 8.27538866,12.3056841 C8.27538866,10.4724359 9.76135973,8.98196255 11.5886451,8.98196255 C13.4159304,8.98196255 14.9023265,10.4724359 14.9023265,12.3056841 C14.9023265,14.1380796 13.4159304,15.6289794 11.5886451,15.6289794"/>
        <polygon points=".082 12.034 8.588 12.034 8.588 12.577 .082 12.577"/>
      </g>
    </g>
    <g transform="translate(92 34)">
      <path stroke="#E5E5E5" stroke-width=".14" d="M0.0734657533,98.1551678 C0.0734657533,55.1854716 34.736137,20.3521558 77.4953286,20.3521558 C120.253671,20.3521558 154.917191,55.1854716 154.917191,98.1551678 C154.917191,141.124863 120.253671,175.958179 77.4953286,175.958179 C34.736137,175.958179 0.0734657533,141.124863 0.0734657533,98.1551678 Z"/>
      <path fill="#A1D1E1" fill-rule="nonzero" d="M78.6607261,38.6341464 C69.5943196,38.6341464 62.2440945,46.0208713 62.2440945,55.1317818 C62.2440945,60.3778777 64.6837152,65.048685 68.4819798,68.0696864 L91.535433,44.9030714 C88.5291882,41.0857423 83.8811958,38.6341464 78.6607261,38.6341464"/>
      <path stroke="#A9CAD3" stroke-width=".2" d="M64.6850394,71.3875937 C68.3448902,74.2994173 72.9673228,76.0418119 77.997492,76.0418119 C89.8558687,76.0418119 99.4685037,66.3817348 99.4685037,54.4656887 C99.4685037,49.4102669 97.7338163,44.7654486 94.8362924,41.087108"/>
      <rect width="1.22" height="97.505" x="77.5" y="4.906" fill="#E5E5E5" fill-rule="nonzero"/>
      <path fill="#FFFFFF" fill-rule="nonzero" d="M52.5963949,56.5702433 C52.5963949,62.9753038 54.7942016,68.8616747 58.4654943,73.5212699 L96.6690388,35.1292179 C92.0322707,31.440282 86.1747366,29.2316553 79.8010543,29.2316553 C64.7766395,29.2316553 52.5963949,41.4714329 52.5963949,56.5702433" opacity=".2"/>
      <path fill="#FFFFFF" fill-rule="nonzero" d="M95.1968505,55.0933263 C95.1968505,51.1914588 93.8577082,47.6056608 91.6214415,44.7665505 L68.3464567,68.1561183 C71.1716588,70.4033943 74.73989,71.7491289 78.6230647,71.7491289 C87.7762626,71.7491289 95.1968505,64.2920096 95.1968505,55.0933263 M111.056825,97.2888983 C114.312916,101.504991 116.763592,106.353649 118.161487,111.50556 C119.595086,116.648929 119.935103,122.080176 119.300121,127.375173 C118.656638,132.673587 116.954001,137.839593 114.323117,142.478107 C111.697333,147.119611 108.154351,151.232769 103.963637,154.514753 C99.7763238,157.801008 94.9400014,160.25139 89.8146643,161.6643 C84.6906034,163.077211 79.2890021,163.470587 74.0153327,162.811115 C68.7395385,162.163176 63.5959258,160.452563 58.9750897,157.810404 C54.3483034,155.177642 50.2566194,151.606498 46.9911777,147.391687 C43.7244608,143.176874 41.2899365,138.313268 39.8865148,133.160503 C38.4767178,128.009018 38.1043988,122.579906 38.754257,117.280211 C39.40199,111.979662 41.1088772,106.812375 43.7435868,102.175142 C46.3731961,97.5344918 49.9200023,93.4226154 54.1124164,90.1436213 C58.3018553,86.8603562 63.1398773,84.4138182 68.2643641,83.0047515 C73.3884261,81.5811635 78.7862016,81.232207 84.0594458,81.8613537 C89.3318401,82.5255237 94.4639775,84.2416886 99.0865128,86.8723159 C103.693748,89.5311322 107.778632,93.0881815 111.056825,97.2888983 M111.056825,97.2888983 C107.775657,93.0898894 103.689074,89.5371121 99.0814126,86.8821397 C94.4584519,84.2549299 89.3263153,82.5426085 84.0564703,81.8831365 C78.7857763,81.2578343 73.3918263,81.6102078 68.2728647,83.036786 C63.1534783,84.4475598 58.3218314,86.894953 54.1391927,90.1777909 C49.9527289,93.456785 46.4139982,97.5656719 43.7907642,102.20205 C41.162855,106.835439 39.4614931,111.995466 38.8188603,117.288753 C38.1736774,122.579906 38.5493965,128.000049 39.9596185,133.140854 C41.3634652,138.282088 43.7967145,143.134589 47.0591811,147.338297 C50.3161224,151.54542 54.3959059,155.113573 59.0124916,157.743774 C63.6227023,160.384224 68.7565391,162.095264 74.023408,162.745766 C79.2885773,163.408655 84.6821023,163.018695 89.8002138,161.611337 C94.9196008,160.20398 99.7516722,157.760432 103.936861,154.480156 C108.12545,151.204579 111.668431,147.097401 114.294215,142.461449 C116.926799,137.829342 118.631986,132.668034 119.278444,127.372183 C119.916402,122.080604 119.58106,116.651492 118.150862,111.50855 C116.757215,106.356212 114.310366,101.507127 111.056825,97.2888983"/>
      <path fill="#FFFFFF" fill-rule="nonzero" d="M56.1417323,87.3869804 C56.1417323,86.2015122 57.097679,85.2404183 58.2773393,85.2404183 C59.4569996,85.2404183 60.4133859,86.2015122 60.4133859,87.3869804 C60.4133859,88.5724487 59.4569996,89.5331013 58.2773393,89.5331013 C57.097679,89.5331013 56.1417323,88.5724487 56.1417323,87.3869804"/>
      <path fill="#7DACBC" fill-rule="nonzero" d="M107.401575,107.317073 C107.613261,107.720958 107.816373,108.130235 108.011811,108.543554 C107.816373,108.130235 107.613261,107.720958 107.401575,107.317073 M107.401575,107.317073 C106.527558,105.583326 105.504693,103.941304 104.350394,102.41115 C105.504693,103.941304 106.527558,105.583326 107.401575,107.317073 M109.232283,112.222997 C109.711306,113.224319 110.118131,114.247531 110.452756,115.289198 C110.118131,114.247531 109.711306,113.224319 109.232283,112.222997 M109.842519,115.902439 C110.104671,116.908188 110.309171,117.930985 110.452756,118.968641 C110.309171,117.930985 110.104671,116.908188 109.842519,115.902439 M108.011811,109.770035 C108.224935,110.1747 108.428886,110.58324 108.622047,110.996515 C108.428886,110.58324 108.224935,110.1747 108.011811,109.770035"/>
      <path fill="#A1D1E1" fill-rule="nonzero" d="M103.740158,102.41115 C102.297513,100.611049 100.659277,98.9666649 98.8582679,97.5052262 C100.659277,98.9666649 102.297513,100.611049 103.740158,102.41115"/>
      <g opacity=".8" transform="translate(110.453 118.355)">
        <mask id="af" fill="white">
          <use xlink:href="#ae"/>
        </mask>
        <path fill="#E6F9FF" fill-rule="nonzero" d="M0.305728347,0.00919860629 C0.322204725,0.153310105 0.33746063,0.298034843 0.352106299,0.441533101 C0.33746063,0.298034843 0.322204725,0.153310105 0.305728347,0.00919860629" mask="url(#af)"/>
      </g>
      <path fill="#E6F9FF" fill-rule="nonzero" d="M94.6995082,111.924261 L100.39955,106.196157 L94.6995082,111.924261 Z" opacity=".8"/>
      <g opacity=".8" transform="translate(109.842 115.29)">
        <mask id="ah" fill="white">
          <use xlink:href="#ag"/>
        </mask>
        <path fill="#E6F9FF" fill-rule="nonzero" d="M0.135472441,0.161895471 C0.167814961,0.312139373 0.200767717,0.462383275 0.231279528,0.613240418 C0.200767717,0.462383275 0.167814961,0.312139373 0.135472441,0.161895471" mask="url(#ah)"/>
      </g>
      <path fill="#7DACBC" fill-rule="nonzero" d="M100.089064,106.182247 L94.5866138,111.760194 C96.4256723,114.735355 97.4897267,118.251804 97.4897267,122.021193 C97.4897267,122.025886 97.4893062,122.030578 97.4893062,122.034843 L110.452756,122.034843 C110.452756,120.928382 110.395956,119.834717 110.287825,118.756408 C110.277728,118.656169 110.266788,118.555931 110.25627,118.456118 C110.144773,117.443071 109.986575,116.444952 109.783778,115.46347 C109.76274,115.358539 109.740021,115.254035 109.717721,115.149531 C109.493467,114.114303 109.220827,113.097417 108.899801,112.102284 C108.765164,111.685122 108.622533,111.272225 108.471907,110.86274 C108.321282,110.454109 108.162662,110.048889 107.996049,109.647936 C107.829436,109.246983 107.654829,108.850294 107.473068,108.457871 C107.290888,108.065449 107.101133,107.676865 106.904227,107.293399 C106.017305,105.568019 104.979757,103.93392 103.808415,102.41115 L100.089064,106.182247 L100.089064,106.182247 Z"/>
      <path fill="#A1D1E1" fill-rule="nonzero" d="M78.1713477,102.950492 C85.038223,102.950492 91.0628817,106.643655 94.4596927,112.196849 L99.9969762,106.522603 L103.740158,102.686694 C102.344087,100.85096 100.758739,99.1740252 99.0158732,97.6836563 C98.7668921,97.4710566 98.5145232,97.2619273 98.2591912,97.0567038 C92.8718043,92.7287787 86.0845357,90.1463415 78.7078424,90.1463415 C77.3392943,90.1463415 75.9910714,90.2348521 74.667408,90.4075354 C74.1385351,90.4760878 73.6134739,90.5585252 73.0922229,90.6539775 C72.3114055,90.7967235 71.5403269,90.9689729 70.7802575,91.1694237 C57.3518055,94.709862 47.3637775,107.034145 46.9983515,121.808965 C46.9915765,122.087948 46.988189,122.367365 46.988189,122.648084 L58.9621358,122.648084 L58.9621358,122.634199 C58.9621358,111.762972 67.5617143,102.950492 78.1713477,102.950492"/>
      <g opacity=".8" transform="translate(46.988 89.533)">
        <mask id="aj" fill="white">
          <use xlink:href="#ai"/>
        </mask>
        <path fill="#E6F9FF" fill-rule="nonzero" d="M31.3550309,12.8330563 C38.2457189,12.8330563 44.2912703,16.4732515 47.69986,21.9468014 L53.2563456,16.3539358 L57.0125077,12.5730424 C55.6115953,10.7636361 54.0207501,9.11075147 52.2718402,7.64175829 C52.0219959,7.4322076 51.7687524,7.22607812 51.5125345,7.02379751 C46.1064655,2.75794389 39.2956597,0.212544287 31.8933859,0.212544287 C30.5200921,0.212544287 29.1671939,0.299785806 27.8389402,0.469992298 C27.3082336,0.537561709 26.7813511,0.618816068 26.2582928,0.712900056 C25.4747675,0.853598389 24.7010152,1.02337723 23.9383102,1.2209536 C10.4632911,4.71061434 0.440626713,16.8581405 0.0739335086,31.4210592 C0.0671350249,31.6960411 0.0637357828,31.9714506 0.0637357828,32.248143 L12.0792056,32.248143 L12.0792056,32.2344581 C12.0792056,21.5191469 20.7086057,12.8330563 31.3550309,12.8330563" mask="url(#aj)"/>
      </g>
      <path fill="#A1D1E1" fill-rule="nonzero" d="M103.740158,102.41115 L100.07874,106.090592 L103.740158,102.41115 Z"/>
      <g opacity=".8" transform="translate(100.079 102.41)">
        <mask id="al" fill="white">
          <use xlink:href="#ak"/>
        </mask>
        <path fill="#E6F9FF" fill-rule="nonzero" d="M3.92009646,0.171707317 L0.143954725,3.9668683 L3.92009646,0.171707317 Z" mask="url(#al)"/>
      </g>
      <path fill="#FFFFFF" fill-rule="nonzero" d="M94.5866138,111.609756 L84.2125982,122.034843 L94.5866138,111.609756 Z"/>
      <g opacity=".8" transform="translate(84.213 111.61)">
        <mask id="an" fill="white">
          <use xlink:href="#am"/>
        </mask>
        <path fill="#E6F9FF" fill-rule="nonzero" d="M10.6586787,0.140407526 L0.0751322835,10.7760569 L10.6586787,0.140407526 Z" mask="url(#an)"/>
      </g>
      <path fill="#FFFFFF" fill-rule="nonzero" d="M97.6377954,122.020994 C97.6377954,118.196413 96.5417022,114.628046 94.6484497,111.609756 L84.2125982,122.034843 L97.6377954,122.034843 C97.6377954,122.030516 97.6377954,122.025754 97.6377954,122.020994"/>
      <g opacity=".8" transform="translate(94.586 102.41)">
        <mask id="ap" fill="white">
          <use xlink:href="#ao"/>
        </mask>
        <path fill="#E6F9FF" fill-rule="nonzero" d="M10.6911921,1.40568856 C10.3853906,0.986232113 10.0699228,0.57356848 9.74391027,0.169395873 L5.85987874,3.92327633 L0.11379685,9.47513055 C0.402023622,9.92006003 0.67003937,10.3785752 0.920480312,10.846855 L10.6911921,1.40568856 L10.6911921,1.40568856 Z" mask="url(#ap)"/>
      </g>
      <path fill="#E5E5E5" fill-rule="nonzero" d="M97.9603158,122.021182 C97.9603158,122.025878 97.9603158,122.030574 97.9603158,122.034843 L111.062992,122.034843 C111.062992,120.927442 111.005578,119.832847 110.896279,118.753621 C110.886072,118.653298 110.87544,118.552974 110.864383,118.452223 C110.751682,117.439169 110.591774,116.440202 110.387636,115.457885 C110.365521,115.352865 110.342981,115.248272 110.320016,115.143679 C110.093337,114.107571 109.817751,113.089821 109.493256,112.093842 C109.358016,111.676325 109.213418,111.263078 109.061164,110.853245 C108.908912,110.444266 108.748153,110.038703 108.58059,109.637409 C108.412177,109.236114 108.235682,108.839088 108.051533,108.446332 C107.867809,108.053576 107.676004,107.664662 107.476544,107.280871 C106.81905,106.013806 106.078625,104.797542 105.263775,103.637631 L95.8070863,113.130377 C97.1811893,115.793435 97.9603158,118.815523 97.9603158,122.021182"/>
      <g opacity=".8" transform="translate(95.807 103.638)">
        <mask id="ar" fill="white">
          <use xlink:href="#aq"/>
        </mask>
        <path fill="#E6F9FF" fill-rule="nonzero" d="M2.18625601,18.739986 C2.18625601,18.7447386 2.18625601,18.7494913 2.18625601,18.7538119 L15.2423447,18.7538119 C15.2423447,17.6330592 15.1851351,16.5252682 15.0762249,15.4330313 C15.0660542,15.3314983 15.0554599,15.2299652 15.0444417,15.1279999 C14.9321413,14.1027317 14.7728018,13.0917212 14.5693897,12.097561 C14.5473534,11.9912752 14.5248934,11.8854216 14.5020095,11.779568 C14.2761373,10.7309686 14.0015311,9.70094772 13.6781906,8.69296168 C13.5434301,8.27041112 13.3993466,7.85218119 13.2476351,7.43740769 C13.0959236,7.02349825 12.9357366,6.61304528 12.7687692,6.20691289 C12.6009542,5.80078049 12.4250875,5.39896864 12.2415929,5.00147735 C12.058522,4.60398606 11.8673994,4.21038327 11.6686488,3.82196516 C11.0134924,2.53962369 10.2756999,1.30869687 9.4637467,0.134801394 L0.0406824147,9.74199307 C1.40989994,12.4371568 2.18625601,15.4956795 2.18625601,18.739986" mask="url(#ar)"/>
      </g>
      <g opacity=".8" transform="translate(84.213 111.61)">
        <mask id="at" fill="white">
          <use xlink:href="#as"/>
        </mask>
        <path fill="#E6F9FF" fill-rule="nonzero" d="M10.4174329,0.140407526 L0.0734317584,10.7760569 L2.24933071,10.7760569 L11.2058581,1.56655944 C10.9606561,1.07954843 10.699136,0.603134216 10.4174329,0.140407526" mask="url(#at)"/>
      </g>
      <path fill="#E5E5E5" fill-rule="nonzero" d="M97.6377954,121.408431 C97.6377954,118.31765 96.8614391,115.403862 95.4922219,112.836237 L86.6535431,121.421603 L97.6377954,121.421603 C97.6377954,121.417487 97.6377954,121.412959 97.6377954,121.408431"/>
      <g opacity=".8" transform="translate(86.653 112.836)">
        <mask id="av" fill="white">
          <use xlink:href="#au"/>
        </mask>
        <path fill="#E6F9FF" fill-rule="nonzero" d="M11.2333414,8.93686413 C11.2333414,5.79721255 10.4466339,2.83735192 9.05916009,0.22912892 L0.102632692,8.95024393 L11.2333414,8.95024393 C11.2333414,8.94606273 11.2333414,8.94146343 11.2333414,8.93686413" mask="url(#av)"/>
      </g>
      <path fill="#FFFFFF" fill-rule="nonzero" d="M78.3459247,103.02439 C67.7673322,103.02439 59.1929134,111.803809 59.1929134,122.634252 L59.1929134,122.648084 L84.4167093,122.648084 L94.5866138,112.236059 C91.1997418,106.703698 85.1927094,103.02439 78.3459247,103.02439"/>
      <path fill="#E6F9FF" fill-rule="nonzero" d="M78.5897165,103.027803 C67.9766035,103.027803 59.3742039,111.692517 59.3742039,122.381457 L59.3742039,122.395108 L84.6803123,122.395108 L94.8834042,112.119119 C91.4854793,106.65904 85.4588444,103.027803 78.5897165,103.027803"/>
      <path fill="#A1D1E1" fill-rule="nonzero" d="M78.207121,6.03061573e-15 C75.4576047,6.03061573e-15 73.2283464,2.24023263 73.2283464,5.00286086 C73.2283464,6.40793954 73.8056141,7.67637203 74.7329583,8.58536585 L81.7716536,1.51201911 C80.8675349,0.580109492 79.6044716,0 78.207121,0"/>
      <path fill="#FFFFFF" fill-rule="nonzero" d="M77.9602994,10.4250871 C80.7389227,10.4250871 82.9921257,8.16079124 82.9921257,5.36805956 C82.9921257,3.99507015 82.4470723,2.75118721 81.5631194,1.83972126 L74.4488189,8.98904573 C75.3553931,9.87692078 76.5936088,10.4250871 77.9602994,10.4250871"/>
      <rect width="78.11" height="1.839" x="41.496" y="117.742" fill="#7DACBC" fill-rule="nonzero"/>
      <path stroke="#124354" stroke-width=".35" d="M21.3582677,133.07317 L126.929134,133.07317"/>
      <path stroke="#124354" stroke-width=".2" d="M104.96063,129.393728 L118.996063,129.393728 M48.2086614,115.902439 L111.062992,115.902439"/>
    </g>
    <rect width="65" height="2" y="166" fill="#BADDE5" fill-rule="nonzero"/>
    <path fill="#E5E5E5" fill-rule="nonzero" d="M57.8933334,64.0769231 C57.8933334,60.1685922 61.0513636,57 64.9466666,57 C68.84197,57 72,60.1685922 72,64.0769231 C72,67.9852542 68.84197,71.1538462 64.9466666,71.1538462 C61.0513636,71.1538462 57.8933334,67.9852542 57.8933334,64.0769231 M26,78.2307693 C26,76.7016702 27.2356689,75.4615385 28.7602121,75.4615385 C30.2843311,75.4615385 31.52,76.7016702 31.52,78.2307693 C31.52,79.7598683 30.2843311,81 28.7602121,81 C27.2356689,81 26,79.7598683 26,78.2307693"/>
    <path fill="#6594A4" fill-rule="nonzero" d="M78,57.5 C78,55.5666376 79.5666375,54 81.5,54 C83.4324909,54 85,55.5666376 85,57.5 C85,59.4333624 83.4324909,61 81.5,61 C79.5666375,61 78,59.4333624 78,57.5"/>
    <path fill="#7DACBC" fill-rule="nonzero" d="M64.1892777,64 C49.7250123,64 38,75.7254391 38,90.1897053 C38,98.6735739 42.0356253,106.214316 48.2898195,111 L85,74.2902465 C80.2138887,68.0351984 72.6735737,64 64.1892777,64"/>
    <path fill="#E5E5E5" fill-rule="nonzero" d="M89,90.4877607 C89,84.6624782 87.04645,79.2944811 83.760159,75 L48,110.759742 C52.2940651,114.046034 57.6628948,116 63.4881769,116 C77.5778703,116 89,104.577871 89,90.4877607"/>
    <path fill="#7DACBC" fill-opacity=".6" fill-rule="nonzero" d="M91,90.99929 C91,84.6060492 88.8557009,78.7133326 85.2489206,74 L46,113.248607 C50.7134204,116.85532 56.6054063,119 62.9987664,119 C78.463547,119 91,106.46336 91,90.99929"/>
    <g opacity=".18" transform="translate(44 69)">
      <mask id="ax" fill="white">
        <use xlink:href="#aw"/>
      </mask>
      <path fill="#7DACBC" fill-rule="nonzero" d="M54.9974218,20.6953489 C54.9974218,12.9484496 52.3784765,5.80868217 47.9741797,0.0967829459 L0.0425390625,47.6572868 C5.79863282,52.0274419 12.9941797,54.6260852 20.8016015,54.6260852 C39.688086,54.6260852 54.9974218,39.4345736 54.9974218,20.6953489" mask="url(#ax)"/>
    </g>
    <path fill="#B7E8F8" fill-rule="nonzero" d="M63.3299469,17 C56.5202333,17 51,22.5203385 51,29.3297625 C51,33.2511151 52.8325296,36.741794 55.6849017,39 L73,21.684991 C70.7418374,18.8321452 67.2512246,17 63.3299469,17"/>
    <polygon fill="#FFFFFF" fill-rule="nonzero" points="65 138 63 138 63.951 0 63.935 0"/>
    <path fill="#6594A4" fill-rule="nonzero" d="M76,29.6547772 C76,26.7618247 75.0024139,24.1040035 73.3364121,22 L56,39.3371402 C58.104335,41.0032121 60.7624646,42 63.6544557,42 C70.4721321,42 76,36.4727395 76,29.6547772"/>
    <path stroke="#FFFFFF" stroke-width=".12" d="M26,91.0002123 C26,70.0131725 43.0131727,53 64.0002127,53 C84.9868275,53 102,70.0131725 102,91.0002123 C102,111.986828 84.9868275,129 64.0002127,129 C43.0131727,129 26,111.986828 26,91.0002123 Z"/>
    <path stroke="#124354" stroke-width=".29" d="M28.776,192 L99,192 M22,194.285714 L63.272,194.285714"/>
    <path fill="#B8D6DD" fill-rule="nonzero" d="M72.9855664,137.96527 C70.3814685,137.335971 67.6607437,137 64.8608158,137 C64.2363375,137 63.6162102,137.019383 63,137.052118 C65.146292,137.167124 67.2403624,137.475959 69.2634997,137.96527 C84.1952855,141.573942 95.2779324,154.899927 95.2779324,170.790489 C95.2779324,174.253143 94.7504989,177.592608 93.7726568,180.738243 C92.6111696,184.476565 90.813019,187.938788 88.5013593,191 L92.223427,191 C94.5350866,187.938788 96.3328019,184.476565 97.4947236,180.738243 C98.4721312,177.592608 99,174.253143 99,170.790489 C99,154.899927 87.9169178,141.573942 72.9855664,137.96527"/>
    <path fill="#E6F9FF" fill-rule="nonzero" d="M87.8614455,192 C90.1146542,188.718561 91.8680926,185.007723 93,181 L33,181 C34.1323317,185.007723 35.8853456,188.718561 38.138554,192 L87.8614455,192 L87.8614455,192 Z" opacity=".6"/>
    <g fill-rule="nonzero" transform="translate(31 137)">
      <path fill="#E6F9FF" d="M37.6283356,1.12803922 C35.662651,0.638431374 33.628047,0.328705883 31.5427047,0.213529412 C29.4573624,0.328705883 27.4227585,0.638431374 25.456651,1.12803922 C15.6489463,3.57133333 7.55196646,10.4625098 3.33392618,19.5873333 C1.29128859,24.0533333 0.181389262,28.8950588 0.181389262,34.0020784 C0.181389262,37.4698824 0.693845637,40.8147451 1.64349664,43.9646275 L61.4414901,43.9646275 C62.3915637,40.8147451 62.9040204,37.4698824 62.9040204,34.0020784 C62.9040204,18.0878824 52.1360939,4.74164706 37.6283356,1.12803922 Z"/>
      <path fill="#124354" d="M13.1506619,17.1881503 C11.88099,17.1881503 10.8475278,18.2348864 10.8475278,19.5213056 C10.8475278,20.8073671 11.88099,21.854461 13.1506619,21.854461 C14.420334,21.854461 15.45309,20.8073671 15.45309,19.5213056 C15.45309,18.2348864 14.420334,17.1881503 13.1506619,17.1881503 M13.1506619,22.3098591 C11.6327754,22.3098591 10.3980582,21.0592134 10.3980582,19.5213056 C10.3980582,17.9837555 11.6327754,16.7323944 13.1506619,16.7323944 C14.6685485,16.7323944 15.9029126,17.9837555 15.9029126,19.5213056 C15.9029126,21.0592134 14.6685485,22.3098591 13.1506619,22.3098591"/>
      <polygon fill="#124354" points="3.058 19.211 10.398 19.211 10.398 19.761 3.058 19.761"/>
      <path fill="#124354" d="M10.0920565,24.0050517 C8.82238447,24.0050517 7.78962845,25.0517878 7.78962845,26.338207 C7.78962845,27.6242686 8.82238447,28.6713624 10.0920565,28.6713624 C11.3617285,28.6713624 12.3951906,27.6242686 12.3951906,26.338207 C12.3951906,25.0517878 11.3617285,24.0050517 10.0920565,24.0050517 M10.0920565,29.1267605 C8.57416994,29.1267605 7.33980582,27.8757572 7.33980582,26.338207 C7.33980582,24.7999415 8.57416994,23.5492958 10.0920565,23.5492958 C11.609943,23.5492958 12.8446602,24.7999415 12.8446602,26.338207 C12.8446602,27.8757572 11.609943,29.1267605 10.0920565,29.1267605"/>
      <polygon fill="#124354" points=".612 26.648 7.951 26.648 7.951 27.198 .612 27.198"/>
    </g>
  </g>
</svg>
