<svg width="131" height="25" viewBox="0 0 131 25" version="1.1" xmlns="http://www.w3.org/2000/svg" xmlns:xlink="http://www.w3.org/1999/xlink">
<title>BigchainDB no bleed full colour logo</title>
<desc>Created using Figma</desc>
<g id="Canvas" transform="translate(-11671 -4674)">
<g id="BigchainDB no bleed full colour logo">
<g id="Shape">
<use xlink:href="#path0_fill" transform="translate(11777 4674)" fill="#04C695"/>
</g>
<g id="Shape">
<use xlink:href="#path1_fill" transform="translate(11784 4681)" fill="#FFFFFE"/>
</g>
<g id="Shape">
<use xlink:href="#path2_fill" transform="translate(11790 4681)" fill="#FFFFFE"/>
</g>
<g id="Shape">
<use xlink:href="#path3_fill" transform="translate(11671 4674)" fill="#FFFFFE"/>
</g>
<g id="Shape">
<use xlink:href="#path4_fill" transform="translate(11686 4674)" fill="#FFFFFE"/>
</g>
<g id="Shape">
<use xlink:href="#path5_fill" transform="translate(11694 4674)" fill="#FFFFFE"/>
</g>
<g id="Shape">
<use xlink:href="#path6_fill" transform="translate(11708 4674)" fill="#FFFFFE"/>
</g>
<g id="Shape">
<use xlink:href="#path7_fill" transform="translate(11723 4674)" fill="#FFFFFE"/>
</g>
<g id="Shape">
<use xlink:href="#path8_fill" transform="translate(11736 4674)" fill="#FFFFFE"/>
</g>
<g id="Shape">
<use xlink:href="#path9_fill" transform="translate(11750 4674)" fill="#FFFFFE"/>
</g>
<g id="Shape">
<use xlink:href="#path10_fill" transform="translate(11757 4674)" fill="#FFFFFE"/>
</g>
</g>
</g>
<defs>
<path id="path0_fill" fill-rule="evenodd" d="M 0 12.0005C 0 18.6274 5.59668 24 12.5 24C 19.4004 23.9922 24.9922 18.6235 25 11.9985C 24.999 5.37158 19.4023 -0.000488248 12.499 3.32832e-08C 5.5957 0.000488315 0 5.37305 0 12.0005ZM 1.27344 11.9995C 1.27246 6.04688 6.29883 1.22021 12.5 1.21973C 18.6982 1.22607 23.7217 6.04785 23.7295 11.9985C 23.7295 17.9517 18.7031 22.7773 12.502 22.7773C 6.30078 22.7778 1.27441 17.9521 1.27344 11.9995Z"/>
<path id="path1_fill" fill-rule="evenodd" d="M 2.28711 0L 0 0L 0 11L 2.15234 11C 3.07031 11.001 3.77441 10.7563 4.26465 10.2661C 4.75488 9.77637 5 9.01611 5 7.98633L 5 2.84229C 5.00195 1.94727 4.76953 1.24951 4.30273 0.75C 3.83594 0.25 3.16406 0 2.28711 0ZM 2.26172 9.51514L 1.5459 9.51514L 1.5498 1.48193L 2.26172 1.48193C 2.70605 1.48193 3.0166 1.60059 3.19141 1.8374C 3.36719 2.07422 3.45508 2.40918 3.45508 2.8418L 3.45508 8.14014C 3.45312 8.61328 3.3623 8.96045 3.18262 9.18213C 3.00293 9.4043 2.69531 9.51514 2.26172 9.51514Z"/>
<path id="path2_fill" fill-rule="evenodd" d="M 0 0.00113539L 2.25195 0.00113539C 2.68457 -0.0105834 3.11523 0.0685182 3.5166 0.233557C 3.84375 0.372229 4.13574 0.583655 4.37305 0.851721C 4.59375 1.10856 4.75684 1.41178 4.85059 1.7399C 4.94629 2.07877 4.99414 2.42985 4.99316 2.78239L 4.99316 3.18522C 4.99805 3.43912 4.97461 3.69254 4.9248 3.94157C 4.88574 4.13053 4.81641 4.31168 4.72168 4.47819C 4.63184 4.63151 4.51953 4.7692 4.38867 4.88737C 4.24805 5.01334 4.09668 5.12467 3.93457 5.22037C 4.28125 5.38004 4.56445 5.65543 4.7373 6.00114C 4.91211 6.34635 5 6.80729 5 7.38444L 5 8.00309C 5 8.97135 4.77051 9.71305 4.31152 10.2272C 3.85156 10.7419 3.11719 10.9992 2.10742 11.0002L 0.00390625 11.0002L 0 0.00113539ZM 1.54492 4.51383L 2.24219 4.51383C 2.75684 4.51383 3.10254 4.38199 3.2793 4.1193C 3.45605 3.85612 3.54395 3.47233 3.54199 2.96793C 3.54199 2.4733 3.44434 2.1027 3.24805 1.85563C 3.05176 1.60905 2.69531 1.48551 2.18066 1.48551L 1.54395 1.48551L 1.54492 4.51383ZM 2.21191 9.42643L 1.54492 9.42643L 1.54785 5.90299L 2.22852 5.90299C 2.45996 5.89469 2.69141 5.9318 2.90918 6.01188C 3.06836 6.07682 3.20508 6.18668 3.30371 6.32828C 3.4082 6.48405 3.47559 6.66324 3.49902 6.85026C 3.53125 7.09098 3.54688 7.33365 3.54492 7.57633C 3.54492 7.8444 3.53418 8.09196 3.51465 8.31803C 3.5 8.52409 3.44336 8.72428 3.34766 8.90592C 3.25488 9.07242 3.11523 9.20719 2.94629 9.29215C 2.71484 9.3942 2.46289 9.4401 2.21191 9.42643Z"/>
<path id="path3_fill" fill-rule="evenodd" d="M 9.3916 22.6178C 8.30273 23.5954 6.96387 24.0002 4.75098 24.0002L 0.412109 24.0002C 0.195312 24.006 0.0126953 23.841 0 23.6281L 0 0.372222C 0.0126953 0.159331 0.195312 -0.00570808 0.412109 0.000151295L 4.78906 0.000151295C 6.96387 0.000151295 8.26953 0.372222 9.31641 1.38248C 10.4385 2.46109 10.7764 3.70816 10.7764 6.20328C 10.7764 7.88882 10.5518 9.37222 9.20508 10.5851C 8.73145 11.0299 8.15332 11.3542 7.52246 11.5285C 8.21191 11.6667 8.84766 11.9938 9.35547 12.4718C 10.8135 13.82 11 15.6134 11 17.3214C 11 20.2921 10.5137 21.5734 9.3916 22.6178ZM 4.82031 1.78726L 2.62012 1.78726C 2.40332 1.7814 2.2207 1.94644 2.20801 2.15933L 2.20801 10.3131C 2.2207 10.5265 2.40332 10.6911 2.62012 10.6852L 4.82031 10.6852C 7.2207 10.6852 8.57031 9.43814 8.57031 6.23648C 8.57031 2.73062 7.2207 1.78726 4.82031 1.78726ZM 2.62012 12.4396L 4.82031 12.4396C 7.36523 12.4381 8.79297 13.8205 8.78711 17.3258C 8.78711 21.1623 7.36523 22.2135 4.82031 22.2135L 2.62012 22.2135C 2.40332 22.2194 2.2207 22.0548 2.20801 21.8419L 2.20801 12.8112C 2.2207 12.5983 2.40332 12.4333 2.62012 12.4396Z"/>
<path id="path4_fill" d="M 0 23.628L 0 0.371994C 0.0166354 0.158942 0.265149 -0.00586823 0.56068 0.000160226L 2.43932 0.000160226C 2.73485 -0.00586823 2.98336 0.158942 3 0.371994L 3 23.628C 2.98336 23.8411 2.73485 24.0059 2.43932 23.9998L 0.56068 23.9998C 0.265149 24.0059 0.0166354 23.8411 0 23.628Z"/>
<path id="path5_fill" d="M 6.16029 25C 4.34553 25 2.9248 24.4512 1.97717 23.5583C 0.201954 21.9105 0 19.9869 0 12.5C 0 5.01312 0.197717 3.09087 1.97717 1.44169C 2.92762 0.548833 4.34836 0 6.16029 0C 7.97222 0 9.27715 0.515367 10.2248 1.33862C 11.3249 2.32785 11.9195 3.79096 11.9915 5.48163C 11.9861 5.70292 11.7928 5.87833 11.5594 5.87385L 10.1019 5.87385C 9.87673 5.88028 9.68561 5.71854 9.66694 5.50573C 9.5822 3.66245 8.82664 1.82052 6.16312 1.82052C 5.01918 1.82052 4.22973 2.16454 3.67753 2.71338C 2.5336 3.91813 2.33588 5.32368 2.33588 12.5013C 2.33588 19.679 2.5336 21.0872 3.67753 22.2893C 4.22973 22.8381 5.01918 23.1822 6.16312 23.1822C 8.17559 23.1822 9.67541 21.8087 9.67541 19.5077L 9.67541 13.8748C 9.66251 13.6577 9.46971 13.4898 9.24044 13.4959L 6.16029 13.4959L 6.16029 11.7785L 11.565 11.7785C 11.7943 11.7723 11.9871 11.9403 12 12.1573L 12 19.505C 12.0028 23.142 9.27998 25 6.16029 25Z"/>
<path id="path6_fill" d="M 10.0401 23.8327C 9.09121 24.5542 7.82701 25 6.16828 25C 4.35117 25 2.92859 24.4512 1.97973 23.5583C 0.202215 21.9105 0 19.9869 0 12.5C 0 5.01312 0.197973 3.09087 1.97973 1.44169C 2.92859 0.548833 4.35117 0 6.16828 0C 7.94579 0 9.24959 0.480563 10.1984 1.30515C 11.3297 2.29305 11.8954 3.78293 11.9986 5.47494C 11.9986 5.58333 11.9524 5.68713 11.8704 5.76276C 11.7883 5.83839 11.6775 5.87942 11.563 5.87653L 10.1122 5.87653C 9.88721 5.883 9.69605 5.72202 9.67664 5.50975C 9.62432 4.40539 9.32595 3.35993 8.57931 2.64912C 8.0264 2.13375 7.27551 1.82453 6.17535 1.82453C 5.02993 1.82453 4.23945 2.16856 3.68654 2.71739C 2.54113 3.92215 2.34315 5.32769 2.34315 12.5054C 2.34315 19.683 2.54113 21.0912 3.68654 22.2933C 4.23945 22.8421 5.02993 23.1862 6.17535 23.1862C 7.28117 23.1862 8.03205 22.877 8.57931 22.3616C 9.32595 21.6508 9.62574 20.6053 9.67664 19.501C 9.69176 19.2855 9.88416 19.1199 10.1122 19.1262L 11.5645 19.1262C 11.6789 19.1233 11.7898 19.1643 11.8718 19.2399C 11.9538 19.3155 12 19.4193 12 19.5277C 11.8925 21.3121 11.2915 22.8408 10.0401 23.8327Z"/>
<path id="path7_fill" d="M 8.7917 23.628L 8.7917 12.7082L 2.20696 12.7082L 2.20696 23.628C 2.19473 23.8411 2.01191 24.0059 1.7945 23.9998L 0.412467 23.9998C 0.195058 24.0059 0.0122379 23.8411 0 23.628L 0 0.372033C 0.0122379 0.158982 0.195058 -0.00582826 0.412467 0.000200193L 1.79718 0.000200193C 2.01356 -0.00438512 2.19475 0.160026 2.20696 0.372033L 2.20696 10.8832L 8.7917 10.8832L 8.7917 0.372033C 8.80394 0.158982 8.98676 -0.00582826 9.20416 0.000200193L 10.5862 0.000200193C 10.8041 -0.00655494 10.9878 0.158456 11 0.372033L 11 23.628C 10.9878 23.8411 10.8049 24.0059 10.5875 23.9998L 9.20416 23.9998C 8.98676 24.0059 8.80394 23.8411 8.7917 23.628Z"/>
<path id="path8_fill" fill-rule="evenodd" d="M 10.2558 17.7254L 11.6191 23.701C 11.666 23.8816 11.8398 24.0061 12.0341 23.9993L 13.58 23.9993C 13.7031 24.0052 13.8212 23.9573 13.9013 23.8694C 13.9824 23.781 14.0156 23.6624 13.9931 23.5472L 8.18451 0.29178C 8.1347 0.114534 7.9638 -0.00607125 7.7724 0.00027641L 6.33392 0.00027641C 6.14251 -0.00655953 5.97162 0.114046 5.92083 0.290315L 0.00774826 23.5462C -0.0166658 23.6609 0.0175139 23.7801 0.097592 23.8689C 0.178647 23.9573 0.296811 24.0056 0.419858 23.9993L 2.00677 23.9993C 2.20208 24.0047 2.37396 23.8792 2.41986 23.6985L 3.74701 17.7268C 3.7929 17.5462 3.96478 17.4207 4.15912 17.4261L 9.84369 17.4261C 10.038 17.4207 10.2099 17.5452 10.2558 17.7254ZM 4.37298 15.1951L 7.00189 3.57254L 9.66009 15.1936C 9.6806 15.3074 9.64544 15.4241 9.56537 15.5105C 9.48529 15.597 9.3681 15.6443 9.24798 15.6389L 4.78607 15.6389C 4.66595 15.6443 4.54876 15.597 4.46869 15.511C 4.38861 15.4246 4.35345 15.3089 4.37298 15.1951Z"/>
<path id="path9_fill" d="M 0 23.628L 0 0.371993C 0.0166354 0.158942 0.265149 -0.00586822 0.56068 0.000160226L 2.43932 0.000160226C 2.73485 -0.00586822 2.98336 0.158942 3 0.371993L 3 23.628C 2.98336 23.841 2.73485 24.0058 2.43932 23.9998L 0.5625 23.9998C 0.266272 24.0066 0.0166468 23.8415 0 23.628Z"/>
<path id="path10_fill" d="M 10.5105 23.7594L 2.42765 5.29357L 2.42765 23.628C 2.41419 23.8411 2.21309 24.0059 1.97394 23.9998L 0.453711 23.9998C 0.214563 24.0059 0.0134616 23.8411 0 23.628L 0 0.373285C 0.0134616 0.160245 0.214563 -0.00455612 0.453711 0.00147201L 2.10799 0.00147201C 2.29398 -0.00520926 2.46568 0.0901104 2.54108 0.241902L 10.6239 18.7025L 10.5768 0.373285C 10.5895 0.159725 10.7908 -0.00584465 11.0305 0.000158185L 12.5581 0.000158185C 12.7932 -0.000140299 12.9875 0.163853 13 0.373285L 13 23.628C 12.9865 23.8411 12.7854 24.0059 12.5463 23.9998L 10.9377 23.9998C 10.7538 24.0043 10.5851 23.9094 10.5105 23.7594Z"/>
</defs>
</svg>
