<?xml version="1.0" encoding="UTF-8"?>
<svg width="1783px" height="532px" viewBox="0 0 1783 532" version="1.1" xmlns="http://www.w3.org/2000/svg" xmlns:xlink="http://www.w3.org/1999/xlink">
    <!-- Generator: Sketch 46.2 (44496) - http://www.bohemiancoding.com/sketch -->
    <title>dex</title>
    <desc>Created with Sketch.</desc>
    <defs>
        <path d="M2.92500234,65.1500521 C-1.00416747,69.0875553 -0.96666744,75.4375603 2.99583573,79.3333968 L70.80839,145.850117 L145.079283,71.5458906 L77.2625618,5.02917069 C73.2917253,1.13750091 66.8833868,1.1666676 62.954217,5.09583741 L2.92500234,65.1500521 Z" id="path-1"></path>
        <rect id="path-3" x="4.14166998" y="2.53333536" width="1778.72226" height="539.612932"></rect>
        <path d="M2.92500234,69.7708892 C-1.00416747,73.700059 -0.96666744,80.0542307 2.99583573,83.9459005 L63.6167176,143.408448 C67.5917207,147.300118 74.0000592,147.270951 77.929229,143.337615 L145.079283,76.1583943 L70.0708894,2.59166874 L2.92500234,69.7708892 Z" id="path-5"></path>
        <rect id="path-7" x="4.14166998" y="2.53333536" width="1778.72226" height="539.612932"></rect>
        <path d="M78.5958962,142.866781 C74.6625597,146.800117 68.2500546,146.829284 64.2792181,142.933448 L3.66250293,83.4667334 C-0.30833358,79.570897 -0.33750027,73.2208919 3.59166954,69.2875554 L70.7417233,2.12083503 L145.741783,75.6875606 L78.5958962,142.866781 Z" id="path-9"></path>
        <rect id="path-11" x="4.14166998" y="2.53333536" width="1778.72226" height="539.612932"></rect>
        <path d="M82.2583991,141.795947 C78.3750627,145.64595 71.9958909,145.600116 68.1625545,141.812613 L0.18333348,74.6625597 L74.9583933,0.3750003 L142.937614,67.5167207 C146.837617,71.3625571 146.783451,77.6792288 142.962614,81.4750652 L82.2583991,141.795947 Z" id="path-13"></path>
        <rect id="path-15" x="4.14166998" y="2.53333536" width="1778.72226" height="539.612932"></rect>
        <path d="M82.929233,142.262614 C79.0417299,146.129284 72.6667248,146.07095 68.8292217,142.283447 L0.85000068,75.1458934 L75.6292272,0.85416735 L143.604282,67.9917211 C147.504285,71.8458908 147.450118,78.1625625 143.629282,81.9583989 L82.929233,142.262614 Z" id="path-17"></path>
        <path d="M78.0333958,146.645951 L2.99166906,72.5292247 L70.7333899,5.22500418 C74.620893,1.37083443 80.9958981,1.42083447 84.8292345,5.21667084 L145.750117,65.3750523 C149.65012,69.2333887 149.595953,75.5458938 145.775117,79.3417301 L78.0333958,146.645951 Z" id="path-19"></path>
        <path d="M75.2250602,144.962616 L0.18333348,70.84589 L67.9250543,3.53750283 C71.8083908,-0.31250025 78.1833959,-0.26666688 82.0208989,3.52083615 L142.937614,63.6917176 C146.837617,67.5458874 146.783451,73.8583924 142.962614,77.6542288 L75.2250602,144.962616 Z" id="path-21"></path>
        <rect id="path-23" x="4.14166998" y="2.53333536" width="1778.72226" height="539.612932"></rect>
        <path d="M71.2083903,147.116784 L3.22916925,79.9792306 C-0.67083387,76.1208942 -0.61666716,69.8125558 3.20416923,66.0125528 L63.9083845,5.70417123 C67.7917209,1.84166814 74.1708927,1.90000152 78.0042291,5.68750455 L145.98345,72.8250583 L71.2083903,147.116784 Z" id="path-25"></path>
        <rect id="path-27" x="4.14166998" y="2.53333536" width="1778.72226" height="539.612932"></rect>
        <polygon id="path-29" points="76.237561 150.26262 0.19166682 75.6667272 75.4875604 0.34166694 151.537621 74.9250599"></polygon>
        <polygon id="path-31" points="79.7375638 150.733454 3.69166962 76.1375609 78.9958965 0.81250065 155.033457 75.3958937"></polygon>
        <polygon id="path-33" points="79.0708966 150.26262 3.02500242 75.6667272 78.3292293 0.34166694 154.36679 74.9250599"></polygon>
        <polygon id="path-35" points="79.7375638 153.950123 3.69166962 79.3542301 78.9958965 4.03333656 155.033457 78.6208962"></polygon>
    </defs>
    <g id="Page-1" stroke="none" stroke-width="1" fill="none" fill-rule="evenodd">
        <g id="dex" transform="translate(0.000000, -2.000000)">
            <g id="Clipped" transform="translate(0.000000, 120.833430)">
                <mask id="mask-2" fill="white">
                    <use xlink:href="#path-1"></use>
                </mask>
                <g id="Shape"></g>
                <g mask="url(#mask-2)">
                    <g transform="translate(-8.333340, -125.000100)">
                        <mask id="mask-4" fill="white">
                            <use xlink:href="#path-3"></use>
                        </mask>
                        <g id="Rectangle-path" stroke="none" fill="none"></g>
                        <rect id="Rectangle-path" stroke="none" fill="#E0E0DF" fill-rule="nonzero" mask="url(#mask-4)" x="-41.6292" y="77.1667284" width="245.004363" height="243.646028"></rect>
                    </g>
                </g>
            </g>
            <g id="Clipped" transform="translate(0.000000, 266.666880)">
                <mask id="mask-6" fill="white">
                    <use xlink:href="#path-5"></use>
                </mask>
                <g id="Shape"></g>
                <g mask="url(#mask-6)">
                    <g transform="translate(-8.333340, -270.833550)">
                        <mask id="mask-8" fill="white">
                            <use xlink:href="#path-7"></use>
                        </mask>
                        <g id="Rectangle-path" stroke="none" fill="none"></g>
                        <rect id="Rectangle-path" stroke="none" fill="#E0E0DF" fill-rule="nonzero" mask="url(#mask-8)" x="-41.6292" y="223.462679" width="245.004363" height="243.637695"></rect>
                    </g>
                </g>
            </g>
            <g id="Clipped" transform="translate(120.833430, 387.500310)">
                <mask id="mask-10" fill="white">
                    <use xlink:href="#path-9"></use>
                </mask>
                <g id="Shape"></g>
                <g mask="url(#mask-10)">
                    <g transform="translate(-129.166770, -391.666980)">
                        <mask id="mask-12" fill="white">
                            <use xlink:href="#path-11"></use>
                        </mask>
                        <g id="Rectangle-path" stroke="none" fill="none"></g>
                        <rect id="Rectangle-path" stroke="none" fill="#E0E0DF" fill-rule="nonzero" mask="url(#mask-12)" x="79.8667306" y="343.821108" width="245.004363" height="243.641862"></rect>
                    </g>
                </g>
            </g>
            <g id="Clipped" transform="translate(266.666880, 387.500310)">
                <mask id="mask-14" fill="white">
                    <use xlink:href="#path-13"></use>
                </mask>
                <g id="Shape"></g>
                <g mask="url(#mask-14)">
                    <g transform="translate(-275.000220, -391.666980)">
                        <mask id="mask-16" fill="white">
                            <use xlink:href="#path-15"></use>
                        </mask>
                        <g id="Rectangle-path" stroke="none" fill="none"></g>
                        <rect id="Rectangle-path" stroke="none" fill="#E0E0DF" fill-rule="nonzero" mask="url(#mask-16)" x="225.221014" y="342.075274" width="245.591863" height="244.225195"></rect>
                    </g>
                </g>
            </g>
            <g id="Clipped" transform="translate(387.500310, 266.666880)">
                <mask id="mask-18" fill="white">
                    <use xlink:href="#path-17"></use>
                </mask>
                <g id="Shape"></g>
                <rect id="Rectangle-path" fill="#E0E0DF" fill-rule="nonzero" mask="url(#mask-18)" x="-49.1125393" y="-49.1083726" width="245.591863" height="244.212695"></rect>
            </g>
            <g id="Clipped" transform="translate(383.333640, 120.833430)">
                <mask id="mask-20" fill="white">
                    <use xlink:href="#path-19"></use>
                </mask>
                <g id="Shape"></g>
                <rect id="Rectangle-path" fill="#E0E0DF" fill-rule="nonzero" mask="url(#mask-20)" x="-46.9708709" y="-47.6083714" width="245.587696" height="244.221029"></rect>
            </g>
            <g id="Clipped" transform="translate(266.666880, 4.166670)">
                <mask id="mask-22" fill="white">
                    <use xlink:href="#path-21"></use>
                </mask>
                <g id="Shape"></g>
                <g mask="url(#mask-22)">
                    <g transform="translate(-275.000220, -8.333340)">
                        <mask id="mask-24" fill="white">
                            <use xlink:href="#path-23"></use>
                        </mask>
                        <g id="Rectangle-path" stroke="none" fill="none"></g>
                        <rect id="Rectangle-path" stroke="none" fill="#E0E0DF" fill-rule="nonzero" mask="url(#mask-24)" x="225.221014" y="-40.9708661" width="245.591863" height="244.229362"></rect>
                    </g>
                </g>
            </g>
            <g id="Clipped" transform="translate(120.833430, 0.000000)">
                <mask id="mask-26" fill="white">
                    <use xlink:href="#path-25"></use>
                </mask>
                <g id="Shape"></g>
                <g mask="url(#mask-26)">
                    <g transform="translate(-129.166770, -4.166670)">
                        <mask id="mask-28" fill="white">
                            <use xlink:href="#path-27"></use>
                        </mask>
                        <g id="Rectangle-path" stroke="none" fill="none"></g>
                        <rect id="Rectangle-path" stroke="none" fill="#E0E0DF" fill-rule="nonzero" mask="url(#mask-28)" x="79.5208969" y="-42.9708677" width="245.591863" height="244.221029"></rect>
                    </g>
                </g>
            </g>
            <g id="Clipped" transform="translate(312.500250, 191.666820)">
                <mask id="mask-30" fill="white">
                    <use xlink:href="#path-29"></use>
                </mask>
                <g id="Shape"></g>
                <rect id="Rectangle-path" fill="#D33C37" fill-rule="nonzero" mask="url(#mask-30)" x="-49.7708731" y="-49.620873" width="251.271034" height="249.846033"></rect>
            </g>
            <g id="Clipped" transform="translate(187.500150, 70.833390)">
                <mask id="mask-32" fill="white">
                    <use xlink:href="#path-31"></use>
                </mask>
                <g id="Shape"></g>
                <rect id="Rectangle-path" fill="#D33C37" fill-rule="nonzero" mask="url(#mask-32)" x="-46.2708703" y="-49.154206" width="251.266868" height="249.854367"></rect>
            </g>
            <g id="Clipped" transform="translate(66.666720, 191.666820)">
                <mask id="mask-34" fill="white">
                    <use xlink:href="#path-33"></use>
                </mask>
                <g id="Shape"></g>
                <rect id="Rectangle-path" fill="#D33C37" fill-rule="nonzero" mask="url(#mask-34)" x="-46.9375376" y="-49.620873" width="251.271034" height="249.846033"></rect>
            </g>
            <g id="Clipped" transform="translate(187.500150, 308.333580)">
                <mask id="mask-36" fill="white">
                    <use xlink:href="#path-35"></use>
                </mask>
                <g id="Shape"></g>
                <rect id="Rectangle-path" fill="#D33C37" fill-rule="nonzero" mask="url(#mask-36)" x="-46.2708703" y="-45.9292034" width="251.266868" height="249.841867"></rect>
            </g>
            <path d="M169.700136,268.775215 L267.629381,365.204459 L364.608625,267.816881 L266.675213,171.39597 L169.700136,268.775215 Z M267.671047,397.212818 C261.058542,397.212818 254.825204,394.658649 250.121033,390.029479 L145.029283,286.550229 C140.266779,281.862725 137.62511,275.604387 137.591777,268.925215 C137.56261,262.246043 140.145945,255.962705 144.858449,251.233534 L248.912699,146.745951 C258.287707,137.32511 274.721053,137.245943 284.196061,146.575117 L389.279478,250.0377 C394.037815,254.72937 396.675317,260.979375 396.708651,267.658547 C396.746151,274.333553 394.166982,280.612724 389.458645,285.350228 L285.396062,389.854479 C280.666891,394.596149 274.375219,397.212818 267.671047,397.212818 Z" id="Shape" fill="#BB2B26" fill-rule="nonzero"></path>
            <path d="M808.983981,413.021164 C888.234044,413.021164 946.142424,353.279449 946.142424,273.421052 C946.142424,194.166822 888.234044,134.425108 808.983981,134.425108 L739.483925,134.425108 L739.483925,413.021164 L808.983981,413.021164 Z M660.846362,72.2500578 C660.846362,66.1542196 665.717199,60.6667152 671.817204,60.6667152 L816.296486,60.6667152 C933.954914,60.6667152 1030.27166,156.375125 1030.27166,273.421052 C1030.27166,391.67948 933.954914,487.392057 816.296486,487.392057 L671.817204,487.392057 C665.717199,487.392057 660.846362,481.904552 660.846362,475.808714 L660.846362,72.2500578 Z" id="Shape" fill="#FFFFFF" fill-rule="nonzero"></path>
            <path d="M1100.70505,72.2500578 C1100.70505,66.1542196 1105.57588,60.6667152 1112.29256,60.6667152 L1360.39692,60.6667152 C1367.10943,60.6667152 1371.98026,66.1542196 1371.98026,72.2500578 L1371.98026,122.233431 C1371.98026,128.333436 1367.10943,133.816774 1360.39692,133.816774 L1179.95928,133.816774 L1179.95928,233.791854 L1330.52606,233.791854 C1336.62607,233.791854 1342.10941,239.275191 1342.10941,245.375196 L1342.10941,295.975237 C1342.10941,302.679409 1336.62607,307.558579 1330.52606,307.558579 L1179.95928,307.558579 L1179.95928,414.241998 L1360.39692,414.241998 C1367.10943,414.241998 1371.98026,419.725336 1371.98026,425.825341 L1371.98026,475.808714 C1371.98026,481.904552 1367.10943,487.392057 1360.39692,487.392057 L1112.29256,487.392057 C1105.57588,487.392057 1100.70505,481.904552 1100.70505,475.808714 L1100.70505,72.2500578 Z" id="Shape" fill="#FFFFFF" fill-rule="nonzero"></path>
            <path d="M1558.73875,268.541881 L1436.81365,77.7333955 C1431.93865,69.8125558 1436.81365,60.6667152 1447.18032,60.6667152 L1517.88871,60.6667152 C1522.76788,60.6667152 1525.81372,63.712551 1527.64706,66.1542196 L1605.68045,195.387656 L1606.28045,195.387656 L1685.53468,66.1542196 C1686.75552,63.712551 1690.41385,60.6667152 1695.29302,60.6667152 L1766.00141,60.6667152 C1776.36809,60.6667152 1781.24726,69.8125558 1776.36809,77.7333955 L1653.83466,268.541881 L1780.63059,470.32121 C1785.50976,478.850383 1780.63059,487.392057 1770.26808,487.392057 L1704.4347,487.392057 C1699.55553,487.392057 1695.29302,484.342054 1694.07219,481.904552 L1606.90129,342.300274 L1605.06378,342.300274 L1519.10955,481.904552 C1517.28455,484.342054 1513.62621,487.392057 1508.74704,487.392057 L1442.91365,487.392057 C1431.93865,487.392057 1427.05947,478.246216 1431.93865,470.32121 L1558.73875,268.541881 Z" id="Shape" fill="#FFFFFF" fill-rule="nonzero"></path>
        </g>
    </g>
</svg>