<svg width="18" height="13" viewBox="0 0 18 13" version="1.1" xmlns="http://www.w3.org/2000/svg" xmlns:xlink="http://www.w3.org/1999/xlink">
<title>button-mail</title>
<desc>Created using Figma</desc>
<g id="Canvas" transform="translate(-11692 -4430)">
<g id="button-mail">
<use xlink:href="#path0_fill" transform="translate(11692 4430)" fill="#E4E4E4"/>
</g>
</g>
<defs>
<path id="path0_fill" fill-rule="evenodd" d="M 8.31934 7.80664C 8.73145 8.07568 9.26855 8.07568 9.68066 7.80664L 17.4531 2.20068C 17.7949 1.97803 18 1.60303 18 1.20117C 18 0.537598 17.4502 0 16.7725 0L 1.22754 0C 0.549805 0 0 0.537598 0 1.20117C 0 1.60303 0.205078 1.97803 0.546875 2.20068L 8.31934 7.80664ZM 16.7725 12.5845C 17.4502 12.5845 18 12.0254 18 11.3359L 18 3.93359C 18 3.74854 17.8994 3.57861 17.7393 3.49121C 17.5791 3.4043 17.3848 3.41406 17.2334 3.5166L 10.1348 8.90479C 9.44727 9.37061 8.55273 9.37061 7.86523 8.90479L 0.766602 3.51709C 0.615234 3.41406 0.420898 3.4043 0.260742 3.49121C 0.100586 3.57861 0 3.74854 0 3.93359L 0 11.3359C 0 12.0254 0.549805 12.5845 1.22754 12.5845L 16.7725 12.5845Z"/>
</defs>
</svg>
