<?xml version="1.0" encoding="UTF-8"?>
<svg width="370px" height="88px" viewBox="0 0 370 88" version="1.1" xmlns="http://www.w3.org/2000/svg" xmlns:xlink="http://www.w3.org/1999/xlink">
    <!-- Generator: Sketch 46.2 (44496) - http://www.bohemiancoding.com/sketch -->
    <title>IPDB logo - all white</title>
    <desc>Created with Sketch.</desc>
    <defs>
        <polygon id="path-1" points="0 95.31 379.62 95.31 379.62 0 0 0"></polygon>
    </defs>
    <g id="Page-1" stroke="none" stroke-width="1" fill="none" fill-rule="evenodd">
        <g id="IPDB-logo---all-white" transform="translate(-5.000000, -4.000000)">
            <path d="M76.8198,8.8601 C97.8068,8.8601 114.8198,25.8731 114.8198,46.8601 C114.8198,67.8461 97.8068,84.8601 76.8198,84.8601 C75.3528,84.8541 74.1658,83.6671 74.1598,82.2001 L74.1598,39.8701 C74.1598,38.3981 75.3528,37.2051 76.8248,37.2051 C78.2968,37.2051 79.4898,38.3981 79.4898,39.8701 L79.4898,79.4701 L81.1698,79.2501 C97.4548,77.1041 109.6138,63.2021 109.5728,46.7771 C109.5268,28.7341 94.8628,14.1441 76.8198,14.1901 C75.3478,14.1901 74.1548,12.9971 74.1548,11.5251 C74.1548,10.0531 75.3478,8.8601 76.8198,8.8601 Z" id="Fill-1" fill="#FFFFFF"></path>
            <path d="M153.0498,39.8098 L151.3098,38.8098 L152.7498,37.4298 C159.4078,31.1838 159.7408,20.7228 153.4948,14.0648 C147.2488,7.4068 136.7878,7.0738 130.1298,13.3198 C126.8078,16.4358 124.9198,20.7858 124.9098,25.3398 L124.9098,57.1808 C124.9098,58.6518 126.1028,59.8458 127.5748,59.8458 C129.0468,59.8458 130.2398,58.6518 130.2398,57.1808 L130.2398,25.3598 C130.2368,19.1908 135.2348,14.1868 141.4038,14.1838 C147.5728,14.1808 152.5768,19.1788 152.5798,25.3478 L152.5798,25.3598 C152.5228,31.0028 148.3868,35.7728 142.8098,36.6298 L142.8098,42.1198 C152.4598,42.9218 159.9238,50.9188 160.0598,60.6008 C160.1268,70.9348 151.8438,79.3878 141.5098,79.5298 L141.3198,79.5298 C136.9318,79.5208 132.6858,77.9758 129.3198,75.1598 C128.8418,74.7568 128.2358,74.5368 127.6098,74.5398 C126.1408,74.5318 124.9438,75.7158 124.9348,77.1848 C124.9308,77.9828 125.2848,78.7408 125.8998,79.2498 C130.2368,82.8748 135.7088,84.8608 141.3598,84.8598 L141.5398,84.8598 C154.8368,84.7178 165.5148,73.8478 165.4198,60.5498 C165.2908,51.9258 160.5778,44.0218 153.0498,39.8098" id="Fill-3" fill="#FFFFFF"></path>
            <path d="M8,34.9997 C6.525,34.9887 5.321,36.1747 5.31,37.6497 C5.31,37.6667 5.31,37.6837 5.31,37.6997 L5.31,82.3597 C5.31,83.8317 6.503,85.0247 7.975,85.0247 C9.447,85.0247 10.64,83.8317 10.64,82.3597 L10.64,37.6997 C10.657,36.2257 9.475,35.0167 8,34.9997 C8,34.9997 8,34.9997 8,34.9997" id="Fill-5" fill="#FFFFFF"></path>
            <path d="M8,8.8601 C6.533,8.8651 5.346,10.0531 5.34,11.5201 L5.34,24.1501 C5.34,25.6221 6.533,26.8151 8.005,26.8151 C9.477,26.8151 10.67,25.6221 10.67,24.1501 L10.67,11.5301 C10.67,10.0551 9.475,8.8601 8,8.8601" id="Fill-7" fill="#FFFFFF"></path>
            <path d="M45.0898,8.8601 C32.2448,8.8711 21.8318,19.2751 21.8098,32.1201 L21.8098,82.3601 C21.8098,83.8321 23.0028,85.0251 24.4748,85.0251 C25.9468,85.0251 27.1398,83.8321 27.1398,82.3601 L27.1398,32.1201 C27.3058,22.1801 35.4978,14.2571 45.4378,14.4231 C55.3778,14.5891 63.3008,22.7811 63.1348,32.7211 C62.9698,42.5971 54.8778,50.4961 44.9998,50.4201 C43.5278,50.4201 42.3348,51.6131 42.3348,53.0851 C42.3348,54.5561 43.5278,55.7501 44.9998,55.7501 C57.9448,55.7631 68.4508,45.2801 68.4648,32.3351 C68.4788,19.3891 57.9958,8.8841 45.0498,8.8701 L45.0898,8.8601 Z" id="Fill-9" fill="#FFFFFF"></path>
            <mask id="mask-2" fill="white">
                <use xlink:href="#path-1"></use>
            </mask>
            <g id="Clip-12"></g>
            <polygon id="Fill-11" fill="#FFFFFF" mask="url(#mask-2)" points="184.75 91.09 187.18 91.09 187.18 4.28 184.75 4.28"></polygon>
            <polygon id="Fill-13" fill="#FFFFFF" mask="url(#mask-2)" points="214.07 38.72 216.87 38.72 216.87 19.18 214.07 19.18"></polygon>
            <polygon id="Fill-14" fill="#FFFFFF" mask="url(#mask-2)" points="220.8496 19.1799 223.5396 19.1799 227.7696 30.9999 227.8206 30.9999 227.8206 19.1799 230.6206 19.1799 230.6206 38.7199 227.9996 38.7199 223.7096 26.9999 223.6606 26.9999 223.6606 38.7199 220.8606 38.7199"></polygon>
            <polygon id="Fill-15" fill="#FFFFFF" mask="url(#mask-2)" points="236.3604 21.8098 233.1204 21.8098 233.1204 19.1798 242.4004 19.1798 242.4004 21.8198 239.1604 21.8198 239.1604 38.7198 236.3604 38.7198"></polygon>
            <polygon id="Fill-16" fill="#FFFFFF" mask="url(#mask-2)" points="245 19.1799 253.35 19.1799 253.35 21.8199 247.8 21.8199 247.8 27.5599 252.63 27.5599 252.63 30.1999 247.8 30.1999 247.8 35.9399 253.35 35.9399 253.35 38.7399 245 38.7399"></polygon>
            <path d="M259.3398,27.9099 L260.9298,27.9099 C261.3338,27.9259 261.7358,27.8539 262.1108,27.6999 C262.3878,27.5749 262.6208,27.3689 262.7798,27.1099 C262.9488,26.8179 263.0578,26.4949 263.0998,26.1599 C263.2098,25.2939 263.2098,24.4169 263.0998,23.5499 C263.0638,23.1949 262.9468,22.8529 262.7598,22.5499 C262.5688,22.2929 262.3038,22.1009 261.9998,21.9999 C261.6028,21.8579 261.1818,21.7939 260.7598,21.8099 L259.3098,21.8099 L259.3398,27.9099 Z M256.5398,19.1799 L260.9998,19.1799 C264.2928,19.1799 265.9408,21.0939 265.9408,24.9199 C265.9638,25.9199 265.7788,26.9139 265.4008,27.8399 C265.0188,28.7009 264.3558,29.4069 263.5198,29.8399 L266.5198,38.7599 L263.5198,38.7599 L260.9998,30.3799 L259.3298,30.3799 L259.3298,38.7299 L256.5298,38.7299 L256.5398,19.1799 Z" id="Fill-17" fill="#FFFFFF" mask="url(#mask-2)"></path>
            <path d="M272.4102,28.4602 L273.7602,28.4602 C274.2142,28.4822 274.6662,28.3972 275.0802,28.2102 C275.3742,28.0642 275.6162,27.8302 275.7692,27.5402 C275.9222,27.2272 276.0112,26.8872 276.0302,26.5402 L276.0302,25.1902 L276.0302,23.8902 C276.0122,23.5212 275.9272,23.1592 275.7802,22.8202 C275.6422,22.5212 275.4162,22.2732 275.1302,22.1102 C274.7402,21.9152 274.3062,21.8252 273.8702,21.8502 L272.4202,21.8502 L272.4102,28.4602 Z M269.6102,19.1802 L273.8092,19.1802 C274.4882,19.1702 275.1642,19.2722 275.8092,19.4802 C276.4212,19.6992 276.9672,20.0662 277.4002,20.5502 C277.8782,21.0572 278.2222,21.6762 278.4002,22.3502 C278.6052,23.2652 278.6962,24.2022 278.6702,25.1402 C278.6792,25.8792 278.6292,26.6182 278.5192,27.3502 C278.4202,27.9602 278.1992,28.5452 277.8702,29.0702 C277.5002,29.6982 276.9682,30.2162 276.3302,30.5702 C275.5462,30.9612 274.6762,31.1472 273.8002,31.1102 L272.3702,31.1102 L272.3702,38.7402 L269.5702,38.7402 L269.6102,19.1802 Z" id="Fill-18" fill="#FFFFFF" mask="url(#mask-2)"></path>
            <polygon id="Fill-19" fill="#FFFFFF" mask="url(#mask-2)" points="282.1504 19.1799 285.0004 19.1799 285.0004 35.9199 290.5494 35.9199 290.5494 38.7199 282.2004 38.7199"></polygon>
            <path d="M298,24.8 L297.95,24.8 L296.58,31.88 L299.38,31.88 L298,24.8 Z M296.78,19.18 L299.11,19.18 L303.47,38.73 L300.67,38.73 L299.85,34.53 L296,34.53 L295.18,38.73 L292.38,38.73 L296.78,19.18 Z" id="Fill-20" fill="#FFFFFF" mask="url(#mask-2)"></path>
            <polygon id="Fill-21" fill="#FFFFFF" mask="url(#mask-2)" points="306.1201 19.1799 308.8091 19.1799 313.0001 30.9999 313.0501 30.9999 313.0501 19.1799 315.8491 19.1799 315.8491 38.7199 313.2101 38.7199 309.0001 26.9999 308.9501 26.9999 308.9501 38.7199 306.1501 38.7199"></polygon>
            <polygon id="Fill-22" fill="#FFFFFF" mask="url(#mask-2)" points="319.79 19.1799 328.14 19.1799 328.14 21.8199 322.59 21.8199 322.59 27.5599 327.42 27.5599 327.42 30.1999 322.59 30.1999 322.59 35.9399 328.14 35.9399 328.14 38.7399 319.79 38.7399"></polygon>
            <polygon id="Fill-23" fill="#FFFFFF" mask="url(#mask-2)" points="333.1602 21.8098 329.9202 21.8098 329.9202 19.1798 339.2002 19.1798 339.2002 21.8198 336.0002 21.8198 336.0002 38.7198 333.2002 38.7198"></polygon>
            <path d="M344.5703,24.8098 L344.5193,24.8098 L343.1503,31.8898 L345.9503,31.8898 L344.5703,24.8098 Z M343.3893,19.1798 L345.7193,19.1798 L350.0803,38.7298 L347.2803,38.7298 L346.4603,34.5298 L342.6393,34.5298 L341.8203,38.7298 L339.0003,38.7298 L343.3893,19.1798 Z" id="Fill-24" fill="#FFFFFF" mask="url(#mask-2)"></path>
            <path d="M355.6396,27.9099 L357.2306,27.9099 C357.6336,27.9259 358.0356,27.8539 358.4106,27.6999 C358.6876,27.5749 358.9206,27.3689 359.0796,27.1099 C359.2486,26.8179 359.3586,26.4949 359.4006,26.1599 C359.5096,25.2939 359.5096,24.4169 359.4006,23.5499 C359.3636,23.1949 359.2466,22.8529 359.0596,22.5499 C358.8826,22.2829 358.6276,22.0769 358.3296,21.9599 C357.9326,21.8179 357.5116,21.7539 357.0896,21.7699 L355.6396,21.7699 L355.6396,27.9099 Z M352.8396,19.1799 L357.3396,19.1799 C360.6336,19.1799 362.2806,21.0939 362.2806,24.9199 C362.3036,25.9199 362.1186,26.9139 361.7406,27.8399 C361.3596,28.7009 360.6966,29.4069 359.8606,29.8399 L362.8606,38.7599 L359.8606,38.7599 L357.2496,30.4099 L355.5796,30.4099 L355.5796,38.7599 L352.7806,38.7599 L352.8396,19.1799 Z" id="Fill-25" fill="#FFFFFF" mask="url(#mask-2)"></path>
            <polygon id="Fill-26" fill="#FFFFFF" mask="url(#mask-2)" points="368 30.4602 364.16 19.1802 367.16 19.1802 369.41 26.9502 369.46 26.9502 371.71 19.1802 374.71 19.1802 370.87 30.4602 370.87 38.7202 368 38.7202"></polygon>
            <path d="M216.7998,71.7702 L218.0898,71.7702 C218.7068,71.8322 219.3198,71.6162 219.7598,71.1802 C220.1308,70.6372 220.3038,69.9852 220.2498,69.3302 L220.2498,59.9192 C220.2838,59.2912 220.1188,58.6692 219.7798,58.1402 C219.3468,57.6702 218.7148,57.4362 218.0798,57.5092 L216.7898,57.5092 L216.7998,71.7702 Z M213.9998,54.8602 L218.1508,54.8602 C219.4998,54.7692 220.8248,55.2512 221.7998,56.1902 C222.6918,57.2172 223.1438,58.5522 223.0598,59.9102 L223.0598,69.0492 C223.1708,70.5072 222.6918,71.9492 221.7308,73.0492 C220.6778,73.9772 219.2988,74.4462 217.9008,74.3502 L213.9998,74.3502 L213.9998,54.8602 Z" id="Fill-27" fill="#FFFFFF" mask="url(#mask-2)"></path>
            <path d="M231,60.49 L231,60.49 L229.63,67.57 L232.43,67.57 L231,60.49 Z M229.83,54.86 L232.16,54.86 L236.52,74.41 L233.72,74.41 L232.9,70.21 L229.08,70.21 L228.26,74.41 L225.46,74.41 L229.83,54.86 Z" id="Fill-28" fill="#FFFFFF" mask="url(#mask-2)"></path>
            <polygon id="Fill-29" fill="#FFFFFF" mask="url(#mask-2)" points="239.5996 57.4997 236.3606 57.4997 236.3606 54.8597 245.6396 54.8597 245.6396 57.4997 242.4006 57.4997 242.4006 74.4097 239.5996 74.4097"></polygon>
            <path d="M251,60.49 L251,60.49 L249.63,67.57 L252.43,67.57 L251,60.49 Z M249.84,54.86 L252.17,54.86 L256.53,74.41 L253.73,74.41 L252.91,70.21 L249.1,70.21 L248.28,74.41 L245.48,74.41 L249.84,54.86 Z" id="Fill-30" fill="#FFFFFF" mask="url(#mask-2)"></path>
            <path d="M262.0898,71.5896 L263.2998,71.5896 C263.7568,71.6096 264.2118,71.5236 264.6298,71.3396 C264.9368,71.1886 265.1918,70.9476 265.3608,70.6506 C265.5278,70.3406 265.6288,70.0006 265.6598,69.6506 C265.6938,69.2496 265.7098,68.8106 265.7098,68.3296 C265.7148,67.8986 265.6888,67.4676 265.6298,67.0396 C265.5898,66.7106 265.4738,66.3966 265.2898,66.1196 C265.1058,65.8666 264.8528,65.6726 264.5598,65.5606 C264.1618,65.4176 263.7408,65.3536 263.3198,65.3696 L262.0798,65.3696 L262.0898,71.5896 Z M262.0898,62.8606 L263.3498,62.8606 C264.0538,62.9526 264.7578,62.6916 265.2308,62.1596 C265.5798,61.5546 265.7468,60.8596 265.7098,60.1596 C265.7658,59.4506 265.5748,58.7446 265.1698,58.1596 C264.6558,57.6586 263.9438,57.4156 263.2308,57.4996 L262.0798,57.4996 L262.0898,62.8606 Z M259.2898,54.8606 L263.3798,54.8606 C264.1628,54.8386 264.9428,54.9786 265.6698,55.2706 C266.2618,55.5176 266.7908,55.8936 267.2198,56.3696 C267.6198,56.8266 267.9128,57.3656 268.0798,57.9496 C268.2538,58.5516 268.3418,59.1746 268.3398,59.7996 L268.3398,60.5096 C268.3488,60.9596 268.3088,61.4086 268.2198,61.8506 C268.1528,62.2016 268.0278,62.5396 267.8498,62.8506 C267.6888,63.1226 267.4858,63.3686 267.2498,63.5796 C266.9958,63.8026 266.7218,63.9996 266.4298,64.1696 C267.0588,64.4526 267.5698,64.9436 267.8798,65.5606 C268.2248,66.3326 268.3858,67.1746 268.3498,68.0206 L268.3498,69.1196 C268.4578,70.5646 268.0118,71.9946 267.0998,73.1196 C266.0238,74.1266 264.5678,74.6256 263.0998,74.4896 L259.2798,74.4896 L259.2898,54.8606 Z" id="Fill-31" fill="#FFFFFF" mask="url(#mask-2)"></path>
            <path d="M276.3096,60.49 L276.2596,60.49 L274.8896,67.57 L277.6906,67.57 L276.3096,60.49 Z M275.1296,54.86 L277.4596,54.86 L281.8206,74.41 L278.9996,74.41 L278.1796,70.21 L274.3606,70.21 L273.5396,74.41 L270.7406,74.41 L275.1296,54.86 Z" id="Fill-32" fill="#FFFFFF" mask="url(#mask-2)"></path>
            <path d="M293.6299,60.49 L290.8299,60.49 L290.8299,59.86 C290.8459,59.274 290.6889,58.698 290.3799,58.2 C290.0349,57.712 289.4549,57.444 288.8599,57.5 C288.5289,57.486 288.2009,57.562 287.9099,57.72 C287.6729,57.855 287.4739,58.048 287.3299,58.28 C287.1859,58.527 287.0869,58.798 287.0399,59.08 C286.9999,59.385 286.9859,59.693 286.9999,60 C286.9829,60.333 286.9829,60.667 286.9999,61 C287.0209,61.242 287.0919,61.477 287.2099,61.69 C287.3289,61.894 287.4939,62.068 287.6909,62.2 C287.9599,62.378 288.2479,62.525 288.5499,62.64 L290.6909,63.49 C291.2349,63.686 291.7459,63.969 292.1999,64.33 C292.5729,64.639 292.8769,65.024 293.0899,65.46 C293.3129,65.927 293.4579,66.427 293.5199,66.94 C293.5979,67.574 293.6349,68.212 293.6299,68.85 C293.6349,69.621 293.5509,70.388 293.3799,71.14 C293.2379,71.793 292.9619,72.409 292.5699,72.95 C292.1769,73.466 291.6609,73.875 291.0699,74.14 C290.3519,74.453 289.5729,74.602 288.7899,74.58 C288.1429,74.584 287.5009,74.462 286.9009,74.22 C285.7689,73.778 284.8639,72.898 284.3899,71.78 C284.1409,71.199 284.0149,70.572 284.0199,69.94 L284.0199,68.94 L286.8199,68.94 L286.8199,69.82 C286.8149,70.32 286.9729,70.808 287.2699,71.21 C287.6439,71.655 288.2119,71.886 288.7899,71.83 C289.1709,71.847 289.5509,71.775 289.9009,71.62 C290.1529,71.491 290.3619,71.289 290.4999,71.04 C290.6489,70.754 290.7359,70.441 290.7599,70.12 C290.7929,69.754 290.8099,69.35 290.8099,68.91 C290.8159,68.489 290.7989,68.069 290.7599,67.65 C290.7399,67.37 290.6619,67.097 290.5299,66.85 C290.4089,66.649 290.2409,66.48 290.0399,66.36 C289.7709,66.204 289.4889,66.066 289.1999,65.95 L287.1999,65.13 C286.1729,64.782 285.3089,64.071 284.7699,63.13 C284.3269,62.173 284.1139,61.125 284.1509,60.07 C284.1459,59.362 284.2459,58.658 284.4499,57.98 C284.6309,57.36 284.9339,56.782 285.3399,56.28 C285.7489,55.793 286.2609,55.403 286.8399,55.14 C287.5179,54.832 288.2559,54.681 288.9999,54.7 C289.6559,54.69 290.3079,54.82 290.9099,55.08 C291.4619,55.316 291.9649,55.656 292.3899,56.08 C292.7929,56.486 293.1149,56.965 293.3399,57.49 C293.5579,57.999 293.6699,58.547 293.6699,59.1 L293.6299,60.49 Z" id="Fill-33" fill="#FFFFFF" mask="url(#mask-2)"></path>
            <polygon id="Fill-34" fill="#FFFFFF" mask="url(#mask-2)" points="297.0898 54.8601 305.4408 54.8601 305.4408 57.5001 299.8898 57.5001 299.8898 63.2401 304.7198 63.2401 304.7198 65.8801 299.8898 65.8801 299.8898 71.6201 305.4408 71.6201 305.4408 74.4201 297.0898 74.4201"></polygon>
        </g>
    </g>
</svg>