<?xml version="1.0" encoding="UTF-8"?>
<svg width="138px" height="27px" viewBox="0 0 138 27" version="1.1" xmlns="http://www.w3.org/2000/svg" xmlns:xlink="http://www.w3.org/1999/xlink" xmlns:sketch="http://www.bohemiancoding.com/sketch/ns">
    <!-- Generator: Sketch 3.5.1 (25234) - http://www.bohemiancoding.com/sketch -->
    <title>Group</title>
    <desc>Created with Sketch.</desc>
    <defs></defs>
    <g id="Page-1" stroke="none" stroke-width="1" fill="none" fill-rule="evenodd" sketch:type="MSPage">
        <g id="Group" sketch:type="MSLayerGroup" fill="#FFFFFF">
            <g id="path" sketch:type="MSShapeGroup">
                <path d="M130,27 L130,16.96 C130,13.7 129.846,11.488 127.563,11.488 C126.403,11.488 125.425,12.058 124.7,13 C124.917,13.906 125,14.968 125,16.127 C125,18.374 125.036,21.237 125,24.1 C125,24.572 124.954,24.68 125.244,24.97 L127,27 L119,27 L119,16.96 C119,13.663 118.539,11.488 116.292,11.488 C115.132,11.488 114.652,12.141 114,13.083 L114,24.1 C114,24.572 113.974,24.68 114.3,24.97 L116,27 L108,27 L108,11.56 C108,11.09 107.93,10.981 107.64,10.655 L106,9 L114,9 L114,12.612 C114.906,10.075 116.437,8.5 119.372,8.5 C122.054,8.5 123.866,9.966 124.627,12.757 C125.461,10.365 127.635,8.5 130.68,8.5 C134.268,8.5 136,11.126 136,16.127 C136,18.519 136.036,21.237 136,24.1 C136,24.572 136.004,24.752 136.25,24.97 L138,27 L130,27 L130,27 Z M103,23.955 C103,24.427 102.851,24.572 103.178,24.861 L105,27 L97,27 L97,23 C96.094,25.465 94.044,27 91.363,27 C87.775,27 86,24.39 86,19.461 C86,17.07 85.964,14.461 86,11.525 C86,11.054 85.89,10.945 85.6,10.655 L84,9 L92,9 L92,18.628 C92,21.853 92.269,24.028 94.298,24.028 C95.458,24.028 96.384,23.303 97,22.398 L97,11.56 C97,11.089 96.871,10.98 96.581,10.654 L95,9 L103,9 L103,23.955 L103,23.955 Z M78.002,0.25 C78.8637698,0.249999837 79.6902145,0.592473383 80.2993902,1.20202417 C80.9085659,1.81157496 81.2505306,2.63823037 81.25,3.5 C81.2499998,4.81468424 80.4579461,5.99987851 79.2432588,6.50279935 C78.0285715,7.00572019 76.6305317,6.72729722 75.7011957,5.79738899 C74.7718598,4.86748076 74.4942975,3.46926991 74.9979659,2.2548924 C75.5016344,1.04051489 76.687316,0.249190964 78.002,0.25 L78.002,0.25 Z M75,27 L75,11.56 C75,11.09 75.168,10.981 74.878,10.655 L73,9 L81,9 L81,24.1 C81,24.572 80.99,24.778 81.24,25 L83,27 L75,27 L75,27 Z M64,11.706 C63.493,11.054 62.582,10.583 61.604,10.583 C59.647,10.583 57.762,12.358 57.762,17.613 C57.762,22.543 59.393,24.282 61.422,24.282 C62.329,24.282 63.275,23.846 64,22.904 L64,11.706 L64,11.706 Z M70,23.992 C70,24.462 69.974,24.572 70.3,24.862 L72,27 L64,27 L64,23.303 C62.913,25.804 60.951,27 58.632,27 C54.5,27 51.5,23.738 51.5,17.795 C51.5,12.213 54.754,8.481 59.284,8.481 C61.64,8.481 63.203,9.604 64,11.38 L64,3.878 C64,3.407 63.923,3.261 63.597,2.972 L62,1.305 L70,0.29 L70,23.992 L70,23.992 Z M43.9,16 C43.937,15.529 43.937,15.33 43.937,15.185 C43.937,10.438 43,9.75 41.5,9.75 C40,9.75 38.646,10.745 38.573,16 L43.901,16 L43.9,16 Z M38.573,17 C38.573,21.711 40.965,23.63 43.756,23.63 C45.93,23.63 48.069,22.687 49.265,20.295 L49.337,20.295 C48.395,24.861 45.567,27 41.327,27 C36.761,27 32.448,24.245 32.448,17.867 C32.448,11.162 36.725,8.481 41.545,8.481 C45.387,8.481 49.482,10.292 49.482,16.127 C49.482,16.236 49.482,16.565 49.446,17 L38.573,17 L38.573,17 Z M31.5,27 L19.5,27 L21.89,24.354 C21.974,24.27 22,23.955 22,23.484 L22,7 L14.134,27 L5.581,8.372 C5.364,7.9 5.181,7.285 5,6.777 L5,20.62 C5,21.2 4.965,21.273 5.364,21.816 L9,27 L0,27 L3.64,21.817 C4.039,21.274 4,21.201 4,20.621 L4,6.27 C4,5.653 4.095,5.58 3.805,5.219 L1,1 L9.495,1 L16.85,17.3 L23.24,1 L31.5,1 L29.3,3.75 C28.974,4.076 29,4.349 29,4.856 L29,23.485 C29,23.955 29.005,24.235 29.138,24.355 L31.5,27 L31.5,27 Z" id="Shape"></path>
            </g>
        </g>
    </g>
</svg>